<svg xmlns="http://www.w3.org/2000/svg" xmlns:xlink="http://www.w3.org/1999/xlink" width="1337" zoomAndPan="magnify" viewBox="0 0 1002.75 171.750001" height="229" preserveAspectRatio="xMidYMid meet" version="1.0"><defs><g/></defs><g fill="#000000" fill-opacity="1"><g transform="translate(21.308865, 83.833297)"><g><path d="M 32.984375 0 L 5.921875 0 L 5.921875 -47 L 32.984375 -47 L 32.984375 -38.828125 L 15.875 -38.828125 L 15.875 -28.515625 L 31.796875 -28.515625 L 31.796875 -20.34375 L 15.875 -20.34375 L 15.875 -8.234375 L 32.984375 -8.234375 Z M 32.984375 0 "/></g></g></g><g fill="#000000" fill-opacity="1"><g transform="translate(58.177295, 83.833297)"><g><path d="M 20.28125 -7.171875 C 22 -7.171875 24.054688 -7.546875 26.453125 -8.296875 L 26.453125 -1 C 24.015625 0.09375 21.015625 0.640625 17.453125 0.640625 C 13.535156 0.640625 10.679688 -0.347656 8.890625 -2.328125 C 7.097656 -4.304688 6.203125 -7.28125 6.203125 -11.25 L 6.203125 -28.578125 L 1.515625 -28.578125 L 1.515625 -32.71875 L 6.90625 -36 L 9.734375 -43.578125 L 16 -43.578125 L 16 -35.9375 L 26.0625 -35.9375 L 26.0625 -28.578125 L 16 -28.578125 L 16 -11.25 C 16 -9.851562 16.390625 -8.820312 17.171875 -8.15625 C 17.960938 -7.5 19 -7.171875 20.28125 -7.171875 Z M 20.28125 -7.171875 "/></g></g></g><g fill="#000000" fill-opacity="1"><g transform="translate(86.75274, 83.833297)"><g><path d="M 20.03125 -29.640625 C 17.945312 -29.640625 16.316406 -28.976562 15.140625 -27.65625 C 13.960938 -26.34375 13.285156 -24.472656 13.109375 -22.046875 L 26.875 -22.046875 C 26.832031 -24.472656 26.195312 -26.34375 24.96875 -27.65625 C 23.75 -28.976562 22.101562 -29.640625 20.03125 -29.640625 Z M 21.40625 0.640625 C 15.625 0.640625 11.101562 -0.953125 7.84375 -4.140625 C 4.582031 -7.335938 2.953125 -11.859375 2.953125 -17.703125 C 2.953125 -23.734375 4.457031 -28.390625 7.46875 -31.671875 C 10.476562 -34.960938 14.640625 -36.609375 19.953125 -36.609375 C 25.035156 -36.609375 28.988281 -35.160156 31.8125 -32.265625 C 34.644531 -29.378906 36.0625 -25.382812 36.0625 -20.28125 L 36.0625 -15.53125 L 12.890625 -15.53125 C 12.992188 -12.738281 13.816406 -10.5625 15.359375 -9 C 16.898438 -7.4375 19.066406 -6.65625 21.859375 -6.65625 C 24.023438 -6.65625 26.070312 -6.878906 28 -7.328125 C 29.925781 -7.773438 31.9375 -8.492188 34.03125 -9.484375 L 34.03125 -1.890625 C 32.320312 -1.035156 30.492188 -0.398438 28.546875 0.015625 C 26.597656 0.429688 24.21875 0.640625 21.40625 0.640625 Z M 21.40625 0.640625 "/></g></g></g><g fill="#000000" fill-opacity="1"><g transform="translate(125.646202, 83.833297)"><g><path d="M 19.734375 0.640625 C 8.546875 0.640625 2.953125 -5.5 2.953125 -17.78125 C 2.953125 -23.882812 4.472656 -28.546875 7.515625 -31.765625 C 10.554688 -34.992188 14.921875 -36.609375 20.609375 -36.609375 C 24.765625 -36.609375 28.492188 -35.796875 31.796875 -34.171875 L 28.890625 -26.578125 C 27.347656 -27.203125 25.910156 -27.710938 24.578125 -28.109375 C 23.253906 -28.503906 21.929688 -28.703125 20.609375 -28.703125 C 15.503906 -28.703125 12.953125 -25.082031 12.953125 -17.84375 C 12.953125 -10.8125 15.503906 -7.296875 20.609375 -7.296875 C 22.492188 -7.296875 24.238281 -7.546875 25.84375 -8.046875 C 27.445312 -8.554688 29.054688 -9.347656 30.671875 -10.421875 L 30.671875 -2.03125 C 29.078125 -1.019531 27.472656 -0.320312 25.859375 0.0625 C 24.242188 0.445312 22.203125 0.640625 19.734375 0.640625 Z M 19.734375 0.640625 "/></g></g></g><g fill="#000000" fill-opacity="1"><g transform="translate(159.493157, 83.833297)"><g/></g></g><g fill="#000000" fill-opacity="1"><g transform="translate(176.593423, 83.833297)"><g><path d="M 44.90625 -23.953125 C 44.90625 -16.210938 42.703125 -10.285156 38.296875 -6.171875 C 33.890625 -2.054688 27.53125 0 19.21875 0 L 5.921875 0 L 5.921875 -47 L 20.671875 -47 C 28.335938 -47 34.289062 -44.972656 38.53125 -40.921875 C 42.78125 -36.867188 44.90625 -31.210938 44.90625 -23.953125 Z M 34.546875 -23.6875 C 34.546875 -33.78125 30.09375 -38.828125 21.1875 -38.828125 L 15.875 -38.828125 L 15.875 -8.234375 L 20.15625 -8.234375 C 29.75 -8.234375 34.546875 -13.382812 34.546875 -23.6875 Z M 34.546875 -23.6875 "/></g></g></g><g fill="#000000" fill-opacity="1"><g transform="translate(225.322753, 83.833297)"><g><path d="M 27.96875 0 L 26.0625 -4.890625 L 25.8125 -4.890625 C 24.15625 -2.804688 22.453125 -1.363281 20.703125 -0.5625 C 18.960938 0.238281 16.691406 0.640625 13.890625 0.640625 C 10.429688 0.640625 7.710938 -0.34375 5.734375 -2.3125 C 3.753906 -4.28125 2.765625 -7.085938 2.765625 -10.734375 C 2.765625 -14.546875 4.097656 -17.359375 6.765625 -19.171875 C 9.429688 -20.984375 13.453125 -21.984375 18.828125 -22.171875 L 25.078125 -22.375 L 25.078125 -23.953125 C 25.078125 -27.585938 23.210938 -29.40625 19.484375 -29.40625 C 16.609375 -29.40625 13.234375 -28.539062 9.359375 -26.8125 L 6.109375 -33.421875 C 10.242188 -35.585938 14.828125 -36.671875 19.859375 -36.671875 C 24.679688 -36.671875 28.378906 -35.617188 30.953125 -33.515625 C 33.523438 -31.421875 34.8125 -28.234375 34.8125 -23.953125 L 34.8125 0 Z M 25.078125 -16.65625 L 21.28125 -16.515625 C 18.425781 -16.429688 16.300781 -15.914062 14.90625 -14.96875 C 13.519531 -14.03125 12.828125 -12.597656 12.828125 -10.671875 C 12.828125 -7.910156 14.410156 -6.53125 17.578125 -6.53125 C 19.847656 -6.53125 21.664062 -7.179688 23.03125 -8.484375 C 24.394531 -9.796875 25.078125 -11.53125 25.078125 -13.6875 Z M 25.078125 -16.65625 "/></g></g></g><g fill="#000000" fill-opacity="1"><g transform="translate(265.084086, 83.833297)"><g><path d="M 25.203125 -36.609375 C 26.523438 -36.609375 27.628906 -36.515625 28.515625 -36.328125 L 27.765625 -27.125 C 26.972656 -27.34375 26.007812 -27.453125 24.875 -27.453125 C 21.75 -27.453125 19.3125 -26.644531 17.5625 -25.03125 C 15.820312 -23.425781 14.953125 -21.179688 14.953125 -18.296875 L 14.953125 0 L 5.140625 0 L 5.140625 -35.9375 L 12.5625 -35.9375 L 14.015625 -29.890625 L 14.5 -29.890625 C 15.613281 -31.910156 17.117188 -33.535156 19.015625 -34.765625 C 20.910156 -35.992188 22.972656 -36.609375 25.203125 -36.609375 Z M 25.203125 -36.609375 "/></g></g></g><g fill="#000000" fill-opacity="1"><g transform="translate(294.977409, 83.833297)"><g><path d="M 19.734375 0.640625 C 8.546875 0.640625 2.953125 -5.5 2.953125 -17.78125 C 2.953125 -23.882812 4.472656 -28.546875 7.515625 -31.765625 C 10.554688 -34.992188 14.921875 -36.609375 20.609375 -36.609375 C 24.765625 -36.609375 28.492188 -35.796875 31.796875 -34.171875 L 28.890625 -26.578125 C 27.347656 -27.203125 25.910156 -27.710938 24.578125 -28.109375 C 23.253906 -28.503906 21.929688 -28.703125 20.609375 -28.703125 C 15.503906 -28.703125 12.953125 -25.082031 12.953125 -17.84375 C 12.953125 -10.8125 15.503906 -7.296875 20.609375 -7.296875 C 22.492188 -7.296875 24.238281 -7.546875 25.84375 -8.046875 C 27.445312 -8.554688 29.054688 -9.347656 30.671875 -10.421875 L 30.671875 -2.03125 C 29.078125 -1.019531 27.472656 -0.320312 25.859375 0.0625 C 24.242188 0.445312 22.203125 0.640625 19.734375 0.640625 Z M 19.734375 0.640625 "/></g></g></g><g fill="#000000" fill-opacity="1"><g transform="translate(328.824364, 83.833297)"><g><path d="M 0 -35.9375 L 10.734375 -35.9375 L 17.515625 -15.71875 C 18.097656 -13.957031 18.492188 -11.878906 18.703125 -9.484375 L 18.90625 -9.484375 C 19.132812 -11.691406 19.59375 -13.769531 20.28125 -15.71875 L 26.9375 -35.9375 L 37.453125 -35.9375 L 22.25 4.59375 C 20.851562 8.34375 18.863281 11.148438 16.28125 13.015625 C 13.695312 14.878906 10.679688 15.8125 7.234375 15.8125 C 5.535156 15.8125 3.875 15.628906 2.25 15.265625 L 2.25 7.484375 C 3.425781 7.765625 4.710938 7.90625 6.109375 7.90625 C 7.835938 7.90625 9.347656 7.375 10.640625 6.3125 C 11.941406 5.25 12.957031 3.648438 13.6875 1.515625 L 14.265625 -0.25 Z M 0 -35.9375 "/></g></g></g><g fill="#000000" fill-opacity="1"><g transform="translate(366.271375, 83.833297)"><g/></g></g><g fill="#000000" fill-opacity="1"><g transform="translate(383.371641, 83.833297)"><g><path d="M 15.875 -24.875 L 19.15625 -24.875 C 22.21875 -24.875 24.507812 -25.476562 26.03125 -26.6875 C 27.550781 -27.90625 28.3125 -29.671875 28.3125 -31.984375 C 28.3125 -34.316406 27.675781 -36.039062 26.40625 -37.15625 C 25.132812 -38.269531 23.132812 -38.828125 20.40625 -38.828125 L 15.875 -38.828125 Z M 38.375 -32.328125 C 38.375 -27.273438 36.789062 -23.410156 33.625 -20.734375 C 30.46875 -18.054688 25.976562 -16.71875 20.15625 -16.71875 L 15.875 -16.71875 L 15.875 0 L 5.921875 0 L 5.921875 -47 L 20.921875 -47 C 26.617188 -47 30.953125 -45.769531 33.921875 -43.3125 C 36.890625 -40.851562 38.375 -37.191406 38.375 -32.328125 Z M 38.375 -32.328125 "/></g></g></g><g fill="#000000" fill-opacity="1"><g transform="translate(424.707998, 83.833297)"><g><path d="M 20.03125 -29.640625 C 17.945312 -29.640625 16.316406 -28.976562 15.140625 -27.65625 C 13.960938 -26.34375 13.285156 -24.472656 13.109375 -22.046875 L 26.875 -22.046875 C 26.832031 -24.472656 26.195312 -26.34375 24.96875 -27.65625 C 23.75 -28.976562 22.101562 -29.640625 20.03125 -29.640625 Z M 21.40625 0.640625 C 15.625 0.640625 11.101562 -0.953125 7.84375 -4.140625 C 4.582031 -7.335938 2.953125 -11.859375 2.953125 -17.703125 C 2.953125 -23.734375 4.457031 -28.390625 7.46875 -31.671875 C 10.476562 -34.960938 14.640625 -36.609375 19.953125 -36.609375 C 25.035156 -36.609375 28.988281 -35.160156 31.8125 -32.265625 C 34.644531 -29.378906 36.0625 -25.382812 36.0625 -20.28125 L 36.0625 -15.53125 L 12.890625 -15.53125 C 12.992188 -12.738281 13.816406 -10.5625 15.359375 -9 C 16.898438 -7.4375 19.066406 -6.65625 21.859375 -6.65625 C 24.023438 -6.65625 26.070312 -6.878906 28 -7.328125 C 29.925781 -7.773438 31.9375 -8.492188 34.03125 -9.484375 L 34.03125 -1.890625 C 32.320312 -1.035156 30.492188 -0.398438 28.546875 0.015625 C 26.597656 0.429688 24.21875 0.640625 21.40625 0.640625 Z M 21.40625 0.640625 "/></g></g></g><g fill="#000000" fill-opacity="1"><g transform="translate(463.601461, 83.833297)"><g><path d="M 25.203125 -36.609375 C 26.523438 -36.609375 27.628906 -36.515625 28.515625 -36.328125 L 27.765625 -27.125 C 26.972656 -27.34375 26.007812 -27.453125 24.875 -27.453125 C 21.75 -27.453125 19.3125 -26.644531 17.5625 -25.03125 C 15.820312 -23.425781 14.953125 -21.179688 14.953125 -18.296875 L 14.953125 0 L 5.140625 0 L 5.140625 -35.9375 L 12.5625 -35.9375 L 14.015625 -29.890625 L 14.5 -29.890625 C 15.613281 -31.910156 17.117188 -33.535156 19.015625 -34.765625 C 20.910156 -35.992188 22.972656 -36.609375 25.203125 -36.609375 Z M 25.203125 -36.609375 "/></g></g></g><g fill="#000000" fill-opacity="1"><g transform="translate(493.494783, 83.833297)"><g><path d="M 20.03125 -29.640625 C 17.945312 -29.640625 16.316406 -28.976562 15.140625 -27.65625 C 13.960938 -26.34375 13.285156 -24.472656 13.109375 -22.046875 L 26.875 -22.046875 C 26.832031 -24.472656 26.195312 -26.34375 24.96875 -27.65625 C 23.75 -28.976562 22.101562 -29.640625 20.03125 -29.640625 Z M 21.40625 0.640625 C 15.625 0.640625 11.101562 -0.953125 7.84375 -4.140625 C 4.582031 -7.335938 2.953125 -11.859375 2.953125 -17.703125 C 2.953125 -23.734375 4.457031 -28.390625 7.46875 -31.671875 C 10.476562 -34.960938 14.640625 -36.609375 19.953125 -36.609375 C 25.035156 -36.609375 28.988281 -35.160156 31.8125 -32.265625 C 34.644531 -29.378906 36.0625 -25.382812 36.0625 -20.28125 L 36.0625 -15.53125 L 12.890625 -15.53125 C 12.992188 -12.738281 13.816406 -10.5625 15.359375 -9 C 16.898438 -7.4375 19.066406 -6.65625 21.859375 -6.65625 C 24.023438 -6.65625 26.070312 -6.878906 28 -7.328125 C 29.925781 -7.773438 31.9375 -8.492188 34.03125 -9.484375 L 34.03125 -1.890625 C 32.320312 -1.035156 30.492188 -0.398438 28.546875 0.015625 C 26.597656 0.429688 24.21875 0.640625 21.40625 0.640625 Z M 21.40625 0.640625 "/></g></g></g><g fill="#000000" fill-opacity="1"><g transform="translate(532.388245, 83.833297)"><g><path d="M 4.71875 -45.21875 C 4.71875 -48.414062 6.5 -50.015625 10.0625 -50.015625 C 13.613281 -50.015625 15.390625 -48.414062 15.390625 -45.21875 C 15.390625 -43.695312 14.945312 -42.515625 14.0625 -41.671875 C 13.175781 -40.828125 11.84375 -40.40625 10.0625 -40.40625 C 6.5 -40.40625 4.71875 -42.007812 4.71875 -45.21875 Z M 14.953125 0 L 5.140625 0 L 5.140625 -35.9375 L 14.953125 -35.9375 Z M 14.953125 0 "/></g></g></g><g fill="#000000" fill-opacity="1"><g transform="translate(552.47782, 83.833297)"><g><path d="M 25.203125 -36.609375 C 26.523438 -36.609375 27.628906 -36.515625 28.515625 -36.328125 L 27.765625 -27.125 C 26.972656 -27.34375 26.007812 -27.453125 24.875 -27.453125 C 21.75 -27.453125 19.3125 -26.644531 17.5625 -25.03125 C 15.820312 -23.425781 14.953125 -21.179688 14.953125 -18.296875 L 14.953125 0 L 5.140625 0 L 5.140625 -35.9375 L 12.5625 -35.9375 L 14.015625 -29.890625 L 14.5 -29.890625 C 15.613281 -31.910156 17.117188 -33.535156 19.015625 -34.765625 C 20.910156 -35.992188 22.972656 -36.609375 25.203125 -36.609375 Z M 25.203125 -36.609375 "/></g></g></g><g fill="#000000" fill-opacity="1"><g transform="translate(582.371142, 83.833297)"><g><path d="M 27.96875 0 L 26.0625 -4.890625 L 25.8125 -4.890625 C 24.15625 -2.804688 22.453125 -1.363281 20.703125 -0.5625 C 18.960938 0.238281 16.691406 0.640625 13.890625 0.640625 C 10.429688 0.640625 7.710938 -0.34375 5.734375 -2.3125 C 3.753906 -4.28125 2.765625 -7.085938 2.765625 -10.734375 C 2.765625 -14.546875 4.097656 -17.359375 6.765625 -19.171875 C 9.429688 -20.984375 13.453125 -21.984375 18.828125 -22.171875 L 25.078125 -22.375 L 25.078125 -23.953125 C 25.078125 -27.585938 23.210938 -29.40625 19.484375 -29.40625 C 16.609375 -29.40625 13.234375 -28.539062 9.359375 -26.8125 L 6.109375 -33.421875 C 10.242188 -35.585938 14.828125 -36.671875 19.859375 -36.671875 C 24.679688 -36.671875 28.378906 -35.617188 30.953125 -33.515625 C 33.523438 -31.421875 34.8125 -28.234375 34.8125 -23.953125 L 34.8125 0 Z M 25.078125 -16.65625 L 21.28125 -16.515625 C 18.425781 -16.429688 16.300781 -15.914062 14.90625 -14.96875 C 13.519531 -14.03125 12.828125 -12.597656 12.828125 -10.671875 C 12.828125 -7.910156 14.410156 -6.53125 17.578125 -6.53125 C 19.847656 -6.53125 21.664062 -7.179688 23.03125 -8.484375 C 24.394531 -9.796875 25.078125 -11.53125 25.078125 -13.6875 Z M 25.078125 -16.65625 "/></g></g></g><g fill="#000000" fill-opacity="1"><g transform="translate(622.132499, 83.833297)"><g/></g></g><g fill="#000000" fill-opacity="1"><g transform="translate(639.232765, 83.833297)"><g><path d="M 16.515625 0.640625 C 12.296875 0.640625 8.976562 -0.992188 6.5625 -4.265625 C 4.15625 -7.546875 2.953125 -12.09375 2.953125 -17.90625 C 2.953125 -23.800781 4.175781 -28.390625 6.625 -31.671875 C 9.082031 -34.960938 12.46875 -36.609375 16.78125 -36.609375 C 21.300781 -36.609375 24.75 -34.851562 27.125 -31.34375 L 27.453125 -31.34375 C 26.953125 -34.019531 26.703125 -36.40625 26.703125 -38.5 L 26.703125 -50.015625 L 36.546875 -50.015625 L 36.546875 0 L 29.03125 0 L 27.125 -4.65625 L 26.703125 -4.65625 C 24.484375 -1.125 21.085938 0.640625 16.515625 0.640625 Z M 19.953125 -7.171875 C 22.460938 -7.171875 24.300781 -7.898438 25.46875 -9.359375 C 26.632812 -10.816406 27.273438 -13.289062 27.390625 -16.78125 L 27.390625 -17.84375 C 27.390625 -21.695312 26.789062 -24.457031 25.59375 -26.125 C 24.40625 -27.800781 22.472656 -28.640625 19.796875 -28.640625 C 17.609375 -28.640625 15.910156 -27.710938 14.703125 -25.859375 C 13.492188 -24.003906 12.890625 -21.3125 12.890625 -17.78125 C 12.890625 -14.238281 13.5 -11.582031 14.71875 -9.8125 C 15.9375 -8.050781 17.679688 -7.171875 19.953125 -7.171875 Z M 19.953125 -7.171875 "/></g></g></g><g fill="#000000" fill-opacity="1"><g transform="translate(680.890555, 83.833297)"><g><path d="M 20.03125 -29.640625 C 17.945312 -29.640625 16.316406 -28.976562 15.140625 -27.65625 C 13.960938 -26.34375 13.285156 -24.472656 13.109375 -22.046875 L 26.875 -22.046875 C 26.832031 -24.472656 26.195312 -26.34375 24.96875 -27.65625 C 23.75 -28.976562 22.101562 -29.640625 20.03125 -29.640625 Z M 21.40625 0.640625 C 15.625 0.640625 11.101562 -0.953125 7.84375 -4.140625 C 4.582031 -7.335938 2.953125 -11.859375 2.953125 -17.703125 C 2.953125 -23.734375 4.457031 -28.390625 7.46875 -31.671875 C 10.476562 -34.960938 14.640625 -36.609375 19.953125 -36.609375 C 25.035156 -36.609375 28.988281 -35.160156 31.8125 -32.265625 C 34.644531 -29.378906 36.0625 -25.382812 36.0625 -20.28125 L 36.0625 -15.53125 L 12.890625 -15.53125 C 12.992188 -12.738281 13.816406 -10.5625 15.359375 -9 C 16.898438 -7.4375 19.066406 -6.65625 21.859375 -6.65625 C 24.023438 -6.65625 26.070312 -6.878906 28 -7.328125 C 29.925781 -7.773438 31.9375 -8.492188 34.03125 -9.484375 L 34.03125 -1.890625 C 32.320312 -1.035156 30.492188 -0.398438 28.546875 0.015625 C 26.597656 0.429688 24.21875 0.640625 21.40625 0.640625 Z M 21.40625 0.640625 "/></g></g></g><g fill="#000000" fill-opacity="1"><g transform="translate(719.784017, 83.833297)"><g/></g></g><g fill="#000000" fill-opacity="1"><g transform="translate(736.884283, 83.833297)"><g><path d="M 25.8125 0 L 14.5 -36.875 L 14.203125 -36.875 C 14.609375 -29.375 14.8125 -24.367188 14.8125 -21.859375 L 14.8125 0 L 5.921875 0 L 5.921875 -47 L 19.484375 -47 L 30.59375 -11.0625 L 30.796875 -11.0625 L 42.59375 -47 L 56.15625 -47 L 56.15625 0 L 46.859375 0 L 46.859375 -22.25 C 46.859375 -23.289062 46.875 -24.5 46.90625 -25.875 C 46.9375 -27.25 47.082031 -30.890625 47.34375 -36.796875 L 47.0625 -36.796875 L 34.9375 0 Z M 25.8125 0 "/></g></g></g><g fill="#000000" fill-opacity="1"><g transform="translate(798.953083, 83.833297)"><g><path d="M 12.953125 -18.03125 C 12.953125 -14.476562 13.535156 -11.789062 14.703125 -9.96875 C 15.867188 -8.144531 17.769531 -7.234375 20.40625 -7.234375 C 23.019531 -7.234375 24.898438 -8.140625 26.046875 -9.953125 C 27.191406 -11.765625 27.765625 -14.457031 27.765625 -18.03125 C 27.765625 -21.59375 27.1875 -24.257812 26.03125 -26.03125 C 24.875 -27.8125 22.976562 -28.703125 20.34375 -28.703125 C 17.726562 -28.703125 15.84375 -27.816406 14.6875 -26.046875 C 13.53125 -24.285156 12.953125 -21.613281 12.953125 -18.03125 Z M 37.796875 -18.03125 C 37.796875 -12.175781 36.253906 -7.597656 33.171875 -4.296875 C 30.085938 -1.003906 25.789062 0.640625 20.28125 0.640625 C 16.832031 0.640625 13.789062 -0.113281 11.15625 -1.625 C 8.519531 -3.132812 6.492188 -5.300781 5.078125 -8.125 C 3.660156 -10.957031 2.953125 -14.257812 2.953125 -18.03125 C 2.953125 -23.90625 4.484375 -28.46875 7.546875 -31.71875 C 10.617188 -34.976562 14.925781 -36.609375 20.46875 -36.609375 C 23.925781 -36.609375 26.972656 -35.859375 29.609375 -34.359375 C 32.242188 -32.859375 34.265625 -30.703125 35.671875 -27.890625 C 37.085938 -25.085938 37.796875 -21.800781 37.796875 -18.03125 Z M 37.796875 -18.03125 "/></g></g></g><g fill="#000000" fill-opacity="1"><g transform="translate(839.710859, 83.833297)"><g><path d="M 25.203125 -36.609375 C 26.523438 -36.609375 27.628906 -36.515625 28.515625 -36.328125 L 27.765625 -27.125 C 26.972656 -27.34375 26.007812 -27.453125 24.875 -27.453125 C 21.75 -27.453125 19.3125 -26.644531 17.5625 -25.03125 C 15.820312 -23.425781 14.953125 -21.179688 14.953125 -18.296875 L 14.953125 0 L 5.140625 0 L 5.140625 -35.9375 L 12.5625 -35.9375 L 14.015625 -29.890625 L 14.5 -29.890625 C 15.613281 -31.910156 17.117188 -33.535156 19.015625 -34.765625 C 20.910156 -35.992188 22.972656 -36.609375 25.203125 -36.609375 Z M 25.203125 -36.609375 "/></g></g></g><g fill="#000000" fill-opacity="1"><g transform="translate(869.604133, 83.833297)"><g><path d="M 27.96875 0 L 26.0625 -4.890625 L 25.8125 -4.890625 C 24.15625 -2.804688 22.453125 -1.363281 20.703125 -0.5625 C 18.960938 0.238281 16.691406 0.640625 13.890625 0.640625 C 10.429688 0.640625 7.710938 -0.34375 5.734375 -2.3125 C 3.753906 -4.28125 2.765625 -7.085938 2.765625 -10.734375 C 2.765625 -14.546875 4.097656 -17.359375 6.765625 -19.171875 C 9.429688 -20.984375 13.453125 -21.984375 18.828125 -22.171875 L 25.078125 -22.375 L 25.078125 -23.953125 C 25.078125 -27.585938 23.210938 -29.40625 19.484375 -29.40625 C 16.609375 -29.40625 13.234375 -28.539062 9.359375 -26.8125 L 6.109375 -33.421875 C 10.242188 -35.585938 14.828125 -36.671875 19.859375 -36.671875 C 24.679688 -36.671875 28.378906 -35.617188 30.953125 -33.515625 C 33.523438 -31.421875 34.8125 -28.234375 34.8125 -23.953125 L 34.8125 0 Z M 25.078125 -16.65625 L 21.28125 -16.515625 C 18.425781 -16.429688 16.300781 -15.914062 14.90625 -14.96875 C 13.519531 -14.03125 12.828125 -12.597656 12.828125 -10.671875 C 12.828125 -7.910156 14.410156 -6.53125 17.578125 -6.53125 C 19.847656 -6.53125 21.664062 -7.179688 23.03125 -8.484375 C 24.394531 -9.796875 25.078125 -11.53125 25.078125 -13.6875 Z M 25.078125 -16.65625 "/></g></g></g><g fill="#000000" fill-opacity="1"><g transform="translate(909.365442, 83.833297)"><g><path d="M 20.03125 -29.640625 C 17.945312 -29.640625 16.316406 -28.976562 15.140625 -27.65625 C 13.960938 -26.34375 13.285156 -24.472656 13.109375 -22.046875 L 26.875 -22.046875 C 26.832031 -24.472656 26.195312 -26.34375 24.96875 -27.65625 C 23.75 -28.976562 22.101562 -29.640625 20.03125 -29.640625 Z M 21.40625 0.640625 C 15.625 0.640625 11.101562 -0.953125 7.84375 -4.140625 C 4.582031 -7.335938 2.953125 -11.859375 2.953125 -17.703125 C 2.953125 -23.734375 4.457031 -28.390625 7.46875 -31.671875 C 10.476562 -34.960938 14.640625 -36.609375 19.953125 -36.609375 C 25.035156 -36.609375 28.988281 -35.160156 31.8125 -32.265625 C 34.644531 -29.378906 36.0625 -25.382812 36.0625 -20.28125 L 36.0625 -15.53125 L 12.890625 -15.53125 C 12.992188 -12.738281 13.816406 -10.5625 15.359375 -9 C 16.898438 -7.4375 19.066406 -6.65625 21.859375 -6.65625 C 24.023438 -6.65625 26.070312 -6.878906 28 -7.328125 C 29.925781 -7.773438 31.9375 -8.492188 34.03125 -9.484375 L 34.03125 -1.890625 C 32.320312 -1.035156 30.492188 -0.398438 28.546875 0.015625 C 26.597656 0.429688 24.21875 0.640625 21.40625 0.640625 Z M 21.40625 0.640625 "/></g></g></g><g fill="#000000" fill-opacity="1"><g transform="translate(948.258856, 83.833297)"><g><path d="M 30.21875 -10.671875 C 30.21875 -6.984375 28.9375 -4.175781 26.375 -2.25 C 23.8125 -0.320312 19.976562 0.640625 14.875 0.640625 C 12.257812 0.640625 10.03125 0.460938 8.1875 0.109375 C 6.351562 -0.242188 4.628906 -0.765625 3.015625 -1.453125 L 3.015625 -9.546875 C 4.835938 -8.691406 6.890625 -7.972656 9.171875 -7.390625 C 11.453125 -6.816406 13.460938 -6.53125 15.203125 -6.53125 C 18.765625 -6.53125 20.546875 -7.554688 20.546875 -9.609375 C 20.546875 -10.378906 20.304688 -11.003906 19.828125 -11.484375 C 19.359375 -11.972656 18.546875 -12.519531 17.390625 -13.125 C 16.234375 -13.738281 14.691406 -14.453125 12.765625 -15.265625 C 9.992188 -16.421875 7.957031 -17.488281 6.65625 -18.46875 C 5.363281 -19.457031 4.421875 -20.585938 3.828125 -21.859375 C 3.242188 -23.140625 2.953125 -24.710938 2.953125 -26.578125 C 2.953125 -29.773438 4.1875 -32.242188 6.65625 -33.984375 C 9.132812 -35.734375 12.648438 -36.609375 17.203125 -36.609375 C 21.523438 -36.609375 25.734375 -35.664062 29.828125 -33.78125 L 26.875 -26.703125 C 25.070312 -27.484375 23.390625 -28.117188 21.828125 -28.609375 C 20.265625 -29.097656 18.664062 -29.34375 17.03125 -29.34375 C 14.144531 -29.34375 12.703125 -28.5625 12.703125 -27 C 12.703125 -26.125 13.164062 -25.363281 14.09375 -24.71875 C 15.03125 -24.070312 17.070312 -23.117188 20.21875 -21.859375 C 23.019531 -20.722656 25.070312 -19.660156 26.375 -18.671875 C 27.6875 -17.691406 28.65625 -16.554688 29.28125 -15.265625 C 29.90625 -13.984375 30.21875 -12.453125 30.21875 -10.671875 Z M 30.21875 -10.671875 "/></g></g></g><g fill="#515151" fill-opacity="1"><g transform="translate(688.0921, 145.796122)"><g><path d="M 4.296875 0 L 4.296875 -34.171875 L 11.546875 -34.171875 L 11.546875 0 Z M 4.296875 0 "/></g></g></g><g fill="#515151" fill-opacity="1"><g transform="translate(703.938574, 145.796122)"><g><path d="M 14.75 -5.21875 C 16 -5.21875 17.492188 -5.488281 19.234375 -6.03125 L 19.234375 -0.71875 C 17.460938 0.0703125 15.28125 0.46875 12.6875 0.46875 C 9.84375 0.46875 7.769531 -0.25 6.46875 -1.6875 C 5.164062 -3.132812 4.515625 -5.300781 4.515625 -8.1875 L 4.515625 -20.78125 L 1.09375 -20.78125 L 1.09375 -23.796875 L 5.03125 -26.1875 L 7.078125 -31.703125 L 11.640625 -31.703125 L 11.640625 -26.140625 L 18.953125 -26.140625 L 18.953125 -20.78125 L 11.640625 -20.78125 L 11.640625 -8.1875 C 11.640625 -7.164062 11.921875 -6.414062 12.484375 -5.9375 C 13.054688 -5.457031 13.8125 -5.21875 14.75 -5.21875 Z M 14.75 -5.21875 "/></g></g></g><g fill="#515151" fill-opacity="1"><g transform="translate(724.716621, 145.796122)"><g><path d="M 20.34375 0 L 18.953125 -3.546875 L 18.765625 -3.546875 C 17.566406 -2.035156 16.332031 -0.988281 15.0625 -0.40625 C 13.789062 0.175781 12.132812 0.46875 10.09375 0.46875 C 7.582031 0.46875 5.609375 -0.242188 4.171875 -1.671875 C 2.734375 -3.109375 2.015625 -5.15625 2.015625 -7.8125 C 2.015625 -10.582031 2.984375 -12.625 4.921875 -13.9375 C 6.859375 -15.257812 9.785156 -15.988281 13.703125 -16.125 L 18.234375 -16.265625 L 18.234375 -17.421875 C 18.234375 -20.066406 16.878906 -21.390625 14.171875 -21.390625 C 12.078125 -21.390625 9.617188 -20.757812 6.796875 -19.5 L 4.4375 -24.3125 C 7.445312 -25.882812 10.785156 -26.671875 14.453125 -26.671875 C 17.953125 -26.671875 20.632812 -25.90625 22.5 -24.375 C 24.375 -22.851562 25.3125 -20.535156 25.3125 -17.421875 L 25.3125 0 Z M 18.234375 -12.109375 L 15.46875 -12.015625 C 13.394531 -11.953125 11.851562 -11.578125 10.84375 -10.890625 C 9.832031 -10.203125 9.328125 -9.160156 9.328125 -7.765625 C 9.328125 -5.753906 10.476562 -4.75 12.78125 -4.75 C 14.4375 -4.75 15.757812 -5.222656 16.75 -6.171875 C 17.738281 -7.117188 18.234375 -8.378906 18.234375 -9.953125 Z M 18.234375 -12.109375 "/></g></g></g><g fill="#515151" fill-opacity="1"><g transform="translate(753.628257, 145.796122)"><g><path d="M 18.09375 0.46875 C 15.019531 0.46875 12.613281 -0.644531 10.875 -2.875 L 10.5 -2.875 C 10.75 -0.695312 10.875 0.5625 10.875 0.90625 L 10.875 11.5 L 3.734375 11.5 L 3.734375 -26.140625 L 9.53125 -26.140625 L 10.546875 -22.75 L 10.875 -22.75 C 12.539062 -25.332031 15.007812 -26.625 18.28125 -26.625 C 21.363281 -26.625 23.773438 -25.429688 25.515625 -23.046875 C 27.265625 -20.660156 28.140625 -17.347656 28.140625 -13.109375 C 28.140625 -10.328125 27.726562 -7.90625 26.90625 -5.84375 C 26.09375 -3.789062 24.929688 -2.222656 23.421875 -1.140625 C 21.910156 -0.0664062 20.132812 0.46875 18.09375 0.46875 Z M 15.984375 -20.921875 C 14.222656 -20.921875 12.9375 -20.378906 12.125 -19.296875 C 11.320312 -18.210938 10.90625 -16.425781 10.875 -13.9375 L 10.875 -13.15625 C 10.875 -10.351562 11.289062 -8.34375 12.125 -7.125 C 12.957031 -5.914062 14.273438 -5.3125 16.078125 -5.3125 C 19.273438 -5.3125 20.875 -7.941406 20.875 -13.203125 C 20.875 -15.773438 20.476562 -17.703125 19.6875 -18.984375 C 18.90625 -20.273438 17.671875 -20.921875 15.984375 -20.921875 Z M 15.984375 -20.921875 "/></g></g></g><g fill="#515151" fill-opacity="1"><g transform="translate(783.918863, 145.796122)"><g><path d="M 14.5625 -21.546875 C 13.050781 -21.546875 11.863281 -21.066406 11 -20.109375 C 10.144531 -19.148438 9.65625 -17.789062 9.53125 -16.03125 L 19.546875 -16.03125 C 19.515625 -17.789062 19.050781 -19.148438 18.15625 -20.109375 C 17.269531 -21.066406 16.070312 -21.546875 14.5625 -21.546875 Z M 15.5625 0.46875 C 11.351562 0.46875 8.066406 -0.691406 5.703125 -3.015625 C 3.335938 -5.335938 2.15625 -8.625 2.15625 -12.875 C 2.15625 -17.257812 3.25 -20.644531 5.4375 -23.03125 C 7.625 -25.425781 10.648438 -26.625 14.515625 -26.625 C 18.210938 -26.625 21.085938 -25.570312 23.140625 -23.46875 C 25.203125 -21.363281 26.234375 -18.457031 26.234375 -14.75 L 26.234375 -11.296875 L 9.375 -11.296875 C 9.445312 -9.265625 10.046875 -7.679688 11.171875 -6.546875 C 12.296875 -5.410156 13.867188 -4.84375 15.890625 -4.84375 C 17.460938 -4.84375 18.953125 -5.003906 20.359375 -5.328125 C 21.765625 -5.660156 23.226562 -6.179688 24.75 -6.890625 L 24.75 -1.375 C 23.507812 -0.75 22.175781 -0.285156 20.75 0.015625 C 19.332031 0.316406 17.601562 0.46875 15.5625 0.46875 Z M 15.5625 0.46875 "/></g></g></g><g fill="#515151" fill-opacity="1"><g transform="translate(812.199444, 145.796122)"><g><path d="M 14.75 -5.21875 C 16 -5.21875 17.492188 -5.488281 19.234375 -6.03125 L 19.234375 -0.71875 C 17.460938 0.0703125 15.28125 0.46875 12.6875 0.46875 C 9.84375 0.46875 7.769531 -0.25 6.46875 -1.6875 C 5.164062 -3.132812 4.515625 -5.300781 4.515625 -8.1875 L 4.515625 -20.78125 L 1.09375 -20.78125 L 1.09375 -23.796875 L 5.03125 -26.1875 L 7.078125 -31.703125 L 11.640625 -31.703125 L 11.640625 -26.140625 L 18.953125 -26.140625 L 18.953125 -20.78125 L 11.640625 -20.78125 L 11.640625 -8.1875 C 11.640625 -7.164062 11.921875 -6.414062 12.484375 -5.9375 C 13.054688 -5.457031 13.8125 -5.21875 14.75 -5.21875 Z M 14.75 -5.21875 "/></g></g></g><g fill="#515151" fill-opacity="1"><g transform="translate(832.9775, 145.796122)"><g><path d="M 3.4375 -32.890625 C 3.4375 -35.210938 4.726562 -36.375 7.3125 -36.375 C 9.90625 -36.375 11.203125 -35.210938 11.203125 -32.890625 C 11.203125 -31.785156 10.875 -30.925781 10.21875 -30.3125 C 9.570312 -29.695312 8.601562 -29.390625 7.3125 -29.390625 C 4.726562 -29.390625 3.4375 -30.554688 3.4375 -32.890625 Z M 10.875 0 L 3.734375 0 L 3.734375 -26.140625 L 10.875 -26.140625 Z M 10.875 0 "/></g></g></g><g fill="#515151" fill-opacity="1"><g transform="translate(847.58523, 145.796122)"><g><path d="M 27.859375 0 L 20.734375 0 L 20.734375 -15.265625 C 20.734375 -17.148438 20.394531 -18.5625 19.71875 -19.5 C 19.050781 -20.445312 17.988281 -20.921875 16.53125 -20.921875 C 14.53125 -20.921875 13.085938 -20.253906 12.203125 -18.921875 C 11.316406 -17.585938 10.875 -15.378906 10.875 -12.296875 L 10.875 0 L 3.734375 0 L 3.734375 -26.140625 L 9.1875 -26.140625 L 10.140625 -22.796875 L 10.546875 -22.796875 C 11.335938 -24.054688 12.429688 -25.007812 13.828125 -25.65625 C 15.222656 -26.300781 16.804688 -26.625 18.578125 -26.625 C 21.617188 -26.625 23.925781 -25.800781 25.5 -24.15625 C 27.070312 -22.507812 27.859375 -20.140625 27.859375 -17.046875 Z M 27.859375 0 "/></g></g></g><g fill="#515151" fill-opacity="1"><g transform="translate(879.044455, 145.796122)"><g><path d="M 3.4375 -32.890625 C 3.4375 -35.210938 4.726562 -36.375 7.3125 -36.375 C 9.90625 -36.375 11.203125 -35.210938 11.203125 -32.890625 C 11.203125 -31.785156 10.875 -30.925781 10.21875 -30.3125 C 9.570312 -29.695312 8.601562 -29.390625 7.3125 -29.390625 C 4.726562 -29.390625 3.4375 -30.554688 3.4375 -32.890625 Z M 10.875 0 L 3.734375 0 L 3.734375 -26.140625 L 10.875 -26.140625 Z M 10.875 0 "/></g></g></g><g fill="#515151" fill-opacity="1"><g transform="translate(893.652202, 145.796122)"><g><path d="M 27.859375 0 L 20.734375 0 L 20.734375 -15.265625 C 20.734375 -17.148438 20.394531 -18.5625 19.71875 -19.5 C 19.050781 -20.445312 17.988281 -20.921875 16.53125 -20.921875 C 14.53125 -20.921875 13.085938 -20.253906 12.203125 -18.921875 C 11.316406 -17.585938 10.875 -15.378906 10.875 -12.296875 L 10.875 0 L 3.734375 0 L 3.734375 -26.140625 L 9.1875 -26.140625 L 10.140625 -22.796875 L 10.546875 -22.796875 C 11.335938 -24.054688 12.429688 -25.007812 13.828125 -25.65625 C 15.222656 -26.300781 16.804688 -26.625 18.578125 -26.625 C 21.617188 -26.625 23.925781 -25.800781 25.5 -24.15625 C 27.070312 -22.507812 27.859375 -20.140625 27.859375 -17.046875 Z M 27.859375 0 "/></g></g></g><g fill="#515151" fill-opacity="1"><g transform="translate(925.111427, 145.796122)"><g><path d="M 26.484375 -26.140625 L 26.484375 -22.515625 L 22.390625 -21.453125 C 23.140625 -20.285156 23.515625 -18.976562 23.515625 -17.53125 C 23.515625 -14.726562 22.535156 -12.539062 20.578125 -10.96875 C 18.628906 -9.40625 15.914062 -8.625 12.4375 -8.625 L 11.15625 -8.703125 L 10.09375 -8.8125 C 9.363281 -8.25 9 -7.625 9 -6.9375 C 9 -5.914062 10.304688 -5.40625 12.921875 -5.40625 L 17.375 -5.40625 C 20.238281 -5.40625 22.421875 -4.785156 23.921875 -3.546875 C 25.429688 -2.316406 26.1875 -0.507812 26.1875 1.875 C 26.1875 4.925781 24.910156 7.289062 22.359375 8.96875 C 19.804688 10.65625 16.148438 11.5 11.390625 11.5 C 7.742188 11.5 4.957031 10.863281 3.03125 9.59375 C 1.101562 8.320312 0.140625 6.539062 0.140625 4.25 C 0.140625 2.675781 0.628906 1.359375 1.609375 0.296875 C 2.585938 -0.753906 4.03125 -1.507812 5.9375 -1.96875 C 5.207031 -2.28125 4.566406 -2.789062 4.015625 -3.5 C 3.472656 -4.207031 3.203125 -4.957031 3.203125 -5.75 C 3.203125 -6.75 3.488281 -7.578125 4.0625 -8.234375 C 4.644531 -8.898438 5.476562 -9.550781 6.5625 -10.1875 C 5.195312 -10.78125 4.113281 -11.726562 3.3125 -13.03125 C 2.507812 -14.34375 2.109375 -15.890625 2.109375 -17.671875 C 2.109375 -20.523438 3.035156 -22.726562 4.890625 -24.28125 C 6.742188 -25.84375 9.390625 -26.625 12.828125 -26.625 C 13.566406 -26.625 14.4375 -26.554688 15.4375 -26.421875 C 16.445312 -26.296875 17.09375 -26.203125 17.375 -26.140625 Z M 6.3125 3.6875 C 6.3125 4.675781 6.78125 5.445312 7.71875 6 C 8.664062 6.5625 9.988281 6.84375 11.6875 6.84375 C 14.238281 6.84375 16.238281 6.492188 17.6875 5.796875 C 19.144531 5.097656 19.875 4.140625 19.875 2.921875 C 19.875 1.941406 19.441406 1.265625 18.578125 0.890625 C 17.722656 0.515625 16.398438 0.328125 14.609375 0.328125 L 10.921875 0.328125 C 9.609375 0.328125 8.507812 0.632812 7.625 1.25 C 6.75 1.863281 6.3125 2.675781 6.3125 3.6875 Z M 8.90625 -17.578125 C 8.90625 -16.160156 9.226562 -15.035156 9.875 -14.203125 C 10.519531 -13.378906 11.503906 -12.96875 12.828125 -12.96875 C 14.171875 -12.96875 15.15625 -13.378906 15.78125 -14.203125 C 16.40625 -15.035156 16.71875 -16.160156 16.71875 -17.578125 C 16.71875 -20.722656 15.421875 -22.296875 12.828125 -22.296875 C 10.210938 -22.296875 8.90625 -20.722656 8.90625 -17.578125 Z M 8.90625 -17.578125 "/></g></g></g><g fill="#515151" fill-opacity="1"><g transform="translate(952.153281, 145.796122)"><g><path d="M 20.34375 0 L 18.953125 -3.546875 L 18.765625 -3.546875 C 17.566406 -2.035156 16.332031 -0.988281 15.0625 -0.40625 C 13.789062 0.175781 12.132812 0.46875 10.09375 0.46875 C 7.582031 0.46875 5.609375 -0.242188 4.171875 -1.671875 C 2.734375 -3.109375 2.015625 -5.15625 2.015625 -7.8125 C 2.015625 -10.582031 2.984375 -12.625 4.921875 -13.9375 C 6.859375 -15.257812 9.785156 -15.988281 13.703125 -16.125 L 18.234375 -16.265625 L 18.234375 -17.421875 C 18.234375 -20.066406 16.878906 -21.390625 14.171875 -21.390625 C 12.078125 -21.390625 9.617188 -20.757812 6.796875 -19.5 L 4.4375 -24.3125 C 7.445312 -25.882812 10.785156 -26.671875 14.453125 -26.671875 C 17.953125 -26.671875 20.632812 -25.90625 22.5 -24.375 C 24.375 -22.851562 25.3125 -20.535156 25.3125 -17.421875 L 25.3125 0 Z M 18.234375 -12.109375 L 15.46875 -12.015625 C 13.394531 -11.953125 11.851562 -11.578125 10.84375 -10.890625 C 9.832031 -10.203125 9.328125 -9.160156 9.328125 -7.765625 C 9.328125 -5.753906 10.476562 -4.75 12.78125 -4.75 C 14.4375 -4.75 15.757812 -5.222656 16.75 -6.171875 C 17.738281 -7.117188 18.234375 -8.378906 18.234375 -9.953125 Z M 18.234375 -12.109375 "/></g></g></g></svg>