<svg xmlns="http://www.w3.org/2000/svg" xmlns:xlink="http://www.w3.org/1999/xlink" width="160" zoomAndPan="magnify" viewBox="0 0 120 123.750003" height="165" preserveAspectRatio="xMidYMid meet" version="1.0"><defs><g/><clipPath id="31a4c23e53"><path d="M 1 5 L 119 5 L 119 123.292969 L 1 123.292969 Z M 1 5 " clip-rule="nonzero"/></clipPath></defs><g clip-path="url(#31a4c23e53)"><path fill="#000000" d="M 12.300781 92.160156 C 12.8125 93.035156 12.511719 94.164062 11.636719 94.671875 C 11.34375 94.84375 11.027344 94.921875 10.710938 94.921875 C 10.078125 94.921875 9.460938 94.597656 9.121094 94.007812 C 2.804688 83.15625 0.160156 70.804688 1.480469 58.285156 C 3.125 42.652344 10.757812 28.597656 22.976562 18.707031 C 35.191406 8.816406 50.527344 4.277344 66.160156 5.921875 C 76.644531 7.027344 86.5 10.859375 94.894531 17.058594 L 93.621094 12.589844 C 93.34375 11.613281 93.90625 10.597656 94.882812 10.316406 C 95.859375 10.039062 96.878906 10.605469 97.15625 11.582031 L 100.042969 21.695312 C 100.199219 22.238281 100.09375 22.824219 99.761719 23.28125 C 99.429688 23.738281 98.90625 24.015625 98.339844 24.039062 L 87.832031 24.414062 C 87.808594 24.414062 87.785156 24.417969 87.761719 24.417969 C 86.777344 24.417969 85.960938 23.636719 85.925781 22.644531 C 85.890625 21.628906 86.683594 20.777344 87.699219 20.738281 L 93.398438 20.535156 C 85.382812 14.417969 75.890625 10.644531 65.773438 9.582031 C 51.125 8.039062 36.742188 12.296875 25.289062 21.566406 C 13.835938 30.839844 6.679688 44.015625 5.136719 58.667969 C 3.902344 70.40625 6.378906 81.988281 12.300781 92.160156 Z M 110.878906 34.878906 C 110.367188 34.003906 109.242188 33.707031 108.363281 34.214844 C 107.484375 34.726562 107.1875 35.855469 107.699219 36.730469 C 113.621094 46.902344 116.097656 58.484375 114.863281 70.21875 C 111.679688 100.472656 84.476562 122.496094 54.226562 119.308594 C 44.113281 118.246094 34.617188 114.46875 26.601562 108.355469 L 32.300781 108.152344 C 33.316406 108.113281 34.109375 107.261719 34.074219 106.246094 C 34.035156 105.234375 33.195312 104.4375 32.167969 104.476562 L 21.660156 104.851562 C 21.09375 104.875 20.570312 105.152344 20.238281 105.609375 C 19.90625 106.066406 19.800781 106.652344 19.957031 107.195312 L 22.84375 117.308594 C 23.074219 118.117188 23.808594 118.644531 24.609375 118.644531 C 24.777344 118.644531 24.945312 118.621094 25.113281 118.574219 C 26.089844 118.292969 26.65625 117.277344 26.378906 116.300781 L 25.105469 111.832031 C 33.5 118.03125 43.363281 121.863281 53.839844 122.96875 C 55.9375 123.1875 58.03125 123.296875 60.109375 123.296875 C 73.53125 123.296875 86.449219 118.746094 97.023438 110.183594 C 109.242188 100.292969 116.875 86.238281 118.519531 70.605469 C 119.839844 58.085938 117.195312 45.730469 110.878906 34.878906 Z M 26.992188 67.644531 C 26.039062 67.277344 16.101562 62.800781 15.945312 62.734375 C 15.011719 62.332031 14.515625 61.21875 14.972656 60.25 L 26.273438 36.203125 C 26.703125 35.289062 27.792969 34.890625 28.710938 35.316406 L 39.53125 40.308594 C 39.574219 40.328125 39.617188 40.351562 39.660156 40.375 C 41.773438 41.5625 43.992188 41.039062 46.800781 40.375 C 50.515625 39.496094 55.085938 38.417969 60.449219 41.542969 C 67.824219 37.023438 73.484375 39.328125 77.667969 41.039062 C 80.746094 42.296875 82.574219 42.964844 84.402344 42.015625 C 84.402344 42.015625 92.664062 37.589844 92.679688 37.582031 C 93.632812 37.074219 94.875 37.539062 95.265625 38.539062 L 105.078125 63.851562 C 105.433594 64.777344 104.996094 65.820312 104.082031 66.207031 L 93.882812 70.558594 C 94.078125 71.914062 93.855469 73.332031 93.152344 74.609375 C 92.304688 76.15625 90.894531 77.273438 89.1875 77.757812 C 88.707031 77.894531 88.21875 77.972656 87.734375 78 C 87.902344 79.324219 87.671875 80.707031 86.988281 81.953125 C 85.796875 84.117188 83.550781 85.34375 81.238281 85.34375 C 81.011719 85.34375 80.785156 85.328125 80.558594 85.304688 C 80.613281 86.472656 80.363281 87.660156 79.765625 88.75 C 78.675781 90.730469 76.703125 91.921875 74.601562 92.113281 C 74.820312 93.492188 74.597656 94.949219 73.875 96.265625 C 72.683594 98.429688 70.441406 99.65625 68.125 99.65625 C 67.058594 99.65625 65.980469 99.394531 64.980469 98.847656 L 62.894531 97.699219 C 61.636719 99.378906 59.667969 100.316406 57.644531 100.316406 C 56.605469 100.316406 55.546875 100.070312 54.566406 99.542969 C 53.117188 98.769531 52.082031 97.523438 51.539062 96.097656 C 51.3125 96.195312 51.078125 96.28125 50.835938 96.355469 C 48.964844 96.921875 46.871094 96.605469 45.246094 95.5 C 44.273438 94.839844 43.492188 93.910156 42.996094 92.839844 C 43.089844 93.039062 40.746094 93.582031 40.585938 93.601562 C 39.273438 93.75 37.929688 93.496094 36.765625 92.871094 C 35.230469 92.050781 34.101562 90.671875 33.59375 88.996094 C 33.300781 88.03125 33.234375 87.035156 33.386719 86.074219 C 33.328125 86.074219 33.265625 86.078125 33.207031 86.078125 C 32.167969 86.078125 31.109375 85.832031 30.128906 85.304688 C 26.945312 83.601562 25.738281 79.625 27.441406 76.441406 L 29.019531 73.492188 C 28.613281 72.550781 28.425781 71.523438 28.253906 70.585938 C 27.925781 68.792969 27.695312 67.917969 26.992188 67.644531 Z M 35.746094 80.894531 C 35.746094 80.894531 38.742188 75.296875 38.742188 75.292969 C 39.476562 73.921875 38.9375 72.136719 37.566406 71.40625 C 36.1875 70.667969 34.414062 71.207031 33.679688 72.582031 L 30.6875 78.175781 C 29.941406 79.574219 30.46875 81.316406 31.863281 82.0625 C 33.257812 82.808594 34.996094 82.285156 35.746094 80.894531 Z M 42.390625 88.453125 C 42.390625 88.453125 46.4375 80.878906 46.441406 80.875 C 47.175781 79.503906 46.636719 77.71875 45.265625 76.988281 C 43.898438 76.261719 42.121094 76.789062 41.382812 78.152344 L 37.324219 85.742188 C 36.578125 87.140625 37.105469 88.882812 38.503906 89.628906 C 39.175781 89.988281 39.949219 90.0625 40.6875 89.839844 C 41.425781 89.617188 42.03125 89.125 42.390625 88.453125 Z M 51.472656 91.445312 C 51.472656 91.445312 54.746094 85.320312 54.75 85.316406 C 55.480469 83.949219 54.945312 82.160156 53.574219 81.433594 C 52.199219 80.699219 50.421875 81.234375 49.6875 82.609375 L 46.40625 88.738281 C 45.660156 90.132812 46.191406 91.875 47.585938 92.625 C 48.957031 93.359375 50.738281 92.816406 51.472656 91.445312 Z M 60.191406 95.125 C 60.191406 95.125 63.054688 89.765625 63.058594 89.761719 C 63.785156 88.398438 63.246094 86.601562 61.882812 85.875 C 60.507812 85.140625 58.726562 85.679688 57.992188 87.050781 L 55.125 92.414062 C 54.378906 93.8125 54.90625 95.554688 56.304688 96.300781 C 57.699219 97.046875 59.441406 96.519531 60.191406 95.125 Z M 69.515625 90.589844 L 69.484375 90.570312 L 67.023438 89.21875 C 66.925781 90.003906 66.6875 90.777344 66.300781 91.496094 L 64.699219 94.492188 L 66.753906 95.625 C 68.140625 96.386719 69.890625 95.878906 70.652344 94.492188 C 71.414062 93.109375 70.90625 91.355469 69.515625 90.589844 Z M 61.4375 45.285156 C 60.113281 46.199219 58.773438 47.339844 57.457031 48.671875 C 54.476562 51.683594 50.796875 54.53125 46.496094 57.160156 C 50.882812 61.765625 55.597656 59.855469 60.980469 57.675781 C 63.90625 56.488281 66.902344 55.277344 69.820312 55.277344 C 71.339844 55.277344 72.84375 55.605469 74.304688 56.441406 L 90.597656 65.726562 C 91.289062 66.121094 91.882812 66.625 92.375 67.203125 L 101.003906 63.523438 L 92.585938 41.804688 L 86.117188 45.269531 C 82.671875 47.058594 79.421875 45.730469 76.277344 44.445312 C 72.066406 42.726562 67.714844 40.945312 61.4375 45.285156 Z M 19.464844 60.285156 C 22.234375 61.53125 27.382812 63.851562 28.324219 64.21875 C 30.6875 65.132812 31.359375 67.316406 31.730469 69.164062 C 33.722656 67.296875 36.761719 66.804688 39.300781 68.164062 C 40.832031 68.980469 41.960938 70.355469 42.472656 72.03125 C 42.578125 72.378906 42.652344 72.734375 42.699219 73.085938 C 44.167969 72.808594 45.667969 73.03125 47 73.742188 C 48.53125 74.558594 49.660156 75.933594 50.167969 77.613281 C 50.183594 77.652344 50.191406 77.695312 50.203125 77.738281 C 50.242188 77.726562 50.28125 77.710938 50.320312 77.699219 C 51.996094 77.191406 53.769531 77.363281 55.304688 78.1875 C 56.839844 79.003906 57.96875 80.378906 58.476562 82.054688 C 58.488281 82.097656 58.5 82.140625 58.511719 82.179688 C 58.550781 82.167969 58.589844 82.15625 58.628906 82.144531 C 60.304688 81.632812 62.074219 81.808594 63.613281 82.628906 C 64.355469 83.023438 64.996094 83.546875 65.523438 84.171875 L 72.640625 88.109375 C 74.03125 88.871094 75.78125 88.363281 76.542969 86.976562 C 77.296875 85.601562 76.785156 83.847656 75.394531 83.066406 L 65.339844 77.40625 C 64.453125 76.910156 64.140625 75.789062 64.636719 74.902344 C 65.136719 74.019531 66.257812 73.703125 67.140625 74.203125 L 79.863281 81.3125 C 81.25 82.074219 83 81.566406 83.765625 80.179688 C 84.519531 78.804688 84.003906 77.050781 82.617188 76.269531 C 82.574219 76.246094 72.5625 70.582031 72.5625 70.582031 C 71.675781 70.082031 71.363281 68.960938 71.863281 68.078125 C 72.363281 67.191406 73.484375 66.878906 74.371094 67.378906 L 86.050781 73.976562 C 86.695312 74.339844 87.453125 74.429688 88.183594 74.21875 C 88.9375 74.007812 89.558594 73.515625 89.929688 72.835938 C 90.683594 71.46875 90.164062 69.714844 88.773438 68.921875 L 72.480469 59.636719 C 69.765625 58.085938 66.332031 59.476562 62.359375 61.085938 C 59.34375 62.304688 55.964844 63.671875 52.539062 63.671875 C 49.03125 63.671875 45.480469 62.242188 42.222656 57.75 C 41.914062 57.328125 41.804688 56.796875 41.914062 56.285156 C 42.023438 55.773438 42.34375 55.335938 42.796875 55.074219 C 47.621094 52.3125 51.671875 49.289062 54.839844 46.085938 C 55.589844 45.328125 56.351562 44.625 57.113281 43.976562 C 53.679688 42.53125 50.734375 43.226562 47.648438 43.953125 C 44.507812 44.695312 41.265625 45.460938 37.925781 43.617188 L 28.828125 39.417969 L 19.097656 60.117188 C 19.214844 60.171875 19.335938 60.226562 19.464844 60.285156 Z M 19.464844 60.285156 " fill-opacity="1" fill-rule="nonzero"/></g><g fill="#000000" fill-opacity="1"><g transform="translate(83.95161, 15.811806)"><g><path d="M 0.890625 -0.625 C 0.890625 -0.882812 0.945312 -1.082031 1.0625 -1.21875 C 1.1875 -1.351562 1.359375 -1.421875 1.578125 -1.421875 C 1.804688 -1.421875 1.984375 -1.351562 2.109375 -1.21875 C 2.234375 -1.082031 2.296875 -0.882812 2.296875 -0.625 C 2.296875 -0.363281 2.226562 -0.164062 2.09375 -0.03125 C 1.96875 0.101562 1.796875 0.171875 1.578125 0.171875 C 1.378906 0.171875 1.210938 0.109375 1.078125 -0.015625 C 0.953125 -0.140625 0.890625 -0.34375 0.890625 -0.625 Z M 0.890625 -0.625 "/></g></g></g></svg>