<svg xmlns="http://www.w3.org/2000/svg" xmlns:xlink="http://www.w3.org/1999/xlink" width="308" zoomAndPan="magnify" viewBox="0 0 230.87999 231" height="308" preserveAspectRatio="xMidYMid meet" version="1.0"><defs><g/><clipPath id="85364ea1ef"><path d="M 151 150 L 230.730469 150 L 230.730469 230.3125 L 151 230.3125 Z M 151 150 " clip-rule="nonzero"/></clipPath><clipPath id="950d913c4b"><path d="M 0.601562 0.183594 L 188 0.183594 L 188 190 L 0.601562 190 Z M 0.601562 0.183594 " clip-rule="nonzero"/></clipPath></defs><path fill="#000000" d="M 93.230469 20.074219 C 133.292969 20.074219 165.816406 52.597656 165.816406 92.660156 C 165.816406 132.71875 133.292969 165.246094 93.230469 165.246094 C 53.171875 165.246094 20.648438 132.71875 20.648438 92.660156 C 20.648438 52.597656 53.171875 20.074219 93.230469 20.074219 Z M 93.230469 24.101562 C 55.390625 24.101562 24.671875 54.820312 24.671875 92.660156 C 24.671875 130.5 55.390625 161.21875 93.230469 161.21875 C 131.070312 161.21875 161.792969 130.5 161.792969 92.660156 C 161.792969 54.820312 131.070312 24.101562 93.230469 24.101562 Z M 93.230469 24.101562 " fill-opacity="1" fill-rule="evenodd"/><path fill="#000000" d="M 51.890625 57.257812 C 50.777344 57.257812 49.875 56.355469 49.875 55.246094 C 49.875 54.132812 50.777344 53.234375 51.890625 53.234375 L 135.042969 53.234375 C 136.152344 53.234375 137.054688 54.132812 137.054688 55.246094 C 137.054688 56.355469 136.152344 57.257812 135.042969 57.257812 Z M 51.890625 57.257812 " fill-opacity="1" fill-rule="evenodd"/><path fill="#000000" d="M 91.453125 55.246094 C 91.453125 54.132812 92.355469 53.234375 93.464844 53.234375 C 94.578125 53.234375 95.480469 54.132812 95.480469 55.246094 L 95.480469 126.148438 C 95.480469 127.261719 94.578125 128.160156 93.464844 128.160156 C 92.355469 128.160156 91.453125 127.261719 91.453125 126.148438 Z M 91.453125 55.246094 " fill-opacity="1" fill-rule="evenodd"/><path fill="#000000" d="M 94.5 124.421875 L 118.761719 138.980469 C 119.539062 139.445312 119.910156 140.371094 119.667969 141.242188 C 119.425781 142.113281 118.632812 142.71875 117.726562 142.71875 L 69.203125 142.71875 C 68.296875 142.71875 67.503906 142.113281 67.265625 141.242188 C 67.023438 140.371094 67.390625 139.445312 68.167969 138.980469 L 92.429688 124.421875 C 93.066406 124.039062 93.863281 124.039062 94.5 124.421875 Z M 93.464844 128.496094 L 76.46875 138.691406 L 110.460938 138.691406 Z M 93.464844 128.496094 " fill-opacity="1" fill-rule="evenodd"/><path fill="#000000" d="M 85.679688 83.488281 C 83.777344 96.628906 72.457031 106.734375 58.792969 106.734375 C 45.128906 106.734375 33.808594 96.628906 31.90625 83.488281 C 31.820312 82.910156 31.992188 82.324219 32.375 81.882812 C 32.757812 81.441406 33.3125 81.1875 33.898438 81.1875 L 83.6875 81.1875 C 84.273438 81.1875 84.828125 81.441406 85.210938 81.882812 C 85.59375 82.324219 85.765625 82.910156 85.679688 83.488281 Z M 81.242188 85.210938 C 81.242188 85.210938 36.34375 85.210938 36.34375 85.210938 C 38.867188 95.261719 47.964844 102.710938 58.792969 102.710938 C 69.621094 102.710938 78.71875 95.261719 81.242188 85.210938 Z M 81.242188 85.210938 " fill-opacity="1" fill-rule="evenodd"/><path fill="#000000" d="M 154.558594 83.488281 C 152.652344 96.628906 141.332031 106.734375 127.667969 106.734375 C 114.007812 106.734375 102.6875 96.628906 100.78125 83.488281 C 100.699219 82.910156 100.871094 82.324219 101.253906 81.882812 C 101.636719 81.441406 102.191406 81.1875 102.773438 81.1875 L 152.566406 81.1875 C 153.148438 81.1875 153.703125 81.441406 154.085938 81.882812 C 154.46875 82.324219 154.640625 82.910156 154.558594 83.488281 Z M 150.121094 85.210938 C 150.121094 85.210938 105.222656 85.210938 105.222656 85.210938 C 107.742188 95.261719 116.84375 102.710938 127.667969 102.710938 C 138.496094 102.710938 147.597656 95.261719 150.121094 85.210938 Z M 150.121094 85.210938 " fill-opacity="1" fill-rule="evenodd"/><path fill="#000000" d="M 60.550781 54.265625 L 76.136719 82.21875 C 76.484375 82.84375 76.476562 83.605469 76.113281 84.21875 C 75.753906 84.835938 75.09375 85.210938 74.378906 85.210938 L 43.207031 85.210938 C 42.492188 85.210938 41.832031 84.835938 41.472656 84.21875 C 41.109375 83.605469 41.101562 82.84375 41.449219 82.21875 L 57.035156 54.265625 C 57.390625 53.628906 58.0625 53.234375 58.792969 53.234375 C 59.523438 53.234375 60.195312 53.628906 60.550781 54.265625 Z M 58.792969 59.378906 L 46.632812 81.1875 L 70.953125 81.1875 Z M 58.792969 59.378906 " fill-opacity="1" fill-rule="evenodd"/><path fill="#000000" d="M 129.429688 54.265625 L 145.015625 82.21875 C 145.363281 82.84375 145.355469 83.605469 144.992188 84.21875 C 144.628906 84.835938 143.96875 85.210938 143.257812 85.210938 L 112.085938 85.210938 C 111.371094 85.210938 110.710938 84.835938 110.347656 84.21875 C 109.988281 83.605469 109.976562 82.84375 110.324219 82.21875 L 125.914062 54.265625 C 126.269531 53.628906 126.941406 53.234375 127.667969 53.234375 C 128.398438 53.234375 129.074219 53.628906 129.429688 54.265625 Z M 127.667969 59.378906 L 115.511719 81.1875 L 139.828125 81.1875 Z M 127.667969 59.378906 " fill-opacity="1" fill-rule="evenodd"/><g clip-path="url(#85364ea1ef)"><path fill="#000000" d="M 196.757812 230.148438 C 194.265625 229.753906 190.769531 228.25 186.820312 225.988281 C 178.09375 220.996094 166.929688 212.304688 159.519531 205.074219 C 156.730469 202.351562 154.464844 199.824219 153.027344 197.769531 C 151.871094 196.117188 151.226562 194.679688 151.074219 193.617188 C 150.886719 192.316406 151.355469 190.21875 152.566406 187.660156 C 154.914062 182.6875 159.984375 175.453125 165.820312 168.746094 C 170.828125 162.988281 176.394531 157.625 181.25 154.386719 C 184.902344 151.949219 188.253906 150.738281 190.777344 151.027344 C 191.949219 151.160156 193.476562 151.75 195.230469 152.792969 C 197.484375 154.136719 200.21875 156.261719 203.148438 158.898438 C 209.820312 164.902344 217.5625 173.59375 223 181.5 C 226.773438 186.988281 229.421875 192.144531 230.023438 195.832031 C 230.539062 199.003906 229.773438 202.417969 228.070312 205.824219 C 225.722656 210.527344 221.578125 215.25 217.015625 219.257812 C 211.734375 223.902344 205.90625 227.578125 201.808594 229.203125 C 199.679688 230.046875 197.910156 230.332031 196.757812 230.148438 Z M 197.394531 226.175781 C 198.367188 226.328125 199.972656 225.695312 201.976562 224.730469 C 205.589844 222.984375 210.15625 219.929688 214.359375 216.234375 C 218.515625 212.585938 222.332031 208.308594 224.46875 204.027344 C 225.757812 201.445312 226.441406 198.878906 226.050781 196.480469 C 225.59375 193.6875 223.722656 189.984375 221.113281 185.925781 C 216.988281 179.515625 210.996094 172.3125 205.195312 166.433594 C 201.367188 162.550781 197.628906 159.25 194.570312 157.152344 C 192.828125 155.960938 191.386719 155.148438 190.320312 155.023438 C 188.484375 154.816406 186.140625 155.960938 183.484375 157.734375 C 178.878906 160.808594 173.609375 165.921875 168.855469 171.386719 C 163.300781 177.773438 158.441406 184.644531 156.207031 189.378906 C 155.449219 190.980469 154.941406 192.234375 155.054688 193.046875 C 155.148438 193.679688 155.636719 194.480469 156.324219 195.460938 C 157.652344 197.359375 159.753906 199.679688 162.332031 202.191406 C 169.523438 209.207031 180.351562 217.648438 188.820312 222.496094 C 192.242188 224.453125 195.234375 225.832031 197.394531 226.175781 Z M 197.394531 226.175781 " fill-opacity="1" fill-rule="evenodd"/></g><g clip-path="url(#950d913c4b)"><path fill="#000000" d="M 120.433594 181.089844 C 111.832031 183.738281 102.695312 185.164062 93.230469 185.164062 C 42.175781 185.164062 0.726562 143.714844 0.726562 92.660156 C 0.726562 41.605469 42.175781 0.15625 93.230469 0.15625 C 144.285156 0.15625 185.734375 41.605469 185.734375 92.660156 C 185.734375 104.019531 183.683594 114.90625 179.925781 124.964844 L 179.921875 124.980469 C 179.054688 127.246094 178.628906 129.65625 178.660156 132.082031 L 178.660156 132.09375 C 178.71875 139.082031 179.851562 147.28125 186.386719 152.929688 C 186.894531 153.367188 187.148438 154.027344 187.070312 154.6875 C 186.992188 155.355469 186.585938 155.933594 185.992188 156.242188 C 176.160156 161.304688 161.628906 178.742188 156.632812 188.511719 C 156.359375 189.046875 155.863281 189.429688 155.28125 189.5625 C 154.695312 189.691406 154.082031 189.554688 153.609375 189.1875 C 146.996094 184.070312 134.886719 177.207031 120.433594 181.089844 Z M 119.355469 177.214844 C 134.042969 173.25 146.574219 179.222656 154.183594 184.605469 C 159.800781 174.898438 172.242188 160.21875 181.773438 154.050781 C 175.964844 147.726562 174.695312 139.394531 174.636719 132.136719 C 174.59375 129.207031 175.113281 126.292969 176.15625 123.554688 C 179.746094 113.9375 181.710938 103.523438 181.710938 92.660156 C 181.710938 43.828125 142.0625 4.183594 93.230469 4.183594 C 44.398438 4.183594 4.753906 43.828125 4.753906 92.660156 C 4.753906 141.492188 44.398438 181.136719 93.230469 181.136719 C 102.296875 181.136719 111.046875 179.773438 119.285156 177.234375 C 119.308594 177.226562 119.332031 177.21875 119.355469 177.214844 Z M 119.355469 177.214844 " fill-opacity="1" fill-rule="evenodd"/></g><g fill="#000000" fill-opacity="1"><g transform="translate(86.954798, 113.34486)"><g><path d="M 0.890625 -0.625 C 0.890625 -0.882812 0.945312 -1.082031 1.0625 -1.21875 C 1.1875 -1.351562 1.359375 -1.421875 1.578125 -1.421875 C 1.804688 -1.421875 1.984375 -1.351562 2.109375 -1.21875 C 2.234375 -1.082031 2.296875 -0.882812 2.296875 -0.625 C 2.296875 -0.363281 2.234375 -0.164062 2.109375 -0.03125 C 1.984375 0.101562 1.804688 0.171875 1.578125 0.171875 C 1.378906 0.171875 1.210938 0.109375 1.078125 -0.015625 C 0.953125 -0.140625 0.890625 -0.34375 0.890625 -0.625 Z M 0.890625 -0.625 "/></g></g></g></svg>