<svg xmlns="http://www.w3.org/2000/svg" xmlns:xlink="http://www.w3.org/1999/xlink" width="198" zoomAndPan="magnify" viewBox="0 0 148.5 147.000002" height="196" preserveAspectRatio="xMidYMid meet" version="1.0"><defs><g/><clipPath id="b0d0cd3ae6"><path d="M 65 0.519531 L 147.117188 0.519531 L 147.117188 79 L 65 79 Z M 65 0.519531 " clip-rule="nonzero"/></clipPath></defs><path fill="#000000" d="M 123.148438 60.054688 C 123 60.101562 122.867188 60.175781 122.746094 60.277344 C 122.628906 60.375 122.53125 60.496094 122.457031 60.632812 C 122.386719 60.773438 122.34375 60.917969 122.328125 61.074219 C 122.316406 61.230469 122.332031 61.382812 122.378906 61.53125 C 122.703125 62.566406 123 63.613281 123.265625 64.664062 C 123.53125 65.71875 123.769531 66.777344 123.976562 67.839844 C 124.183594 68.90625 124.363281 69.976562 124.511719 71.054688 C 124.660156 72.128906 124.777344 73.207031 124.867188 74.289062 C 124.953125 75.371094 125.011719 76.457031 125.042969 77.539062 C 125.070312 78.625 125.070312 79.710938 125.035156 80.796875 C 125.003906 81.882812 124.941406 82.964844 124.851562 84.046875 C 124.757812 85.128906 124.636719 86.207031 124.484375 87.28125 C 124.335938 88.359375 124.152344 89.429688 123.941406 90.492188 C 123.730469 91.558594 123.492188 92.617188 123.222656 93.667969 C 122.953125 94.71875 122.652344 95.761719 122.324219 96.796875 C 121.996094 97.832031 121.640625 98.859375 121.257812 99.871094 C 120.871094 100.886719 120.460938 101.890625 120.019531 102.882812 C 119.582031 103.875 119.113281 104.855469 118.617188 105.820312 C 118.125 106.785156 117.605469 107.738281 117.058594 108.675781 C 116.507812 109.613281 115.9375 110.53125 115.339844 111.4375 C 114.742188 112.34375 114.117188 113.230469 113.46875 114.101562 C 112.824219 114.972656 112.152344 115.824219 111.457031 116.65625 C 110.761719 117.488281 110.042969 118.300781 109.304688 119.09375 C 108.566406 119.886719 107.804688 120.660156 107.023438 121.410156 C 106.238281 122.160156 105.4375 122.886719 104.613281 123.59375 C 103.789062 124.300781 102.949219 124.980469 102.085938 125.640625 C 101.226562 126.300781 100.347656 126.933594 99.453125 127.542969 C 98.554688 128.152344 97.644531 128.738281 96.714844 129.296875 C 95.789062 129.855469 94.84375 130.386719 93.886719 130.894531 C 92.929688 131.402344 91.957031 131.878906 90.972656 132.332031 C 89.988281 132.785156 88.992188 133.210938 87.984375 133.605469 C 86.976562 134.003906 85.957031 134.371094 84.929688 134.710938 C 83.898438 135.050781 82.863281 135.363281 81.816406 135.644531 C 80.769531 135.925781 79.71875 136.179688 78.660156 136.402344 C 77.597656 136.625 76.535156 136.820312 75.464844 136.984375 C 74.394531 137.148438 73.320312 137.28125 72.242188 137.382812 C 71.164062 137.488281 70.082031 137.5625 69 137.605469 C 67.917969 137.652344 66.835938 137.664062 65.753906 137.648438 C 64.671875 137.632812 63.589844 137.585938 62.507812 137.507812 C 61.429688 137.429688 60.351562 137.324219 59.277344 137.1875 C 58.203125 137.050781 57.132812 136.882812 56.066406 136.6875 C 55.003906 136.492188 53.945312 136.265625 52.890625 136.007812 C 51.839844 135.753906 50.792969 135.46875 49.757812 135.15625 C 48.722656 134.839844 47.695312 134.5 46.675781 134.128906 C 45.660156 133.757812 44.652344 133.359375 43.65625 132.929688 C 42.660156 132.503906 41.679688 132.046875 40.707031 131.566406 C 39.738281 131.085938 38.78125 130.574219 37.839844 130.039062 C 36.898438 129.503906 35.96875 128.945312 35.058594 128.355469 C 34.148438 127.769531 33.253906 127.15625 32.375 126.519531 C 31.5 125.882812 30.640625 125.222656 29.800781 124.539062 C 28.960938 123.855469 28.140625 123.148438 27.339844 122.417969 C 26.535156 121.6875 25.757812 120.933594 24.996094 120.160156 C 24.238281 119.386719 23.5 118.589844 22.785156 117.777344 C 22.070312 116.960938 21.378906 116.125 20.707031 115.273438 C 20.039062 114.417969 19.394531 113.546875 18.773438 112.65625 C 18.152344 111.769531 17.558594 110.863281 16.984375 109.9375 C 16.414062 109.015625 15.871094 108.078125 15.351562 107.125 C 14.835938 106.171875 14.34375 105.203125 13.878906 104.222656 C 13.414062 103.242188 12.976562 102.25 12.566406 101.246094 C 12.15625 100.238281 11.773438 99.222656 11.421875 98.199219 C 11.066406 97.171875 10.742188 96.136719 10.445312 95.09375 C 10.152344 94.046875 9.882812 92.996094 9.644531 91.9375 C 9.410156 90.878906 9.199219 89.8125 9.023438 88.742188 C 8.84375 87.671875 8.695312 86.59375 8.574219 85.515625 C 8.457031 84.4375 8.367188 83.355469 8.308594 82.269531 C 8.25 81.1875 8.21875 80.101562 8.222656 79.015625 C 8.222656 77.929688 8.253906 76.84375 8.316406 75.761719 C 8.375 74.675781 8.46875 73.597656 8.589844 72.515625 C 8.710938 71.4375 8.863281 70.363281 9.042969 69.292969 C 9.222656 68.222656 9.433594 67.15625 9.675781 66.097656 C 9.914062 65.039062 10.183594 63.988281 10.480469 62.945312 C 10.78125 61.902344 11.105469 60.867188 11.464844 59.839844 C 11.820312 58.816406 12.203125 57.800781 12.613281 56.796875 C 13.027344 55.792969 13.464844 54.800781 13.933594 53.820312 C 14.398438 52.839844 14.894531 51.875 15.414062 50.921875 C 15.933594 49.972656 16.480469 49.035156 17.054688 48.113281 C 17.625 47.191406 18.222656 46.285156 18.847656 45.398438 C 19.46875 44.507812 20.117188 43.640625 20.789062 42.789062 C 21.457031 41.933594 22.152344 41.101562 22.871094 40.289062 C 23.585938 39.476562 24.328125 38.683594 25.085938 37.910156 C 25.847656 37.136719 26.628906 36.386719 27.433594 35.660156 C 28.234375 34.929688 29.058594 34.222656 29.902344 33.539062 C 30.742188 32.859375 31.601562 32.199219 32.480469 31.5625 C 33.359375 30.929688 34.253906 30.320312 35.167969 29.734375 C 36.078125 29.148438 37.007812 28.589844 37.949219 28.058594 C 38.894531 27.523438 39.851562 27.015625 40.824219 26.539062 C 41.792969 26.058594 42.777344 25.605469 43.773438 25.179688 C 44.769531 24.753906 45.777344 24.359375 46.796875 23.988281 C 47.816406 23.621094 48.84375 23.28125 49.882812 22.96875 C 50.917969 22.65625 51.964844 22.375 53.015625 22.121094 C 54.070312 21.867188 55.128906 21.644531 56.195312 21.449219 C 57.261719 21.257812 58.332031 21.09375 59.40625 20.957031 C 60.480469 20.824219 61.558594 20.71875 62.636719 20.644531 C 63.71875 20.570312 64.800781 20.527344 65.882812 20.511719 C 66.964844 20.496094 68.046875 20.511719 69.128906 20.558594 C 70.210938 20.605469 71.292969 20.683594 72.367188 20.789062 C 73.445312 20.894531 74.519531 21.03125 75.589844 21.199219 C 76.660156 21.363281 77.726562 21.558594 78.785156 21.785156 C 79.84375 22.011719 80.894531 22.265625 81.941406 22.550781 C 82.988281 22.835938 84.023438 23.148438 85.050781 23.492188 C 85.199219 23.542969 85.351562 23.5625 85.507812 23.550781 C 85.664062 23.542969 85.816406 23.5 85.957031 23.433594 C 86.097656 23.363281 86.21875 23.269531 86.324219 23.152344 C 86.429688 23.035156 86.507812 22.902344 86.558594 22.753906 C 86.605469 22.601562 86.625 22.449219 86.613281 22.289062 C 86.597656 22.132812 86.558594 21.984375 86.488281 21.84375 C 86.417969 21.703125 86.324219 21.578125 86.203125 21.476562 C 86.085938 21.371094 85.953125 21.292969 85.804688 21.242188 C 84.738281 20.886719 83.660156 20.5625 82.574219 20.265625 C 81.488281 19.972656 80.394531 19.707031 79.296875 19.472656 C 78.195312 19.238281 77.089844 19.035156 75.976562 18.863281 C 74.863281 18.691406 73.75 18.550781 72.628906 18.441406 C 71.511719 18.332031 70.390625 18.253906 69.265625 18.207031 C 68.140625 18.160156 67.015625 18.140625 65.890625 18.15625 C 64.765625 18.171875 63.644531 18.21875 62.523438 18.296875 C 61.398438 18.375 60.28125 18.484375 59.164062 18.625 C 58.046875 18.765625 56.9375 18.9375 55.828125 19.136719 C 54.722656 19.339844 53.625 19.574219 52.53125 19.835938 C 51.4375 20.101562 50.351562 20.394531 49.273438 20.71875 C 48.195312 21.042969 47.128906 21.394531 46.070312 21.78125 C 45.011719 22.164062 43.964844 22.574219 42.929688 23.019531 C 41.894531 23.460938 40.875 23.929688 39.863281 24.429688 C 38.855469 24.925781 37.863281 25.453125 36.882812 26.007812 C 35.902344 26.5625 34.9375 27.144531 33.992188 27.75 C 33.042969 28.359375 32.113281 28.992188 31.203125 29.652344 C 30.289062 30.3125 29.398438 30.996094 28.523438 31.707031 C 27.648438 32.417969 26.792969 33.152344 25.960938 33.90625 C 25.125 34.664062 24.316406 35.445312 23.523438 36.246094 C 22.734375 37.050781 21.964844 37.875 21.222656 38.71875 C 20.476562 39.5625 19.757812 40.429688 19.058594 41.316406 C 18.363281 42.199219 17.691406 43.105469 17.042969 44.027344 C 16.398438 44.949219 15.777344 45.890625 15.183594 46.847656 C 14.589844 47.804688 14.019531 48.777344 13.480469 49.769531 C 12.941406 50.757812 12.425781 51.761719 11.941406 52.777344 C 11.457031 53.796875 11 54.824219 10.574219 55.867188 C 10.144531 56.910156 9.746094 57.964844 9.378906 59.03125 C 9.007812 60.097656 8.667969 61.171875 8.359375 62.253906 C 8.050781 63.339844 7.769531 64.433594 7.519531 65.53125 C 7.273438 66.632812 7.054688 67.738281 6.867188 68.847656 C 6.679688 69.960938 6.519531 71.078125 6.394531 72.199219 C 6.269531 73.320312 6.175781 74.441406 6.109375 75.570312 C 6.046875 76.695312 6.015625 77.820312 6.011719 78.949219 C 6.011719 80.078125 6.042969 81.203125 6.105469 82.332031 C 6.164062 83.457031 6.257812 84.582031 6.382812 85.699219 C 6.503906 86.820312 6.660156 87.9375 6.84375 89.050781 C 7.03125 90.164062 7.246094 91.269531 7.492188 92.371094 C 7.742188 93.46875 8.019531 94.5625 8.324219 95.648438 C 8.632812 96.734375 8.96875 97.808594 9.335938 98.875 C 9.703125 99.941406 10.101562 100.996094 10.527344 102.039062 C 10.953125 103.082031 11.40625 104.113281 11.890625 105.132812 C 12.371094 106.152344 12.882812 107.15625 13.421875 108.144531 C 13.960938 109.136719 14.527344 110.109375 15.117188 111.070312 C 15.710938 112.027344 16.328125 112.96875 16.972656 113.894531 C 17.617188 114.816406 18.289062 115.722656 18.984375 116.609375 C 19.679688 117.496094 20.398438 118.363281 21.140625 119.210938 C 21.882812 120.058594 22.648438 120.882812 23.4375 121.6875 C 24.226562 122.492188 25.039062 123.273438 25.871094 124.03125 C 26.703125 124.789062 27.554688 125.527344 28.425781 126.238281 C 29.300781 126.949219 30.191406 127.636719 31.101562 128.296875 C 32.011719 128.957031 32.941406 129.59375 33.886719 130.203125 C 34.835938 130.8125 35.796875 131.398438 36.773438 131.953125 C 37.753906 132.507812 38.746094 133.039062 39.753906 133.539062 C 40.761719 134.039062 41.785156 134.511719 42.816406 134.957031 C 43.851562 135.398438 44.898438 135.816406 45.953125 136.199219 C 47.011719 136.585938 48.078125 136.941406 49.15625 137.269531 C 50.230469 137.59375 51.316406 137.890625 52.410156 138.15625 C 53.503906 138.421875 54.601562 138.65625 55.710938 138.863281 C 56.816406 139.066406 57.925781 139.238281 59.042969 139.382812 C 60.15625 139.523438 61.277344 139.636719 62.398438 139.714844 C 63.519531 139.796875 64.644531 139.84375 65.769531 139.863281 C 66.894531 139.878906 68.019531 139.867188 69.140625 139.820312 C 70.265625 139.777344 71.386719 139.699219 72.507812 139.59375 C 73.628906 139.484375 74.742188 139.347656 75.855469 139.175781 C 76.96875 139.007812 78.074219 138.804688 79.175781 138.574219 C 80.277344 138.34375 81.367188 138.082031 82.457031 137.789062 C 83.542969 137.496094 84.621094 137.171875 85.6875 136.820312 C 86.757812 136.46875 87.8125 136.085938 88.863281 135.675781 C 89.910156 135.261719 90.945312 134.820312 91.964844 134.351562 C 92.988281 133.882812 94 133.386719 94.992188 132.859375 C 95.988281 132.335938 96.96875 131.78125 97.933594 131.203125 C 98.898438 130.621094 99.847656 130.015625 100.777344 129.382812 C 101.707031 128.75 102.621094 128.089844 103.515625 127.40625 C 104.410156 126.722656 105.285156 126.015625 106.140625 125.285156 C 106.996094 124.550781 107.828125 123.796875 108.644531 123.015625 C 109.457031 122.238281 110.246094 121.4375 111.015625 120.613281 C 111.785156 119.789062 112.53125 118.945312 113.253906 118.082031 C 113.976562 117.214844 114.671875 116.332031 115.347656 115.429688 C 116.019531 114.523438 116.667969 113.601562 117.289062 112.664062 C 117.910156 111.722656 118.507812 110.765625 119.074219 109.792969 C 119.644531 108.820312 120.1875 107.832031 120.699219 106.832031 C 121.214844 105.828125 121.699219 104.808594 122.15625 103.78125 C 122.617188 102.75 123.042969 101.707031 123.445312 100.652344 C 123.84375 99.601562 124.214844 98.535156 124.554688 97.460938 C 124.898438 96.386719 125.207031 95.300781 125.488281 94.210938 C 125.769531 93.117188 126.019531 92.019531 126.242188 90.914062 C 126.460938 89.808594 126.648438 88.695312 126.808594 87.578125 C 126.964844 86.460938 127.09375 85.34375 127.191406 84.21875 C 127.285156 83.09375 127.351562 81.96875 127.386719 80.84375 C 127.417969 79.714844 127.421875 78.585938 127.394531 77.460938 C 127.363281 76.332031 127.304688 75.207031 127.214844 74.082031 C 127.121094 72.957031 127 71.839844 126.847656 70.71875 C 126.695312 69.601562 126.507812 68.492188 126.292969 67.382812 C 126.078125 66.277344 125.835938 65.175781 125.558594 64.082031 C 125.28125 62.988281 124.976562 61.90625 124.640625 60.828125 C 124.59375 60.679688 124.515625 60.542969 124.414062 60.421875 C 124.3125 60.304688 124.195312 60.207031 124.054688 60.136719 C 123.914062 60.0625 123.765625 60.019531 123.609375 60.003906 C 123.453125 59.992188 123.300781 60.007812 123.148438 60.054688 Z M 123.148438 60.054688 " fill-opacity="1" fill-rule="nonzero"/><path fill="#000000" d="M 66.589844 60.285156 C 68.046875 60.289062 69.484375 60.464844 70.902344 60.8125 C 71.210938 60.859375 71.492188 60.796875 71.75 60.621094 C 72.007812 60.445312 72.171875 60.207031 72.242188 59.902344 C 72.316406 59.597656 72.273438 59.3125 72.121094 59.039062 C 71.964844 58.769531 71.742188 58.585938 71.445312 58.492188 C 69.847656 58.109375 68.230469 57.917969 66.589844 57.910156 C 65.898438 57.910156 65.210938 57.945312 64.527344 58.011719 C 63.839844 58.082031 63.160156 58.179688 62.484375 58.316406 C 61.808594 58.449219 61.140625 58.617188 60.480469 58.820312 C 59.820312 59.019531 59.171875 59.253906 58.535156 59.515625 C 57.898438 59.78125 57.277344 60.074219 56.671875 60.402344 C 56.0625 60.726562 55.472656 61.082031 54.898438 61.464844 C 54.328125 61.851562 53.773438 62.261719 53.242188 62.699219 C 52.707031 63.136719 52.199219 63.601562 51.710938 64.089844 C 51.222656 64.578125 50.761719 65.089844 50.324219 65.625 C 49.886719 66.15625 49.476562 66.710938 49.09375 67.285156 C 48.710938 67.859375 48.359375 68.453125 48.03125 69.0625 C 47.707031 69.671875 47.414062 70.292969 47.148438 70.933594 C 46.886719 71.570312 46.65625 72.222656 46.453125 72.882812 C 46.253906 73.542969 46.085938 74.210938 45.953125 74.890625 C 45.820312 75.566406 45.71875 76.25 45.648438 76.9375 C 45.582031 77.625 45.546875 78.316406 45.546875 79.003906 C 45.546875 79.695312 45.582031 80.386719 45.648438 81.074219 C 45.71875 81.761719 45.820312 82.445312 45.953125 83.121094 C 46.085938 83.800781 46.253906 84.46875 46.453125 85.128906 C 46.65625 85.789062 46.886719 86.441406 47.148438 87.078125 C 47.414062 87.71875 47.707031 88.339844 48.03125 88.949219 C 48.359375 89.558594 48.710938 90.152344 49.09375 90.726562 C 49.476562 91.300781 49.886719 91.855469 50.324219 92.386719 C 50.761719 92.921875 51.222656 93.433594 51.710938 93.921875 C 52.199219 94.410156 52.707031 94.875 53.242188 95.3125 C 53.773438 95.75 54.328125 96.160156 54.898438 96.546875 C 55.472656 96.929688 56.0625 97.285156 56.671875 97.609375 C 57.277344 97.9375 57.898438 98.230469 58.535156 98.496094 C 59.171875 98.757812 59.820312 98.992188 60.480469 99.191406 C 61.140625 99.394531 61.808594 99.5625 62.484375 99.695312 C 63.160156 99.832031 63.839844 99.929688 64.527344 100 C 65.210938 100.066406 65.898438 100.101562 66.589844 100.101562 C 67.277344 100.101562 67.964844 100.066406 68.652344 100 C 69.335938 99.929688 70.015625 99.832031 70.691406 99.695312 C 71.367188 99.5625 72.035156 99.394531 72.695312 99.191406 C 73.355469 98.992188 74.003906 98.757812 74.640625 98.496094 C 75.277344 98.230469 75.898438 97.9375 76.507812 97.609375 C 77.113281 97.285156 77.703125 96.929688 78.277344 96.546875 C 78.851562 96.160156 79.402344 95.75 79.9375 95.3125 C 80.46875 94.875 80.976562 94.410156 81.464844 93.921875 C 81.953125 93.433594 82.414062 92.921875 82.851562 92.386719 C 83.289062 91.855469 83.699219 91.300781 84.082031 90.726562 C 84.464844 90.152344 84.820312 89.558594 85.144531 88.949219 C 85.46875 88.339844 85.761719 87.71875 86.027344 87.078125 C 86.289062 86.441406 86.523438 85.789062 86.722656 85.128906 C 86.921875 84.46875 87.089844 83.800781 87.222656 83.121094 C 87.359375 82.445312 87.460938 81.761719 87.527344 81.074219 C 87.59375 80.386719 87.628906 79.695312 87.628906 79.003906 C 87.632812 77.632812 87.496094 76.273438 87.226562 74.925781 C 87.195312 74.773438 87.136719 74.628906 87.050781 74.5 C 86.964844 74.367188 86.855469 74.261719 86.726562 74.171875 C 86.59375 74.085938 86.453125 74.027344 86.300781 73.996094 C 86.148438 73.964844 85.992188 73.964844 85.839844 73.996094 C 85.6875 74.027344 85.542969 74.082031 85.414062 74.171875 C 85.28125 74.257812 85.171875 74.367188 85.085938 74.496094 C 85 74.625 84.941406 74.769531 84.910156 74.921875 C 84.878906 75.078125 84.878906 75.230469 84.910156 75.382812 C 85.140625 76.582031 85.257812 77.789062 85.261719 79.003906 C 85.261719 79.621094 85.230469 80.230469 85.171875 80.84375 C 85.113281 81.453125 85.023438 82.0625 84.90625 82.664062 C 84.785156 83.265625 84.636719 83.859375 84.460938 84.449219 C 84.285156 85.035156 84.078125 85.613281 83.84375 86.179688 C 83.609375 86.75 83.347656 87.304688 83.0625 87.84375 C 82.773438 88.386719 82.457031 88.914062 82.117188 89.421875 C 81.777344 89.933594 81.414062 90.425781 81.027344 90.902344 C 80.636719 91.375 80.226562 91.832031 79.796875 92.265625 C 79.363281 92.699219 78.910156 93.113281 78.4375 93.503906 C 77.964844 93.890625 77.472656 94.257812 76.964844 94.597656 C 76.453125 94.941406 75.929688 95.257812 75.390625 95.546875 C 74.851562 95.835938 74.296875 96.097656 73.730469 96.332031 C 73.164062 96.566406 72.589844 96.773438 72.003906 96.953125 C 71.417969 97.132812 70.824219 97.28125 70.222656 97.402344 C 69.625 97.519531 69.019531 97.613281 68.410156 97.671875 C 67.800781 97.730469 67.1875 97.761719 66.578125 97.761719 C 65.964844 97.761719 65.351562 97.734375 64.742188 97.671875 C 64.132812 97.613281 63.53125 97.523438 62.929688 97.402344 C 62.328125 97.285156 61.734375 97.136719 61.148438 96.957031 C 60.5625 96.777344 59.988281 96.574219 59.421875 96.335938 C 58.855469 96.101562 58.300781 95.839844 57.761719 95.550781 C 57.222656 95.261719 56.699219 94.945312 56.1875 94.605469 C 55.679688 94.265625 55.1875 93.898438 54.714844 93.507812 C 54.242188 93.121094 53.789062 92.707031 53.355469 92.273438 C 52.921875 91.839844 52.511719 91.386719 52.121094 90.910156 C 51.734375 90.4375 51.371094 89.945312 51.03125 89.433594 C 50.691406 88.921875 50.375 88.398438 50.085938 87.855469 C 49.796875 87.3125 49.535156 86.757812 49.300781 86.191406 C 49.066406 85.625 48.863281 85.046875 48.683594 84.460938 C 48.507812 83.871094 48.359375 83.277344 48.238281 82.675781 C 48.121094 82.074219 48.03125 81.464844 47.96875 80.855469 C 47.910156 80.242188 47.878906 79.632812 47.878906 79.015625 C 47.878906 78.402344 47.910156 77.792969 47.972656 77.179688 C 48.03125 76.570312 48.121094 75.960938 48.242188 75.359375 C 48.359375 74.757812 48.507812 74.164062 48.6875 73.574219 C 48.867188 72.988281 49.070312 72.410156 49.304688 71.84375 C 49.542969 71.277344 49.804688 70.722656 50.09375 70.179688 C 50.382812 69.640625 50.695312 69.113281 51.035156 68.605469 C 51.375 68.09375 51.742188 67.601562 52.128906 67.125 C 52.519531 66.652344 52.929688 66.199219 53.363281 65.765625 C 53.796875 65.332031 54.25 64.917969 54.722656 64.53125 C 55.195312 64.140625 55.6875 63.777344 56.199219 63.433594 C 56.707031 63.09375 57.230469 62.777344 57.773438 62.488281 C 58.3125 62.199219 58.867188 61.9375 59.433594 61.703125 C 59.996094 61.46875 60.574219 61.265625 61.160156 61.085938 C 61.746094 60.910156 62.339844 60.761719 62.941406 60.640625 C 63.539062 60.523438 64.144531 60.433594 64.753906 60.371094 C 65.363281 60.3125 65.976562 60.285156 66.589844 60.285156 Z M 66.589844 60.285156 " fill-opacity="1" fill-rule="nonzero"/><path fill="#000000" d="M 80.28125 41.597656 C 80.328125 41.449219 80.347656 41.296875 80.332031 41.140625 C 80.320312 40.984375 80.28125 40.835938 80.210938 40.695312 C 80.140625 40.554688 80.042969 40.433594 79.925781 40.332031 C 79.808594 40.230469 79.675781 40.152344 79.527344 40.101562 C 75.328125 38.691406 71.015625 37.988281 66.589844 37.992188 C 65.164062 37.996094 63.742188 38.078125 62.328125 38.230469 C 60.910156 38.382812 59.507812 38.609375 58.113281 38.910156 C 56.722656 39.210938 55.347656 39.582031 53.996094 40.027344 C 52.640625 40.46875 51.3125 40.984375 50.015625 41.566406 C 48.714844 42.152344 47.445312 42.800781 46.214844 43.515625 C 44.980469 44.230469 43.789062 45.011719 42.640625 45.851562 C 41.488281 46.691406 40.382812 47.589844 39.324219 48.546875 C 38.269531 49.503906 37.261719 50.511719 36.308594 51.574219 C 35.359375 52.636719 34.460938 53.746094 33.625 54.902344 C 32.789062 56.054688 32.015625 57.253906 31.300781 58.488281 C 30.589844 59.726562 29.945312 60.996094 29.363281 62.300781 C 28.785156 63.605469 28.273438 64.9375 27.832031 66.296875 C 27.390625 67.652344 27.023438 69.03125 26.726562 70.425781 C 26.425781 71.824219 26.203125 73.230469 26.054688 74.652344 C 25.902344 76.070312 25.824219 77.496094 25.824219 78.925781 C 25.820312 80.351562 25.894531 81.777344 26.039062 83.199219 C 26.1875 84.617188 26.40625 86.027344 26.699219 87.425781 C 26.992188 88.824219 27.355469 90.199219 27.792969 91.558594 C 28.230469 92.917969 28.738281 94.253906 29.3125 95.558594 C 29.886719 96.863281 30.53125 98.136719 31.238281 99.375 C 31.945312 100.617188 32.71875 101.8125 33.550781 102.972656 C 34.386719 104.128906 35.277344 105.242188 36.226562 106.308594 C 37.175781 107.371094 38.175781 108.382812 39.230469 109.34375 C 40.285156 110.304688 41.386719 111.207031 42.535156 112.050781 C 43.683594 112.894531 44.875 113.675781 46.105469 114.394531 C 47.335938 115.117188 48.601562 115.769531 49.898438 116.355469 C 51.195312 116.945312 52.523438 117.460938 53.875 117.910156 C 55.226562 118.359375 56.597656 118.734375 57.992188 119.039062 C 59.382812 119.34375 60.785156 119.574219 62.203125 119.734375 C 63.617188 119.890625 65.039062 119.972656 66.460938 119.980469 C 67.886719 119.992188 69.308594 119.925781 70.722656 119.785156 C 72.140625 119.644531 73.546875 119.429688 74.945312 119.144531 C 76.339844 118.855469 77.714844 118.496094 79.074219 118.0625 C 80.429688 117.632812 81.761719 117.128906 83.066406 116.558594 C 84.375 115.988281 85.644531 115.351562 86.882812 114.644531 C 88.125 113.941406 89.320312 113.171875 90.480469 112.34375 C 91.640625 111.511719 92.753906 110.625 93.820312 109.675781 C 94.886719 108.730469 95.898438 107.730469 96.863281 106.675781 C 97.824219 105.625 98.726562 104.523438 99.574219 103.375 C 100.421875 102.226562 101.207031 101.039062 101.933594 99.808594 C 102.65625 98.578125 103.3125 97.3125 103.90625 96.015625 C 104.496094 94.714844 105.019531 93.386719 105.472656 92.035156 C 105.925781 90.679688 106.308594 89.308594 106.617188 87.914062 C 106.925781 86.519531 107.164062 85.113281 107.328125 83.695312 C 107.492188 82.273438 107.582031 80.851562 107.59375 79.425781 C 107.609375 77.996094 107.550781 76.570312 107.417969 75.148438 C 107.285156 73.726562 107.078125 72.316406 106.796875 70.914062 C 106.515625 69.515625 106.164062 68.132812 105.738281 66.769531 C 105.617188 66.488281 105.417969 66.28125 105.140625 66.15625 C 104.859375 66.027344 104.574219 66.007812 104.28125 66.101562 C 103.992188 66.195312 103.765625 66.375 103.613281 66.640625 C 103.457031 66.90625 103.414062 67.191406 103.476562 67.492188 C 103.691406 68.175781 103.886719 68.863281 104.0625 69.558594 C 104.238281 70.253906 104.394531 70.953125 104.53125 71.65625 C 104.667969 72.363281 104.785156 73.070312 104.882812 73.777344 C 104.976562 74.488281 105.054688 75.203125 105.113281 75.914062 C 105.171875 76.628906 105.210938 77.347656 105.226562 78.0625 C 105.246094 78.777344 105.246094 79.496094 105.222656 80.210938 C 105.203125 80.929688 105.160156 81.644531 105.097656 82.359375 C 105.039062 83.074219 104.957031 83.785156 104.855469 84.496094 C 104.757812 85.203125 104.636719 85.910156 104.496094 86.613281 C 104.355469 87.316406 104.195312 88.015625 104.019531 88.710938 C 103.839844 89.402344 103.640625 90.09375 103.425781 90.773438 C 103.207031 91.457031 102.972656 92.136719 102.71875 92.804688 C 102.464844 93.476562 102.191406 94.136719 101.902344 94.792969 C 101.609375 95.445312 101.300781 96.09375 100.972656 96.730469 C 100.648438 97.367188 100.304688 97.996094 99.941406 98.613281 C 99.578125 99.234375 99.199219 99.839844 98.804688 100.4375 C 98.410156 101.035156 98 101.621094 97.570312 102.195312 C 97.144531 102.769531 96.699219 103.332031 96.238281 103.882812 C 95.78125 104.429688 95.308594 104.96875 94.816406 105.492188 C 94.328125 106.015625 93.828125 106.523438 93.308594 107.019531 C 92.792969 107.511719 92.261719 107.992188 91.71875 108.457031 C 91.175781 108.925781 90.617188 109.375 90.050781 109.808594 C 89.480469 110.242188 88.902344 110.660156 88.308594 111.0625 C 87.71875 111.464844 87.113281 111.851562 86.5 112.21875 C 85.886719 112.589844 85.265625 112.941406 84.632812 113.273438 C 84 113.609375 83.359375 113.925781 82.707031 114.222656 C 82.058594 114.519531 81.398438 114.800781 80.734375 115.0625 C 80.066406 115.324219 79.394531 115.566406 78.714844 115.789062 C 78.039062 116.011719 77.351562 116.21875 76.660156 116.402344 C 75.972656 116.589844 75.277344 116.757812 74.578125 116.902344 C 73.875 117.050781 73.171875 117.175781 72.464844 117.285156 C 71.757812 117.394531 71.050781 117.480469 70.339844 117.550781 C 69.625 117.617188 68.914062 117.664062 68.199219 117.695312 C 67.484375 117.722656 66.769531 117.730469 66.054688 117.71875 C 65.339844 117.707031 64.625 117.675781 63.914062 117.625 C 63.199219 117.574219 62.488281 117.503906 61.78125 117.414062 C 61.070312 117.320312 60.363281 117.210938 59.660156 117.082031 C 58.957031 116.949219 58.257812 116.800781 57.5625 116.632812 C 56.871094 116.460938 56.179688 116.273438 55.496094 116.066406 C 54.8125 115.859375 54.132812 115.632812 53.460938 115.386719 C 52.789062 115.140625 52.125 114.878906 51.46875 114.59375 C 50.8125 114.3125 50.160156 114.011719 49.519531 113.691406 C 48.882812 113.375 48.25 113.039062 47.628906 112.683594 C 47.007812 112.332031 46.394531 111.960938 45.792969 111.570312 C 45.191406 111.183594 44.601562 110.777344 44.023438 110.359375 C 43.445312 109.9375 42.878906 109.5 42.324219 109.046875 C 41.769531 108.597656 41.226562 108.128906 40.699219 107.644531 C 40.167969 107.164062 39.65625 106.667969 39.152344 106.15625 C 38.652344 105.644531 38.167969 105.117188 37.695312 104.578125 C 37.222656 104.042969 36.765625 103.492188 36.324219 102.925781 C 35.882812 102.363281 35.457031 101.785156 35.046875 101.199219 C 34.636719 100.609375 34.246094 100.011719 33.867188 99.402344 C 33.492188 98.792969 33.132812 98.175781 32.792969 97.542969 C 32.449219 96.914062 32.125 96.277344 31.820312 95.628906 C 31.511719 94.980469 31.222656 94.324219 30.953125 93.660156 C 30.683594 92.996094 30.433594 92.328125 30.199219 91.648438 C 29.964844 90.972656 29.753906 90.289062 29.558594 89.597656 C 29.363281 88.90625 29.1875 88.214844 29.03125 87.515625 C 28.875 86.816406 28.738281 86.109375 28.621094 85.402344 C 28.503906 84.695312 28.40625 83.988281 28.328125 83.273438 C 28.25 82.5625 28.191406 81.847656 28.152344 81.132812 C 28.113281 80.417969 28.09375 79.699219 28.09375 78.984375 C 28.097656 78.265625 28.117188 77.550781 28.160156 76.835938 C 28.199219 76.117188 28.261719 75.40625 28.339844 74.691406 C 28.421875 73.980469 28.523438 73.269531 28.640625 72.5625 C 28.761719 71.855469 28.902344 71.152344 29.058594 70.453125 C 29.21875 69.757812 29.398438 69.0625 29.59375 68.375 C 29.792969 67.683594 30.007812 67 30.242188 66.324219 C 30.480469 65.648438 30.734375 64.976562 31.003906 64.316406 C 31.277344 63.652344 31.566406 62.996094 31.875 62.351562 C 32.1875 61.703125 32.511719 61.066406 32.855469 60.4375 C 33.199219 59.808594 33.5625 59.191406 33.941406 58.582031 C 34.316406 57.976562 34.714844 57.378906 35.125 56.792969 C 35.535156 56.203125 35.964844 55.628906 36.40625 55.066406 C 36.851562 54.507812 37.308594 53.957031 37.78125 53.417969 C 38.257812 52.882812 38.746094 52.359375 39.246094 51.851562 C 39.75 51.339844 40.265625 50.84375 40.796875 50.363281 C 41.328125 49.882812 41.871094 49.417969 42.425781 48.96875 C 42.984375 48.515625 43.550781 48.082031 44.132812 47.664062 C 44.710938 47.246094 45.304688 46.84375 45.90625 46.457031 C 46.507812 46.070312 47.121094 45.703125 47.746094 45.351562 C 48.367188 45 49 44.664062 49.640625 44.347656 C 50.285156 44.03125 50.933594 43.734375 51.589844 43.453125 C 52.25 43.171875 52.914062 42.910156 53.585938 42.667969 C 54.261719 42.425781 54.9375 42.199219 55.625 41.996094 C 56.308594 41.789062 57 41.605469 57.695312 41.4375 C 58.390625 41.269531 59.089844 41.121094 59.792969 40.996094 C 60.496094 40.867188 61.203125 40.757812 61.914062 40.671875 C 62.621094 40.582031 63.332031 40.515625 64.046875 40.464844 C 64.761719 40.417969 65.472656 40.386719 66.1875 40.378906 C 66.902344 40.371094 67.617188 40.382812 68.332031 40.410156 C 69.046875 40.441406 69.761719 40.492188 70.472656 40.566406 C 71.183594 40.636719 71.890625 40.726562 72.597656 40.835938 C 73.304688 40.945312 74.007812 41.074219 74.707031 41.226562 C 75.40625 41.375 76.101562 41.542969 76.792969 41.730469 C 77.480469 41.917969 78.164062 42.125 78.84375 42.351562 C 79.144531 42.429688 79.433594 42.398438 79.707031 42.253906 C 79.984375 42.109375 80.175781 41.890625 80.28125 41.597656 Z M 80.28125 41.597656 " fill-opacity="1" fill-rule="nonzero"/><g clip-path="url(#b0d0cd3ae6)"><path fill="#000000" d="M 65.78125 76.929688 C 65.605469 77.097656 65.488281 77.296875 65.4375 77.535156 C 65.382812 77.769531 65.402344 78 65.492188 78.226562 C 65.582031 78.453125 65.726562 78.632812 65.925781 78.769531 C 66.125 78.90625 66.347656 78.972656 66.589844 78.96875 C 66.910156 78.972656 67.183594 78.863281 67.414062 78.636719 L 96.167969 51.003906 C 96.621094 51.65625 97.207031 52.160156 97.917969 52.515625 C 98.007812 52.515625 104.441406 52.8125 110.824219 52.8125 C 116.628906 52.8125 122.394531 52.585938 123.273438 51.777344 C 123.519531 51.546875 147.171875 28.113281 147.1875 25.019531 C 147.1875 21.503906 145.257812 20.765625 140.558594 20.257812 C 138.160156 20.011719 135.003906 19.886719 132.230469 19.78125 C 130.480469 19.78125 128.234375 19.640625 127.183594 19.535156 C 127.183594 18.816406 127.304688 17.550781 127.394531 16.496094 C 127.757812 13.4375 127.839844 10.371094 127.636719 7.300781 C 127.21875 2.605469 126.445312 0.636719 123.007812 0.636719 C 119.890625 0.636719 96.535156 24.40625 96.308594 24.652344 C 94.816406 26.285156 95.289062 42.617188 95.554688 48.3125 Z M 140.386719 22.628906 C 144.910156 23.105469 144.910156 23.632812 144.910156 24.84375 C 144.101562 27.339844 124.621094 47.3125 121.851562 49.859375 C 119.589844 50.617188 101.144531 50.386719 98.707031 50.160156 C 98.390625 49.914062 98.113281 49.625 97.886719 49.296875 L 126.535156 21.820312 C 128.421875 22.027344 130.316406 22.140625 132.214844 22.15625 C 134.949219 22.261719 138.054688 22.382812 140.386719 22.628906 Z M 98.148438 26.144531 C 100.761719 23.367188 120.660156 3.820312 122.976562 3.011719 C 124.34375 3.011719 124.886719 3.011719 125.359375 7.546875 C 125.535156 10.484375 125.453125 13.414062 125.113281 16.335938 C 124.957031 17.601562 124.886719 18.875 124.902344 20.152344 L 97.675781 46.34375 C 97.515625 40.3125 97.515625 27.992188 98.148438 26.144531 Z M 98.148438 26.144531 " fill-opacity="1" fill-rule="nonzero"/></g><g fill="#000000" fill-opacity="1"><g transform="translate(112.738172, 21.696155)"><g><path d="M 0.890625 -0.609375 C 0.890625 -0.867188 0.945312 -1.066406 1.0625 -1.203125 C 1.175781 -1.335938 1.347656 -1.40625 1.578125 -1.40625 C 1.796875 -1.40625 1.96875 -1.335938 2.09375 -1.203125 C 2.21875 -1.066406 2.28125 -0.867188 2.28125 -0.609375 C 2.28125 -0.359375 2.21875 -0.164062 2.09375 -0.03125 C 1.96875 0.101562 1.796875 0.171875 1.578125 0.171875 C 1.378906 0.171875 1.210938 0.109375 1.078125 -0.015625 C 0.953125 -0.140625 0.890625 -0.335938 0.890625 -0.609375 Z M 0.890625 -0.609375 "/></g></g></g></svg>