<svg xmlns="http://www.w3.org/2000/svg" xmlns:xlink="http://www.w3.org/1999/xlink" width="308" zoomAndPan="magnify" viewBox="0 0 230.87999 212.249992" height="283" preserveAspectRatio="xMidYMid meet" version="1.0"><defs><g/><clipPath id="19d5be4007"><path d="M 65 0.328125 L 165 0.328125 L 165 100 L 65 100 Z M 65 0.328125 " clip-rule="nonzero"/></clipPath><clipPath id="da0b02b5e0"><path d="M 0.347656 106 L 100 106 L 100 205.851562 L 0.347656 205.851562 Z M 0.347656 106 " clip-rule="nonzero"/></clipPath><clipPath id="ee21720ff7"><path d="M 131 106 L 229.785156 106 L 229.785156 205.851562 L 131 205.851562 Z M 131 106 " clip-rule="nonzero"/></clipPath></defs><g clip-path="url(#19d5be4007)"><path fill="#e2eaff" d="M 115.117188 99.109375 C 87.882812 99.109375 65.734375 76.953125 65.734375 49.726562 C 65.734375 22.5 87.890625 0.347656 115.117188 0.347656 C 142.347656 0.347656 164.496094 22.5 164.496094 49.726562 C 164.496094 76.953125 142.347656 99.109375 115.117188 99.109375 Z M 115.117188 5.535156 C 90.75 5.535156 70.925781 25.355469 70.925781 49.722656 C 70.925781 74.089844 90.75 93.910156 115.117188 93.910156 C 139.480469 93.910156 159.304688 74.089844 159.304688 49.722656 C 159.304688 25.355469 139.480469 5.535156 115.117188 5.535156 Z M 115.117188 5.535156 " fill-opacity="1" fill-rule="nonzero"/></g><g clip-path="url(#da0b02b5e0)"><path fill="#e2eaff" d="M 49.757812 205.539062 C 22.527344 205.539062 0.378906 183.382812 0.378906 156.15625 C 0.378906 128.929688 22.53125 106.777344 49.757812 106.777344 C 76.984375 106.777344 99.140625 128.929688 99.140625 156.15625 C 99.140625 183.382812 76.984375 205.539062 49.757812 205.539062 Z M 49.757812 111.964844 C 25.394531 111.964844 5.570312 131.785156 5.570312 156.152344 C 5.570312 180.519531 25.394531 200.339844 49.757812 200.339844 C 74.125 200.339844 93.949219 180.519531 93.949219 156.152344 C 93.949219 131.785156 74.125 111.964844 49.757812 111.964844 Z M 49.757812 111.964844 " fill-opacity="1" fill-rule="nonzero"/></g><path fill="#e2eaff" d="M 73.507812 199.0625 C 72.074219 199.0625 70.910156 197.902344 70.910156 196.46875 L 70.910156 184.421875 C 70.910156 176.328125 66.160156 168.832031 58.808594 165.316406 C 57.515625 164.699219 56.964844 163.144531 57.582031 161.851562 C 58.203125 160.558594 59.753906 160.015625 61.046875 160.628906 C 70.195312 165 76.101562 174.339844 76.101562 184.417969 L 76.101562 196.460938 C 76.101562 197.902344 74.945312 199.0625 73.507812 199.0625 Z M 26 199.0625 C 24.566406 199.0625 23.40625 197.902344 23.40625 196.46875 L 23.40625 184.421875 C 23.40625 174.339844 29.3125 165.003906 38.460938 160.632812 C 39.753906 160.015625 41.308594 160.558594 41.925781 161.859375 C 42.542969 163.152344 41.996094 164.703125 40.699219 165.320312 C 33.347656 168.835938 28.597656 176.332031 28.597656 184.429688 L 28.597656 196.472656 C 28.597656 197.902344 27.441406 199.0625 26 199.0625 Z M 26 199.0625 " fill-opacity="1" fill-rule="nonzero"/><path fill="#e2eaff" d="M 49.753906 168.230469 C 36.863281 168.230469 26.375 157.742188 26.375 144.851562 C 26.375 131.957031 36.863281 121.46875 49.753906 121.46875 C 62.644531 121.46875 73.132812 131.957031 73.132812 144.851562 C 73.132812 157.742188 62.644531 168.230469 49.753906 168.230469 Z M 49.753906 126.664062 C 39.730469 126.664062 31.566406 134.820312 31.566406 144.851562 C 31.566406 154.878906 39.722656 163.035156 49.753906 163.035156 C 59.78125 163.035156 67.941406 154.878906 67.941406 144.851562 C 67.941406 134.820312 59.785156 126.664062 49.753906 126.664062 Z M 49.753906 126.664062 " fill-opacity="1" fill-rule="nonzero"/><g clip-path="url(#ee21720ff7)"><path fill="#e2eaff" d="M 180.476562 205.539062 C 153.246094 205.539062 131.097656 183.382812 131.097656 156.15625 C 131.097656 128.929688 153.25 106.777344 180.476562 106.777344 C 207.703125 106.777344 229.855469 128.929688 229.855469 156.15625 C 229.855469 183.382812 207.703125 205.539062 180.476562 205.539062 Z M 180.476562 111.964844 C 156.109375 111.964844 136.289062 131.785156 136.289062 156.152344 C 136.289062 180.519531 156.109375 200.339844 180.476562 200.339844 C 204.84375 200.339844 224.664062 180.519531 224.664062 156.152344 C 224.664062 131.785156 204.84375 111.964844 180.476562 111.964844 Z M 180.476562 111.964844 " fill-opacity="1" fill-rule="nonzero"/></g><path fill="#e2eaff" d="M 49.753906 111.964844 C 48.320312 111.964844 47.160156 110.800781 47.160156 109.367188 L 47.160156 59.011719 C 47.160156 52.460938 52.492188 47.128906 59.042969 47.128906 L 68.332031 47.128906 C 69.765625 47.128906 70.925781 48.289062 70.925781 49.722656 C 70.925781 51.15625 69.765625 52.320312 68.332031 52.320312 L 59.042969 52.320312 C 55.355469 52.320312 52.351562 55.320312 52.351562 59.011719 L 52.351562 109.367188 C 52.351562 110.800781 51.191406 111.964844 49.753906 111.964844 Z M 49.753906 111.964844 " fill-opacity="1" fill-rule="nonzero"/><path fill="#e2eaff" d="M 180.476562 111.964844 C 179.042969 111.964844 177.882812 110.800781 177.882812 109.367188 L 177.882812 59.011719 C 177.882812 55.324219 174.878906 52.320312 171.1875 52.320312 L 161.90625 52.320312 C 160.472656 52.320312 159.308594 51.15625 159.308594 49.722656 C 159.308594 48.289062 160.472656 47.128906 161.90625 47.128906 L 171.1875 47.128906 C 177.742188 47.128906 183.074219 52.460938 183.074219 59.011719 L 183.074219 109.367188 C 183.074219 110.800781 181.910156 111.964844 180.476562 111.964844 Z M 180.476562 111.964844 " fill-opacity="1" fill-rule="nonzero"/><path fill="#e2eaff" d="M 204.230469 199.0625 C 202.796875 199.0625 201.632812 197.902344 201.632812 196.46875 L 201.632812 184.421875 C 201.632812 176.328125 196.882812 168.832031 189.53125 165.316406 C 188.238281 164.699219 187.6875 163.144531 188.304688 161.851562 C 188.925781 160.558594 190.472656 160.011719 191.769531 160.628906 C 200.917969 165 206.824219 174.339844 206.824219 184.417969 L 206.824219 196.460938 C 206.824219 197.902344 205.664062 199.0625 204.230469 199.0625 Z M 156.722656 199.0625 C 155.289062 199.0625 154.128906 197.902344 154.128906 196.46875 L 154.128906 184.421875 C 154.128906 174.339844 160.035156 165.003906 169.183594 160.632812 C 170.476562 160.015625 172.03125 160.558594 172.648438 161.859375 C 173.265625 163.152344 172.71875 164.703125 171.421875 165.320312 C 164.070312 168.835938 159.320312 176.332031 159.320312 184.429688 L 159.320312 196.472656 C 159.320312 197.902344 158.15625 199.0625 156.722656 199.0625 Z M 156.722656 199.0625 " fill-opacity="1" fill-rule="nonzero"/><path fill="#e2eaff" d="M 180.472656 168.230469 C 167.582031 168.230469 157.09375 157.742188 157.09375 144.851562 C 157.09375 131.957031 167.582031 121.46875 180.472656 121.46875 C 193.363281 121.46875 203.851562 131.957031 203.851562 144.851562 C 203.851562 157.742188 193.363281 168.230469 180.472656 168.230469 Z M 180.472656 126.664062 C 170.445312 126.664062 162.285156 134.820312 162.285156 144.851562 C 162.285156 154.878906 170.441406 163.035156 180.472656 163.035156 C 190.503906 163.035156 198.660156 154.878906 198.660156 144.851562 C 198.660156 134.820312 190.503906 126.664062 180.472656 126.664062 Z M 180.472656 126.664062 " fill-opacity="1" fill-rule="nonzero"/><path fill="#e2eaff" d="M 138.867188 92.632812 C 137.4375 92.632812 136.273438 91.472656 136.273438 90.039062 L 136.273438 77.992188 C 136.273438 69.898438 131.523438 62.402344 124.171875 58.886719 C 122.878906 58.269531 122.328125 56.714844 122.945312 55.425781 C 123.5625 54.132812 125.109375 53.582031 126.40625 54.199219 C 135.554688 58.570312 141.464844 67.910156 141.464844 77.988281 L 141.464844 90.035156 C 141.464844 91.472656 140.300781 92.632812 138.867188 92.632812 Z M 91.363281 92.632812 C 89.929688 92.632812 88.765625 91.472656 88.765625 90.039062 L 88.765625 77.992188 C 88.765625 67.910156 94.675781 58.574219 103.824219 54.203125 C 105.117188 53.585938 106.667969 54.132812 107.285156 55.429688 C 107.902344 56.726562 107.359375 58.273438 106.0625 58.890625 C 98.710938 62.40625 93.957031 69.902344 93.957031 78 L 93.957031 90.042969 C 93.957031 91.472656 92.796875 92.632812 91.363281 92.632812 Z M 91.363281 92.632812 " fill-opacity="1" fill-rule="nonzero"/><path fill="#e2eaff" d="M 115.117188 61.800781 C 102.222656 61.800781 91.738281 51.3125 91.738281 38.421875 C 91.738281 25.527344 102.222656 15.039062 115.117188 15.039062 C 128.007812 15.039062 138.496094 25.527344 138.496094 38.421875 C 138.496094 51.3125 128.007812 61.800781 115.117188 61.800781 Z M 115.117188 20.234375 C 105.089844 20.234375 96.929688 28.390625 96.929688 38.421875 C 96.929688 48.445312 105.085938 56.609375 115.117188 56.609375 C 125.140625 56.609375 133.304688 48.449219 133.304688 38.421875 C 133.304688 28.390625 125.140625 20.234375 115.117188 20.234375 Z M 115.117188 20.234375 " fill-opacity="1" fill-rule="nonzero"/><g fill="#e2eaff" fill-opacity="1"><g transform="translate(191.670618, 201.336773)"><g><path d="M 1.03125 -1.25 C 1.03125 -1.738281 1.160156 -2.109375 1.421875 -2.359375 C 1.679688 -2.609375 2.0625 -2.734375 2.5625 -2.734375 C 3.050781 -2.734375 3.425781 -2.601562 3.6875 -2.34375 C 3.957031 -2.09375 4.09375 -1.726562 4.09375 -1.25 C 4.09375 -0.789062 3.957031 -0.425781 3.6875 -0.15625 C 3.414062 0.101562 3.039062 0.234375 2.5625 0.234375 C 2.070312 0.234375 1.691406 0.101562 1.421875 -0.15625 C 1.160156 -0.414062 1.03125 -0.78125 1.03125 -1.25 Z M 1.03125 -1.25 "/></g></g></g></svg>