<svg xmlns="http://www.w3.org/2000/svg" xmlns:xlink="http://www.w3.org/1999/xlink" width="308" zoomAndPan="magnify" viewBox="0 0 230.87999 216.749995" height="289" preserveAspectRatio="xMidYMid meet" version="1.0"><defs><g/><clipPath id="2adc0293be"><path d="M 5 34 L 230 34 L 230 215.992188 L 5 215.992188 Z M 5 34 " clip-rule="nonzero"/></clipPath><clipPath id="f97a1e8e99"><path d="M 0.0742188 0.238281 L 76 0.238281 L 76 76 L 0.0742188 76 Z M 0.0742188 0.238281 " clip-rule="nonzero"/></clipPath></defs><g clip-path="url(#2adc0293be)"><path fill="#e2eaff" d="M 229.949219 85.675781 C 229.898438 85.335938 229.804688 85.011719 229.667969 84.699219 L 229.667969 84.464844 L 200.058594 35.902344 C 199.84375 35.539062 199.5625 35.226562 199.21875 34.972656 C 198.863281 34.675781 198.460938 34.476562 198.011719 34.367188 C 197.699219 34.320312 197.390625 34.320312 197.078125 34.367188 L 90.132812 34.367188 C 89.628906 34.367188 89.140625 34.464844 88.671875 34.660156 C 88.203125 34.851562 87.792969 35.128906 87.433594 35.484375 C 87.074219 35.84375 86.800781 36.257812 86.605469 36.722656 C 86.414062 37.191406 86.316406 37.679688 86.316406 38.183594 C 86.320312 38.6875 86.421875 39.167969 86.621094 39.632812 C 86.816406 40.09375 87.09375 40.503906 87.449219 40.855469 C 87.808594 41.207031 88.21875 41.480469 88.683594 41.671875 C 89.148438 41.863281 89.632812 41.957031 90.132812 41.957031 L 189.117188 41.957031 L 157.691406 82.742188 L 127.335938 82.742188 C 126.828125 82.742188 126.339844 82.839844 125.871094 83.03125 C 125.40625 83.226562 124.992188 83.503906 124.632812 83.859375 C 124.277344 84.21875 124 84.632812 123.808594 85.097656 C 123.613281 85.566406 123.515625 86.054688 123.515625 86.558594 C 123.523438 87.0625 123.625 87.542969 123.820312 88.007812 C 124.015625 88.46875 124.292969 88.875 124.652344 89.230469 C 125.007812 89.582031 125.417969 89.855469 125.882812 90.046875 C 126.347656 90.234375 126.832031 90.332031 127.335938 90.332031 L 154.292969 90.332031 L 117.929688 200.441406 L 92.460938 123.15625 C 92.339844 122.777344 92.160156 122.425781 91.925781 122.101562 C 91.691406 121.78125 91.414062 121.503906 91.09375 121.269531 C 90.769531 121.035156 90.421875 120.855469 90.042969 120.734375 C 89.664062 120.609375 89.273438 120.546875 88.875 120.546875 C 88.472656 120.503906 88.070312 120.503906 87.667969 120.546875 C 87.203125 120.707031 86.789062 120.945312 86.421875 121.265625 C 86.050781 121.585938 85.753906 121.960938 85.527344 122.394531 C 85.304688 122.828125 85.167969 123.285156 85.117188 123.769531 C 85.070312 124.257812 85.109375 124.734375 85.246094 125.203125 L 108.292969 195.042969 L 12.519531 84.046875 C 12.195312 83.660156 11.808594 83.351562 11.359375 83.121094 C 10.910156 82.890625 10.433594 82.753906 9.929688 82.714844 C 9.429688 82.675781 8.9375 82.734375 8.457031 82.894531 C 7.976562 83.050781 7.546875 83.296875 7.167969 83.625 C 6.824219 83.949219 6.554688 84.324219 6.351562 84.746094 C 6.148438 85.171875 6.027344 85.617188 5.988281 86.085938 C 5.949219 86.550781 5.996094 87.011719 6.125 87.464844 C 6.257812 87.914062 6.464844 88.328125 6.746094 88.703125 L 115.042969 215.109375 C 115.3125 215.394531 115.625 215.625 115.972656 215.804688 L 116.300781 215.804688 C 116.757812 216.011719 117.242188 216.117188 117.742188 216.132812 C 118.230469 216.125 118.699219 216.015625 119.140625 215.804688 L 119.511719 215.804688 C 119.851562 215.613281 120.164062 215.378906 120.441406 215.109375 L 229.109375 88.703125 C 229.296875 88.414062 229.4375 88.101562 229.53125 87.769531 C 229.558594 87.660156 229.558594 87.554688 229.53125 87.445312 C 229.625 87.011719 229.625 86.574219 229.53125 86.140625 Z M 196.472656 44.609375 L 219.472656 82.460938 L 167.28125 82.460938 Z M 162.300781 90.050781 L 218.167969 90.050781 L 127.519531 195.785156 Z M 162.300781 90.050781 " fill-opacity="1" fill-rule="nonzero"/></g><path fill="#e2eaff" d="M 71.929688 59.507812 C 71.507812 60.875 71.003906 62.207031 70.417969 63.511719 C 69.835938 64.816406 69.171875 66.078125 68.433594 67.304688 C 67.695312 68.527344 66.886719 69.703125 66.007812 70.828125 C 65.125 71.953125 64.179688 73.019531 63.171875 74.03125 C 62.160156 75.039062 61.09375 75.984375 59.96875 76.867188 C 58.84375 77.746094 57.667969 78.554688 56.445312 79.292969 C 55.21875 80.03125 53.957031 80.695312 52.652344 81.277344 C 51.347656 81.863281 50.015625 82.367188 48.648438 82.789062 C 48.261719 82.910156 47.90625 83.085938 47.574219 83.320312 C 47.246094 83.558594 46.960938 83.839844 46.722656 84.164062 C 46.484375 84.492188 46.300781 84.847656 46.175781 85.234375 C 46.054688 85.621094 45.992188 86.015625 45.996094 86.421875 C 45.996094 86.824219 46.058594 87.21875 46.183594 87.601562 C 46.3125 87.988281 46.492188 88.34375 46.730469 88.667969 C 46.96875 88.996094 47.253906 89.277344 47.582031 89.511719 C 47.910156 89.75 48.265625 89.929688 48.648438 90.050781 C 50.015625 90.472656 51.351562 90.972656 52.65625 91.558594 C 53.960938 92.140625 55.226562 92.800781 56.449219 93.539062 C 57.671875 94.277344 58.847656 95.085938 59.972656 95.964844 C 61.101562 96.847656 62.167969 97.792969 63.179688 98.800781 C 64.191406 99.8125 65.136719 100.878906 66.015625 102.007812 C 66.894531 103.132812 67.703125 104.308594 68.441406 105.53125 C 69.179688 106.757812 69.839844 108.019531 70.421875 109.324219 C 71.007812 110.628906 71.507812 111.964844 71.929688 113.332031 C 72.046875 113.71875 72.222656 114.078125 72.453125 114.40625 C 72.6875 114.738281 72.96875 115.023438 73.292969 115.265625 C 73.617188 115.503906 73.972656 115.6875 74.355469 115.816406 C 74.738281 115.941406 75.132812 116.003906 75.539062 116.003906 C 75.941406 116.003906 76.335938 115.941406 76.71875 115.816406 C 77.105469 115.6875 77.457031 115.503906 77.785156 115.265625 C 78.109375 115.023438 78.386719 114.738281 78.621094 114.40625 C 78.851562 114.078125 79.027344 113.71875 79.144531 113.332031 C 79.566406 111.964844 80.066406 110.628906 80.648438 109.324219 C 81.230469 108.015625 81.886719 106.75 82.625 105.527344 C 83.363281 104.300781 84.171875 103.125 85.050781 102 C 85.929688 100.871094 86.875 99.804688 87.886719 98.792969 C 88.898438 97.78125 89.964844 96.835938 91.09375 95.957031 C 92.21875 95.078125 93.394531 94.269531 94.621094 93.53125 C 95.84375 92.792969 97.109375 92.136719 98.417969 91.554688 C 99.722656 90.972656 101.058594 90.46875 102.425781 90.050781 C 102.808594 89.929688 103.167969 89.75 103.496094 89.511719 C 103.820312 89.277344 104.105469 88.996094 104.34375 88.667969 C 104.582031 88.34375 104.765625 87.988281 104.890625 87.601562 C 105.015625 87.21875 105.078125 86.824219 105.078125 86.421875 C 105.082031 86.015625 105.023438 85.621094 104.898438 85.234375 C 104.773438 84.847656 104.589844 84.492188 104.351562 84.164062 C 104.113281 83.839844 103.828125 83.558594 103.5 83.320312 C 103.171875 83.085938 102.8125 82.910156 102.425781 82.789062 C 101.058594 82.367188 99.726562 81.863281 98.421875 81.277344 C 97.117188 80.695312 95.855469 80.03125 94.632812 79.292969 C 93.40625 78.554688 92.234375 77.746094 91.109375 76.867188 C 89.984375 75.984375 88.914062 75.039062 87.90625 74.03125 C 86.894531 73.019531 85.949219 71.953125 85.066406 70.828125 C 84.1875 69.703125 83.378906 68.527344 82.640625 67.304688 C 81.902344 66.078125 81.242188 64.816406 80.65625 63.511719 C 80.070312 62.207031 79.566406 60.875 79.144531 59.507812 C 79.027344 59.121094 78.851562 58.761719 78.621094 58.433594 C 78.386719 58.101562 78.109375 57.816406 77.785156 57.578125 C 77.457031 57.335938 77.105469 57.152344 76.71875 57.023438 C 76.335938 56.898438 75.941406 56.835938 75.539062 56.835938 C 75.132812 56.835938 74.738281 56.898438 74.355469 57.023438 C 73.972656 57.152344 73.617188 57.335938 73.292969 57.578125 C 72.96875 57.816406 72.6875 58.101562 72.453125 58.433594 C 72.222656 58.761719 72.046875 59.121094 71.929688 59.507812 Z M 75.515625 70.078125 C 77.429688 73.4375 79.753906 76.480469 82.488281 79.214844 C 85.21875 81.949219 88.265625 84.273438 91.625 86.1875 C 88.261719 88.097656 85.210938 90.417969 82.476562 93.152344 C 79.746094 95.886719 77.421875 98.933594 75.515625 102.296875 C 73.621094 98.929688 71.3125 95.878906 68.585938 93.144531 C 65.855469 90.410156 62.8125 88.089844 59.453125 86.1875 C 62.808594 84.277344 65.847656 81.957031 68.574219 79.222656 C 71.300781 76.488281 73.613281 73.441406 75.515625 70.078125 Z M 75.515625 70.078125 " fill-opacity="1" fill-rule="nonzero"/><g clip-path="url(#f97a1e8e99)"><path fill="#e2eaff" d="M 34.171875 72.871094 C 34.289062 73.257812 34.46875 73.617188 34.703125 73.945312 C 34.9375 74.277344 35.21875 74.558594 35.546875 74.800781 C 35.875 75.039062 36.230469 75.21875 36.617188 75.34375 C 37 75.46875 37.398438 75.527344 37.800781 75.527344 C 38.203125 75.519531 38.597656 75.457031 38.980469 75.328125 C 39.363281 75.203125 39.71875 75.019531 40.042969 74.78125 C 40.367188 74.542969 40.652344 74.261719 40.886719 73.933594 C 41.125 73.609375 41.308594 73.253906 41.433594 72.871094 C 42.003906 71.035156 42.679688 69.238281 43.46875 67.484375 C 44.253906 65.730469 45.144531 64.027344 46.140625 62.382812 C 47.132812 60.734375 48.222656 59.15625 49.40625 57.640625 C 50.59375 56.128906 51.867188 54.691406 53.226562 53.332031 C 54.585938 51.96875 56.023438 50.699219 57.535156 49.511719 C 59.050781 48.328125 60.632812 47.238281 62.277344 46.242188 C 63.925781 45.25 65.625 44.359375 67.378906 43.574219 C 69.132812 42.785156 70.929688 42.105469 72.765625 41.539062 C 73.148438 41.410156 73.503906 41.230469 73.832031 40.992188 C 74.15625 40.753906 74.4375 40.472656 74.675781 40.148438 C 74.914062 39.820312 75.097656 39.46875 75.222656 39.085938 C 75.351562 38.703125 75.417969 38.308594 75.421875 37.90625 C 75.425781 37.5 75.363281 37.105469 75.238281 36.71875 C 75.117188 36.335938 74.933594 35.976562 74.695312 35.652344 C 74.457031 35.324219 74.171875 35.042969 73.84375 34.808594 C 73.511719 34.570312 73.152344 34.394531 72.765625 34.273438 C 70.929688 33.703125 69.132812 33.023438 67.378906 32.234375 C 65.621094 31.445312 63.921875 30.550781 62.273438 29.554688 C 60.628906 28.5625 59.046875 27.46875 57.53125 26.28125 C 56.019531 25.09375 54.582031 23.820312 53.222656 22.457031 C 51.863281 21.097656 50.589844 19.65625 49.402344 18.140625 C 48.21875 16.625 47.128906 15.042969 46.136719 13.394531 C 45.144531 11.746094 44.253906 10.042969 43.464844 8.285156 C 42.679688 6.53125 42 4.734375 41.433594 2.894531 C 41.308594 2.511719 41.125 2.15625 40.886719 1.832031 C 40.652344 1.503906 40.367188 1.222656 40.042969 0.984375 C 39.71875 0.746094 39.363281 0.5625 38.980469 0.4375 C 38.597656 0.308594 38.203125 0.242188 37.800781 0.238281 C 37.398438 0.238281 37 0.296875 36.617188 0.421875 C 36.230469 0.546875 35.875 0.726562 35.546875 0.964844 C 35.21875 1.207031 34.9375 1.488281 34.703125 1.820312 C 34.46875 2.148438 34.289062 2.507812 34.171875 2.894531 C 33.601562 4.734375 32.921875 6.53125 32.132812 8.289062 C 31.34375 10.046875 30.449219 11.75 29.457031 13.398438 C 28.460938 15.046875 27.367188 16.628906 26.179688 18.144531 C 24.996094 19.660156 23.71875 21.101562 22.359375 22.460938 C 20.996094 23.824219 19.558594 25.097656 18.039062 26.285156 C 16.523438 27.472656 14.941406 28.5625 13.292969 29.558594 C 11.644531 30.554688 9.941406 31.445312 8.183594 32.234375 C 6.425781 33.023438 4.628906 33.703125 2.789062 34.273438 C 2.402344 34.394531 2.042969 34.570312 1.714844 34.808594 C 1.386719 35.042969 1.101562 35.324219 0.863281 35.652344 C 0.625 35.976562 0.441406 36.335938 0.316406 36.71875 C 0.191406 37.105469 0.132812 37.5 0.136719 37.90625 C 0.140625 38.308594 0.207031 38.703125 0.332031 39.085938 C 0.460938 39.46875 0.640625 39.820312 0.878906 40.148438 C 1.117188 40.472656 1.398438 40.753906 1.726562 40.992188 C 2.050781 41.230469 2.40625 41.410156 2.789062 41.539062 C 4.628906 42.105469 6.425781 42.785156 8.183594 43.570312 C 9.9375 44.355469 11.640625 45.246094 13.289062 46.242188 C 14.9375 47.234375 16.519531 48.324219 18.035156 49.507812 C 19.550781 50.691406 20.992188 51.964844 22.351562 53.324219 C 23.714844 54.683594 24.988281 56.121094 26.175781 57.636719 C 27.363281 59.152344 28.457031 60.730469 29.453125 62.378906 C 30.449219 64.027344 31.339844 65.726562 32.128906 67.480469 C 32.917969 69.238281 33.597656 71.035156 34.171875 72.871094 Z M 14.101562 37.90625 C 16.625 36.597656 19.035156 35.101562 21.328125 33.421875 C 23.621094 31.742188 25.773438 29.898438 27.78125 27.886719 C 29.792969 25.875 31.636719 23.726562 33.316406 21.433594 C 34.996094 19.136719 36.492188 16.730469 37.800781 14.207031 C 39.113281 16.753906 40.609375 19.183594 42.296875 21.496094 C 43.984375 23.8125 45.835938 25.980469 47.859375 28.007812 C 49.882812 30.035156 52.046875 31.890625 54.359375 33.582031 C 56.667969 35.273438 59.097656 36.777344 61.640625 38.09375 C 59.09375 39.398438 56.667969 40.894531 54.355469 42.582031 C 52.042969 44.265625 49.875 46.121094 47.851562 48.144531 C 45.828125 50.164062 43.976562 52.332031 42.289062 54.644531 C 40.605469 56.957031 39.109375 59.386719 37.800781 61.929688 C 36.507812 59.375 35.023438 56.9375 33.351562 54.613281 C 31.675781 52.289062 29.835938 50.109375 27.824219 48.070312 C 25.8125 46.035156 23.65625 44.160156 21.359375 42.457031 C 19.058594 40.753906 16.640625 39.234375 14.101562 37.90625 Z M 14.101562 37.90625 " fill-opacity="1" fill-rule="nonzero"/></g><g fill="#e2eaff" fill-opacity="1"><g transform="translate(155.893329, 165.259379)"><g><path d="M 1.03125 -1.25 C 1.03125 -1.75 1.160156 -2.125 1.421875 -2.375 C 1.679688 -2.625 2.066406 -2.75 2.578125 -2.75 C 3.054688 -2.75 3.425781 -2.617188 3.6875 -2.359375 C 3.957031 -2.097656 4.09375 -1.726562 4.09375 -1.25 C 4.09375 -0.789062 3.957031 -0.425781 3.6875 -0.15625 C 3.425781 0.101562 3.054688 0.234375 2.578125 0.234375 C 2.078125 0.234375 1.691406 0.101562 1.421875 -0.15625 C 1.160156 -0.414062 1.03125 -0.78125 1.03125 -1.25 Z M 1.03125 -1.25 "/></g></g></g></svg>