<svg xmlns="http://www.w3.org/2000/svg" xmlns:xlink="http://www.w3.org/1999/xlink" width="308" zoomAndPan="magnify" viewBox="0 0 230.87999 194.249992" height="259" preserveAspectRatio="xMidYMid meet" version="1.0"><defs><g/><clipPath id="d86deb3e65"><path d="M 125 0.300781 L 160 0.300781 L 160 35 L 125 35 Z M 125 0.300781 " clip-rule="nonzero"/></clipPath><clipPath id="3a6a6683fe"><path d="M 2 35 L 230.347656 35 L 230.347656 193.054688 L 2 193.054688 Z M 2 35 " clip-rule="nonzero"/></clipPath></defs><g clip-path="url(#d86deb3e65)"><path fill="#2c61b6" d="M 125.574219 17.335938 C 125.574219 26.726562 133.214844 34.367188 142.609375 34.367188 C 152 34.367188 159.644531 26.726562 159.644531 17.335938 C 159.644531 7.941406 152 0.300781 142.609375 0.300781 C 133.214844 0.300781 125.574219 7.941406 125.574219 17.335938 Z M 154.582031 17.335938 C 154.582031 23.9375 149.210938 29.308594 142.609375 29.308594 C 136.007812 29.308594 130.636719 23.933594 130.636719 17.335938 C 130.636719 10.730469 136.007812 5.359375 142.609375 5.359375 C 149.210938 5.359375 154.582031 10.730469 154.582031 17.335938 Z M 154.582031 17.335938 " fill-opacity="1" fill-rule="nonzero"/></g><path fill="#2c61b6" d="M 166.691406 29.683594 C 166.691406 39.078125 174.335938 46.71875 183.726562 46.71875 C 193.121094 46.71875 200.761719 39.078125 200.761719 29.683594 C 200.761719 20.289062 193.121094 12.648438 183.726562 12.648438 C 174.335938 12.648438 166.691406 20.289062 166.691406 29.683594 Z M 183.726562 17.707031 C 190.328125 17.707031 195.699219 23.078125 195.699219 29.683594 C 195.699219 36.285156 190.328125 41.65625 183.726562 41.65625 C 177.125 41.65625 171.753906 36.285156 171.753906 29.683594 C 171.753906 23.078125 177.125 17.707031 183.726562 17.707031 Z M 183.726562 17.707031 " fill-opacity="1" fill-rule="nonzero"/><path fill="#2c61b6" d="M 84.457031 31.835938 C 84.457031 41.230469 92.101562 48.871094 101.492188 48.871094 C 110.886719 48.871094 118.527344 41.230469 118.527344 31.835938 C 118.527344 22.445312 110.886719 14.804688 101.492188 14.804688 C 92.101562 14.804688 84.457031 22.445312 84.457031 31.835938 Z M 113.464844 31.835938 C 113.464844 38.441406 108.09375 43.8125 101.492188 43.8125 C 94.890625 43.8125 89.519531 38.441406 89.519531 31.835938 C 89.519531 25.234375 94.890625 19.863281 101.492188 19.863281 C 108.09375 19.863281 113.464844 25.234375 113.464844 31.835938 Z M 113.464844 31.835938 " fill-opacity="1" fill-rule="nonzero"/><g clip-path="url(#3a6a6683fe)"><path fill="#2c61b6" d="M 209.9375 60.617188 C 209.019531 60.792969 208.136719 61.050781 207.269531 61.34375 C 204.914062 53.222656 197.445312 47.429688 188.707031 47.429688 L 178.738281 47.429688 C 174.320312 47.429688 170.085938 49 166.710938 51.691406 C 165.375 42.316406 157.320312 35.074219 147.582031 35.074219 L 137.640625 35.074219 C 127.214844 35.074219 118.714844 43.367188 118.332031 53.699219 C 114.984375 51.09375 110.820312 49.589844 106.480469 49.589844 L 96.511719 49.589844 C 85.859375 49.589844 77.195312 58.253906 77.195312 68.902344 L 77.195312 77.292969 C 74.835938 78.34375 72.640625 79.777344 70.730469 81.601562 L 51.183594 100.292969 C 48.660156 98.722656 45.746094 97.871094 42.679688 97.871094 C 38.425781 97.871094 34.417969 99.5 31.394531 102.457031 L 7.519531 125.824219 C 1.164062 132.050781 1.054688 142.289062 7.273438 148.644531 L 46.042969 188.253906 C 49.097656 191.375 53.191406 193.089844 57.578125 193.089844 C 61.835938 193.089844 65.84375 191.460938 68.863281 188.5 L 92.738281 165.132812 C 95.808594 162.128906 97.527344 158.09375 97.570312 153.773438 C 97.601562 150.757812 96.804688 147.878906 95.3125 145.363281 L 97.367188 143.824219 C 102.285156 140.199219 108.324219 138.203125 114.375 138.203125 L 151.175781 138.203125 C 157.824219 138.203125 164.414062 136.484375 170.234375 133.234375 C 172.253906 132.101562 174.035156 130.886719 175.671875 129.542969 L 195.96875 113.121094 C 196.796875 112.59375 197.613281 111.925781 198.472656 111.09375 L 198.519531 111.058594 C 198.523438 111.054688 198.527344 111.046875 198.53125 111.042969 C 198.609375 110.964844 198.683594 110.910156 198.761719 110.832031 L 227.632812 80.050781 C 229.433594 78.125 230.382812 75.703125 230.382812 73.046875 C 230.382812 70.289062 229.238281 67.582031 227.195312 65.582031 C 222.621094 61.316406 216.183594 59.460938 209.9375 60.617188 Z M 178.738281 52.488281 L 188.707031 52.488281 C 195.480469 52.488281 201.171875 57.21875 202.589844 63.679688 C 201.378906 64.5 200.222656 65.40625 199.210938 66.488281 L 185.289062 81.363281 L 171.386719 89.757812 C 171.042969 89.316406 170.722656 88.863281 170.320312 88.460938 C 169.3125 87.453125 168.148438 86.675781 166.925781 86.03125 L 166.925781 58.839844 C 169.539062 54.917969 173.996094 52.488281 178.738281 52.488281 Z M 137.640625 40.132812 L 147.582031 40.132812 C 155.457031 40.132812 161.863281 46.542969 161.863281 54.417969 L 161.863281 84.523438 C 161.417969 84.480469 160.980469 84.390625 160.527344 84.390625 C 160.527344 84.390625 160.523438 84.390625 160.523438 84.390625 L 129.589844 84.402344 C 129.585938 84.402344 129.585938 84.402344 129.582031 84.402344 C 128.710938 84.402344 127.871094 84.132812 127.152344 83.628906 L 123.355469 80.945312 L 123.355469 54.417969 C 123.355469 46.542969 129.761719 40.132812 137.640625 40.132812 Z M 82.253906 68.90625 C 82.253906 61.042969 88.648438 54.648438 96.507812 54.648438 L 106.480469 54.648438 C 111.222656 54.648438 115.679688 57.074219 118.292969 60.996094 L 118.292969 77.703125 C 115.167969 76.15625 111.683594 75.320312 108.195312 75.320312 L 86.425781 75.320312 C 85.011719 75.320312 83.617188 75.457031 82.253906 75.710938 Z M 89.199219 161.515625 L 65.324219 184.882812 C 63.25 186.910156 60.5 188.027344 57.578125 188.027344 C 54.5625 188.027344 51.75 186.855469 49.660156 184.71875 L 10.890625 145.109375 C 6.617188 140.742188 6.695312 133.714844 11.054688 129.445312 L 34.929688 106.074219 C 37.003906 104.046875 39.753906 102.933594 42.679688 102.933594 C 45.691406 102.933594 48.503906 104.109375 50.59375 106.242188 L 89.367188 145.851562 C 91.425781 147.957031 92.542969 150.75 92.511719 153.71875 C 92.480469 156.6875 91.300781 159.457031 89.199219 161.515625 Z M 223.9375 76.589844 L 195.203125 107.230469 L 172.46875 125.625 C 171.054688 126.792969 169.511719 127.835938 167.761719 128.820312 C 162.695312 131.648438 156.960938 133.140625 151.171875 133.140625 L 114.371094 133.140625 C 107.253906 133.140625 100.144531 135.488281 94.34375 139.765625 L 92.121094 141.433594 L 55.066406 103.578125 L 74.222656 85.261719 C 76.082031 83.484375 78.28125 82.175781 80.660156 81.359375 C 80.683594 81.347656 80.707031 81.34375 80.730469 81.335938 C 82.542969 80.71875 84.457031 80.382812 86.421875 80.382812 L 108.195312 80.382812 C 111.808594 80.382812 115.421875 81.53125 118.371094 83.625 L 124.238281 87.761719 C 125.8125 88.875 127.660156 89.460938 129.578125 89.460938 C 129.585938 89.460938 129.589844 89.460938 129.59375 89.460938 L 160.523438 89.449219 C 160.523438 89.449219 160.523438 89.449219 160.527344 89.449219 C 162.867188 89.449219 165.078125 90.371094 166.742188 92.039062 C 168.417969 93.707031 169.335938 95.917969 169.335938 98.257812 C 169.335938 103.117188 165.382812 107.070312 160.523438 107.070312 L 122.539062 107.070312 C 121.140625 107.070312 120.007812 108.199219 120.007812 109.597656 C 120.007812 110.996094 121.140625 112.128906 122.539062 112.128906 L 160.523438 112.128906 C 168.175781 112.128906 174.394531 105.90625 174.394531 98.257812 C 174.394531 96.875 174.128906 95.542969 173.738281 94.25 L 188.183594 85.527344 C 188.269531 85.476562 188.316406 85.394531 188.394531 85.335938 C 188.503906 85.253906 188.628906 85.203125 188.726562 85.097656 L 202.910156 69.941406 C 205.011719 67.6875 207.769531 66.183594 210.875 65.589844 C 215.53125 64.722656 220.335938 66.105469 223.699219 69.242188 C 224.730469 70.25 225.324219 71.640625 225.324219 73.046875 C 225.324219 74.417969 224.855469 75.609375 223.9375 76.589844 Z M 223.9375 76.589844 " fill-opacity="1" fill-rule="nonzero"/></g><g fill="#2c61b6" fill-opacity="1"><g transform="translate(51.188072, 107.958164)"><g><path d="M 1.03125 -1.25 C 1.03125 -1.738281 1.160156 -2.109375 1.421875 -2.359375 C 1.679688 -2.609375 2.0625 -2.734375 2.5625 -2.734375 C 3.050781 -2.734375 3.425781 -2.601562 3.6875 -2.34375 C 3.957031 -2.09375 4.09375 -1.726562 4.09375 -1.25 C 4.09375 -0.789062 3.957031 -0.425781 3.6875 -0.15625 C 3.414062 0.101562 3.039062 0.234375 2.5625 0.234375 C 2.070312 0.234375 1.691406 0.101562 1.421875 -0.15625 C 1.160156 -0.414062 1.03125 -0.78125 1.03125 -1.25 Z M 1.03125 -1.25 "/></g></g></g></svg>