<svg xmlns="http://www.w3.org/2000/svg" xmlns:xlink="http://www.w3.org/1999/xlink" width="272" zoomAndPan="magnify" viewBox="0 0 204 209.999996" height="280" preserveAspectRatio="xMidYMid meet" version="1.0"><defs><g/><clipPath id="777c1d4f62"><path d="M 0 0.328125 L 203 0.328125 L 203 203.578125 L 0 203.578125 Z M 0 0.328125 " clip-rule="nonzero"/></clipPath></defs><g clip-path="url(#777c1d4f62)"><path fill="#e2eaff" d="M 68.53125 0.546875 C 67.402344 0.585938 66.429688 1 65.617188 1.785156 L 1.78125 63.421875 C 1.464844 63.726562 1.203125 64.070312 0.992188 64.453125 C 0.777344 64.835938 0.628906 65.242188 0.535156 65.671875 C 0.445312 66.101562 0.417969 66.535156 0.457031 66.96875 C 0.496094 67.40625 0.597656 67.828125 0.761719 68.234375 C 0.925781 68.640625 1.148438 69.015625 1.421875 69.355469 C 1.699219 69.695312 2.019531 69.988281 2.382812 70.234375 C 2.746094 70.480469 3.136719 70.664062 3.554688 70.792969 C 3.976562 70.921875 4.402344 70.988281 4.84375 70.988281 L 31.257812 70.988281 L 31.257812 167.839844 C 31.257812 168.128906 31.285156 168.414062 31.339844 168.699219 C 31.398438 168.980469 31.480469 169.257812 31.59375 169.523438 C 31.703125 169.789062 31.839844 170.042969 32 170.285156 C 32.160156 170.523438 32.34375 170.746094 32.546875 170.953125 C 32.75 171.15625 32.972656 171.339844 33.214844 171.5 C 33.453125 171.660156 33.707031 171.796875 33.976562 171.90625 C 34.242188 172.015625 34.515625 172.101562 34.800781 172.15625 C 35.085938 172.214844 35.371094 172.242188 35.660156 172.242188 L 79.683594 172.242188 C 79.976562 172.246094 80.265625 172.222656 80.550781 172.167969 C 80.835938 172.113281 81.117188 172.035156 81.386719 171.925781 C 81.65625 171.816406 81.914062 171.679688 82.160156 171.523438 C 82.402344 171.363281 82.628906 171.179688 82.835938 170.972656 C 83.042969 170.769531 83.230469 170.546875 83.394531 170.304688 C 83.554688 170.0625 83.695312 169.808594 83.808594 169.539062 C 83.917969 169.269531 84.003906 168.992188 84.0625 168.707031 C 84.121094 168.417969 84.148438 168.132812 84.148438 167.839844 C 84.148438 167.546875 84.121094 167.257812 84.0625 166.972656 C 84.003906 166.6875 83.917969 166.410156 83.808594 166.140625 C 83.695312 165.871094 83.554688 165.617188 83.394531 165.375 C 83.230469 165.132812 83.042969 164.910156 82.835938 164.703125 C 82.628906 164.5 82.402344 164.316406 82.160156 164.15625 C 81.914062 163.996094 81.65625 163.863281 81.386719 163.753906 C 81.117188 163.644531 80.835938 163.5625 80.550781 163.511719 C 80.265625 163.457031 79.976562 163.433594 79.683594 163.4375 L 40.0625 163.4375 L 40.0625 66.585938 C 40.0625 66.296875 40.035156 66.007812 39.976562 65.726562 C 39.921875 65.441406 39.835938 65.167969 39.726562 64.898438 C 39.617188 64.632812 39.480469 64.378906 39.320312 64.136719 C 39.160156 63.898438 38.976562 63.675781 38.773438 63.472656 C 38.566406 63.265625 38.34375 63.085938 38.105469 62.925781 C 37.863281 62.761719 37.609375 62.628906 37.34375 62.515625 C 37.078125 62.40625 36.800781 62.324219 36.519531 62.265625 C 36.234375 62.210938 35.949219 62.183594 35.660156 62.183594 L 15.738281 62.183594 L 68.675781 11.074219 L 121.617188 62.183594 L 101.695312 62.183594 C 101.40625 62.183594 101.121094 62.210938 100.835938 62.265625 C 100.554688 62.324219 100.277344 62.40625 100.011719 62.515625 C 99.742188 62.628906 99.488281 62.761719 99.25 62.925781 C 99.007812 63.085938 98.785156 63.265625 98.582031 63.472656 C 98.378906 63.675781 98.195312 63.898438 98.035156 64.136719 C 97.875 64.378906 97.738281 64.632812 97.628906 64.898438 C 97.515625 65.167969 97.433594 65.441406 97.378906 65.726562 C 97.320312 66.007812 97.292969 66.296875 97.292969 66.585938 L 97.292969 88.597656 C 97.289062 88.886719 97.3125 89.175781 97.367188 89.464844 C 97.421875 89.75 97.5 90.03125 97.609375 90.300781 C 97.71875 90.570312 97.851562 90.828125 98.011719 91.070312 C 98.171875 91.316406 98.355469 91.542969 98.558594 91.75 C 98.765625 91.957031 98.988281 92.144531 99.230469 92.304688 C 99.472656 92.46875 99.726562 92.609375 99.996094 92.71875 C 100.265625 92.832031 100.542969 92.917969 100.828125 92.976562 C 101.113281 93.03125 101.402344 93.0625 101.695312 93.0625 C 101.988281 93.0625 102.277344 93.03125 102.5625 92.976562 C 102.847656 92.917969 103.125 92.832031 103.394531 92.71875 C 103.664062 92.609375 103.917969 92.46875 104.160156 92.304688 C 104.402344 92.144531 104.625 91.957031 104.832031 91.75 C 105.035156 91.542969 105.21875 91.316406 105.378906 91.070312 C 105.539062 90.828125 105.671875 90.570312 105.78125 90.300781 C 105.890625 90.03125 105.96875 89.75 106.023438 89.464844 C 106.078125 89.175781 106.101562 88.886719 106.097656 88.597656 L 106.097656 70.988281 L 132.511719 70.988281 C 132.949219 70.988281 133.378906 70.921875 133.796875 70.792969 C 134.21875 70.664062 134.609375 70.480469 134.972656 70.234375 C 135.335938 69.988281 135.65625 69.695312 135.933594 69.355469 C 136.207031 69.015625 136.429688 68.640625 136.59375 68.234375 C 136.757812 67.828125 136.859375 67.40625 136.898438 66.96875 C 136.933594 66.535156 136.910156 66.101562 136.820312 65.671875 C 136.726562 65.242188 136.574219 64.835938 136.363281 64.453125 C 136.152344 64.070312 135.886719 63.726562 135.574219 63.421875 L 71.738281 1.785156 C 71.308594 1.371094 70.816406 1.054688 70.261719 0.839844 C 69.703125 0.625 69.128906 0.527344 68.53125 0.546875 Z M 123.707031 31.363281 C 123.414062 31.359375 123.125 31.386719 122.839844 31.4375 C 122.554688 31.492188 122.273438 31.574219 122.003906 31.683594 C 121.734375 31.789062 121.476562 31.925781 121.230469 32.085938 C 120.988281 32.246094 120.761719 32.425781 120.554688 32.632812 C 120.347656 32.835938 120.160156 33.058594 119.996094 33.300781 C 119.832031 33.542969 119.695312 33.800781 119.582031 34.066406 C 119.46875 34.335938 119.386719 34.613281 119.328125 34.902344 C 119.269531 35.1875 119.242188 35.476562 119.242188 35.765625 C 119.242188 36.058594 119.269531 36.347656 119.328125 36.632812 C 119.386719 36.921875 119.46875 37.199219 119.582031 37.464844 C 119.695312 37.734375 119.832031 37.992188 119.996094 38.234375 C 120.160156 38.476562 120.347656 38.699219 120.554688 38.902344 C 120.761719 39.109375 120.988281 39.289062 121.230469 39.449219 C 121.476562 39.609375 121.734375 39.742188 122.003906 39.851562 C 122.273438 39.960938 122.554688 40.042969 122.839844 40.097656 C 123.125 40.148438 123.414062 40.175781 123.707031 40.167969 L 163.328125 40.167969 L 163.328125 137.023438 C 163.328125 137.3125 163.355469 137.597656 163.414062 137.882812 C 163.46875 138.164062 163.554688 138.441406 163.664062 138.707031 C 163.773438 138.972656 163.910156 139.226562 164.070312 139.46875 C 164.230469 139.707031 164.414062 139.929688 164.617188 140.136719 C 164.824219 140.339844 165.046875 140.523438 165.285156 140.683594 C 165.527344 140.84375 165.78125 140.980469 166.046875 141.089844 C 166.3125 141.199219 166.589844 141.285156 166.871094 141.339844 C 167.15625 141.398438 167.441406 141.425781 167.730469 141.425781 L 187.652344 141.425781 L 134.714844 192.535156 L 81.773438 141.425781 L 101.695312 141.425781 C 101.984375 141.425781 102.269531 141.398438 102.554688 141.339844 C 102.835938 141.285156 103.113281 141.199219 103.378906 141.089844 C 103.648438 140.980469 103.902344 140.84375 104.140625 140.683594 C 104.382812 140.523438 104.605469 140.339844 104.808594 140.136719 C 105.011719 139.929688 105.195312 139.707031 105.355469 139.46875 C 105.515625 139.226562 105.652344 138.972656 105.761719 138.707031 C 105.875 138.441406 105.957031 138.164062 106.011719 137.882812 C 106.070312 137.597656 106.097656 137.3125 106.097656 137.023438 L 106.097656 115.011719 C 106.101562 114.71875 106.078125 114.429688 106.023438 114.144531 C 105.96875 113.855469 105.890625 113.578125 105.78125 113.308594 C 105.671875 113.035156 105.539062 112.777344 105.378906 112.535156 C 105.21875 112.289062 105.035156 112.066406 104.832031 111.855469 C 104.625 111.648438 104.402344 111.464844 104.160156 111.300781 C 103.917969 111.136719 103.664062 111 103.394531 110.886719 C 103.125 110.773438 102.847656 110.6875 102.5625 110.632812 C 102.277344 110.574219 101.988281 110.546875 101.695312 110.546875 C 101.402344 110.546875 101.113281 110.574219 100.828125 110.632812 C 100.542969 110.6875 100.265625 110.773438 99.996094 110.886719 C 99.726562 111 99.472656 111.136719 99.230469 111.300781 C 98.988281 111.464844 98.765625 111.648438 98.558594 111.855469 C 98.355469 112.066406 98.171875 112.289062 98.011719 112.535156 C 97.851562 112.777344 97.71875 113.035156 97.609375 113.308594 C 97.5 113.578125 97.421875 113.855469 97.367188 114.144531 C 97.3125 114.429688 97.289062 114.71875 97.292969 115.011719 L 97.292969 132.621094 L 70.878906 132.621094 C 70.441406 132.621094 70.011719 132.683594 69.59375 132.8125 C 69.171875 132.941406 68.78125 133.128906 68.417969 133.371094 C 68.054688 133.617188 67.734375 133.910156 67.457031 134.25 C 67.183594 134.59375 66.960938 134.964844 66.796875 135.371094 C 66.632812 135.777344 66.53125 136.199219 66.492188 136.636719 C 66.457031 137.074219 66.480469 137.507812 66.570312 137.933594 C 66.664062 138.363281 66.8125 138.769531 67.027344 139.152344 C 67.238281 139.539062 67.503906 139.882812 67.816406 140.1875 L 131.652344 201.820312 C 131.855469 202.015625 132.074219 202.191406 132.3125 202.347656 C 132.550781 202.5 132.800781 202.632812 133.0625 202.738281 C 133.324219 202.84375 133.59375 202.921875 133.871094 202.976562 C 134.148438 203.03125 134.429688 203.058594 134.714844 203.058594 C 134.996094 203.058594 135.277344 203.03125 135.554688 202.976562 C 135.832031 202.921875 136.101562 202.84375 136.363281 202.738281 C 136.625 202.632812 136.875 202.5 137.113281 202.347656 C 137.351562 202.191406 137.570312 202.015625 137.773438 201.820312 L 201.609375 140.1875 C 201.925781 139.882812 202.1875 139.539062 202.398438 139.152344 C 202.613281 138.769531 202.761719 138.363281 202.855469 137.933594 C 202.945312 137.507812 202.972656 137.074219 202.933594 136.636719 C 202.894531 136.199219 202.792969 135.777344 202.628906 135.371094 C 202.464844 134.964844 202.242188 134.59375 201.96875 134.25 C 201.691406 133.910156 201.371094 133.617188 201.007812 133.371094 C 200.644531 133.128906 200.253906 132.941406 199.835938 132.8125 C 199.414062 132.683594 198.988281 132.621094 198.546875 132.621094 L 172.132812 132.621094 L 172.132812 35.765625 C 172.132812 35.476562 172.105469 35.191406 172.050781 34.910156 C 171.992188 34.625 171.910156 34.351562 171.796875 34.082031 C 171.6875 33.816406 171.550781 33.5625 171.390625 33.320312 C 171.230469 33.082031 171.046875 32.859375 170.84375 32.65625 C 170.640625 32.449219 170.417969 32.269531 170.175781 32.105469 C 169.9375 31.945312 169.683594 31.8125 169.414062 31.699219 C 169.148438 31.589844 168.875 31.507812 168.589844 31.449219 C 168.304688 31.394531 168.019531 31.363281 167.730469 31.363281 Z M 123.707031 31.363281 " fill-opacity="1" fill-rule="nonzero"/></g><g fill="#e2eaff" fill-opacity="1"><g transform="translate(128.999994, 199.528214)"><g><path d="M 1.03125 -1.25 C 1.03125 -1.75 1.160156 -2.125 1.421875 -2.375 C 1.679688 -2.625 2.066406 -2.75 2.578125 -2.75 C 3.066406 -2.75 3.441406 -2.617188 3.703125 -2.359375 C 3.972656 -2.109375 4.109375 -1.738281 4.109375 -1.25 C 4.109375 -0.789062 3.972656 -0.425781 3.703125 -0.15625 C 3.429688 0.101562 3.054688 0.234375 2.578125 0.234375 C 2.085938 0.234375 1.707031 0.101562 1.4375 -0.15625 C 1.164062 -0.414062 1.03125 -0.78125 1.03125 -1.25 Z M 1.03125 -1.25 "/></g></g></g></svg>