<svg xmlns="http://www.w3.org/2000/svg" xmlns:xlink="http://www.w3.org/1999/xlink" width="405" zoomAndPan="magnify" viewBox="0 0 303.75 242.249991" height="323" preserveAspectRatio="xMidYMid meet" version="1.0"><defs><g/><clipPath id="cd2ba317f4"><path d="M 1 3 L 302 3 L 302 241.503906 L 1 241.503906 Z M 1 3 " clip-rule="nonzero"/></clipPath><clipPath id="4ab9527c17"><path d="M 0.773438 3 L 301 3 L 301 241.503906 L 0.773438 241.503906 Z M 0.773438 3 " clip-rule="nonzero"/></clipPath><clipPath id="d7bb3cd60f"><path d="M 11 83 L 301 83 L 301 241.503906 L 11 241.503906 Z M 11 83 " clip-rule="nonzero"/></clipPath><clipPath id="d73ee326fc"><path d="M 0.773438 167 L 248 167 L 248 241.503906 L 0.773438 241.503906 Z M 0.773438 167 " clip-rule="nonzero"/></clipPath></defs><path fill="#ffffff" d="M 4.609375 141.03125 L 87.363281 141.03125 C 87.582031 141.03125 87.730469 140.882812 87.730469 140.664062 L 87.730469 80.03125 C 87.730469 79.808594 87.582031 79.664062 87.363281 79.664062 L 4.609375 79.664062 C 4.386719 79.664062 4.242188 79.808594 4.242188 80.03125 L 4.242188 140.664062 C 4.242188 140.882812 4.460938 141.03125 4.609375 141.03125 Z M 4.609375 141.03125 " fill-opacity="1" fill-rule="nonzero"/><path fill="#ffffff" d="M 106.25 127.652344 L 150.34375 127.652344 L 150.34375 86.867188 L 106.25 86.867188 Z M 106.25 127.652344 " fill-opacity="1" fill-rule="nonzero"/><path fill="#ffffff" d="M 62.519531 10.875 L 133.074219 10.875 L 133.074219 65.40625 L 62.519531 65.40625 Z M 62.519531 10.875 " fill-opacity="1" fill-rule="nonzero"/><g clip-path="url(#cd2ba317f4)"><path fill="#ffffff" d="M 301.003906 122.582031 C 301.003906 122.4375 301.003906 122.289062 301.003906 122.214844 C 301.003906 121.773438 300.933594 121.332031 300.933594 120.894531 C 300.933594 120.820312 300.933594 120.671875 300.933594 120.597656 C 300.859375 120.085938 300.785156 119.496094 300.710938 118.980469 C 300.710938 118.910156 300.636719 118.761719 300.636719 118.6875 C 300.5625 118.246094 300.417969 117.804688 300.34375 117.363281 C 300.34375 117.292969 300.269531 117.144531 300.269531 117.070312 C 300.125 116.558594 299.976562 116.042969 299.828125 115.527344 C 299.828125 115.453125 299.753906 115.453125 299.753906 115.378906 C 299.609375 114.941406 299.386719 114.425781 299.242188 113.984375 C 299.167969 113.910156 299.167969 113.765625 299.09375 113.691406 C 298.652344 112.660156 298.140625 111.707031 297.625 110.75 C 297.550781 110.675781 297.550781 110.605469 297.476562 110.53125 C 296.890625 109.574219 296.226562 108.691406 295.566406 107.8125 C 295.492188 107.738281 295.492188 107.738281 295.417969 107.664062 C 295.050781 107.222656 294.757812 106.855469 294.316406 106.488281 C 294.316406 106.488281 294.316406 106.488281 294.316406 106.414062 C 293.949219 105.972656 293.507812 105.605469 293.066406 105.238281 C 293.066406 105.238281 292.996094 105.164062 292.996094 105.164062 C 292.625 104.796875 292.1875 104.429688 291.746094 104.136719 C 291.671875 104.136719 291.671875 104.0625 291.671875 104.0625 C 291.230469 103.695312 290.789062 103.402344 290.273438 103.035156 C 293.363281 90.320312 286.160156 72.679688 278.222656 61.4375 C 274.105469 55.632812 269.625 49.679688 266.023438 41.59375 C 259.777344 27.335938 252.941406 18.8125 249.265625 14.769531 C 245.738281 9.773438 239.859375 5.804688 232.4375 4.1875 C 226.703125 2.9375 220.015625 3.011719 212.886719 5.140625 C 210.019531 5.507812 207.082031 6.613281 204.363281 8.523438 C 198.921875 12.417969 194.515625 19.472656 193.632812 30.128906 C 191.648438 53.71875 168.792969 69.667969 182.3125 93.480469 C 182.753906 94.214844 183.195312 94.875 183.710938 95.539062 C 183.710938 95.539062 183.710938 95.539062 183.636719 95.539062 C 181.210938 96.492188 178.933594 97.816406 176.949219 99.507812 C 176.875 99.578125 176.875 99.578125 176.800781 99.652344 C 176.507812 99.949219 176.140625 100.242188 175.847656 100.535156 C 175.699219 100.609375 175.625 100.753906 175.480469 100.828125 C 175.183594 101.125 174.890625 101.417969 174.671875 101.636719 C 174.523438 101.785156 174.378906 101.933594 174.304688 102.078125 C 174.082031 102.371094 173.789062 102.59375 173.570312 102.886719 C 173.421875 103.035156 173.273438 103.253906 173.128906 103.402344 C 172.90625 103.695312 172.6875 103.914062 172.539062 104.210938 C 172.246094 104.652344 171.953125 105.09375 171.65625 105.605469 C 171.511719 105.828125 171.4375 106.046875 171.289062 106.195312 C 171.144531 106.488281 170.921875 106.855469 170.777344 107.148438 C 170.628906 107.371094 170.554688 107.589844 170.480469 107.8125 C 170.335938 108.179688 170.1875 108.472656 170.039062 108.839844 C 169.96875 109.058594 169.894531 109.28125 169.746094 109.5 C 169.601562 109.867188 169.453125 110.238281 169.378906 110.605469 C 169.304688 110.824219 169.234375 111.042969 169.160156 111.265625 C 169.011719 111.707031 168.9375 112.074219 168.792969 112.515625 C 168.71875 112.660156 168.71875 112.882812 168.644531 113.027344 C 168.496094 113.617188 168.351562 114.277344 168.277344 114.867188 L 159.679688 171.824219 L 159.824219 171.824219 L 158.136719 181.304688 L 115.4375 193.136719 L 110.511719 171.015625 C 110.363281 170.5 110.144531 169.984375 109.921875 169.472656 C 109.042969 168.074219 107.570312 167.265625 105.882812 167.265625 L 5.785156 167.265625 C 4.316406 167.265625 2.992188 167.929688 2.035156 169.03125 C 1.375 169.914062 1.007812 170.941406 1.007812 171.96875 C 1.007812 172.335938 1.007812 172.707031 1.15625 173.074219 L 15.558594 237.746094 C 16.074219 239.949219 17.984375 241.496094 20.1875 241.496094 L 190.617188 241.496094 C 191.867188 241.496094 192.898438 240.464844 192.898438 239.214844 C 192.898438 239.070312 192.898438 238.921875 192.824219 238.773438 C 192.824219 238.703125 192.824219 238.703125 192.75 238.628906 C 192.75 238.480469 192.675781 238.40625 192.601562 238.261719 C 192.601562 238.261719 192.601562 238.1875 192.53125 238.1875 C 192.457031 238.039062 192.382812 237.96875 192.308594 237.894531 C 192.308594 237.894531 192.308594 237.894531 192.234375 237.820312 C 192.164062 237.671875 192.015625 237.597656 191.941406 237.527344 L 257.863281 237.453125 C 257.9375 237.453125 259.703125 237.453125 262.199219 236.789062 C 262.199219 236.789062 262.199219 236.789062 262.273438 236.789062 C 262.570312 236.71875 262.9375 236.644531 263.230469 236.496094 C 263.230469 236.496094 263.304688 236.496094 263.304688 236.496094 C 263.449219 236.421875 263.671875 236.351562 263.816406 236.351562 C 263.816406 236.351562 263.890625 236.351562 263.890625 236.351562 C 264.183594 236.277344 264.554688 236.128906 264.847656 235.984375 C 264.921875 235.984375 264.992188 235.910156 265.066406 235.910156 C 265.582031 235.6875 266.167969 235.46875 266.683594 235.175781 C 266.757812 235.101562 266.90625 235.101562 266.976562 235.027344 C 267.273438 234.878906 267.492188 234.734375 267.785156 234.585938 C 267.933594 234.511719 268.007812 234.4375 268.152344 234.367188 C 268.300781 234.292969 268.449219 234.144531 268.667969 234.070312 C 268.816406 234 268.960938 233.925781 269.109375 233.777344 C 269.328125 233.628906 269.550781 233.484375 269.769531 233.335938 C 269.917969 233.261719 270.066406 233.117188 270.210938 233.042969 C 270.359375 232.96875 270.503906 232.824219 270.652344 232.75 C 270.875 232.601562 271.09375 232.382812 271.386719 232.234375 C 271.535156 232.085938 271.679688 232.015625 271.828125 231.867188 C 271.976562 231.71875 272.121094 231.574219 272.34375 231.425781 C 272.488281 231.351562 272.5625 231.207031 272.710938 231.132812 C 273.664062 230.324219 274.546875 229.367188 275.355469 228.414062 C 275.355469 228.414062 275.355469 228.414062 275.355469 228.339844 C 276.164062 227.382812 276.824219 226.355469 277.488281 225.253906 C 277.488281 225.179688 277.5625 225.179688 277.5625 225.105469 C 277.78125 224.738281 277.929688 224.445312 278.074219 224.078125 C 278.074219 224.078125 278.074219 224.078125 278.074219 224.003906 C 278.296875 223.636719 278.441406 223.195312 278.589844 222.828125 C 279.03125 221.796875 279.472656 220.769531 279.914062 219.59375 C 279.984375 219.445312 280.058594 219.226562 280.058594 219.078125 C 280.132812 218.785156 280.28125 218.492188 280.355469 218.125 C 280.425781 217.757812 280.574219 217.390625 280.648438 217.019531 C 280.722656 216.726562 280.792969 216.433594 280.867188 216.140625 C 281.015625 215.699219 281.089844 215.183594 281.234375 214.667969 C 281.308594 214.449219 281.308594 214.300781 281.382812 214.082031 C 281.53125 213.492188 281.601562 212.832031 281.75 212.171875 C 281.75 212.171875 281.75 212.097656 281.75 212.097656 C 282.484375 207.246094 283.144531 203.203125 283.734375 199.824219 C 284.027344 198.132812 284.25 196.664062 284.542969 195.339844 C 284.542969 195.265625 284.542969 195.265625 284.542969 195.195312 C 284.691406 194.3125 284.835938 193.503906 284.984375 192.769531 C 284.984375 192.695312 284.984375 192.695312 284.984375 192.621094 C 285.058594 192.253906 285.128906 191.886719 285.203125 191.59375 C 285.277344 191.296875 285.351562 191.003906 285.351562 190.710938 C 285.351562 190.636719 285.351562 190.5625 285.425781 190.492188 C 285.5 190.195312 285.5 189.976562 285.570312 189.753906 C 285.570312 189.683594 285.644531 189.609375 285.644531 189.460938 C 285.71875 189.242188 285.71875 189.019531 285.792969 188.800781 C 285.792969 188.726562 285.792969 188.652344 285.867188 188.578125 C 286.011719 187.84375 286.160156 187.257812 286.308594 186.667969 C 286.308594 186.667969 286.308594 186.59375 286.308594 186.59375 C 286.378906 186.449219 286.378906 186.300781 286.453125 186.082031 C 286.453125 186.007812 286.453125 186.007812 286.453125 185.933594 C 286.527344 185.785156 286.527344 185.640625 286.601562 185.492188 C 287.113281 183.65625 287.335938 183.214844 287.410156 183.066406 L 286.96875 182.699219 L 290.203125 183.140625 L 300.492188 128.023438 C 300.5625 127.433594 300.636719 126.917969 300.710938 126.332031 C 300.710938 126.183594 300.710938 126.039062 300.785156 125.890625 C 300.859375 125.375 300.859375 124.933594 300.859375 124.421875 C 300.859375 124.347656 300.859375 124.273438 300.859375 124.199219 C 301.003906 123.683594 301.003906 123.171875 301.003906 122.582031 Z M 124.695312 234.878906 L 124.84375 235.394531 L 123.226562 228.117188 C 123.886719 228.117188 124.988281 227.898438 126.3125 227.75 C 129.324219 227.238281 133.957031 226.503906 136.675781 227.308594 C 136.820312 227.382812 137.261719 227.824219 137.628906 228.191406 C 137.777344 228.265625 137.851562 228.414062 138 228.558594 C 138.070312 228.632812 138.144531 228.707031 138.21875 228.78125 C 138.292969 228.855469 138.367188 228.855469 138.4375 228.925781 C 138.511719 229 138.660156 229.148438 138.804688 229.222656 C 138.878906 229.222656 138.878906 229.292969 138.878906 229.292969 C 139.027344 229.441406 139.101562 229.515625 139.246094 229.664062 C 139.246094 229.664062 139.320312 229.734375 139.320312 229.734375 C 139.46875 229.882812 139.613281 229.957031 139.761719 230.101562 C 139.761719 230.101562 139.835938 230.175781 139.835938 230.175781 C 139.984375 230.324219 140.128906 230.46875 140.351562 230.617188 C 140.351562 230.617188 140.421875 230.617188 140.421875 230.691406 C 140.570312 230.839844 140.789062 230.984375 140.9375 231.132812 C 140.9375 231.132812 140.9375 231.132812 141.011719 231.132812 C 142.847656 232.601562 145.054688 234.292969 147.550781 235.542969 Z M 190.691406 236.863281 L 189.296875 236.789062 C 189.738281 236.863281 190.25 236.863281 190.691406 236.863281 Z M 190.691406 236.863281 " fill-opacity="1" fill-rule="nonzero"/></g><path fill="#ffffff" d="M 197.601562 58.054688 C 193.777344 22.707031 202.453125 13.003906 203.996094 11.609375 C 204.066406 17.636719 207.449219 31.964844 235.890625 39.316406 C 235.890625 39.316406 245.152344 28.804688 251.617188 35.714844 C 257.863281 42.476562 251.910156 50.414062 246.179688 51.808594 C 246.179688 51.882812 246.179688 51.957031 246.105469 52.105469 L 249.046875 51.515625 L 248.53125 83.484375 C 232.140625 87.601562 220.015625 85.984375 215.753906 85.101562 L 215.753906 76.648438 C 207.082031 78.046875 199.363281 74.371094 197.601562 58.054688 Z M 87.433594 140.664062 L 4.609375 140.664062 L 4.609375 80.03125 L 87.363281 80.03125 L 87.363281 140.664062 Z M 42.164062 122.070312 L 42.164062 88.703125 L 27.171875 105.386719 Z M 26.65625 105.898438 L 11.664062 122.582031 L 41.722656 122.582031 Z M 11.589844 88.113281 L 26.582031 104.796875 L 41.574219 88.113281 C 41.648438 88.113281 11.589844 88.113281 11.589844 88.113281 Z M 11.148438 122.070312 L 26.140625 105.386719 L 11.148438 88.703125 Z M 42.53125 129.566406 C 42.53125 129.34375 42.382812 129.199219 42.164062 129.199219 L 11.148438 129.199219 C 10.929688 129.199219 10.78125 129.34375 10.78125 129.566406 C 10.78125 129.785156 10.929688 129.933594 11.148438 129.933594 L 42.164062 129.933594 C 42.382812 129.933594 42.53125 129.710938 42.53125 129.566406 Z M 50.761719 111.707031 L 50.761719 131.84375 L 64.210938 121.773438 Z M 64.800781 121.332031 L 78.175781 111.265625 L 51.351562 111.265625 Z M 78.175781 132.359375 L 64.800781 122.289062 L 51.351562 132.359375 Z M 78.835938 111.707031 L 65.386719 121.773438 L 78.835938 131.84375 Z M 79.644531 102.59375 C 79.644531 102.371094 79.496094 102.226562 79.277344 102.226562 L 50.246094 102.226562 C 50.027344 102.226562 49.878906 102.371094 49.878906 102.59375 C 49.878906 102.8125 50.027344 102.960938 50.246094 102.960938 L 79.277344 102.960938 C 79.496094 102.960938 79.644531 102.8125 79.644531 102.59375 Z M 79.644531 96.417969 C 79.644531 96.199219 79.496094 96.050781 79.277344 96.050781 L 50.246094 96.050781 C 50.027344 96.050781 49.878906 96.199219 49.878906 96.417969 C 49.878906 96.640625 50.027344 96.789062 50.246094 96.789062 L 79.277344 96.789062 C 79.496094 96.789062 79.644531 96.640625 79.644531 96.417969 Z M 79.644531 90.980469 C 79.644531 90.761719 79.496094 90.613281 79.277344 90.613281 L 50.246094 90.613281 C 50.027344 90.613281 49.878906 90.761719 49.878906 90.980469 C 49.878906 91.203125 50.027344 91.347656 50.246094 91.347656 L 79.277344 91.347656 C 79.496094 91.347656 79.644531 91.203125 79.644531 90.980469 Z M 286.96875 182.699219 L 279.984375 217.902344 C 278.074219 228.78125 268.667969 236.496094 258.011719 236.71875 L 258.011719 236.789062 C 258.011719 236.789062 200.246094 236.789062 171.65625 236.789062 L 190.617188 237.378906 C 191.574219 237.378906 192.308594 238.1875 192.308594 239.144531 C 192.308594 240.097656 191.5 240.90625 190.546875 240.90625 L 20.1875 240.90625 C 18.203125 240.90625 16.515625 239.511719 16.074219 237.597656 L 1.667969 173 C 1.082031 170.351562 3.066406 167.855469 5.785156 167.855469 L 105.808594 167.855469 C 107.792969 167.855469 109.484375 169.25 109.925781 171.160156 L 114.996094 193.871094 L 158.648438 181.746094 L 160.414062 171.898438 L 172.023438 173.511719 C 175.921875 184.242188 181.136719 199.308594 183.636719 206.660156 L 200.761719 204.378906 L 244.046875 198.574219 L 247.207031 177.261719 Z M 68.105469 204.378906 C 68.105469 199.457031 64.136719 195.488281 59.214844 195.488281 C 54.289062 195.488281 50.320312 199.457031 50.320312 204.378906 C 50.320312 209.304688 54.289062 213.273438 59.214844 213.273438 C 64.136719 213.273438 68.105469 209.304688 68.105469 204.378906 Z M 150.269531 236.203125 C 143.289062 233.410156 137.410156 226.941406 136.894531 226.796875 C 132.855469 225.546875 125.429688 227.53125 123.152344 227.53125 C 122.933594 227.53125 122.710938 227.53125 122.492188 227.53125 L 124.253906 235.320312 Z M 126.09375 104.210938 C 126.09375 103.328125 125.355469 102.667969 124.550781 102.667969 C 123.742188 102.667969 123.003906 103.402344 123.003906 104.210938 C 123.003906 104.578125 123.078125 104.871094 123.300781 105.09375 L 114.480469 114.351562 C 114.261719 114.203125 113.964844 114.132812 113.671875 114.132812 C 112.789062 114.132812 112.128906 114.867188 112.128906 115.675781 C 112.128906 116.558594 112.863281 117.21875 113.671875 117.21875 C 114.554688 117.21875 115.214844 116.484375 115.214844 115.675781 C 115.214844 115.378906 115.140625 115.085938 114.996094 114.792969 L 123.8125 105.460938 C 124.035156 105.605469 124.253906 105.679688 124.550781 105.679688 C 124.769531 105.679688 125.0625 105.605469 125.210938 105.53125 L 130.355469 111.265625 C 130.207031 111.484375 130.0625 111.851562 130.0625 112.148438 C 130.0625 113.027344 130.796875 113.691406 131.605469 113.691406 C 132.414062 113.691406 133.148438 112.957031 133.148438 112.148438 C 133.148438 111.851562 133.074219 111.632812 132.925781 111.414062 L 141.378906 99.066406 C 141.527344 99.140625 141.746094 99.140625 141.964844 99.140625 C 142.847656 99.140625 143.511719 98.402344 143.511719 97.59375 C 143.511719 96.714844 142.773438 96.050781 141.964844 96.050781 C 141.160156 96.050781 140.421875 96.789062 140.421875 97.59375 C 140.421875 98.035156 140.570312 98.402344 140.863281 98.625 L 132.558594 110.972656 C 132.339844 110.824219 132.046875 110.675781 131.675781 110.675781 C 131.382812 110.675781 131.164062 110.75 130.941406 110.898438 L 125.796875 105.164062 C 126.019531 104.871094 126.09375 104.503906 126.09375 104.210938 Z M 66.34375 27.042969 L 66.34375 17.488281 C 66.34375 17.269531 66.488281 17.121094 66.710938 17.121094 L 128.738281 17.121094 C 128.957031 17.121094 129.105469 17.269531 129.105469 17.488281 L 129.105469 27.042969 C 129.105469 27.261719 128.957031 27.410156 128.738281 27.410156 L 66.710938 27.410156 C 66.488281 27.410156 66.34375 27.191406 66.34375 27.042969 Z M 67.078125 26.675781 L 128.371094 26.675781 L 128.371094 17.855469 L 67.078125 17.855469 Z M 83.464844 34.097656 C 90.007812 34.097656 95.371094 39.460938 95.371094 46.003906 C 95.371094 52.542969 90.007812 57.910156 83.464844 57.910156 C 76.925781 57.910156 71.5625 52.542969 71.5625 46.003906 C 71.5625 39.390625 76.925781 34.097656 83.464844 34.097656 Z M 83.464844 34.980469 C 80.894531 37.917969 79.425781 41.667969 79.203125 45.636719 L 87.65625 45.636719 C 87.507812 41.742188 86.039062 37.992188 83.464844 34.980469 Z M 72.296875 45.636719 L 78.46875 45.636719 C 78.617188 41.667969 80.085938 37.917969 82.585938 34.832031 C 77 35.273438 72.515625 39.902344 72.296875 45.636719 Z M 82.65625 57.101562 C 80.160156 54.085938 78.6875 50.265625 78.542969 46.296875 L 72.296875 46.296875 C 72.515625 52.105469 77 56.734375 82.65625 57.101562 Z M 83.464844 56.953125 C 86.039062 54.015625 87.507812 50.265625 87.730469 46.296875 L 79.277344 46.296875 C 79.425781 50.265625 80.894531 54.015625 83.464844 56.953125 Z M 94.636719 46.371094 L 88.464844 46.371094 C 88.316406 50.339844 86.847656 54.085938 84.347656 57.175781 C 89.933594 56.734375 94.417969 52.105469 94.636719 46.371094 Z M 84.273438 34.832031 C 86.773438 37.847656 88.242188 41.667969 88.390625 45.636719 L 94.5625 45.636719 C 94.417969 39.902344 89.933594 35.273438 84.273438 34.832031 Z M 112.421875 57.175781 C 107.71875 57.175781 102.722656 55.925781 102.722656 53.71875 L 102.722656 39.167969 C 102.722656 36.890625 107.71875 35.714844 112.421875 35.714844 C 117.125 35.714844 122.125 36.964844 122.125 39.167969 L 122.125 53.71875 C 122.125 56 117.125 57.175781 112.421875 57.175781 Z M 121.390625 47.839844 C 119.84375 49.238281 116.023438 49.898438 112.421875 49.898438 C 108.820312 49.898438 105 49.164062 103.457031 47.839844 L 103.457031 53.71875 C 103.457031 55.042969 107.132812 56.441406 112.421875 56.441406 C 117.714844 56.441406 121.390625 54.96875 121.390625 53.71875 Z M 121.390625 40.566406 C 119.84375 41.960938 116.023438 42.621094 112.421875 42.621094 C 108.820312 42.621094 105 41.886719 103.457031 40.566406 L 103.457031 46.445312 C 103.457031 47.765625 107.132812 49.164062 112.421875 49.164062 C 117.714844 49.164062 121.390625 47.695312 121.390625 46.445312 Z M 121.390625 39.167969 C 121.390625 37.847656 117.714844 36.449219 112.421875 36.449219 C 107.132812 36.449219 103.457031 37.917969 103.457031 39.167969 C 103.457031 40.417969 107.132812 41.886719 112.421875 41.886719 C 117.714844 41.886719 121.390625 40.492188 121.390625 39.167969 Z M 121.390625 39.167969 " fill-opacity="1" fill-rule="nonzero"/><path fill="#ffffff" d="M 62.519531 10.875 L 133.074219 10.875 L 133.074219 65.40625 L 62.519531 65.40625 Z M 62.519531 10.875 " fill-opacity="1" fill-rule="nonzero"/><g clip-path="url(#4ab9527c17)"><path fill="#ffffff" d="M 290.128906 102.886719 C 293.214844 90.097656 286.011719 72.535156 278.074219 61.289062 C 273.960938 55.484375 269.476562 49.53125 265.875 41.445312 C 259.628906 27.191406 252.792969 18.664062 249.121094 14.621094 C 242.871094 5.730469 229.054688 0.144531 212.742188 4.996094 C 209.875 5.363281 206.933594 6.464844 204.214844 8.375 C 198.777344 12.269531 194.367188 19.324219 193.484375 29.980469 C 191.5 53.574219 168.644531 69.519531 182.167969 93.332031 C 182.609375 94.066406 183.050781 94.730469 183.5625 95.390625 C 175.625 98.550781 169.527344 105.753906 168.128906 114.792969 L 159.53125 171.75 L 160.265625 171.824219 L 159.753906 171.75 L 158.0625 181.230469 L 115.363281 193.0625 L 110.4375 170.941406 C 109.925781 168.738281 108.011719 167.191406 105.808594 167.191406 L 5.785156 167.191406 C 4.316406 167.191406 2.992188 167.855469 2.035156 168.957031 C 1.15625 170.058594 0.785156 171.53125 1.082031 173 L 15.484375 237.671875 C 16 239.878906 17.910156 241.421875 20.117188 241.421875 L 190.617188 241.421875 C 191.867188 241.421875 192.898438 240.390625 192.898438 239.144531 C 192.898438 238.40625 192.601562 237.820312 192.089844 237.378906 L 258.011719 237.304688 C 258.230469 237.304688 265.949219 237.230469 272.710938 230.984375 C 275.28125 228.707031 277.339844 225.914062 278.664062 222.605469 C 280.058594 219.667969 281.089844 216.214844 281.75 211.949219 C 283.144531 202.617188 284.324219 196.222656 285.128906 191.960938 L 285.277344 191.300781 C 286.675781 184.242188 287.335938 183.140625 287.410156 182.996094 L 286.96875 182.625 L 290.203125 183.066406 L 300.492188 127.949219 C 302.476562 117.953125 297.992188 108.253906 290.128906 102.886719 Z M 124.769531 235.394531 L 123.152344 228.117188 C 123.8125 228.117188 124.917969 227.898438 126.238281 227.75 C 129.253906 227.238281 133.882812 226.503906 136.601562 227.308594 C 136.75 227.382812 137.191406 227.824219 137.558594 228.191406 C 139.320312 229.808594 143.070312 233.261719 147.480469 235.613281 L 124.550781 234.878906 Z M 190.691406 236.863281 L 189.296875 236.789062 C 189.738281 236.863281 190.25 236.863281 190.691406 236.863281 Z M 190.691406 236.863281 " fill-opacity="1" fill-rule="nonzero"/></g><path fill="#ffffff" d="M 4.609375 141.03125 L 87.363281 141.03125 C 87.582031 141.03125 87.730469 140.882812 87.730469 140.664062 L 87.730469 80.03125 C 87.730469 79.808594 87.582031 79.664062 87.363281 79.664062 L 4.609375 79.664062 C 4.386719 79.664062 4.242188 79.808594 4.242188 80.03125 L 4.242188 140.664062 C 4.242188 140.882812 4.460938 141.03125 4.609375 141.03125 Z M 4.609375 141.03125 " fill-opacity="1" fill-rule="nonzero"/><path fill="#ffffff" d="M 106.25 86.867188 L 150.417969 86.867188 L 150.417969 127.652344 L 106.25 127.652344 Z M 106.25 86.867188 " fill-opacity="1" fill-rule="nonzero"/><path fill="#1e3d58" d="M 182.242188 93.40625 C 168.644531 69.519531 191.574219 53.648438 193.558594 30.054688 C 194.441406 19.398438 198.851562 12.269531 204.289062 8.449219 C 207.007812 6.539062 209.875 5.4375 212.8125 5.066406 C 229.203125 0.21875 243.019531 5.804688 249.191406 14.695312 C 252.867188 18.664062 259.628906 27.261719 265.949219 41.519531 C 269.550781 49.605469 273.960938 55.558594 278.148438 61.363281 C 286.085938 72.535156 293.214844 90.171875 290.203125 102.960938 C 287.1875 100.902344 283.660156 99.507812 279.839844 98.917969 C 279.839844 98.917969 279.839844 98.917969 279.765625 98.917969 C 279.839844 98.769531 279.839844 98.699219 279.839844 98.699219 L 249.121094 89.730469 L 249.78125 83.191406 C 249.339844 83.339844 248.972656 83.410156 248.53125 83.484375 L 249.046875 51.148438 L 246.105469 51.734375 C 246.105469 51.664062 246.105469 51.589844 246.179688 51.441406 C 248.238281 50.925781 250.296875 49.605469 251.839844 47.839844 C 251.839844 47.839844 251.839844 47.839844 251.839844 47.765625 C 251.984375 47.621094 252.058594 47.472656 252.207031 47.328125 C 252.207031 47.328125 252.28125 47.253906 252.28125 47.253906 C 252.351562 47.105469 252.5 46.960938 252.574219 46.8125 C 252.574219 46.738281 252.648438 46.738281 252.648438 46.664062 C 252.71875 46.519531 252.792969 46.371094 252.941406 46.222656 C 252.941406 46.152344 253.015625 46.152344 253.015625 46.078125 C 253.085938 45.929688 253.160156 45.78125 253.234375 45.636719 C 253.234375 45.5625 253.308594 45.488281 253.308594 45.488281 C 253.382812 45.34375 253.457031 45.195312 253.527344 45.046875 C 253.527344 44.976562 253.601562 44.902344 253.601562 44.902344 C 253.675781 44.753906 253.75 44.605469 253.75 44.460938 C 253.75 44.386719 253.824219 44.3125 253.824219 44.3125 C 253.894531 44.167969 253.894531 43.945312 253.96875 43.800781 C 253.96875 43.800781 253.96875 43.726562 253.96875 43.726562 C 254.042969 43.503906 254.042969 43.285156 254.117188 43.0625 C 254.117188 42.992188 254.117188 42.917969 254.117188 42.84375 C 254.117188 42.695312 254.191406 42.550781 254.191406 42.402344 C 254.191406 42.328125 254.191406 42.183594 254.191406 42.109375 C 254.191406 41.960938 254.191406 41.886719 254.191406 41.742188 C 254.191406 41.667969 254.191406 41.519531 254.191406 41.445312 C 254.191406 41.300781 254.191406 41.226562 254.191406 41.078125 C 254.191406 41.007812 254.191406 40.859375 254.191406 40.785156 C 254.191406 40.636719 254.191406 40.566406 254.117188 40.417969 C 254.117188 40.34375 254.117188 40.199219 254.042969 40.125 C 254.042969 39.976562 253.96875 39.902344 253.96875 39.757812 C 253.96875 39.683594 253.894531 39.535156 253.894531 39.460938 C 253.894531 39.316406 253.824219 39.242188 253.75 39.09375 C 253.75 39.023438 253.675781 38.875 253.601562 38.800781 C 253.527344 38.65625 253.527344 38.582031 253.457031 38.433594 C 253.382812 38.359375 253.382812 38.214844 253.308594 38.140625 C 253.234375 37.992188 253.160156 37.917969 253.085938 37.773438 C 253.015625 37.699219 253.015625 37.550781 252.941406 37.476562 C 252.867188 37.332031 252.792969 37.183594 252.71875 37.109375 C 252.648438 37.039062 252.574219 36.890625 252.574219 36.816406 C 252.5 36.671875 252.351562 36.523438 252.28125 36.375 C 252.207031 36.300781 252.132812 36.230469 252.132812 36.15625 C 251.984375 35.933594 251.765625 35.714844 251.617188 35.492188 C 251.472656 35.273438 251.25 35.125 251.105469 34.980469 C 251.03125 34.90625 251.03125 34.90625 250.957031 34.832031 C 250.808594 34.6875 250.589844 34.539062 250.441406 34.390625 C 250.441406 34.390625 250.367188 34.316406 250.367188 34.316406 C 250.222656 34.171875 250.074219 34.097656 249.855469 34.023438 C 249.78125 34.023438 249.78125 33.949219 249.707031 33.949219 C 249.558594 33.878906 249.339844 33.730469 249.191406 33.65625 C 249.121094 33.65625 249.046875 33.582031 249.046875 33.582031 C 248.898438 33.511719 248.75 33.511719 248.605469 33.4375 C 248.53125 33.4375 248.457031 33.363281 248.382812 33.363281 C 248.238281 33.289062 248.015625 33.289062 247.871094 33.214844 C 247.796875 33.214844 247.722656 33.214844 247.648438 33.140625 C 247.574219 33.140625 247.429688 33.140625 247.355469 33.070312 C 247.207031 33.070312 247.0625 33.070312 246.914062 32.996094 C 246.839844 32.996094 246.695312 32.996094 246.621094 32.996094 C 246.472656 32.996094 246.398438 32.996094 246.253906 32.996094 C 246.179688 32.996094 246.105469 32.996094 246.105469 32.996094 C 245.886719 32.996094 245.664062 32.996094 245.445312 33.070312 C 245.445312 33.070312 245.371094 33.070312 245.371094 33.070312 C 245.222656 33.070312 245.078125 33.140625 245.003906 33.140625 C 240.300781 34.097656 236.039062 38.949219 235.964844 38.949219 C 207.523438 31.597656 204.214844 17.269531 204.066406 11.242188 C 202.523438 12.636719 193.777344 22.339844 197.675781 57.6875 C 199.4375 74.003906 207.15625 77.753906 215.828125 76.28125 L 215.828125 85.175781 C 214.722656 84.953125 214.210938 84.808594 214.210938 84.808594 L 214.210938 91.496094 L 188.339844 94.066406 C 188.339844 94.066406 188.339844 94.140625 188.265625 94.289062 C 186.722656 94.582031 185.179688 95.023438 183.710938 95.609375 C 183.121094 94.875 182.683594 94.140625 182.242188 93.40625 Z M 42.53125 129.566406 C 42.53125 129.34375 42.382812 129.199219 42.164062 129.199219 L 11.148438 129.199219 C 10.929688 129.199219 10.78125 129.34375 10.78125 129.566406 C 10.78125 129.785156 10.929688 129.933594 11.148438 129.933594 L 42.164062 129.933594 C 42.382812 129.933594 42.53125 129.710938 42.53125 129.566406 Z M 79.644531 90.980469 C 79.644531 90.761719 79.496094 90.613281 79.277344 90.613281 L 50.246094 90.613281 C 50.027344 90.613281 49.878906 90.761719 49.878906 90.980469 C 49.878906 91.203125 50.027344 91.347656 50.246094 91.347656 L 79.277344 91.347656 C 79.496094 91.347656 79.644531 91.203125 79.644531 90.980469 Z M 79.644531 96.417969 C 79.644531 96.199219 79.496094 96.050781 79.277344 96.050781 L 50.246094 96.050781 C 50.027344 96.050781 49.878906 96.199219 49.878906 96.417969 C 49.878906 96.640625 50.027344 96.789062 50.246094 96.789062 L 79.277344 96.789062 C 79.496094 96.789062 79.644531 96.640625 79.644531 96.417969 Z M 79.644531 102.59375 C 79.644531 102.371094 79.496094 102.226562 79.277344 102.226562 L 50.246094 102.226562 C 50.027344 102.226562 49.878906 102.371094 49.878906 102.59375 C 49.878906 102.8125 50.027344 102.960938 50.246094 102.960938 L 79.277344 102.960938 C 79.496094 102.960938 79.644531 102.8125 79.644531 102.59375 Z M 150.34375 86.867188 L 150.34375 127.652344 L 106.175781 127.652344 L 106.175781 86.867188 Z M 143.65625 97.667969 C 143.65625 96.789062 142.921875 96.125 142.113281 96.125 C 141.304688 96.125 140.570312 96.859375 140.570312 97.667969 C 140.570312 98.109375 140.71875 98.476562 141.011719 98.699219 L 132.558594 110.972656 C 132.339844 110.824219 132.046875 110.675781 131.675781 110.675781 C 131.382812 110.675781 131.164062 110.75 130.941406 110.898438 L 125.796875 105.164062 C 126.019531 104.871094 126.09375 104.578125 126.09375 104.210938 C 126.09375 103.328125 125.355469 102.667969 124.550781 102.667969 C 123.742188 102.667969 123.003906 103.402344 123.003906 104.210938 C 123.003906 104.578125 123.078125 104.871094 123.300781 105.09375 L 114.480469 114.351562 C 114.261719 114.203125 113.964844 114.132812 113.671875 114.132812 C 112.789062 114.132812 112.128906 114.867188 112.128906 115.675781 C 112.128906 116.558594 112.863281 117.21875 113.671875 117.21875 C 114.554688 117.21875 115.214844 116.484375 115.214844 115.675781 C 115.214844 115.378906 115.140625 115.085938 114.996094 114.792969 L 123.8125 105.460938 C 124.035156 105.605469 124.253906 105.679688 124.550781 105.679688 C 124.769531 105.679688 125.0625 105.605469 125.210938 105.53125 L 130.355469 111.265625 C 130.207031 111.484375 130.0625 111.851562 130.0625 112.148438 C 130.0625 113.027344 130.796875 113.691406 131.605469 113.691406 C 132.414062 113.691406 133.148438 112.957031 133.148438 112.148438 C 133.148438 111.851562 133.074219 111.632812 132.925781 111.414062 L 141.378906 99.066406 C 141.527344 99.140625 141.746094 99.140625 141.964844 99.140625 C 142.921875 99.210938 143.65625 98.550781 143.65625 97.667969 Z M 42.53125 129.566406 C 42.53125 129.34375 42.382812 129.199219 42.164062 129.199219 L 11.148438 129.199219 C 10.929688 129.199219 10.78125 129.34375 10.78125 129.566406 C 10.78125 129.785156 10.929688 129.933594 11.148438 129.933594 L 42.164062 129.933594 C 42.382812 129.933594 42.53125 129.710938 42.53125 129.566406 Z M 79.644531 90.980469 C 79.644531 90.761719 79.496094 90.613281 79.277344 90.613281 L 50.246094 90.613281 C 50.027344 90.613281 49.878906 90.761719 49.878906 90.980469 C 49.878906 91.203125 50.027344 91.347656 50.246094 91.347656 L 79.277344 91.347656 C 79.496094 91.347656 79.644531 91.203125 79.644531 90.980469 Z M 79.644531 96.417969 C 79.644531 96.199219 79.496094 96.050781 79.277344 96.050781 L 50.246094 96.050781 C 50.027344 96.050781 49.878906 96.199219 49.878906 96.417969 C 49.878906 96.640625 50.027344 96.789062 50.246094 96.789062 L 79.277344 96.789062 C 79.496094 96.789062 79.644531 96.640625 79.644531 96.417969 Z M 79.644531 102.59375 C 79.644531 102.371094 79.496094 102.226562 79.277344 102.226562 L 50.246094 102.226562 C 50.027344 102.226562 49.878906 102.371094 49.878906 102.59375 C 49.878906 102.8125 50.027344 102.960938 50.246094 102.960938 L 79.277344 102.960938 C 79.496094 102.960938 79.644531 102.8125 79.644531 102.59375 Z M 79.644531 102.59375 " fill-opacity="1" fill-rule="nonzero"/><path fill="#5ca899" d="M 62.519531 10.875 L 62.519531 65.40625 L 133.074219 65.40625 L 133.074219 10.875 Z M 83.464844 57.910156 C 76.925781 57.910156 71.5625 52.542969 71.5625 46.003906 C 71.5625 39.460938 76.925781 34.097656 83.464844 34.097656 C 90.007812 34.097656 95.371094 39.460938 95.371094 46.003906 C 95.371094 52.542969 90.007812 57.910156 83.464844 57.910156 Z M 122.125 53.71875 C 122.125 56 117.125 57.175781 112.421875 57.175781 C 107.71875 57.175781 102.722656 55.925781 102.722656 53.71875 L 102.722656 39.167969 C 102.722656 36.890625 107.71875 35.714844 112.421875 35.714844 C 117.125 35.714844 122.125 36.964844 122.125 39.167969 Z M 129.179688 27.042969 C 129.179688 27.261719 129.03125 27.410156 128.8125 27.410156 L 66.710938 27.410156 C 66.488281 27.410156 66.34375 27.261719 66.34375 27.042969 L 66.34375 17.488281 C 66.34375 17.269531 66.488281 17.121094 66.710938 17.121094 L 128.738281 17.121094 C 128.957031 17.121094 129.105469 17.269531 129.105469 17.488281 L 129.105469 27.042969 Z M 51.351562 111.265625 L 78.175781 111.265625 L 64.726562 121.332031 Z M 78.175781 132.359375 L 51.351562 132.359375 L 64.800781 122.289062 Z M 64.210938 121.773438 L 50.761719 131.84375 L 50.761719 111.707031 Z M 78.835938 131.917969 L 65.386719 121.847656 L 78.835938 111.78125 Z M 51.351562 111.265625 L 78.175781 111.265625 L 64.726562 121.332031 Z M 78.175781 132.359375 L 51.351562 132.359375 L 64.800781 122.289062 Z M 64.210938 121.773438 L 50.761719 131.84375 L 50.761719 111.707031 Z M 78.835938 131.917969 L 65.386719 121.847656 L 78.835938 111.78125 Z M 78.46875 46.371094 C 78.617188 50.339844 80.085938 54.085938 82.585938 57.175781 C 76.925781 56.734375 72.441406 52.105469 72.222656 46.371094 Z M 87.65625 46.371094 C 87.507812 50.265625 86.039062 54.015625 83.394531 57.027344 C 80.820312 54.085938 79.351562 50.339844 79.128906 46.371094 Z M 94.636719 45.636719 L 88.464844 45.636719 C 88.316406 41.667969 86.847656 37.917969 84.347656 34.832031 C 89.933594 35.273438 94.417969 39.902344 94.636719 45.636719 Z M 88.390625 46.371094 L 94.5625 46.371094 C 94.34375 52.105469 89.859375 56.734375 84.203125 57.175781 C 86.773438 54.085938 88.242188 50.339844 88.390625 46.371094 Z M 78.46875 45.636719 L 72.296875 45.636719 C 72.515625 39.902344 77 35.273438 82.65625 34.832031 C 80.160156 37.917969 78.6875 41.667969 78.46875 45.636719 Z M 79.203125 45.636719 C 79.351562 41.742188 80.820312 37.992188 83.464844 34.980469 C 86.039062 37.917969 87.507812 41.667969 87.730469 45.636719 Z M 67.078125 17.855469 L 128.371094 17.855469 L 128.371094 26.675781 L 67.078125 26.675781 Z M 121.390625 39.167969 C 121.390625 40.492188 117.714844 41.886719 112.421875 41.886719 C 107.132812 41.886719 103.457031 40.417969 103.457031 39.167969 C 103.457031 37.917969 107.132812 36.449219 112.421875 36.449219 C 117.714844 36.449219 121.390625 37.917969 121.390625 39.167969 Z M 112.421875 42.695312 C 116.023438 42.695312 119.84375 41.960938 121.390625 40.636719 L 121.390625 46.519531 C 121.390625 47.839844 117.714844 49.238281 112.421875 49.238281 C 107.132812 49.238281 103.457031 47.765625 103.457031 46.519531 L 103.457031 40.636719 C 105 41.960938 108.746094 42.695312 112.421875 42.695312 Z M 112.421875 49.972656 C 116.023438 49.972656 119.84375 49.238281 121.390625 47.914062 L 121.390625 53.792969 C 121.390625 55.117188 117.714844 56.511719 112.421875 56.511719 C 107.132812 56.511719 103.457031 55.042969 103.457031 53.792969 L 103.457031 47.914062 C 105 49.238281 108.746094 49.972656 112.421875 49.972656 Z M 112.421875 49.972656 " fill-opacity="1" fill-rule="nonzero"/><g clip-path="url(#d7bb3cd60f)"><path fill="#3779e3" d="M 300.5625 128.023438 L 290.273438 183.140625 L 247.136719 177.261719 L 243.976562 198.574219 L 183.5625 206.730469 C 181.066406 199.382812 175.847656 184.316406 171.953125 173.585938 L 159.605469 171.898438 L 168.203125 114.941406 C 169.820312 104.210938 178.050781 96.125 188.195312 94.214844 C 188.195312 94.066406 188.265625 93.996094 188.265625 93.996094 L 214.136719 91.421875 L 214.136719 84.734375 C 214.136719 84.734375 228.613281 88.851562 249.78125 83.117188 L 249.121094 89.660156 L 279.839844 98.625 C 279.839844 98.625 279.765625 98.699219 279.765625 98.84375 C 279.765625 98.84375 279.765625 98.84375 279.839844 98.84375 C 293.730469 100.902344 303.136719 114.132812 300.5625 128.023438 Z M 11.148438 88.703125 L 11.148438 122.070312 L 26.140625 105.386719 Z M 11.589844 88.113281 L 26.582031 104.796875 L 41.574219 88.113281 C 41.648438 88.113281 11.589844 88.113281 11.589844 88.113281 Z M 26.65625 105.898438 L 11.664062 122.582031 L 41.722656 122.582031 Z M 27.171875 105.386719 L 42.164062 122.070312 L 42.164062 88.703125 Z M 59.214844 195.488281 C 54.289062 195.488281 50.320312 199.457031 50.320312 204.378906 C 50.320312 209.304688 54.289062 213.273438 59.214844 213.273438 C 64.136719 213.273438 68.105469 209.304688 68.105469 204.378906 C 68.105469 199.457031 64.136719 195.488281 59.214844 195.488281 Z M 68.695312 204.378906 C 68.695312 199.164062 64.433594 194.898438 59.214844 194.898438 C 53.996094 194.898438 49.734375 199.164062 49.734375 204.378906 C 49.734375 209.597656 53.996094 213.859375 59.214844 213.859375 C 64.433594 213.859375 68.695312 209.597656 68.695312 204.378906 Z M 67.59375 204.378906 C 67.59375 209.011719 63.84375 212.757812 59.214844 212.757812 C 54.582031 212.757812 50.835938 209.011719 50.835938 204.378906 C 50.835938 199.75 54.582031 196.003906 59.214844 196.003906 C 63.84375 196.003906 67.59375 199.824219 67.59375 204.378906 Z M 11.148438 88.703125 L 11.148438 122.070312 L 26.140625 105.386719 Z M 11.589844 88.113281 L 26.582031 104.796875 L 41.574219 88.113281 C 41.648438 88.113281 11.589844 88.113281 11.589844 88.113281 Z M 26.65625 105.898438 L 11.664062 122.582031 L 41.722656 122.582031 Z M 27.171875 105.386719 L 42.164062 122.070312 L 42.164062 88.703125 Z M 190.691406 236.863281 L 124.621094 234.808594 L 124.84375 235.6875 C 124.84375 235.761719 124.84375 235.835938 124.917969 235.910156 L 190.691406 237.96875 C 191.355469 237.96875 191.867188 238.480469 191.867188 239.144531 C 191.867188 239.804688 191.355469 240.320312 190.691406 240.320312 L 123.300781 240.320312 C 122.417969 241.054688 121.390625 241.421875 120.285156 241.421875 L 190.617188 241.421875 C 191.867188 241.421875 192.898438 240.390625 192.898438 239.144531 C 192.972656 237.96875 191.941406 236.9375 190.691406 236.863281 Z M 190.691406 236.863281 " fill-opacity="1" fill-rule="nonzero"/></g><path fill="#000000" d="M 250.441406 123.023438 L 242.359375 176.601562 C 242.285156 176.894531 242.503906 177.1875 242.800781 177.261719 C 242.800781 177.261719 242.871094 177.261719 242.871094 177.261719 C 243.167969 177.261719 243.386719 177.042969 243.386719 176.820312 L 251.472656 123.246094 C 251.542969 122.949219 251.324219 122.65625 251.03125 122.582031 C 250.734375 122.507812 250.515625 122.730469 250.441406 123.023438 Z M 250.441406 123.023438 " fill-opacity="1" fill-rule="nonzero"/><path fill="#000000" d="M 197.085938 57.6875 C 197.96875 65.847656 200.394531 71.503906 204.363281 74.519531 C 207.226562 76.648438 210.828125 77.457031 215.164062 76.871094 L 215.164062 80.984375 C 215.164062 81.058594 215.164062 81.058594 215.164062 81.132812 L 215.164062 84.953125 C 215.460938 85.027344 215.828125 85.101562 216.269531 85.175781 L 216.269531 80.984375 C 216.269531 80.914062 216.269531 80.914062 216.269531 80.839844 L 216.269531 76.210938 C 216.269531 76.0625 216.195312 75.914062 216.046875 75.769531 C 215.902344 75.695312 215.753906 75.621094 215.605469 75.621094 C 211.269531 76.355469 207.742188 75.695312 204.949219 73.5625 C 201.277344 70.769531 198.921875 65.332031 198.117188 57.46875 C 197.011719 47.03125 196.9375 38.800781 197.453125 32.480469 L 197.601562 32.40625 C 201.203125 32.113281 203.257812 34.390625 203.332031 34.539062 C 203.40625 34.6875 203.628906 34.757812 203.773438 34.757812 C 203.921875 34.757812 204.066406 34.6875 204.140625 34.613281 C 204.363281 34.390625 204.363281 34.097656 204.214844 33.804688 C 204.140625 33.65625 201.714844 31.011719 197.601562 31.304688 L 197.601562 31.230469 C 198.777344 19.839844 201.789062 14.546875 203.480469 12.492188 C 204.066406 19.105469 208.773438 32.40625 235.671875 39.390625 C 235.890625 39.460938 236.109375 39.390625 236.257812 39.242188 C 236.332031 39.167969 241.328125 33.511719 246.328125 33.4375 C 248.164062 33.4375 249.78125 34.171875 251.105469 35.640625 C 253.96875 38.800781 253.894531 41.816406 253.308594 43.800781 C 252.351562 47.03125 249.265625 50.046875 245.960938 50.855469 C 245.738281 50.925781 245.589844 51.074219 245.519531 51.296875 L 245.445312 51.589844 C 245.445312 51.734375 245.445312 51.957031 245.589844 52.105469 C 245.738281 52.25 245.886719 52.324219 246.105469 52.25 L 248.382812 51.808594 L 247.871094 83.632812 C 248.238281 83.558594 248.605469 83.410156 248.972656 83.339844 L 249.488281 51.148438 C 249.488281 51 249.414062 50.855469 249.265625 50.707031 C 249.265625 50.707031 249.265625 50.707031 249.191406 50.707031 C 251.542969 49.238281 253.457031 46.886719 254.265625 44.238281 C 255.21875 41.007812 254.335938 37.699219 251.839844 34.980469 C 250.222656 33.289062 248.3125 32.40625 246.179688 32.40625 C 241.328125 32.480469 236.625 37.183594 235.523438 38.285156 C 207.667969 31.011719 204.4375 16.972656 204.363281 11.242188 C 204.363281 11.019531 204.214844 10.800781 203.996094 10.726562 C 203.773438 10.652344 203.554688 10.652344 203.40625 10.800781 C 202.15625 11.902344 197.675781 16.972656 196.277344 31.671875 C 195.910156 38.285156 195.835938 46.738281 197.085938 57.6875 Z M 197.085938 57.6875 " fill-opacity="1" fill-rule="nonzero"/><path fill="#000000" d="M 252.648438 190.195312 C 251.691406 191.152344 251.910156 192.84375 252.132812 194.089844 C 252.351562 195.488281 252.941406 196.8125 253.75 197.914062 C 255.21875 199.972656 257.71875 201.148438 260.214844 200.851562 C 260.585938 202.324219 260.511719 203.792969 260.511719 205.335938 C 260.511719 205.484375 260.511719 205.554688 260.511719 205.703125 C 259.921875 205.1875 259.261719 204.75 258.601562 204.378906 C 257.644531 203.792969 256.394531 203.132812 255.292969 203.71875 C 254.335938 204.234375 254.117188 205.410156 254.484375 206.363281 C 254.925781 207.46875 256.101562 208.054688 257.203125 208.421875 C 258.453125 208.789062 259.777344 208.863281 261.023438 208.789062 C 261.171875 209.15625 261.246094 209.523438 261.464844 209.820312 C 262.714844 212.464844 264.992188 214.375 266.464844 216.800781 C 267.34375 218.199219 268.007812 219.886719 267.714844 221.578125 C 267.640625 222.238281 268.667969 222.605469 268.742188 221.871094 C 269.183594 218.710938 267.417969 216.066406 265.507812 213.714844 C 264.992188 213.054688 264.40625 212.390625 263.890625 211.730469 C 266.097656 210.847656 268.375 209.378906 268.890625 206.878906 C 269.035156 206.21875 268.960938 205.628906 268.667969 205.042969 C 268.375 204.453125 267.785156 204.085938 267.125 204.234375 C 266.464844 204.378906 265.800781 204.96875 265.289062 205.410156 C 264.773438 205.851562 264.332031 206.363281 263.964844 206.953125 C 263.375 207.835938 262.9375 208.863281 262.714844 209.894531 C 261.980469 208.570312 261.613281 207.246094 261.613281 205.703125 C 261.539062 204.011719 261.761719 202.25 261.320312 200.632812 C 263.15625 200.117188 264.257812 198.355469 264.921875 196.664062 C 265.875 194.460938 266.609375 191.59375 265.214844 189.386719 C 264.183594 187.84375 262.128906 187.183594 260.585938 188.066406 C 260.289062 187.917969 259.996094 187.769531 259.703125 187.699219 C 257.9375 187.332031 256.320312 188.210938 255.511719 189.683594 C 255.441406 189.683594 255.441406 189.609375 255.441406 189.609375 C 254.558594 189.316406 253.382812 189.535156 252.648438 190.195312 Z M 266.683594 205.703125 C 266.976562 205.554688 267.417969 205.117188 267.640625 205.484375 C 267.859375 205.851562 267.859375 206.292969 267.785156 206.660156 C 267.566406 207.6875 266.90625 208.496094 266.167969 209.15625 C 265.433594 209.746094 264.625 210.261719 263.746094 210.628906 C 264.039062 208.714844 265.066406 206.878906 266.683594 205.703125 Z M 258.230469 207.46875 C 257.351562 207.320312 256.394531 207.027344 255.808594 206.363281 C 255.441406 205.925781 255.144531 205.042969 255.734375 204.675781 C 256.027344 204.453125 256.542969 204.527344 256.910156 204.675781 C 257.351562 204.820312 257.71875 205.042969 258.085938 205.261719 C 259.039062 205.851562 259.921875 206.511719 260.65625 207.246094 C 260.65625 207.394531 260.65625 207.46875 260.730469 207.613281 C 259.921875 207.6875 259.039062 207.6875 258.230469 207.46875 Z M 260.65625 189.535156 C 261.171875 190.050781 261.390625 190.710938 261.246094 191.445312 C 261.171875 191.667969 261.023438 192.035156 260.730469 192.035156 C 260.4375 192.035156 260.289062 191.667969 260.289062 191.445312 C 259.996094 190.859375 260.289062 190.121094 260.65625 189.535156 Z M 256.101562 191.667969 C 256.25 191.886719 256.320312 192.105469 256.394531 192.328125 C 256.46875 192.546875 256.617188 193.0625 256.542969 193.355469 C 256.46875 193.285156 256.46875 193.210938 256.394531 193.136719 C 256.320312 192.914062 256.246094 192.695312 256.175781 192.476562 C 256.101562 192.179688 256.101562 191.960938 256.101562 191.667969 Z M 254.851562 190.636719 C 254.925781 190.636719 255 190.710938 255.144531 190.710938 C 255.070312 190.929688 255 191.226562 255 191.519531 C 254.925781 192.476562 255.144531 194.164062 256.320312 194.460938 C 256.835938 194.605469 257.351562 194.238281 257.570312 193.796875 C 257.792969 193.285156 257.644531 192.769531 257.570312 192.253906 C 257.425781 191.59375 257.054688 190.859375 256.542969 190.417969 C 256.910156 189.683594 257.644531 189.09375 258.527344 188.875 C 258.96875 188.800781 259.410156 188.875 259.777344 189.019531 C 259.703125 189.09375 259.628906 189.167969 259.628906 189.242188 C 259.113281 190.121094 258.894531 191.226562 259.335938 192.179688 C 259.777344 193.136719 260.878906 193.578125 261.6875 192.84375 C 262.570312 192.105469 262.570312 190.859375 262.199219 189.902344 C 262.054688 189.535156 261.832031 189.242188 261.613281 188.945312 C 261.980469 188.800781 262.421875 188.800781 262.863281 188.945312 C 263.671875 189.167969 264.257812 189.753906 264.625 190.5625 C 265.507812 192.402344 264.699219 194.679688 263.964844 196.445312 C 263.375 197.839844 262.347656 199.605469 260.730469 199.75 C 260.730469 199.75 260.65625 199.75 260.65625 199.75 C 260.65625 199.75 260.585938 199.75 260.585938 199.75 C 258.894531 200.117188 257.128906 199.53125 255.808594 198.5 C 254.484375 197.398438 253.675781 195.707031 253.308594 194.019531 C 253.160156 193.210938 252.941406 192.035156 253.308594 191.300781 C 253.527344 190.710938 254.265625 190.492188 254.851562 190.636719 Z M 254.851562 190.636719 " fill-opacity="1" fill-rule="nonzero"/><path fill="#000000" d="M 205.832031 63.128906 C 206.199219 63.199219 206.640625 63.199219 207.007812 63.199219 C 212.742188 63.199219 215.972656 58.351562 216.121094 58.128906 C 216.269531 57.910156 216.195312 57.542969 215.972656 57.394531 C 215.753906 57.246094 215.386719 57.320312 215.238281 57.542969 C 215.238281 57.617188 211.785156 62.6875 206.050781 62.023438 C 205.757812 61.953125 205.464844 62.171875 205.464844 62.539062 C 205.242188 62.832031 205.464844 63.128906 205.832031 63.128906 Z M 205.832031 63.128906 " fill-opacity="1" fill-rule="nonzero"/><g clip-path="url(#d73ee326fc)"><path fill="#000000" d="M 244.488281 198.648438 L 247.648438 177.335938 L 246.546875 177.1875 L 243.460938 198.058594 L 158.796875 209.453125 C 150.566406 206.585938 136.160156 201.441406 130.722656 199.234375 C 126.238281 197.398438 121.609375 200.484375 117.714844 204.011719 L 115.507812 194.238281 L 158.648438 182.257812 C 158.871094 182.1875 159.015625 182.039062 159.015625 181.820312 L 160.78125 171.96875 L 159.679688 171.824219 L 157.988281 181.304688 L 115.289062 193.136719 L 110.363281 171.015625 C 109.851562 168.808594 107.941406 167.265625 105.734375 167.265625 L 5.785156 167.265625 C 4.316406 167.265625 2.992188 167.929688 2.035156 169.03125 C 1.15625 170.132812 0.785156 171.601562 1.082031 173.074219 L 15.484375 237.746094 C 16 239.953125 17.910156 241.496094 20.117188 241.496094 L 120.140625 241.496094 C 121.609375 241.496094 122.933594 240.832031 123.886719 239.730469 C 124.769531 238.628906 125.136719 237.160156 124.84375 235.6875 L 123.152344 228.046875 C 123.8125 228.046875 124.917969 227.824219 126.238281 227.679688 C 129.253906 227.164062 133.882812 226.429688 136.601562 227.238281 C 136.75 227.308594 137.191406 227.75 137.558594 228.117188 C 139.46875 229.882812 143.730469 233.777344 148.65625 236.128906 L 152.035156 236.203125 C 151.742188 236.128906 151.519531 236.054688 151.226562 235.984375 C 145.566406 234 140.496094 229.292969 138.367188 227.308594 C 137.484375 226.503906 137.261719 226.28125 137.042969 226.207031 C 136.015625 225.914062 134.839844 225.765625 133.515625 225.765625 C 131.015625 225.765625 128.296875 226.207031 126.09375 226.574219 C 124.84375 226.796875 123.742188 226.941406 123.152344 226.941406 C 123.078125 226.941406 123.003906 226.941406 122.933594 226.941406 L 122.34375 224.371094 C 125.578125 222.753906 133.222656 219.152344 134.839844 218.933594 C 136.453125 218.710938 141.527344 220.109375 143.289062 220.695312 C 143.582031 220.769531 143.878906 220.621094 143.949219 220.328125 C 144.023438 220.035156 143.878906 219.742188 143.582031 219.667969 C 143.289062 219.59375 136.894531 217.609375 134.691406 217.902344 C 132.78125 218.125 124.621094 222.09375 122.125 223.269531 L 120.949219 218.125 C 123.371094 216.433594 129.179688 212.539062 131.308594 212.316406 C 134.03125 212.023438 140.421875 213.933594 140.496094 213.933594 C 140.789062 214.007812 141.085938 213.859375 141.160156 213.566406 C 141.230469 213.273438 141.085938 212.980469 140.789062 212.90625 C 140.496094 212.832031 134.175781 210.996094 131.238281 211.214844 C 128.738281 211.4375 122.785156 215.476562 120.726562 216.949219 L 119.476562 211.214844 C 120.433594 210.261719 124.402344 206.363281 126.828125 205.777344 C 129.105469 205.261719 136.382812 207.171875 138.953125 207.980469 C 139.246094 208.054688 139.542969 207.910156 139.613281 207.613281 C 139.6875 207.320312 139.542969 207.027344 139.246094 206.953125 C 138.878906 206.804688 129.546875 204.011719 126.53125 204.75 C 124.109375 205.335938 120.652344 208.496094 119.183594 209.964844 L 118.15625 205.1875 C 121.902344 201.660156 126.386719 198.5 130.429688 200.191406 C 135.867188 202.46875 150.492188 207.613281 158.722656 210.554688 C 158.871094 210.628906 159.015625 210.554688 159.164062 210.480469 L 244.121094 199.089844 C 244.269531 199.089844 244.488281 198.867188 244.488281 198.648438 Z M 123.8125 235.910156 C 124.035156 237.011719 123.8125 238.113281 123.078125 238.996094 C 122.34375 239.878906 121.316406 240.390625 120.210938 240.390625 L 20.1875 240.390625 C 18.425781 240.390625 16.957031 239.214844 16.589844 237.527344 L 2.183594 172.851562 C 1.964844 171.75 2.183594 170.648438 2.917969 169.765625 C 3.652344 168.882812 4.683594 168.371094 5.785156 168.371094 L 105.808594 168.371094 C 107.570312 168.371094 109.042969 169.546875 109.410156 171.234375 Z M 123.8125 235.910156 " fill-opacity="1" fill-rule="nonzero"/></g><path fill="#000000" d="M 205.980469 37.476562 C 205.683594 37.332031 205.390625 37.476562 205.242188 37.773438 C 204.214844 40.125 199.4375 52.03125 201.9375 54.308594 C 203.039062 55.265625 204.363281 55.558594 205.539062 55.558594 C 207.15625 55.558594 208.550781 55.042969 208.625 54.96875 C 208.917969 54.824219 209.066406 54.527344 208.917969 54.234375 C 208.84375 53.941406 208.476562 53.792969 208.183594 53.941406 C 208.183594 53.941406 204.65625 55.265625 202.597656 53.5 C 201.203125 52.25 203.847656 43.796875 206.199219 38.214844 C 206.417969 37.917969 206.273438 37.625 205.980469 37.476562 Z M 205.980469 37.476562 " fill-opacity="1" fill-rule="nonzero"/><path fill="#000000" d="M 286.96875 182.699219 L 286.675781 182.257812 C 285.644531 182.996094 283.367188 194.019531 280.648438 211.875 C 279.105469 221.871094 274.695312 229.292969 267.933594 233.261719 C 262.863281 236.277344 258.085938 236.277344 258.011719 236.277344 L 190.617188 236.351562 L 190.617188 237.453125 L 257.9375 237.378906 C 258.230469 237.378906 277.78125 237.160156 281.675781 212.023438 C 285.644531 186.007812 287.1875 183.289062 287.335938 183.066406 Z M 286.96875 182.699219 " fill-opacity="1" fill-rule="nonzero"/><path fill="#000000" d="M 174.890625 183.363281 C 174.964844 183.582031 175.183594 183.65625 175.40625 183.65625 C 175.480469 183.65625 175.554688 183.65625 175.625 183.582031 C 175.921875 183.433594 176.066406 183.140625 175.921875 182.847656 C 175.847656 182.625 166.734375 161.535156 170.261719 148.894531 C 173.863281 136.03125 180.328125 122.214844 180.402344 122.070312 C 180.550781 121.773438 180.402344 121.480469 180.109375 121.332031 C 179.816406 121.1875 179.523438 121.332031 179.375 121.628906 C 179.300781 121.773438 172.832031 135.664062 169.234375 148.597656 C 167.6875 154.113281 168.203125 161.609375 170.703125 170.941406 C 172.464844 177.921875 174.816406 183.363281 174.890625 183.363281 Z M 174.890625 183.363281 " fill-opacity="1" fill-rule="nonzero"/><path fill="#000000" d="M 4.609375 141.03125 L 87.363281 141.03125 C 87.582031 141.03125 87.730469 140.882812 87.730469 140.664062 L 87.730469 80.03125 C 87.730469 79.808594 87.582031 79.664062 87.363281 79.664062 L 4.609375 79.664062 C 4.386719 79.664062 4.242188 79.808594 4.242188 80.03125 L 4.242188 140.664062 C 4.242188 140.882812 4.460938 141.03125 4.609375 141.03125 Z M 4.976562 80.472656 L 86.992188 80.472656 L 86.992188 140.367188 L 4.976562 140.367188 Z M 4.976562 80.472656 " fill-opacity="1" fill-rule="nonzero"/><path fill="#000000" d="M 213.035156 42.328125 C 213.109375 41.742188 213.109375 41.152344 212.8125 40.636719 C 212.519531 40.125 212.078125 39.683594 211.269531 40.492188 C 210.386719 41.375 210.316406 43.871094 211.636719 44.019531 C 212.59375 44.167969 212.886719 43.136719 213.035156 42.328125 Z M 213.035156 42.328125 " fill-opacity="1" fill-rule="nonzero"/><path fill="#000000" d="M 217.957031 36.890625 C 218.03125 37.039062 218.253906 37.109375 218.398438 37.109375 C 218.546875 37.109375 218.691406 37.039062 218.765625 36.964844 C 218.988281 36.742188 218.988281 36.449219 218.839844 36.15625 C 218.691406 36.007812 215.460938 32.332031 209.875 34.171875 C 209.582031 34.246094 209.433594 34.539062 209.507812 34.832031 C 209.582031 35.125 209.949219 35.273438 210.167969 35.199219 C 215.019531 33.582031 217.8125 36.742188 217.957031 36.890625 Z M 217.957031 36.890625 " fill-opacity="1" fill-rule="nonzero"/><path fill="#000000" d="M 199.21875 39.023438 C 198.335938 39.902344 198.261719 42.402344 199.585938 42.550781 C 200.46875 42.695312 200.835938 41.59375 200.90625 40.859375 C 200.980469 40.269531 200.980469 39.683594 200.6875 39.167969 C 200.46875 38.65625 200.027344 38.214844 199.21875 39.023438 Z M 199.21875 39.023438 " fill-opacity="1" fill-rule="nonzero"/><g fill="#3779e3" fill-opacity="1"><g transform="translate(219.415883, 114.844443)"><g><path d="M 1.03125 -1.25 C 1.03125 -1.738281 1.160156 -2.109375 1.421875 -2.359375 C 1.679688 -2.609375 2.0625 -2.734375 2.5625 -2.734375 C 3.050781 -2.734375 3.425781 -2.601562 3.6875 -2.34375 C 3.957031 -2.09375 4.09375 -1.726562 4.09375 -1.25 C 4.09375 -0.789062 3.957031 -0.425781 3.6875 -0.15625 C 3.414062 0.101562 3.039062 0.234375 2.5625 0.234375 C 2.070312 0.234375 1.691406 0.101562 1.421875 -0.15625 C 1.160156 -0.414062 1.03125 -0.78125 1.03125 -1.25 Z M 1.03125 -1.25 "/></g></g></g></svg>