<svg xmlns="http://www.w3.org/2000/svg" xmlns:xlink="http://www.w3.org/1999/xlink" width="308" zoomAndPan="magnify" viewBox="0 0 230.87999 231" height="308" preserveAspectRatio="xMidYMid meet" version="1.0"><defs><g/><clipPath id="4afb6da843"><path d="M 0.300781 92 L 230.429688 92 L 230.429688 230.191406 L 0.300781 230.191406 Z M 0.300781 92 " clip-rule="nonzero"/></clipPath><clipPath id="8212c36d09"><path d="M 57 0.0585938 L 174 0.0585938 L 174 116 L 57 116 Z M 57 0.0585938 " clip-rule="nonzero"/></clipPath></defs><g clip-path="url(#4afb6da843)"><path fill="#2c61b6" d="M 8.410156 125.824219 L 35.605469 100.355469 C 36.292969 99.722656 37.179688 99.769531 37.777344 100.023438 C 38.183594 100.203125 38.679688 100.5625 38.679688 101.222656 L 38.679688 111.359375 C 38.679688 113.472656 40.386719 115.195312 42.5 115.195312 C 58.691406 115.195312 74.402344 119.78125 87.96875 128.492188 C 96.890625 134.175781 104.519531 141.476562 110.757812 150.066406 C 105.660156 158.042969 101.734375 166.855469 99.273438 176.242188 C 90.054688 153.949219 68.09375 138.222656 42.5 138.222656 C 40.386719 138.222656 38.679688 139.929688 38.679688 142.058594 L 38.679688 152.195312 C 38.679688 152.855469 38.183594 153.199219 37.777344 153.378906 C 37.179688 153.632812 36.28125 153.695312 35.621094 153.078125 L 8.394531 127.578125 C 8.050781 127.265625 7.976562 126.917969 7.976562 126.710938 C 7.976562 126.484375 8.050781 126.15625 8.410156 125.824219 Z M 188.371094 115.195312 C 190.484375 115.195312 192.207031 113.472656 192.207031 111.359375 L 192.207031 101.222656 C 192.207031 100.5625 192.6875 100.203125 193.089844 100.023438 C 193.347656 99.917969 193.660156 99.84375 193.976562 99.84375 C 194.410156 99.84375 194.875 99.980469 195.25 100.339844 L 222.476562 125.839844 C 222.820312 126.15625 222.894531 126.484375 222.894531 126.710938 C 222.894531 126.917969 222.820312 127.265625 222.476562 127.59375 L 195.265625 153.050781 C 194.574219 153.695312 193.691406 153.632812 193.089844 153.378906 C 192.6875 153.199219 192.207031 152.855469 192.207031 152.195312 L 192.207031 142.058594 C 192.207031 139.929688 190.484375 138.222656 188.371094 138.222656 C 154.503906 138.222656 126.949219 165.761719 126.949219 199.628906 L 126.949219 218.816406 C 126.949219 220.929688 125.226562 222.65625 123.109375 222.65625 L 107.757812 222.65625 C 105.644531 222.65625 103.921875 220.929688 103.921875 218.816406 L 103.921875 199.628906 C 103.921875 153.0625 141.804688 115.195312 188.371094 115.195312 Z M 30.386719 158.699219 C 33.207031 161.292969 37.3125 161.96875 40.851562 160.410156 C 44.238281 158.925781 46.339844 155.777344 46.339844 152.195312 L 46.339844 146.03125 C 74.195312 147.996094 96.246094 171.292969 96.246094 199.628906 L 96.246094 218.816406 C 96.246094 225.171875 101.402344 230.332031 107.757812 230.332031 L 123.109375 230.332031 C 129.46875 230.332031 134.625 225.171875 134.625 218.816406 L 134.625 199.628906 C 134.625 171.292969 156.675781 147.996094 184.53125 146.03125 L 184.53125 152.195312 C 184.53125 155.777344 186.628906 158.925781 190.019531 160.410156 C 193.554688 161.96875 197.664062 161.292969 200.496094 158.671875 L 227.707031 133.199219 C 229.550781 131.476562 230.570312 129.183594 230.570312 126.710938 C 230.570312 124.234375 229.550781 121.925781 227.722656 120.21875 L 200.484375 94.71875 C 197.679688 92.125 193.570312 91.433594 190.019531 92.992188 C 186.628906 94.476562 184.53125 97.625 184.53125 101.222656 L 184.53125 107.59375 C 156.40625 108.75 131.519531 122.585938 115.390625 143.5 C 108.867188 135.03125 101.117188 127.757812 92.09375 122.015625 C 78.375 113.214844 62.636719 108.269531 46.339844 107.59375 L 46.339844 101.222656 C 46.339844 97.625 44.238281 94.476562 40.851562 92.992188 C 37.3125 91.449219 33.207031 92.125 30.371094 94.730469 L 3.164062 120.203125 C 1.320312 121.925781 0.300781 124.234375 0.300781 126.710938 C 0.300781 129.183594 1.320312 131.476562 3.164062 133.183594 L 30.386719 158.699219 " fill-opacity="1" fill-rule="nonzero"/></g><g clip-path="url(#8212c36d09)"><path fill="#2c61b6" d="M 115.433594 7.734375 C 142.945312 7.734375 165.328125 30.117188 165.328125 57.628906 C 165.328125 85.136719 142.945312 107.519531 115.433594 107.519531 C 87.925781 107.519531 65.542969 85.136719 65.542969 57.628906 C 65.542969 30.117188 87.925781 7.734375 115.433594 7.734375 Z M 115.433594 115.195312 C 147.1875 115.195312 173.003906 89.363281 173.003906 57.628906 C 173.003906 25.890625 147.1875 0.0585938 115.433594 0.0585938 C 83.683594 0.0585938 57.867188 25.890625 57.867188 57.628906 C 57.867188 89.363281 83.683594 115.195312 115.433594 115.195312 " fill-opacity="1" fill-rule="nonzero"/></g><path fill="#2c61b6" d="M 92.410156 49.953125 C 94.523438 49.953125 96.246094 48.226562 96.246094 46.113281 C 96.246094 35.53125 104.851562 26.925781 115.433594 26.925781 C 126.019531 26.925781 134.625 35.53125 134.625 46.113281 C 134.625 56.699219 126.019531 65.304688 115.433594 65.304688 C 113.320312 65.304688 111.597656 67.027344 111.597656 69.140625 L 111.597656 72.980469 C 111.597656 75.09375 113.320312 76.816406 115.433594 76.816406 C 117.550781 76.816406 119.273438 75.09375 119.273438 72.980469 L 119.273438 72.710938 C 132.269531 70.835938 142.300781 59.621094 142.300781 46.113281 C 142.300781 31.300781 130.246094 19.25 115.433594 19.25 C 100.625 19.25 88.570312 31.300781 88.570312 46.113281 C 88.570312 48.226562 90.292969 49.953125 92.410156 49.953125 " fill-opacity="1" fill-rule="nonzero"/><path fill="#2c61b6" d="M 115.433594 84.492188 C 113.320312 84.492188 111.597656 86.214844 111.597656 88.332031 L 111.597656 92.167969 C 111.597656 94.28125 113.320312 96.007812 115.433594 96.007812 C 117.550781 96.007812 119.273438 94.28125 119.273438 92.167969 L 119.273438 88.332031 C 119.273438 86.214844 117.550781 84.492188 115.433594 84.492188 " fill-opacity="1" fill-rule="nonzero"/><g fill="#2c61b6" fill-opacity="1"><g transform="translate(112.874917, 148.932626)"><g><path d="M 1.03125 -1.25 C 1.03125 -1.75 1.160156 -2.125 1.421875 -2.375 C 1.679688 -2.625 2.066406 -2.75 2.578125 -2.75 C 3.054688 -2.75 3.425781 -2.617188 3.6875 -2.359375 C 3.957031 -2.097656 4.09375 -1.726562 4.09375 -1.25 C 4.09375 -0.789062 3.957031 -0.425781 3.6875 -0.15625 C 3.425781 0.101562 3.054688 0.234375 2.578125 0.234375 C 2.078125 0.234375 1.691406 0.101562 1.421875 -0.15625 C 1.160156 -0.414062 1.03125 -0.78125 1.03125 -1.25 Z M 1.03125 -1.25 "/></g></g></g></svg>