<svg xmlns="http://www.w3.org/2000/svg" xmlns:xlink="http://www.w3.org/1999/xlink" width="308" zoomAndPan="magnify" viewBox="0 0 230.87999 231" height="308" preserveAspectRatio="xMidYMid meet" version="1.0"><defs><g/><clipPath id="37915f7c40"><path d="M 0.601562 0.210938 L 230.730469 0.210938 L 230.730469 230.339844 L 0.601562 230.339844 Z M 0.601562 0.210938 " clip-rule="nonzero"/></clipPath></defs><g clip-path="url(#37915f7c40)"><path fill="#2c61b6" d="M 213.292969 0.210938 L 158.175781 0.210938 L 158.175781 204.941406 L 143.320312 204.941406 L 143.320312 52.105469 L 88.199219 52.105469 L 88.199219 204.941406 L 73.34375 204.941406 L 73.34375 92.332031 L 18.226562 92.332031 L 18.226562 204.941406 L 0.601562 204.941406 L 0.601562 230.480469 L 230.871094 230.480469 L 230.871094 204.941406 L 213.292969 204.941406 Z M 167.976562 10.007812 L 203.496094 10.007812 L 203.496094 204.941406 L 167.976562 204.941406 Z M 97.949219 61.90625 L 133.472656 61.90625 L 133.472656 204.941406 L 97.949219 204.941406 Z M 27.976562 102.128906 L 63.496094 102.128906 L 63.496094 204.941406 L 27.976562 204.941406 Z M 221.070312 214.742188 L 221.070312 220.683594 L 10.398438 220.683594 L 10.398438 214.742188 Z M 221.070312 214.742188 " fill-opacity="1" fill-rule="nonzero"/></g><g fill="#2c61b6" fill-opacity="1"><g transform="translate(204.327377, 175.168987)"><g><path d="M 1.03125 -1.25 C 1.03125 -1.75 1.160156 -2.125 1.421875 -2.375 C 1.679688 -2.625 2.066406 -2.75 2.578125 -2.75 C 3.054688 -2.75 3.425781 -2.617188 3.6875 -2.359375 C 3.957031 -2.097656 4.09375 -1.726562 4.09375 -1.25 C 4.09375 -0.789062 3.957031 -0.425781 3.6875 -0.15625 C 3.425781 0.101562 3.054688 0.234375 2.578125 0.234375 C 2.078125 0.234375 1.691406 0.101562 1.421875 -0.15625 C 1.160156 -0.414062 1.03125 -0.78125 1.03125 -1.25 Z M 1.03125 -1.25 "/></g></g></g></svg>