<svg xmlns="http://www.w3.org/2000/svg" xmlns:xlink="http://www.w3.org/1999/xlink" width="1920" zoomAndPan="magnify" viewBox="0 0 1440 599.999999" height="800" preserveAspectRatio="xMidYMid meet" version="1.0"><defs><g/><clipPath id="ab99b5e20c"><path d="M 490 443.632812 L 516 443.632812 L 516 469 L 490 469 Z M 490 443.632812 " clip-rule="nonzero"/></clipPath><clipPath id="7017a6e6c3"><path d="M 59 557.1875 L 86 557.1875 L 86 583 L 59 583 Z M 59 557.1875 " clip-rule="nonzero"/></clipPath></defs><rect x="-144" width="1728" fill="#ffffff" y="-60" height="719.999999" fill-opacity="1"/><rect x="-144" width="1728" fill="#00a896" y="-60" height="719.999999" fill-opacity="1"/><path fill="#e3e3e7" d="M 565.984375 525.214844 C 559.070312 525.214844 553.445312 519.59375 553.445312 512.675781 C 553.445312 505.757812 559.070312 500.136719 565.984375 500.136719 C 572.902344 500.136719 578.527344 505.757812 578.527344 512.675781 C 578.527344 519.589844 572.898438 525.214844 565.984375 525.214844 Z M 565.984375 503.34375 C 560.839844 503.34375 556.652344 507.53125 556.652344 512.675781 C 556.652344 517.820312 560.839844 522.007812 565.984375 522.007812 C 571.132812 522.007812 575.316406 517.820312 575.316406 512.675781 C 575.316406 507.53125 571.132812 503.34375 565.984375 503.34375 Z M 565.984375 503.34375 " fill-opacity="1" fill-rule="nonzero"/><g clip-path="url(#ab99b5e20c)"><path fill="#e3e3e7" d="M 502.558594 468.621094 C 495.644531 468.621094 490.019531 463 490.019531 456.082031 C 490.019531 449.164062 495.640625 443.542969 502.558594 443.542969 C 509.476562 443.542969 515.097656 449.164062 515.097656 456.082031 C 515.097656 463 509.472656 468.621094 502.558594 468.621094 Z M 502.558594 446.753906 C 497.414062 446.753906 493.226562 450.9375 493.226562 456.085938 C 493.226562 461.230469 497.414062 465.417969 502.558594 465.417969 C 507.703125 465.417969 511.890625 461.230469 511.890625 456.085938 C 511.890625 450.9375 507.703125 446.753906 502.558594 446.753906 Z M 502.558594 446.753906 " fill-opacity="1" fill-rule="nonzero"/></g><path fill="#e3e3e7" d="M 416.621094 588.09375 L 194.054688 588.09375 L 119.769531 513.808594 L 122.039062 511.539062 L 195.382812 584.886719 L 416.621094 584.886719 Z M 416.621094 588.09375 " fill-opacity="1" fill-rule="nonzero"/><path fill="#e3e3e7" d="M 429.332031 600.808594 C 421.4375 600.808594 415.015625 594.386719 415.015625 586.492188 C 415.015625 578.597656 421.4375 572.175781 429.332031 572.175781 C 437.230469 572.175781 443.652344 578.597656 443.652344 586.492188 C 443.652344 594.386719 437.230469 600.808594 429.332031 600.808594 Z M 429.332031 575.378906 C 423.207031 575.378906 418.222656 580.363281 418.222656 586.492188 C 418.222656 592.613281 423.207031 597.597656 429.332031 597.597656 C 435.460938 597.597656 440.441406 592.613281 440.441406 586.492188 C 440.441406 580.367188 435.460938 575.378906 429.332031 575.378906 Z M 429.332031 575.378906 " fill-opacity="1" fill-rule="nonzero"/><path fill="#e3e3e7" d="M 286.890625 513.808594 L 284.625 511.539062 L 341.683594 454.476562 L 491.621094 454.476562 L 491.621094 457.6875 L 343.011719 457.6875 Z M 286.890625 513.808594 " fill-opacity="1" fill-rule="nonzero"/><path fill="#e3e3e7" d="M -242.863281 656.441406 L -331.011719 656.441406 L -331.011719 653.234375 L -244.191406 653.234375 L -102.027344 511.070312 L 554.777344 511.070312 L 554.777344 514.28125 L -100.699219 514.28125 Z M -242.863281 656.441406 " fill-opacity="1" fill-rule="nonzero"/><g clip-path="url(#7017a6e6c3)"><path fill="#ffffff" d="M 72.507812 582.179688 C 65.59375 582.179688 59.964844 576.554688 59.964844 569.636719 C 59.964844 562.722656 65.589844 557.097656 72.507812 557.097656 C 79.421875 557.097656 85.046875 562.722656 85.046875 569.636719 C 85.046875 576.554688 79.421875 582.179688 72.507812 582.179688 Z M 72.507812 560.308594 C 67.359375 560.308594 63.175781 564.496094 63.175781 569.640625 C 63.175781 574.785156 67.359375 578.972656 72.507812 578.972656 C 77.652344 578.972656 81.839844 574.785156 81.839844 569.640625 C 81.839844 564.496094 77.652344 560.308594 72.507812 560.308594 Z M 72.507812 560.308594 " fill-opacity="1" fill-rule="nonzero"/></g><path fill="#ffffff" d="M -143.160156 627.363281 L -145.429688 625.097656 L -88.367188 568.035156 L 61.570312 568.035156 L 61.570312 571.242188 L -87.039062 571.242188 Z M -143.160156 627.363281 " fill-opacity="1" fill-rule="nonzero"/><path fill="#e3e3e7" d="M 2135.699219 712.074219 L 1678.238281 712.074219 L 1518.199219 552.03125 L 1249.804688 552.03125 L 1249.804688 547.480469 L 1520.085938 547.480469 L 1680.121094 707.523438 L 2135.699219 707.523438 Z M 2135.699219 712.074219 " fill-opacity="1" fill-rule="nonzero"/><path fill="#e3e3e7" d="M 1423.402344 551.367188 L 1420.183594 548.148438 L 1508.597656 459.734375 L 1618.519531 459.734375 L 1683.351562 524.566406 L 1762.660156 524.566406 L 1831.382812 455.847656 L 2203.84375 455.847656 L 2203.84375 460.398438 L 1833.265625 460.398438 L 1764.542969 529.117188 L 1681.46875 529.117188 L 1616.632812 464.289062 L 1510.484375 464.289062 Z M 1423.402344 551.367188 " fill-opacity="1" fill-rule="nonzero"/><path fill="#e3e3e7" d="M 1249.804688 549.761719 C 1249.804688 550.441406 1249.738281 551.113281 1249.605469 551.777344 C 1249.476562 552.445312 1249.277344 553.089844 1249.019531 553.71875 C 1248.757812 554.347656 1248.441406 554.941406 1248.0625 555.507812 C 1247.6875 556.070312 1247.257812 556.59375 1246.777344 557.074219 C 1246.296875 557.554688 1245.773438 557.984375 1245.210938 558.359375 C 1244.644531 558.738281 1244.050781 559.054688 1243.421875 559.316406 C 1242.792969 559.578125 1242.148438 559.773438 1241.480469 559.90625 C 1240.816406 560.039062 1240.144531 560.105469 1239.464844 560.105469 C 1238.785156 560.105469 1238.113281 560.039062 1237.445312 559.90625 C 1236.78125 559.773438 1236.132812 559.578125 1235.503906 559.316406 C 1234.878906 559.054688 1234.28125 558.738281 1233.71875 558.359375 C 1233.152344 557.984375 1232.628906 557.554688 1232.152344 557.074219 C 1231.671875 556.59375 1231.242188 556.070312 1230.863281 555.507812 C 1230.488281 554.941406 1230.167969 554.347656 1229.910156 553.71875 C 1229.648438 553.089844 1229.453125 552.445312 1229.320312 551.777344 C 1229.1875 551.113281 1229.121094 550.441406 1229.121094 549.761719 C 1229.121094 549.082031 1229.1875 548.410156 1229.320312 547.742188 C 1229.453125 547.078125 1229.648438 546.429688 1229.910156 545.804688 C 1230.167969 545.175781 1230.488281 544.578125 1230.863281 544.015625 C 1231.242188 543.449219 1231.671875 542.929688 1232.152344 542.449219 C 1232.628906 541.96875 1233.152344 541.539062 1233.71875 541.160156 C 1234.28125 540.785156 1234.878906 540.464844 1235.503906 540.207031 C 1236.132812 539.945312 1236.78125 539.75 1237.445312 539.617188 C 1238.113281 539.484375 1238.785156 539.417969 1239.464844 539.417969 C 1240.144531 539.417969 1240.816406 539.484375 1241.480469 539.617188 C 1242.148438 539.75 1242.792969 539.945312 1243.421875 540.207031 C 1244.050781 540.464844 1244.644531 540.785156 1245.210938 541.164062 C 1245.773438 541.539062 1246.296875 541.96875 1246.777344 542.449219 C 1247.257812 542.929688 1247.6875 543.449219 1248.0625 544.015625 C 1248.441406 544.582031 1248.757812 545.175781 1249.019531 545.804688 C 1249.277344 546.429688 1249.476562 547.078125 1249.605469 547.742188 C 1249.738281 548.410156 1249.804688 549.082031 1249.804688 549.761719 Z M 1249.804688 549.761719 " fill-opacity="1" fill-rule="nonzero"/><g fill="#ff00ff" fill-opacity="1"><g transform="translate(62.562046, 276.951625)"><g><path d="M 29.375 1.09375 C 20.90625 1.09375 14.597656 -1.890625 10.453125 -7.859375 C 6.304688 -13.828125 4.234375 -22.867188 4.234375 -34.984375 L 4.234375 -85.53125 C 4.234375 -96.375 6.644531 -104.570312 11.46875 -110.125 C 16.300781 -115.6875 23.5 -118.46875 33.0625 -118.46875 C 40.8125 -118.46875 46.828125 -116.914062 51.109375 -113.8125 C 55.390625 -110.71875 58.347656 -106.207031 59.984375 -100.28125 C 61.617188 -94.363281 62.4375 -86.757812 62.4375 -77.46875 L 39.484375 -77.46875 L 39.484375 -88 C 39.484375 -90.820312 39.097656 -93.003906 38.328125 -94.546875 C 37.554688 -96.097656 36.164062 -96.875 34.15625 -96.875 C 29.695312 -96.875 27.46875 -93.960938 27.46875 -88.140625 L 27.46875 -31.296875 C 27.46875 -27.742188 27.921875 -25.054688 28.828125 -23.234375 C 29.742188 -21.410156 31.335938 -20.5 33.609375 -20.5 C 35.890625 -20.5 37.484375 -21.410156 38.390625 -23.234375 C 39.304688 -25.054688 39.765625 -27.742188 39.765625 -31.296875 L 39.765625 -48.09375 L 33.484375 -48.09375 L 33.484375 -68.3125 L 62.171875 -68.3125 L 62.171875 0 L 52.75 0 L 48.78125 -9.84375 C 44.59375 -2.550781 38.125 1.09375 29.375 1.09375 Z M 29.375 1.09375 "/></g></g></g><g fill="#ff00ff" fill-opacity="1"><g transform="translate(128.831699, 276.951625)"><g><path d="M 5.1875 0 L 5.1875 -117.375 L 52.203125 -117.375 L 52.203125 -94.6875 L 29.109375 -94.6875 L 29.109375 -71.875 L 51.234375 -71.875 L 51.234375 -49.734375 L 29.109375 -49.734375 L 29.109375 -22.8125 L 53.703125 -22.8125 L 53.703125 0 Z M 5.1875 0 "/></g></g></g><g fill="#ff00ff" fill-opacity="1"><g transform="translate(185.126743, 276.951625)"><g><path d="M 33.0625 1.09375 C 22.40625 1.09375 14.707031 -1.546875 9.96875 -6.828125 C 5.238281 -12.109375 2.875 -20.628906 2.875 -32.390625 L 2.875 -43.859375 L 25.96875 -43.859375 L 25.96875 -29.234375 C 25.96875 -23.410156 27.832031 -20.5 31.5625 -20.5 C 33.65625 -20.5 35.113281 -21.113281 35.9375 -22.34375 C 36.757812 -23.570312 37.171875 -25.644531 37.171875 -28.5625 C 37.171875 -32.382812 36.710938 -35.546875 35.796875 -38.046875 C 34.890625 -40.554688 33.726562 -42.65625 32.3125 -44.34375 C 30.90625 -46.03125 28.378906 -48.648438 24.734375 -52.203125 L 14.625 -62.3125 C 6.789062 -69.957031 2.875 -78.425781 2.875 -87.71875 C 2.875 -97.738281 5.171875 -105.367188 9.765625 -110.609375 C 14.367188 -115.847656 21.085938 -118.46875 29.921875 -118.46875 C 40.492188 -118.46875 48.101562 -115.664062 52.75 -110.0625 C 57.394531 -104.457031 59.71875 -95.691406 59.71875 -83.765625 L 35.796875 -83.765625 L 35.65625 -91.828125 C 35.65625 -93.367188 35.222656 -94.59375 34.359375 -95.5 C 33.492188 -96.414062 32.289062 -96.875 30.75 -96.875 C 28.925781 -96.875 27.554688 -96.375 26.640625 -95.375 C 25.734375 -94.375 25.28125 -93.007812 25.28125 -91.28125 C 25.28125 -87.445312 27.46875 -83.484375 31.84375 -79.390625 L 45.5 -66.265625 C 48.6875 -63.171875 51.328125 -60.234375 53.421875 -57.453125 C 55.515625 -54.679688 57.195312 -51.40625 58.46875 -47.625 C 59.75 -43.84375 60.390625 -39.351562 60.390625 -34.15625 C 60.390625 -22.59375 58.269531 -13.828125 54.03125 -7.859375 C 49.800781 -1.890625 42.8125 1.09375 33.0625 1.09375 Z M 33.0625 1.09375 "/></g></g></g><g fill="#ff00ff" fill-opacity="1"><g transform="translate(248.11707, 276.951625)"><g><path d="M 15.296875 0 L 15.296875 -94.828125 L 1.359375 -94.828125 L 1.359375 -117.375 L 52.75 -117.375 L 52.75 -94.828125 L 38.8125 -94.828125 L 38.8125 0 Z M 15.296875 0 "/></g></g></g><g fill="#ff00ff" fill-opacity="1"><g transform="translate(302.225892, 276.951625)"><g><path d="M 2.046875 0 L 13.390625 -117.375 L 53.15625 -117.375 L 64.359375 0 L 42.078125 0 L 40.453125 -19 L 26.234375 -19 L 24.875 0 Z M 28.015625 -37.71875 L 38.671875 -37.71875 L 33.484375 -97.421875 L 32.390625 -97.421875 Z M 44.140625 -124.890625 C 41.585938 -124.890625 39.238281 -125.207031 37.09375 -125.84375 C 34.957031 -126.488281 32.382812 -127.398438 29.375 -128.578125 C 27.914062 -129.222656 26.503906 -129.769531 25.140625 -130.21875 C 23.773438 -130.675781 22.59375 -130.90625 21.59375 -130.90625 C 18.945312 -130.90625 16.894531 -129.40625 15.4375 -126.40625 L 5.46875 -131.59375 C 7.46875 -136.507812 9.628906 -140.21875 11.953125 -142.71875 C 14.273438 -145.226562 17.625 -146.484375 22 -146.484375 C 24.375 -146.484375 26.515625 -146.207031 28.421875 -145.65625 C 30.335938 -145.113281 32.84375 -144.25 35.9375 -143.0625 C 39.21875 -141.601562 41.675781 -140.875 43.3125 -140.875 C 45.863281 -140.875 47.960938 -142.515625 49.609375 -145.796875 L 60.671875 -142.25 C 59.304688 -138.425781 58.007812 -135.351562 56.78125 -133.03125 C 55.550781 -130.707031 53.910156 -128.769531 51.859375 -127.21875 C 49.804688 -125.664062 47.234375 -124.890625 44.140625 -124.890625 Z M 44.140625 -124.890625 "/></g></g></g><g fill="#ff00ff" fill-opacity="1"><g transform="translate(368.495533, 276.951625)"><g><path d="M 33.203125 1.09375 C 23.734375 1.09375 16.535156 -1.796875 11.609375 -7.578125 C 6.691406 -13.367188 4.234375 -21.5 4.234375 -31.96875 L 4.234375 -87.859375 C 4.234375 -97.972656 6.691406 -105.601562 11.609375 -110.75 C 16.535156 -115.894531 23.734375 -118.46875 33.203125 -118.46875 C 42.679688 -118.46875 49.878906 -115.894531 54.796875 -110.75 C 59.710938 -105.601562 62.171875 -97.972656 62.171875 -87.859375 L 62.171875 -31.96875 C 62.171875 -21.40625 59.710938 -13.253906 54.796875 -7.515625 C 49.878906 -1.773438 42.679688 1.09375 33.203125 1.09375 Z M 33.203125 -20.5 C 35.296875 -20.5 36.707031 -21.410156 37.4375 -23.234375 C 38.164062 -25.054688 38.53125 -27.601562 38.53125 -30.875 L 38.53125 -88.265625 C 38.53125 -90.816406 38.1875 -92.890625 37.5 -94.484375 C 36.820312 -96.078125 35.4375 -96.875 33.34375 -96.875 C 29.425781 -96.875 27.46875 -93.914062 27.46875 -88 L 27.46875 -30.75 C 27.46875 -27.375 27.875 -24.820312 28.6875 -23.09375 C 29.507812 -21.363281 31.015625 -20.5 33.203125 -20.5 Z M 33.203125 -20.5 "/></g></g></g><g fill="#ff00ff" fill-opacity="1"><g transform="translate(434.901817, 276.951625)"><g/></g></g><g fill="#ff00ff" fill-opacity="1"><g transform="translate(466.875211, 276.951625)"><g><path d="M 5.1875 -117.375 L 37.578125 -117.375 C 45.953125 -117.375 52.234375 -115.050781 56.421875 -110.40625 C 60.617188 -105.757812 62.765625 -98.878906 62.859375 -89.765625 L 63.125 -34.84375 C 63.21875 -23.269531 61.210938 -14.566406 57.109375 -8.734375 C 53.015625 -2.910156 46.226562 0 36.75 0 L 5.1875 0 Z M 32.9375 -20.765625 C 37.21875 -20.765625 39.359375 -22.863281 39.359375 -27.0625 L 39.359375 -87.59375 C 39.359375 -90.226562 39.148438 -92.207031 38.734375 -93.53125 C 38.328125 -94.851562 37.578125 -95.738281 36.484375 -96.1875 C 35.390625 -96.644531 33.703125 -96.875 31.421875 -96.875 L 28.828125 -96.875 L 28.828125 -20.765625 Z M 32.9375 -20.765625 "/></g></g></g><g fill="#ff00ff" fill-opacity="1"><g transform="translate(534.237956, 276.951625)"><g><path d="M 5.1875 0 L 5.1875 -117.375 L 52.203125 -117.375 L 52.203125 -94.6875 L 29.109375 -94.6875 L 29.109375 -71.875 L 51.234375 -71.875 L 51.234375 -49.734375 L 29.109375 -49.734375 L 29.109375 -22.8125 L 53.703125 -22.8125 L 53.703125 0 Z M 5.1875 0 "/></g></g></g><g fill="#ff00ff" fill-opacity="1"><g transform="translate(590.533012, 276.951625)"><g/></g></g><g fill="#ff00ff" fill-opacity="1"><g transform="translate(622.50638, 276.951625)"><g><path d="M 32.515625 1.09375 C 23.953125 1.09375 17.097656 -1.59375 11.953125 -6.96875 C 6.804688 -12.34375 4.234375 -19.722656 4.234375 -29.109375 L 4.234375 -83.21875 C 4.234375 -94.875 6.554688 -103.660156 11.203125 -109.578125 C 15.847656 -115.503906 23.132812 -118.46875 33.0625 -118.46875 C 41.71875 -118.46875 48.6875 -116.097656 53.96875 -111.359375 C 59.25 -106.617188 61.890625 -99.785156 61.890625 -90.859375 L 61.890625 -70.640625 L 38.53125 -70.640625 L 38.53125 -88 C 38.53125 -91.363281 38.117188 -93.679688 37.296875 -94.953125 C 36.484375 -96.234375 35.070312 -96.875 33.0625 -96.875 C 30.96875 -96.875 29.53125 -96.144531 28.75 -94.6875 C 27.976562 -93.226562 27.59375 -91.085938 27.59375 -88.265625 L 27.59375 -29.375 C 27.59375 -26.28125 28.046875 -24.023438 28.953125 -22.609375 C 29.867188 -21.203125 31.238281 -20.5 33.0625 -20.5 C 36.707031 -20.5 38.53125 -23.457031 38.53125 -29.375 L 38.53125 -50.5625 L 62.171875 -50.5625 L 62.171875 -28.421875 C 62.171875 -8.742188 52.285156 1.09375 32.515625 1.09375 Z M 32.515625 1.09375 "/></g></g></g><g fill="#ff00ff" fill-opacity="1"><g transform="translate(687.273034, 276.951625)"><g><path d="M 33.203125 1.09375 C 23.734375 1.09375 16.535156 -1.796875 11.609375 -7.578125 C 6.691406 -13.367188 4.234375 -21.5 4.234375 -31.96875 L 4.234375 -87.859375 C 4.234375 -97.972656 6.691406 -105.601562 11.609375 -110.75 C 16.535156 -115.894531 23.734375 -118.46875 33.203125 -118.46875 C 42.679688 -118.46875 49.878906 -115.894531 54.796875 -110.75 C 59.710938 -105.601562 62.171875 -97.972656 62.171875 -87.859375 L 62.171875 -31.96875 C 62.171875 -21.40625 59.710938 -13.253906 54.796875 -7.515625 C 49.878906 -1.773438 42.679688 1.09375 33.203125 1.09375 Z M 33.203125 -20.5 C 35.296875 -20.5 36.707031 -21.410156 37.4375 -23.234375 C 38.164062 -25.054688 38.53125 -27.601562 38.53125 -30.875 L 38.53125 -88.265625 C 38.53125 -90.816406 38.1875 -92.890625 37.5 -94.484375 C 36.820312 -96.078125 35.4375 -96.875 33.34375 -96.875 C 29.425781 -96.875 27.46875 -93.914062 27.46875 -88 L 27.46875 -30.75 C 27.46875 -27.375 27.875 -24.820312 28.6875 -23.09375 C 29.507812 -21.363281 31.015625 -20.5 33.203125 -20.5 Z M 33.203125 -20.5 "/></g></g></g><g fill="#ff00ff" fill-opacity="1"><g transform="translate(753.679319, 276.951625)"><g><path d="M 5.1875 0 L 5.1875 -117.375 L 29.375 -117.375 L 40.171875 -61.21875 L 40.171875 -117.375 L 62.859375 -117.375 L 62.859375 0 L 39.90625 0 L 28.140625 -58.75 L 28.140625 0 Z M 5.1875 0 "/></g></g></g><g fill="#ff00ff" fill-opacity="1"><g transform="translate(821.725286, 276.951625)"><g><path d="M 15.296875 0 L 15.296875 -94.828125 L 1.359375 -94.828125 L 1.359375 -117.375 L 52.75 -117.375 L 52.75 -94.828125 L 38.8125 -94.828125 L 38.8125 0 Z M 15.296875 0 "/></g></g></g><g fill="#ff00ff" fill-opacity="1"><g transform="translate(875.834083, 276.951625)"><g><path d="M 5.1875 0 L 5.1875 -117.375 L 52.203125 -117.375 L 52.203125 -94.6875 L 29.109375 -94.6875 L 29.109375 -71.875 L 51.234375 -71.875 L 51.234375 -49.734375 L 29.109375 -49.734375 L 29.109375 -22.8125 L 53.703125 -22.8125 L 53.703125 0 Z M 5.1875 0 "/></g></g></g><g fill="#ff00ff" fill-opacity="1"><g transform="translate(932.129139, 276.951625)"><g><path d="M 32.390625 1.09375 C 22.734375 1.09375 15.554688 -1.632812 10.859375 -7.09375 C 6.171875 -12.5625 3.828125 -20.671875 3.828125 -31.421875 L 3.828125 -117.375 L 26.640625 -117.375 L 26.640625 -32.390625 C 26.640625 -28.648438 27.003906 -25.734375 27.734375 -23.640625 C 28.460938 -21.546875 30.015625 -20.5 32.390625 -20.5 C 34.753906 -20.5 36.300781 -21.519531 37.03125 -23.5625 C 37.757812 -25.613281 38.125 -28.554688 38.125 -32.390625 L 38.125 -117.375 L 60.9375 -117.375 L 60.9375 -31.421875 C 60.9375 -20.671875 58.59375 -12.5625 53.90625 -7.09375 C 49.21875 -1.632812 42.046875 1.09375 32.390625 1.09375 Z M 16.40625 -120.9375 L 16.40625 -135.828125 L 48.109375 -150.453125 L 48.109375 -127.21875 Z M 16.40625 -120.9375 "/></g></g></g><g fill="#ff00ff" fill-opacity="1"><g transform="translate(996.895793, 276.951625)"><g><path d="M 5.1875 -117.375 L 37.578125 -117.375 C 45.953125 -117.375 52.234375 -115.050781 56.421875 -110.40625 C 60.617188 -105.757812 62.765625 -98.878906 62.859375 -89.765625 L 63.125 -34.84375 C 63.21875 -23.269531 61.210938 -14.566406 57.109375 -8.734375 C 53.015625 -2.910156 46.226562 0 36.75 0 L 5.1875 0 Z M 32.9375 -20.765625 C 37.21875 -20.765625 39.359375 -22.863281 39.359375 -27.0625 L 39.359375 -87.59375 C 39.359375 -90.226562 39.148438 -92.207031 38.734375 -93.53125 C 38.328125 -94.851562 37.578125 -95.738281 36.484375 -96.1875 C 35.390625 -96.644531 33.703125 -96.875 31.421875 -96.875 L 28.828125 -96.875 L 28.828125 -20.765625 Z M 32.9375 -20.765625 "/></g></g></g><g fill="#ff00ff" fill-opacity="1"><g transform="translate(1064.258513, 276.951625)"><g><path d="M 33.203125 1.09375 C 23.734375 1.09375 16.535156 -1.796875 11.609375 -7.578125 C 6.691406 -13.367188 4.234375 -21.5 4.234375 -31.96875 L 4.234375 -87.859375 C 4.234375 -97.972656 6.691406 -105.601562 11.609375 -110.75 C 16.535156 -115.894531 23.734375 -118.46875 33.203125 -118.46875 C 42.679688 -118.46875 49.878906 -115.894531 54.796875 -110.75 C 59.710938 -105.601562 62.171875 -97.972656 62.171875 -87.859375 L 62.171875 -31.96875 C 62.171875 -21.40625 59.710938 -13.253906 54.796875 -7.515625 C 49.878906 -1.773438 42.679688 1.09375 33.203125 1.09375 Z M 33.203125 -20.5 C 35.296875 -20.5 36.707031 -21.410156 37.4375 -23.234375 C 38.164062 -25.054688 38.53125 -27.601562 38.53125 -30.875 L 38.53125 -88.265625 C 38.53125 -90.816406 38.1875 -92.890625 37.5 -94.484375 C 36.820312 -96.078125 35.4375 -96.875 33.34375 -96.875 C 29.425781 -96.875 27.46875 -93.914062 27.46875 -88 L 27.46875 -30.75 C 27.46875 -27.375 27.875 -24.820312 28.6875 -23.09375 C 29.507812 -21.363281 31.015625 -20.5 33.203125 -20.5 Z M 33.203125 -20.5 "/></g></g></g><g fill="#ff00ff" fill-opacity="1"><g transform="translate(1130.664797, 276.951625)"><g/></g></g><g fill="#ff00ff" fill-opacity="1"><g transform="translate(1162.638217, 276.951625)"><g><path d="M 14.34375 0 L 1.78125 -117.375 L 24.734375 -117.375 L 31.296875 -43.3125 L 37.84375 -117.375 L 59.71875 -117.375 L 66 -43.3125 L 72.28125 -117.375 L 95.515625 -117.375 L 82.671875 0 L 54.515625 0 L 48.640625 -56.5625 L 43.046875 0 Z M 14.34375 0 "/></g></g></g><g fill="#ff00ff" fill-opacity="1"><g transform="translate(1259.924765, 276.951625)"><g><path d="M 5.1875 0 L 5.1875 -117.375 L 52.203125 -117.375 L 52.203125 -94.6875 L 29.109375 -94.6875 L 29.109375 -71.875 L 51.234375 -71.875 L 51.234375 -49.734375 L 29.109375 -49.734375 L 29.109375 -22.8125 L 53.703125 -22.8125 L 53.703125 0 Z M 5.1875 0 "/></g></g></g><g fill="#ff00ff" fill-opacity="1"><g transform="translate(1316.219822, 276.951625)"><g><path d="M 5.1875 -117.375 L 37.03125 -117.375 C 45.59375 -117.375 51.804688 -115.273438 55.671875 -111.078125 C 59.546875 -106.890625 61.484375 -100.0625 61.484375 -90.59375 L 61.484375 -85.40625 C 61.484375 -74.195312 57.476562 -67.5 49.46875 -65.3125 C 54.382812 -64.039062 57.84375 -61.082031 59.84375 -56.4375 C 61.851562 -51.789062 62.859375 -45.640625 62.859375 -37.984375 C 62.859375 -25.503906 60.988281 -16.050781 57.25 -9.625 C 53.519531 -3.207031 46.78125 0 37.03125 0 L 5.1875 0 Z M 32.9375 -73.234375 C 34.9375 -73.234375 36.300781 -73.984375 37.03125 -75.484375 C 37.757812 -76.992188 38.125 -79.113281 38.125 -81.84375 L 38.125 -93.59375 C 38.125 -97.425781 36.4375 -99.34375 33.0625 -99.34375 L 28.140625 -99.34375 L 28.140625 -73.234375 Z M 30.46875 -20.625 C 36.570312 -20.625 39.625 -23.539062 39.625 -29.375 L 39.625 -44 C 39.625 -47.550781 39.097656 -50.238281 38.046875 -52.0625 C 37.003906 -53.882812 35.160156 -54.796875 32.515625 -54.796875 L 28.140625 -54.796875 L 28.140625 -20.765625 Z M 30.46875 -20.625 "/></g></g></g><g fill="#00ffff" fill-opacity="1"><g transform="translate(57.437953, 276.951625)"><g><path d="M 29.375 1.09375 C 20.90625 1.09375 14.597656 -1.890625 10.453125 -7.859375 C 6.304688 -13.828125 4.234375 -22.867188 4.234375 -34.984375 L 4.234375 -85.53125 C 4.234375 -96.375 6.644531 -104.570312 11.46875 -110.125 C 16.300781 -115.6875 23.5 -118.46875 33.0625 -118.46875 C 40.8125 -118.46875 46.828125 -116.914062 51.109375 -113.8125 C 55.390625 -110.71875 58.347656 -106.207031 59.984375 -100.28125 C 61.617188 -94.363281 62.4375 -86.757812 62.4375 -77.46875 L 39.484375 -77.46875 L 39.484375 -88 C 39.484375 -90.820312 39.097656 -93.003906 38.328125 -94.546875 C 37.554688 -96.097656 36.164062 -96.875 34.15625 -96.875 C 29.695312 -96.875 27.46875 -93.960938 27.46875 -88.140625 L 27.46875 -31.296875 C 27.46875 -27.742188 27.921875 -25.054688 28.828125 -23.234375 C 29.742188 -21.410156 31.335938 -20.5 33.609375 -20.5 C 35.890625 -20.5 37.484375 -21.410156 38.390625 -23.234375 C 39.304688 -25.054688 39.765625 -27.742188 39.765625 -31.296875 L 39.765625 -48.09375 L 33.484375 -48.09375 L 33.484375 -68.3125 L 62.171875 -68.3125 L 62.171875 0 L 52.75 0 L 48.78125 -9.84375 C 44.59375 -2.550781 38.125 1.09375 29.375 1.09375 Z M 29.375 1.09375 "/></g></g></g><g fill="#00ffff" fill-opacity="1"><g transform="translate(123.707606, 276.951625)"><g><path d="M 5.1875 0 L 5.1875 -117.375 L 52.203125 -117.375 L 52.203125 -94.6875 L 29.109375 -94.6875 L 29.109375 -71.875 L 51.234375 -71.875 L 51.234375 -49.734375 L 29.109375 -49.734375 L 29.109375 -22.8125 L 53.703125 -22.8125 L 53.703125 0 Z M 5.1875 0 "/></g></g></g><g fill="#00ffff" fill-opacity="1"><g transform="translate(180.00265, 276.951625)"><g><path d="M 33.0625 1.09375 C 22.40625 1.09375 14.707031 -1.546875 9.96875 -6.828125 C 5.238281 -12.109375 2.875 -20.628906 2.875 -32.390625 L 2.875 -43.859375 L 25.96875 -43.859375 L 25.96875 -29.234375 C 25.96875 -23.410156 27.832031 -20.5 31.5625 -20.5 C 33.65625 -20.5 35.113281 -21.113281 35.9375 -22.34375 C 36.757812 -23.570312 37.171875 -25.644531 37.171875 -28.5625 C 37.171875 -32.382812 36.710938 -35.546875 35.796875 -38.046875 C 34.890625 -40.554688 33.726562 -42.65625 32.3125 -44.34375 C 30.90625 -46.03125 28.378906 -48.648438 24.734375 -52.203125 L 14.625 -62.3125 C 6.789062 -69.957031 2.875 -78.425781 2.875 -87.71875 C 2.875 -97.738281 5.171875 -105.367188 9.765625 -110.609375 C 14.367188 -115.847656 21.085938 -118.46875 29.921875 -118.46875 C 40.492188 -118.46875 48.101562 -115.664062 52.75 -110.0625 C 57.394531 -104.457031 59.71875 -95.691406 59.71875 -83.765625 L 35.796875 -83.765625 L 35.65625 -91.828125 C 35.65625 -93.367188 35.222656 -94.59375 34.359375 -95.5 C 33.492188 -96.414062 32.289062 -96.875 30.75 -96.875 C 28.925781 -96.875 27.554688 -96.375 26.640625 -95.375 C 25.734375 -94.375 25.28125 -93.007812 25.28125 -91.28125 C 25.28125 -87.445312 27.46875 -83.484375 31.84375 -79.390625 L 45.5 -66.265625 C 48.6875 -63.171875 51.328125 -60.234375 53.421875 -57.453125 C 55.515625 -54.679688 57.195312 -51.40625 58.46875 -47.625 C 59.75 -43.84375 60.390625 -39.351562 60.390625 -34.15625 C 60.390625 -22.59375 58.269531 -13.828125 54.03125 -7.859375 C 49.800781 -1.890625 42.8125 1.09375 33.0625 1.09375 Z M 33.0625 1.09375 "/></g></g></g><g fill="#00ffff" fill-opacity="1"><g transform="translate(242.992977, 276.951625)"><g><path d="M 15.296875 0 L 15.296875 -94.828125 L 1.359375 -94.828125 L 1.359375 -117.375 L 52.75 -117.375 L 52.75 -94.828125 L 38.8125 -94.828125 L 38.8125 0 Z M 15.296875 0 "/></g></g></g><g fill="#00ffff" fill-opacity="1"><g transform="translate(297.101799, 276.951625)"><g><path d="M 2.046875 0 L 13.390625 -117.375 L 53.15625 -117.375 L 64.359375 0 L 42.078125 0 L 40.453125 -19 L 26.234375 -19 L 24.875 0 Z M 28.015625 -37.71875 L 38.671875 -37.71875 L 33.484375 -97.421875 L 32.390625 -97.421875 Z M 44.140625 -124.890625 C 41.585938 -124.890625 39.238281 -125.207031 37.09375 -125.84375 C 34.957031 -126.488281 32.382812 -127.398438 29.375 -128.578125 C 27.914062 -129.222656 26.503906 -129.769531 25.140625 -130.21875 C 23.773438 -130.675781 22.59375 -130.90625 21.59375 -130.90625 C 18.945312 -130.90625 16.894531 -129.40625 15.4375 -126.40625 L 5.46875 -131.59375 C 7.46875 -136.507812 9.628906 -140.21875 11.953125 -142.71875 C 14.273438 -145.226562 17.625 -146.484375 22 -146.484375 C 24.375 -146.484375 26.515625 -146.207031 28.421875 -145.65625 C 30.335938 -145.113281 32.84375 -144.25 35.9375 -143.0625 C 39.21875 -141.601562 41.675781 -140.875 43.3125 -140.875 C 45.863281 -140.875 47.960938 -142.515625 49.609375 -145.796875 L 60.671875 -142.25 C 59.304688 -138.425781 58.007812 -135.351562 56.78125 -133.03125 C 55.550781 -130.707031 53.910156 -128.769531 51.859375 -127.21875 C 49.804688 -125.664062 47.234375 -124.890625 44.140625 -124.890625 Z M 44.140625 -124.890625 "/></g></g></g><g fill="#00ffff" fill-opacity="1"><g transform="translate(363.371439, 276.951625)"><g><path d="M 33.203125 1.09375 C 23.734375 1.09375 16.535156 -1.796875 11.609375 -7.578125 C 6.691406 -13.367188 4.234375 -21.5 4.234375 -31.96875 L 4.234375 -87.859375 C 4.234375 -97.972656 6.691406 -105.601562 11.609375 -110.75 C 16.535156 -115.894531 23.734375 -118.46875 33.203125 -118.46875 C 42.679688 -118.46875 49.878906 -115.894531 54.796875 -110.75 C 59.710938 -105.601562 62.171875 -97.972656 62.171875 -87.859375 L 62.171875 -31.96875 C 62.171875 -21.40625 59.710938 -13.253906 54.796875 -7.515625 C 49.878906 -1.773438 42.679688 1.09375 33.203125 1.09375 Z M 33.203125 -20.5 C 35.296875 -20.5 36.707031 -21.410156 37.4375 -23.234375 C 38.164062 -25.054688 38.53125 -27.601562 38.53125 -30.875 L 38.53125 -88.265625 C 38.53125 -90.816406 38.1875 -92.890625 37.5 -94.484375 C 36.820312 -96.078125 35.4375 -96.875 33.34375 -96.875 C 29.425781 -96.875 27.46875 -93.914062 27.46875 -88 L 27.46875 -30.75 C 27.46875 -27.375 27.875 -24.820312 28.6875 -23.09375 C 29.507812 -21.363281 31.015625 -20.5 33.203125 -20.5 Z M 33.203125 -20.5 "/></g></g></g><g fill="#00ffff" fill-opacity="1"><g transform="translate(429.777724, 276.951625)"><g/></g></g><g fill="#00ffff" fill-opacity="1"><g transform="translate(461.751118, 276.951625)"><g><path d="M 5.1875 -117.375 L 37.578125 -117.375 C 45.953125 -117.375 52.234375 -115.050781 56.421875 -110.40625 C 60.617188 -105.757812 62.765625 -98.878906 62.859375 -89.765625 L 63.125 -34.84375 C 63.21875 -23.269531 61.210938 -14.566406 57.109375 -8.734375 C 53.015625 -2.910156 46.226562 0 36.75 0 L 5.1875 0 Z M 32.9375 -20.765625 C 37.21875 -20.765625 39.359375 -22.863281 39.359375 -27.0625 L 39.359375 -87.59375 C 39.359375 -90.226562 39.148438 -92.207031 38.734375 -93.53125 C 38.328125 -94.851562 37.578125 -95.738281 36.484375 -96.1875 C 35.390625 -96.644531 33.703125 -96.875 31.421875 -96.875 L 28.828125 -96.875 L 28.828125 -20.765625 Z M 32.9375 -20.765625 "/></g></g></g><g fill="#00ffff" fill-opacity="1"><g transform="translate(529.113862, 276.951625)"><g><path d="M 5.1875 0 L 5.1875 -117.375 L 52.203125 -117.375 L 52.203125 -94.6875 L 29.109375 -94.6875 L 29.109375 -71.875 L 51.234375 -71.875 L 51.234375 -49.734375 L 29.109375 -49.734375 L 29.109375 -22.8125 L 53.703125 -22.8125 L 53.703125 0 Z M 5.1875 0 "/></g></g></g><g fill="#00ffff" fill-opacity="1"><g transform="translate(585.408919, 276.951625)"><g/></g></g><g fill="#00ffff" fill-opacity="1"><g transform="translate(617.382287, 276.951625)"><g><path d="M 32.515625 1.09375 C 23.953125 1.09375 17.097656 -1.59375 11.953125 -6.96875 C 6.804688 -12.34375 4.234375 -19.722656 4.234375 -29.109375 L 4.234375 -83.21875 C 4.234375 -94.875 6.554688 -103.660156 11.203125 -109.578125 C 15.847656 -115.503906 23.132812 -118.46875 33.0625 -118.46875 C 41.71875 -118.46875 48.6875 -116.097656 53.96875 -111.359375 C 59.25 -106.617188 61.890625 -99.785156 61.890625 -90.859375 L 61.890625 -70.640625 L 38.53125 -70.640625 L 38.53125 -88 C 38.53125 -91.363281 38.117188 -93.679688 37.296875 -94.953125 C 36.484375 -96.234375 35.070312 -96.875 33.0625 -96.875 C 30.96875 -96.875 29.53125 -96.144531 28.75 -94.6875 C 27.976562 -93.226562 27.59375 -91.085938 27.59375 -88.265625 L 27.59375 -29.375 C 27.59375 -26.28125 28.046875 -24.023438 28.953125 -22.609375 C 29.867188 -21.203125 31.238281 -20.5 33.0625 -20.5 C 36.707031 -20.5 38.53125 -23.457031 38.53125 -29.375 L 38.53125 -50.5625 L 62.171875 -50.5625 L 62.171875 -28.421875 C 62.171875 -8.742188 52.285156 1.09375 32.515625 1.09375 Z M 32.515625 1.09375 "/></g></g></g><g fill="#00ffff" fill-opacity="1"><g transform="translate(682.148941, 276.951625)"><g><path d="M 33.203125 1.09375 C 23.734375 1.09375 16.535156 -1.796875 11.609375 -7.578125 C 6.691406 -13.367188 4.234375 -21.5 4.234375 -31.96875 L 4.234375 -87.859375 C 4.234375 -97.972656 6.691406 -105.601562 11.609375 -110.75 C 16.535156 -115.894531 23.734375 -118.46875 33.203125 -118.46875 C 42.679688 -118.46875 49.878906 -115.894531 54.796875 -110.75 C 59.710938 -105.601562 62.171875 -97.972656 62.171875 -87.859375 L 62.171875 -31.96875 C 62.171875 -21.40625 59.710938 -13.253906 54.796875 -7.515625 C 49.878906 -1.773438 42.679688 1.09375 33.203125 1.09375 Z M 33.203125 -20.5 C 35.296875 -20.5 36.707031 -21.410156 37.4375 -23.234375 C 38.164062 -25.054688 38.53125 -27.601562 38.53125 -30.875 L 38.53125 -88.265625 C 38.53125 -90.816406 38.1875 -92.890625 37.5 -94.484375 C 36.820312 -96.078125 35.4375 -96.875 33.34375 -96.875 C 29.425781 -96.875 27.46875 -93.914062 27.46875 -88 L 27.46875 -30.75 C 27.46875 -27.375 27.875 -24.820312 28.6875 -23.09375 C 29.507812 -21.363281 31.015625 -20.5 33.203125 -20.5 Z M 33.203125 -20.5 "/></g></g></g><g fill="#00ffff" fill-opacity="1"><g transform="translate(748.555226, 276.951625)"><g><path d="M 5.1875 0 L 5.1875 -117.375 L 29.375 -117.375 L 40.171875 -61.21875 L 40.171875 -117.375 L 62.859375 -117.375 L 62.859375 0 L 39.90625 0 L 28.140625 -58.75 L 28.140625 0 Z M 5.1875 0 "/></g></g></g><g fill="#00ffff" fill-opacity="1"><g transform="translate(816.601193, 276.951625)"><g><path d="M 15.296875 0 L 15.296875 -94.828125 L 1.359375 -94.828125 L 1.359375 -117.375 L 52.75 -117.375 L 52.75 -94.828125 L 38.8125 -94.828125 L 38.8125 0 Z M 15.296875 0 "/></g></g></g><g fill="#00ffff" fill-opacity="1"><g transform="translate(870.70999, 276.951625)"><g><path d="M 5.1875 0 L 5.1875 -117.375 L 52.203125 -117.375 L 52.203125 -94.6875 L 29.109375 -94.6875 L 29.109375 -71.875 L 51.234375 -71.875 L 51.234375 -49.734375 L 29.109375 -49.734375 L 29.109375 -22.8125 L 53.703125 -22.8125 L 53.703125 0 Z M 5.1875 0 "/></g></g></g><g fill="#00ffff" fill-opacity="1"><g transform="translate(927.005046, 276.951625)"><g><path d="M 32.390625 1.09375 C 22.734375 1.09375 15.554688 -1.632812 10.859375 -7.09375 C 6.171875 -12.5625 3.828125 -20.671875 3.828125 -31.421875 L 3.828125 -117.375 L 26.640625 -117.375 L 26.640625 -32.390625 C 26.640625 -28.648438 27.003906 -25.734375 27.734375 -23.640625 C 28.460938 -21.546875 30.015625 -20.5 32.390625 -20.5 C 34.753906 -20.5 36.300781 -21.519531 37.03125 -23.5625 C 37.757812 -25.613281 38.125 -28.554688 38.125 -32.390625 L 38.125 -117.375 L 60.9375 -117.375 L 60.9375 -31.421875 C 60.9375 -20.671875 58.59375 -12.5625 53.90625 -7.09375 C 49.21875 -1.632812 42.046875 1.09375 32.390625 1.09375 Z M 16.40625 -120.9375 L 16.40625 -135.828125 L 48.109375 -150.453125 L 48.109375 -127.21875 Z M 16.40625 -120.9375 "/></g></g></g><g fill="#00ffff" fill-opacity="1"><g transform="translate(991.7717, 276.951625)"><g><path d="M 5.1875 -117.375 L 37.578125 -117.375 C 45.953125 -117.375 52.234375 -115.050781 56.421875 -110.40625 C 60.617188 -105.757812 62.765625 -98.878906 62.859375 -89.765625 L 63.125 -34.84375 C 63.21875 -23.269531 61.210938 -14.566406 57.109375 -8.734375 C 53.015625 -2.910156 46.226562 0 36.75 0 L 5.1875 0 Z M 32.9375 -20.765625 C 37.21875 -20.765625 39.359375 -22.863281 39.359375 -27.0625 L 39.359375 -87.59375 C 39.359375 -90.226562 39.148438 -92.207031 38.734375 -93.53125 C 38.328125 -94.851562 37.578125 -95.738281 36.484375 -96.1875 C 35.390625 -96.644531 33.703125 -96.875 31.421875 -96.875 L 28.828125 -96.875 L 28.828125 -20.765625 Z M 32.9375 -20.765625 "/></g></g></g><g fill="#00ffff" fill-opacity="1"><g transform="translate(1059.134419, 276.951625)"><g><path d="M 33.203125 1.09375 C 23.734375 1.09375 16.535156 -1.796875 11.609375 -7.578125 C 6.691406 -13.367188 4.234375 -21.5 4.234375 -31.96875 L 4.234375 -87.859375 C 4.234375 -97.972656 6.691406 -105.601562 11.609375 -110.75 C 16.535156 -115.894531 23.734375 -118.46875 33.203125 -118.46875 C 42.679688 -118.46875 49.878906 -115.894531 54.796875 -110.75 C 59.710938 -105.601562 62.171875 -97.972656 62.171875 -87.859375 L 62.171875 -31.96875 C 62.171875 -21.40625 59.710938 -13.253906 54.796875 -7.515625 C 49.878906 -1.773438 42.679688 1.09375 33.203125 1.09375 Z M 33.203125 -20.5 C 35.296875 -20.5 36.707031 -21.410156 37.4375 -23.234375 C 38.164062 -25.054688 38.53125 -27.601562 38.53125 -30.875 L 38.53125 -88.265625 C 38.53125 -90.816406 38.1875 -92.890625 37.5 -94.484375 C 36.820312 -96.078125 35.4375 -96.875 33.34375 -96.875 C 29.425781 -96.875 27.46875 -93.914062 27.46875 -88 L 27.46875 -30.75 C 27.46875 -27.375 27.875 -24.820312 28.6875 -23.09375 C 29.507812 -21.363281 31.015625 -20.5 33.203125 -20.5 Z M 33.203125 -20.5 "/></g></g></g><g fill="#00ffff" fill-opacity="1"><g transform="translate(1125.540704, 276.951625)"><g/></g></g><g fill="#00ffff" fill-opacity="1"><g transform="translate(1157.514124, 276.951625)"><g><path d="M 14.34375 0 L 1.78125 -117.375 L 24.734375 -117.375 L 31.296875 -43.3125 L 37.84375 -117.375 L 59.71875 -117.375 L 66 -43.3125 L 72.28125 -117.375 L 95.515625 -117.375 L 82.671875 0 L 54.515625 0 L 48.640625 -56.5625 L 43.046875 0 Z M 14.34375 0 "/></g></g></g><g fill="#00ffff" fill-opacity="1"><g transform="translate(1254.800672, 276.951625)"><g><path d="M 5.1875 0 L 5.1875 -117.375 L 52.203125 -117.375 L 52.203125 -94.6875 L 29.109375 -94.6875 L 29.109375 -71.875 L 51.234375 -71.875 L 51.234375 -49.734375 L 29.109375 -49.734375 L 29.109375 -22.8125 L 53.703125 -22.8125 L 53.703125 0 Z M 5.1875 0 "/></g></g></g><g fill="#00ffff" fill-opacity="1"><g transform="translate(1311.095728, 276.951625)"><g><path d="M 5.1875 -117.375 L 37.03125 -117.375 C 45.59375 -117.375 51.804688 -115.273438 55.671875 -111.078125 C 59.546875 -106.890625 61.484375 -100.0625 61.484375 -90.59375 L 61.484375 -85.40625 C 61.484375 -74.195312 57.476562 -67.5 49.46875 -65.3125 C 54.382812 -64.039062 57.84375 -61.082031 59.84375 -56.4375 C 61.851562 -51.789062 62.859375 -45.640625 62.859375 -37.984375 C 62.859375 -25.503906 60.988281 -16.050781 57.25 -9.625 C 53.519531 -3.207031 46.78125 0 37.03125 0 L 5.1875 0 Z M 32.9375 -73.234375 C 34.9375 -73.234375 36.300781 -73.984375 37.03125 -75.484375 C 37.757812 -76.992188 38.125 -79.113281 38.125 -81.84375 L 38.125 -93.59375 C 38.125 -97.425781 36.4375 -99.34375 33.0625 -99.34375 L 28.140625 -99.34375 L 28.140625 -73.234375 Z M 30.46875 -20.625 C 36.570312 -20.625 39.625 -23.539062 39.625 -29.375 L 39.625 -44 C 39.625 -47.550781 39.097656 -50.238281 38.046875 -52.0625 C 37.003906 -53.882812 35.160156 -54.796875 32.515625 -54.796875 L 28.140625 -54.796875 L 28.140625 -20.765625 Z M 30.46875 -20.625 "/></g></g></g><g fill="#ffffff" fill-opacity="1"><g transform="translate(59.999998, 276.951625)"><g><path d="M 29.375 1.09375 C 20.90625 1.09375 14.597656 -1.890625 10.453125 -7.859375 C 6.304688 -13.828125 4.234375 -22.867188 4.234375 -34.984375 L 4.234375 -85.53125 C 4.234375 -96.375 6.644531 -104.570312 11.46875 -110.125 C 16.300781 -115.6875 23.5 -118.46875 33.0625 -118.46875 C 40.8125 -118.46875 46.828125 -116.914062 51.109375 -113.8125 C 55.390625 -110.71875 58.347656 -106.207031 59.984375 -100.28125 C 61.617188 -94.363281 62.4375 -86.757812 62.4375 -77.46875 L 39.484375 -77.46875 L 39.484375 -88 C 39.484375 -90.820312 39.097656 -93.003906 38.328125 -94.546875 C 37.554688 -96.097656 36.164062 -96.875 34.15625 -96.875 C 29.695312 -96.875 27.46875 -93.960938 27.46875 -88.140625 L 27.46875 -31.296875 C 27.46875 -27.742188 27.921875 -25.054688 28.828125 -23.234375 C 29.742188 -21.410156 31.335938 -20.5 33.609375 -20.5 C 35.890625 -20.5 37.484375 -21.410156 38.390625 -23.234375 C 39.304688 -25.054688 39.765625 -27.742188 39.765625 -31.296875 L 39.765625 -48.09375 L 33.484375 -48.09375 L 33.484375 -68.3125 L 62.171875 -68.3125 L 62.171875 0 L 52.75 0 L 48.78125 -9.84375 C 44.59375 -2.550781 38.125 1.09375 29.375 1.09375 Z M 29.375 1.09375 "/></g></g></g><g fill="#ffffff" fill-opacity="1"><g transform="translate(126.269651, 276.951625)"><g><path d="M 5.1875 0 L 5.1875 -117.375 L 52.203125 -117.375 L 52.203125 -94.6875 L 29.109375 -94.6875 L 29.109375 -71.875 L 51.234375 -71.875 L 51.234375 -49.734375 L 29.109375 -49.734375 L 29.109375 -22.8125 L 53.703125 -22.8125 L 53.703125 0 Z M 5.1875 0 "/></g></g></g><g fill="#ffffff" fill-opacity="1"><g transform="translate(182.564695, 276.951625)"><g><path d="M 33.0625 1.09375 C 22.40625 1.09375 14.707031 -1.546875 9.96875 -6.828125 C 5.238281 -12.109375 2.875 -20.628906 2.875 -32.390625 L 2.875 -43.859375 L 25.96875 -43.859375 L 25.96875 -29.234375 C 25.96875 -23.410156 27.832031 -20.5 31.5625 -20.5 C 33.65625 -20.5 35.113281 -21.113281 35.9375 -22.34375 C 36.757812 -23.570312 37.171875 -25.644531 37.171875 -28.5625 C 37.171875 -32.382812 36.710938 -35.546875 35.796875 -38.046875 C 34.890625 -40.554688 33.726562 -42.65625 32.3125 -44.34375 C 30.90625 -46.03125 28.378906 -48.648438 24.734375 -52.203125 L 14.625 -62.3125 C 6.789062 -69.957031 2.875 -78.425781 2.875 -87.71875 C 2.875 -97.738281 5.171875 -105.367188 9.765625 -110.609375 C 14.367188 -115.847656 21.085938 -118.46875 29.921875 -118.46875 C 40.492188 -118.46875 48.101562 -115.664062 52.75 -110.0625 C 57.394531 -104.457031 59.71875 -95.691406 59.71875 -83.765625 L 35.796875 -83.765625 L 35.65625 -91.828125 C 35.65625 -93.367188 35.222656 -94.59375 34.359375 -95.5 C 33.492188 -96.414062 32.289062 -96.875 30.75 -96.875 C 28.925781 -96.875 27.554688 -96.375 26.640625 -95.375 C 25.734375 -94.375 25.28125 -93.007812 25.28125 -91.28125 C 25.28125 -87.445312 27.46875 -83.484375 31.84375 -79.390625 L 45.5 -66.265625 C 48.6875 -63.171875 51.328125 -60.234375 53.421875 -57.453125 C 55.515625 -54.679688 57.195312 -51.40625 58.46875 -47.625 C 59.75 -43.84375 60.390625 -39.351562 60.390625 -34.15625 C 60.390625 -22.59375 58.269531 -13.828125 54.03125 -7.859375 C 49.800781 -1.890625 42.8125 1.09375 33.0625 1.09375 Z M 33.0625 1.09375 "/></g></g></g><g fill="#ffffff" fill-opacity="1"><g transform="translate(245.555022, 276.951625)"><g><path d="M 15.296875 0 L 15.296875 -94.828125 L 1.359375 -94.828125 L 1.359375 -117.375 L 52.75 -117.375 L 52.75 -94.828125 L 38.8125 -94.828125 L 38.8125 0 Z M 15.296875 0 "/></g></g></g><g fill="#ffffff" fill-opacity="1"><g transform="translate(299.663844, 276.951625)"><g><path d="M 2.046875 0 L 13.390625 -117.375 L 53.15625 -117.375 L 64.359375 0 L 42.078125 0 L 40.453125 -19 L 26.234375 -19 L 24.875 0 Z M 28.015625 -37.71875 L 38.671875 -37.71875 L 33.484375 -97.421875 L 32.390625 -97.421875 Z M 44.140625 -124.890625 C 41.585938 -124.890625 39.238281 -125.207031 37.09375 -125.84375 C 34.957031 -126.488281 32.382812 -127.398438 29.375 -128.578125 C 27.914062 -129.222656 26.503906 -129.769531 25.140625 -130.21875 C 23.773438 -130.675781 22.59375 -130.90625 21.59375 -130.90625 C 18.945312 -130.90625 16.894531 -129.40625 15.4375 -126.40625 L 5.46875 -131.59375 C 7.46875 -136.507812 9.628906 -140.21875 11.953125 -142.71875 C 14.273438 -145.226562 17.625 -146.484375 22 -146.484375 C 24.375 -146.484375 26.515625 -146.207031 28.421875 -145.65625 C 30.335938 -145.113281 32.84375 -144.25 35.9375 -143.0625 C 39.21875 -141.601562 41.675781 -140.875 43.3125 -140.875 C 45.863281 -140.875 47.960938 -142.515625 49.609375 -145.796875 L 60.671875 -142.25 C 59.304688 -138.425781 58.007812 -135.351562 56.78125 -133.03125 C 55.550781 -130.707031 53.910156 -128.769531 51.859375 -127.21875 C 49.804688 -125.664062 47.234375 -124.890625 44.140625 -124.890625 Z M 44.140625 -124.890625 "/></g></g></g><g fill="#ffffff" fill-opacity="1"><g transform="translate(365.933485, 276.951625)"><g><path d="M 33.203125 1.09375 C 23.734375 1.09375 16.535156 -1.796875 11.609375 -7.578125 C 6.691406 -13.367188 4.234375 -21.5 4.234375 -31.96875 L 4.234375 -87.859375 C 4.234375 -97.972656 6.691406 -105.601562 11.609375 -110.75 C 16.535156 -115.894531 23.734375 -118.46875 33.203125 -118.46875 C 42.679688 -118.46875 49.878906 -115.894531 54.796875 -110.75 C 59.710938 -105.601562 62.171875 -97.972656 62.171875 -87.859375 L 62.171875 -31.96875 C 62.171875 -21.40625 59.710938 -13.253906 54.796875 -7.515625 C 49.878906 -1.773438 42.679688 1.09375 33.203125 1.09375 Z M 33.203125 -20.5 C 35.296875 -20.5 36.707031 -21.410156 37.4375 -23.234375 C 38.164062 -25.054688 38.53125 -27.601562 38.53125 -30.875 L 38.53125 -88.265625 C 38.53125 -90.816406 38.1875 -92.890625 37.5 -94.484375 C 36.820312 -96.078125 35.4375 -96.875 33.34375 -96.875 C 29.425781 -96.875 27.46875 -93.914062 27.46875 -88 L 27.46875 -30.75 C 27.46875 -27.375 27.875 -24.820312 28.6875 -23.09375 C 29.507812 -21.363281 31.015625 -20.5 33.203125 -20.5 Z M 33.203125 -20.5 "/></g></g></g><g fill="#ffffff" fill-opacity="1"><g transform="translate(432.33977, 276.951625)"><g/></g></g><g fill="#ffffff" fill-opacity="1"><g transform="translate(464.313163, 276.951625)"><g><path d="M 5.1875 -117.375 L 37.578125 -117.375 C 45.953125 -117.375 52.234375 -115.050781 56.421875 -110.40625 C 60.617188 -105.757812 62.765625 -98.878906 62.859375 -89.765625 L 63.125 -34.84375 C 63.21875 -23.269531 61.210938 -14.566406 57.109375 -8.734375 C 53.015625 -2.910156 46.226562 0 36.75 0 L 5.1875 0 Z M 32.9375 -20.765625 C 37.21875 -20.765625 39.359375 -22.863281 39.359375 -27.0625 L 39.359375 -87.59375 C 39.359375 -90.226562 39.148438 -92.207031 38.734375 -93.53125 C 38.328125 -94.851562 37.578125 -95.738281 36.484375 -96.1875 C 35.390625 -96.644531 33.703125 -96.875 31.421875 -96.875 L 28.828125 -96.875 L 28.828125 -20.765625 Z M 32.9375 -20.765625 "/></g></g></g><g fill="#ffffff" fill-opacity="1"><g transform="translate(531.675908, 276.951625)"><g><path d="M 5.1875 0 L 5.1875 -117.375 L 52.203125 -117.375 L 52.203125 -94.6875 L 29.109375 -94.6875 L 29.109375 -71.875 L 51.234375 -71.875 L 51.234375 -49.734375 L 29.109375 -49.734375 L 29.109375 -22.8125 L 53.703125 -22.8125 L 53.703125 0 Z M 5.1875 0 "/></g></g></g><g fill="#ffffff" fill-opacity="1"><g transform="translate(587.970964, 276.951625)"><g/></g></g><g fill="#ffffff" fill-opacity="1"><g transform="translate(619.944332, 276.951625)"><g><path d="M 32.515625 1.09375 C 23.953125 1.09375 17.097656 -1.59375 11.953125 -6.96875 C 6.804688 -12.34375 4.234375 -19.722656 4.234375 -29.109375 L 4.234375 -83.21875 C 4.234375 -94.875 6.554688 -103.660156 11.203125 -109.578125 C 15.847656 -115.503906 23.132812 -118.46875 33.0625 -118.46875 C 41.71875 -118.46875 48.6875 -116.097656 53.96875 -111.359375 C 59.25 -106.617188 61.890625 -99.785156 61.890625 -90.859375 L 61.890625 -70.640625 L 38.53125 -70.640625 L 38.53125 -88 C 38.53125 -91.363281 38.117188 -93.679688 37.296875 -94.953125 C 36.484375 -96.234375 35.070312 -96.875 33.0625 -96.875 C 30.96875 -96.875 29.53125 -96.144531 28.75 -94.6875 C 27.976562 -93.226562 27.59375 -91.085938 27.59375 -88.265625 L 27.59375 -29.375 C 27.59375 -26.28125 28.046875 -24.023438 28.953125 -22.609375 C 29.867188 -21.203125 31.238281 -20.5 33.0625 -20.5 C 36.707031 -20.5 38.53125 -23.457031 38.53125 -29.375 L 38.53125 -50.5625 L 62.171875 -50.5625 L 62.171875 -28.421875 C 62.171875 -8.742188 52.285156 1.09375 32.515625 1.09375 Z M 32.515625 1.09375 "/></g></g></g><g fill="#ffffff" fill-opacity="1"><g transform="translate(684.710986, 276.951625)"><g><path d="M 33.203125 1.09375 C 23.734375 1.09375 16.535156 -1.796875 11.609375 -7.578125 C 6.691406 -13.367188 4.234375 -21.5 4.234375 -31.96875 L 4.234375 -87.859375 C 4.234375 -97.972656 6.691406 -105.601562 11.609375 -110.75 C 16.535156 -115.894531 23.734375 -118.46875 33.203125 -118.46875 C 42.679688 -118.46875 49.878906 -115.894531 54.796875 -110.75 C 59.710938 -105.601562 62.171875 -97.972656 62.171875 -87.859375 L 62.171875 -31.96875 C 62.171875 -21.40625 59.710938 -13.253906 54.796875 -7.515625 C 49.878906 -1.773438 42.679688 1.09375 33.203125 1.09375 Z M 33.203125 -20.5 C 35.296875 -20.5 36.707031 -21.410156 37.4375 -23.234375 C 38.164062 -25.054688 38.53125 -27.601562 38.53125 -30.875 L 38.53125 -88.265625 C 38.53125 -90.816406 38.1875 -92.890625 37.5 -94.484375 C 36.820312 -96.078125 35.4375 -96.875 33.34375 -96.875 C 29.425781 -96.875 27.46875 -93.914062 27.46875 -88 L 27.46875 -30.75 C 27.46875 -27.375 27.875 -24.820312 28.6875 -23.09375 C 29.507812 -21.363281 31.015625 -20.5 33.203125 -20.5 Z M 33.203125 -20.5 "/></g></g></g><g fill="#ffffff" fill-opacity="1"><g transform="translate(751.117271, 276.951625)"><g><path d="M 5.1875 0 L 5.1875 -117.375 L 29.375 -117.375 L 40.171875 -61.21875 L 40.171875 -117.375 L 62.859375 -117.375 L 62.859375 0 L 39.90625 0 L 28.140625 -58.75 L 28.140625 0 Z M 5.1875 0 "/></g></g></g><g fill="#ffffff" fill-opacity="1"><g transform="translate(819.163238, 276.951625)"><g><path d="M 15.296875 0 L 15.296875 -94.828125 L 1.359375 -94.828125 L 1.359375 -117.375 L 52.75 -117.375 L 52.75 -94.828125 L 38.8125 -94.828125 L 38.8125 0 Z M 15.296875 0 "/></g></g></g><g fill="#ffffff" fill-opacity="1"><g transform="translate(873.272035, 276.951625)"><g><path d="M 5.1875 0 L 5.1875 -117.375 L 52.203125 -117.375 L 52.203125 -94.6875 L 29.109375 -94.6875 L 29.109375 -71.875 L 51.234375 -71.875 L 51.234375 -49.734375 L 29.109375 -49.734375 L 29.109375 -22.8125 L 53.703125 -22.8125 L 53.703125 0 Z M 5.1875 0 "/></g></g></g><g fill="#ffffff" fill-opacity="1"><g transform="translate(929.567092, 276.951625)"><g><path d="M 32.390625 1.09375 C 22.734375 1.09375 15.554688 -1.632812 10.859375 -7.09375 C 6.171875 -12.5625 3.828125 -20.671875 3.828125 -31.421875 L 3.828125 -117.375 L 26.640625 -117.375 L 26.640625 -32.390625 C 26.640625 -28.648438 27.003906 -25.734375 27.734375 -23.640625 C 28.460938 -21.546875 30.015625 -20.5 32.390625 -20.5 C 34.753906 -20.5 36.300781 -21.519531 37.03125 -23.5625 C 37.757812 -25.613281 38.125 -28.554688 38.125 -32.390625 L 38.125 -117.375 L 60.9375 -117.375 L 60.9375 -31.421875 C 60.9375 -20.671875 58.59375 -12.5625 53.90625 -7.09375 C 49.21875 -1.632812 42.046875 1.09375 32.390625 1.09375 Z M 16.40625 -120.9375 L 16.40625 -135.828125 L 48.109375 -150.453125 L 48.109375 -127.21875 Z M 16.40625 -120.9375 "/></g></g></g><g fill="#ffffff" fill-opacity="1"><g transform="translate(994.333745, 276.951625)"><g><path d="M 5.1875 -117.375 L 37.578125 -117.375 C 45.953125 -117.375 52.234375 -115.050781 56.421875 -110.40625 C 60.617188 -105.757812 62.765625 -98.878906 62.859375 -89.765625 L 63.125 -34.84375 C 63.21875 -23.269531 61.210938 -14.566406 57.109375 -8.734375 C 53.015625 -2.910156 46.226562 0 36.75 0 L 5.1875 0 Z M 32.9375 -20.765625 C 37.21875 -20.765625 39.359375 -22.863281 39.359375 -27.0625 L 39.359375 -87.59375 C 39.359375 -90.226562 39.148438 -92.207031 38.734375 -93.53125 C 38.328125 -94.851562 37.578125 -95.738281 36.484375 -96.1875 C 35.390625 -96.644531 33.703125 -96.875 31.421875 -96.875 L 28.828125 -96.875 L 28.828125 -20.765625 Z M 32.9375 -20.765625 "/></g></g></g><g fill="#ffffff" fill-opacity="1"><g transform="translate(1061.696465, 276.951625)"><g><path d="M 33.203125 1.09375 C 23.734375 1.09375 16.535156 -1.796875 11.609375 -7.578125 C 6.691406 -13.367188 4.234375 -21.5 4.234375 -31.96875 L 4.234375 -87.859375 C 4.234375 -97.972656 6.691406 -105.601562 11.609375 -110.75 C 16.535156 -115.894531 23.734375 -118.46875 33.203125 -118.46875 C 42.679688 -118.46875 49.878906 -115.894531 54.796875 -110.75 C 59.710938 -105.601562 62.171875 -97.972656 62.171875 -87.859375 L 62.171875 -31.96875 C 62.171875 -21.40625 59.710938 -13.253906 54.796875 -7.515625 C 49.878906 -1.773438 42.679688 1.09375 33.203125 1.09375 Z M 33.203125 -20.5 C 35.296875 -20.5 36.707031 -21.410156 37.4375 -23.234375 C 38.164062 -25.054688 38.53125 -27.601562 38.53125 -30.875 L 38.53125 -88.265625 C 38.53125 -90.816406 38.1875 -92.890625 37.5 -94.484375 C 36.820312 -96.078125 35.4375 -96.875 33.34375 -96.875 C 29.425781 -96.875 27.46875 -93.914062 27.46875 -88 L 27.46875 -30.75 C 27.46875 -27.375 27.875 -24.820312 28.6875 -23.09375 C 29.507812 -21.363281 31.015625 -20.5 33.203125 -20.5 Z M 33.203125 -20.5 "/></g></g></g><g fill="#ffffff" fill-opacity="1"><g transform="translate(1128.10275, 276.951625)"><g/></g></g><g fill="#ffffff" fill-opacity="1"><g transform="translate(1160.076169, 276.951625)"><g><path d="M 14.34375 0 L 1.78125 -117.375 L 24.734375 -117.375 L 31.296875 -43.3125 L 37.84375 -117.375 L 59.71875 -117.375 L 66 -43.3125 L 72.28125 -117.375 L 95.515625 -117.375 L 82.671875 0 L 54.515625 0 L 48.640625 -56.5625 L 43.046875 0 Z M 14.34375 0 "/></g></g></g><g fill="#ffffff" fill-opacity="1"><g transform="translate(1257.362717, 276.951625)"><g><path d="M 5.1875 0 L 5.1875 -117.375 L 52.203125 -117.375 L 52.203125 -94.6875 L 29.109375 -94.6875 L 29.109375 -71.875 L 51.234375 -71.875 L 51.234375 -49.734375 L 29.109375 -49.734375 L 29.109375 -22.8125 L 53.703125 -22.8125 L 53.703125 0 Z M 5.1875 0 "/></g></g></g><g fill="#ffffff" fill-opacity="1"><g transform="translate(1313.657774, 276.951625)"><g><path d="M 5.1875 -117.375 L 37.03125 -117.375 C 45.59375 -117.375 51.804688 -115.273438 55.671875 -111.078125 C 59.546875 -106.890625 61.484375 -100.0625 61.484375 -90.59375 L 61.484375 -85.40625 C 61.484375 -74.195312 57.476562 -67.5 49.46875 -65.3125 C 54.382812 -64.039062 57.84375 -61.082031 59.84375 -56.4375 C 61.851562 -51.789062 62.859375 -45.640625 62.859375 -37.984375 C 62.859375 -25.503906 60.988281 -16.050781 57.25 -9.625 C 53.519531 -3.207031 46.78125 0 37.03125 0 L 5.1875 0 Z M 32.9375 -73.234375 C 34.9375 -73.234375 36.300781 -73.984375 37.03125 -75.484375 C 37.757812 -76.992188 38.125 -79.113281 38.125 -81.84375 L 38.125 -93.59375 C 38.125 -97.425781 36.4375 -99.34375 33.0625 -99.34375 L 28.140625 -99.34375 L 28.140625 -73.234375 Z M 30.46875 -20.625 C 36.570312 -20.625 39.625 -23.539062 39.625 -29.375 L 39.625 -44 C 39.625 -47.550781 39.097656 -50.238281 38.046875 -52.0625 C 37.003906 -53.882812 35.160156 -54.796875 32.515625 -54.796875 L 28.140625 -54.796875 L 28.140625 -20.765625 Z M 30.46875 -20.625 "/></g></g></g><g fill="#012938" fill-opacity="1"><g transform="translate(375.890012, 344.895725)"><g><path d="M 2.875 -23.171875 L 6.40625 -23.171875 L 6.40625 0 L 2.875 0 Z M 2.875 -23.171875 "/></g></g></g><g fill="#012938" fill-opacity="1"><g transform="translate(395.409386, 344.895725)"><g><path d="M 5.890625 -15.015625 L 5.984375 -12.484375 L 5.984375 0 L 2.453125 0 L 2.453125 -23.203125 L 2.90625 -23.203125 L 16.515625 -8.015625 L 16.390625 -10.65625 L 16.390625 -23.171875 L 19.921875 -23.171875 L 19.921875 0 L 19.453125 0 Z M 5.890625 -15.015625 "/></g></g></g><g fill="#012938" fill-opacity="1"><g transform="translate(428.043918, 344.895725)"><g><path d="M 2.421875 -23.171875 L 13.3125 -23.171875 L 13.3125 -20.109375 L 5.921875 -20.109375 L 5.921875 -13.5625 L 11.671875 -13.5625 L 11.671875 -10.46875 L 5.921875 -10.46875 L 5.921875 0 L 2.421875 0 Z M 2.421875 -23.171875 "/></g></g></g><g fill="#012938" fill-opacity="1"><g transform="translate(453.017435, 344.895725)"><g><path d="M 13.109375 0.3125 C 11.015625 0.3125 9.078125 -0.171875 7.296875 -1.140625 C 5.523438 -2.117188 4.113281 -3.515625 3.0625 -5.328125 C 2.007812 -7.140625 1.484375 -9.242188 1.484375 -11.640625 C 1.484375 -14.054688 2.007812 -16.160156 3.0625 -17.953125 C 4.113281 -19.753906 5.523438 -21.132812 7.296875 -22.09375 C 9.078125 -23.0625 11.015625 -23.546875 13.109375 -23.546875 C 15.210938 -23.546875 17.148438 -23.0625 18.921875 -22.09375 C 20.703125 -21.132812 22.117188 -19.753906 23.171875 -17.953125 C 24.222656 -16.160156 24.75 -14.054688 24.75 -11.640625 C 24.75 -9.242188 24.222656 -7.140625 23.171875 -5.328125 C 22.117188 -3.515625 20.703125 -2.117188 18.921875 -1.140625 C 17.148438 -0.171875 15.210938 0.3125 13.109375 0.3125 Z M 13.109375 -2.875 C 14.566406 -2.875 15.894531 -3.210938 17.09375 -3.890625 C 18.289062 -4.578125 19.238281 -5.578125 19.9375 -6.890625 C 20.644531 -8.203125 21 -9.773438 21 -11.609375 C 21 -13.453125 20.644531 -15.03125 19.9375 -16.34375 C 19.238281 -17.65625 18.296875 -18.648438 17.109375 -19.328125 C 15.921875 -20.003906 14.585938 -20.34375 13.109375 -20.34375 C 11.640625 -20.34375 10.304688 -20.003906 9.109375 -19.328125 C 7.910156 -18.648438 6.960938 -17.65625 6.265625 -16.34375 C 5.578125 -15.03125 5.234375 -13.453125 5.234375 -11.609375 C 5.234375 -9.773438 5.585938 -8.203125 6.296875 -6.890625 C 7.015625 -5.578125 7.976562 -4.578125 9.1875 -3.890625 C 10.394531 -3.210938 11.703125 -2.875 13.109375 -2.875 Z M 13.109375 -2.875 "/></g></g></g><g fill="#012938" fill-opacity="1"><g transform="translate(489.498243, 344.895725)"><g><path d="M 14.03125 0 L 9.359375 -8.765625 C 8.398438 -8.722656 7.539062 -8.703125 6.78125 -8.703125 L 5.890625 -8.703125 L 5.890625 0 L 2.453125 0 L 2.453125 -23.171875 L 7.71875 -23.171875 C 10.394531 -23.171875 12.59375 -22.617188 14.3125 -21.515625 C 16.039062 -20.410156 16.90625 -18.617188 16.90625 -16.140625 C 16.90625 -14.585938 16.539062 -13.25 15.8125 -12.125 C 15.082031 -11 14.003906 -10.128906 12.578125 -9.515625 L 18.09375 0 Z M 8.140625 -11.578125 C 10.191406 -11.578125 11.601562 -12.019531 12.375 -12.90625 C 13.144531 -13.800781 13.53125 -14.867188 13.53125 -16.109375 C 13.53125 -18.867188 11.691406 -20.25 8.015625 -20.25 L 5.890625 -20.25 L 5.890625 -11.578125 Z M 8.140625 -11.578125 "/></g></g></g><g fill="#012938" fill-opacity="1"><g transform="translate(518.980098, 344.895725)"><g><path d="M 8.421875 -10.8125 L 6.96875 -14.09375 L 6.3125 -10.8125 L 4.15625 0 L 0.65625 0 L 5.453125 -23.171875 L 5.828125 -23.171875 L 12.203125 -10.65625 L 14.09375 -6.46875 L 15.984375 -10.65625 L 22.234375 -23.171875 L 22.578125 -23.171875 L 27.5625 0 L 24.09375 0 L 21.75 -10.8125 L 21.0625 -14.09375 L 19.796875 -10.8125 L 14.1875 0 L 14 0 Z M 8.421875 -10.8125 "/></g></g></g><g fill="#012938" fill-opacity="1"><g transform="translate(557.447088, 344.895725)"><g><path d="M 10.9375 -23.203125 L 22.109375 0 L 18.03125 0 L 16.046875 -4.546875 L 5.421875 -4.546875 L 3.4375 0 L -0.5 0 L 10.59375 -23.203125 Z M 9.359375 -13.34375 L 6.84375 -7.71875 L 14.65625 -7.71875 L 12.171875 -13.3125 L 10.8125 -16.484375 L 10.75 -16.484375 Z M 8.234375 -26.703125 L 14.40625 -31.40625 L 16.296875 -28.78125 L 9.578125 -24.625 Z M 8.234375 -26.703125 "/></g></g></g><g fill="#012938" fill-opacity="1"><g transform="translate(589.293438, 344.895725)"><g><path d="M 6.875 -20.078125 L 0.953125 -20.078125 L 0.953125 -23.171875 L 16.359375 -23.171875 L 16.359375 -20.078125 L 10.375 -20.078125 L 10.375 0 L 6.875 0 Z M 6.875 -20.078125 "/></g></g></g><g fill="#012938" fill-opacity="1"><g transform="translate(616.852148, 344.895725)"><g><path d="M 2.875 -23.171875 L 6.40625 -23.171875 L 6.40625 0 L 2.875 0 Z M 2.875 -23.171875 "/></g></g></g><g fill="#012938" fill-opacity="1"><g transform="translate(636.371524, 344.895725)"><g><path d="M 12.984375 0.21875 C 10.585938 0.21875 8.507812 -0.316406 6.75 -1.390625 C 5 -2.460938 3.660156 -3.894531 2.734375 -5.6875 C 1.816406 -7.488281 1.359375 -9.472656 1.359375 -11.640625 C 1.359375 -13.929688 1.851562 -15.976562 2.84375 -17.78125 C 3.84375 -19.59375 5.25 -21.003906 7.0625 -22.015625 C 8.875 -23.035156 10.925781 -23.546875 13.21875 -23.546875 C 14.238281 -23.546875 15.195312 -23.4375 16.09375 -23.21875 C 16.988281 -23 17.726562 -22.75 18.3125 -22.46875 C 18.90625 -22.1875 19.296875 -21.945312 19.484375 -21.75 L 17.9375 -18.609375 C 16.65625 -19.742188 14.984375 -20.3125 12.921875 -20.3125 C 11.472656 -20.3125 10.160156 -19.953125 8.984375 -19.234375 C 7.804688 -18.515625 6.878906 -17.492188 6.203125 -16.171875 C 5.535156 -14.847656 5.203125 -13.316406 5.203125 -11.578125 C 5.203125 -9.972656 5.5 -8.519531 6.09375 -7.21875 C 6.695312 -5.914062 7.578125 -4.882812 8.734375 -4.125 C 9.890625 -3.375 11.265625 -3 12.859375 -3 C 14.710938 -3 16.5 -3.523438 18.21875 -4.578125 L 19.265625 -1.578125 C 18.804688 -1.160156 17.957031 -0.753906 16.71875 -0.359375 C 15.488281 0.0234375 14.242188 0.21875 12.984375 0.21875 Z M 12.984375 0.21875 "/></g></g></g><g fill="#012938" fill-opacity="1"><g transform="translate(667.082912, 344.895725)"><g><path d="M 10.9375 -23.203125 L 22.109375 0 L 18.03125 0 L 16.046875 -4.546875 L 5.421875 -4.546875 L 3.4375 0 L -0.5 0 L 10.59375 -23.203125 Z M 9.359375 -13.34375 L 6.84375 -7.71875 L 14.65625 -7.71875 L 12.171875 -13.3125 L 10.8125 -16.484375 L 10.75 -16.484375 Z M 9.359375 -13.34375 "/></g></g></g><g fill="#012938" fill-opacity="1"><g transform="translate(698.929262, 344.895725)"><g/></g></g><g fill="#012938" fill-opacity="1"><g transform="translate(716.903803, 344.895725)"><g><path d="M 2.453125 -23.171875 L 7.5625 -23.171875 C 10.445312 -23.171875 12.554688 -22.554688 13.890625 -21.328125 C 15.222656 -20.097656 15.890625 -18.410156 15.890625 -16.265625 C 15.890625 -13.785156 15.164062 -11.882812 13.71875 -10.5625 C 12.269531 -9.238281 10.113281 -8.578125 7.25 -8.578125 L 6.015625 -8.578125 L 6.015625 0 L 2.453125 0 Z M 7.34375 -11.703125 C 9.195312 -11.703125 10.488281 -12.109375 11.21875 -12.921875 C 11.957031 -13.742188 12.328125 -14.734375 12.328125 -15.890625 C 12.328125 -17.128906 11.96875 -18.132812 11.25 -18.90625 C 10.539062 -19.6875 9.34375 -20.078125 7.65625 -20.078125 L 6.015625 -20.078125 L 6.015625 -11.703125 Z M 7.34375 -11.703125 "/></g></g></g><g fill="#012938" fill-opacity="1"><g transform="translate(743.863498, 344.895725)"><g><path d="M 10.9375 -23.203125 L 22.109375 0 L 18.03125 0 L 16.046875 -4.546875 L 5.421875 -4.546875 L 3.4375 0 L -0.5 0 L 10.59375 -23.203125 Z M 9.359375 -13.34375 L 6.84375 -7.71875 L 14.65625 -7.71875 L 12.171875 -13.3125 L 10.8125 -16.484375 L 10.75 -16.484375 Z M 9.359375 -13.34375 "/></g></g></g><g fill="#012938" fill-opacity="1"><g transform="translate(775.709848, 344.895725)"><g><path d="M 14.03125 0 L 9.359375 -8.765625 C 8.398438 -8.722656 7.539062 -8.703125 6.78125 -8.703125 L 5.890625 -8.703125 L 5.890625 0 L 2.453125 0 L 2.453125 -23.171875 L 7.71875 -23.171875 C 10.394531 -23.171875 12.59375 -22.617188 14.3125 -21.515625 C 16.039062 -20.410156 16.90625 -18.617188 16.90625 -16.140625 C 16.90625 -14.585938 16.539062 -13.25 15.8125 -12.125 C 15.082031 -11 14.003906 -10.128906 12.578125 -9.515625 L 18.09375 0 Z M 8.140625 -11.578125 C 10.191406 -11.578125 11.601562 -12.019531 12.375 -12.90625 C 13.144531 -13.800781 13.53125 -14.867188 13.53125 -16.109375 C 13.53125 -18.867188 11.691406 -20.25 8.015625 -20.25 L 5.890625 -20.25 L 5.890625 -11.578125 Z M 8.140625 -11.578125 "/></g></g></g><g fill="#012938" fill-opacity="1"><g transform="translate(805.191694, 344.895725)"><g><path d="M 10.9375 -23.203125 L 22.109375 0 L 18.03125 0 L 16.046875 -4.546875 L 5.421875 -4.546875 L 3.4375 0 L -0.5 0 L 10.59375 -23.203125 Z M 9.359375 -13.34375 L 6.84375 -7.71875 L 14.65625 -7.71875 L 12.171875 -13.3125 L 10.8125 -16.484375 L 10.75 -16.484375 Z M 9.359375 -13.34375 "/></g></g></g><g fill="#012938" fill-opacity="1"><g transform="translate(837.038043, 344.895725)"><g/></g></g><g fill="#012938" fill-opacity="1"><g transform="translate(855.012584, 344.895725)"><g><path d="M 2.875 -23.171875 L 6.40625 -23.171875 L 6.40625 0 L 2.875 0 Z M 2.875 -23.171875 "/></g></g></g><g fill="#012938" fill-opacity="1"><g transform="translate(874.53196, 344.895725)"><g><path d="M 5.890625 -15.015625 L 5.984375 -12.484375 L 5.984375 0 L 2.453125 0 L 2.453125 -23.203125 L 2.90625 -23.203125 L 16.515625 -8.015625 L 16.390625 -10.65625 L 16.390625 -23.171875 L 19.921875 -23.171875 L 19.921875 0 L 19.453125 0 Z M 5.890625 -15.015625 "/></g></g></g><g fill="#012938" fill-opacity="1"><g transform="translate(907.166505, 344.895725)"><g><path d="M 6.875 -20.078125 L 0.953125 -20.078125 L 0.953125 -23.171875 L 16.359375 -23.171875 L 16.359375 -20.078125 L 10.375 -20.078125 L 10.375 0 L 6.875 0 Z M 6.875 -20.078125 "/></g></g></g><g fill="#012938" fill-opacity="1"><g transform="translate(934.725234, 344.895725)"><g><path d="M 2.421875 -23.171875 L 12.578125 -23.171875 L 12.578125 -20.078125 L 5.921875 -20.078125 L 5.921875 -13.6875 L 11.28125 -13.6875 L 11.28125 -10.53125 L 5.921875 -10.53125 L 5.921875 -3.125 L 13.625 -3.125 L 13.625 0 L 2.421875 0 Z M 2.421875 -23.171875 "/></g></g></g><g fill="#012938" fill-opacity="1"><g transform="translate(959.698746, 344.895725)"><g><path d="M 14.03125 0 L 9.359375 -8.765625 C 8.398438 -8.722656 7.539062 -8.703125 6.78125 -8.703125 L 5.890625 -8.703125 L 5.890625 0 L 2.453125 0 L 2.453125 -23.171875 L 7.71875 -23.171875 C 10.394531 -23.171875 12.59375 -22.617188 14.3125 -21.515625 C 16.039062 -20.410156 16.90625 -18.617188 16.90625 -16.140625 C 16.90625 -14.585938 16.539062 -13.25 15.8125 -12.125 C 15.082031 -11 14.003906 -10.128906 12.578125 -9.515625 L 18.09375 0 Z M 8.140625 -11.578125 C 10.191406 -11.578125 11.601562 -12.019531 12.375 -12.90625 C 13.144531 -13.800781 13.53125 -14.867188 13.53125 -16.109375 C 13.53125 -18.867188 11.691406 -20.25 8.015625 -20.25 L 5.890625 -20.25 L 5.890625 -11.578125 Z M 8.140625 -11.578125 "/></g></g></g><g fill="#012938" fill-opacity="1"><g transform="translate(989.180592, 344.895725)"><g><path d="M 5.890625 -15.015625 L 5.984375 -12.484375 L 5.984375 0 L 2.453125 0 L 2.453125 -23.203125 L 2.90625 -23.203125 L 16.515625 -8.015625 L 16.390625 -10.65625 L 16.390625 -23.171875 L 19.921875 -23.171875 L 19.921875 0 L 19.453125 0 Z M 5.890625 -15.015625 "/></g></g></g><g fill="#012938" fill-opacity="1"><g transform="translate(1021.815136, 344.895725)"><g><path d="M 2.421875 -23.171875 L 12.578125 -23.171875 L 12.578125 -20.078125 L 5.921875 -20.078125 L 5.921875 -13.6875 L 11.28125 -13.6875 L 11.28125 -10.53125 L 5.921875 -10.53125 L 5.921875 -3.125 L 13.625 -3.125 L 13.625 0 L 2.421875 0 Z M 2.421875 -23.171875 "/></g></g></g><g fill="#012938" fill-opacity="1"><g transform="translate(1046.788648, 344.895725)"><g><path d="M 6.875 -20.078125 L 0.953125 -20.078125 L 0.953125 -23.171875 L 16.359375 -23.171875 L 16.359375 -20.078125 L 10.375 -20.078125 L 10.375 0 L 6.875 0 Z M 6.875 -20.078125 "/></g></g></g></svg>