<svg xmlns="http://www.w3.org/2000/svg" xmlns:xlink="http://www.w3.org/1999/xlink" width="393" zoomAndPan="magnify" viewBox="0 0 294.75 227.249992" height="303" preserveAspectRatio="xMidYMid meet" version="1.0"><defs><g/><clipPath id="153029bde5"><path d="M 1 0.675781 L 293 0.675781 L 293 226.429688 L 1 226.429688 Z M 1 0.675781 " clip-rule="nonzero"/></clipPath></defs><g clip-path="url(#153029bde5)"><path fill="#4d8d80" d="M 256.273438 0.640625 L 158.679688 0.640625 C 157.484375 0.640625 156.289062 0.699219 155.097656 0.816406 C 153.90625 0.929688 152.722656 1.105469 151.550781 1.335938 C 150.375 1.570312 149.214844 1.859375 148.070312 2.207031 C 146.921875 2.550781 145.796875 2.953125 144.691406 3.410156 C 143.585938 3.867188 142.503906 4.378906 141.449219 4.941406 C 140.390625 5.503906 139.363281 6.117188 138.371094 6.78125 C 137.375 7.445312 136.414062 8.15625 135.488281 8.917969 C 134.5625 9.675781 133.675781 10.476562 132.828125 11.324219 C 131.980469 12.167969 131.175781 13.054688 130.414062 13.976562 C 129.65625 14.902344 128.941406 15.863281 128.277344 16.855469 C 127.609375 17.851562 126.996094 18.875 126.429688 19.929688 C 125.863281 20.988281 125.351562 22.066406 124.894531 23.171875 C 124.433594 24.277344 124.03125 25.402344 123.683594 26.546875 C 123.332031 27.691406 123.042969 28.851562 122.808594 30.027344 C 122.574219 31.199219 122.394531 32.382812 122.277344 33.574219 C 122.160156 34.765625 122.101562 35.957031 122.097656 37.15625 L 122.097656 57.347656 L 38.269531 57.347656 C 37.070312 57.347656 35.875 57.410156 34.683594 57.527344 C 33.492188 57.644531 32.3125 57.820312 31.136719 58.054688 C 29.960938 58.292969 28.800781 58.582031 27.65625 58.929688 C 26.511719 59.28125 25.386719 59.683594 24.28125 60.140625 C 23.171875 60.601562 22.09375 61.113281 21.039062 61.679688 C 19.980469 62.242188 18.957031 62.859375 17.960938 63.523438 C 16.964844 64.191406 16.003906 64.902344 15.082031 65.664062 C 14.15625 66.421875 13.269531 67.226562 12.421875 68.074219 C 11.578125 68.921875 10.773438 69.808594 10.015625 70.734375 C 9.253906 71.660156 8.542969 72.621094 7.878906 73.617188 C 7.214844 74.613281 6.597656 75.636719 6.035156 76.695312 C 5.472656 77.75 4.960938 78.832031 4.503906 79.9375 C 4.042969 81.042969 3.640625 82.171875 3.292969 83.316406 C 2.945312 84.460938 2.65625 85.621094 2.421875 86.796875 C 2.191406 87.972656 2.015625 89.152344 1.898438 90.34375 C 1.78125 91.535156 1.722656 92.730469 1.722656 93.929688 L 1.722656 149.390625 C 1.722656 150.480469 1.773438 151.570312 1.871094 152.65625 C 1.96875 153.742188 2.117188 154.820312 2.3125 155.894531 C 2.507812 156.964844 2.75 158.027344 3.042969 159.078125 C 3.332031 160.128906 3.667969 161.167969 4.050781 162.1875 C 4.433594 163.210938 4.863281 164.210938 5.335938 165.195312 C 5.808594 166.175781 6.324219 167.136719 6.882812 168.074219 C 7.441406 169.011719 8.039062 169.921875 8.679688 170.804688 C 9.320312 171.6875 9.996094 172.539062 10.714844 173.363281 C 11.429688 174.183594 12.179688 174.972656 12.96875 175.730469 C 13.753906 176.484375 14.574219 177.203125 15.425781 177.882812 C 16.273438 178.566406 17.15625 179.210938 18.0625 179.8125 C 18.972656 180.417969 19.90625 180.976562 20.863281 181.496094 C 21.824219 182.015625 22.804688 182.492188 23.804688 182.925781 C 24.804688 183.359375 25.824219 183.746094 26.859375 184.085938 C 27.894531 184.425781 28.945312 184.722656 30.007812 184.96875 C 31.070312 185.214844 32.140625 185.414062 33.21875 185.566406 L 33.21875 221.171875 C 33.226562 222.089844 33.464844 222.941406 33.933594 223.726562 C 34.402344 224.515625 35.039062 225.128906 35.84375 225.570312 C 36.648438 226.007812 37.507812 226.214844 38.421875 226.1875 C 39.339844 226.160156 40.183594 225.902344 40.960938 225.414062 L 103.523438 185.902344 L 136.097656 185.902344 C 137.289062 185.898438 138.480469 185.835938 139.664062 185.710938 C 140.851562 185.589844 142.03125 185.410156 143.199219 185.171875 C 144.367188 184.9375 145.519531 184.640625 146.660156 184.292969 C 147.800781 183.941406 148.917969 183.535156 150.019531 183.074219 C 151.121094 182.617188 152.195312 182.101562 153.246094 181.539062 C 154.292969 180.972656 155.3125 180.355469 156.304688 179.691406 C 157.292969 179.027344 158.246094 178.3125 159.167969 177.554688 C 160.085938 176.796875 160.96875 175.996094 161.808594 175.148438 C 162.648438 174.304688 163.449219 173.421875 164.203125 172.496094 C 164.957031 171.574219 165.664062 170.617188 166.324219 169.625 C 166.984375 168.628906 167.597656 167.609375 168.15625 166.554688 C 168.71875 165.503906 169.226562 164.425781 169.679688 163.324219 C 170.136719 162.222656 170.535156 161.101562 170.878906 159.957031 C 171.226562 158.816406 171.515625 157.660156 171.746094 156.492188 C 171.976562 155.324219 172.152344 154.144531 172.269531 152.957031 C 172.386719 151.769531 172.445312 150.582031 172.445312 149.390625 L 172.445312 129.199219 L 191.1875 129.199219 L 253.515625 168.640625 C 254.339844 169.148438 255.238281 169.40625 256.207031 169.414062 C 257.074219 169.410156 257.894531 169.210938 258.664062 168.808594 C 259.464844 168.355469 260.097656 167.734375 260.5625 166.9375 C 261.027344 166.144531 261.257812 165.285156 261.253906 164.363281 L 261.253906 128.792969 C 262.335938 128.640625 263.40625 128.441406 264.46875 128.195312 C 265.53125 127.949219 266.578125 127.652344 267.617188 127.3125 C 268.652344 126.972656 269.667969 126.585938 270.671875 126.152344 C 271.671875 125.71875 272.652344 125.246094 273.609375 124.726562 C 274.570312 124.203125 275.503906 123.644531 276.410156 123.039062 C 277.320312 122.4375 278.199219 121.792969 279.050781 121.113281 C 279.902344 120.429688 280.722656 119.710938 281.507812 118.957031 C 282.292969 118.199219 283.046875 117.410156 283.761719 116.589844 C 284.476562 115.765625 285.15625 114.914062 285.796875 114.03125 C 286.4375 113.148438 287.035156 112.238281 287.59375 111.300781 C 288.152344 110.363281 288.667969 109.402344 289.140625 108.421875 C 289.613281 107.4375 290.039062 106.4375 290.425781 105.414062 C 290.808594 104.394531 291.144531 103.359375 291.433594 102.304688 C 291.722656 101.253906 291.96875 100.191406 292.164062 99.121094 C 292.359375 98.046875 292.503906 96.96875 292.605469 95.882812 C 292.703125 94.796875 292.753906 93.707031 292.753906 92.617188 L 292.753906 37.15625 C 292.753906 35.960938 292.691406 34.769531 292.574219 33.582031 C 292.453125 32.390625 292.277344 31.210938 292.042969 30.042969 C 291.808594 28.871094 291.515625 27.710938 291.167969 26.570312 C 290.820312 25.425781 290.417969 24.304688 289.960938 23.199219 C 289.503906 22.097656 288.992188 21.019531 288.429688 19.964844 C 287.863281 18.914062 287.25 17.890625 286.585938 16.894531 C 285.921875 15.902344 285.210938 14.945312 284.453125 14.019531 C 283.695312 13.097656 282.894531 12.214844 282.050781 11.367188 C 281.207031 10.523438 280.324219 9.722656 279.402344 8.960938 C 278.476562 8.203125 277.519531 7.492188 276.527344 6.828125 C 275.535156 6.164062 274.511719 5.546875 273.460938 4.984375 C 272.40625 4.417969 271.328125 3.90625 270.226562 3.449219 C 269.125 2.988281 268 2.585938 266.859375 2.238281 C 265.714844 1.886719 264.558594 1.597656 263.386719 1.359375 C 262.21875 1.125 261.039062 0.945312 259.847656 0.828125 C 258.660156 0.707031 257.46875 0.644531 256.273438 0.640625 Z M 162.347656 149.390625 C 162.347656 150.253906 162.304688 151.117188 162.21875 151.976562 C 162.132812 152.839844 162.003906 153.691406 161.835938 154.542969 C 161.664062 155.390625 161.453125 156.226562 161.203125 157.054688 C 160.949219 157.882812 160.660156 158.695312 160.328125 159.492188 C 159.996094 160.292969 159.625 161.074219 159.21875 161.835938 C 158.808594 162.597656 158.367188 163.339844 157.886719 164.058594 C 157.40625 164.777344 156.890625 165.472656 156.339844 166.140625 C 155.792969 166.808594 155.210938 167.449219 154.601562 168.058594 C 153.988281 168.671875 153.347656 169.25 152.679688 169.800781 C 152.011719 170.347656 151.316406 170.863281 150.597656 171.34375 C 149.878906 171.824219 149.140625 172.269531 148.375 172.679688 C 147.613281 173.085938 146.832031 173.457031 146.035156 173.789062 C 145.234375 174.117188 144.421875 174.410156 143.59375 174.664062 C 142.765625 174.914062 141.929688 175.125 141.082031 175.292969 C 140.234375 175.464844 139.378906 175.589844 138.519531 175.675781 C 137.65625 175.761719 136.796875 175.804688 135.929688 175.808594 L 101.90625 175.808594 C 100.914062 175.800781 100.007812 176.070312 99.179688 176.613281 L 43.351562 211.984375 L 43.351562 180.71875 C 43.351562 180.390625 43.316406 180.0625 43.253906 179.734375 C 43.1875 179.410156 43.09375 179.09375 42.964844 178.789062 C 42.839844 178.484375 42.683594 178.191406 42.5 177.917969 C 42.316406 177.640625 42.105469 177.386719 41.871094 177.152344 C 41.636719 176.917969 41.382812 176.707031 41.105469 176.523438 C 40.832031 176.339844 40.539062 176.183594 40.234375 176.058594 C 39.925781 175.929688 39.613281 175.835938 39.285156 175.769531 C 38.960938 175.703125 38.632812 175.671875 38.300781 175.671875 C 37.4375 175.671875 36.574219 175.628906 35.710938 175.542969 C 34.851562 175.457031 33.996094 175.328125 33.148438 175.160156 C 32.300781 174.988281 31.460938 174.78125 30.632812 174.527344 C 29.804688 174.277344 28.992188 173.984375 28.191406 173.652344 C 27.394531 173.320312 26.613281 172.953125 25.847656 172.542969 C 25.085938 172.136719 24.34375 171.691406 23.625 171.210938 C 22.90625 170.730469 22.210938 170.214844 21.542969 169.667969 C 20.871094 169.117188 20.230469 168.539062 19.621094 167.925781 C 19.007812 167.316406 18.425781 166.675781 17.878906 166.007812 C 17.328125 165.339844 16.8125 164.644531 16.332031 163.925781 C 15.847656 163.207031 15.402344 162.464844 14.996094 161.703125 C 14.585938 160.941406 14.214844 160.160156 13.882812 159.363281 C 13.550781 158.5625 13.257812 157.75 13.003906 156.921875 C 12.753906 156.09375 12.539062 155.257812 12.371094 154.40625 C 12.199219 153.558594 12.070312 152.707031 11.984375 151.84375 C 11.898438 150.984375 11.851562 150.121094 11.851562 149.253906 L 11.851562 93.929688 C 11.851562 93.0625 11.898438 92.199219 11.984375 91.339844 C 12.070312 90.480469 12.199219 89.625 12.371094 88.777344 C 12.539062 87.925781 12.753906 87.089844 13.003906 86.261719 C 13.257812 85.433594 13.550781 84.621094 13.882812 83.820312 C 14.214844 83.023438 14.585938 82.242188 14.996094 81.480469 C 15.402344 80.71875 15.847656 79.976562 16.332031 79.257812 C 16.8125 78.539062 17.328125 77.84375 17.878906 77.175781 C 18.425781 76.507812 19.007812 75.867188 19.621094 75.257812 C 20.230469 74.644531 20.871094 74.066406 21.542969 73.515625 C 22.210938 72.96875 22.90625 72.453125 23.625 71.972656 C 24.34375 71.492188 25.085938 71.046875 25.847656 70.640625 C 26.613281 70.230469 27.394531 69.863281 28.191406 69.53125 C 28.992188 69.199219 29.804688 68.90625 30.632812 68.65625 C 31.460938 68.402344 32.300781 68.195312 33.148438 68.023438 C 33.996094 67.855469 34.851562 67.726562 35.710938 67.640625 C 36.574219 67.554688 37.4375 67.511719 38.300781 67.511719 L 135.894531 67.511719 C 136.761719 67.511719 137.625 67.554688 138.484375 67.640625 C 139.34375 67.726562 140.199219 67.855469 141.046875 68.023438 C 141.894531 68.195312 142.734375 68.40625 143.5625 68.65625 C 144.390625 68.90625 145.203125 69.199219 146 69.53125 C 146.800781 69.863281 147.582031 70.230469 148.34375 70.640625 C 149.105469 71.046875 149.847656 71.492188 150.566406 71.972656 C 151.285156 72.453125 151.976562 72.96875 152.648438 73.519531 C 153.316406 74.066406 153.957031 74.648438 154.566406 75.257812 C 155.179688 75.871094 155.757812 76.511719 156.308594 77.179688 C 156.855469 77.847656 157.371094 78.539062 157.851562 79.261719 C 158.332031 79.980469 158.777344 80.71875 159.183594 81.480469 C 159.59375 82.246094 159.960938 83.027344 160.292969 83.824219 C 160.625 84.625 160.917969 85.4375 161.167969 86.265625 C 161.421875 87.089844 161.632812 87.929688 161.800781 88.777344 C 161.96875 89.625 162.097656 90.480469 162.183594 91.339844 C 162.269531 92.203125 162.3125 93.0625 162.3125 93.929688 Z M 282.726562 92.617188 C 282.722656 93.480469 282.679688 94.34375 282.59375 95.207031 C 282.503906 96.066406 282.375 96.921875 282.207031 97.769531 C 282.035156 98.617188 281.824219 99.457031 281.570312 100.285156 C 281.320312 101.109375 281.027344 101.925781 280.695312 102.722656 C 280.359375 103.523438 279.992188 104.304688 279.582031 105.066406 C 279.171875 105.828125 278.726562 106.570312 278.246094 107.289062 C 277.765625 108.007812 277.25 108.699219 276.699219 109.367188 C 276.148438 110.039062 275.570312 110.675781 274.957031 111.289062 C 274.34375 111.898438 273.703125 112.480469 273.035156 113.027344 C 272.363281 113.578125 271.671875 114.09375 270.953125 114.574219 C 270.230469 115.054688 269.492188 115.496094 268.726562 115.90625 C 267.964844 116.3125 267.183594 116.683594 266.382812 117.015625 C 265.585938 117.347656 264.769531 117.636719 263.941406 117.890625 C 263.113281 118.140625 262.277344 118.351562 261.429688 118.519531 C 260.578125 118.691406 259.726562 118.816406 258.863281 118.902344 C 258.003906 118.988281 257.140625 119.03125 256.273438 119.035156 C 255.941406 119.035156 255.613281 119.066406 255.289062 119.132812 C 254.964844 119.195312 254.648438 119.292969 254.34375 119.417969 C 254.035156 119.546875 253.746094 119.699219 253.46875 119.886719 C 253.195312 120.070312 252.9375 120.277344 252.703125 120.511719 C 252.46875 120.746094 252.261719 121.003906 252.078125 121.277344 C 251.894531 121.554688 251.738281 121.84375 251.609375 122.152344 C 251.484375 122.457031 251.386719 122.773438 251.324219 123.097656 C 251.257812 123.421875 251.226562 123.75 251.226562 124.082031 L 251.226562 155.210938 L 195.363281 119.84375 C 194.535156 119.296875 193.625 119.027344 192.636719 119.035156 L 172.445312 119.035156 L 172.445312 93.929688 C 172.441406 92.734375 172.382812 91.539062 172.265625 90.351562 C 172.148438 89.160156 171.972656 87.980469 171.738281 86.808594 C 171.503906 85.636719 171.210938 84.476562 170.863281 83.332031 C 170.515625 82.1875 170.113281 81.066406 169.65625 79.960938 C 169.199219 78.855469 168.6875 77.777344 168.121094 76.722656 C 167.558594 75.667969 166.945312 74.644531 166.28125 73.652344 C 165.617188 72.65625 164.902344 71.699219 164.144531 70.773438 C 163.386719 69.851562 162.585938 68.964844 161.738281 68.121094 C 160.894531 67.273438 160.007812 66.472656 159.085938 65.714844 C 158.160156 64.957031 157.203125 64.242188 156.207031 63.578125 C 155.214844 62.914062 154.191406 62.300781 153.136719 61.738281 C 152.082031 61.171875 151.003906 60.660156 149.898438 60.203125 C 148.792969 59.746094 147.667969 59.34375 146.527344 58.996094 C 145.382812 58.648438 144.222656 58.355469 143.050781 58.121094 C 141.878906 57.886719 140.699219 57.710938 139.507812 57.59375 C 138.316406 57.476562 137.125 57.417969 135.929688 57.414062 L 132.195312 57.414062 L 132.195312 37.222656 C 132.195312 36.359375 132.238281 35.496094 132.324219 34.636719 C 132.410156 33.773438 132.539062 32.917969 132.707031 32.070312 C 132.878906 31.222656 133.085938 30.386719 133.339844 29.558594 C 133.589844 28.730469 133.882812 27.917969 134.214844 27.117188 C 134.546875 26.320312 134.914062 25.539062 135.324219 24.777344 C 135.730469 24.015625 136.175781 23.273438 136.65625 22.554688 C 137.136719 21.835938 137.652344 21.140625 138.203125 20.472656 C 138.75 19.804688 139.332031 19.164062 139.941406 18.554688 C 140.554688 17.941406 141.195312 17.359375 141.863281 16.8125 C 142.53125 16.261719 143.222656 15.75 143.941406 15.269531 C 144.664062 14.789062 145.402344 14.34375 146.164062 13.933594 C 146.929688 13.527344 147.710938 13.15625 148.507812 12.824219 C 149.308594 12.492188 150.121094 12.203125 150.949219 11.949219 C 151.773438 11.699219 152.613281 11.488281 153.460938 11.320312 C 154.308594 11.148438 155.164062 11.019531 156.023438 10.9375 C 156.882812 10.851562 157.746094 10.804688 158.613281 10.804688 L 256.207031 10.804688 C 257.070312 10.804688 257.933594 10.851562 258.796875 10.9375 C 259.65625 11.019531 260.511719 11.148438 261.359375 11.320312 C 262.210938 11.488281 263.046875 11.699219 263.875 11.949219 C 264.703125 12.203125 265.515625 12.492188 266.316406 12.824219 C 267.117188 13.15625 267.898438 13.527344 268.660156 13.933594 C 269.421875 14.339844 270.164062 14.785156 270.882812 15.265625 C 271.605469 15.746094 272.296875 16.261719 272.96875 16.808594 C 273.636719 17.359375 274.277344 17.9375 274.890625 18.550781 C 275.5 19.164062 276.082031 19.800781 276.632812 20.46875 C 277.179688 21.140625 277.695312 21.832031 278.179688 22.550781 C 278.660156 23.269531 279.105469 24.011719 279.515625 24.773438 C 279.921875 25.535156 280.292969 26.316406 280.625 27.117188 C 280.957031 27.914062 281.25 28.726562 281.503906 29.554688 C 281.757812 30.382812 281.96875 31.222656 282.140625 32.070312 C 282.308594 32.917969 282.4375 33.773438 282.523438 34.632812 C 282.613281 35.496094 282.65625 36.359375 282.660156 37.222656 Z M 282.726562 92.617188 " fill-opacity="1" fill-rule="nonzero"/></g><path fill="#4d8d80" d="M 91.609375 88.140625 C 91.398438 87.722656 91.136719 87.339844 90.820312 86.996094 C 90.503906 86.652344 90.144531 86.355469 89.746094 86.113281 C 89.351562 85.867188 88.925781 85.679688 88.476562 85.550781 C 88.027344 85.425781 87.566406 85.359375 87.097656 85.359375 C 86.632812 85.359375 86.171875 85.425781 85.722656 85.550781 C 85.273438 85.679688 84.847656 85.867188 84.449219 86.113281 C 84.050781 86.355469 83.695312 86.652344 83.378906 86.996094 C 83.0625 87.339844 82.800781 87.722656 82.589844 88.140625 L 51.460938 149.457031 C 51.289062 149.753906 51.152344 150.0625 51.046875 150.390625 C 50.9375 150.714844 50.867188 151.046875 50.828125 151.386719 C 50.789062 151.726562 50.78125 152.066406 50.8125 152.40625 C 50.84375 152.746094 50.90625 153.082031 51.003906 153.40625 C 51.101562 153.734375 51.230469 154.050781 51.394531 154.351562 C 51.554688 154.652344 51.746094 154.933594 51.964844 155.195312 C 52.183594 155.460938 52.425781 155.699219 52.691406 155.910156 C 52.960938 156.125 53.246094 156.308594 53.550781 156.464844 C 53.855469 156.617188 54.171875 156.742188 54.5 156.832031 C 54.832031 156.921875 55.167969 156.980469 55.507812 157.003906 C 55.847656 157.023438 56.1875 157.011719 56.527344 156.964844 C 56.867188 156.917969 57.195312 156.839844 57.519531 156.726562 C 57.839844 156.613281 58.148438 156.46875 58.441406 156.292969 C 58.734375 156.117188 59.007812 155.910156 59.257812 155.679688 C 59.511719 155.449219 59.734375 155.195312 59.9375 154.917969 C 60.136719 154.640625 60.304688 154.34375 60.445312 154.035156 L 71.179688 132.898438 L 103.015625 132.898438 L 113.617188 154.035156 C 113.757812 154.34375 113.929688 154.640625 114.128906 154.917969 C 114.328125 155.195312 114.554688 155.449219 114.804688 155.679688 C 115.058594 155.910156 115.328125 156.117188 115.621094 156.292969 C 115.914062 156.46875 116.222656 156.613281 116.546875 156.726562 C 116.867188 156.839844 117.199219 156.917969 117.535156 156.964844 C 117.875 157.011719 118.214844 157.023438 118.554688 157.003906 C 118.898438 156.980469 119.234375 156.921875 119.5625 156.832031 C 119.890625 156.742188 120.210938 156.617188 120.515625 156.464844 C 120.820312 156.308594 121.105469 156.125 121.371094 155.910156 C 121.640625 155.699219 121.882812 155.460938 122.101562 155.195312 C 122.320312 154.933594 122.507812 154.652344 122.671875 154.351562 C 122.832031 154.050781 122.960938 153.734375 123.058594 153.40625 C 123.15625 153.082031 123.222656 152.746094 123.25 152.40625 C 123.28125 152.066406 123.277344 151.726562 123.238281 151.386719 C 123.199219 151.046875 123.125 150.714844 123.019531 150.390625 C 122.910156 150.0625 122.773438 149.753906 122.601562 149.457031 Z M 76.296875 122.804688 L 87.097656 101.566406 L 97.867188 122.804688 Z M 76.296875 122.804688 " fill-opacity="1" fill-rule="nonzero"/><path fill="#4d8d80" d="M 236.957031 88.613281 L 217.269531 75.351562 C 221.355469 68.886719 224.722656 62.066406 227.367188 54.890625 L 234.097656 54.890625 C 234.429688 54.890625 234.757812 54.859375 235.082031 54.792969 C 235.40625 54.730469 235.722656 54.632812 236.027344 54.507812 C 236.335938 54.378906 236.625 54.222656 236.902344 54.039062 C 237.175781 53.855469 237.433594 53.648438 237.667969 53.414062 C 237.902344 53.179688 238.109375 52.921875 238.292969 52.648438 C 238.476562 52.371094 238.632812 52.082031 238.761719 51.773438 C 238.886719 51.46875 238.984375 51.152344 239.046875 50.828125 C 239.113281 50.503906 239.144531 50.175781 239.144531 49.84375 C 239.144531 49.511719 239.113281 49.183594 239.046875 48.859375 C 238.984375 48.535156 238.886719 48.21875 238.761719 47.910156 C 238.632812 47.605469 238.476562 47.3125 238.292969 47.039062 C 238.109375 46.761719 237.902344 46.507812 237.667969 46.273438 C 237.433594 46.039062 237.175781 45.828125 236.902344 45.644531 C 236.625 45.460938 236.335938 45.304688 236.027344 45.179688 C 235.722656 45.050781 235.40625 44.957031 235.082031 44.890625 C 234.757812 44.828125 234.429688 44.796875 234.097656 44.796875 L 213.703125 44.796875 L 213.703125 34.296875 C 213.703125 33.964844 213.671875 33.636719 213.605469 33.308594 C 213.539062 32.984375 213.445312 32.667969 213.320312 32.363281 C 213.191406 32.058594 213.035156 31.765625 212.851562 31.492188 C 212.667969 31.214844 212.457031 30.960938 212.222656 30.726562 C 211.988281 30.492188 211.734375 30.28125 211.460938 30.097656 C 211.183594 29.914062 210.894531 29.757812 210.585938 29.632812 C 210.28125 29.503906 209.964844 29.410156 209.640625 29.34375 C 209.3125 29.28125 208.984375 29.246094 208.65625 29.246094 C 208.324219 29.246094 207.996094 29.28125 207.667969 29.34375 C 207.34375 29.410156 207.027344 29.503906 206.722656 29.632812 C 206.417969 29.757812 206.125 29.914062 205.851562 30.097656 C 205.574219 30.28125 205.320312 30.492188 205.085938 30.726562 C 204.851562 30.960938 204.640625 31.214844 204.457031 31.492188 C 204.273438 31.765625 204.117188 32.058594 203.992188 32.363281 C 203.863281 32.667969 203.769531 32.984375 203.703125 33.308594 C 203.640625 33.636719 203.605469 33.964844 203.605469 34.296875 L 203.605469 44.796875 L 180.925781 44.796875 C 180.59375 44.796875 180.265625 44.828125 179.941406 44.890625 C 179.613281 44.957031 179.300781 45.050781 178.992188 45.179688 C 178.6875 45.304688 178.394531 45.460938 178.121094 45.644531 C 177.84375 45.828125 177.589844 46.039062 177.355469 46.273438 C 177.121094 46.507812 176.910156 46.761719 176.726562 47.039062 C 176.542969 47.3125 176.386719 47.605469 176.261719 47.910156 C 176.132812 48.21875 176.039062 48.535156 175.972656 48.859375 C 175.910156 49.183594 175.875 49.511719 175.875 49.84375 C 175.875 50.175781 175.910156 50.503906 175.972656 50.828125 C 176.039062 51.152344 176.132812 51.46875 176.261719 51.773438 C 176.386719 52.082031 176.542969 52.371094 176.726562 52.648438 C 176.910156 52.921875 177.121094 53.179688 177.355469 53.414062 C 177.589844 53.648438 177.84375 53.855469 178.121094 54.039062 C 178.394531 54.222656 178.6875 54.378906 178.992188 54.507812 C 179.300781 54.632812 179.613281 54.730469 179.941406 54.792969 C 180.265625 54.859375 180.59375 54.890625 180.925781 54.890625 L 216.628906 54.890625 C 214.476562 60.039062 211.894531 64.960938 208.890625 69.664062 L 196.203125 61.117188 C 195.921875 60.929688 195.625 60.773438 195.316406 60.644531 C 195.003906 60.519531 194.683594 60.421875 194.351562 60.359375 C 194.019531 60.292969 193.6875 60.261719 193.351562 60.261719 C 193.015625 60.265625 192.679688 60.300781 192.351562 60.367188 C 192.019531 60.433594 191.699219 60.53125 191.390625 60.660156 C 191.078125 60.792969 190.785156 60.953125 190.503906 61.140625 C 190.226562 61.328125 189.96875 61.542969 189.730469 61.78125 C 189.496094 62.019531 189.28125 62.28125 189.097656 62.5625 C 188.910156 62.839844 188.753906 63.136719 188.628906 63.449219 C 188.5 63.761719 188.40625 64.082031 188.339844 64.414062 C 188.277344 64.742188 188.246094 65.078125 188.246094 65.414062 C 188.25 65.75 188.285156 66.082031 188.351562 66.414062 C 188.417969 66.742188 188.515625 67.0625 188.648438 67.375 C 188.777344 67.683594 188.9375 67.980469 189.125 68.257812 C 189.316406 68.539062 189.527344 68.796875 189.769531 69.03125 C 190.007812 69.269531 190.269531 69.480469 190.550781 69.664062 L 203.066406 78.078125 C 199.144531 83.039062 194.800781 87.605469 190.042969 91.773438 C 189.796875 91.996094 189.574219 92.238281 189.371094 92.503906 C 189.171875 92.769531 189 93.050781 188.855469 93.351562 C 188.710938 93.652344 188.597656 93.960938 188.511719 94.28125 C 188.429688 94.605469 188.378906 94.929688 188.359375 95.261719 C 188.339844 95.59375 188.351562 95.925781 188.398438 96.253906 C 188.445312 96.582031 188.519531 96.90625 188.628906 97.21875 C 188.738281 97.53125 188.878906 97.832031 189.046875 98.121094 C 189.214844 98.40625 189.410156 98.671875 189.628906 98.921875 C 189.851562 99.171875 190.09375 99.394531 190.359375 99.59375 C 190.621094 99.796875 190.90625 99.96875 191.203125 100.113281 C 191.503906 100.257812 191.8125 100.375 192.132812 100.457031 C 192.457031 100.542969 192.78125 100.59375 193.113281 100.613281 C 193.445312 100.632812 193.777344 100.621094 194.105469 100.574219 C 194.433594 100.527344 194.757812 100.453125 195.070312 100.34375 C 195.382812 100.234375 195.683594 100.097656 195.972656 99.929688 C 196.257812 99.761719 196.527344 99.566406 196.773438 99.347656 C 202.1875 94.601562 207.113281 89.398438 211.550781 83.730469 L 231.40625 97.191406 C 232.25 97.761719 233.179688 98.042969 234.199219 98.035156 C 234.738281 98.03125 235.261719 97.949219 235.773438 97.777344 C 236.285156 97.609375 236.757812 97.363281 237.191406 97.042969 C 237.625 96.71875 237.996094 96.339844 238.308594 95.898438 C 238.617188 95.460938 238.851562 94.980469 239.011719 94.464844 C 239.167969 93.949219 239.242188 93.421875 239.230469 92.886719 C 239.21875 92.347656 239.125 91.820312 238.945312 91.3125 C 238.769531 90.804688 238.515625 90.335938 238.1875 89.910156 C 237.855469 89.480469 237.46875 89.117188 237.023438 88.8125 Z M 236.957031 88.613281 " fill-opacity="1" fill-rule="nonzero"/><g fill="#4d8d80" fill-opacity="1"><g transform="translate(269.405009, 118.070929)"><g><path d="M 0.890625 -0.625 C 0.890625 -0.882812 0.945312 -1.078125 1.0625 -1.203125 C 1.1875 -1.335938 1.359375 -1.40625 1.578125 -1.40625 C 1.804688 -1.40625 1.984375 -1.335938 2.109375 -1.203125 C 2.234375 -1.078125 2.296875 -0.882812 2.296875 -0.625 C 2.296875 -0.363281 2.226562 -0.164062 2.09375 -0.03125 C 1.96875 0.101562 1.796875 0.171875 1.578125 0.171875 C 1.378906 0.171875 1.210938 0.109375 1.078125 -0.015625 C 0.953125 -0.140625 0.890625 -0.34375 0.890625 -0.625 Z M 0.890625 -0.625 "/></g></g></g></svg>