<svg xmlns="http://www.w3.org/2000/svg" xmlns:xlink="http://www.w3.org/1999/xlink" width="308" zoomAndPan="magnify" viewBox="0 0 230.87999 231.75" height="309" preserveAspectRatio="xMidYMid meet" version="1.0"><defs><g/><clipPath id="e6e2d48402"><path d="M 0.0664062 0.707031 L 230.066406 0.707031 L 230.066406 230.707031 L 0.0664062 230.707031 Z M 0.0664062 0.707031 " clip-rule="nonzero"/></clipPath></defs><g clip-path="url(#e6e2d48402)"><path fill="#4d8d80" d="M 23.953125 146.050781 L 39.636719 146.050781 L 21.21875 165.5625 C 7.90625 148.238281 0.0664062 126.71875 0.0664062 103.195312 C 0.0664062 74.929688 11.554688 49.214844 30.15625 30.796875 C 48.574219 12.195312 74.285156 0.707031 102.550781 0.707031 C 130.820312 0.707031 156.351562 12.195312 174.949219 30.796875 C 177.503906 33.167969 179.691406 35.71875 181.878906 38.457031 L 160.726562 60.339844 L 155.621094 60.339844 C 155.984375 61.617188 156.351562 63.074219 156.53125 64.535156 L 145.589844 75.839844 C 144.679688 70.550781 143.585938 65.261719 142.125 60.339844 L 109.117188 60.339844 L 109.117188 96.628906 L 125.53125 96.628906 L 112.949219 109.757812 L 109.117188 109.757812 L 109.117188 112.496094 L 95.441406 102.101562 C 90.699219 98.636719 84.132812 99.183594 79.941406 103.378906 L 74.105469 109.757812 L 57.328125 109.757812 C 57.507812 115.230469 58.054688 120.703125 58.785156 125.808594 L 47.660156 137.660156 C 45.835938 128.90625 44.742188 119.425781 44.378906 109.757812 L 13.378906 109.757812 C 14.289062 122.707031 17.9375 135.109375 23.953125 146.050781 Z M 20.671875 183.253906 L 85.226562 115.046875 L 88.511719 111.402344 L 92.339844 114.320312 L 110.941406 128.542969 L 203.21875 33.167969 L 189.539062 20.21875 L 230.207031 12.378906 L 224.554688 53.226562 L 211.058594 40.460938 L 115.316406 139.484375 L 112.035156 142.949219 L 108.207031 140.03125 L 89.605469 125.808594 L 28.511719 190.730469 Z M 90.515625 135.472656 L 90.515625 230.847656 L 53.679688 230.847656 L 53.679688 172.855469 L 89.605469 134.925781 Z M 189.359375 72.011719 L 189.359375 230.847656 L 152.519531 230.847656 L 152.519531 110.125 Z M 139.9375 123.070312 L 139.9375 230.847656 L 103.101562 230.847656 L 103.101562 144.957031 L 108.207031 148.96875 L 112.035156 151.886719 L 115.316406 148.421875 Z M 13.378906 96.628906 L 44.378906 96.628906 C 44.742188 83.683594 46.566406 71.464844 49.484375 60.339844 L 23.953125 60.339844 C 17.9375 71.28125 14.289062 83.5 13.378906 96.628906 Z M 32.707031 47.210938 L 53.496094 47.210938 C 55.503906 41.921875 57.691406 36.8125 60.246094 32.253906 C 62.433594 28.0625 64.804688 24.230469 67.539062 20.765625 C 56.960938 25.324219 47.296875 31.890625 39.273438 39.914062 C 36.902344 42.285156 34.714844 44.65625 32.707031 47.210938 Z M 137.566406 20.765625 C 140.121094 24.230469 142.671875 28.0625 144.859375 32.253906 C 147.414062 36.8125 149.601562 41.921875 151.609375 47.210938 L 172.398438 47.210938 C 170.210938 44.65625 168.019531 42.285156 165.832031 39.914062 C 157.808594 31.890625 148.144531 25.324219 137.566406 20.765625 Z M 57.328125 96.628906 L 95.988281 96.628906 L 95.988281 60.339844 L 62.980469 60.339844 C 59.878906 71.28125 57.875 83.5 57.328125 96.628906 Z M 67.355469 47.210938 L 95.988281 47.210938 L 95.988281 14.75 C 86.871094 17.484375 78.296875 26.054688 71.550781 38.457031 C 70.09375 41.191406 68.816406 44.109375 67.355469 47.210938 Z M 109.117188 14.75 L 109.117188 47.210938 L 137.566406 47.210938 C 136.289062 44.109375 134.832031 41.191406 133.371094 38.457031 C 126.808594 26.054688 118.234375 17.484375 109.117188 14.75 Z M 109.117188 14.75 " fill-opacity="1" fill-rule="nonzero"/></g><g fill="#5ca899" fill-opacity="1"><g transform="translate(176.158472, 132.714103)"><g><path d="M 1.03125 -1.25 C 1.03125 -1.75 1.160156 -2.125 1.421875 -2.375 C 1.679688 -2.625 2.066406 -2.75 2.578125 -2.75 C 3.054688 -2.75 3.425781 -2.617188 3.6875 -2.359375 C 3.957031 -2.097656 4.09375 -1.726562 4.09375 -1.25 C 4.09375 -0.789062 3.957031 -0.425781 3.6875 -0.15625 C 3.425781 0.101562 3.054688 0.234375 2.578125 0.234375 C 2.078125 0.234375 1.691406 0.101562 1.421875 -0.15625 C 1.160156 -0.414062 1.03125 -0.78125 1.03125 -1.25 Z M 1.03125 -1.25 "/></g></g></g></svg>