<svg xmlns="http://www.w3.org/2000/svg" xmlns:xlink="http://www.w3.org/1999/xlink" width="308" zoomAndPan="magnify" viewBox="0 0 230.87999 231" height="308" preserveAspectRatio="xMidYMid meet" version="1.0"><defs><g/><clipPath id="355fa1e72a"><path d="M 0.601562 0.652344 L 230.730469 0.652344 L 230.730469 230.785156 L 0.601562 230.785156 Z M 0.601562 0.652344 " clip-rule="nonzero"/></clipPath></defs><g clip-path="url(#355fa1e72a)"><path fill="#4d8d80" d="M 144.78125 219.476562 C 142.328125 219.679688 140.09375 219.78125 138.019531 219.78125 C 129.910156 219.78125 122.0625 218.636719 114.589844 216.53125 L 131.605469 188.152344 C 132.273438 187.039062 133.492188 186.355469 134.796875 186.355469 L 144.578125 186.355469 C 148.8125 186.355469 152.628906 183.992188 154.542969 180.203125 L 157.867188 173.542969 C 158.488281 172.28125 159.765625 171.5 161.175781 171.5 L 178.613281 171.5 C 179.859375 171.5 181.007812 172.109375 181.703125 173.152344 L 193.238281 190.460938 C 180.121094 204.070312 163.480469 214.238281 144.78125 219.476562 Z M 8.027344 115.789062 C 8.027344 105.835938 9.464844 96.042969 12.132812 86.570312 C 15.992188 88.90625 19.96875 89.992188 24.191406 89.746094 C 25.929688 94.707031 29.414062 98.914062 34.027344 101.585938 L 34.027344 104.644531 C 27.890625 104.644531 22.882812 109.636719 22.882812 115.789062 C 22.882812 121.941406 27.890625 126.929688 34.027344 126.929688 C 34.027344 137.011719 39.074219 145.90625 46.765625 151.289062 C 53.234375 186.429688 78.738281 213.746094 111.671875 223.394531 C 54.164062 221.246094 8.027344 173.804688 8.027344 115.789062 Z M 11.8125 57.625 C 15.820312 63.589844 22.609375 67.503906 30.3125 67.503906 L 30.3125 60.078125 C 22.113281 60.078125 15.457031 53.417969 15.457031 45.222656 C 15.457031 39.097656 19.171875 33.789062 24.609375 31.539062 C 27.992188 39.5625 35.925781 45.222656 45.167969 45.222656 L 45.167969 37.792969 C 36.972656 37.792969 30.3125 31.132812 30.3125 22.9375 C 30.3125 14.738281 36.972656 8.082031 45.167969 8.082031 C 53.351562 8.082031 59.996094 14.710938 60.023438 22.878906 L 60.011719 34.078125 L 67.4375 34.078125 L 67.453125 22.9375 C 67.453125 14.738281 74.113281 8.082031 82.308594 8.082031 C 90.503906 8.082031 97.164062 14.738281 97.164062 22.9375 C 97.164062 31.132812 90.503906 37.792969 82.308594 37.792969 L 82.308594 45.222656 C 91.550781 45.222656 99.5 39.5625 102.867188 31.539062 C 108.308594 33.789062 112.019531 39.097656 112.019531 45.222656 C 112.019531 53.417969 105.363281 60.078125 97.164062 60.078125 L 97.164062 67.503906 C 104.867188 67.503906 111.660156 63.589844 115.664062 57.625 C 117.96875 60.207031 119.347656 63.53125 119.449219 67.085938 C 119.578125 71.945312 116.882812 76.6875 112.222656 79.824219 C 107.667969 82.871094 104.027344 82.566406 101.359375 81.984375 L 97.570312 81.128906 L 96.890625 84.957031 C 96.035156 89.804688 92.796875 93.894531 88.242188 95.914062 L 86.023438 96.898438 L 86.023438 104.644531 L 41.453125 104.644531 L 41.453125 96.898438 L 39.25 95.914062 C 34.679688 93.894531 31.445312 89.804688 30.585938 84.957031 L 29.90625 81.128906 L 26.121094 81.984375 C 23.449219 82.578125 19.792969 82.871094 15.253906 79.824219 C 10.59375 76.703125 7.898438 71.945312 8.027344 67.085938 C 8.128906 63.53125 9.507812 60.207031 11.8125 57.625 Z M 220.773438 92.039062 C 205.378906 61.773438 174.027344 41.507812 138.019531 41.507812 C 131.707031 41.507812 125.425781 42.175781 119.289062 43.421875 C 118.578125 34.601562 112.789062 27.085938 104.535156 24.214844 C 104.550781 23.792969 104.59375 23.371094 104.59375 22.9375 C 104.59375 17.785156 102.824219 13.058594 99.878906 9.269531 C 105.117188 8.5 110.410156 8.082031 115.734375 8.082031 C 166.960938 8.082031 209.921875 44.046875 220.773438 92.039062 Z M 179.746094 82.390625 C 176.625 82.144531 173.519531 83.246094 171.242188 85.394531 C 168.949219 87.542969 167.671875 90.574219 167.730469 93.707031 C 167.746094 94.578125 167.398438 95.417969 166.761719 96.070312 C 166.050781 96.796875 165.046875 97.21875 164.019531 97.21875 C 161.972656 97.21875 160.304688 95.550781 160.304688 93.503906 L 160.304688 71.21875 C 160.304688 67.722656 161.972656 64.402344 164.757812 62.296875 L 172.75 56.320312 C 199.96875 68.363281 219.773438 94.128906 222.976562 125.566406 C 222.949219 125.855469 222.933594 126.132812 222.90625 126.421875 C 221.757812 126.714844 220.597656 126.917969 219.453125 126.929688 C 211.285156 127.003906 204.089844 130.921875 200.199219 137.40625 L 198.082031 140.929688 C 196.398438 143.746094 193.292969 145.5 190 145.5 L 188.8125 145.5 C 184.71875 145.5 181.035156 143.207031 179.613281 139.785156 C 178.132812 136.1875 178.933594 132.140625 181.628906 129.425781 L 185.082031 125.972656 C 188.261719 122.796875 190.015625 118.558594 190.015625 114.0625 L 190.015625 93.953125 C 190.015625 87.917969 185.503906 82.839844 179.746094 82.390625 Z M 63.738281 156.644531 C 80.117188 156.644531 93.449219 143.308594 93.449219 126.929688 C 99.601562 126.929688 104.59375 121.941406 104.59375 115.789062 C 104.59375 109.636719 99.601562 104.644531 93.449219 104.644531 L 93.449219 101.585938 C 95.46875 100.410156 97.222656 98.914062 98.761719 97.21875 L 123.164062 97.21875 C 127.253906 97.21875 130.589844 100.554688 130.589844 104.644531 C 130.589844 112.84375 137.25 119.503906 145.449219 119.503906 L 149.160156 119.503906 C 153.253906 119.503906 156.589844 122.839844 156.589844 126.929688 C 156.589844 131.023438 153.253906 134.359375 149.160156 134.359375 L 116.96875 134.359375 C 112.980469 134.359375 109.019531 135.679688 105.828125 138.074219 L 100.878906 141.785156 C 96.222656 145.28125 93.449219 150.824219 93.449219 156.644531 C 93.449219 162.792969 88.460938 167.785156 82.308594 167.785156 L 59.414062 167.785156 C 57.730469 163.796875 56.296875 159.675781 55.222656 155.378906 C 57.921875 156.191406 60.777344 156.644531 63.738281 156.644531 Z M 86.023438 126.929688 C 86.023438 139.21875 76.027344 149.214844 63.738281 149.214844 C 51.449219 149.214844 41.453125 139.21875 41.453125 126.929688 Z M 93.449219 112.074219 C 95.496094 112.074219 97.164062 113.742188 97.164062 115.789062 C 97.164062 117.835938 95.496094 119.503906 93.449219 119.503906 L 34.027344 119.503906 C 31.980469 119.503906 30.3125 117.835938 30.3125 115.789062 C 30.3125 113.742188 31.980469 112.074219 34.027344 112.074219 Z M 62.96875 175.214844 L 82.308594 175.214844 C 92.550781 175.214844 100.878906 166.886719 100.878906 156.644531 C 100.878906 153.148438 102.546875 149.824219 105.332031 147.71875 L 110.292969 144.007812 C 112.210938 142.585938 114.574219 141.785156 116.96875 141.785156 L 149.160156 141.785156 C 157.359375 141.785156 164.019531 135.128906 164.019531 126.929688 C 164.019531 118.734375 157.359375 112.074219 149.160156 112.074219 L 145.449219 112.074219 C 141.355469 112.074219 138.019531 108.738281 138.019531 104.644531 C 138.019531 96.449219 131.359375 89.789062 123.164062 89.789062 L 103.273438 89.789062 C 103.273438 89.777344 103.289062 89.761719 103.300781 89.746094 C 107.871094 90.007812 112.179688 88.789062 116.359375 85.988281 C 123.148438 81.449219 127.082031 74.296875 126.863281 66.882812 C 126.703125 60.730469 123.988281 55.042969 119.507812 50.996094 C 125.558594 49.660156 131.765625 48.933594 138.019531 48.933594 C 147.289062 48.933594 156.183594 50.472656 164.554688 53.1875 L 160.304688 56.363281 C 155.648438 59.859375 152.875 65.402344 152.875 71.21875 L 152.875 93.503906 C 152.875 99.65625 157.867188 104.644531 164.019531 104.644531 C 167.019531 104.644531 169.953125 103.414062 172.054688 101.28125 C 174.117188 99.191406 175.21875 96.449219 175.160156 93.578125 C 175.144531 92.503906 175.550781 91.53125 176.335938 90.804688 C 177.105469 90.082031 178.105469 89.71875 179.179688 89.804688 C 181.066406 89.949219 182.589844 91.808594 182.589844 93.953125 L 182.589844 114.0625 C 182.589844 116.570312 181.601562 118.9375 179.832031 120.722656 L 176.378906 124.175781 C 171.546875 129.003906 170.125 136.246094 172.75 142.613281 C 175.335938 148.882812 181.644531 152.929688 188.8125 152.929688 L 190 152.929688 C 195.890625 152.929688 201.433594 149.796875 204.453125 144.746094 L 206.570312 141.234375 C 209.125 136.984375 213.953125 134.417969 219.523438 134.359375 C 220.292969 134.34375 221.078125 134.214844 221.847656 134.113281 C 218.566406 153.175781 210.285156 170.527344 198.371094 184.773438 L 187.882812 169.03125 C 185.808594 165.929688 182.339844 164.070312 178.613281 164.070312 L 161.175781 164.070312 C 156.9375 164.070312 153.121094 166.4375 151.207031 170.222656 L 147.886719 176.882812 C 147.261719 178.144531 145.984375 178.925781 144.578125 178.925781 L 134.796875 178.925781 C 130.910156 178.925781 127.238281 181 125.238281 184.339844 L 107.363281 214.136719 C 88.402344 206.898438 72.660156 193.101562 62.96875 175.214844 Z M 115.734375 0.652344 C 107.855469 0.652344 99.992188 1.480469 92.332031 3.0625 C 89.316406 1.539062 85.921875 0.652344 82.308594 0.652344 C 74.5625 0.652344 67.742188 4.628906 63.738281 10.632812 C 59.75 4.628906 52.914062 0.652344 45.167969 0.652344 C 32.878906 0.652344 22.882812 10.648438 22.882812 22.9375 C 22.882812 23.371094 22.925781 23.792969 22.957031 24.214844 C 14.136719 27.289062 8.027344 35.601562 8.027344 45.222656 C 8.027344 46.992188 8.261719 48.71875 8.652344 50.371094 C 3.746094 54.433594 0.789062 60.425781 0.613281 66.882812 C 0.46875 72.105469 2.414062 77.183594 5.925781 81.316406 C 2.425781 92.445312 0.601562 104.023438 0.601562 115.789062 C 0.601562 179.273438 52.25 230.925781 115.734375 230.925781 C 179.222656 230.925781 230.871094 179.273438 230.871094 115.789062 C 230.871094 52.300781 179.222656 0.652344 115.734375 0.652344 " fill-opacity="1" fill-rule="nonzero"/></g><g fill="#5ca899" fill-opacity="1"><g transform="translate(39.119301, 113.51165)"><g><path d="M 1.03125 -1.25 C 1.03125 -1.75 1.160156 -2.125 1.421875 -2.375 C 1.679688 -2.625 2.066406 -2.75 2.578125 -2.75 C 3.054688 -2.75 3.425781 -2.617188 3.6875 -2.359375 C 3.957031 -2.097656 4.09375 -1.726562 4.09375 -1.25 C 4.09375 -0.789062 3.957031 -0.425781 3.6875 -0.15625 C 3.425781 0.101562 3.054688 0.234375 2.578125 0.234375 C 2.078125 0.234375 1.691406 0.101562 1.421875 -0.15625 C 1.160156 -0.414062 1.03125 -0.78125 1.03125 -1.25 Z M 1.03125 -1.25 "/></g></g></g></svg>