<svg xmlns="http://www.w3.org/2000/svg" xmlns:xlink="http://www.w3.org/1999/xlink" width="263" zoomAndPan="magnify" viewBox="0 0 197.25 231.749993" height="309" preserveAspectRatio="xMidYMid meet" version="1.0"><defs><g/><clipPath id="9588253af6"><path d="M 1 1.019531 L 190 1.019531 L 190 230.398438 L 1 230.398438 Z M 1 1.019531 " clip-rule="nonzero"/></clipPath></defs><g clip-path="url(#9588253af6)"><path fill="#4d8d80" d="M 185.300781 61.4375 C 181.035156 52.5 171.863281 46.890625 168.382812 45.015625 L 168.394531 31.597656 C 168.398438 24.824219 164.394531 18.773438 158.199219 16.191406 C 152.546875 13.832031 143.984375 11.039062 135.085938 14.15625 C 134.691406 14.292969 134.363281 14.535156 134.007812 14.730469 C 132.746094 11.640625 130.285156 9.179688 127.070312 8.117188 C 119.609375 5.652344 112.070312 5.652344 104.636719 8.121094 C 103.15625 8.613281 101.851562 9.421875 100.726562 10.425781 C 99.535156 7.128906 96.976562 4.476562 93.589844 3.335938 C 86.160156 0.886719 78.625 0.890625 71.179688 3.339844 C 66.46875 4.925781 63.304688 9.441406 63.304688 14.566406 L 63.304688 15.863281 C 58.105469 15.730469 46.167969 15.898438 38.628906 19.785156 C 31.070312 23.679688 29.589844 34.84375 29.75 51.542969 C 27.203125 52.347656 24.703125 53.167969 22.367188 53.992188 C 18.011719 55.53125 14.570312 59.058594 12.140625 64.472656 C 2.925781 84.992188 0.617188 104.273438 1.441406 114.546875 C 2.90625 132.878906 12.277344 148.011719 30.929688 162.160156 C 50.023438 176.644531 48.90625 227.675781 48.890625 228.1875 C 48.855469 229.507812 49.898438 230.601562 51.214844 230.640625 L 51.277344 230.640625 C 52.566406 230.640625 53.628906 229.613281 53.664062 228.320312 C 53.722656 226.121094 54.855469 174.320312 33.816406 158.355469 C 16.085938 144.90625 7.566406 131.277344 6.199219 114.167969 C 5.421875 104.457031 7.648438 86.125 16.492188 66.429688 C 18.398438 62.191406 20.835938 59.59375 23.953125 58.496094 C 41.34375 52.355469 54.871094 49.855469 61.046875 51.609375 C 67.667969 53.5 70.304688 57.726562 71.351562 60.941406 C 72.957031 65.867188 71.925781 72.066406 68.847656 76.011719 C 63.136719 83.332031 42.0625 95.359375 41.851562 95.480469 C 40.976562 95.980469 40.507812 96.972656 40.679688 97.964844 C 40.851562 98.957031 41.632812 99.734375 42.625 99.90625 C 42.789062 99.933594 58.839844 102.742188 75.316406 110.453125 C 105.28125 124.46875 114.84375 144.121094 114.9375 144.316406 C 115.5 145.507812 116.910156 146.015625 118.109375 145.457031 C 119.296875 144.898438 119.808594 143.480469 119.253906 142.289062 C 118.851562 141.425781 108.984375 120.933594 77.339844 106.128906 C 66.414062 101.015625 55.855469 98.019531 49.496094 96.492188 C 53.628906 93.964844 59.464844 90.222656 64.449219 86.414062 C 66.425781 91.503906 70.695312 95.371094 76.03125 96.496094 C 78.125 96.933594 80.230469 97.152344 82.34375 97.152344 C 84.453125 97.152344 86.566406 96.933594 88.667969 96.496094 C 93.121094 95.539062 96.808594 92.660156 99.0625 88.824219 C 101.316406 92.671875 105.015625 95.546875 109.480469 96.476562 C 111.574219 96.914062 113.6875 97.136719 115.800781 97.136719 C 117.914062 97.136719 120.023438 96.914062 122.121094 96.476562 C 127.679688 95.320312 132.089844 91.171875 133.941406 85.84375 C 136.199219 88.644531 139.328125 90.683594 142.960938 91.441406 C 145.058594 91.878906 147.167969 92.097656 149.285156 92.097656 C 151.394531 92.097656 153.503906 91.878906 155.601562 91.441406 C 162.996094 89.902344 168.367188 83.070312 168.367188 75.199219 L 168.382812 50.5625 C 172.136719 52.90625 178.050781 57.332031 180.992188 63.496094 C 184.578125 70.996094 185.824219 90.625 184.421875 117.34375 C 183.519531 134.417969 177.644531 151.03125 166.449219 168.132812 C 166.210938 168.492188 166.078125 168.90625 166.058594 169.339844 L 163.621094 228.15625 C 163.570312 229.46875 164.589844 230.582031 165.910156 230.640625 L 166.007812 230.640625 C 167.28125 230.640625 168.335938 229.632812 168.394531 228.351562 L 170.800781 170.191406 C 182.234375 152.558594 188.25 135.34375 189.1875 117.597656 C 190.035156 101.441406 190.65625 72.664062 185.300781 61.4375 Z M 63.261719 47.390625 C 62.945312 47.285156 62.683594 47.117188 62.355469 47.023438 C 55.777344 45.132812 44.957031 47.140625 34.523438 50.113281 C 34.472656 33.828125 36.265625 26.371094 40.816406 24.027344 C 47.390625 20.632812 58.570312 20.515625 63.296875 20.640625 Z M 96.660156 80.230469 C 96.660156 85.828125 92.878906 90.707031 87.679688 91.828125 C 84.132812 92.574219 80.546875 92.574219 77.015625 91.828125 C 72.785156 90.933594 69.484375 87.554688 68.40625 83.207031 C 70.097656 81.726562 71.570312 80.277344 72.609375 78.949219 C 76.671875 73.742188 77.988281 65.910156 75.886719 59.460938 C 74.523438 55.28125 71.757812 51.96875 68.03125 49.632812 L 68.078125 14.570312 C 68.078125 11.539062 69.980469 8.78125 72.6875 7.867188 C 79.121094 5.75 85.652344 5.753906 92.082031 7.863281 C 94.804688 8.78125 96.707031 11.539062 96.707031 14.570312 Z M 130.113281 80.238281 C 130.113281 85.859375 126.34375 90.726562 121.152344 91.808594 C 117.597656 92.542969 113.988281 92.542969 110.449219 91.808594 C 105.257812 90.722656 101.488281 85.859375 101.488281 80.238281 L 101.429688 80.238281 L 101.429688 80.230469 L 101.472656 19.351562 L 101.535156 19.351562 C 101.539062 16.300781 103.429688 13.546875 106.136719 12.652344 C 112.578125 10.519531 119.125 10.523438 125.570312 12.648438 C 128.277344 13.542969 130.167969 16.304688 130.167969 19.363281 Z M 163.59375 75.199219 C 163.59375 80.820312 159.824219 85.691406 154.632812 86.769531 C 151.085938 87.507812 147.484375 87.507812 143.929688 86.769531 C 138.734375 85.6875 134.964844 80.820312 134.964844 75.199219 L 134.890625 75.199219 L 134.9375 20.964844 L 134.996094 20.964844 C 134.996094 19.933594 135.664062 19.007812 136.660156 18.660156 C 142.328125 16.667969 148.40625 17.265625 156.363281 20.597656 C 160.773438 22.4375 163.625 26.753906 163.621094 31.59375 Z M 163.59375 75.199219 " fill-opacity="1" fill-rule="nonzero"/></g><g fill="#5ca899" fill-opacity="1"><g transform="translate(185.663525, 116.54006)"><g><path d="M 1.03125 -1.25 C 1.03125 -1.738281 1.160156 -2.109375 1.421875 -2.359375 C 1.679688 -2.609375 2.0625 -2.734375 2.5625 -2.734375 C 3.050781 -2.734375 3.425781 -2.601562 3.6875 -2.34375 C 3.957031 -2.09375 4.09375 -1.726562 4.09375 -1.25 C 4.09375 -0.789062 3.957031 -0.425781 3.6875 -0.15625 C 3.414062 0.101562 3.039062 0.234375 2.5625 0.234375 C 2.070312 0.234375 1.691406 0.101562 1.421875 -0.15625 C 1.160156 -0.414062 1.03125 -0.78125 1.03125 -1.25 Z M 1.03125 -1.25 "/></g></g></g></svg>