<svg xmlns="http://www.w3.org/2000/svg" xmlns:xlink="http://www.w3.org/1999/xlink" width="275" zoomAndPan="magnify" viewBox="0 0 206.25 231.749993" height="309" preserveAspectRatio="xMidYMid meet" version="1.0"><defs><g/><clipPath id="f75643054e"><path d="M 39 0.972656 L 204.753906 0.972656 L 204.753906 230.386719 L 39 230.386719 Z M 39 0.972656 " clip-rule="nonzero"/></clipPath></defs><path fill="#4d8d80" d="M 48.289062 14.476562 C 48.035156 14.628906 47.796875 14.804688 47.578125 15.003906 C 47.355469 15.199219 47.15625 15.417969 46.976562 15.652344 C 46.796875 15.890625 46.640625 16.140625 46.511719 16.40625 C 46.378906 16.671875 46.273438 16.949219 46.195312 17.234375 C 46.117188 17.519531 46.066406 17.808594 46.042969 18.105469 C 46.019531 18.402344 46.023438 18.695312 46.058594 18.992188 C 46.09375 19.285156 46.152344 19.574219 46.242188 19.859375 C 46.332031 20.140625 46.445312 20.414062 46.585938 20.671875 L 59.226562 42.730469 C 59.554688 43.21875 59.957031 43.628906 60.441406 43.960938 C 60.921875 44.292969 61.449219 44.527344 62.019531 44.664062 C 62.589844 44.796875 63.167969 44.820312 63.746094 44.738281 C 64.328125 44.652344 64.871094 44.46875 65.382812 44.175781 C 65.890625 43.886719 66.328125 43.515625 66.699219 43.058594 C 67.066406 42.601562 67.339844 42.09375 67.515625 41.535156 C 67.691406 40.976562 67.757812 40.402344 67.71875 39.816406 C 67.679688 39.234375 67.53125 38.675781 67.28125 38.144531 L 54.640625 16.179688 C 54.488281 15.917969 54.3125 15.667969 54.109375 15.441406 C 53.910156 15.210938 53.6875 15.003906 53.445312 14.816406 C 53.203125 14.628906 52.945312 14.46875 52.671875 14.335938 C 52.398438 14.199219 52.113281 14.09375 51.820312 14.011719 C 51.523438 13.933594 51.222656 13.882812 50.917969 13.863281 C 50.613281 13.84375 50.3125 13.855469 50.007812 13.894531 C 49.707031 13.933594 49.410156 14.003906 49.121094 14.101562 C 48.832031 14.199219 48.554688 14.324219 48.289062 14.476562 Z M 48.289062 14.476562 " fill-opacity="1" fill-rule="nonzero"/><path fill="#4d8d80" d="M 19.449219 48.089844 C 19.183594 47.9375 18.90625 47.8125 18.617188 47.714844 C 18.328125 47.617188 18.035156 47.546875 17.730469 47.507812 C 17.429688 47.46875 17.125 47.457031 16.820312 47.476562 C 16.515625 47.5 16.214844 47.546875 15.921875 47.625 C 15.625 47.707031 15.339844 47.8125 15.066406 47.949219 C 14.792969 48.082031 14.535156 48.242188 14.292969 48.429688 C 14.050781 48.617188 13.828125 48.824219 13.628906 49.054688 C 13.425781 49.28125 13.25 49.53125 13.097656 49.792969 C 12.945312 50.058594 12.820312 50.335938 12.722656 50.625 C 12.625 50.914062 12.554688 51.210938 12.515625 51.511719 C 12.476562 51.816406 12.464844 52.117188 12.484375 52.421875 C 12.507812 52.726562 12.554688 53.027344 12.632812 53.324219 C 12.714844 53.617188 12.820312 53.902344 12.957031 54.175781 C 13.089844 54.449219 13.25 54.707031 13.4375 54.949219 C 13.625 55.191406 13.832031 55.414062 14.0625 55.613281 C 14.289062 55.816406 14.539062 55.992188 14.800781 56.144531 L 36.703125 68.785156 C 36.96875 68.9375 37.246094 69.0625 37.535156 69.160156 C 37.824219 69.257812 38.121094 69.324219 38.421875 69.367188 C 38.722656 69.40625 39.027344 69.414062 39.332031 69.394531 C 39.636719 69.375 39.9375 69.324219 40.230469 69.246094 C 40.527344 69.167969 40.808594 69.058594 41.082031 68.925781 C 41.355469 68.789062 41.617188 68.628906 41.855469 68.441406 C 42.097656 68.257812 42.320312 68.050781 42.523438 67.820312 C 42.722656 67.589844 42.898438 67.34375 43.050781 67.078125 C 43.203125 66.816406 43.332031 66.539062 43.429688 66.25 C 43.527344 65.960938 43.59375 65.664062 43.636719 65.363281 C 43.675781 65.058594 43.683594 64.753906 43.664062 64.449219 C 43.644531 64.148438 43.59375 63.847656 43.515625 63.550781 C 43.4375 63.257812 43.332031 62.972656 43.195312 62.699219 C 43.058594 62.425781 42.898438 62.167969 42.714844 61.925781 C 42.527344 61.683594 42.320312 61.460938 42.089844 61.261719 C 41.863281 61.058594 41.613281 60.882812 41.351562 60.730469 Z M 19.449219 48.089844 " fill-opacity="1" fill-rule="nonzero"/><path fill="#4d8d80" d="M 34.90625 97.964844 C 34.90625 97.660156 34.878906 97.359375 34.816406 97.058594 C 34.757812 96.761719 34.671875 96.46875 34.554688 96.1875 C 34.4375 95.90625 34.292969 95.640625 34.125 95.386719 C 33.953125 95.132812 33.761719 94.898438 33.546875 94.679688 C 33.332031 94.464844 33.097656 94.273438 32.84375 94.101562 C 32.589844 93.933594 32.320312 93.789062 32.039062 93.671875 C 31.757812 93.558594 31.464844 93.46875 31.167969 93.410156 C 30.867188 93.347656 30.566406 93.320312 30.261719 93.320312 L 4.949219 93.320312 C 4.644531 93.320312 4.34375 93.347656 4.042969 93.410156 C 3.746094 93.46875 3.453125 93.558594 3.171875 93.671875 C 2.890625 93.789062 2.621094 93.933594 2.367188 94.101562 C 2.113281 94.273438 1.878906 94.464844 1.664062 94.679688 C 1.449219 94.898438 1.257812 95.132812 1.085938 95.386719 C 0.917969 95.640625 0.773438 95.90625 0.65625 96.1875 C 0.539062 96.46875 0.453125 96.761719 0.394531 97.058594 C 0.332031 97.359375 0.304688 97.660156 0.304688 97.964844 C 0.304688 98.273438 0.332031 98.574219 0.394531 98.875 C 0.453125 99.171875 0.539062 99.464844 0.65625 99.746094 C 0.773438 100.027344 0.917969 100.292969 1.085938 100.546875 C 1.257812 100.800781 1.449219 101.035156 1.664062 101.253906 C 1.878906 101.46875 2.113281 101.660156 2.367188 101.832031 C 2.621094 102 2.890625 102.144531 3.171875 102.261719 C 3.453125 102.375 3.746094 102.464844 4.042969 102.523438 C 4.34375 102.582031 4.644531 102.613281 4.949219 102.613281 L 30.261719 102.613281 C 30.566406 102.613281 30.867188 102.582031 31.167969 102.523438 C 31.464844 102.464844 31.757812 102.375 32.039062 102.261719 C 32.320312 102.144531 32.589844 102 32.84375 101.832031 C 33.097656 101.660156 33.332031 101.46875 33.546875 101.253906 C 33.761719 101.035156 33.953125 100.800781 34.125 100.546875 C 34.292969 100.292969 34.4375 100.027344 34.554688 99.746094 C 34.671875 99.464844 34.757812 99.171875 34.816406 98.875 C 34.878906 98.574219 34.90625 98.273438 34.90625 97.964844 Z M 34.90625 97.964844 " fill-opacity="1" fill-rule="nonzero"/><path fill="#4d8d80" d="M 36.921875 127.085938 L 14.988281 139.757812 C 14.722656 139.910156 14.476562 140.085938 14.246094 140.289062 C 14.015625 140.488281 13.808594 140.710938 13.621094 140.953125 C 13.4375 141.195312 13.273438 141.453125 13.140625 141.726562 C 13.003906 142 12.898438 142.285156 12.816406 142.582031 C 12.738281 142.875 12.6875 143.175781 12.667969 143.480469 C 12.648438 143.785156 12.65625 144.089844 12.699219 144.390625 C 12.738281 144.695312 12.804688 144.992188 12.90625 145.28125 C 13.003906 145.570312 13.128906 145.847656 13.28125 146.109375 C 13.433594 146.375 13.609375 146.621094 13.8125 146.851562 C 14.011719 147.082031 14.234375 147.289062 14.476562 147.476562 C 14.71875 147.660156 14.976562 147.820312 15.25 147.957031 C 15.523438 148.09375 15.808594 148.199219 16.105469 148.277344 C 16.398438 148.355469 16.699219 148.40625 17.003906 148.425781 C 17.308594 148.445312 17.613281 148.4375 17.917969 148.394531 C 18.21875 148.355469 18.515625 148.289062 18.804688 148.1875 C 19.09375 148.089844 19.371094 147.964844 19.632812 147.8125 L 41.535156 135.171875 C 41.800781 135.019531 42.046875 134.84375 42.277344 134.640625 C 42.507812 134.441406 42.714844 134.21875 42.902344 133.976562 C 43.085938 133.734375 43.246094 133.476562 43.382812 133.203125 C 43.519531 132.929688 43.625 132.644531 43.703125 132.351562 C 43.78125 132.054688 43.832031 131.753906 43.851562 131.449219 C 43.871094 131.144531 43.863281 130.84375 43.824219 130.539062 C 43.785156 130.238281 43.714844 129.941406 43.617188 129.652344 C 43.519531 129.363281 43.394531 129.085938 43.242188 128.820312 C 43.089844 128.558594 42.910156 128.308594 42.710938 128.082031 C 42.507812 127.851562 42.289062 127.644531 42.046875 127.457031 C 41.804688 127.273438 41.542969 127.109375 41.269531 126.976562 C 40.996094 126.839844 40.714844 126.734375 40.417969 126.65625 C 40.125 126.574219 39.824219 126.527344 39.519531 126.507812 C 39.214844 126.484375 38.910156 126.496094 38.609375 126.535156 C 38.304688 126.574219 38.007812 126.644531 37.71875 126.742188 C 37.429688 126.839844 37.15625 126.964844 36.890625 127.117188 Z M 36.921875 127.085938 " fill-opacity="1" fill-rule="nonzero"/><g clip-path="url(#f75643054e)"><path fill="#4d8d80" d="M 201.730469 62.929688 L 189.339844 62.929688 C 188.929688 62.929688 188.53125 63.007812 188.152344 63.164062 C 187.773438 63.320312 187.4375 63.546875 187.148438 63.835938 C 186.859375 64.128906 186.632812 64.460938 186.476562 64.839844 C 186.320312 65.222656 186.242188 65.617188 186.242188 66.027344 L 186.242188 69.125 L 176.945312 69.125 C 176.535156 69.125 176.140625 69.203125 175.761719 69.359375 C 175.382812 69.519531 175.046875 69.742188 174.757812 70.03125 C 174.464844 70.324219 174.242188 70.65625 174.085938 71.039062 C 173.925781 71.417969 173.847656 71.8125 173.847656 72.222656 L 173.847656 90.808594 L 164.554688 90.808594 C 164.144531 90.808594 163.75 90.890625 163.371094 91.046875 C 162.988281 91.203125 162.65625 91.425781 162.363281 91.71875 C 162.074219 92.007812 161.851562 92.34375 161.691406 92.722656 C 161.535156 93.101562 161.457031 93.496094 161.457031 93.910156 L 161.457031 112.496094 L 105.695312 112.496094 C 105.429688 112.515625 105.171875 112.566406 104.921875 112.652344 C 104.65625 112.160156 104.332031 111.714844 103.949219 111.3125 C 103.5625 110.910156 103.132812 110.566406 102.65625 110.28125 C 102.179688 109.996094 101.671875 109.777344 101.136719 109.625 C 100.601562 109.476562 100.054688 109.402344 99.5 109.398438 L 99.5 106.300781 C 100.039062 106.296875 100.570312 106.222656 101.09375 106.082031 C 101.613281 105.941406 102.109375 105.734375 102.574219 105.460938 C 103.042969 105.1875 103.46875 104.863281 103.847656 104.480469 C 104.230469 104.097656 104.558594 103.671875 104.828125 103.203125 L 139.773438 103.203125 C 140.183594 103.203125 140.578125 103.125 140.957031 102.964844 C 141.335938 102.808594 141.671875 102.585938 141.960938 102.292969 C 142.253906 102.003906 142.476562 101.667969 142.632812 101.289062 C 142.792969 100.910156 142.871094 100.515625 142.871094 100.105469 L 142.871094 53.636719 L 158.359375 53.636719 C 158.769531 53.636719 159.164062 53.558594 159.542969 53.398438 C 159.925781 53.242188 160.257812 53.019531 160.550781 52.726562 C 160.839844 52.4375 161.0625 52.101562 161.222656 51.722656 C 161.378906 51.34375 161.457031 50.949219 161.457031 50.539062 L 161.457031 34.492188 C 161.796875 34.371094 162.132812 34.230469 162.457031 34.070312 C 162.78125 33.910156 163.097656 33.730469 163.402344 33.535156 C 163.703125 33.339844 163.996094 33.125 164.277344 32.894531 C 164.554688 32.664062 164.820312 32.417969 165.070312 32.15625 C 165.320312 31.894531 165.554688 31.621094 165.773438 31.332031 C 165.992188 31.042969 166.191406 30.742188 166.375 30.429688 C 166.558594 30.117188 166.722656 29.796875 166.867188 29.464844 C 167.015625 29.132812 167.140625 28.792969 167.246094 28.449219 C 167.351562 28.101562 167.4375 27.75 167.503906 27.394531 C 167.566406 27.039062 167.613281 26.679688 167.632812 26.320312 C 167.65625 25.957031 167.660156 25.59375 167.640625 25.234375 C 167.621094 24.871094 167.582031 24.511719 167.519531 24.15625 C 167.457031 23.800781 167.375 23.449219 167.273438 23.101562 C 167.171875 22.753906 167.050781 22.414062 166.90625 22.078125 C 166.765625 21.746094 166.605469 21.421875 166.425781 21.109375 C 166.242188 20.792969 166.046875 20.492188 165.832031 20.203125 C 165.617188 19.910156 165.382812 19.632812 165.136719 19.367188 C 164.890625 19.105469 164.625 18.855469 164.351562 18.621094 C 164.074219 18.390625 163.785156 18.171875 163.480469 17.972656 C 163.179688 17.773438 162.867188 17.59375 162.542969 17.429688 C 162.21875 17.265625 161.886719 17.121094 161.546875 17 C 161.207031 16.875 160.863281 16.769531 160.507812 16.6875 C 160.15625 16.601562 159.800781 16.539062 159.441406 16.496094 C 159.082031 16.457031 158.722656 16.433594 158.359375 16.433594 C 157.996094 16.433594 157.636719 16.457031 157.277344 16.496094 C 156.917969 16.539062 156.5625 16.601562 156.210938 16.6875 C 155.855469 16.769531 155.511719 16.875 155.171875 17 C 154.832031 17.121094 154.5 17.265625 154.175781 17.429688 C 153.851562 17.59375 153.539062 17.773438 153.238281 17.972656 C 152.933594 18.171875 152.644531 18.390625 152.367188 18.621094 C 152.09375 18.855469 151.828125 19.105469 151.582031 19.367188 C 151.335938 19.632812 151.101562 19.910156 150.886719 20.203125 C 150.671875 20.492188 150.476562 20.792969 150.292969 21.109375 C 150.113281 21.421875 149.953125 21.746094 149.8125 22.078125 C 149.667969 22.414062 149.546875 22.753906 149.445312 23.101562 C 149.34375 23.449219 149.261719 23.800781 149.199219 24.15625 C 149.136719 24.511719 149.097656 24.871094 149.078125 25.234375 C 149.058594 25.59375 149.0625 25.957031 149.085938 26.320312 C 149.105469 26.679688 149.152344 27.039062 149.214844 27.394531 C 149.28125 27.75 149.367188 28.101562 149.472656 28.449219 C 149.578125 28.792969 149.703125 29.132812 149.851562 29.464844 C 149.996094 29.796875 150.160156 30.117188 150.34375 30.429688 C 150.527344 30.742188 150.726562 31.042969 150.945312 31.332031 C 151.164062 31.621094 151.398438 31.894531 151.648438 32.15625 C 151.898438 32.417969 152.164062 32.664062 152.441406 32.894531 C 152.722656 33.125 153.015625 33.339844 153.316406 33.535156 C 153.621094 33.730469 153.9375 33.910156 154.261719 34.070312 C 154.585938 34.230469 154.921875 34.371094 155.261719 34.492188 L 155.261719 47.441406 L 139.773438 47.441406 C 139.359375 47.441406 138.964844 47.519531 138.585938 47.675781 C 138.207031 47.832031 137.871094 48.054688 137.582031 48.347656 C 137.289062 48.636719 137.066406 48.972656 136.910156 49.351562 C 136.753906 49.730469 136.675781 50.125 136.675781 50.539062 L 136.675781 97.007812 L 104.828125 97.007812 C 104.558594 96.539062 104.230469 96.113281 103.847656 95.730469 C 103.46875 95.347656 103.042969 95.019531 102.574219 94.746094 C 102.109375 94.476562 101.613281 94.269531 101.09375 94.125 C 100.570312 93.984375 100.039062 93.910156 99.5 93.910156 L 99.5 90.808594 C 100.039062 90.808594 100.570312 90.734375 101.09375 90.59375 C 101.613281 90.449219 102.109375 90.242188 102.574219 89.972656 C 103.042969 89.699219 103.46875 89.371094 103.847656 88.988281 C 104.230469 88.605469 104.558594 88.179688 104.828125 87.710938 L 124.28125 87.710938 C 124.691406 87.710938 125.089844 87.632812 125.46875 87.476562 C 125.847656 87.320312 126.183594 87.097656 126.472656 86.804688 C 126.761719 86.515625 126.988281 86.179688 127.144531 85.800781 C 127.300781 85.421875 127.378906 85.027344 127.378906 84.613281 L 127.378906 59.832031 C 127.378906 59.421875 127.300781 59.023438 127.144531 58.644531 C 126.988281 58.265625 126.761719 57.929688 126.472656 57.640625 C 126.183594 57.351562 125.847656 57.125 125.46875 56.96875 C 125.089844 56.8125 124.691406 56.734375 124.28125 56.734375 L 111.890625 56.734375 L 111.890625 19.558594 L 114.988281 19.558594 C 115.398438 19.558594 115.792969 19.480469 116.175781 19.324219 C 116.554688 19.164062 116.886719 18.941406 117.179688 18.652344 C 117.46875 18.359375 117.695312 18.027344 117.851562 17.644531 C 118.007812 17.265625 118.085938 16.871094 118.085938 16.460938 L 118.085938 4.070312 C 118.085938 3.65625 118.007812 3.261719 117.851562 2.882812 C 117.695312 2.503906 117.46875 2.167969 117.179688 1.878906 C 116.886719 1.585938 116.554688 1.363281 116.175781 1.207031 C 115.792969 1.050781 115.398438 0.972656 114.988281 0.972656 L 102.597656 0.972656 C 102.1875 0.972656 101.789062 1.050781 101.410156 1.207031 C 101.03125 1.363281 100.695312 1.585938 100.40625 1.878906 C 100.117188 2.167969 99.890625 2.503906 99.734375 2.882812 C 99.578125 3.261719 99.5 3.65625 99.5 4.070312 L 99.5 16.460938 C 99.5 16.871094 99.578125 17.265625 99.734375 17.644531 C 99.890625 18.027344 100.117188 18.359375 100.40625 18.652344 C 100.695312 18.941406 101.03125 19.164062 101.410156 19.324219 C 101.789062 19.480469 102.1875 19.558594 102.597656 19.558594 L 105.695312 19.558594 L 105.695312 59.832031 C 105.695312 60.242188 105.773438 60.636719 105.929688 61.015625 C 106.085938 61.394531 106.3125 61.730469 106.601562 62.023438 C 106.894531 62.3125 107.226562 62.535156 107.605469 62.695312 C 107.988281 62.851562 108.382812 62.929688 108.792969 62.929688 L 121.183594 62.929688 L 121.183594 81.515625 L 104.828125 81.515625 C 104.558594 81.046875 104.230469 80.621094 103.847656 80.238281 C 103.46875 79.855469 103.042969 79.53125 102.574219 79.257812 C 102.109375 78.988281 101.613281 78.78125 101.09375 78.636719 C 100.570312 78.496094 100.039062 78.421875 99.5 78.417969 L 99.5 42.730469 C 99.5 42.320312 99.421875 41.925781 99.261719 41.546875 C 99.105469 41.164062 98.882812 40.832031 98.589844 40.539062 C 98.300781 40.25 97.964844 40.027344 97.585938 39.867188 C 97.207031 39.710938 96.8125 39.632812 96.402344 39.632812 L 96.027344 39.632812 C 94.160156 39.648438 92.292969 39.753906 90.433594 39.949219 C 88.574219 40.144531 86.730469 40.433594 84.898438 40.808594 C 83.066406 41.1875 81.257812 41.652344 79.472656 42.207031 C 77.683594 42.757812 75.929688 43.398438 74.207031 44.125 C 72.484375 44.847656 70.800781 45.65625 69.152344 46.546875 C 67.507812 47.4375 65.914062 48.40625 64.363281 49.453125 C 62.8125 50.5 61.316406 51.617188 59.875 52.808594 C 58.4375 54.003906 57.058594 55.261719 55.738281 56.589844 C 54.421875 57.917969 53.171875 59.304688 51.992188 60.753906 C 50.808594 62.203125 49.703125 63.707031 48.667969 65.265625 C 47.632812 66.824219 46.675781 68.429688 45.800781 70.078125 C 44.921875 71.730469 44.128906 73.421875 43.414062 75.148438 C 42.703125 76.878906 42.078125 78.640625 41.535156 80.429688 C 40.996094 82.21875 40.542969 84.03125 40.179688 85.867188 C 39.816406 87.699219 39.546875 89.546875 39.363281 91.410156 C 39.179688 93.269531 39.089844 95.136719 39.089844 97.007812 C 39.089844 113.828125 48.539062 130.585938 56.871094 145.363281 C 61.742188 153.203125 65.738281 161.464844 68.859375 170.148438 L 67 170.148438 C 66.589844 170.164062 66.199219 170.253906 65.824219 170.425781 C 65.449219 170.597656 65.125 170.832031 64.84375 171.132812 C 64.5625 171.433594 64.351562 171.777344 64.207031 172.160156 C 64.0625 172.546875 63.996094 172.945312 64.011719 173.355469 C 64.027344 173.765625 64.117188 174.15625 64.289062 174.53125 C 64.460938 174.90625 64.695312 175.234375 64.996094 175.511719 C 65.296875 175.792969 65.640625 176.003906 66.023438 176.148438 C 66.410156 176.292969 66.808594 176.359375 67.21875 176.34375 L 67.433594 176.34375 L 69.945312 176.160156 C 69.945312 176.5625 69.945312 176.996094 69.945312 177.398438 L 69.945312 179.257812 L 67.558594 179.441406 C 67.148438 179.457031 66.757812 179.550781 66.382812 179.71875 C 66.007812 179.890625 65.683594 180.125 65.402344 180.425781 C 65.121094 180.726562 64.910156 181.070312 64.765625 181.457031 C 64.621094 181.839844 64.558594 182.238281 64.574219 182.648438 C 64.585938 183.058594 64.679688 183.449219 64.847656 183.824219 C 65.019531 184.199219 65.253906 184.527344 65.554688 184.804688 C 65.855469 185.085938 66.199219 185.296875 66.582031 185.441406 C 66.96875 185.585938 67.367188 185.652344 67.777344 185.636719 L 69.945312 185.636719 L 69.945312 188.734375 L 68.242188 188.734375 C 67.832031 188.75 67.4375 188.84375 67.066406 189.015625 C 66.691406 189.183594 66.363281 189.421875 66.082031 189.71875 C 65.804688 190.019531 65.59375 190.363281 65.449219 190.75 C 65.304688 191.132812 65.238281 191.53125 65.253906 191.941406 C 65.269531 192.351562 65.359375 192.746094 65.53125 193.117188 C 65.703125 193.492188 65.9375 193.820312 66.238281 194.101562 C 66.539062 194.378906 66.878906 194.59375 67.265625 194.738281 C 67.648438 194.878906 68.046875 194.945312 68.457031 194.929688 L 69.945312 194.929688 L 69.945312 198.03125 L 68.890625 198.03125 C 68.480469 198.042969 68.089844 198.136719 67.714844 198.308594 C 67.34375 198.480469 67.015625 198.714844 66.738281 199.015625 C 66.457031 199.316406 66.246094 199.660156 66.101562 200.042969 C 65.957031 200.429688 65.894531 200.824219 65.910156 201.234375 C 65.921875 201.644531 66.015625 202.039062 66.183594 202.410156 C 66.355469 202.785156 66.589844 203.113281 66.890625 203.390625 C 67.191406 203.671875 67.53125 203.882812 67.917969 204.027344 C 68.300781 204.171875 68.699219 204.238281 69.109375 204.226562 L 69.914062 204.226562 L 69.914062 206.144531 C 71.152344 213.984375 77.285156 218.910156 84.722656 221.292969 C 85.074219 222.410156 85.570312 223.460938 86.207031 224.441406 C 86.847656 225.421875 87.605469 226.296875 88.488281 227.070312 C 89.367188 227.84375 90.332031 228.484375 91.386719 228.992188 C 92.441406 229.5 93.542969 229.855469 94.695312 230.0625 C 95.144531 230.328125 95.632812 230.472656 96.152344 230.496094 C 96.5625 230.496094 96.960938 230.417969 97.339844 230.261719 C 97.71875 230.101562 98.054688 229.878906 98.34375 229.589844 C 98.632812 229.296875 98.859375 228.960938 99.015625 228.582031 C 99.171875 228.203125 99.25 227.808594 99.25 227.398438 L 99.25 152.769531 C 99.792969 152.765625 100.324219 152.691406 100.84375 152.550781 C 101.367188 152.410156 101.859375 152.203125 102.328125 151.929688 C 102.796875 151.65625 103.21875 151.332031 103.601562 150.949219 C 103.984375 150.566406 104.308594 150.140625 104.578125 149.671875 L 136.675781 149.671875 L 136.675781 162.0625 L 133.574219 162.0625 C 133.164062 162.0625 132.769531 162.140625 132.390625 162.296875 C 132.011719 162.457031 131.675781 162.679688 131.386719 162.96875 C 131.09375 163.261719 130.871094 163.59375 130.714844 163.976562 C 130.558594 164.355469 130.476562 164.75 130.476562 165.160156 L 130.476562 193.042969 L 126.824219 193.042969 C 126.703125 192.699219 126.5625 192.367188 126.402344 192.042969 C 126.242188 191.71875 126.066406 191.402344 125.867188 191.097656 C 125.671875 190.792969 125.457031 190.503906 125.226562 190.222656 C 124.996094 189.945312 124.75 189.679688 124.488281 189.429688 C 124.226562 189.179688 123.953125 188.945312 123.664062 188.726562 C 123.375 188.507812 123.074219 188.308594 122.761719 188.125 C 122.449219 187.941406 122.128906 187.777344 121.796875 187.628906 C 121.464844 187.484375 121.125 187.359375 120.78125 187.253906 C 120.433594 187.148438 120.082031 187.0625 119.726562 186.996094 C 119.371094 186.933594 119.011719 186.886719 118.652344 186.863281 C 118.289062 186.84375 117.929688 186.839844 117.566406 186.859375 C 117.203125 186.878906 116.84375 186.917969 116.488281 186.980469 C 116.132812 187.042969 115.78125 187.121094 115.433594 187.226562 C 115.085938 187.328125 114.746094 187.449219 114.410156 187.59375 C 114.078125 187.734375 113.753906 187.894531 113.441406 188.074219 C 113.128906 188.253906 112.824219 188.453125 112.535156 188.667969 C 112.242188 188.882812 111.964844 189.113281 111.699219 189.363281 C 111.4375 189.609375 111.1875 189.871094 110.953125 190.148438 C 110.722656 190.425781 110.503906 190.714844 110.304688 191.019531 C 110.105469 191.320312 109.925781 191.632812 109.761719 191.957031 C 109.597656 192.28125 109.453125 192.609375 109.332031 192.949219 C 109.207031 193.292969 109.101562 193.636719 109.019531 193.988281 C 108.933594 194.339844 108.871094 194.699219 108.828125 195.058594 C 108.789062 195.417969 108.765625 195.777344 108.765625 196.140625 C 108.765625 196.5 108.789062 196.863281 108.828125 197.222656 C 108.871094 197.582031 108.933594 197.9375 109.019531 198.289062 C 109.101562 198.640625 109.207031 198.988281 109.332031 199.328125 C 109.453125 199.667969 109.597656 200 109.761719 200.324219 C 109.925781 200.648438 110.105469 200.960938 110.304688 201.261719 C 110.503906 201.5625 110.722656 201.851562 110.953125 202.128906 C 111.1875 202.40625 111.4375 202.667969 111.699219 202.917969 C 111.964844 203.164062 112.242188 203.394531 112.535156 203.613281 C 112.824219 203.828125 113.128906 204.023438 113.441406 204.203125 C 113.753906 204.382812 114.078125 204.546875 114.410156 204.6875 C 114.746094 204.828125 115.085938 204.953125 115.433594 205.054688 C 115.78125 205.15625 116.132812 205.238281 116.488281 205.300781 C 116.84375 205.359375 117.203125 205.402344 117.566406 205.421875 C 117.929688 205.441406 118.289062 205.4375 118.652344 205.414062 C 119.011719 205.390625 119.371094 205.347656 119.726562 205.28125 C 120.082031 205.21875 120.433594 205.132812 120.78125 205.027344 C 121.125 204.921875 121.464844 204.792969 121.796875 204.648438 C 122.128906 204.503906 122.449219 204.339844 122.761719 204.15625 C 123.074219 203.972656 123.375 203.773438 123.664062 203.554688 C 123.953125 203.335938 124.226562 203.101562 124.488281 202.851562 C 124.75 202.601562 124.996094 202.335938 125.226562 202.054688 C 125.457031 201.777344 125.671875 201.484375 125.867188 201.179688 C 126.066406 200.875 126.242188 200.5625 126.402344 200.238281 C 126.5625 199.914062 126.703125 199.578125 126.824219 199.238281 L 133.574219 199.238281 C 133.988281 199.238281 134.382812 199.160156 134.761719 199 C 135.140625 198.84375 135.476562 198.621094 135.765625 198.332031 C 136.058594 198.039062 136.28125 197.703125 136.4375 197.324219 C 136.59375 196.945312 136.675781 196.550781 136.675781 196.140625 L 136.675781 168.257812 L 139.773438 168.257812 C 140.183594 168.257812 140.578125 168.179688 140.957031 168.023438 C 141.335938 167.867188 141.671875 167.640625 141.960938 167.351562 C 142.253906 167.0625 142.476562 166.726562 142.632812 166.347656 C 142.792969 165.964844 142.871094 165.570312 142.871094 165.160156 L 142.871094 146.574219 C 142.871094 146.164062 142.792969 145.765625 142.632812 145.386719 C 142.476562 145.007812 142.253906 144.671875 141.960938 144.382812 C 141.671875 144.09375 141.335938 143.867188 140.957031 143.710938 C 140.578125 143.554688 140.183594 143.476562 139.773438 143.476562 L 104.828125 143.476562 C 104.558594 143.007812 104.230469 142.582031 103.847656 142.199219 C 103.46875 141.816406 103.042969 141.488281 102.574219 141.214844 C 102.109375 140.945312 101.613281 140.738281 101.09375 140.59375 C 100.570312 140.453125 100.039062 140.378906 99.5 140.378906 L 99.5 137.28125 C 100.039062 137.277344 100.570312 137.203125 101.09375 137.0625 C 101.613281 136.917969 102.109375 136.710938 102.574219 136.441406 C 103.042969 136.167969 103.46875 135.839844 103.847656 135.457031 C 104.230469 135.074219 104.558594 134.648438 104.828125 134.179688 L 149.066406 134.179688 L 149.066406 146.574219 C 149.066406 146.984375 149.144531 147.378906 149.300781 147.757812 C 149.457031 148.136719 149.683594 148.472656 149.972656 148.761719 C 150.261719 149.054688 150.597656 149.277344 150.976562 149.433594 C 151.359375 149.59375 151.753906 149.671875 152.164062 149.671875 L 158.359375 149.671875 L 158.359375 174.453125 C 158.359375 174.863281 158.4375 175.261719 158.59375 175.640625 C 158.753906 176.019531 158.976562 176.355469 159.265625 176.644531 C 159.558594 176.933594 159.890625 177.160156 160.273438 177.316406 C 160.652344 177.472656 161.046875 177.550781 161.457031 177.550781 L 178.773438 177.550781 L 177.503906 178.851562 C 177.214844 179.144531 176.992188 179.480469 176.835938 179.863281 C 176.679688 180.242188 176.601562 180.636719 176.605469 181.046875 C 176.605469 181.460938 176.6875 181.855469 176.84375 182.234375 C 177.003906 182.613281 177.226562 182.949219 177.519531 183.238281 C 177.8125 183.527344 178.148438 183.75 178.527344 183.90625 C 178.910156 184.0625 179.304688 184.136719 179.714844 184.136719 C 180.125 184.136719 180.519531 184.054688 180.898438 183.898438 C 181.28125 183.738281 181.613281 183.511719 181.902344 183.222656 L 186.242188 178.824219 L 190.640625 183.222656 C 190.929688 183.511719 191.265625 183.734375 191.648438 183.890625 C 192.027344 184.046875 192.421875 184.125 192.835938 184.121094 C 193.246094 184.121094 193.640625 184.039062 194.019531 183.882812 C 194.398438 183.722656 194.734375 183.496094 195.023438 183.207031 C 195.3125 182.914062 195.535156 182.578125 195.691406 182.199219 C 195.847656 181.816406 195.925781 181.421875 195.921875 181.011719 C 195.921875 180.601562 195.84375 180.203125 195.683594 179.824219 C 195.523438 179.445312 195.300781 179.113281 195.007812 178.824219 L 190.609375 174.453125 L 194.976562 170.085938 C 195.265625 169.792969 195.492188 169.457031 195.648438 169.078125 C 195.804688 168.699219 195.878906 168.300781 195.878906 167.890625 C 195.878906 167.480469 195.796875 167.082031 195.640625 166.703125 C 195.480469 166.324219 195.257812 165.988281 194.964844 165.699219 C 194.671875 165.410156 194.335938 165.1875 193.957031 165.03125 C 193.574219 164.875 193.179688 164.796875 192.765625 164.800781 C 192.355469 164.800781 191.960938 164.882812 191.582031 165.042969 C 191.203125 165.199219 190.867188 165.425781 190.578125 165.71875 L 186.242188 170.054688 L 181.871094 165.6875 C 181.582031 165.398438 181.246094 165.175781 180.863281 165.019531 C 180.484375 164.863281 180.089844 164.785156 179.675781 164.789062 C 179.265625 164.789062 178.871094 164.867188 178.492188 165.027344 C 178.113281 165.1875 177.777344 165.410156 177.488281 165.703125 C 177.199219 165.996094 176.976562 166.332031 176.820312 166.710938 C 176.664062 167.089844 176.585938 167.488281 176.589844 167.898438 C 176.589844 168.308594 176.671875 168.703125 176.828125 169.082031 C 176.988281 169.460938 177.210938 169.796875 177.503906 170.085938 L 178.773438 171.355469 L 164.554688 171.355469 L 164.554688 146.574219 C 164.554688 146.164062 164.476562 145.765625 164.320312 145.386719 C 164.164062 145.007812 163.9375 144.671875 163.648438 144.382812 C 163.355469 144.09375 163.023438 143.867188 162.644531 143.710938 C 162.261719 143.554688 161.867188 143.476562 161.457031 143.476562 L 155.261719 143.476562 L 155.261719 131.082031 C 155.261719 130.671875 155.183594 130.277344 155.027344 129.898438 C 154.867188 129.519531 154.644531 129.183594 154.355469 128.894531 C 154.0625 128.601562 153.730469 128.378906 153.347656 128.222656 C 152.96875 128.0625 152.574219 127.984375 152.164062 127.984375 L 104.828125 127.984375 C 104.558594 127.515625 104.230469 127.089844 103.847656 126.707031 C 103.46875 126.324219 103.042969 126 102.574219 125.726562 C 102.109375 125.457031 101.613281 125.25 101.09375 125.105469 C 100.570312 124.964844 100.039062 124.890625 99.5 124.886719 L 99.5 121.789062 C 100.054688 121.785156 100.601562 121.710938 101.136719 121.5625 C 101.671875 121.410156 102.179688 121.191406 102.65625 120.90625 C 103.132812 120.621094 103.5625 120.277344 103.949219 119.875 C 104.332031 119.472656 104.65625 119.027344 104.921875 118.535156 C 105.171875 118.621094 105.429688 118.671875 105.695312 118.691406 L 164.554688 118.691406 C 164.964844 118.691406 165.359375 118.613281 165.742188 118.457031 C 166.121094 118.296875 166.457031 118.074219 166.746094 117.785156 C 167.035156 117.492188 167.261719 117.160156 167.417969 116.78125 C 167.574219 116.398438 167.652344 116.003906 167.652344 115.59375 L 167.652344 97.007812 L 176.945312 97.007812 C 177.359375 97.007812 177.753906 96.929688 178.132812 96.769531 C 178.511719 96.613281 178.847656 96.390625 179.136719 96.097656 C 179.429688 95.808594 179.652344 95.472656 179.808594 95.09375 C 179.964844 94.714844 180.042969 94.320312 180.042969 93.910156 L 180.042969 75.320312 L 186.242188 75.320312 L 186.242188 78.417969 C 186.242188 78.828125 186.320312 79.226562 186.476562 79.605469 C 186.632812 79.984375 186.859375 80.320312 187.148438 80.609375 C 187.4375 80.898438 187.773438 81.125 188.152344 81.28125 C 188.53125 81.4375 188.929688 81.515625 189.339844 81.515625 L 201.730469 81.515625 C 202.140625 81.515625 202.535156 81.4375 202.914062 81.28125 C 203.296875 81.125 203.628906 80.898438 203.921875 80.609375 C 204.210938 80.320312 204.433594 79.984375 204.59375 79.605469 C 204.75 79.226562 204.828125 78.828125 204.828125 78.417969 L 204.828125 66.027344 C 204.828125 65.617188 204.75 65.222656 204.59375 64.839844 C 204.433594 64.460938 204.210938 64.128906 203.921875 63.835938 C 203.628906 63.546875 203.296875 63.320312 202.914062 63.164062 C 202.535156 63.007812 202.140625 62.929688 201.730469 62.929688 Z M 158.359375 22.65625 C 158.769531 22.65625 159.164062 22.734375 159.542969 22.890625 C 159.925781 23.050781 160.257812 23.273438 160.550781 23.5625 C 160.839844 23.855469 161.0625 24.1875 161.222656 24.570312 C 161.378906 24.949219 161.457031 25.34375 161.457031 25.753906 C 161.457031 26.164062 161.378906 26.558594 161.222656 26.941406 C 161.0625 27.320312 160.839844 27.652344 160.550781 27.945312 C 160.257812 28.234375 159.925781 28.460938 159.542969 28.617188 C 159.164062 28.773438 158.769531 28.851562 158.359375 28.851562 C 157.949219 28.851562 157.554688 28.773438 157.175781 28.617188 C 156.792969 28.460938 156.460938 28.234375 156.167969 27.945312 C 155.878906 27.652344 155.65625 27.320312 155.496094 26.941406 C 155.339844 26.558594 155.261719 26.164062 155.261719 25.753906 C 155.261719 25.34375 155.339844 24.949219 155.496094 24.570312 C 155.65625 24.1875 155.878906 23.855469 156.167969 23.5625 C 156.460938 23.273438 156.792969 23.050781 157.175781 22.890625 C 157.554688 22.734375 157.949219 22.65625 158.359375 22.65625 Z M 105.695312 7.167969 L 111.890625 7.167969 L 111.890625 13.363281 L 105.695312 13.363281 Z M 118.085938 199.238281 C 117.675781 199.238281 117.28125 199.160156 116.902344 199 C 116.519531 198.84375 116.1875 198.621094 115.894531 198.332031 C 115.605469 198.039062 115.382812 197.703125 115.222656 197.324219 C 115.066406 196.945312 114.988281 196.550781 114.988281 196.140625 C 114.988281 195.730469 115.066406 195.332031 115.222656 194.953125 C 115.382812 194.574219 115.605469 194.238281 115.894531 193.949219 C 116.1875 193.660156 116.519531 193.433594 116.902344 193.277344 C 117.28125 193.121094 117.675781 193.042969 118.085938 193.042969 C 118.496094 193.042969 118.890625 193.121094 119.273438 193.277344 C 119.652344 193.433594 119.988281 193.660156 120.277344 193.949219 C 120.566406 194.238281 120.792969 194.574219 120.949219 194.953125 C 121.105469 195.332031 121.183594 195.730469 121.183594 196.140625 C 121.183594 196.550781 121.105469 196.945312 120.949219 197.324219 C 120.792969 197.703125 120.566406 198.039062 120.277344 198.332031 C 119.988281 198.621094 119.652344 198.84375 119.273438 199 C 118.890625 199.160156 118.496094 199.238281 118.085938 199.238281 Z M 81.53125 106.300781 C 80.542969 104.699219 79.828125 102.988281 79.394531 101.15625 C 79.3125 100.8125 79.175781 100.488281 78.980469 100.1875 C 78.789062 99.890625 78.550781 99.632812 78.269531 99.414062 C 77.984375 99.195312 77.675781 99.035156 77.335938 98.921875 C 77 98.8125 76.652344 98.761719 76.296875 98.773438 L 71.617188 98.773438 L 71.617188 95.363281 L 76.359375 95.363281 C 76.714844 95.375 77.0625 95.324219 77.398438 95.214844 C 77.738281 95.101562 78.046875 94.9375 78.332031 94.722656 C 78.613281 94.503906 78.851562 94.246094 79.042969 93.949219 C 79.234375 93.648438 79.375 93.324219 79.457031 92.980469 C 79.851562 91.113281 80.535156 89.359375 81.5 87.710938 C 81.664062 87.410156 81.777344 87.09375 81.835938 86.753906 C 81.898438 86.414062 81.898438 86.078125 81.847656 85.738281 C 81.792969 85.398438 81.6875 85.078125 81.527344 84.773438 C 81.367188 84.46875 81.160156 84.199219 80.910156 83.964844 L 77.8125 80.648438 L 80.136719 78.324219 L 83.359375 81.515625 C 83.605469 81.765625 83.890625 81.964844 84.207031 82.117188 C 84.523438 82.269531 84.855469 82.367188 85.203125 82.40625 C 85.550781 82.445312 85.898438 82.425781 86.242188 82.347656 C 86.582031 82.269531 86.902344 82.136719 87.199219 81.949219 C 88.816406 80.941406 90.550781 80.21875 92.40625 79.78125 C 92.722656 79.707031 93.023438 79.582031 93.304688 79.410156 L 93.304688 86.101562 C 92.707031 86.257812 92.132812 86.464844 91.570312 86.714844 C 91.011719 86.96875 90.472656 87.261719 89.960938 87.601562 C 89.449219 87.941406 88.96875 88.324219 88.519531 88.742188 C 88.070312 89.160156 87.65625 89.613281 87.28125 90.101562 C 86.90625 90.589844 86.574219 91.101562 86.285156 91.644531 C 85.992188 92.1875 85.75 92.75 85.550781 93.328125 C 85.351562 93.910156 85.203125 94.507812 85.101562 95.113281 C 85.003906 95.71875 84.953125 96.328125 84.953125 96.945312 C 84.953125 97.558594 85.003906 98.167969 85.101562 98.777344 C 85.203125 99.382812 85.351562 99.976562 85.550781 100.558594 C 85.75 101.140625 85.992188 101.703125 86.285156 102.246094 C 86.574219 102.785156 86.90625 103.300781 87.28125 103.789062 C 87.65625 104.273438 88.070312 104.726562 88.519531 105.148438 C 88.96875 105.566406 89.449219 105.945312 89.960938 106.285156 C 90.472656 106.625 91.011719 106.921875 91.570312 107.171875 C 92.132812 107.425781 92.707031 107.628906 93.304688 107.785156 L 93.304688 114.386719 C 93.023438 114.214844 92.722656 114.089844 92.40625 114.015625 C 90.519531 113.59375 88.753906 112.878906 87.105469 111.875 C 86.8125 111.691406 86.492188 111.5625 86.15625 111.488281 C 85.816406 111.410156 85.472656 111.394531 85.125 111.433594 C 84.78125 111.472656 84.453125 111.566406 84.136719 111.71875 C 83.824219 111.867188 83.542969 112.066406 83.296875 112.308594 L 80.042969 115.59375 L 77.8125 113.363281 L 81.191406 109.988281 C 81.414062 109.738281 81.589844 109.460938 81.726562 109.15625 C 81.859375 108.851562 81.941406 108.53125 81.972656 108.199219 C 82.003906 107.867188 81.980469 107.539062 81.90625 107.214844 C 81.828125 106.890625 81.703125 106.585938 81.53125 106.300781 Z M 93.304688 100.972656 C 93.003906 100.738281 92.734375 100.472656 92.496094 100.175781 C 92.257812 99.878906 92.054688 99.558594 91.886719 99.21875 C 91.71875 98.875 91.59375 98.519531 91.507812 98.148438 C 91.421875 97.777344 91.378906 97.402344 91.378906 97.023438 C 91.378906 96.640625 91.421875 96.265625 91.507812 95.894531 C 91.59375 95.523438 91.71875 95.167969 91.886719 94.824219 C 92.054688 94.484375 92.257812 94.164062 92.496094 93.867188 C 92.734375 93.570312 93.003906 93.308594 93.304688 93.070312 Z M 64.988281 140.78125 C 56.808594 126.34375 48.382812 111.378906 48.382812 97.007812 C 48.386719 95.5 48.460938 93.996094 48.601562 92.496094 C 48.746094 90.996094 48.960938 89.507812 49.246094 88.027344 C 49.53125 86.550781 49.882812 85.085938 50.304688 83.640625 C 50.726562 82.195312 51.214844 80.769531 51.769531 79.371094 C 52.324219 77.96875 52.945312 76.597656 53.628906 75.257812 C 54.316406 73.914062 55.0625 72.609375 55.867188 71.335938 C 56.675781 70.0625 57.542969 68.832031 58.464844 67.640625 C 59.386719 66.453125 60.367188 65.308594 61.394531 64.207031 C 62.425781 63.109375 63.507812 62.0625 64.636719 61.066406 C 65.765625 60.070312 66.941406 59.128906 68.160156 58.242188 C 69.375 57.355469 70.632812 56.527344 71.929688 55.757812 C 73.226562 54.992188 74.554688 54.285156 75.917969 53.640625 C 77.277344 53 78.667969 52.421875 80.085938 51.90625 C 81.5 51.394531 82.9375 50.949219 84.398438 50.574219 C 85.855469 50.195312 87.328125 49.886719 88.816406 49.648438 C 90.304688 49.410156 91.800781 49.242188 93.304688 49.144531 L 93.304688 66.027344 L 91.691406 66.027344 C 91.28125 66.027344 90.886719 66.105469 90.507812 66.261719 C 90.128906 66.421875 89.792969 66.644531 89.5 66.933594 C 89.210938 67.226562 88.988281 67.558594 88.828125 67.941406 C 88.671875 68.320312 88.59375 68.714844 88.59375 69.125 L 88.59375 74.578125 C 87.75 74.871094 86.921875 75.210938 86.117188 75.601562 L 82.242188 71.726562 C 81.953125 71.4375 81.617188 71.214844 81.242188 71.058594 C 80.863281 70.90625 80.46875 70.828125 80.058594 70.828125 C 79.648438 70.828125 79.257812 70.90625 78.878906 71.058594 C 78.5 71.214844 78.164062 71.4375 77.875 71.726562 L 71.152344 78.417969 C 70.863281 78.710938 70.640625 79.042969 70.484375 79.421875 C 70.332031 79.800781 70.253906 80.195312 70.253906 80.601562 C 70.253906 81.011719 70.332031 81.40625 70.484375 81.785156 C 70.640625 82.164062 70.863281 82.496094 71.152344 82.785156 L 75.054688 86.691406 C 74.667969 87.488281 74.328125 88.300781 74.035156 89.136719 L 68.519531 89.136719 C 68.109375 89.136719 67.714844 89.214844 67.335938 89.375 C 66.953125 89.53125 66.621094 89.753906 66.328125 90.046875 C 66.039062 90.335938 65.816406 90.671875 65.65625 91.050781 C 65.5 91.429688 65.421875 91.824219 65.421875 92.234375 L 65.421875 101.714844 C 65.421875 102.125 65.5 102.519531 65.65625 102.902344 C 65.816406 103.28125 66.039062 103.617188 66.328125 103.90625 C 66.621094 104.195312 66.953125 104.421875 67.335938 104.578125 C 67.714844 104.734375 68.109375 104.8125 68.519531 104.8125 L 74.066406 104.8125 C 74.351562 105.636719 74.679688 106.441406 75.054688 107.230469 L 71.121094 111.164062 C 70.832031 111.453125 70.609375 111.789062 70.457031 112.167969 C 70.300781 112.542969 70.222656 112.9375 70.222656 113.347656 C 70.222656 113.757812 70.300781 114.152344 70.457031 114.527344 C 70.609375 114.90625 70.832031 115.242188 71.121094 115.53125 L 77.8125 122.253906 C 78.105469 122.542969 78.4375 122.765625 78.816406 122.921875 C 79.195312 123.078125 79.589844 123.15625 79.996094 123.15625 C 80.40625 123.15625 80.800781 123.078125 81.179688 122.921875 C 81.558594 122.765625 81.890625 122.542969 82.179688 122.253906 L 86.117188 118.320312 C 86.902344 118.695312 87.707031 119.027344 88.53125 119.3125 L 88.53125 124.886719 C 88.53125 125.296875 88.609375 125.695312 88.769531 126.074219 C 88.925781 126.453125 89.148438 126.789062 89.441406 127.078125 C 89.730469 127.367188 90.066406 127.59375 90.445312 127.75 C 90.824219 127.90625 91.21875 127.984375 91.628906 127.984375 L 93.304688 127.984375 L 93.304688 168.414062 L 78.308594 169.496094 C 76.078125 160.484375 70.65625 150.847656 64.988281 140.78125 Z M 93.304688 174.640625 L 93.304688 177.738281 L 79.394531 178.761719 L 79.394531 177.550781 C 79.394531 176.933594 79.394531 176.28125 79.394531 175.664062 Z M 79.363281 188.085938 L 79.363281 184.988281 L 93.304688 183.964844 L 93.304688 187.0625 Z M 93.304688 193.289062 L 93.304688 196.386719 L 79.394531 197.410156 L 79.394531 194.3125 Z M 79.363281 205 L 79.363281 203.605469 L 93.304688 202.582031 L 93.304688 213.550781 C 86.796875 212.898438 80.414062 210.140625 79.363281 205 Z M 198.632812 75.320312 L 192.4375 75.320312 L 192.4375 69.125 L 198.632812 69.125 Z M 198.632812 75.320312 " fill-opacity="1" fill-rule="nonzero"/></g><g fill="#5ca899" fill-opacity="1"><g transform="translate(97.329259, 142.081545)"><g><path d="M 1.03125 -1.25 C 1.03125 -1.738281 1.160156 -2.109375 1.421875 -2.359375 C 1.679688 -2.609375 2.0625 -2.734375 2.5625 -2.734375 C 3.050781 -2.734375 3.425781 -2.601562 3.6875 -2.34375 C 3.957031 -2.09375 4.09375 -1.726562 4.09375 -1.25 C 4.09375 -0.789062 3.957031 -0.425781 3.6875 -0.15625 C 3.414062 0.101562 3.039062 0.234375 2.5625 0.234375 C 2.070312 0.234375 1.691406 0.101562 1.421875 -0.15625 C 1.160156 -0.414062 1.03125 -0.78125 1.03125 -1.25 Z M 1.03125 -1.25 "/></g></g></g></svg>