<svg xmlns="http://www.w3.org/2000/svg" xmlns:xlink="http://www.w3.org/1999/xlink" width="301" zoomAndPan="magnify" viewBox="0 0 225.75 225" height="300" preserveAspectRatio="xMidYMid meet" version="1.0"><defs><g/><clipPath id="d6bf3451ef"><path d="M 0.597656 1 L 221 1 L 221 224 L 0.597656 224 Z M 0.597656 1 " clip-rule="nonzero"/></clipPath></defs><g clip-path="url(#d6bf3451ef)"><path fill="#4d8d80" d="M 149.6875 1.683594 C 143.871094 1.703125 138.144531 2.4375 132.511719 3.878906 C 126.476562 2.417969 120.359375 1.6875 114.148438 1.683594 L 95.292969 1.683594 C 94.039062 1.683594 92.785156 1.714844 91.535156 1.777344 C 90.28125 1.839844 89.03125 1.933594 87.785156 2.058594 C 86.535156 2.183594 85.292969 2.335938 84.054688 2.523438 C 82.8125 2.707031 81.578125 2.921875 80.347656 3.167969 C 79.121094 3.414062 77.898438 3.691406 76.679688 3.996094 C 75.464844 4.300781 74.257812 4.636719 73.058594 5 C 71.859375 5.367188 70.667969 5.761719 69.488281 6.183594 C 68.308594 6.605469 67.136719 7.058594 65.980469 7.539062 C 64.824219 8.019531 63.675781 8.527344 62.542969 9.0625 C 61.410156 9.601562 60.292969 10.164062 59.1875 10.757812 C 58.082031 11.347656 56.988281 11.964844 55.914062 12.609375 C 54.839844 13.257812 53.78125 13.925781 52.738281 14.625 C 51.695312 15.320312 50.671875 16.042969 49.664062 16.789062 C 48.660156 17.535156 47.671875 18.308594 46.703125 19.105469 C 45.730469 19.898438 44.78125 20.71875 43.855469 21.558594 C 42.925781 22.402344 42.019531 23.265625 41.132812 24.152344 C 40.246094 25.039062 39.378906 25.945312 38.539062 26.875 C 37.695312 27.804688 36.878906 28.753906 36.082031 29.722656 C 35.285156 30.691406 34.515625 31.679688 33.769531 32.6875 C 33.019531 33.695312 32.300781 34.71875 31.601562 35.761719 C 30.90625 36.804688 30.234375 37.863281 29.589844 38.9375 C 28.945312 40.011719 28.324219 41.101562 27.734375 42.207031 C 27.144531 43.3125 26.578125 44.433594 26.042969 45.566406 C 25.503906 46.699219 24.996094 47.84375 24.515625 49.003906 C 24.035156 50.160156 23.585938 51.328125 23.160156 52.507812 C 22.738281 53.691406 22.34375 54.878906 21.980469 56.078125 C 21.613281 57.277344 21.28125 58.488281 20.972656 59.703125 C 20.667969 60.917969 20.394531 62.140625 20.148438 63.371094 C 19.902344 64.601562 19.6875 65.835938 19.5 67.074219 C 19.316406 68.316406 19.160156 69.558594 19.035156 70.804688 C 18.914062 72.054688 18.820312 73.304688 18.757812 74.554688 C 18.695312 75.808594 18.660156 77.0625 18.660156 78.316406 C 18.664062 82.082031 19.507812 85.652344 21.1875 89.023438 C 21.566406 89.78125 21.839844 90.574219 22.007812 91.402344 C 22.175781 92.230469 22.234375 93.070312 22.183594 93.914062 C 22.128906 94.757812 21.96875 95.582031 21.695312 96.382812 C 21.425781 97.183594 21.054688 97.9375 20.585938 98.640625 L 2.839844 125.273438 C 2.621094 125.601562 2.417969 125.945312 2.234375 126.296875 C 2.046875 126.648438 1.882812 127.007812 1.738281 127.378906 C 1.589844 127.746094 1.464844 128.125 1.359375 128.507812 C 1.25 128.890625 1.164062 129.277344 1.101562 129.667969 C 1.035156 130.0625 0.992188 130.457031 0.96875 130.851562 C 0.945312 131.25 0.941406 131.644531 0.960938 132.042969 C 0.980469 132.441406 1.019531 132.835938 1.078125 133.226562 C 1.140625 133.621094 1.222656 134.007812 1.324219 134.394531 C 1.425781 134.777344 1.546875 135.15625 1.6875 135.527344 C 1.832031 135.898438 1.992188 136.257812 2.171875 136.613281 C 2.351562 136.96875 2.550781 137.3125 2.769531 137.644531 C 2.984375 137.976562 3.21875 138.296875 3.46875 138.605469 C 3.722656 138.914062 3.988281 139.207031 4.269531 139.488281 C 4.550781 139.769531 4.847656 140.03125 5.160156 140.28125 C 5.46875 140.527344 5.792969 140.761719 6.125 140.972656 C 6.460938 141.1875 6.804688 141.382812 7.160156 141.5625 L 15.117188 145.519531 L 15.117188 157.496094 C 15.113281 158.171875 15.289062 158.796875 15.640625 159.371094 C 15.996094 159.945312 16.472656 160.382812 17.078125 160.683594 L 18.1875 161.242188 C 17.910156 161.492188 17.644531 161.761719 17.398438 162.042969 C 17.152344 162.328125 16.921875 162.625 16.710938 162.9375 C 16.5 163.25 16.308594 163.574219 16.136719 163.90625 C 15.964844 164.242188 15.816406 164.585938 15.6875 164.941406 C 15.558594 165.292969 15.449219 165.652344 15.363281 166.019531 C 15.277344 166.386719 15.214844 166.757812 15.171875 167.128906 C 15.132812 167.503906 15.113281 167.878906 15.117188 168.257812 C 15.125 168.632812 15.152344 169.007812 15.203125 169.378906 C 15.253906 169.753906 15.324219 170.121094 15.421875 170.484375 C 15.515625 170.847656 15.632812 171.207031 15.769531 171.554688 C 15.910156 171.90625 16.070312 172.246094 16.25 172.578125 C 16.429688 172.90625 16.628906 173.226562 16.847656 173.53125 C 17.066406 173.835938 17.304688 174.128906 17.558594 174.40625 C 17.8125 174.683594 18.082031 174.945312 18.367188 175.191406 C 18.652344 175.433594 18.953125 175.660156 19.269531 175.867188 C 19.582031 176.078125 19.90625 176.265625 20.242188 176.433594 C 20.839844 176.730469 21.316406 177.160156 21.671875 177.726562 C 22.023438 178.296875 22.199219 178.914062 22.199219 179.582031 L 22.199219 187.101562 C 22.203125 187.707031 22.234375 188.3125 22.300781 188.914062 C 22.367188 189.515625 22.46875 190.113281 22.601562 190.703125 C 22.734375 191.296875 22.898438 191.878906 23.097656 192.449219 C 23.292969 193.023438 23.523438 193.582031 23.78125 194.132812 C 24.039062 194.679688 24.328125 195.210938 24.648438 195.726562 C 24.964844 196.242188 25.3125 196.738281 25.683594 197.214844 C 26.058594 197.695312 26.457031 198.148438 26.878906 198.582031 C 27.300781 199.015625 27.746094 199.425781 28.214844 199.808594 C 28.683594 200.191406 29.171875 200.550781 29.679688 200.878906 C 30.1875 201.210938 30.714844 201.511719 31.253906 201.785156 C 31.796875 202.054688 32.351562 202.296875 32.917969 202.507812 C 33.488281 202.71875 34.066406 202.898438 34.652344 203.042969 C 35.242188 203.191406 35.835938 203.304688 36.433594 203.386719 C 37.035156 203.46875 37.640625 203.515625 38.246094 203.53125 C 38.851562 203.542969 39.453125 203.523438 40.058594 203.472656 C 40.664062 203.421875 41.261719 203.335938 41.855469 203.214844 L 56.066406 200.382812 C 56.984375 200.207031 57.910156 200.09375 58.84375 200.050781 C 59.777344 200.003906 60.710938 200.027344 61.640625 200.113281 C 62.570312 200.199219 63.488281 200.351562 64.398438 200.570312 C 65.308594 200.785156 66.195312 201.066406 67.066406 201.410156 C 67.9375 201.753906 68.777344 202.15625 69.589844 202.617188 C 70.402344 203.078125 71.175781 203.597656 71.914062 204.167969 C 72.65625 204.742188 73.351562 205.363281 74 206.035156 C 74.652344 206.703125 75.253906 207.417969 75.800781 208.171875 L 86.601562 223.292969 L 92.367188 219.179688 L 81.5625 204.054688 C 80.816406 203.023438 80 202.050781 79.113281 201.136719 C 78.226562 200.222656 77.28125 199.375 76.273438 198.59375 C 75.269531 197.8125 74.210938 197.105469 73.105469 196.476562 C 72 195.84375 70.851562 195.296875 69.667969 194.828125 C 68.484375 194.359375 67.273438 193.976562 66.035156 193.679688 C 64.792969 193.386719 63.539062 193.175781 62.273438 193.058594 C 61.003906 192.941406 59.734375 192.914062 58.460938 192.976562 C 57.191406 193.039062 55.929688 193.191406 54.679688 193.429688 L 40.460938 196.265625 C 39.855469 196.386719 39.246094 196.449219 38.632812 196.453125 C 38.019531 196.453125 37.410156 196.390625 36.808594 196.269531 C 36.207031 196.148438 35.625 195.972656 35.054688 195.738281 C 34.488281 195.503906 33.953125 195.214844 33.441406 194.875 C 32.929688 194.53125 32.457031 194.144531 32.023438 193.710938 C 31.589844 193.277344 31.203125 192.804688 30.863281 192.292969 C 30.519531 191.785156 30.234375 191.246094 30 190.679688 C 29.761719 190.113281 29.585938 189.527344 29.464844 188.925781 C 29.34375 188.324219 29.285156 187.714844 29.285156 187.101562 L 29.285156 179.582031 C 29.289062 178.59375 29.15625 177.625 28.886719 176.675781 C 28.617188 175.726562 28.226562 174.828125 27.707031 173.988281 C 27.1875 173.152344 26.5625 172.398438 25.832031 171.734375 C 25.101562 171.070312 24.292969 170.519531 23.410156 170.078125 C 23.039062 169.894531 22.742188 169.625 22.523438 169.273438 C 22.304688 168.921875 22.195312 168.535156 22.195312 168.121094 C 22.195312 167.707031 22.304688 167.324219 22.523438 166.96875 C 22.742188 166.617188 23.039062 166.347656 23.410156 166.164062 L 27.304688 164.207031 C 27.90625 163.910156 28.382812 163.472656 28.734375 162.902344 C 29.089844 162.332031 29.265625 161.710938 29.265625 161.039062 C 29.265625 160.367188 29.089844 159.746094 28.734375 159.175781 C 28.382812 158.605469 27.90625 158.167969 27.304688 157.871094 L 22.199219 155.308594 L 22.199219 143.332031 C 22.203125 142.660156 22.03125 142.035156 21.675781 141.460938 C 21.324219 140.886719 20.847656 140.445312 20.242188 140.144531 L 10.328125 135.1875 C 10.0625 135.054688 9.816406 134.898438 9.589844 134.714844 C 9.359375 134.527344 9.152344 134.324219 8.964844 134.09375 C 8.777344 133.867188 8.621094 133.621094 8.484375 133.359375 C 8.351562 133.09375 8.25 132.820312 8.171875 132.539062 C 8.097656 132.253906 8.054688 131.964844 8.039062 131.667969 C 8.023438 131.375 8.042969 131.082031 8.089844 130.792969 C 8.140625 130.5 8.21875 130.21875 8.324219 129.945312 C 8.433594 129.671875 8.570312 129.414062 8.734375 129.167969 L 26.480469 102.574219 C 27.296875 101.347656 27.9375 100.039062 28.40625 98.644531 C 28.878906 97.25 29.15625 95.820312 29.246094 94.351562 C 29.339844 92.882812 29.238281 91.429688 28.941406 89.988281 C 28.648438 88.546875 28.171875 87.167969 27.511719 85.855469 C 26.335938 83.480469 25.742188 80.964844 25.742188 78.316406 C 25.742188 77.175781 25.773438 76.039062 25.828125 74.902344 C 25.886719 73.765625 25.972656 72.632812 26.085938 71.5 C 26.199219 70.367188 26.335938 69.238281 26.503906 68.113281 C 26.671875 66.988281 26.871094 65.867188 27.09375 64.75 C 27.316406 63.636719 27.566406 62.527344 27.84375 61.421875 C 28.121094 60.320312 28.425781 59.222656 28.753906 58.132812 C 29.085938 57.046875 29.445312 55.964844 29.828125 54.894531 C 30.210938 53.824219 30.621094 52.761719 31.058594 51.710938 C 31.496094 50.660156 31.957031 49.621094 32.441406 48.59375 C 32.929688 47.5625 33.441406 46.546875 33.980469 45.546875 C 34.515625 44.542969 35.078125 43.550781 35.660156 42.578125 C 36.246094 41.601562 36.855469 40.640625 37.488281 39.695312 C 38.121094 38.746094 38.777344 37.816406 39.453125 36.902344 C 40.132812 35.992188 40.832031 35.09375 41.554688 34.214844 C 42.277344 33.335938 43.019531 32.472656 43.785156 31.628906 C 44.546875 30.789062 45.332031 29.964844 46.136719 29.160156 C 46.941406 28.355469 47.765625 27.570312 48.609375 26.804688 C 49.453125 26.042969 50.3125 25.296875 51.191406 24.578125 C 52.070312 23.855469 52.96875 23.15625 53.882812 22.476562 C 54.796875 21.796875 55.726562 21.144531 56.671875 20.511719 C 57.617188 19.878906 58.578125 19.269531 59.554688 18.683594 C 60.53125 18.097656 61.519531 17.539062 62.523438 17 C 63.527344 16.464844 64.542969 15.953125 65.570312 15.464844 C 66.597656 14.976562 67.640625 14.515625 68.691406 14.082031 C 69.742188 13.644531 70.800781 13.234375 71.871094 12.851562 C 72.945312 12.464844 74.023438 12.109375 75.113281 11.777344 C 76.203125 11.445312 77.296875 11.140625 78.402344 10.863281 C 79.503906 10.585938 80.613281 10.335938 81.730469 10.113281 C 82.847656 9.890625 83.964844 9.695312 85.09375 9.527344 C 86.21875 9.359375 87.347656 9.21875 88.476562 9.105469 C 89.609375 8.992188 90.746094 8.910156 91.882812 8.851562 C 93.019531 8.792969 94.15625 8.765625 95.292969 8.765625 L 114.148438 8.765625 C 115.671875 8.765625 117.195312 8.816406 118.710938 8.914062 C 116.800781 9.832031 114.9375 10.835938 113.117188 11.921875 C 111.296875 13.011719 109.527344 14.175781 107.8125 15.421875 C 106.097656 16.667969 104.441406 17.988281 102.847656 19.382812 C 101.25 20.78125 99.71875 22.242188 98.253906 23.777344 C 96.789062 25.308594 95.398438 26.90625 94.074219 28.5625 C 92.753906 30.21875 91.511719 31.933594 90.34375 33.703125 C 89.175781 35.472656 88.089844 37.292969 87.085938 39.160156 C 86.085938 41.027344 85.167969 42.9375 84.335938 44.886719 C 83.503906 46.835938 82.761719 48.820312 82.105469 50.835938 C 81.453125 52.855469 80.890625 54.898438 80.421875 56.964844 C 79.953125 59.03125 79.578125 61.117188 79.296875 63.21875 C 79.011719 65.316406 78.824219 67.429688 78.734375 69.546875 C 78.640625 71.664062 78.644531 73.78125 78.742188 75.898438 C 78.839844 78.015625 79.035156 80.125 79.320312 82.226562 C 79.609375 84.328125 79.992188 86.410156 80.464844 88.476562 C 80.941406 90.542969 81.507812 92.582031 82.167969 94.597656 C 82.824219 96.613281 83.574219 98.59375 84.410156 100.542969 C 85.246094 102.492188 86.171875 104.398438 87.179688 106.261719 C 88.1875 108.125 89.277344 109.941406 90.449219 111.710938 C 91.621094 113.476562 92.871094 115.1875 94.195312 116.839844 C 95.519531 118.496094 96.917969 120.085938 98.386719 121.617188 C 99.855469 123.144531 101.390625 124.605469 102.992188 125.996094 C 104.589844 127.386719 106.25 128.703125 107.96875 129.945312 C 109.6875 131.183594 111.457031 132.347656 113.28125 133.429688 C 115.105469 134.511719 116.972656 135.507812 118.882812 136.425781 C 120.796875 137.339844 122.746094 138.164062 124.734375 138.902344 C 126.722656 139.640625 128.738281 140.289062 130.785156 140.847656 C 132.828125 141.40625 134.894531 141.871094 136.984375 142.242188 C 139.070312 142.613281 141.167969 142.890625 143.28125 143.074219 C 145.394531 143.253906 147.511719 143.34375 149.628906 143.335938 C 151.75 143.328125 153.867188 143.226562 155.976562 143.027344 C 158.085938 142.828125 160.183594 142.535156 162.269531 142.148438 L 160.914062 144.867188 C 159.765625 147.164062 158.851562 149.546875 158.171875 152.023438 C 157.496094 154.5 157.066406 157.019531 156.882812 159.578125 C 156.699219 162.140625 156.769531 164.695312 157.089844 167.242188 C 157.410156 169.789062 157.976562 172.28125 158.789062 174.714844 L 174.671875 222.359375 L 181.398438 220.121094 L 165.496094 172.472656 C 164.832031 170.480469 164.367188 168.441406 164.105469 166.355469 C 163.84375 164.269531 163.785156 162.179688 163.933594 160.082031 C 164.082031 157.988281 164.4375 155.925781 164.992188 153.898438 C 165.546875 151.871094 166.292969 149.917969 167.234375 148.039062 L 171.289062 139.941406 C 173.277344 139.300781 175.234375 138.574219 177.160156 137.765625 C 179.085938 136.953125 180.96875 136.054688 182.816406 135.078125 C 184.660156 134.097656 186.460938 133.039062 188.214844 131.902344 C 189.964844 130.765625 191.664062 129.550781 193.308594 128.261719 C 194.953125 126.972656 196.539062 125.613281 198.0625 124.1875 C 199.585938 122.757812 201.042969 121.265625 202.4375 119.707031 C 203.828125 118.148438 205.148438 116.53125 206.398438 114.859375 C 207.648438 113.183594 208.820312 111.457031 209.917969 109.679688 C 211.015625 107.902344 212.03125 106.078125 212.964844 104.207031 C 213.902344 102.339844 214.75 100.433594 215.519531 98.492188 C 216.285156 96.546875 216.964844 94.574219 217.554688 92.570312 C 218.148438 90.566406 218.648438 88.539062 219.0625 86.492188 C 219.476562 84.445312 219.796875 82.382812 220.027344 80.304688 C 220.257812 78.230469 220.394531 76.144531 220.441406 74.058594 C 220.484375 71.96875 220.4375 69.882812 220.300781 67.796875 C 220.160156 65.710938 219.929688 63.636719 219.609375 61.574219 C 219.285156 59.507812 218.871094 57.464844 218.367188 55.4375 C 217.867188 53.410156 217.273438 51.40625 216.59375 49.433594 C 215.910156 47.457031 215.144531 45.515625 214.292969 43.609375 C 213.441406 41.699219 212.503906 39.835938 211.488281 38.007812 C 210.46875 36.183594 209.375 34.410156 208.199219 32.679688 C 207.023438 30.953125 205.773438 29.28125 204.453125 27.664062 C 203.128906 26.046875 201.738281 24.492188 200.277344 22.996094 C 198.816406 21.503906 197.292969 20.078125 195.707031 18.71875 C 194.121094 17.359375 192.476562 16.070312 190.777344 14.859375 C 189.074219 13.644531 187.324219 12.507812 185.523438 11.449219 C 183.722656 10.390625 181.878906 9.414062 179.988281 8.519531 C 178.101562 7.621094 176.179688 6.8125 174.21875 6.085938 C 172.261719 5.359375 170.273438 4.722656 168.257812 4.175781 C 166.242188 3.625 164.203125 3.164062 162.148438 2.796875 C 160.09375 2.425781 158.023438 2.148438 155.941406 1.964844 C 153.863281 1.777344 151.777344 1.683594 149.6875 1.683594 Z M 149.6875 136.25 C 148.644531 136.25 147.601562 136.222656 146.558594 136.171875 C 145.515625 136.121094 144.476562 136.046875 143.4375 135.941406 C 142.402344 135.839844 141.367188 135.714844 140.335938 135.558594 C 139.300781 135.40625 138.273438 135.230469 137.25 135.023438 C 136.226562 134.820312 135.210938 134.59375 134.199219 134.339844 C 133.1875 134.085938 132.183594 133.808594 131.183594 133.503906 C 130.183594 133.203125 129.195312 132.875 128.210938 132.523438 C 127.230469 132.171875 126.257812 131.796875 125.292969 131.398438 C 124.328125 131 123.375 130.578125 122.433594 130.128906 C 121.492188 129.683594 120.558594 129.214844 119.640625 128.722656 C 118.71875 128.230469 117.8125 127.71875 116.917969 127.179688 C 116.023438 126.644531 115.140625 126.085938 114.273438 125.507812 C 113.40625 124.929688 112.554688 124.328125 111.714844 123.707031 C 110.878906 123.085938 110.054688 122.441406 109.25 121.78125 C 108.441406 121.121094 107.652344 120.4375 106.878906 119.738281 C 106.105469 119.035156 105.351562 118.316406 104.613281 117.582031 C 103.875 116.84375 103.15625 116.085938 102.457031 115.3125 C 101.757812 114.542969 101.074219 113.75 100.414062 112.945312 C 99.75 112.140625 99.109375 111.316406 98.488281 110.480469 C 97.867188 109.640625 97.265625 108.789062 96.6875 107.921875 C 96.105469 107.054688 95.550781 106.171875 95.011719 105.277344 C 94.476562 104.382812 93.960938 103.476562 93.472656 102.554688 C 92.980469 101.636719 92.511719 100.703125 92.0625 99.761719 C 91.617188 98.816406 91.195312 97.863281 90.796875 96.902344 C 90.398438 95.9375 90.023438 94.964844 89.671875 93.980469 C 89.320312 93 88.992188 92.007812 88.6875 91.011719 C 88.386719 90.011719 88.109375 89.007812 87.855469 87.996094 C 87.601562 86.984375 87.371094 85.964844 87.167969 84.941406 C 86.964844 83.917969 86.785156 82.890625 86.632812 81.859375 C 86.480469 80.828125 86.351562 79.792969 86.25 78.753906 C 86.148438 77.71875 86.070312 76.675781 86.019531 75.636719 C 85.96875 74.59375 85.945312 73.550781 85.945312 72.507812 C 85.945312 71.464844 85.96875 70.421875 86.019531 69.378906 C 86.070312 68.335938 86.148438 67.296875 86.25 66.257812 C 86.351562 65.222656 86.480469 64.1875 86.632812 63.152344 C 86.785156 62.121094 86.964844 61.09375 87.167969 60.070312 C 87.371094 59.046875 87.601562 58.03125 87.855469 57.019531 C 88.109375 56.007812 88.386719 55 88.6875 54.003906 C 88.992188 53.003906 89.320312 52.015625 89.671875 51.03125 C 90.023438 50.050781 90.398438 49.078125 90.796875 48.113281 C 91.195312 47.148438 91.617188 46.195312 92.0625 45.253906 C 92.511719 44.308594 92.980469 43.378906 93.472656 42.457031 C 93.960938 41.539062 94.476562 40.632812 95.011719 39.738281 C 95.550781 38.84375 96.105469 37.960938 96.6875 37.09375 C 97.265625 36.226562 97.867188 35.375 98.488281 34.535156 C 99.109375 33.699219 99.75 32.875 100.414062 32.070312 C 101.074219 31.261719 101.757812 30.472656 102.457031 29.699219 C 103.15625 28.925781 103.875 28.171875 104.613281 27.433594 C 105.351562 26.695312 106.105469 25.976562 106.878906 25.277344 C 107.652344 24.578125 108.441406 23.894531 109.25 23.234375 C 110.054688 22.570312 110.878906 21.929688 111.714844 21.308594 C 112.554688 20.6875 113.40625 20.085938 114.273438 19.507812 C 115.140625 18.925781 116.023438 18.371094 116.917969 17.832031 C 117.8125 17.296875 118.71875 16.78125 119.640625 16.289062 C 120.558594 15.800781 121.492188 15.332031 122.433594 14.882812 C 123.375 14.4375 124.328125 14.015625 125.292969 13.617188 C 126.257812 13.21875 127.230469 12.84375 128.210938 12.492188 C 129.195312 12.140625 130.183594 11.8125 131.183594 11.507812 C 132.183594 11.207031 133.1875 10.929688 134.199219 10.675781 C 135.210938 10.421875 136.226562 10.191406 137.25 9.988281 C 138.273438 9.785156 139.300781 9.605469 140.335938 9.453125 C 141.367188 9.300781 142.402344 9.171875 143.4375 9.070312 C 144.476562 8.96875 145.515625 8.890625 146.558594 8.839844 C 147.601562 8.789062 148.644531 8.765625 149.6875 8.765625 C 150.730469 8.765625 151.773438 8.789062 152.816406 8.839844 C 153.855469 8.890625 154.898438 8.96875 155.933594 9.070312 C 156.972656 9.171875 158.007812 9.300781 159.039062 9.453125 C 160.070312 9.605469 161.097656 9.785156 162.121094 9.988281 C 163.144531 10.191406 164.164062 10.421875 165.175781 10.675781 C 166.1875 10.929688 167.191406 11.207031 168.191406 11.507812 C 169.1875 11.8125 170.179688 12.140625 171.160156 12.492188 C 172.144531 12.84375 173.117188 13.21875 174.082031 13.617188 C 175.042969 14.015625 175.996094 14.4375 176.941406 14.882812 C 177.882812 15.332031 178.816406 15.800781 179.734375 16.289062 C 180.65625 16.78125 181.5625 17.296875 182.457031 17.832031 C 183.351562 18.371094 184.234375 18.925781 185.101562 19.507812 C 185.96875 20.085938 186.820312 20.6875 187.660156 21.308594 C 188.496094 21.929688 189.320312 22.570312 190.125 23.234375 C 190.929688 23.894531 191.722656 24.578125 192.496094 25.277344 C 193.265625 25.976562 194.023438 26.695312 194.761719 27.433594 C 195.496094 28.171875 196.21875 28.925781 196.917969 29.699219 C 197.617188 30.472656 198.300781 31.261719 198.960938 32.070312 C 199.621094 32.875 200.265625 33.699219 200.886719 34.535156 C 201.507812 35.375 202.109375 36.226562 202.6875 37.09375 C 203.265625 37.960938 203.824219 38.84375 204.359375 39.738281 C 204.898438 40.632812 205.410156 41.539062 205.902344 42.457031 C 206.394531 43.378906 206.863281 44.308594 207.308594 45.253906 C 207.757812 46.195312 208.179688 47.148438 208.578125 48.113281 C 208.976562 49.078125 209.351562 50.050781 209.703125 51.03125 C 210.054688 52.015625 210.382812 53.003906 210.683594 54.003906 C 210.988281 55 211.265625 56.007812 211.519531 57.019531 C 211.773438 58.03125 212 59.046875 212.207031 60.070312 C 212.410156 61.09375 212.585938 62.121094 212.738281 63.152344 C 212.894531 64.1875 213.019531 65.222656 213.125 66.257812 C 213.226562 67.296875 213.300781 68.335938 213.351562 69.378906 C 213.40625 70.421875 213.429688 71.464844 213.429688 72.507812 C 213.429688 73.550781 213.402344 74.59375 213.351562 75.632812 C 213.296875 76.675781 213.21875 77.714844 213.117188 78.753906 C 213.011719 79.789062 212.882812 80.824219 212.730469 81.855469 C 212.578125 82.886719 212.398438 83.914062 212.191406 84.9375 C 211.988281 85.960938 211.757812 86.976562 211.503906 87.988281 C 211.25 89 210.972656 90.003906 210.667969 91.003906 C 210.363281 92 210.039062 92.988281 209.683594 93.972656 C 209.332031 94.953125 208.957031 95.925781 208.558594 96.890625 C 208.160156 97.851562 207.734375 98.804688 207.289062 99.746094 C 206.84375 100.691406 206.375 101.621094 205.882812 102.539062 C 205.390625 103.460938 204.875 104.367188 204.339844 105.261719 C 203.800781 106.15625 203.246094 107.035156 202.664062 107.902344 C 202.085938 108.769531 201.484375 109.621094 200.863281 110.460938 C 200.242188 111.296875 199.601562 112.121094 198.9375 112.925781 C 198.277344 113.730469 197.59375 114.519531 196.894531 115.292969 C 196.195312 116.066406 195.476562 116.820312 194.738281 117.558594 C 194 118.296875 193.246094 119.015625 192.472656 119.714844 C 191.699219 120.414062 190.910156 121.097656 190.105469 121.757812 C 189.300781 122.421875 188.476562 123.0625 187.640625 123.683594 C 186.800781 124.304688 185.949219 124.90625 185.082031 125.484375 C 184.214844 126.0625 183.335938 126.621094 182.441406 127.160156 C 181.546875 127.695312 180.640625 128.210938 179.71875 128.703125 C 178.800781 129.195312 177.871094 129.664062 176.925781 130.109375 C 175.984375 130.554688 175.03125 130.980469 174.070312 131.378906 C 173.105469 131.777344 172.132812 132.152344 171.152344 132.503906 C 170.167969 132.859375 169.179688 133.183594 168.183594 133.488281 C 167.183594 133.792969 166.179688 134.070312 165.167969 134.324219 C 164.15625 134.578125 163.140625 134.808594 162.117188 135.011719 C 161.09375 135.21875 160.066406 135.398438 159.035156 135.550781 C 158.003906 135.703125 156.96875 135.832031 155.933594 135.9375 C 154.894531 136.039062 153.855469 136.117188 152.8125 136.167969 C 151.773438 136.222656 150.730469 136.25 149.6875 136.25 Z M 149.6875 136.25 " fill-opacity="1" fill-rule="nonzero"/></g><path fill="#4d8d80" d="M 149.6875 15.847656 C 147.832031 15.847656 145.980469 15.9375 144.132812 16.121094 C 142.285156 16.300781 140.453125 16.574219 138.632812 16.933594 C 136.8125 17.296875 135.015625 17.746094 133.238281 18.285156 C 131.464844 18.824219 129.71875 19.449219 128.003906 20.160156 C 126.289062 20.871094 124.613281 21.664062 122.976562 22.539062 C 121.339844 23.410156 119.75 24.363281 118.207031 25.394531 C 116.664062 26.425781 115.175781 27.53125 113.742188 28.707031 C 112.308594 29.886719 110.933594 31.128906 109.621094 32.441406 C 108.308594 33.753906 107.066406 35.128906 105.886719 36.5625 C 104.710938 37.996094 103.605469 39.484375 102.574219 41.027344 C 101.542969 42.570312 100.59375 44.160156 99.71875 45.796875 C 98.84375 47.433594 98.050781 49.109375 97.339844 50.824219 C 96.628906 52.539062 96.003906 54.285156 95.464844 56.058594 C 94.929688 57.835938 94.476562 59.632812 94.117188 61.453125 C 93.753906 63.273438 93.480469 65.105469 93.300781 66.953125 C 93.117188 68.800781 93.027344 70.652344 93.027344 72.507812 C 93.027344 74.363281 93.117188 76.214844 93.300781 78.0625 C 93.480469 79.90625 93.753906 81.742188 94.117188 83.5625 C 94.476562 85.382812 94.929688 87.179688 95.464844 88.953125 C 96.003906 90.730469 96.628906 92.476562 97.339844 94.191406 C 98.050781 95.90625 98.84375 97.582031 99.71875 99.214844 C 100.59375 100.851562 101.542969 102.441406 102.574219 103.984375 C 103.605469 105.527344 104.710938 107.019531 105.886719 108.453125 C 107.066406 109.886719 108.308594 111.261719 109.621094 112.570312 C 110.933594 113.882812 112.308594 115.128906 113.742188 116.304688 C 115.175781 117.484375 116.664062 118.585938 118.207031 119.617188 C 119.75 120.648438 121.339844 121.601562 122.976562 122.476562 C 124.613281 123.351562 126.289062 124.144531 128.003906 124.855469 C 129.71875 125.566406 131.464844 126.1875 133.238281 126.726562 C 135.015625 127.265625 136.8125 127.71875 138.632812 128.078125 C 140.453125 128.441406 142.285156 128.714844 144.132812 128.894531 C 145.980469 129.078125 147.832031 129.167969 149.6875 129.167969 C 151.542969 129.167969 153.394531 129.078125 155.242188 128.894531 C 157.085938 128.714844 158.921875 128.441406 160.742188 128.078125 C 162.5625 127.71875 164.359375 127.265625 166.132812 126.726562 C 167.910156 126.1875 169.65625 125.566406 171.371094 124.855469 C 173.085938 124.144531 174.761719 123.351562 176.398438 122.476562 C 178.035156 121.601562 179.621094 120.648438 181.164062 119.617188 C 182.707031 118.585938 184.199219 117.484375 185.632812 116.304688 C 187.066406 115.128906 188.441406 113.882812 189.753906 112.570312 C 191.0625 111.261719 192.308594 109.886719 193.484375 108.453125 C 194.664062 107.019531 195.765625 105.527344 196.796875 103.984375 C 197.828125 102.441406 198.78125 100.851562 199.65625 99.214844 C 200.53125 97.582031 201.324219 95.90625 202.035156 94.191406 C 202.746094 92.476562 203.367188 90.730469 203.90625 88.953125 C 204.445312 87.179688 204.898438 85.382812 205.257812 83.5625 C 205.621094 81.742188 205.894531 79.90625 206.074219 78.0625 C 206.257812 76.214844 206.347656 74.363281 206.347656 72.507812 C 206.34375 70.652344 206.253906 68.800781 206.070312 66.957031 C 205.886719 65.109375 205.609375 63.277344 205.246094 61.457031 C 204.882812 59.640625 204.433594 57.84375 203.894531 56.066406 C 203.351562 54.292969 202.726562 52.546875 202.015625 50.835938 C 201.304688 49.121094 200.511719 47.445312 199.636719 45.8125 C 198.761719 44.175781 197.808594 42.585938 196.777344 41.042969 C 195.746094 39.503906 194.644531 38.015625 193.464844 36.582031 C 192.289062 35.144531 191.042969 33.773438 189.730469 32.460938 C 188.421875 31.148438 187.046875 29.90625 185.613281 28.730469 C 184.179688 27.550781 182.691406 26.449219 181.148438 25.417969 C 179.609375 24.386719 178.019531 23.433594 176.382812 22.558594 C 174.746094 21.683594 173.074219 20.890625 171.359375 20.179688 C 169.644531 19.46875 167.902344 18.839844 166.128906 18.300781 C 164.351562 17.761719 162.554688 17.308594 160.738281 16.945312 C 158.917969 16.582031 157.085938 16.308594 155.238281 16.125 C 153.394531 15.941406 151.542969 15.847656 149.6875 15.847656 Z M 199.085938 76.046875 C 198.898438 78.699219 198.5 81.316406 197.890625 83.902344 C 197.277344 86.488281 196.464844 89.007812 195.449219 91.460938 C 194.429688 93.914062 193.222656 96.269531 191.824219 98.527344 C 190.425781 100.789062 188.855469 102.917969 187.113281 104.925781 L 182.238281 100.050781 L 177.230469 105.058594 L 182.105469 109.929688 C 180.097656 111.675781 177.96875 113.246094 175.710938 114.644531 C 173.449219 116.042969 171.09375 117.25 168.640625 118.269531 C 166.1875 119.285156 163.667969 120.097656 161.082031 120.710938 C 158.496094 121.320312 155.878906 121.71875 153.226562 121.90625 L 153.226562 115.003906 L 146.144531 115.003906 L 146.144531 121.90625 C 143.496094 121.71875 140.878906 121.320312 138.292969 120.710938 C 135.707031 120.097656 133.1875 119.285156 130.734375 118.269531 C 128.28125 117.25 125.921875 116.042969 123.664062 114.644531 C 121.40625 113.246094 119.273438 111.675781 117.269531 109.929688 L 122.144531 105.058594 L 117.136719 100.050781 L 112.261719 104.925781 C 110.519531 102.917969 108.949219 100.789062 107.550781 98.527344 C 106.152344 96.269531 104.945312 93.914062 103.925781 91.460938 C 102.910156 89.007812 102.09375 86.488281 101.484375 83.902344 C 100.875 81.316406 100.476562 78.699219 100.289062 76.046875 L 107.191406 76.046875 L 107.191406 68.964844 L 100.289062 68.964844 C 100.476562 66.316406 100.875 63.699219 101.484375 61.113281 C 102.09375 58.527344 102.910156 56.007812 103.925781 53.554688 C 104.945312 51.101562 106.152344 48.742188 107.550781 46.484375 C 108.949219 44.226562 110.519531 42.09375 112.261719 40.089844 L 117.136719 44.964844 L 122.144531 39.957031 L 117.269531 35.082031 C 119.273438 33.339844 121.40625 31.769531 123.664062 30.371094 C 125.921875 28.972656 128.28125 27.765625 130.734375 26.746094 C 133.1875 25.730469 135.707031 24.914062 138.292969 24.304688 C 140.878906 23.695312 143.496094 23.296875 146.144531 23.109375 L 146.144531 30.011719 L 153.226562 30.011719 L 153.226562 23.109375 C 155.878906 23.296875 158.496094 23.695312 161.082031 24.304688 C 163.667969 24.914062 166.1875 25.730469 168.640625 26.746094 C 171.09375 27.765625 173.449219 28.972656 175.710938 30.371094 C 177.96875 31.769531 180.097656 33.339844 182.105469 35.082031 L 177.230469 39.957031 L 182.238281 44.964844 L 187.113281 40.089844 C 188.855469 42.09375 190.425781 44.226562 191.824219 46.484375 C 193.222656 48.742188 194.429688 51.101562 195.449219 53.554688 C 196.464844 56.007812 197.277344 58.527344 197.890625 61.113281 C 198.5 63.699219 198.898438 66.316406 199.085938 68.964844 L 192.183594 68.964844 L 192.183594 76.046875 Z M 199.085938 76.046875 " fill-opacity="1" fill-rule="nonzero"/><path fill="#4d8d80" d="M 153.226562 37.09375 L 146.144531 37.09375 L 146.144531 72.507812 C 146.144531 73.484375 146.492188 74.320312 147.183594 75.011719 L 171.972656 99.800781 L 176.980469 94.792969 L 153.226562 71.042969 Z M 153.226562 37.09375 " fill-opacity="1" fill-rule="nonzero"/><g fill="#5ca899" fill-opacity="1"><g transform="translate(206.771009, 95.376817)"><g><path d="M 1.03125 -1.25 C 1.03125 -1.75 1.160156 -2.125 1.421875 -2.375 C 1.679688 -2.625 2.066406 -2.75 2.578125 -2.75 C 3.054688 -2.75 3.425781 -2.617188 3.6875 -2.359375 C 3.957031 -2.097656 4.09375 -1.726562 4.09375 -1.25 C 4.09375 -0.789062 3.957031 -0.425781 3.6875 -0.15625 C 3.425781 0.101562 3.054688 0.234375 2.578125 0.234375 C 2.078125 0.234375 1.691406 0.101562 1.421875 -0.15625 C 1.160156 -0.414062 1.03125 -0.78125 1.03125 -1.25 Z M 1.03125 -1.25 "/></g></g></g></svg>