<svg xmlns="http://www.w3.org/2000/svg" xmlns:xlink="http://www.w3.org/1999/xlink" width="1920" zoomAndPan="magnify" viewBox="0 0 1440 599.999999" height="800" preserveAspectRatio="xMidYMid meet" version="1.0"><defs><g/><clipPath id="17fbb65d8b"><path d="M 60 60 L 504.75 60 L 504.75 540 L 60 540 Z M 60 60 " clip-rule="nonzero"/></clipPath><clipPath id="fc44a42bdc"><path d="M 1315 300 L 1379.785156 300 L 1379.785156 360 L 1315 360 Z M 1315 300 " clip-rule="nonzero"/></clipPath></defs><rect x="-144" width="1728" fill="#ffffff" y="-60" height="719.999999" fill-opacity="1"/><rect x="-144" width="1728" fill="#5ca899" y="-60" height="719.999999" fill-opacity="1"/><g clip-path="url(#17fbb65d8b)"><path fill="#ffd55c" d="M 493.449219 97.253906 C 495.46875 100.519531 497.773438 103.878906 496.90625 104.746094 C 496.042969 105.609375 492.683594 103.304688 489.417969 101.289062 C 487.59375 100.136719 485 99.175781 481.160156 95.335938 L 481.066406 95.238281 L 457.925781 99.847656 L 456.292969 98.214844 L 475.6875 88.902344 L 462.054688 72.769531 C 462.054688 72.675781 461.957031 72.675781 461.957031 72.578125 L 453.601562 71.136719 L 452.066406 69.601562 L 458.980469 67.96875 C 458.402344 67.007812 458.117188 66.242188 458.210938 66.144531 C 458.308594 66.050781 459.078125 66.335938 460.035156 66.914062 L 461.667969 60 L 463.203125 61.535156 L 464.644531 69.890625 C 464.742188 69.890625 464.742188 69.984375 464.835938 69.984375 L 480.96875 83.621094 L 490.28125 64.128906 L 491.914062 65.761719 L 487.402344 88.902344 L 487.496094 88.996094 C 491.242188 92.839844 492.300781 95.429688 493.449219 97.253906 Z M 86.617188 538.367188 C 86.523438 538.847656 86.136719 539.230469 85.65625 539.230469 C 85.65625 539.230469 85.5625 539.230469 85.5625 539.230469 C 84.3125 539.039062 82.96875 538.847656 81.722656 538.558594 C 81.242188 538.464844 80.761719 538.367188 80.375 538.273438 C 78.9375 537.984375 77.59375 537.597656 76.246094 537.3125 L 75.289062 537.023438 C 74.136719 538.464844 71.640625 539.425781 68.566406 539.425781 C 64.339844 539.425781 61.171875 537.597656 61.171875 535.296875 C 61.171875 533.277344 63.382812 531.742188 66.550781 531.261719 L 60.117188 504.089844 C 60.019531 503.609375 60.308594 503.03125 60.882812 502.9375 C 61.363281 502.839844 61.941406 503.128906 62.035156 503.703125 L 62.132812 504.28125 C 63.382812 502.9375 66.261719 500.632812 71.832031 501.59375 C 79.511719 502.9375 82.871094 498.902344 82.871094 498.902344 C 82.871094 498.902344 84.023438 501.398438 83.257812 506.777344 C 82.488281 512.15625 85.945312 514.746094 85.945312 514.746094 C 85.945312 514.746094 82.585938 518.78125 74.902344 517.433594 C 70.101562 516.570312 67.222656 518.203125 65.78125 519.546875 L 68.566406 531.167969 C 72.695312 531.167969 75.765625 532.894531 75.863281 535.199219 L 76.726562 535.488281 C 78.070312 535.871094 79.417969 536.253906 80.664062 536.449219 C 81.144531 536.542969 81.625 536.640625 82.105469 536.734375 C 83.351562 537.023438 84.503906 537.214844 85.753906 537.40625 C 86.328125 537.3125 86.714844 537.792969 86.617188 538.367188 Z M 73.941406 535.199219 C 73.941406 534.335938 72.023438 533.183594 69.046875 532.992188 L 69.238281 533.664062 C 71.351562 533.757812 72.886719 534.429688 72.886719 535.101562 C 72.886719 535.96875 70.964844 536.640625 68.566406 536.640625 C 66.164062 536.640625 64.246094 535.96875 64.246094 535.101562 C 64.246094 534.429688 65.492188 533.855469 67.222656 533.664062 L 67.03125 532.992188 C 64.628906 533.277344 63.09375 534.335938 63.09375 535.101562 C 63.09375 535.96875 65.207031 537.3125 68.46875 537.3125 C 71.734375 537.3125 73.941406 536.160156 73.941406 535.199219 Z M 214.324219 242.246094 C 213.9375 242.4375 213.554688 242.628906 213.171875 242.820312 C 212.785156 243.011719 212.402344 243.203125 211.921875 243.398438 C 211.539062 243.589844 211.15625 243.78125 210.867188 243.972656 C 210.097656 244.355469 209.332031 244.742188 208.5625 245.125 C 207.507812 245.699219 206.546875 246.277344 205.488281 246.851562 C 205.007812 247.140625 204.914062 247.71875 205.203125 248.199219 C 205.394531 248.484375 205.679688 248.679688 206.066406 248.679688 C 206.257812 248.679688 206.449219 248.582031 206.546875 248.582031 C 207.507812 248.003906 208.5625 247.429688 209.617188 246.851562 C 210.289062 246.46875 210.960938 246.085938 211.730469 245.796875 C 212.113281 245.605469 212.5 245.414062 212.882812 245.222656 C 213.265625 245.027344 213.746094 244.835938 214.132812 244.644531 C 214.515625 244.453125 214.898438 244.261719 215.285156 244.070312 C 215.761719 243.875 215.957031 243.300781 215.761719 242.722656 C 215.378906 242.246094 214.804688 242.050781 214.324219 242.246094 Z M 304.773438 240.898438 C 304.964844 240.898438 305.0625 240.898438 305.253906 240.804688 C 307.171875 239.746094 309.191406 238.691406 311.398438 237.636719 C 312.261719 237.25 313.128906 236.769531 313.992188 236.386719 C 314.472656 236.195312 314.664062 235.617188 314.472656 235.042969 C 314.277344 234.5625 313.703125 234.371094 313.128906 234.5625 C 312.261719 234.945312 311.398438 235.425781 310.4375 235.8125 C 308.132812 236.964844 306.117188 238.019531 304.199219 239.074219 C 303.71875 239.363281 303.523438 239.941406 303.8125 240.421875 C 304.101562 240.707031 304.484375 240.898438 304.773438 240.898438 Z M 173.324219 283.917969 C 173.609375 283.4375 173.417969 282.859375 172.9375 282.574219 C 172.457031 282.285156 171.882812 282.476562 171.59375 282.957031 C 171.308594 283.53125 171.019531 284.109375 170.730469 284.683594 C 170.539062 285.070312 170.347656 285.453125 170.15625 285.933594 C 169.960938 286.316406 169.769531 286.703125 169.578125 287.085938 C 169.195312 287.855469 168.808594 288.621094 168.523438 289.390625 C 168.234375 289.964844 168.042969 290.636719 167.753906 291.214844 L 167.371094 292.078125 C 167.179688 292.558594 167.371094 293.132812 167.851562 293.328125 C 167.945312 293.421875 168.136719 293.421875 168.234375 293.421875 C 168.617188 293.421875 169.003906 293.230469 169.097656 292.847656 L 169.480469 291.980469 C 169.769531 291.308594 169.960938 290.734375 170.25 290.0625 C 170.539062 289.390625 170.828125 288.71875 171.210938 287.949219 C 171.402344 287.566406 171.59375 287.179688 171.785156 286.796875 C 171.980469 286.414062 172.171875 286.027344 172.363281 285.550781 C 172.746094 284.972656 173.035156 284.398438 173.324219 283.917969 Z M 183.5 408.070312 C 183.597656 408.070312 183.691406 408.070312 183.789062 407.972656 C 184.269531 407.78125 184.558594 407.207031 184.367188 406.726562 L 183.789062 405.09375 C 183.019531 402.691406 182.0625 400.195312 181.101562 397.316406 C 180.910156 396.835938 180.332031 396.546875 179.851562 396.738281 C 179.371094 396.929688 179.085938 397.507812 179.277344 397.988281 C 180.332031 400.773438 181.195312 403.363281 181.964844 405.667969 L 182.539062 407.300781 C 182.734375 407.878906 183.117188 408.070312 183.5 408.070312 Z M 175.914062 388.769531 C 176.109375 389.152344 176.394531 389.441406 176.875 389.441406 C 176.972656 389.441406 177.066406 389.441406 177.261719 389.347656 C 177.738281 389.152344 178.027344 388.578125 177.835938 388.097656 L 177.355469 386.945312 C 176.300781 384.257812 175.339844 381.566406 174.378906 378.878906 C 174.1875 378.398438 173.609375 378.113281 173.132812 378.304688 C 172.652344 378.496094 172.363281 379.070312 172.554688 379.550781 C 173.515625 382.242188 174.570312 384.929688 175.53125 387.617188 Z M 167.945312 360.058594 C 167.753906 359.578125 167.273438 359.292969 166.792969 359.386719 C 166.3125 359.578125 166.027344 360.058594 166.121094 360.636719 C 166.984375 363.613281 168.042969 366.683594 169.097656 370.140625 C 169.195312 370.527344 169.578125 370.8125 170.058594 370.8125 C 170.15625 370.8125 170.25 370.8125 170.347656 370.71875 C 170.828125 370.527344 171.113281 369.949219 170.921875 369.46875 C 169.867188 366.109375 168.808594 363.035156 167.945312 360.058594 Z M 192.046875 441.964844 L 191.757812 438.21875 C 191.664062 437.453125 191.566406 436.683594 191.46875 435.914062 C 191.375 435.339844 190.894531 435.050781 190.320312 435.050781 C 189.742188 435.148438 189.453125 435.628906 189.453125 436.203125 C 189.550781 436.972656 189.644531 437.738281 189.742188 438.410156 L 190.03125 442.15625 C 190.03125 442.636719 190.125 443.019531 190.125 443.5 C 190.222656 444.269531 190.222656 445.035156 190.222656 445.804688 L 190.222656 445.902344 C 190.222656 446.476562 190.703125 446.863281 191.183594 446.863281 C 191.757812 446.863281 192.144531 446.382812 192.144531 445.902344 L 192.144531 445.804688 C 192.144531 444.941406 192.046875 444.171875 192.046875 443.308594 C 192.144531 442.828125 192.046875 442.445312 192.046875 441.964844 Z M 197.230469 252.519531 C 194.542969 254.535156 192.046875 256.742188 189.644531 259.046875 C 189.261719 259.433594 189.261719 260.007812 189.644531 260.390625 C 189.839844 260.585938 190.125 260.679688 190.320312 260.679688 C 190.605469 260.679688 190.796875 260.585938 190.992188 260.390625 C 193.296875 258.183594 195.792969 255.976562 198.480469 254.054688 C 198.863281 253.765625 198.960938 253.09375 198.671875 252.710938 C 198.289062 252.328125 197.617188 252.230469 197.230469 252.519531 Z M 187.4375 474.226562 C 186.957031 474.035156 186.382812 474.324219 186.191406 474.898438 C 185.230469 477.972656 184.078125 481.140625 182.734375 484.117188 C 182.539062 484.597656 182.734375 485.171875 183.214844 485.363281 C 183.308594 485.460938 183.5 485.460938 183.597656 485.460938 C 183.980469 485.460938 184.367188 485.269531 184.460938 484.886719 C 185.804688 481.8125 186.957031 478.644531 187.917969 475.476562 C 188.207031 474.996094 187.917969 474.417969 187.4375 474.226562 Z M 191.085938 454.832031 C 190.605469 454.734375 190.125 455.214844 190.03125 455.695312 C 189.742188 458.769531 189.359375 461.550781 188.878906 464.242188 C 188.78125 464.625 188.6875 465.007812 188.6875 465.394531 C 188.589844 465.875 188.878906 466.449219 189.453125 466.546875 C 189.550781 466.546875 189.550781 466.546875 189.644531 466.546875 C 190.125 466.546875 190.511719 466.257812 190.605469 465.777344 C 190.703125 465.394531 190.796875 465.007812 190.796875 464.625 C 191.375 461.839844 191.757812 458.960938 192.046875 455.886719 C 192.046875 455.3125 191.566406 454.832031 191.085938 454.832031 Z M 189.070312 427.175781 C 189.550781 427.082031 189.933594 426.503906 189.839844 426.023438 C 189.167969 422.953125 188.398438 419.6875 187.4375 416.328125 C 187.246094 415.847656 186.765625 415.464844 186.285156 415.65625 C 185.804688 415.847656 185.421875 416.328125 185.613281 416.808594 C 186.574219 420.070312 187.34375 423.335938 188.015625 426.410156 C 188.109375 426.890625 188.492188 427.175781 188.972656 427.175781 C 188.972656 427.175781 188.972656 427.175781 189.070312 427.175781 Z M 179.660156 492.46875 C 179.179688 492.183594 178.605469 492.375 178.316406 492.855469 C 176.683594 495.734375 174.957031 498.519531 173.035156 501.113281 C 172.746094 501.59375 172.84375 502.167969 173.226562 502.457031 C 173.417969 502.550781 173.609375 502.648438 173.804688 502.648438 C 174.089844 502.648438 174.378906 502.457031 174.570312 502.265625 C 176.492188 499.574219 178.316406 496.695312 179.949219 493.816406 C 180.332031 493.335938 180.140625 492.757812 179.660156 492.46875 Z M 163.625 340.953125 C 163.527344 340.375 163.050781 340.089844 162.472656 340.089844 C 161.898438 340.183594 161.609375 340.664062 161.609375 341.242188 C 161.992188 343.640625 162.472656 346.234375 162.953125 348.730469 C 163.144531 349.496094 163.242188 350.265625 163.433594 351.035156 C 163.527344 351.515625 163.914062 351.800781 164.394531 351.800781 C 164.488281 351.800781 164.585938 351.800781 164.585938 351.800781 C 165.066406 351.707031 165.449219 351.128906 165.351562 350.648438 C 165.160156 349.882812 164.96875 349.113281 164.875 348.441406 C 164.394531 345.847656 164.007812 343.351562 163.625 340.953125 Z M 162.664062 312.433594 C 162.761719 312.433594 162.761719 312.433594 162.855469 312.433594 C 163.335938 312.433594 163.722656 312.144531 163.816406 311.667969 L 164.585938 307.824219 C 164.679688 307.632812 164.679688 307.34375 164.679688 307.152344 C 164.777344 306.769531 164.875 306.386719 164.96875 306 L 166.027344 302.0625 C 166.21875 301.585938 165.832031 301.007812 165.351562 300.914062 C 164.875 300.816406 164.296875 301.105469 164.203125 301.585938 L 163.144531 305.519531 C 163.050781 305.90625 162.953125 306.386719 162.855469 306.769531 C 162.855469 306.960938 162.761719 307.152344 162.761719 307.441406 L 161.992188 311.089844 L 161.992188 311.28125 C 161.800781 311.761719 162.089844 312.339844 162.664062 312.433594 Z M 299.972656 248.484375 C 302.566406 250.117188 305.15625 251.847656 307.652344 253.863281 L 308.039062 254.152344 C 308.230469 254.34375 308.421875 254.34375 308.613281 254.34375 C 308.902344 254.34375 309.191406 254.246094 309.382812 253.957031 C 309.765625 253.574219 309.671875 252.902344 309.191406 252.613281 L 308.804688 252.328125 C 306.308594 250.308594 303.621094 248.484375 300.933594 246.851562 C 300.453125 246.566406 299.875 246.757812 299.589844 247.140625 C 299.394531 247.621094 299.589844 248.292969 299.972656 248.484375 Z M 322.824219 232.546875 C 322.921875 232.546875 323.015625 232.546875 323.210938 232.449219 C 326.1875 231.296875 329.257812 230.050781 332.425781 228.992188 C 332.90625 228.800781 333.195312 228.226562 333.003906 227.746094 C 332.8125 227.265625 332.234375 226.976562 331.753906 227.167969 C 328.585938 228.320312 325.417969 229.472656 322.441406 230.625 C 321.960938 230.816406 321.671875 231.394531 321.863281 231.875 C 322.058594 232.355469 322.441406 232.546875 322.824219 232.546875 Z M 166.984375 508.792969 C 164.875 511.097656 162.761719 513.308594 160.457031 515.324219 L 160.074219 515.707031 C 159.6875 516.089844 159.59375 516.667969 159.976562 517.050781 C 160.167969 517.242188 160.457031 517.339844 160.746094 517.339844 C 160.9375 517.339844 161.226562 517.242188 161.417969 517.050781 L 161.898438 516.667969 C 164.203125 514.554688 166.410156 512.347656 168.523438 509.945312 C 168.90625 509.5625 168.808594 508.890625 168.425781 508.601562 C 167.945312 508.3125 167.273438 508.410156 166.984375 508.792969 Z M 177.066406 275.753906 C 177.261719 275.851562 177.355469 275.945312 177.546875 275.945312 C 177.835938 275.945312 178.21875 275.753906 178.410156 275.46875 L 179.371094 273.929688 C 179.851562 273.257812 180.332031 272.683594 180.8125 272.011719 C 181.101562 271.625 181.390625 271.339844 181.675781 270.953125 C 182.539062 269.800781 183.5 268.648438 184.269531 267.691406 C 184.652344 267.304688 184.558594 266.632812 184.171875 266.34375 C 183.789062 265.960938 183.117188 266.058594 182.828125 266.441406 C 181.964844 267.402344 181.003906 268.648438 180.140625 269.898438 C 179.851562 270.28125 179.660156 270.570312 179.371094 270.953125 C 178.890625 271.625 178.410156 272.296875 177.933594 272.96875 L 176.875 274.507812 C 176.492188 274.890625 176.585938 275.46875 177.066406 275.753906 Z M 161.609375 332.214844 C 161.609375 332.214844 161.703125 332.214844 161.609375 332.214844 C 162.183594 332.214844 162.570312 331.734375 162.570312 331.160156 C 162.472656 329.527344 162.472656 327.894531 162.472656 326.355469 C 162.472656 324.726562 162.570312 322.996094 162.664062 321.363281 C 162.664062 320.789062 162.28125 320.402344 161.703125 320.308594 C 161.128906 320.308594 160.746094 320.691406 160.648438 321.269531 C 160.550781 322.902344 160.457031 324.628906 160.457031 326.355469 C 160.457031 327.988281 160.550781 329.621094 160.550781 331.253906 C 160.746094 331.734375 161.128906 332.214844 161.609375 332.214844 Z M 135.203125 531.261719 C 132.226562 532.511719 129.058594 533.664062 125.984375 534.527344 C 125.503906 534.71875 125.21875 535.199219 125.3125 535.773438 C 125.410156 536.160156 125.792969 536.449219 126.273438 536.449219 C 126.371094 536.449219 126.464844 536.449219 126.5625 536.449219 C 129.730469 535.488281 132.898438 534.335938 135.972656 533.085938 C 136.453125 532.894531 136.738281 532.320312 136.453125 531.839844 C 136.257812 531.261719 135.683594 531.070312 135.203125 531.261719 Z M 152.292969 521.851562 C 149.605469 523.675781 146.820312 525.40625 143.941406 527.039062 C 143.460938 527.324219 143.269531 527.902344 143.558594 528.382812 C 143.75 528.667969 144.039062 528.863281 144.421875 528.863281 C 144.613281 528.863281 144.710938 528.863281 144.902344 528.765625 C 147.878906 527.132812 150.664062 525.40625 153.351562 523.484375 C 153.832031 523.195312 153.925781 522.523438 153.542969 522.140625 C 153.160156 521.757812 152.773438 521.46875 152.292969 521.851562 Z M 116.382812 536.832031 C 113.117188 537.40625 109.855469 537.792969 106.6875 538.078125 C 106.109375 538.078125 105.726562 538.558594 105.820312 539.136719 C 105.820312 539.617188 106.300781 540 106.78125 540 C 106.78125 540 106.878906 540 106.878906 540 C 110.238281 539.710938 113.503906 539.328125 116.863281 538.75 C 117.34375 538.65625 117.726562 538.175781 117.632812 537.597656 C 117.441406 537.121094 116.960938 536.734375 116.382812 536.832031 Z M 233.429688 236.003906 C 231.992188 236.292969 230.839844 236.578125 229.78125 236.867188 C 229.300781 236.964844 228.917969 237.058594 228.4375 237.25 C 227.671875 237.445312 226.902344 237.636719 226.039062 237.921875 L 223.734375 238.691406 C 223.253906 238.882812 222.964844 239.460938 223.0625 239.941406 C 223.15625 240.324219 223.542969 240.613281 224.019531 240.613281 C 224.117188 240.613281 224.214844 240.613281 224.308594 240.515625 L 226.613281 239.746094 C 227.382812 239.554688 228.148438 239.363281 228.917969 239.171875 C 229.398438 239.074219 229.78125 238.980469 230.261719 238.789062 C 231.320312 238.5 232.375 238.210938 233.816406 237.921875 C 234.296875 237.828125 234.679688 237.25 234.582031 236.769531 C 234.390625 236.195312 233.910156 235.90625 233.429688 236.003906 Z M 428.832031 207.484375 C 428.253906 207.582031 427.679688 207.773438 427.199219 207.871094 L 419.898438 209.5 L 419.226562 209.597656 C 418.75 209.695312 418.363281 210.175781 418.460938 210.75 C 418.554688 211.230469 418.941406 211.519531 419.421875 211.519531 C 419.515625 211.519531 419.515625 211.519531 419.613281 211.519531 L 427.679688 209.789062 C 428.253906 209.695312 428.832031 209.5 429.40625 209.40625 C 429.886719 209.308594 430.269531 208.734375 430.078125 208.253906 C 429.886719 207.675781 429.308594 207.390625 428.832031 207.484375 Z M 331.851562 285.164062 C 330.988281 281.996094 329.738281 278.828125 328.203125 275.753906 C 328.011719 275.273438 327.335938 275.082031 326.859375 275.273438 C 326.378906 275.46875 326.1875 276.140625 326.378906 276.621094 C 327.816406 279.597656 329.066406 282.667969 329.835938 285.644531 C 329.929688 286.027344 330.316406 286.316406 330.792969 286.316406 C 330.890625 286.316406 330.988281 286.316406 331.082031 286.316406 C 331.660156 286.222656 331.945312 285.742188 331.851562 285.164062 Z M 253.308594 233.988281 L 250.332031 233.988281 L 244.664062 234.371094 C 244.183594 234.371094 243.707031 234.46875 243.226562 234.5625 C 242.648438 234.660156 242.265625 235.140625 242.359375 235.617188 C 242.457031 236.097656 242.839844 236.484375 243.320312 236.484375 C 243.320312 236.484375 243.417969 236.484375 243.417969 236.484375 C 243.898438 236.386719 244.28125 236.386719 244.761719 236.386719 L 250.332031 236.003906 L 253.210938 236.003906 C 253.789062 236.003906 254.171875 235.523438 254.171875 235.042969 C 254.265625 234.371094 253.789062 233.988281 253.308594 233.988281 Z M 409.53125 211.328125 C 408.953125 211.421875 408.378906 211.519531 407.800781 211.519531 C 406.9375 211.613281 406.074219 211.710938 405.113281 211.902344 C 403.289062 212.191406 401.464844 212.382812 399.738281 212.574219 C 399.160156 212.671875 398.777344 213.152344 398.871094 213.628906 C 398.96875 214.109375 399.351562 214.496094 399.832031 214.496094 C 399.832031 214.496094 399.929688 214.496094 399.929688 214.496094 C 401.753906 214.304688 403.578125 214.015625 405.402344 213.824219 C 406.265625 213.726562 407.128906 213.628906 407.992188 213.4375 C 408.570312 213.34375 409.144531 213.246094 409.820312 213.246094 C 410.394531 213.152344 410.683594 212.671875 410.683594 212.191406 C 410.492188 211.613281 410.011719 211.230469 409.53125 211.328125 Z M 447.554688 201.53125 C 444.578125 202.683594 441.503906 203.835938 438.238281 204.796875 C 437.761719 204.988281 437.472656 205.46875 437.566406 206.046875 C 437.664062 206.429688 438.046875 206.71875 438.527344 206.71875 C 438.625 206.71875 438.71875 206.71875 438.816406 206.621094 C 442.082031 205.566406 445.25 204.507812 448.226562 203.261719 C 448.707031 203.070312 448.992188 202.492188 448.800781 202.011719 C 448.707031 201.53125 448.128906 201.339844 447.554688 201.53125 Z M 350.765625 221.410156 C 347.5 222.273438 344.332031 223.136719 341.164062 224.097656 C 340.683594 224.289062 340.398438 224.769531 340.492188 225.34375 C 340.589844 225.730469 340.972656 226.015625 341.453125 226.015625 C 341.546875 226.015625 341.644531 226.015625 341.742188 226.015625 C 344.8125 225.058594 348.078125 224.191406 351.246094 223.328125 C 351.726562 223.234375 352.109375 222.65625 351.917969 222.175781 C 351.824219 221.601562 351.34375 221.3125 350.765625 221.410156 Z M 333.578125 296.398438 C 333.578125 296.015625 333.578125 295.632812 333.578125 295.152344 C 333.578125 294.574219 333.097656 294.191406 332.523438 294.191406 C 331.945312 294.191406 331.5625 294.671875 331.5625 295.246094 C 331.5625 295.632812 331.5625 296.015625 331.5625 296.398438 C 331.5625 296.878906 331.5625 297.261719 331.660156 297.742188 C 331.660156 297.9375 331.660156 298.222656 331.660156 298.414062 C 331.660156 300.433594 331.464844 302.640625 330.988281 304.847656 C 330.890625 305.328125 331.273438 305.90625 331.753906 306 C 331.851562 306 331.851562 306 331.945312 306 C 332.425781 306 332.8125 305.714844 332.90625 305.234375 C 333.386719 302.929688 333.578125 300.625 333.578125 298.414062 C 333.578125 298.128906 333.578125 297.9375 333.578125 297.648438 C 333.578125 297.261719 333.578125 296.785156 333.578125 296.398438 Z M 389.847656 213.824219 C 386.484375 214.304688 383.222656 214.78125 380.050781 215.359375 C 379.574219 215.457031 379.1875 215.933594 379.285156 216.511719 C 379.378906 216.992188 379.765625 217.375 380.246094 217.375 C 380.339844 217.375 380.339844 217.375 380.4375 217.375 C 383.605469 216.894531 386.871094 216.320312 390.230469 215.839844 C 390.804688 215.742188 391.09375 215.261719 391.09375 214.78125 C 390.804688 214.109375 390.328125 213.726562 389.847656 213.824219 Z M 465.222656 192.792969 C 462.4375 194.523438 459.554688 196.058594 456.578125 197.5 C 456.097656 197.691406 455.90625 198.363281 456.097656 198.84375 C 456.292969 199.226562 456.578125 199.417969 456.964844 199.417969 C 457.15625 199.417969 457.25 199.417969 457.347656 199.324219 C 460.324219 197.882812 463.300781 196.25 466.085938 194.523438 C 466.566406 194.234375 466.660156 193.660156 466.375 193.179688 C 466.277344 192.699219 465.703125 192.507812 465.222656 192.792969 Z M 504.972656 129.132812 C 504.972656 128.558594 504.492188 128.171875 504.011719 128.171875 C 503.4375 128.171875 503.054688 128.652344 503.054688 129.132812 C 503.054688 129.710938 503.054688 130.285156 503.054688 130.863281 C 503.054688 133.261719 502.859375 135.855469 502.574219 138.253906 C 502.476562 138.832031 502.859375 139.3125 503.4375 139.3125 C 503.4375 139.3125 503.53125 139.3125 503.53125 139.3125 C 504.011719 139.3125 504.398438 138.929688 504.492188 138.449219 C 504.78125 135.855469 504.972656 133.359375 504.972656 130.765625 C 505.070312 130.285156 505.070312 129.710938 504.972656 129.132812 Z M 501.996094 147.183594 C 501.515625 147.089844 500.941406 147.378906 500.84375 147.859375 C 499.980469 151.027344 498.925781 154.097656 497.675781 157.074219 C 497.484375 157.554688 497.675781 158.132812 498.15625 158.324219 C 498.253906 158.417969 498.445312 158.417969 498.539062 158.417969 C 498.925781 158.417969 499.308594 158.226562 499.402344 157.84375 C 500.75 154.769531 501.804688 151.601562 502.667969 148.335938 C 502.859375 147.859375 502.476562 147.378906 501.996094 147.183594 Z M 480.777344 180.984375 L 479.914062 181.753906 C 477.800781 183.671875 475.589844 185.496094 473.285156 187.320312 C 472.902344 187.609375 472.808594 188.28125 473.09375 188.664062 C 473.285156 188.953125 473.574219 189.050781 473.863281 189.050781 C 474.054688 189.050781 474.246094 188.953125 474.4375 188.859375 C 476.742188 187.035156 479.046875 185.210938 481.257812 183.191406 L 482.121094 182.328125 C 482.503906 181.945312 482.503906 181.367188 482.121094 180.984375 C 481.738281 180.601562 481.160156 180.601562 480.777344 180.984375 Z M 494.410156 165.429688 C 493.929688 165.140625 493.355469 165.332031 493.066406 165.71875 C 492.011719 167.347656 490.953125 168.980469 489.800781 170.613281 C 489.035156 171.671875 488.265625 172.628906 487.402344 173.6875 C 487.019531 174.070312 487.113281 174.742188 487.496094 175.03125 C 487.691406 175.222656 487.882812 175.222656 488.074219 175.222656 C 488.363281 175.222656 488.648438 175.128906 488.84375 174.839844 C 489.707031 173.78125 490.570312 172.726562 491.242188 171.671875 C 492.394531 170.039062 493.546875 168.308594 494.601562 166.675781 C 494.988281 166.390625 494.890625 165.71875 494.410156 165.429688 Z M 370.164062 217.085938 C 369.394531 217.183594 368.625 217.375 367.859375 217.566406 C 365.363281 218.046875 362.863281 218.625 360.464844 219.199219 C 359.984375 219.296875 359.601562 219.871094 359.695312 220.351562 C 359.792969 220.832031 360.175781 221.121094 360.65625 221.121094 C 360.753906 221.121094 360.847656 221.121094 360.847656 221.121094 C 363.25 220.542969 365.746094 220.0625 368.242188 219.582031 C 369.011719 219.390625 369.777344 219.296875 370.546875 219.105469 C 371.027344 219.007812 371.410156 218.527344 371.316406 217.953125 C 371.21875 217.28125 370.738281 216.992188 370.164062 217.085938 Z M 272.800781 237.828125 C 272.894531 237.828125 272.894531 237.828125 272.992188 237.828125 C 273.472656 237.828125 273.855469 237.539062 273.953125 237.058594 C 274.046875 236.578125 273.664062 236.003906 273.183594 235.90625 L 272.414062 235.714844 C 272.03125 235.617188 271.550781 235.523438 271.070312 235.425781 C 270.6875 235.332031 270.300781 235.332031 269.917969 235.234375 C 269.054688 235.042969 268.191406 234.851562 267.230469 234.851562 C 266.75 234.753906 266.171875 234.753906 265.597656 234.660156 C 264.734375 234.5625 263.964844 234.46875 263.101562 234.371094 C 262.523438 234.273438 262.042969 234.660156 262.042969 235.234375 C 261.949219 235.8125 262.332031 236.292969 262.910156 236.292969 C 263.675781 236.386719 264.542969 236.484375 265.308594 236.578125 C 265.886719 236.675781 266.367188 236.675781 266.941406 236.769531 C 267.804688 236.867188 268.574219 236.964844 269.4375 237.15625 C 269.824219 237.25 270.207031 237.347656 270.589844 237.347656 C 271.070312 237.445312 271.453125 237.539062 271.933594 237.636719 Z M 268.476562 271.53125 C 267.996094 271.242188 267.421875 271.433594 267.132812 271.820312 C 266.558594 272.875 265.980469 273.929688 265.40625 274.988281 C 264.347656 277.003906 263.484375 279.019531 262.8125 280.941406 C 262.621094 281.421875 262.910156 281.996094 263.390625 282.1875 C 263.484375 282.1875 263.582031 282.285156 263.675781 282.285156 C 264.0625 282.285156 264.445312 281.996094 264.636719 281.613281 C 265.308594 279.691406 266.171875 277.773438 267.132812 275.851562 C 267.613281 274.796875 268.191406 273.835938 268.765625 272.875 C 269.148438 272.394531 268.957031 271.722656 268.476562 271.53125 Z M 280.671875 333.269531 C 279.039062 332.308594 277.503906 331.160156 276.160156 329.910156 C 275.199219 329.046875 274.238281 328.085938 273.277344 327.125 C 272.894531 326.742188 272.320312 326.742188 271.933594 327.03125 C 271.550781 327.414062 271.550781 327.988281 271.839844 328.375 C 272.800781 329.429688 273.757812 330.390625 274.816406 331.351562 C 276.351562 332.695312 277.984375 333.847656 279.617188 334.902344 C 279.808594 335 279.90625 335 280.097656 335 C 280.382812 335 280.769531 334.808594 280.960938 334.519531 C 281.25 334.136719 281.054688 333.460938 280.671875 333.269531 Z M 267.230469 318.292969 C 265.886719 315.699219 264.828125 313.011719 264.0625 310.226562 C 263.871094 309.746094 263.390625 309.363281 262.8125 309.554688 C 262.332031 309.746094 262.042969 310.226562 262.140625 310.800781 C 263.003906 313.777344 264.15625 316.5625 265.5 319.25 C 265.695312 319.539062 265.789062 319.828125 265.980469 320.117188 C 266.171875 320.402344 266.460938 320.597656 266.847656 320.597656 C 267.039062 320.597656 267.132812 320.597656 267.324219 320.5 C 267.804688 320.210938 267.996094 319.636719 267.710938 319.15625 C 267.519531 318.867188 267.421875 318.578125 267.230469 318.292969 Z M 262.042969 296.496094 C 262.042969 294.671875 262.140625 292.847656 262.332031 291.023438 C 262.429688 290.445312 262.042969 289.964844 261.46875 289.964844 C 260.894531 289.871094 260.414062 290.253906 260.414062 290.832031 C 260.21875 292.75 260.027344 294.671875 260.027344 296.589844 C 260.027344 298.03125 260.125 299.472656 260.21875 301.007812 C 260.21875 301.488281 260.699219 301.871094 261.179688 301.871094 C 261.179688 301.871094 261.277344 301.871094 261.277344 301.871094 C 261.851562 301.777344 262.238281 301.390625 262.140625 300.816406 C 262.140625 299.28125 262.042969 297.839844 262.042969 296.496094 Z M 279.90625 256.359375 C 277.886719 258.28125 275.871094 260.296875 274.046875 262.410156 C 273.664062 262.792969 273.375 263.273438 272.992188 263.65625 C 272.605469 264.039062 272.703125 264.714844 273.085938 265 C 273.277344 265.191406 273.472656 265.191406 273.757812 265.191406 C 274.046875 265.191406 274.335938 265.097656 274.527344 264.808594 C 274.816406 264.425781 275.199219 264.039062 275.582031 263.65625 C 277.3125 261.640625 279.230469 259.625 281.25 257.703125 C 281.632812 257.320312 281.632812 256.742188 281.25 256.359375 C 280.863281 255.976562 280.289062 255.976562 279.90625 256.359375 Z M 329.355469 313.585938 C 328.875 313.394531 328.296875 313.585938 328.105469 314.066406 C 327.433594 315.601562 326.570312 317.140625 325.707031 318.578125 C 324.9375 319.925781 324.074219 321.171875 323.113281 322.324219 C 322.824219 322.707031 322.824219 323.378906 323.304688 323.667969 C 323.496094 323.765625 323.6875 323.859375 323.882812 323.859375 C 324.167969 323.859375 324.457031 323.765625 324.648438 323.476562 C 325.609375 322.226562 326.570312 320.882812 327.335938 319.539062 C 328.296875 318.003906 329.164062 316.371094 329.835938 314.835938 C 330.121094 314.449219 329.835938 313.875 329.355469 313.585938 Z M 323.113281 267.113281 C 322.058594 265.671875 321 264.234375 319.847656 262.886719 C 318.886719 261.738281 317.832031 260.488281 316.679688 259.335938 C 316.296875 258.953125 315.71875 258.953125 315.335938 259.335938 C 314.953125 259.71875 314.953125 260.296875 315.335938 260.679688 C 316.390625 261.832031 317.449219 262.984375 318.40625 264.136719 C 319.558594 265.480469 320.617188 266.824219 321.578125 268.265625 C 321.769531 268.554688 322.058594 268.648438 322.34375 268.648438 C 322.535156 268.648438 322.730469 268.554688 322.921875 268.457031 C 323.304688 268.167969 323.402344 267.59375 323.113281 267.113281 Z M 316.390625 329.332031 L 316.105469 329.621094 C 313.605469 331.636719 311.015625 333.269531 308.324219 334.519531 C 307.847656 334.710938 307.652344 335.285156 307.847656 335.863281 C 308.039062 336.246094 308.324219 336.4375 308.710938 336.4375 C 308.804688 336.4375 309 336.4375 309.09375 336.34375 C 311.976562 335 314.757812 333.269531 317.351562 331.160156 L 317.640625 330.871094 C 318.023438 330.484375 318.121094 329.910156 317.734375 329.527344 C 317.449219 329.046875 316.777344 329.046875 316.390625 329.332031 Z M 299.011719 337.207031 C 297.859375 337.398438 296.613281 337.398438 295.460938 337.398438 C 293.441406 337.398438 291.425781 337.207031 289.507812 336.726562 C 289.027344 336.632812 288.449219 336.917969 288.355469 337.496094 C 288.257812 337.976562 288.546875 338.550781 289.121094 338.648438 C 291.136719 339.128906 293.347656 339.320312 295.460938 339.320312 C 296.707031 339.320312 298.050781 339.222656 299.300781 339.03125 C 299.875 338.9375 300.261719 338.457031 300.164062 337.976562 C 300.070312 337.496094 299.589844 337.113281 299.011719 337.207031 Z M 296.804688 245.796875 C 297.285156 245.507812 297.378906 244.933594 297.09375 244.453125 C 296.804688 243.972656 296.226562 243.875 295.746094 244.164062 C 292.867188 246.085938 290.082031 248.003906 287.585938 249.925781 C 287.203125 250.214844 287.105469 250.886719 287.394531 251.269531 C 287.585938 251.558594 287.875 251.65625 288.160156 251.65625 C 288.355469 251.65625 288.546875 251.558594 288.738281 251.460938 C 291.234375 249.542969 293.921875 247.621094 296.804688 245.796875 Z M 288.546875 242.722656 C 289.410156 243.109375 290.273438 243.492188 291.332031 243.972656 C 291.425781 244.070312 291.617188 244.070312 291.714844 244.070312 C 292.097656 244.070312 292.484375 243.875 292.578125 243.492188 C 292.769531 243.011719 292.578125 242.4375 292.097656 242.148438 C 290.945312 241.667969 290.082031 241.1875 289.121094 240.898438 C 288.738281 240.707031 288.257812 240.613281 287.875 240.421875 C 287.105469 240.132812 286.335938 239.746094 285.570312 239.554688 L 282.6875 238.597656 C 282.207031 238.402344 281.632812 238.691406 281.441406 239.171875 C 281.25 239.652344 281.535156 240.226562 282.015625 240.421875 L 284.898438 241.378906 C 285.664062 241.667969 286.335938 241.957031 287.105469 242.246094 C 287.683594 242.339844 288.066406 242.53125 288.546875 242.722656 Z M 501.902344 118.859375 C 501.996094 119.339844 502.382812 119.628906 502.859375 119.628906 C 502.957031 119.628906 502.957031 119.628906 503.054688 119.628906 C 503.53125 119.53125 503.917969 118.957031 503.820312 118.476562 C 503.148438 115.113281 502.09375 111.753906 500.652344 108.394531 C 500.460938 107.914062 499.882812 107.625 499.402344 107.914062 C 498.925781 108.105469 498.636719 108.683594 498.925781 109.160156 C 500.269531 112.332031 501.230469 115.59375 501.902344 118.859375 Z M 501.902344 118.859375 " fill-opacity="1" fill-rule="nonzero"/></g><path fill="#ffb733" d="M 1090.675781 530.164062 L 1150.105469 530.164062 L 1150.105469 539.972656 L 1090.675781 539.972656 Z M 1090.675781 530.164062 " fill-opacity="1" fill-rule="nonzero"/><path fill="#ffffff" d="M 1090.675781 529.46875 L 1150.105469 529.46875 L 1150.105469 538.25 L 1090.675781 538.25 Z M 1090.675781 529.46875 " fill-opacity="1" fill-rule="nonzero"/><path fill="#ffb733" d="M 1090.675781 519.660156 L 1150.105469 519.660156 L 1150.105469 529.46875 L 1090.675781 529.46875 Z M 1090.675781 519.660156 " fill-opacity="1" fill-rule="nonzero"/><path fill="#ffffff" d="M 1090.675781 518.949219 L 1150.105469 518.949219 L 1150.105469 527.738281 L 1090.675781 527.738281 Z M 1090.675781 518.949219 " fill-opacity="1" fill-rule="nonzero"/><path fill="#ffb733" d="M 1312.851562 530.164062 L 1372.277344 530.164062 L 1372.277344 539.972656 L 1312.851562 539.972656 Z M 1312.851562 530.164062 " fill-opacity="1" fill-rule="nonzero"/><path fill="#ffffff" d="M 1312.851562 529.46875 L 1372.277344 529.46875 L 1372.277344 538.25 L 1312.851562 538.25 Z M 1312.851562 529.46875 " fill-opacity="1" fill-rule="nonzero"/><path fill="#ffb733" d="M 1312.851562 519.660156 L 1372.277344 519.660156 L 1372.277344 529.46875 L 1312.851562 529.46875 Z M 1312.851562 519.660156 " fill-opacity="1" fill-rule="nonzero"/><path fill="#ffffff" d="M 1312.851562 518.949219 L 1372.277344 518.949219 L 1372.277344 527.738281 L 1312.851562 527.738281 Z M 1312.851562 518.949219 " fill-opacity="1" fill-rule="nonzero"/><path fill="#ffb733" d="M 1312.851562 509.140625 L 1372.277344 509.140625 L 1372.277344 518.949219 L 1312.851562 518.949219 Z M 1312.851562 509.140625 " fill-opacity="1" fill-rule="nonzero"/><path fill="#ffffff" d="M 1312.851562 508.441406 L 1372.277344 508.441406 L 1372.277344 517.226562 L 1312.851562 517.226562 Z M 1312.851562 508.441406 " fill-opacity="1" fill-rule="nonzero"/><path fill="#ffb733" d="M 1312.851562 498.636719 L 1372.277344 498.636719 L 1372.277344 508.441406 L 1312.851562 508.441406 Z M 1312.851562 498.636719 " fill-opacity="1" fill-rule="nonzero"/><path fill="#ffffff" d="M 1312.851562 497.925781 L 1372.277344 497.925781 L 1372.277344 506.714844 L 1312.851562 506.714844 Z M 1312.851562 497.925781 " fill-opacity="1" fill-rule="nonzero"/><path fill="#ffb733" d="M 1312.851562 488.121094 L 1372.277344 488.121094 L 1372.277344 497.925781 L 1312.851562 497.925781 Z M 1312.851562 488.121094 " fill-opacity="1" fill-rule="nonzero"/><path fill="#ffffff" d="M 1312.851562 487.417969 L 1372.277344 487.417969 L 1372.277344 496.203125 L 1312.851562 496.203125 Z M 1312.851562 487.417969 " fill-opacity="1" fill-rule="nonzero"/><path fill="#ffb733" d="M 1312.851562 477.613281 L 1372.277344 477.613281 L 1372.277344 487.414062 L 1312.851562 487.414062 Z M 1312.851562 477.613281 " fill-opacity="1" fill-rule="nonzero"/><path fill="#ffffff" d="M 1312.851562 476.902344 L 1372.277344 476.902344 L 1372.277344 485.691406 L 1312.851562 485.691406 Z M 1312.851562 476.902344 " fill-opacity="1" fill-rule="nonzero"/><path fill="#ffb733" d="M 1312.851562 467.097656 L 1372.277344 467.097656 L 1372.277344 476.902344 L 1312.851562 476.902344 Z M 1312.851562 467.097656 " fill-opacity="1" fill-rule="nonzero"/><path fill="#ffffff" d="M 1312.851562 466.394531 L 1372.277344 466.394531 L 1372.277344 475.179688 L 1312.851562 475.179688 Z M 1312.851562 466.394531 " fill-opacity="1" fill-rule="nonzero"/><path fill="#ffb733" d="M 1312.851562 456.589844 L 1372.277344 456.589844 L 1372.277344 466.394531 L 1312.851562 466.394531 Z M 1312.851562 456.589844 " fill-opacity="1" fill-rule="nonzero"/><path fill="#ffffff" d="M 1312.851562 455.882812 L 1372.277344 455.882812 L 1372.277344 464.671875 L 1312.851562 464.671875 Z M 1312.851562 455.882812 " fill-opacity="1" fill-rule="nonzero"/><path fill="#ffb733" d="M 1312.851562 446.070312 L 1372.277344 446.070312 L 1372.277344 455.882812 L 1312.851562 455.882812 Z M 1312.851562 446.070312 " fill-opacity="1" fill-rule="nonzero"/><path fill="#ffffff" d="M 1312.851562 445.371094 L 1372.277344 445.371094 L 1372.277344 454.15625 L 1312.851562 454.15625 Z M 1312.851562 445.371094 " fill-opacity="1" fill-rule="nonzero"/><path fill="#ffb733" d="M 1312.851562 435.566406 L 1372.277344 435.566406 L 1372.277344 445.371094 L 1312.851562 445.371094 Z M 1312.851562 435.566406 " fill-opacity="1" fill-rule="nonzero"/><path fill="#ffffff" d="M 1312.851562 434.859375 L 1372.277344 434.859375 L 1372.277344 443.644531 L 1312.851562 443.644531 Z M 1312.851562 434.859375 " fill-opacity="1" fill-rule="nonzero"/><path fill="#ffb733" d="M 1312.851562 425.046875 L 1372.277344 425.046875 L 1372.277344 434.855469 L 1312.851562 434.855469 Z M 1312.851562 425.046875 " fill-opacity="1" fill-rule="nonzero"/><path fill="#ffffff" d="M 1312.851562 424.351562 L 1372.277344 424.351562 L 1372.277344 433.128906 L 1312.851562 433.128906 Z M 1312.851562 424.351562 " fill-opacity="1" fill-rule="nonzero"/><path fill="#ffb733" d="M 1312.851562 414.542969 L 1372.277344 414.542969 L 1372.277344 424.347656 L 1312.851562 424.347656 Z M 1312.851562 414.542969 " fill-opacity="1" fill-rule="nonzero"/><path fill="#ffffff" d="M 1312.851562 413.832031 L 1372.277344 413.832031 L 1372.277344 422.625 L 1312.851562 422.625 Z M 1312.851562 413.832031 " fill-opacity="1" fill-rule="nonzero"/><path fill="#ffb733" d="M 1312.851562 404.023438 L 1372.277344 404.023438 L 1372.277344 413.832031 L 1312.851562 413.832031 Z M 1312.851562 404.023438 " fill-opacity="1" fill-rule="nonzero"/><path fill="#ffffff" d="M 1312.851562 403.328125 L 1372.277344 403.328125 L 1372.277344 412.105469 L 1312.851562 412.105469 Z M 1312.851562 403.328125 " fill-opacity="1" fill-rule="nonzero"/><path fill="#ffb733" d="M 1312.851562 393.519531 L 1372.277344 393.519531 L 1372.277344 403.328125 L 1312.851562 403.328125 Z M 1312.851562 393.519531 " fill-opacity="1" fill-rule="nonzero"/><path fill="#ffffff" d="M 1312.851562 392.8125 L 1372.277344 392.8125 L 1372.277344 401.597656 L 1312.851562 401.597656 Z M 1312.851562 392.8125 " fill-opacity="1" fill-rule="nonzero"/><path fill="#ffb733" d="M 1164.734375 530.164062 L 1224.167969 530.164062 L 1224.167969 539.972656 L 1164.734375 539.972656 Z M 1164.734375 530.164062 " fill-opacity="1" fill-rule="nonzero"/><path fill="#ffffff" d="M 1164.734375 529.46875 L 1224.167969 529.46875 L 1224.167969 538.25 L 1164.734375 538.25 Z M 1164.734375 529.46875 " fill-opacity="1" fill-rule="nonzero"/><path fill="#ffb733" d="M 1164.734375 519.660156 L 1224.167969 519.660156 L 1224.167969 529.46875 L 1164.734375 529.46875 Z M 1164.734375 519.660156 " fill-opacity="1" fill-rule="nonzero"/><path fill="#ffffff" d="M 1164.734375 518.949219 L 1224.167969 518.949219 L 1224.167969 527.738281 L 1164.734375 527.738281 Z M 1164.734375 518.949219 " fill-opacity="1" fill-rule="nonzero"/><path fill="#ffb733" d="M 1164.734375 509.148438 L 1224.167969 509.148438 L 1224.167969 518.953125 L 1164.734375 518.953125 Z M 1164.734375 509.148438 " fill-opacity="1" fill-rule="nonzero"/><path fill="#ffffff" d="M 1164.734375 508.441406 L 1224.167969 508.441406 L 1224.167969 517.230469 L 1164.734375 517.230469 Z M 1164.734375 508.441406 " fill-opacity="1" fill-rule="nonzero"/><path fill="#ffb733" d="M 1164.734375 498.636719 L 1224.167969 498.636719 L 1224.167969 508.441406 L 1164.734375 508.441406 Z M 1164.734375 498.636719 " fill-opacity="1" fill-rule="nonzero"/><path fill="#ffffff" d="M 1164.734375 497.933594 L 1224.167969 497.933594 L 1224.167969 506.722656 L 1164.734375 506.722656 Z M 1164.734375 497.933594 " fill-opacity="1" fill-rule="nonzero"/><path fill="#ffb733" d="M 1164.734375 488.128906 L 1224.167969 488.128906 L 1224.167969 497.933594 L 1164.734375 497.933594 Z M 1164.734375 488.128906 " fill-opacity="1" fill-rule="nonzero"/><path fill="#ffffff" d="M 1164.734375 487.421875 L 1224.167969 487.421875 L 1224.167969 496.210938 L 1164.734375 496.210938 Z M 1164.734375 487.421875 " fill-opacity="1" fill-rule="nonzero"/><path fill="#ffb733" d="M 1164.734375 477.621094 L 1224.167969 477.621094 L 1224.167969 487.425781 L 1164.734375 487.425781 Z M 1164.734375 477.621094 " fill-opacity="1" fill-rule="nonzero"/><path fill="#ffffff" d="M 1164.734375 476.910156 L 1224.167969 476.910156 L 1224.167969 485.699219 L 1164.734375 485.699219 Z M 1164.734375 476.910156 " fill-opacity="1" fill-rule="nonzero"/><path fill="#ffb733" d="M 1238.792969 530.164062 L 1298.222656 530.164062 L 1298.222656 539.972656 L 1238.792969 539.972656 Z M 1238.792969 530.164062 " fill-opacity="1" fill-rule="nonzero"/><path fill="#ffffff" d="M 1238.792969 529.46875 L 1298.222656 529.46875 L 1298.222656 538.25 L 1238.792969 538.25 Z M 1238.792969 529.46875 " fill-opacity="1" fill-rule="nonzero"/><path fill="#ffb733" d="M 1238.792969 519.660156 L 1298.222656 519.660156 L 1298.222656 529.46875 L 1238.792969 529.46875 Z M 1238.792969 519.660156 " fill-opacity="1" fill-rule="nonzero"/><path fill="#ffffff" d="M 1238.792969 518.949219 L 1298.222656 518.949219 L 1298.222656 527.738281 L 1238.792969 527.738281 Z M 1238.792969 518.949219 " fill-opacity="1" fill-rule="nonzero"/><path fill="#ffb733" d="M 1238.792969 509.148438 L 1298.222656 509.148438 L 1298.222656 518.953125 L 1238.792969 518.953125 Z M 1238.792969 509.148438 " fill-opacity="1" fill-rule="nonzero"/><path fill="#ffffff" d="M 1238.792969 508.441406 L 1298.222656 508.441406 L 1298.222656 517.230469 L 1238.792969 517.230469 Z M 1238.792969 508.441406 " fill-opacity="1" fill-rule="nonzero"/><path fill="#ffb733" d="M 1238.792969 498.636719 L 1298.222656 498.636719 L 1298.222656 508.441406 L 1238.792969 508.441406 Z M 1238.792969 498.636719 " fill-opacity="1" fill-rule="nonzero"/><path fill="#ffffff" d="M 1238.792969 497.933594 L 1298.222656 497.933594 L 1298.222656 506.722656 L 1238.792969 506.722656 Z M 1238.792969 497.933594 " fill-opacity="1" fill-rule="nonzero"/><path fill="#ffb733" d="M 1238.792969 488.128906 L 1298.222656 488.128906 L 1298.222656 497.933594 L 1238.792969 497.933594 Z M 1238.792969 488.128906 " fill-opacity="1" fill-rule="nonzero"/><path fill="#ffffff" d="M 1238.792969 487.421875 L 1298.222656 487.421875 L 1298.222656 496.210938 L 1238.792969 496.210938 Z M 1238.792969 487.421875 " fill-opacity="1" fill-rule="nonzero"/><path fill="#ffb733" d="M 1238.792969 477.621094 L 1298.222656 477.621094 L 1298.222656 487.425781 L 1238.792969 487.425781 Z M 1238.792969 477.621094 " fill-opacity="1" fill-rule="nonzero"/><path fill="#ffffff" d="M 1238.792969 476.910156 L 1298.222656 476.910156 L 1298.222656 485.699219 L 1238.792969 485.699219 Z M 1238.792969 476.910156 " fill-opacity="1" fill-rule="nonzero"/><path fill="#ffb733" d="M 1238.792969 467.105469 L 1298.222656 467.105469 L 1298.222656 476.910156 L 1238.792969 476.910156 Z M 1238.792969 467.105469 " fill-opacity="1" fill-rule="nonzero"/><path fill="#ffffff" d="M 1238.792969 466.40625 L 1298.222656 466.40625 L 1298.222656 475.195312 L 1238.792969 475.195312 Z M 1238.792969 466.40625 " fill-opacity="1" fill-rule="nonzero"/><path fill="#ffb733" d="M 1238.792969 456.597656 L 1298.222656 456.597656 L 1298.222656 466.402344 L 1238.792969 466.402344 Z M 1238.792969 456.597656 " fill-opacity="1" fill-rule="nonzero"/><path fill="#ffffff" d="M 1238.792969 455.894531 L 1298.222656 455.894531 L 1298.222656 464.675781 L 1238.792969 464.675781 Z M 1238.792969 455.894531 " fill-opacity="1" fill-rule="nonzero"/><path fill="#ffb733" d="M 1238.792969 446.085938 L 1298.222656 446.085938 L 1298.222656 455.894531 L 1238.792969 455.894531 Z M 1238.792969 446.085938 " fill-opacity="1" fill-rule="nonzero"/><path fill="#ffffff" d="M 1238.792969 445.386719 L 1298.222656 445.386719 L 1298.222656 454.167969 L 1238.792969 454.167969 Z M 1238.792969 445.386719 " fill-opacity="1" fill-rule="nonzero"/><path fill="#ffb733" d="M 1238.792969 435.578125 L 1298.222656 435.578125 L 1298.222656 445.386719 L 1238.792969 445.386719 Z M 1238.792969 435.578125 " fill-opacity="1" fill-rule="nonzero"/><path fill="#ffffff" d="M 1238.792969 434.878906 L 1298.222656 434.878906 L 1298.222656 443.660156 L 1238.792969 443.660156 Z M 1238.792969 434.878906 " fill-opacity="1" fill-rule="nonzero"/><path fill="#ffffff" d="M 1090.667969 485.640625 C 1087.347656 485.640625 1084.496094 483.269531 1083.886719 480 C 1083.195312 476.253906 1085.675781 472.644531 1089.414062 471.949219 C 1148.035156 461.0625 1211.542969 432.449219 1268.242188 391.378906 C 1304.378906 365.207031 1335.984375 335.5625 1362.171875 303.261719 C 1363.492188 301.636719 1365.449219 300.707031 1367.539062 300.707031 C 1369.113281 300.707031 1370.65625 301.257812 1371.886719 302.253906 C 1373.316406 303.414062 1374.214844 305.0625 1374.402344 306.898438 C 1374.59375 308.730469 1374.0625 310.535156 1372.898438 311.964844 C 1345.945312 345.199219 1313.457031 375.683594 1276.34375 402.5625 C 1218.015625 444.8125 1152.527344 474.277344 1091.9375 485.53125 C 1091.511719 485.601562 1091.089844 485.640625 1090.667969 485.640625 Z M 1090.667969 485.640625 " fill-opacity="1" fill-rule="nonzero"/><g clip-path="url(#fc44a42bdc)"><path fill="#ffffff" d="M 1372.238281 359.625 C 1368.695312 359.625 1365.75 356.964844 1365.378906 353.4375 L 1361.386719 315.199219 L 1323.148438 319.1875 C 1322.90625 319.21875 1322.660156 319.226562 1322.421875 319.226562 C 1318.875 319.226562 1315.929688 316.566406 1315.5625 313.042969 C 1315.363281 311.207031 1315.902344 309.40625 1317.066406 307.972656 C 1318.222656 306.542969 1319.878906 305.644531 1321.71875 305.457031 L 1373.683594 300.027344 L 1379.117188 352.003906 C 1379.507812 355.789062 1376.75 359.195312 1372.96875 359.589844 C 1372.71875 359.613281 1372.472656 359.625 1372.238281 359.625 Z M 1372.238281 359.625 " fill-opacity="1" fill-rule="nonzero"/></g><g fill="#ffd55c" fill-opacity="0.4"><g transform="translate(375.881335, 341.720382)"><g><path d="M 22.4375 0.75 C 16.53125 0.75 11.800781 -1.101562 8.25 -4.8125 C 4.695312 -8.519531 2.921875 -13.609375 2.921875 -20.078125 L 2.921875 -57.421875 C 2.921875 -65.472656 4.523438 -71.539062 7.734375 -75.625 C 10.941406 -79.707031 15.96875 -81.75 22.8125 -81.75 C 28.789062 -81.75 33.601562 -80.113281 37.25 -76.84375 C 40.894531 -73.582031 42.71875 -68.867188 42.71875 -62.703125 L 42.71875 -48.75 L 26.59375 -48.75 L 26.59375 -60.734375 C 26.59375 -63.054688 26.304688 -64.65625 25.734375 -65.53125 C 25.171875 -66.414062 24.195312 -66.859375 22.8125 -66.859375 C 21.375 -66.859375 20.382812 -66.351562 19.84375 -65.34375 C 19.3125 -64.34375 19.046875 -62.867188 19.046875 -60.921875 L 19.046875 -20.28125 C 19.046875 -18.132812 19.359375 -16.570312 19.984375 -15.59375 C 20.617188 -14.625 21.5625 -14.140625 22.8125 -14.140625 C 25.332031 -14.140625 26.59375 -16.1875 26.59375 -20.28125 L 26.59375 -34.890625 L 42.90625 -34.890625 L 42.90625 -19.609375 C 42.90625 -6.035156 36.082031 0.75 22.4375 0.75 Z M 22.4375 0.75 "/></g></g></g><g fill="#ffd55c" fill-opacity="0.4"><g transform="translate(420.577044, 341.720382)"><g><path d="M 22.921875 0.75 C 16.378906 0.75 11.410156 -1.242188 8.015625 -5.234375 C 4.617188 -9.222656 2.921875 -14.832031 2.921875 -22.0625 L 2.921875 -60.640625 C 2.921875 -67.609375 4.617188 -72.867188 8.015625 -76.421875 C 11.410156 -79.972656 16.378906 -81.75 22.921875 -81.75 C 29.453125 -81.75 34.414062 -79.972656 37.8125 -76.421875 C 41.207031 -72.867188 42.90625 -67.609375 42.90625 -60.640625 L 42.90625 -22.0625 C 42.90625 -14.769531 41.207031 -9.144531 37.8125 -5.1875 C 34.414062 -1.226562 29.453125 0.75 22.921875 0.75 Z M 22.921875 -14.140625 C 24.359375 -14.140625 25.328125 -14.769531 25.828125 -16.03125 C 26.335938 -17.289062 26.59375 -19.050781 26.59375 -21.3125 L 26.59375 -60.921875 C 26.59375 -62.679688 26.351562 -64.109375 25.875 -65.203125 C 25.40625 -66.304688 24.453125 -66.859375 23.015625 -66.859375 C 20.304688 -66.859375 18.953125 -64.816406 18.953125 -60.734375 L 18.953125 -21.21875 C 18.953125 -18.894531 19.234375 -17.132812 19.796875 -15.9375 C 20.367188 -14.738281 21.410156 -14.140625 22.921875 -14.140625 Z M 22.921875 -14.140625 "/></g></g></g><g fill="#ffd55c" fill-opacity="0.4"><g transform="translate(466.404297, 341.720382)"><g><path d="M 3.578125 0 L 3.578125 -81 L 28.296875 -81 L 35.078125 -31.59375 L 41.875 -81 L 66.765625 -81 L 66.765625 0 L 51.953125 0 L 51.953125 -58.375 L 42.625 0 L 28.09375 0 L 18.203125 -58.375 L 18.203125 0 Z M 3.578125 0 "/></g></g></g><g fill="#ffd55c" fill-opacity="0.4"><g transform="translate(536.748189, 341.720382)"><g><path d="M 3.578125 0 L 3.578125 -81 L 36.015625 -81 L 36.015625 -65.34375 L 20.078125 -65.34375 L 20.078125 -49.59375 L 35.359375 -49.59375 L 35.359375 -34.328125 L 20.078125 -34.328125 L 20.078125 -15.75 L 37.0625 -15.75 L 37.0625 0 Z M 9.4375 -83.453125 L 9.4375 -93.71875 L 31.3125 -103.8125 L 31.3125 -87.78125 Z M 9.4375 -83.453125 "/></g></g></g><g fill="#ffd55c" fill-opacity="0.4"><g transform="translate(575.597631, 341.720382)"><g><path d="M 3.578125 -81 L 28.484375 -81 C 32.441406 -81 35.503906 -80.101562 37.671875 -78.3125 C 39.835938 -76.519531 41.296875 -74.003906 42.046875 -70.765625 C 42.804688 -67.523438 43.1875 -63.394531 43.1875 -58.375 C 43.1875 -53.78125 42.585938 -50.191406 41.390625 -47.609375 C 40.203125 -45.035156 38.128906 -43.25 35.171875 -42.25 C 37.617188 -41.738281 39.394531 -40.507812 40.5 -38.5625 C 41.601562 -36.613281 42.15625 -33.972656 42.15625 -30.640625 L 41.96875 0 L 26.125 0 L 26.125 -31.6875 C 26.125 -33.945312 25.679688 -35.390625 24.796875 -36.015625 C 23.921875 -36.648438 22.316406 -36.96875 19.984375 -36.96875 L 19.984375 0 L 3.578125 0 Z M 23.953125 -51.015625 C 26.210938 -51.015625 27.34375 -53.46875 27.34375 -58.375 C 27.34375 -60.507812 27.25 -62.109375 27.0625 -63.171875 C 26.875 -64.242188 26.523438 -64.984375 26.015625 -65.390625 C 25.515625 -65.804688 24.796875 -66.015625 23.859375 -66.015625 L 20.078125 -66.015625 L 20.078125 -51.015625 Z M 23.953125 -51.015625 "/></g></g></g><g fill="#ffd55c" fill-opacity="0.4"><g transform="translate(620.57621, 341.720382)"><g><path d="M 22.4375 0.75 C 16.53125 0.75 11.800781 -1.101562 8.25 -4.8125 C 4.695312 -8.519531 2.921875 -13.609375 2.921875 -20.078125 L 2.921875 -57.421875 C 2.921875 -65.472656 4.523438 -71.539062 7.734375 -75.625 C 10.941406 -79.707031 15.96875 -81.75 22.8125 -81.75 C 28.789062 -81.75 33.601562 -80.113281 37.25 -76.84375 C 40.894531 -73.582031 42.71875 -68.867188 42.71875 -62.703125 L 42.71875 -48.75 L 26.59375 -48.75 L 26.59375 -60.734375 C 26.59375 -63.054688 26.304688 -64.65625 25.734375 -65.53125 C 25.171875 -66.414062 24.195312 -66.859375 22.8125 -66.859375 C 21.375 -66.859375 20.382812 -66.351562 19.84375 -65.34375 C 19.3125 -64.34375 19.046875 -62.867188 19.046875 -60.921875 L 19.046875 -20.28125 C 19.046875 -18.132812 19.359375 -16.570312 19.984375 -15.59375 C 20.617188 -14.625 21.5625 -14.140625 22.8125 -14.140625 C 25.332031 -14.140625 26.59375 -16.1875 26.59375 -20.28125 L 26.59375 -34.890625 L 42.90625 -34.890625 L 42.90625 -19.609375 C 42.90625 -6.035156 36.082031 0.75 22.4375 0.75 Z M 22.4375 0.75 "/></g></g></g><g fill="#ffd55c" fill-opacity="0.4"><g transform="translate(665.271906, 341.720382)"><g><path d="M 2.828125 0 L 2.828125 -81 L 18.484375 -81 L 18.484375 0 Z M 2.828125 0 "/></g></g></g><g fill="#ffd55c" fill-opacity="0.4"><g transform="translate(686.67682, 341.720382)"><g><path d="M 22.921875 0.75 C 16.378906 0.75 11.410156 -1.242188 8.015625 -5.234375 C 4.617188 -9.222656 2.921875 -14.832031 2.921875 -22.0625 L 2.921875 -60.640625 C 2.921875 -67.609375 4.617188 -72.867188 8.015625 -76.421875 C 11.410156 -79.972656 16.378906 -81.75 22.921875 -81.75 C 29.453125 -81.75 34.414062 -79.972656 37.8125 -76.421875 C 41.207031 -72.867188 42.90625 -67.609375 42.90625 -60.640625 L 42.90625 -22.0625 C 42.90625 -14.769531 41.207031 -9.144531 37.8125 -5.1875 C 34.414062 -1.226562 29.453125 0.75 22.921875 0.75 Z M 22.921875 -14.140625 C 24.359375 -14.140625 25.328125 -14.769531 25.828125 -16.03125 C 26.335938 -17.289062 26.59375 -19.050781 26.59375 -21.3125 L 26.59375 -60.921875 C 26.59375 -62.679688 26.351562 -64.109375 25.875 -65.203125 C 25.40625 -66.304688 24.453125 -66.859375 23.015625 -66.859375 C 20.304688 -66.859375 18.953125 -64.816406 18.953125 -60.734375 L 18.953125 -21.21875 C 18.953125 -18.894531 19.234375 -17.132812 19.796875 -15.9375 C 20.367188 -14.738281 21.410156 -14.140625 22.921875 -14.140625 Z M 22.921875 -14.140625 "/></g></g></g><g fill="#ffd55c" fill-opacity="0.4"><g transform="translate(732.504073, 341.720382)"><g/></g></g><g fill="#ffd55c" fill-opacity="0.4"><g transform="translate(754.569064, 341.720382)"><g><path d="M 3.578125 0 L 3.578125 -81 L 36.015625 -81 L 36.015625 -65.34375 L 20.078125 -65.34375 L 20.078125 -49.59375 L 35.359375 -49.59375 L 35.359375 -34.328125 L 20.078125 -34.328125 L 20.078125 -15.75 L 37.0625 -15.75 L 37.0625 0 Z M 3.578125 0 "/></g></g></g><g fill="#ffd55c" fill-opacity="0.4"><g transform="translate(793.418507, 341.720382)"><g><path d="M 1.21875 0 L 9.90625 -43 L 3.015625 -81.09375 L 18.859375 -81.09375 L 23.109375 -53.1875 L 26.78125 -81.09375 L 42.71875 -81.09375 L 35.734375 -43 L 44.40625 0 L 28 0 L 22.921875 -31.6875 L 17.734375 0 Z M 1.21875 0 "/></g></g></g><g fill="#ffd55c" fill-opacity="0.4"><g transform="translate(839.057189, 341.720382)"><g><path d="M 10.5625 0 L 10.5625 -65.4375 L 0.9375 -65.4375 L 0.9375 -81 L 36.40625 -81 L 36.40625 -65.4375 L 26.78125 -65.4375 L 26.78125 0 Z M 10.5625 0 "/></g></g></g><g fill="#ffd55c" fill-opacity="0.4"><g transform="translate(876.397932, 341.720382)"><g><path d="M 3.578125 0 L 3.578125 -81 L 36.015625 -81 L 36.015625 -65.34375 L 20.078125 -65.34375 L 20.078125 -49.59375 L 35.359375 -49.59375 L 35.359375 -34.328125 L 20.078125 -34.328125 L 20.078125 -15.75 L 37.0625 -15.75 L 37.0625 0 Z M 3.578125 0 "/></g></g></g><g fill="#ffd55c" fill-opacity="0.4"><g transform="translate(915.247347, 341.720382)"><g><path d="M 3.578125 -81 L 28.484375 -81 C 32.441406 -81 35.503906 -80.101562 37.671875 -78.3125 C 39.835938 -76.519531 41.296875 -74.003906 42.046875 -70.765625 C 42.804688 -67.523438 43.1875 -63.394531 43.1875 -58.375 C 43.1875 -53.78125 42.585938 -50.191406 41.390625 -47.609375 C 40.203125 -45.035156 38.128906 -43.25 35.171875 -42.25 C 37.617188 -41.738281 39.394531 -40.507812 40.5 -38.5625 C 41.601562 -36.613281 42.15625 -33.972656 42.15625 -30.640625 L 41.96875 0 L 26.125 0 L 26.125 -31.6875 C 26.125 -33.945312 25.679688 -35.390625 24.796875 -36.015625 C 23.921875 -36.648438 22.316406 -36.96875 19.984375 -36.96875 L 19.984375 0 L 3.578125 0 Z M 23.953125 -51.015625 C 26.210938 -51.015625 27.34375 -53.46875 27.34375 -58.375 C 27.34375 -60.507812 27.25 -62.109375 27.0625 -63.171875 C 26.875 -64.242188 26.523438 -64.984375 26.015625 -65.390625 C 25.515625 -65.804688 24.796875 -66.015625 23.859375 -66.015625 L 20.078125 -66.015625 L 20.078125 -51.015625 Z M 23.953125 -51.015625 "/></g></g></g><g fill="#ffd55c" fill-opacity="0.4"><g transform="translate(960.225953, 341.720382)"><g><path d="M 2.828125 0 L 2.828125 -81 L 18.484375 -81 L 18.484375 0 Z M 2.828125 0 "/></g></g></g><g fill="#ffd55c" fill-opacity="0.4"><g transform="translate(981.630866, 341.720382)"><g><path d="M 22.921875 0.75 C 16.378906 0.75 11.410156 -1.242188 8.015625 -5.234375 C 4.617188 -9.222656 2.921875 -14.832031 2.921875 -22.0625 L 2.921875 -60.640625 C 2.921875 -67.609375 4.617188 -72.867188 8.015625 -76.421875 C 11.410156 -79.972656 16.378906 -81.75 22.921875 -81.75 C 29.453125 -81.75 34.414062 -79.972656 37.8125 -76.421875 C 41.207031 -72.867188 42.90625 -67.609375 42.90625 -60.640625 L 42.90625 -22.0625 C 42.90625 -14.769531 41.207031 -9.144531 37.8125 -5.1875 C 34.414062 -1.226562 29.453125 0.75 22.921875 0.75 Z M 22.921875 -14.140625 C 24.359375 -14.140625 25.328125 -14.769531 25.828125 -16.03125 C 26.335938 -17.289062 26.59375 -19.050781 26.59375 -21.3125 L 26.59375 -60.921875 C 26.59375 -62.679688 26.351562 -64.109375 25.875 -65.203125 C 25.40625 -66.304688 24.453125 -66.859375 23.015625 -66.859375 C 20.304688 -66.859375 18.953125 -64.816406 18.953125 -60.734375 L 18.953125 -21.21875 C 18.953125 -18.894531 19.234375 -17.132812 19.796875 -15.9375 C 20.367188 -14.738281 21.410156 -14.140625 22.921875 -14.140625 Z M 22.921875 -14.140625 "/></g></g></g><g fill="#ffd55c" fill-opacity="0.4"><g transform="translate(1027.458146, 341.720382)"><g><path d="M 3.578125 -81 L 28.484375 -81 C 32.441406 -81 35.503906 -80.101562 37.671875 -78.3125 C 39.835938 -76.519531 41.296875 -74.003906 42.046875 -70.765625 C 42.804688 -67.523438 43.1875 -63.394531 43.1875 -58.375 C 43.1875 -53.78125 42.585938 -50.191406 41.390625 -47.609375 C 40.203125 -45.035156 38.128906 -43.25 35.171875 -42.25 C 37.617188 -41.738281 39.394531 -40.507812 40.5 -38.5625 C 41.601562 -36.613281 42.15625 -33.972656 42.15625 -30.640625 L 41.96875 0 L 26.125 0 L 26.125 -31.6875 C 26.125 -33.945312 25.679688 -35.390625 24.796875 -36.015625 C 23.921875 -36.648438 22.316406 -36.96875 19.984375 -36.96875 L 19.984375 0 L 3.578125 0 Z M 23.953125 -51.015625 C 26.210938 -51.015625 27.34375 -53.46875 27.34375 -58.375 C 27.34375 -60.507812 27.25 -62.109375 27.0625 -63.171875 C 26.875 -64.242188 26.523438 -64.984375 26.015625 -65.390625 C 25.515625 -65.804688 24.796875 -66.015625 23.859375 -66.015625 L 20.078125 -66.015625 L 20.078125 -51.015625 Z M 23.953125 -51.015625 "/></g></g></g><g fill="#ffffff" fill-opacity="1"><g transform="translate(371.713503, 337.552549)"><g><path d="M 22.4375 0.75 C 16.53125 0.75 11.800781 -1.101562 8.25 -4.8125 C 4.695312 -8.519531 2.921875 -13.609375 2.921875 -20.078125 L 2.921875 -57.421875 C 2.921875 -65.472656 4.523438 -71.539062 7.734375 -75.625 C 10.941406 -79.707031 15.96875 -81.75 22.8125 -81.75 C 28.789062 -81.75 33.601562 -80.113281 37.25 -76.84375 C 40.894531 -73.582031 42.71875 -68.867188 42.71875 -62.703125 L 42.71875 -48.75 L 26.59375 -48.75 L 26.59375 -60.734375 C 26.59375 -63.054688 26.304688 -64.65625 25.734375 -65.53125 C 25.171875 -66.414062 24.195312 -66.859375 22.8125 -66.859375 C 21.375 -66.859375 20.382812 -66.351562 19.84375 -65.34375 C 19.3125 -64.34375 19.046875 -62.867188 19.046875 -60.921875 L 19.046875 -20.28125 C 19.046875 -18.132812 19.359375 -16.570312 19.984375 -15.59375 C 20.617188 -14.625 21.5625 -14.140625 22.8125 -14.140625 C 25.332031 -14.140625 26.59375 -16.1875 26.59375 -20.28125 L 26.59375 -34.890625 L 42.90625 -34.890625 L 42.90625 -19.609375 C 42.90625 -6.035156 36.082031 0.75 22.4375 0.75 Z M 22.4375 0.75 "/></g></g></g><g fill="#ffffff" fill-opacity="1"><g transform="translate(416.409212, 337.552549)"><g><path d="M 22.921875 0.75 C 16.378906 0.75 11.410156 -1.242188 8.015625 -5.234375 C 4.617188 -9.222656 2.921875 -14.832031 2.921875 -22.0625 L 2.921875 -60.640625 C 2.921875 -67.609375 4.617188 -72.867188 8.015625 -76.421875 C 11.410156 -79.972656 16.378906 -81.75 22.921875 -81.75 C 29.453125 -81.75 34.414062 -79.972656 37.8125 -76.421875 C 41.207031 -72.867188 42.90625 -67.609375 42.90625 -60.640625 L 42.90625 -22.0625 C 42.90625 -14.769531 41.207031 -9.144531 37.8125 -5.1875 C 34.414062 -1.226562 29.453125 0.75 22.921875 0.75 Z M 22.921875 -14.140625 C 24.359375 -14.140625 25.328125 -14.769531 25.828125 -16.03125 C 26.335938 -17.289062 26.59375 -19.050781 26.59375 -21.3125 L 26.59375 -60.921875 C 26.59375 -62.679688 26.351562 -64.109375 25.875 -65.203125 C 25.40625 -66.304688 24.453125 -66.859375 23.015625 -66.859375 C 20.304688 -66.859375 18.953125 -64.816406 18.953125 -60.734375 L 18.953125 -21.21875 C 18.953125 -18.894531 19.234375 -17.132812 19.796875 -15.9375 C 20.367188 -14.738281 21.410156 -14.140625 22.921875 -14.140625 Z M 22.921875 -14.140625 "/></g></g></g><g fill="#ffffff" fill-opacity="1"><g transform="translate(462.236465, 337.552549)"><g><path d="M 3.578125 0 L 3.578125 -81 L 28.296875 -81 L 35.078125 -31.59375 L 41.875 -81 L 66.765625 -81 L 66.765625 0 L 51.953125 0 L 51.953125 -58.375 L 42.625 0 L 28.09375 0 L 18.203125 -58.375 L 18.203125 0 Z M 3.578125 0 "/></g></g></g><g fill="#ffffff" fill-opacity="1"><g transform="translate(532.580357, 337.552549)"><g><path d="M 3.578125 0 L 3.578125 -81 L 36.015625 -81 L 36.015625 -65.34375 L 20.078125 -65.34375 L 20.078125 -49.59375 L 35.359375 -49.59375 L 35.359375 -34.328125 L 20.078125 -34.328125 L 20.078125 -15.75 L 37.0625 -15.75 L 37.0625 0 Z M 9.4375 -83.453125 L 9.4375 -93.71875 L 31.3125 -103.8125 L 31.3125 -87.78125 Z M 9.4375 -83.453125 "/></g></g></g><g fill="#ffffff" fill-opacity="1"><g transform="translate(571.429799, 337.552549)"><g><path d="M 3.578125 -81 L 28.484375 -81 C 32.441406 -81 35.503906 -80.101562 37.671875 -78.3125 C 39.835938 -76.519531 41.296875 -74.003906 42.046875 -70.765625 C 42.804688 -67.523438 43.1875 -63.394531 43.1875 -58.375 C 43.1875 -53.78125 42.585938 -50.191406 41.390625 -47.609375 C 40.203125 -45.035156 38.128906 -43.25 35.171875 -42.25 C 37.617188 -41.738281 39.394531 -40.507812 40.5 -38.5625 C 41.601562 -36.613281 42.15625 -33.972656 42.15625 -30.640625 L 41.96875 0 L 26.125 0 L 26.125 -31.6875 C 26.125 -33.945312 25.679688 -35.390625 24.796875 -36.015625 C 23.921875 -36.648438 22.316406 -36.96875 19.984375 -36.96875 L 19.984375 0 L 3.578125 0 Z M 23.953125 -51.015625 C 26.210938 -51.015625 27.34375 -53.46875 27.34375 -58.375 C 27.34375 -60.507812 27.25 -62.109375 27.0625 -63.171875 C 26.875 -64.242188 26.523438 -64.984375 26.015625 -65.390625 C 25.515625 -65.804688 24.796875 -66.015625 23.859375 -66.015625 L 20.078125 -66.015625 L 20.078125 -51.015625 Z M 23.953125 -51.015625 "/></g></g></g><g fill="#ffffff" fill-opacity="1"><g transform="translate(616.408378, 337.552549)"><g><path d="M 22.4375 0.75 C 16.53125 0.75 11.800781 -1.101562 8.25 -4.8125 C 4.695312 -8.519531 2.921875 -13.609375 2.921875 -20.078125 L 2.921875 -57.421875 C 2.921875 -65.472656 4.523438 -71.539062 7.734375 -75.625 C 10.941406 -79.707031 15.96875 -81.75 22.8125 -81.75 C 28.789062 -81.75 33.601562 -80.113281 37.25 -76.84375 C 40.894531 -73.582031 42.71875 -68.867188 42.71875 -62.703125 L 42.71875 -48.75 L 26.59375 -48.75 L 26.59375 -60.734375 C 26.59375 -63.054688 26.304688 -64.65625 25.734375 -65.53125 C 25.171875 -66.414062 24.195312 -66.859375 22.8125 -66.859375 C 21.375 -66.859375 20.382812 -66.351562 19.84375 -65.34375 C 19.3125 -64.34375 19.046875 -62.867188 19.046875 -60.921875 L 19.046875 -20.28125 C 19.046875 -18.132812 19.359375 -16.570312 19.984375 -15.59375 C 20.617188 -14.625 21.5625 -14.140625 22.8125 -14.140625 C 25.332031 -14.140625 26.59375 -16.1875 26.59375 -20.28125 L 26.59375 -34.890625 L 42.90625 -34.890625 L 42.90625 -19.609375 C 42.90625 -6.035156 36.082031 0.75 22.4375 0.75 Z M 22.4375 0.75 "/></g></g></g><g fill="#ffffff" fill-opacity="1"><g transform="translate(661.104074, 337.552549)"><g><path d="M 2.828125 0 L 2.828125 -81 L 18.484375 -81 L 18.484375 0 Z M 2.828125 0 "/></g></g></g><g fill="#ffffff" fill-opacity="1"><g transform="translate(682.508988, 337.552549)"><g><path d="M 22.921875 0.75 C 16.378906 0.75 11.410156 -1.242188 8.015625 -5.234375 C 4.617188 -9.222656 2.921875 -14.832031 2.921875 -22.0625 L 2.921875 -60.640625 C 2.921875 -67.609375 4.617188 -72.867188 8.015625 -76.421875 C 11.410156 -79.972656 16.378906 -81.75 22.921875 -81.75 C 29.453125 -81.75 34.414062 -79.972656 37.8125 -76.421875 C 41.207031 -72.867188 42.90625 -67.609375 42.90625 -60.640625 L 42.90625 -22.0625 C 42.90625 -14.769531 41.207031 -9.144531 37.8125 -5.1875 C 34.414062 -1.226562 29.453125 0.75 22.921875 0.75 Z M 22.921875 -14.140625 C 24.359375 -14.140625 25.328125 -14.769531 25.828125 -16.03125 C 26.335938 -17.289062 26.59375 -19.050781 26.59375 -21.3125 L 26.59375 -60.921875 C 26.59375 -62.679688 26.351562 -64.109375 25.875 -65.203125 C 25.40625 -66.304688 24.453125 -66.859375 23.015625 -66.859375 C 20.304688 -66.859375 18.953125 -64.816406 18.953125 -60.734375 L 18.953125 -21.21875 C 18.953125 -18.894531 19.234375 -17.132812 19.796875 -15.9375 C 20.367188 -14.738281 21.410156 -14.140625 22.921875 -14.140625 Z M 22.921875 -14.140625 "/></g></g></g><g fill="#ffffff" fill-opacity="1"><g transform="translate(728.336241, 337.552549)"><g/></g></g><g fill="#ffffff" fill-opacity="1"><g transform="translate(750.401232, 337.552549)"><g><path d="M 3.578125 0 L 3.578125 -81 L 36.015625 -81 L 36.015625 -65.34375 L 20.078125 -65.34375 L 20.078125 -49.59375 L 35.359375 -49.59375 L 35.359375 -34.328125 L 20.078125 -34.328125 L 20.078125 -15.75 L 37.0625 -15.75 L 37.0625 0 Z M 3.578125 0 "/></g></g></g><g fill="#ffffff" fill-opacity="1"><g transform="translate(789.250675, 337.552549)"><g><path d="M 1.21875 0 L 9.90625 -43 L 3.015625 -81.09375 L 18.859375 -81.09375 L 23.109375 -53.1875 L 26.78125 -81.09375 L 42.71875 -81.09375 L 35.734375 -43 L 44.40625 0 L 28 0 L 22.921875 -31.6875 L 17.734375 0 Z M 1.21875 0 "/></g></g></g><g fill="#ffffff" fill-opacity="1"><g transform="translate(834.889357, 337.552549)"><g><path d="M 10.5625 0 L 10.5625 -65.4375 L 0.9375 -65.4375 L 0.9375 -81 L 36.40625 -81 L 36.40625 -65.4375 L 26.78125 -65.4375 L 26.78125 0 Z M 10.5625 0 "/></g></g></g><g fill="#ffffff" fill-opacity="1"><g transform="translate(872.2301, 337.552549)"><g><path d="M 3.578125 0 L 3.578125 -81 L 36.015625 -81 L 36.015625 -65.34375 L 20.078125 -65.34375 L 20.078125 -49.59375 L 35.359375 -49.59375 L 35.359375 -34.328125 L 20.078125 -34.328125 L 20.078125 -15.75 L 37.0625 -15.75 L 37.0625 0 Z M 3.578125 0 "/></g></g></g><g fill="#ffffff" fill-opacity="1"><g transform="translate(911.079516, 337.552549)"><g><path d="M 3.578125 -81 L 28.484375 -81 C 32.441406 -81 35.503906 -80.101562 37.671875 -78.3125 C 39.835938 -76.519531 41.296875 -74.003906 42.046875 -70.765625 C 42.804688 -67.523438 43.1875 -63.394531 43.1875 -58.375 C 43.1875 -53.78125 42.585938 -50.191406 41.390625 -47.609375 C 40.203125 -45.035156 38.128906 -43.25 35.171875 -42.25 C 37.617188 -41.738281 39.394531 -40.507812 40.5 -38.5625 C 41.601562 -36.613281 42.15625 -33.972656 42.15625 -30.640625 L 41.96875 0 L 26.125 0 L 26.125 -31.6875 C 26.125 -33.945312 25.679688 -35.390625 24.796875 -36.015625 C 23.921875 -36.648438 22.316406 -36.96875 19.984375 -36.96875 L 19.984375 0 L 3.578125 0 Z M 23.953125 -51.015625 C 26.210938 -51.015625 27.34375 -53.46875 27.34375 -58.375 C 27.34375 -60.507812 27.25 -62.109375 27.0625 -63.171875 C 26.875 -64.242188 26.523438 -64.984375 26.015625 -65.390625 C 25.515625 -65.804688 24.796875 -66.015625 23.859375 -66.015625 L 20.078125 -66.015625 L 20.078125 -51.015625 Z M 23.953125 -51.015625 "/></g></g></g><g fill="#ffffff" fill-opacity="1"><g transform="translate(956.058121, 337.552549)"><g><path d="M 2.828125 0 L 2.828125 -81 L 18.484375 -81 L 18.484375 0 Z M 2.828125 0 "/></g></g></g><g fill="#ffffff" fill-opacity="1"><g transform="translate(977.463035, 337.552549)"><g><path d="M 22.921875 0.75 C 16.378906 0.75 11.410156 -1.242188 8.015625 -5.234375 C 4.617188 -9.222656 2.921875 -14.832031 2.921875 -22.0625 L 2.921875 -60.640625 C 2.921875 -67.609375 4.617188 -72.867188 8.015625 -76.421875 C 11.410156 -79.972656 16.378906 -81.75 22.921875 -81.75 C 29.453125 -81.75 34.414062 -79.972656 37.8125 -76.421875 C 41.207031 -72.867188 42.90625 -67.609375 42.90625 -60.640625 L 42.90625 -22.0625 C 42.90625 -14.769531 41.207031 -9.144531 37.8125 -5.1875 C 34.414062 -1.226562 29.453125 0.75 22.921875 0.75 Z M 22.921875 -14.140625 C 24.359375 -14.140625 25.328125 -14.769531 25.828125 -16.03125 C 26.335938 -17.289062 26.59375 -19.050781 26.59375 -21.3125 L 26.59375 -60.921875 C 26.59375 -62.679688 26.351562 -64.109375 25.875 -65.203125 C 25.40625 -66.304688 24.453125 -66.859375 23.015625 -66.859375 C 20.304688 -66.859375 18.953125 -64.816406 18.953125 -60.734375 L 18.953125 -21.21875 C 18.953125 -18.894531 19.234375 -17.132812 19.796875 -15.9375 C 20.367188 -14.738281 21.410156 -14.140625 22.921875 -14.140625 Z M 22.921875 -14.140625 "/></g></g></g><g fill="#ffffff" fill-opacity="1"><g transform="translate(1023.290314, 337.552549)"><g><path d="M 3.578125 -81 L 28.484375 -81 C 32.441406 -81 35.503906 -80.101562 37.671875 -78.3125 C 39.835938 -76.519531 41.296875 -74.003906 42.046875 -70.765625 C 42.804688 -67.523438 43.1875 -63.394531 43.1875 -58.375 C 43.1875 -53.78125 42.585938 -50.191406 41.390625 -47.609375 C 40.203125 -45.035156 38.128906 -43.25 35.171875 -42.25 C 37.617188 -41.738281 39.394531 -40.507812 40.5 -38.5625 C 41.601562 -36.613281 42.15625 -33.972656 42.15625 -30.640625 L 41.96875 0 L 26.125 0 L 26.125 -31.6875 C 26.125 -33.945312 25.679688 -35.390625 24.796875 -36.015625 C 23.921875 -36.648438 22.316406 -36.96875 19.984375 -36.96875 L 19.984375 0 L 3.578125 0 Z M 23.953125 -51.015625 C 26.210938 -51.015625 27.34375 -53.46875 27.34375 -58.375 C 27.34375 -60.507812 27.25 -62.109375 27.0625 -63.171875 C 26.875 -64.242188 26.523438 -64.984375 26.015625 -65.390625 C 25.515625 -65.804688 24.796875 -66.015625 23.859375 -66.015625 L 20.078125 -66.015625 L 20.078125 -51.015625 Z M 23.953125 -51.015625 "/></g></g></g></svg>