<svg xmlns="http://www.w3.org/2000/svg" xmlns:xlink="http://www.w3.org/1999/xlink" width="275" zoomAndPan="magnify" viewBox="0 0 206.25 231" height="308" preserveAspectRatio="xMidYMid meet" version="1.0"><defs><g/><clipPath id="e865d10d76"><path d="M 39 0.941406 L 204.753906 0.941406 L 204.753906 230.355469 L 39 230.355469 Z M 39 0.941406 " clip-rule="nonzero"/></clipPath></defs><path fill="#4d8d80" d="M 48.289062 14.445312 C 48.035156 14.597656 47.796875 14.773438 47.578125 14.972656 C 47.355469 15.167969 47.15625 15.386719 46.976562 15.621094 C 46.796875 15.859375 46.640625 16.109375 46.511719 16.375 C 46.378906 16.640625 46.273438 16.917969 46.195312 17.203125 C 46.117188 17.488281 46.066406 17.78125 46.042969 18.074219 C 46.019531 18.371094 46.023438 18.664062 46.058594 18.960938 C 46.09375 19.253906 46.152344 19.542969 46.242188 19.828125 C 46.332031 20.109375 46.445312 20.382812 46.585938 20.644531 L 59.226562 42.699219 C 59.554688 43.1875 59.957031 43.597656 60.441406 43.929688 C 60.921875 44.261719 61.449219 44.496094 62.019531 44.632812 C 62.589844 44.765625 63.167969 44.789062 63.746094 44.707031 C 64.328125 44.621094 64.871094 44.4375 65.382812 44.144531 C 65.890625 43.855469 66.328125 43.484375 66.699219 43.027344 C 67.066406 42.570312 67.339844 42.0625 67.515625 41.503906 C 67.691406 40.945312 67.757812 40.371094 67.71875 39.785156 C 67.679688 39.203125 67.53125 38.644531 67.28125 38.113281 L 54.640625 16.152344 C 54.488281 15.886719 54.3125 15.640625 54.109375 15.410156 C 53.910156 15.179688 53.6875 14.972656 53.445312 14.785156 C 53.203125 14.601562 52.945312 14.4375 52.671875 14.304688 C 52.398438 14.167969 52.113281 14.0625 51.820312 13.980469 C 51.523438 13.902344 51.222656 13.855469 50.917969 13.832031 C 50.613281 13.8125 50.3125 13.824219 50.007812 13.863281 C 49.707031 13.902344 49.410156 13.972656 49.121094 14.070312 C 48.832031 14.167969 48.554688 14.292969 48.289062 14.445312 Z M 48.289062 14.445312 " fill-opacity="1" fill-rule="nonzero"/><path fill="#4d8d80" d="M 19.449219 48.058594 C 19.183594 47.90625 18.90625 47.78125 18.617188 47.683594 C 18.328125 47.585938 18.035156 47.515625 17.730469 47.476562 C 17.429688 47.4375 17.125 47.425781 16.820312 47.445312 C 16.515625 47.46875 16.214844 47.515625 15.921875 47.597656 C 15.625 47.675781 15.339844 47.78125 15.066406 47.917969 C 14.792969 48.050781 14.535156 48.210938 14.292969 48.398438 C 14.050781 48.585938 13.828125 48.792969 13.628906 49.023438 C 13.425781 49.25 13.25 49.5 13.097656 49.761719 C 12.945312 50.027344 12.820312 50.304688 12.722656 50.59375 C 12.625 50.882812 12.554688 51.179688 12.515625 51.480469 C 12.476562 51.785156 12.464844 52.085938 12.484375 52.390625 C 12.507812 52.695312 12.554688 52.996094 12.632812 53.292969 C 12.714844 53.585938 12.820312 53.871094 12.957031 54.144531 C 13.089844 54.417969 13.25 54.675781 13.4375 54.917969 C 13.625 55.160156 13.832031 55.382812 14.0625 55.582031 C 14.289062 55.785156 14.539062 55.960938 14.800781 56.113281 L 36.703125 68.753906 C 36.96875 68.90625 37.246094 69.03125 37.535156 69.128906 C 37.824219 69.226562 38.121094 69.296875 38.421875 69.335938 C 38.722656 69.375 39.027344 69.382812 39.332031 69.363281 C 39.636719 69.34375 39.9375 69.292969 40.230469 69.214844 C 40.527344 69.136719 40.808594 69.027344 41.082031 68.894531 C 41.355469 68.757812 41.617188 68.597656 41.855469 68.410156 C 42.097656 68.226562 42.320312 68.019531 42.523438 67.789062 C 42.722656 67.558594 42.898438 67.3125 43.050781 67.046875 C 43.203125 66.785156 43.332031 66.507812 43.429688 66.21875 C 43.527344 65.929688 43.59375 65.632812 43.636719 65.332031 C 43.675781 65.027344 43.683594 64.726562 43.664062 64.421875 C 43.644531 64.117188 43.59375 63.816406 43.515625 63.519531 C 43.4375 63.226562 43.332031 62.941406 43.195312 62.667969 C 43.058594 62.394531 42.898438 62.136719 42.714844 61.894531 C 42.527344 61.652344 42.320312 61.429688 42.089844 61.230469 C 41.863281 61.027344 41.613281 60.851562 41.351562 60.699219 Z M 19.449219 48.058594 " fill-opacity="1" fill-rule="nonzero"/><path fill="#4d8d80" d="M 34.90625 97.9375 C 34.90625 97.628906 34.878906 97.328125 34.816406 97.027344 C 34.757812 96.730469 34.671875 96.4375 34.554688 96.15625 C 34.4375 95.875 34.292969 95.609375 34.125 95.355469 C 33.953125 95.101562 33.761719 94.867188 33.546875 94.648438 C 33.332031 94.433594 33.097656 94.242188 32.84375 94.070312 C 32.589844 93.902344 32.320312 93.757812 32.039062 93.640625 C 31.757812 93.527344 31.464844 93.4375 31.167969 93.378906 C 30.867188 93.320312 30.566406 93.289062 30.261719 93.289062 L 4.949219 93.289062 C 4.644531 93.289062 4.34375 93.320312 4.042969 93.378906 C 3.746094 93.4375 3.453125 93.527344 3.171875 93.640625 C 2.890625 93.757812 2.621094 93.902344 2.367188 94.070312 C 2.113281 94.242188 1.878906 94.433594 1.664062 94.648438 C 1.449219 94.867188 1.257812 95.101562 1.085938 95.355469 C 0.917969 95.609375 0.773438 95.875 0.65625 96.15625 C 0.539062 96.4375 0.453125 96.730469 0.394531 97.027344 C 0.332031 97.328125 0.304688 97.628906 0.304688 97.9375 C 0.304688 98.242188 0.332031 98.542969 0.394531 98.84375 C 0.453125 99.140625 0.539062 99.433594 0.65625 99.714844 C 0.773438 99.996094 0.917969 100.265625 1.085938 100.515625 C 1.257812 100.769531 1.449219 101.003906 1.664062 101.222656 C 1.878906 101.4375 2.113281 101.628906 2.367188 101.800781 C 2.621094 101.96875 2.890625 102.113281 3.171875 102.230469 C 3.453125 102.34375 3.746094 102.433594 4.042969 102.492188 C 4.34375 102.554688 4.644531 102.582031 4.949219 102.582031 L 30.261719 102.582031 C 30.566406 102.582031 30.867188 102.554688 31.167969 102.492188 C 31.464844 102.433594 31.757812 102.34375 32.039062 102.230469 C 32.320312 102.113281 32.589844 101.96875 32.84375 101.800781 C 33.097656 101.628906 33.332031 101.4375 33.546875 101.222656 C 33.761719 101.003906 33.953125 100.769531 34.125 100.515625 C 34.292969 100.265625 34.4375 99.996094 34.554688 99.714844 C 34.671875 99.433594 34.757812 99.140625 34.816406 98.84375 C 34.878906 98.542969 34.90625 98.242188 34.90625 97.9375 Z M 34.90625 97.9375 " fill-opacity="1" fill-rule="nonzero"/><path fill="#4d8d80" d="M 36.921875 127.054688 L 14.988281 139.726562 C 14.722656 139.878906 14.476562 140.054688 14.246094 140.257812 C 14.015625 140.457031 13.808594 140.679688 13.621094 140.921875 C 13.4375 141.164062 13.273438 141.421875 13.140625 141.695312 C 13.003906 141.96875 12.898438 142.253906 12.816406 142.550781 C 12.738281 142.84375 12.6875 143.144531 12.667969 143.449219 C 12.648438 143.753906 12.65625 144.058594 12.699219 144.359375 C 12.738281 144.664062 12.804688 144.960938 12.90625 145.25 C 13.003906 145.539062 13.128906 145.816406 13.28125 146.078125 C 13.433594 146.34375 13.609375 146.589844 13.8125 146.820312 C 14.011719 147.050781 14.234375 147.257812 14.476562 147.445312 C 14.71875 147.628906 14.976562 147.789062 15.25 147.925781 C 15.523438 148.0625 15.808594 148.167969 16.105469 148.246094 C 16.398438 148.324219 16.699219 148.375 17.003906 148.394531 C 17.308594 148.414062 17.613281 148.40625 17.917969 148.367188 C 18.21875 148.324219 18.515625 148.257812 18.804688 148.15625 C 19.09375 148.058594 19.371094 147.933594 19.632812 147.78125 L 41.535156 135.140625 C 41.800781 134.988281 42.046875 134.8125 42.277344 134.609375 C 42.507812 134.410156 42.714844 134.1875 42.902344 133.945312 C 43.085938 133.703125 43.246094 133.445312 43.382812 133.171875 C 43.519531 132.898438 43.625 132.613281 43.703125 132.320312 C 43.78125 132.023438 43.832031 131.726562 43.851562 131.421875 C 43.871094 131.117188 43.863281 130.8125 43.824219 130.507812 C 43.785156 130.207031 43.714844 129.910156 43.617188 129.621094 C 43.519531 129.332031 43.394531 129.054688 43.242188 128.792969 C 43.089844 128.527344 42.910156 128.28125 42.710938 128.050781 C 42.507812 127.820312 42.289062 127.613281 42.046875 127.425781 C 41.804688 127.242188 41.542969 127.082031 41.269531 126.945312 C 40.996094 126.808594 40.714844 126.703125 40.417969 126.625 C 40.125 126.542969 39.824219 126.496094 39.519531 126.476562 C 39.214844 126.453125 38.910156 126.464844 38.609375 126.503906 C 38.304688 126.542969 38.007812 126.613281 37.71875 126.710938 C 37.429688 126.808594 37.15625 126.933594 36.890625 127.085938 Z M 36.921875 127.054688 " fill-opacity="1" fill-rule="nonzero"/><g clip-path="url(#e865d10d76)"><path fill="#4d8d80" d="M 201.730469 62.898438 L 189.339844 62.898438 C 188.929688 62.898438 188.53125 62.976562 188.152344 63.132812 C 187.773438 63.292969 187.4375 63.515625 187.148438 63.804688 C 186.859375 64.097656 186.632812 64.429688 186.476562 64.8125 C 186.320312 65.191406 186.242188 65.585938 186.242188 65.996094 L 186.242188 69.09375 L 176.945312 69.09375 C 176.535156 69.09375 176.140625 69.171875 175.761719 69.328125 C 175.382812 69.488281 175.046875 69.710938 174.757812 70 C 174.464844 70.292969 174.242188 70.628906 174.085938 71.007812 C 173.925781 71.386719 173.847656 71.78125 173.847656 72.191406 L 173.847656 90.78125 L 164.554688 90.78125 C 164.144531 90.78125 163.75 90.859375 163.371094 91.015625 C 162.988281 91.171875 162.65625 91.394531 162.363281 91.6875 C 162.074219 91.976562 161.851562 92.3125 161.691406 92.691406 C 161.535156 93.070312 161.457031 93.464844 161.457031 93.878906 L 161.457031 112.464844 L 105.695312 112.464844 C 105.429688 112.484375 105.171875 112.535156 104.921875 112.621094 C 104.65625 112.128906 104.332031 111.683594 103.949219 111.28125 C 103.5625 110.878906 103.132812 110.535156 102.65625 110.25 C 102.179688 109.964844 101.671875 109.746094 101.136719 109.597656 C 100.601562 109.445312 100.054688 109.371094 99.5 109.367188 L 99.5 106.269531 C 100.039062 106.265625 100.570312 106.191406 101.09375 106.050781 C 101.613281 105.910156 102.109375 105.703125 102.574219 105.429688 C 103.042969 105.15625 103.46875 104.832031 103.847656 104.449219 C 104.230469 104.066406 104.558594 103.640625 104.828125 103.171875 L 139.773438 103.171875 C 140.183594 103.171875 140.578125 103.09375 140.957031 102.933594 C 141.335938 102.777344 141.671875 102.554688 141.960938 102.265625 C 142.253906 101.972656 142.476562 101.636719 142.632812 101.257812 C 142.792969 100.878906 142.871094 100.484375 142.871094 100.074219 L 142.871094 53.605469 L 158.359375 53.605469 C 158.769531 53.605469 159.164062 53.527344 159.542969 53.367188 C 159.925781 53.210938 160.257812 52.988281 160.550781 52.695312 C 160.839844 52.40625 161.0625 52.070312 161.222656 51.691406 C 161.378906 51.3125 161.457031 50.917969 161.457031 50.507812 L 161.457031 34.460938 C 161.796875 34.339844 162.132812 34.199219 162.457031 34.039062 C 162.78125 33.878906 163.097656 33.703125 163.402344 33.503906 C 163.703125 33.308594 163.996094 33.09375 164.277344 32.863281 C 164.554688 32.632812 164.820312 32.386719 165.070312 32.125 C 165.320312 31.867188 165.554688 31.589844 165.773438 31.300781 C 165.992188 31.011719 166.191406 30.710938 166.375 30.398438 C 166.558594 30.085938 166.722656 29.765625 166.867188 29.433594 C 167.015625 29.101562 167.140625 28.761719 167.246094 28.417969 C 167.351562 28.070312 167.4375 27.71875 167.503906 27.363281 C 167.566406 27.007812 167.613281 26.648438 167.632812 26.289062 C 167.65625 25.925781 167.660156 25.566406 167.640625 25.203125 C 167.621094 24.839844 167.582031 24.480469 167.519531 24.125 C 167.457031 23.769531 167.375 23.417969 167.273438 23.070312 C 167.171875 22.722656 167.050781 22.382812 166.90625 22.050781 C 166.765625 21.714844 166.605469 21.390625 166.425781 21.078125 C 166.242188 20.765625 166.046875 20.460938 165.832031 20.171875 C 165.617188 19.878906 165.382812 19.601562 165.136719 19.335938 C 164.890625 19.074219 164.625 18.824219 164.351562 18.589844 C 164.074219 18.359375 163.785156 18.140625 163.480469 17.941406 C 163.179688 17.742188 162.867188 17.5625 162.542969 17.398438 C 162.21875 17.234375 161.886719 17.089844 161.546875 16.96875 C 161.207031 16.84375 160.863281 16.738281 160.507812 16.65625 C 160.15625 16.570312 159.800781 16.507812 159.441406 16.464844 C 159.082031 16.425781 158.722656 16.402344 158.359375 16.402344 C 157.996094 16.402344 157.636719 16.425781 157.277344 16.464844 C 156.917969 16.507812 156.5625 16.570312 156.210938 16.65625 C 155.855469 16.738281 155.511719 16.84375 155.171875 16.96875 C 154.832031 17.089844 154.5 17.234375 154.175781 17.398438 C 153.851562 17.5625 153.539062 17.742188 153.238281 17.941406 C 152.933594 18.140625 152.644531 18.359375 152.367188 18.589844 C 152.09375 18.824219 151.828125 19.074219 151.582031 19.335938 C 151.335938 19.601562 151.101562 19.878906 150.886719 20.171875 C 150.671875 20.460938 150.476562 20.765625 150.292969 21.078125 C 150.113281 21.390625 149.953125 21.714844 149.8125 22.050781 C 149.667969 22.382812 149.546875 22.722656 149.445312 23.070312 C 149.34375 23.417969 149.261719 23.769531 149.199219 24.125 C 149.136719 24.480469 149.097656 24.839844 149.078125 25.203125 C 149.058594 25.566406 149.0625 25.925781 149.085938 26.289062 C 149.105469 26.648438 149.152344 27.007812 149.214844 27.363281 C 149.28125 27.71875 149.367188 28.070312 149.472656 28.417969 C 149.578125 28.761719 149.703125 29.101562 149.851562 29.433594 C 149.996094 29.765625 150.160156 30.085938 150.34375 30.398438 C 150.527344 30.710938 150.726562 31.011719 150.945312 31.300781 C 151.164062 31.589844 151.398438 31.867188 151.648438 32.125 C 151.898438 32.386719 152.164062 32.632812 152.441406 32.863281 C 152.722656 33.09375 153.015625 33.308594 153.316406 33.503906 C 153.621094 33.703125 153.9375 33.878906 154.261719 34.039062 C 154.585938 34.199219 154.921875 34.339844 155.261719 34.460938 L 155.261719 47.410156 L 139.773438 47.410156 C 139.359375 47.410156 138.964844 47.488281 138.585938 47.644531 C 138.207031 47.800781 137.871094 48.027344 137.582031 48.316406 C 137.289062 48.605469 137.066406 48.941406 136.910156 49.320312 C 136.753906 49.699219 136.675781 50.097656 136.675781 50.507812 L 136.675781 96.976562 L 104.828125 96.976562 C 104.558594 96.507812 104.230469 96.082031 103.847656 95.699219 C 103.46875 95.316406 103.042969 94.988281 102.574219 94.71875 C 102.109375 94.445312 101.613281 94.238281 101.09375 94.097656 C 100.570312 93.953125 100.039062 93.878906 99.5 93.878906 L 99.5 90.78125 C 100.039062 90.777344 100.570312 90.703125 101.09375 90.5625 C 101.613281 90.417969 102.109375 90.210938 102.574219 89.941406 C 103.042969 89.667969 103.46875 89.339844 103.847656 88.957031 C 104.230469 88.574219 104.558594 88.148438 104.828125 87.679688 L 124.28125 87.679688 C 124.691406 87.679688 125.089844 87.601562 125.46875 87.445312 C 125.847656 87.289062 126.183594 87.066406 126.472656 86.773438 C 126.761719 86.484375 126.988281 86.148438 127.144531 85.769531 C 127.300781 85.390625 127.378906 84.996094 127.378906 84.582031 L 127.378906 59.800781 C 127.378906 59.390625 127.300781 58.996094 127.144531 58.613281 C 126.988281 58.234375 126.761719 57.898438 126.472656 57.609375 C 126.183594 57.320312 125.847656 57.09375 125.46875 56.9375 C 125.089844 56.78125 124.691406 56.703125 124.28125 56.703125 L 111.890625 56.703125 L 111.890625 19.527344 L 114.988281 19.527344 C 115.398438 19.527344 115.792969 19.449219 116.175781 19.292969 C 116.554688 19.132812 116.886719 18.910156 117.179688 18.621094 C 117.46875 18.328125 117.695312 17.996094 117.851562 17.613281 C 118.007812 17.234375 118.085938 16.839844 118.085938 16.429688 L 118.085938 4.039062 C 118.085938 3.628906 118.007812 3.230469 117.851562 2.851562 C 117.695312 2.472656 117.46875 2.136719 117.179688 1.847656 C 116.886719 1.558594 116.554688 1.332031 116.175781 1.175781 C 115.792969 1.019531 115.398438 0.941406 114.988281 0.941406 L 102.597656 0.941406 C 102.1875 0.941406 101.789062 1.019531 101.410156 1.175781 C 101.03125 1.332031 100.695312 1.558594 100.40625 1.847656 C 100.117188 2.136719 99.890625 2.472656 99.734375 2.851562 C 99.578125 3.230469 99.5 3.628906 99.5 4.039062 L 99.5 16.429688 C 99.5 16.839844 99.578125 17.234375 99.734375 17.613281 C 99.890625 17.996094 100.117188 18.328125 100.40625 18.621094 C 100.695312 18.910156 101.03125 19.132812 101.410156 19.292969 C 101.789062 19.449219 102.1875 19.527344 102.597656 19.527344 L 105.695312 19.527344 L 105.695312 59.800781 C 105.695312 60.210938 105.773438 60.605469 105.929688 60.984375 C 106.085938 61.367188 106.3125 61.699219 106.601562 61.992188 C 106.894531 62.28125 107.226562 62.503906 107.605469 62.664062 C 107.988281 62.820312 108.382812 62.898438 108.792969 62.898438 L 121.183594 62.898438 L 121.183594 81.484375 L 104.828125 81.484375 C 104.558594 81.015625 104.230469 80.59375 103.847656 80.210938 C 103.46875 79.828125 103.042969 79.5 102.574219 79.226562 C 102.109375 78.957031 101.613281 78.75 101.09375 78.605469 C 100.570312 78.464844 100.039062 78.390625 99.5 78.386719 L 99.5 42.699219 C 99.5 42.289062 99.421875 41.894531 99.261719 41.515625 C 99.105469 41.132812 98.882812 40.800781 98.589844 40.507812 C 98.300781 40.21875 97.964844 39.996094 97.585938 39.835938 C 97.207031 39.679688 96.8125 39.601562 96.402344 39.601562 L 96.027344 39.601562 C 94.160156 39.617188 92.292969 39.722656 90.433594 39.917969 C 88.574219 40.113281 86.730469 40.402344 84.898438 40.777344 C 83.066406 41.15625 81.257812 41.621094 79.472656 42.175781 C 77.683594 42.726562 75.929688 43.367188 74.207031 44.09375 C 72.484375 44.820312 70.800781 45.625 69.152344 46.515625 C 67.507812 47.40625 65.914062 48.375 64.363281 49.421875 C 62.8125 50.46875 61.316406 51.585938 59.875 52.777344 C 58.4375 53.972656 57.058594 55.230469 55.738281 56.558594 C 54.421875 57.886719 53.171875 59.273438 51.992188 60.722656 C 50.808594 62.171875 49.703125 63.675781 48.667969 65.234375 C 47.632812 66.792969 46.675781 68.398438 45.800781 70.046875 C 44.921875 71.699219 44.128906 73.390625 43.414062 75.121094 C 42.703125 76.847656 42.078125 78.609375 41.535156 80.398438 C 40.996094 82.1875 40.542969 84 40.179688 85.835938 C 39.816406 87.667969 39.546875 89.515625 39.363281 91.378906 C 39.179688 93.238281 39.089844 95.105469 39.089844 96.976562 C 39.089844 113.796875 48.539062 130.558594 56.871094 145.332031 C 61.742188 153.171875 65.738281 161.433594 68.859375 170.117188 L 67 170.117188 C 66.589844 170.132812 66.199219 170.222656 65.824219 170.394531 C 65.449219 170.566406 65.125 170.800781 64.84375 171.101562 C 64.5625 171.402344 64.351562 171.746094 64.207031 172.128906 C 64.0625 172.515625 63.996094 172.914062 64.011719 173.324219 C 64.027344 173.734375 64.117188 174.125 64.289062 174.5 C 64.460938 174.875 64.695312 175.203125 64.996094 175.484375 C 65.296875 175.761719 65.640625 175.976562 66.023438 176.117188 C 66.410156 176.261719 66.808594 176.328125 67.21875 176.3125 L 67.433594 176.3125 L 69.945312 176.128906 C 69.945312 176.53125 69.945312 176.964844 69.945312 177.367188 L 69.945312 179.226562 L 67.558594 179.410156 C 67.148438 179.425781 66.757812 179.519531 66.382812 179.6875 C 66.007812 179.859375 65.683594 180.09375 65.402344 180.394531 C 65.121094 180.695312 64.910156 181.039062 64.765625 181.425781 C 64.621094 181.808594 64.558594 182.207031 64.574219 182.617188 C 64.585938 183.027344 64.679688 183.421875 64.847656 183.792969 C 65.019531 184.167969 65.253906 184.496094 65.554688 184.773438 C 65.855469 185.054688 66.199219 185.269531 66.582031 185.410156 C 66.96875 185.554688 67.367188 185.621094 67.777344 185.605469 L 69.945312 185.605469 L 69.945312 188.703125 L 68.242188 188.703125 C 67.832031 188.71875 67.4375 188.8125 67.066406 188.984375 C 66.691406 189.152344 66.363281 189.390625 66.082031 189.691406 C 65.804688 189.992188 65.59375 190.332031 65.449219 190.71875 C 65.304688 191.101562 65.238281 191.5 65.253906 191.910156 C 65.269531 192.320312 65.359375 192.714844 65.53125 193.085938 C 65.703125 193.460938 65.9375 193.789062 66.238281 194.070312 C 66.539062 194.347656 66.878906 194.5625 67.265625 194.707031 C 67.648438 194.851562 68.046875 194.914062 68.457031 194.902344 L 69.945312 194.902344 L 69.945312 198 L 68.890625 198 C 68.480469 198.015625 68.089844 198.105469 67.714844 198.277344 C 67.34375 198.449219 67.015625 198.683594 66.738281 198.984375 C 66.457031 199.285156 66.246094 199.628906 66.101562 200.011719 C 65.957031 200.398438 65.894531 200.792969 65.910156 201.203125 C 65.921875 201.613281 66.015625 202.007812 66.183594 202.378906 C 66.355469 202.753906 66.589844 203.082031 66.890625 203.359375 C 67.191406 203.640625 67.53125 203.855469 67.917969 204 C 68.300781 204.140625 68.699219 204.207031 69.109375 204.195312 L 69.914062 204.195312 L 69.914062 206.113281 C 71.152344 213.953125 77.285156 218.878906 84.722656 221.265625 C 85.074219 222.378906 85.570312 223.429688 86.207031 224.410156 C 86.847656 225.390625 87.605469 226.265625 88.488281 227.039062 C 89.367188 227.8125 90.332031 228.453125 91.386719 228.960938 C 92.441406 229.46875 93.542969 229.824219 94.695312 230.03125 C 95.144531 230.296875 95.632812 230.441406 96.152344 230.464844 C 96.5625 230.464844 96.960938 230.386719 97.339844 230.230469 C 97.71875 230.070312 98.054688 229.847656 98.34375 229.558594 C 98.632812 229.265625 98.859375 228.933594 99.015625 228.550781 C 99.171875 228.171875 99.25 227.777344 99.25 227.367188 L 99.25 152.738281 C 99.792969 152.734375 100.324219 152.660156 100.84375 152.519531 C 101.367188 152.378906 101.859375 152.171875 102.328125 151.898438 C 102.796875 151.625 103.21875 151.300781 103.601562 150.917969 C 103.984375 150.535156 104.308594 150.109375 104.578125 149.640625 L 136.675781 149.640625 L 136.675781 162.03125 L 133.574219 162.03125 C 133.164062 162.03125 132.769531 162.109375 132.390625 162.265625 C 132.011719 162.425781 131.675781 162.648438 131.386719 162.9375 C 131.09375 163.230469 130.871094 163.566406 130.714844 163.945312 C 130.558594 164.324219 130.476562 164.71875 130.476562 165.128906 L 130.476562 193.011719 L 126.824219 193.011719 C 126.703125 192.667969 126.5625 192.335938 126.402344 192.011719 C 126.242188 191.6875 126.066406 191.371094 125.867188 191.066406 C 125.671875 190.761719 125.457031 190.472656 125.226562 190.191406 C 124.996094 189.914062 124.75 189.648438 124.488281 189.398438 C 124.226562 189.148438 123.953125 188.914062 123.664062 188.695312 C 123.375 188.476562 123.074219 188.277344 122.761719 188.09375 C 122.449219 187.910156 122.128906 187.746094 121.796875 187.597656 C 121.464844 187.453125 121.125 187.328125 120.78125 187.222656 C 120.433594 187.117188 120.082031 187.03125 119.726562 186.964844 C 119.371094 186.902344 119.011719 186.855469 118.652344 186.832031 C 118.289062 186.8125 117.929688 186.808594 117.566406 186.828125 C 117.203125 186.847656 116.84375 186.886719 116.488281 186.949219 C 116.132812 187.011719 115.78125 187.09375 115.433594 187.195312 C 115.085938 187.296875 114.746094 187.417969 114.410156 187.5625 C 114.078125 187.703125 113.753906 187.863281 113.441406 188.042969 C 113.128906 188.222656 112.824219 188.421875 112.535156 188.636719 C 112.242188 188.851562 111.964844 189.082031 111.699219 189.332031 C 111.4375 189.578125 111.1875 189.839844 110.953125 190.117188 C 110.722656 190.394531 110.503906 190.683594 110.304688 190.988281 C 110.105469 191.289062 109.925781 191.601562 109.761719 191.925781 C 109.597656 192.25 109.453125 192.578125 109.332031 192.921875 C 109.207031 193.261719 109.101562 193.605469 109.019531 193.957031 C 108.933594 194.3125 108.871094 194.667969 108.828125 195.027344 C 108.789062 195.386719 108.765625 195.746094 108.765625 196.109375 C 108.765625 196.472656 108.789062 196.832031 108.828125 197.191406 C 108.871094 197.550781 108.933594 197.90625 109.019531 198.257812 C 109.101562 198.609375 109.207031 198.957031 109.332031 199.296875 C 109.453125 199.636719 109.597656 199.96875 109.761719 200.292969 C 109.925781 200.617188 110.105469 200.929688 110.304688 201.230469 C 110.503906 201.53125 110.722656 201.824219 110.953125 202.097656 C 111.1875 202.375 111.4375 202.636719 111.699219 202.886719 C 111.964844 203.132812 112.242188 203.367188 112.535156 203.582031 C 112.824219 203.796875 113.128906 203.992188 113.441406 204.171875 C 113.753906 204.351562 114.078125 204.515625 114.410156 204.65625 C 114.746094 204.796875 115.085938 204.921875 115.433594 205.023438 C 115.78125 205.125 116.132812 205.207031 116.488281 205.269531 C 116.84375 205.328125 117.203125 205.371094 117.566406 205.390625 C 117.929688 205.410156 118.289062 205.40625 118.652344 205.382812 C 119.011719 205.359375 119.371094 205.316406 119.726562 205.25 C 120.082031 205.1875 120.433594 205.101562 120.78125 204.996094 C 121.125 204.890625 121.464844 204.765625 121.796875 204.617188 C 122.128906 204.472656 122.449219 204.308594 122.761719 204.125 C 123.074219 203.941406 123.375 203.742188 123.664062 203.523438 C 123.953125 203.304688 124.226562 203.070312 124.488281 202.820312 C 124.75 202.570312 124.996094 202.304688 125.226562 202.023438 C 125.457031 201.746094 125.671875 201.453125 125.867188 201.148438 C 126.066406 200.847656 126.242188 200.53125 126.402344 200.207031 C 126.5625 199.882812 126.703125 199.546875 126.824219 199.207031 L 133.574219 199.207031 C 133.988281 199.207031 134.382812 199.128906 134.761719 198.972656 C 135.140625 198.8125 135.476562 198.589844 135.765625 198.300781 C 136.058594 198.007812 136.28125 197.675781 136.4375 197.292969 C 136.59375 196.914062 136.675781 196.519531 136.675781 196.109375 L 136.675781 168.226562 L 139.773438 168.226562 C 140.183594 168.226562 140.578125 168.148438 140.957031 167.992188 C 141.335938 167.835938 141.671875 167.609375 141.960938 167.320312 C 142.253906 167.03125 142.476562 166.695312 142.632812 166.316406 C 142.792969 165.9375 142.871094 165.539062 142.871094 165.128906 L 142.871094 146.542969 C 142.871094 146.132812 142.792969 145.734375 142.632812 145.355469 C 142.476562 144.976562 142.253906 144.640625 141.960938 144.351562 C 141.671875 144.0625 141.335938 143.835938 140.957031 143.679688 C 140.578125 143.523438 140.183594 143.445312 139.773438 143.445312 L 104.828125 143.445312 C 104.558594 142.976562 104.230469 142.550781 103.847656 142.167969 C 103.46875 141.785156 103.042969 141.457031 102.574219 141.1875 C 102.109375 140.914062 101.613281 140.707031 101.09375 140.566406 C 100.570312 140.421875 100.039062 140.347656 99.5 140.347656 L 99.5 137.25 C 100.039062 137.246094 100.570312 137.171875 101.09375 137.03125 C 101.613281 136.886719 102.109375 136.679688 102.574219 136.410156 C 103.042969 136.136719 103.46875 135.808594 103.847656 135.425781 C 104.230469 135.042969 104.558594 134.617188 104.828125 134.152344 L 149.066406 134.152344 L 149.066406 146.542969 C 149.066406 146.953125 149.144531 147.347656 149.300781 147.726562 C 149.457031 148.105469 149.683594 148.441406 149.972656 148.734375 C 150.261719 149.023438 150.597656 149.246094 150.976562 149.402344 C 151.359375 149.5625 151.753906 149.640625 152.164062 149.640625 L 158.359375 149.640625 L 158.359375 174.421875 C 158.359375 174.835938 158.4375 175.230469 158.59375 175.609375 C 158.753906 175.988281 158.976562 176.324219 159.265625 176.613281 C 159.558594 176.90625 159.890625 177.128906 160.273438 177.285156 C 160.652344 177.441406 161.046875 177.519531 161.457031 177.519531 L 178.773438 177.519531 L 177.503906 178.824219 C 177.214844 179.113281 176.992188 179.449219 176.835938 179.832031 C 176.679688 180.210938 176.601562 180.605469 176.605469 181.015625 C 176.605469 181.429688 176.6875 181.824219 176.84375 182.203125 C 177.003906 182.582031 177.226562 182.917969 177.519531 183.207031 C 177.8125 183.496094 178.148438 183.71875 178.527344 183.875 C 178.910156 184.03125 179.304688 184.109375 179.714844 184.105469 C 180.125 184.105469 180.519531 184.023438 180.898438 183.867188 C 181.28125 183.707031 181.613281 183.480469 181.902344 183.191406 L 186.242188 178.792969 L 190.640625 183.191406 C 190.929688 183.480469 191.265625 183.703125 191.648438 183.859375 C 192.027344 184.015625 192.421875 184.09375 192.835938 184.089844 C 193.246094 184.089844 193.640625 184.007812 194.019531 183.851562 C 194.398438 183.691406 194.734375 183.464844 195.023438 183.175781 C 195.3125 182.882812 195.535156 182.546875 195.691406 182.167969 C 195.847656 181.785156 195.925781 181.390625 195.921875 180.980469 C 195.921875 180.570312 195.84375 180.175781 195.683594 179.792969 C 195.523438 179.414062 195.300781 179.082031 195.007812 178.792969 L 190.609375 174.421875 L 194.976562 170.054688 C 195.265625 169.765625 195.492188 169.429688 195.648438 169.046875 C 195.804688 168.667969 195.878906 168.269531 195.878906 167.859375 C 195.878906 167.449219 195.796875 167.050781 195.640625 166.671875 C 195.480469 166.292969 195.257812 165.957031 194.964844 165.667969 C 194.671875 165.378906 194.335938 165.15625 193.957031 165 C 193.574219 164.84375 193.179688 164.765625 192.765625 164.769531 C 192.355469 164.769531 191.960938 164.851562 191.582031 165.011719 C 191.203125 165.167969 190.867188 165.394531 190.578125 165.6875 L 186.242188 170.023438 L 181.871094 165.65625 C 181.582031 165.367188 181.246094 165.144531 180.863281 164.988281 C 180.484375 164.832031 180.089844 164.753906 179.675781 164.757812 C 179.265625 164.757812 178.871094 164.835938 178.492188 164.996094 C 178.113281 165.15625 177.777344 165.378906 177.488281 165.671875 C 177.199219 165.964844 176.976562 166.300781 176.820312 166.679688 C 176.664062 167.058594 176.585938 167.457031 176.589844 167.867188 C 176.589844 168.277344 176.671875 168.671875 176.828125 169.050781 C 176.988281 169.429688 177.210938 169.765625 177.503906 170.054688 L 178.773438 171.324219 L 164.554688 171.324219 L 164.554688 146.542969 C 164.554688 146.132812 164.476562 145.734375 164.320312 145.355469 C 164.164062 144.976562 163.9375 144.640625 163.648438 144.351562 C 163.355469 144.0625 163.023438 143.835938 162.644531 143.679688 C 162.261719 143.523438 161.867188 143.445312 161.457031 143.445312 L 155.261719 143.445312 L 155.261719 131.050781 C 155.261719 130.640625 155.183594 130.246094 155.027344 129.867188 C 154.867188 129.488281 154.644531 129.152344 154.355469 128.863281 C 154.0625 128.570312 153.730469 128.347656 153.347656 128.191406 C 152.96875 128.03125 152.574219 127.953125 152.164062 127.953125 L 104.828125 127.953125 C 104.558594 127.488281 104.230469 127.0625 103.847656 126.679688 C 103.46875 126.296875 103.042969 125.96875 102.574219 125.695312 C 102.109375 125.425781 101.613281 125.21875 101.09375 125.074219 C 100.570312 124.933594 100.039062 124.859375 99.5 124.855469 L 99.5 121.757812 C 100.054688 121.757812 100.601562 121.679688 101.136719 121.53125 C 101.671875 121.378906 102.179688 121.160156 102.65625 120.875 C 103.132812 120.589844 103.5625 120.246094 103.949219 119.84375 C 104.332031 119.441406 104.65625 118.996094 104.921875 118.507812 C 105.171875 118.589844 105.429688 118.640625 105.695312 118.660156 L 164.554688 118.660156 C 164.964844 118.660156 165.359375 118.582031 165.742188 118.425781 C 166.121094 118.269531 166.457031 118.042969 166.746094 117.753906 C 167.035156 117.464844 167.261719 117.128906 167.417969 116.75 C 167.574219 116.367188 167.652344 115.972656 167.652344 115.5625 L 167.652344 96.976562 L 176.945312 96.976562 C 177.359375 96.976562 177.753906 96.898438 178.132812 96.738281 C 178.511719 96.582031 178.847656 96.359375 179.136719 96.066406 C 179.429688 95.777344 179.652344 95.441406 179.808594 95.0625 C 179.964844 94.683594 180.042969 94.289062 180.042969 93.878906 L 180.042969 75.289062 L 186.242188 75.289062 L 186.242188 78.386719 C 186.242188 78.796875 186.320312 79.195312 186.476562 79.574219 C 186.632812 79.953125 186.859375 80.289062 187.148438 80.578125 C 187.4375 80.867188 187.773438 81.09375 188.152344 81.25 C 188.53125 81.40625 188.929688 81.484375 189.339844 81.484375 L 201.730469 81.484375 C 202.140625 81.484375 202.535156 81.40625 202.914062 81.25 C 203.296875 81.09375 203.628906 80.867188 203.921875 80.578125 C 204.210938 80.289062 204.433594 79.953125 204.59375 79.574219 C 204.75 79.195312 204.828125 78.796875 204.828125 78.386719 L 204.828125 65.996094 C 204.828125 65.585938 204.75 65.191406 204.59375 64.8125 C 204.433594 64.429688 204.210938 64.097656 203.921875 63.804688 C 203.628906 63.515625 203.296875 63.292969 202.914062 63.132812 C 202.535156 62.976562 202.140625 62.898438 201.730469 62.898438 Z M 158.359375 22.625 C 158.769531 22.625 159.164062 22.703125 159.542969 22.859375 C 159.925781 23.019531 160.257812 23.242188 160.550781 23.53125 C 160.839844 23.824219 161.0625 24.15625 161.222656 24.539062 C 161.378906 24.917969 161.457031 25.3125 161.457031 25.722656 C 161.457031 26.132812 161.378906 26.527344 161.222656 26.910156 C 161.0625 27.289062 160.839844 27.625 160.550781 27.914062 C 160.257812 28.203125 159.925781 28.429688 159.542969 28.585938 C 159.164062 28.742188 158.769531 28.820312 158.359375 28.820312 C 157.949219 28.820312 157.554688 28.742188 157.175781 28.585938 C 156.792969 28.429688 156.460938 28.203125 156.167969 27.914062 C 155.878906 27.625 155.65625 27.289062 155.496094 26.910156 C 155.339844 26.527344 155.261719 26.132812 155.261719 25.722656 C 155.261719 25.3125 155.339844 24.917969 155.496094 24.539062 C 155.65625 24.15625 155.878906 23.824219 156.167969 23.53125 C 156.460938 23.242188 156.792969 23.019531 157.175781 22.859375 C 157.554688 22.703125 157.949219 22.625 158.359375 22.625 Z M 105.695312 7.136719 L 111.890625 7.136719 L 111.890625 13.332031 L 105.695312 13.332031 Z M 118.085938 199.207031 C 117.675781 199.207031 117.28125 199.128906 116.902344 198.972656 C 116.519531 198.8125 116.1875 198.589844 115.894531 198.300781 C 115.605469 198.007812 115.382812 197.675781 115.222656 197.292969 C 115.066406 196.914062 114.988281 196.519531 114.988281 196.109375 C 114.988281 195.699219 115.066406 195.304688 115.222656 194.921875 C 115.382812 194.542969 115.605469 194.207031 115.894531 193.917969 C 116.1875 193.628906 116.519531 193.402344 116.902344 193.246094 C 117.28125 193.089844 117.675781 193.011719 118.085938 193.011719 C 118.496094 193.011719 118.890625 193.089844 119.273438 193.246094 C 119.652344 193.402344 119.988281 193.628906 120.277344 193.917969 C 120.566406 194.207031 120.792969 194.542969 120.949219 194.921875 C 121.105469 195.304688 121.183594 195.699219 121.183594 196.109375 C 121.183594 196.519531 121.105469 196.914062 120.949219 197.292969 C 120.792969 197.675781 120.566406 198.007812 120.277344 198.300781 C 119.988281 198.589844 119.652344 198.8125 119.273438 198.972656 C 118.890625 199.128906 118.496094 199.207031 118.085938 199.207031 Z M 81.53125 106.269531 C 80.542969 104.671875 79.828125 102.957031 79.394531 101.125 C 79.3125 100.78125 79.175781 100.457031 78.980469 100.15625 C 78.789062 99.859375 78.550781 99.601562 78.269531 99.382812 C 77.984375 99.167969 77.675781 99.003906 77.335938 98.890625 C 77 98.78125 76.652344 98.730469 76.296875 98.742188 L 71.617188 98.742188 L 71.617188 95.332031 L 76.359375 95.332031 C 76.714844 95.34375 77.0625 95.292969 77.398438 95.183594 C 77.738281 95.070312 78.046875 94.910156 78.332031 94.691406 C 78.613281 94.472656 78.851562 94.214844 79.042969 93.917969 C 79.234375 93.617188 79.375 93.292969 79.457031 92.949219 C 79.851562 91.082031 80.535156 89.328125 81.5 87.679688 C 81.664062 87.378906 81.777344 87.0625 81.835938 86.722656 C 81.898438 86.382812 81.898438 86.046875 81.847656 85.707031 C 81.792969 85.367188 81.6875 85.046875 81.527344 84.742188 C 81.367188 84.4375 81.160156 84.167969 80.910156 83.933594 L 77.8125 80.617188 L 80.136719 78.296875 L 83.359375 81.484375 C 83.605469 81.734375 83.890625 81.933594 84.207031 82.085938 C 84.523438 82.238281 84.855469 82.335938 85.203125 82.375 C 85.550781 82.414062 85.898438 82.394531 86.242188 82.316406 C 86.582031 82.238281 86.902344 82.105469 87.199219 81.917969 C 88.816406 80.910156 90.550781 80.1875 92.40625 79.75 C 92.722656 79.675781 93.023438 79.550781 93.304688 79.378906 L 93.304688 86.070312 C 92.707031 86.226562 92.132812 86.433594 91.570312 86.683594 C 91.011719 86.9375 90.472656 87.230469 89.960938 87.570312 C 89.449219 87.914062 88.96875 88.292969 88.519531 88.710938 C 88.070312 89.128906 87.65625 89.582031 87.28125 90.070312 C 86.90625 90.558594 86.574219 91.070312 86.285156 91.613281 C 85.992188 92.15625 85.75 92.71875 85.550781 93.300781 C 85.351562 93.882812 85.203125 94.476562 85.101562 95.082031 C 85.003906 95.6875 84.953125 96.296875 84.953125 96.914062 C 84.953125 97.527344 85.003906 98.140625 85.101562 98.746094 C 85.203125 99.351562 85.351562 99.945312 85.550781 100.527344 C 85.75 101.109375 85.992188 101.671875 86.285156 102.214844 C 86.574219 102.753906 86.90625 103.269531 87.28125 103.757812 C 87.65625 104.242188 88.070312 104.695312 88.519531 105.117188 C 88.96875 105.535156 89.449219 105.914062 89.960938 106.253906 C 90.472656 106.59375 91.011719 106.890625 91.570312 107.144531 C 92.132812 107.394531 92.707031 107.597656 93.304688 107.757812 L 93.304688 114.355469 C 93.023438 114.183594 92.722656 114.058594 92.40625 113.984375 C 90.519531 113.5625 88.753906 112.847656 87.105469 111.84375 C 86.8125 111.664062 86.492188 111.53125 86.15625 111.457031 C 85.816406 111.378906 85.472656 111.363281 85.125 111.402344 C 84.78125 111.441406 84.453125 111.535156 84.136719 111.6875 C 83.824219 111.835938 83.542969 112.035156 83.296875 112.277344 L 80.042969 115.5625 L 77.8125 113.332031 L 81.191406 109.957031 C 81.414062 109.707031 81.589844 109.429688 81.726562 109.125 C 81.859375 108.820312 81.941406 108.5 81.972656 108.167969 C 82.003906 107.835938 81.980469 107.507812 81.90625 107.183594 C 81.828125 106.859375 81.703125 106.554688 81.53125 106.269531 Z M 93.304688 100.941406 C 93.003906 100.707031 92.734375 100.441406 92.496094 100.144531 C 92.257812 99.847656 92.054688 99.53125 91.886719 99.1875 C 91.71875 98.84375 91.59375 98.488281 91.507812 98.117188 C 91.421875 97.746094 91.378906 97.371094 91.378906 96.992188 C 91.378906 96.609375 91.421875 96.234375 91.507812 95.863281 C 91.59375 95.492188 91.71875 95.136719 91.886719 94.792969 C 92.054688 94.453125 92.257812 94.132812 92.496094 93.835938 C 92.734375 93.542969 93.003906 93.277344 93.304688 93.042969 Z M 64.988281 140.75 C 56.808594 126.3125 48.382812 111.351562 48.382812 96.976562 C 48.386719 95.46875 48.460938 93.964844 48.601562 92.464844 C 48.746094 90.964844 48.960938 89.476562 49.246094 87.996094 C 49.53125 86.519531 49.882812 85.054688 50.304688 83.609375 C 50.726562 82.164062 51.214844 80.738281 51.769531 79.339844 C 52.324219 77.9375 52.945312 76.566406 53.628906 75.226562 C 54.316406 73.882812 55.0625 72.578125 55.867188 71.304688 C 56.675781 70.03125 57.542969 68.800781 58.464844 67.609375 C 59.386719 66.421875 60.367188 65.277344 61.394531 64.179688 C 62.425781 63.078125 63.507812 62.03125 64.636719 61.035156 C 65.765625 60.039062 66.941406 59.097656 68.160156 58.210938 C 69.375 57.324219 70.632812 56.496094 71.929688 55.726562 C 73.226562 54.960938 74.554688 54.253906 75.917969 53.609375 C 77.277344 52.96875 78.667969 52.390625 80.085938 51.875 C 81.5 51.363281 82.9375 50.917969 84.398438 50.542969 C 85.855469 50.164062 87.328125 49.855469 88.816406 49.617188 C 90.304688 49.378906 91.800781 49.210938 93.304688 49.113281 L 93.304688 65.996094 L 91.691406 65.996094 C 91.28125 65.996094 90.886719 66.074219 90.507812 66.230469 C 90.128906 66.390625 89.792969 66.613281 89.5 66.902344 C 89.210938 67.195312 88.988281 67.527344 88.828125 67.910156 C 88.671875 68.289062 88.59375 68.683594 88.59375 69.09375 L 88.59375 74.546875 C 87.75 74.839844 86.921875 75.179688 86.117188 75.570312 L 82.242188 71.695312 C 81.953125 71.40625 81.617188 71.1875 81.242188 71.03125 C 80.863281 70.875 80.46875 70.796875 80.058594 70.796875 C 79.648438 70.796875 79.257812 70.875 78.878906 71.03125 C 78.5 71.1875 78.164062 71.40625 77.875 71.695312 L 71.152344 78.386719 C 70.863281 78.679688 70.640625 79.011719 70.484375 79.390625 C 70.332031 79.769531 70.253906 80.164062 70.253906 80.570312 C 70.253906 80.980469 70.332031 81.375 70.484375 81.753906 C 70.640625 82.132812 70.863281 82.464844 71.152344 82.757812 L 75.054688 86.660156 C 74.667969 87.457031 74.328125 88.273438 74.035156 89.105469 L 68.519531 89.105469 C 68.109375 89.105469 67.714844 89.183594 67.335938 89.34375 C 66.953125 89.5 66.621094 89.722656 66.328125 90.015625 C 66.039062 90.304688 65.816406 90.640625 65.65625 91.019531 C 65.5 91.398438 65.421875 91.792969 65.421875 92.203125 L 65.421875 101.683594 C 65.421875 102.09375 65.5 102.488281 65.65625 102.871094 C 65.816406 103.25 66.039062 103.585938 66.328125 103.875 C 66.621094 104.164062 66.953125 104.390625 67.335938 104.546875 C 67.714844 104.703125 68.109375 104.78125 68.519531 104.78125 L 74.066406 104.78125 C 74.351562 105.605469 74.679688 106.410156 75.054688 107.199219 L 71.121094 111.132812 C 70.832031 111.421875 70.609375 111.757812 70.457031 112.136719 C 70.300781 112.515625 70.222656 112.90625 70.222656 113.316406 C 70.222656 113.726562 70.300781 114.121094 70.457031 114.5 C 70.609375 114.875 70.832031 115.210938 71.121094 115.5 L 77.8125 122.222656 C 78.105469 122.511719 78.4375 122.734375 78.816406 122.890625 C 79.195312 123.046875 79.589844 123.125 79.996094 123.125 C 80.40625 123.125 80.800781 123.046875 81.179688 122.890625 C 81.558594 122.734375 81.890625 122.511719 82.179688 122.222656 L 86.117188 118.289062 C 86.902344 118.664062 87.707031 118.996094 88.53125 119.28125 L 88.53125 124.855469 C 88.53125 125.265625 88.609375 125.664062 88.769531 126.042969 C 88.925781 126.421875 89.148438 126.757812 89.441406 127.046875 C 89.730469 127.335938 90.066406 127.5625 90.445312 127.71875 C 90.824219 127.875 91.21875 127.953125 91.628906 127.953125 L 93.304688 127.953125 L 93.304688 168.382812 L 78.308594 169.464844 C 76.078125 160.453125 70.65625 150.816406 64.988281 140.75 Z M 93.304688 174.609375 L 93.304688 177.707031 L 79.394531 178.730469 L 79.394531 177.519531 C 79.394531 176.902344 79.394531 176.25 79.394531 175.632812 Z M 79.363281 188.054688 L 79.363281 184.957031 L 93.304688 183.933594 L 93.304688 187.03125 Z M 93.304688 193.257812 L 93.304688 196.355469 L 79.394531 197.378906 L 79.394531 194.28125 Z M 79.363281 204.96875 L 79.363281 203.574219 L 93.304688 202.550781 L 93.304688 213.519531 C 86.796875 212.867188 80.414062 210.113281 79.363281 204.96875 Z M 198.632812 75.289062 L 192.4375 75.289062 L 192.4375 69.09375 L 198.632812 69.09375 Z M 198.632812 75.289062 " fill-opacity="1" fill-rule="nonzero"/></g><g fill="#000000" fill-opacity="1"><g transform="translate(83.695649, 215.614416)"><g><path d="M 0.890625 -0.625 C 0.890625 -0.882812 0.945312 -1.078125 1.0625 -1.203125 C 1.1875 -1.335938 1.359375 -1.40625 1.578125 -1.40625 C 1.804688 -1.40625 1.984375 -1.335938 2.109375 -1.203125 C 2.234375 -1.078125 2.296875 -0.882812 2.296875 -0.625 C 2.296875 -0.363281 2.226562 -0.164062 2.09375 -0.03125 C 1.96875 0.101562 1.796875 0.171875 1.578125 0.171875 C 1.378906 0.171875 1.210938 0.109375 1.078125 -0.015625 C 0.953125 -0.140625 0.890625 -0.34375 0.890625 -0.625 Z M 0.890625 -0.625 "/></g></g></g></svg>