<svg xmlns="http://www.w3.org/2000/svg" xmlns:xlink="http://www.w3.org/1999/xlink" width="308" zoomAndPan="magnify" viewBox="0 0 230.87999 233.999995" height="312" preserveAspectRatio="xMidYMid meet" version="1.0"><defs><g/><clipPath id="66c11ccc33"><path d="M 0 0.761719 L 230.128906 0.761719 L 230.128906 230.894531 L 0 230.894531 Z M 0 0.761719 " clip-rule="nonzero"/></clipPath></defs><g clip-path="url(#66c11ccc33)"><path fill="#4d8d80" d="M 144.179688 219.585938 C 141.730469 219.789062 139.496094 219.890625 137.417969 219.890625 C 129.308594 219.890625 121.460938 218.746094 113.988281 216.640625 L 131.007812 188.261719 C 131.675781 187.148438 132.894531 186.464844 134.199219 186.464844 L 143.976562 186.464844 C 148.214844 186.464844 152.03125 184.101562 153.945312 180.3125 L 157.265625 173.652344 C 157.890625 172.390625 159.167969 171.609375 160.574219 171.609375 L 178.011719 171.609375 C 179.261719 171.609375 180.40625 172.21875 181.101562 173.261719 L 192.636719 190.570312 C 179.523438 204.179688 162.882812 214.347656 144.179688 219.585938 Z M 7.429688 115.898438 C 7.429688 105.945312 8.863281 96.152344 11.535156 86.679688 C 15.394531 89.015625 19.367188 90.101562 23.589844 89.855469 C 25.332031 94.816406 28.8125 99.023438 33.425781 101.695312 L 33.425781 104.753906 C 27.289062 104.753906 22.285156 109.746094 22.285156 115.898438 C 22.285156 122.050781 27.289062 127.039062 33.425781 127.039062 C 33.425781 137.121094 38.476562 146.015625 46.164062 151.398438 C 52.636719 186.539062 78.140625 213.855469 111.074219 223.503906 C 53.5625 221.355469 7.429688 173.914062 7.429688 115.898438 Z M 11.214844 57.734375 C 15.21875 63.699219 22.007812 67.613281 29.710938 67.613281 L 29.710938 60.1875 C 21.515625 60.1875 14.855469 53.527344 14.855469 45.332031 C 14.855469 39.207031 18.570312 33.898438 24.011719 31.648438 C 27.390625 39.671875 35.328125 45.332031 44.570312 45.332031 L 44.570312 37.902344 C 36.371094 37.902344 29.710938 31.242188 29.710938 23.046875 C 29.710938 14.847656 36.371094 8.191406 44.570312 8.191406 C 52.75 8.191406 59.394531 14.820312 59.425781 22.988281 L 59.410156 34.1875 L 66.839844 34.1875 L 66.851562 23.046875 C 66.851562 14.847656 73.511719 8.191406 81.710938 8.191406 C 89.90625 8.191406 96.566406 14.847656 96.566406 23.046875 C 96.566406 31.242188 89.90625 37.902344 81.710938 37.902344 L 81.710938 45.332031 C 90.949219 45.332031 98.902344 39.671875 102.265625 31.648438 C 107.707031 33.898438 111.421875 39.207031 111.421875 45.332031 C 111.421875 53.527344 104.761719 60.1875 96.566406 60.1875 L 96.566406 67.613281 C 104.269531 67.613281 111.058594 63.699219 115.0625 57.734375 C 117.371094 60.316406 118.746094 63.640625 118.847656 67.195312 C 118.980469 72.054688 116.28125 76.796875 111.625 79.933594 C 107.070312 82.980469 103.425781 82.675781 100.757812 82.09375 L 96.972656 81.238281 L 96.289062 85.066406 C 95.433594 89.914062 92.199219 94.003906 87.644531 96.023438 L 85.421875 97.007812 L 85.421875 104.753906 L 40.855469 104.753906 L 40.855469 97.007812 L 38.648438 96.023438 C 34.078125 94.003906 30.84375 89.914062 29.988281 85.066406 L 29.304688 81.238281 L 25.519531 82.09375 C 22.851562 82.6875 19.195312 82.980469 14.652344 79.933594 C 9.996094 76.8125 7.296875 72.054688 7.429688 67.195312 C 7.53125 63.640625 8.90625 60.316406 11.214844 57.734375 Z M 220.171875 92.148438 C 204.78125 61.882812 173.429688 41.617188 137.417969 41.617188 C 131.109375 41.617188 124.828125 42.285156 118.691406 43.53125 C 117.980469 34.710938 112.191406 27.195312 103.933594 24.324219 C 103.949219 23.902344 103.992188 23.480469 103.992188 23.046875 C 103.992188 17.894531 102.222656 13.167969 99.277344 9.378906 C 104.515625 8.609375 109.8125 8.191406 115.136719 8.191406 C 166.363281 8.191406 209.320312 44.15625 220.171875 92.148438 Z M 179.144531 82.5 C 176.027344 82.253906 172.921875 83.355469 170.644531 85.503906 C 168.351562 87.652344 167.074219 90.683594 167.132812 93.816406 C 167.148438 94.6875 166.796875 95.527344 166.160156 96.179688 C 165.449219 96.90625 164.449219 97.328125 163.417969 97.328125 C 161.371094 97.328125 159.703125 95.660156 159.703125 93.613281 L 159.703125 71.328125 C 159.703125 67.832031 161.371094 64.511719 164.15625 62.40625 L 172.152344 56.429688 C 199.367188 68.472656 219.171875 94.238281 222.378906 125.675781 C 222.347656 125.964844 222.335938 126.242188 222.304688 126.53125 C 221.160156 126.820312 220 127.023438 218.851562 127.039062 C 210.683594 127.113281 203.488281 131.03125 199.601562 137.515625 L 197.484375 141.039062 C 195.800781 143.855469 192.695312 145.609375 189.402344 145.609375 L 188.210938 145.609375 C 184.121094 145.609375 180.4375 143.316406 179.015625 139.894531 C 177.535156 136.296875 178.332031 132.25 181.03125 129.535156 L 184.484375 126.082031 C 187.660156 122.90625 189.417969 118.667969 189.417969 114.171875 L 189.417969 94.0625 C 189.417969 88.027344 184.90625 82.949219 179.144531 82.5 Z M 63.140625 156.753906 C 79.519531 156.753906 92.851562 143.417969 92.851562 127.039062 C 99.003906 127.039062 103.992188 122.050781 103.992188 115.898438 C 103.992188 109.746094 99.003906 104.753906 92.851562 104.753906 L 92.851562 101.695312 C 94.867188 100.519531 96.625 99.023438 98.160156 97.328125 L 122.5625 97.328125 C 126.65625 97.328125 129.992188 100.664062 129.992188 104.753906 C 129.992188 112.953125 136.652344 119.613281 144.847656 119.613281 L 148.5625 119.613281 C 152.652344 119.613281 155.988281 122.949219 155.988281 127.039062 C 155.988281 131.132812 152.652344 134.46875 148.5625 134.46875 L 116.367188 134.46875 C 112.378906 134.46875 108.417969 135.789062 105.226562 138.183594 L 100.277344 141.894531 C 95.621094 145.390625 92.851562 150.933594 92.851562 156.753906 C 92.851562 162.902344 87.859375 167.894531 81.710938 167.894531 L 58.816406 167.894531 C 57.132812 163.90625 55.695312 159.785156 54.621094 155.488281 C 57.320312 156.300781 60.179688 156.753906 63.140625 156.753906 Z M 85.421875 127.039062 C 85.421875 139.328125 75.425781 149.324219 63.140625 149.324219 C 50.851562 149.324219 40.855469 139.328125 40.855469 127.039062 Z M 92.851562 112.183594 C 94.898438 112.183594 96.566406 113.851562 96.566406 115.898438 C 96.566406 117.941406 94.898438 119.613281 92.851562 119.613281 L 33.425781 119.613281 C 31.378906 119.613281 29.710938 117.941406 29.710938 115.898438 C 29.710938 113.851562 31.378906 112.183594 33.425781 112.183594 Z M 62.371094 175.324219 L 81.710938 175.324219 C 91.953125 175.324219 100.277344 166.996094 100.277344 156.753906 C 100.277344 153.253906 101.949219 149.933594 104.734375 147.828125 L 109.695312 144.117188 C 111.609375 142.695312 113.976562 141.894531 116.367188 141.894531 L 148.5625 141.894531 C 156.757812 141.894531 163.417969 135.238281 163.417969 127.039062 C 163.417969 118.84375 156.757812 112.183594 148.5625 112.183594 L 144.847656 112.183594 C 140.757812 112.183594 137.417969 108.847656 137.417969 104.753906 C 137.417969 96.558594 130.761719 89.898438 122.5625 89.898438 L 102.671875 89.898438 C 102.671875 89.886719 102.6875 89.871094 102.703125 89.855469 C 107.273438 90.117188 111.582031 88.898438 115.757812 86.097656 C 122.550781 81.558594 126.480469 74.40625 126.261719 66.992188 C 126.101562 60.839844 123.390625 55.152344 118.90625 51.105469 C 124.957031 49.769531 131.167969 49.042969 137.417969 49.042969 C 146.691406 49.042969 155.582031 50.582031 163.953125 53.296875 L 159.703125 56.472656 C 155.046875 59.96875 152.277344 65.511719 152.277344 71.328125 L 152.277344 93.613281 C 152.277344 99.765625 157.265625 104.753906 163.417969 104.753906 C 166.421875 104.753906 169.351562 103.523438 171.457031 101.390625 C 173.515625 99.300781 174.617188 96.558594 174.558594 93.6875 C 174.546875 92.613281 174.953125 91.640625 175.734375 90.914062 C 176.503906 90.191406 177.503906 89.828125 178.578125 89.914062 C 180.464844 90.058594 181.988281 91.914062 181.988281 94.0625 L 181.988281 114.171875 C 181.988281 116.679688 181 119.046875 179.230469 120.832031 L 175.777344 124.285156 C 170.949219 129.113281 169.527344 136.355469 172.152344 142.722656 C 174.734375 148.992188 181.046875 153.039062 188.210938 153.039062 L 189.402344 153.039062 C 195.292969 153.039062 200.835938 149.90625 203.851562 144.855469 L 205.96875 141.34375 C 208.523438 137.09375 213.355469 134.527344 218.925781 134.46875 C 219.695312 134.453125 220.476562 134.324219 221.246094 134.222656 C 217.96875 153.285156 209.683594 170.636719 197.773438 184.882812 L 187.285156 169.140625 C 185.210938 166.039062 181.742188 164.179688 178.011719 164.179688 L 160.574219 164.179688 C 156.339844 164.179688 152.523438 166.546875 150.609375 170.332031 L 147.285156 176.992188 C 146.660156 178.253906 145.382812 179.035156 143.976562 179.035156 L 134.199219 179.035156 C 130.3125 179.035156 126.640625 181.109375 124.636719 184.449219 L 106.765625 214.246094 C 87.800781 207.007812 72.0625 193.210938 62.371094 175.324219 Z M 115.136719 0.761719 C 107.257812 0.761719 99.394531 1.589844 91.734375 3.171875 C 88.714844 1.648438 85.320312 0.761719 81.710938 0.761719 C 73.960938 0.761719 67.144531 4.738281 63.140625 10.742188 C 59.148438 4.738281 52.316406 0.761719 44.570312 0.761719 C 32.28125 0.761719 22.285156 10.757812 22.285156 23.046875 C 22.285156 23.480469 22.328125 23.902344 22.355469 24.324219 C 13.535156 27.398438 7.429688 35.710938 7.429688 45.332031 C 7.429688 47.101562 7.660156 48.828125 8.050781 50.480469 C 3.148438 54.542969 0.1875 60.535156 0.015625 66.992188 C -0.128906 72.214844 1.8125 77.292969 5.324219 81.425781 C 1.828125 92.554688 0 104.132812 0 115.898438 C 0 179.382812 51.648438 231.03125 115.136719 231.03125 C 178.621094 231.03125 230.269531 179.382812 230.269531 115.898438 C 230.269531 52.410156 178.621094 0.761719 115.136719 0.761719 " fill-opacity="1" fill-rule="nonzero"/></g><g fill="#000000" fill-opacity="1"><g transform="translate(131.931417, 227.036009)"><g><path d="M 0.890625 -0.625 C 0.890625 -0.882812 0.945312 -1.082031 1.0625 -1.21875 C 1.1875 -1.351562 1.359375 -1.421875 1.578125 -1.421875 C 1.804688 -1.421875 1.984375 -1.351562 2.109375 -1.21875 C 2.234375 -1.082031 2.296875 -0.882812 2.296875 -0.625 C 2.296875 -0.363281 2.234375 -0.164062 2.109375 -0.03125 C 1.984375 0.101562 1.804688 0.171875 1.578125 0.171875 C 1.378906 0.171875 1.210938 0.109375 1.078125 -0.015625 C 0.953125 -0.140625 0.890625 -0.34375 0.890625 -0.625 Z M 0.890625 -0.625 "/></g></g></g></svg>