<svg xmlns="http://www.w3.org/2000/svg" xmlns:xlink="http://www.w3.org/1999/xlink" width="366" zoomAndPan="magnify" viewBox="0 0 274.5 104.999996" height="140" preserveAspectRatio="xMidYMid meet" version="1.0"><defs><g/><clipPath id="52e08f52a0"><path d="M 70 0.71875 L 203.820312 0.71875 L 203.820312 104.03125 L 70 104.03125 Z M 70 0.71875 " clip-rule="nonzero"/></clipPath></defs><g clip-path="url(#52e08f52a0)"><path fill="#4d8d80" d="M 186.984375 0.703125 L 142.285156 0.703125 C 141.734375 0.703125 141.1875 0.726562 140.640625 0.78125 C 140.097656 0.835938 139.554688 0.914062 139.015625 1.019531 C 138.480469 1.128906 137.949219 1.261719 137.421875 1.417969 C 136.898438 1.578125 136.382812 1.761719 135.875 1.972656 C 135.371094 2.179688 134.875 2.414062 134.390625 2.671875 C 133.90625 2.929688 133.4375 3.210938 132.980469 3.515625 C 132.523438 3.820312 132.085938 4.144531 131.660156 4.492188 C 131.234375 4.839844 130.832031 5.207031 130.441406 5.59375 C 130.054688 5.980469 129.6875 6.386719 129.335938 6.8125 C 128.988281 7.234375 128.664062 7.671875 128.359375 8.128906 C 128.054688 8.585938 127.769531 9.054688 127.511719 9.539062 C 127.253906 10.019531 127.019531 10.515625 126.808594 11.023438 C 126.597656 11.527344 126.414062 12.042969 126.253906 12.566406 C 126.09375 13.09375 125.960938 13.625 125.851562 14.160156 C 125.746094 14.699219 125.664062 15.242188 125.609375 15.785156 C 125.554688 16.332031 125.527344 16.878906 125.527344 17.425781 L 125.527344 26.675781 L 87.132812 26.675781 C 86.582031 26.675781 86.035156 26.703125 85.492188 26.757812 C 84.945312 26.8125 84.402344 26.890625 83.863281 27 C 83.328125 27.105469 82.796875 27.242188 82.269531 27.398438 C 81.746094 27.558594 81.230469 27.746094 80.722656 27.957031 C 80.21875 28.164062 79.722656 28.398438 79.238281 28.660156 C 78.757812 28.917969 78.285156 29.199219 77.832031 29.503906 C 77.375 29.808594 76.933594 30.136719 76.511719 30.484375 C 76.085938 30.832031 75.679688 31.199219 75.292969 31.589844 C 74.90625 31.976562 74.539062 32.382812 74.191406 32.804688 C 73.84375 33.230469 73.515625 33.671875 73.210938 34.125 C 72.90625 34.582031 72.625 35.050781 72.367188 35.535156 C 72.109375 36.019531 71.875 36.515625 71.664062 37.023438 C 71.457031 37.527344 71.273438 38.042969 71.113281 38.570312 C 70.953125 39.09375 70.820312 39.625 70.714844 40.164062 C 70.605469 40.703125 70.527344 41.242188 70.472656 41.789062 C 70.417969 42.335938 70.390625 42.882812 70.390625 43.429688 L 70.390625 68.832031 C 70.394531 69.832031 70.484375 70.828125 70.664062 71.8125 C 70.84375 72.796875 71.109375 73.757812 71.460938 74.695312 C 71.8125 75.632812 72.242188 76.53125 72.753906 77.390625 C 73.269531 78.25 73.851562 79.058594 74.511719 79.8125 C 75.167969 80.566406 75.886719 81.257812 76.667969 81.882812 C 77.449219 82.511719 78.28125 83.0625 79.160156 83.539062 C 80.039062 84.015625 80.957031 84.410156 81.90625 84.726562 C 82.855469 85.039062 83.828125 85.265625 84.820312 85.402344 L 84.820312 101.710938 C 84.820312 102.132812 84.929688 102.519531 85.144531 102.882812 C 85.359375 103.242188 85.652344 103.523438 86.019531 103.726562 C 86.390625 103.925781 86.78125 104.023438 87.203125 104.007812 C 87.621094 103.996094 88.007812 103.878906 88.363281 103.652344 L 117.019531 85.558594 L 131.941406 85.558594 C 132.488281 85.554688 133.03125 85.527344 133.574219 85.46875 C 134.117188 85.414062 134.65625 85.332031 135.191406 85.222656 C 135.726562 85.113281 136.257812 84.980469 136.777344 84.820312 C 137.300781 84.660156 137.8125 84.472656 138.316406 84.261719 C 138.820312 84.050781 139.3125 83.816406 139.792969 83.558594 C 140.273438 83.296875 140.742188 83.015625 141.195312 82.710938 C 141.648438 82.40625 142.085938 82.082031 142.507812 81.734375 C 142.929688 81.386719 143.332031 81.019531 143.714844 80.632812 C 144.101562 80.246094 144.46875 79.839844 144.8125 79.417969 C 145.160156 78.992188 145.484375 78.554688 145.785156 78.101562 C 146.085938 77.644531 146.367188 77.175781 146.625 76.695312 C 146.882812 76.214844 147.113281 75.71875 147.320312 75.214844 C 147.53125 74.710938 147.714844 74.195312 147.871094 73.675781 C 148.03125 73.152344 148.160156 72.621094 148.269531 72.085938 C 148.375 71.550781 148.453125 71.011719 148.507812 70.46875 C 148.5625 69.925781 148.585938 69.378906 148.585938 68.832031 L 148.585938 59.585938 L 157.171875 59.585938 L 185.71875 77.648438 C 186.097656 77.882812 186.507812 78 186.953125 78.003906 C 187.351562 78.003906 187.726562 77.910156 188.078125 77.726562 C 188.445312 77.519531 188.734375 77.234375 188.949219 76.871094 C 189.160156 76.507812 189.265625 76.113281 189.265625 75.691406 L 189.265625 59.398438 C 190.257812 59.261719 191.226562 59.035156 192.179688 58.722656 C 193.128906 58.40625 194.046875 58.011719 194.925781 57.535156 C 195.804688 57.058594 196.636719 56.507812 197.417969 55.878906 C 198.199219 55.253906 198.917969 54.5625 199.574219 53.808594 C 200.230469 53.054688 200.816406 52.246094 201.328125 51.386719 C 201.84375 50.527344 202.273438 49.628906 202.625 48.691406 C 202.976562 47.753906 203.242188 46.792969 203.421875 45.808594 C 203.601562 44.824219 203.691406 43.832031 203.691406 42.828125 L 203.691406 17.425781 C 203.691406 16.878906 203.664062 16.332031 203.609375 15.789062 C 203.554688 15.246094 203.476562 14.703125 203.367188 14.167969 C 203.261719 13.632812 203.125 13.101562 202.96875 12.578125 C 202.808594 12.054688 202.625 11.539062 202.414062 11.035156 C 202.203125 10.53125 201.96875 10.035156 201.710938 9.554688 C 201.453125 9.070312 201.171875 8.601562 200.867188 8.148438 C 200.566406 7.691406 200.238281 7.253906 199.890625 6.832031 C 199.542969 6.40625 199.179688 6.003906 198.792969 5.617188 C 198.40625 5.226562 198 4.859375 197.578125 4.511719 C 197.15625 4.167969 196.714844 3.839844 196.261719 3.535156 C 195.804688 3.230469 195.339844 2.949219 194.855469 2.691406 C 194.375 2.433594 193.878906 2.199219 193.375 1.988281 C 192.871094 1.777344 192.355469 1.59375 191.832031 1.433594 C 191.308594 1.273438 190.777344 1.140625 190.242188 1.03125 C 189.707031 0.921875 189.164062 0.84375 188.621094 0.789062 C 188.078125 0.730469 187.53125 0.703125 186.984375 0.703125 Z M 143.964844 68.832031 C 143.960938 69.628906 143.882812 70.414062 143.726562 71.191406 C 143.574219 71.972656 143.34375 72.726562 143.039062 73.460938 C 142.734375 74.195312 142.359375 74.890625 141.917969 75.550781 C 141.476562 76.210938 140.976562 76.824219 140.414062 77.382812 C 139.851562 77.945312 139.242188 78.449219 138.582031 78.890625 C 137.921875 79.332031 137.226562 79.703125 136.492188 80.007812 C 135.757812 80.3125 135 80.542969 134.222656 80.699219 C 133.445312 80.855469 132.65625 80.933594 131.863281 80.933594 L 116.28125 80.933594 C 115.824219 80.929688 115.410156 81.054688 115.03125 81.304688 L 89.460938 97.503906 L 89.460938 83.183594 C 89.460938 82.875 89.402344 82.582031 89.28125 82.296875 C 89.164062 82.015625 89 81.765625 88.78125 81.546875 C 88.566406 81.332031 88.316406 81.164062 88.03125 81.046875 C 87.75 80.929688 87.453125 80.871094 87.148438 80.871094 C 86.351562 80.871094 85.566406 80.792969 84.785156 80.636719 C 84.007812 80.480469 83.25 80.25 82.515625 79.945312 C 81.78125 79.640625 81.085938 79.269531 80.425781 78.828125 C 79.765625 78.386719 79.152344 77.886719 78.589844 77.324219 C 78.027344 76.761719 77.527344 76.152344 77.082031 75.492188 C 76.640625 74.832031 76.265625 74.132812 75.960938 73.402344 C 75.65625 72.667969 75.425781 71.910156 75.269531 71.132812 C 75.113281 70.351562 75.035156 69.566406 75.03125 68.769531 L 75.03125 43.429688 C 75.035156 42.636719 75.113281 41.847656 75.269531 41.070312 C 75.425781 40.292969 75.65625 39.535156 75.960938 38.800781 C 76.265625 38.066406 76.640625 37.371094 77.082031 36.710938 C 77.527344 36.050781 78.027344 35.4375 78.589844 34.878906 C 79.152344 34.316406 79.765625 33.816406 80.425781 33.375 C 81.085938 32.933594 81.78125 32.558594 82.515625 32.253906 C 83.25 31.949219 84.007812 31.722656 84.785156 31.566406 C 85.566406 31.410156 86.351562 31.332031 87.148438 31.332031 L 131.847656 31.332031 C 132.640625 31.332031 133.429688 31.410156 134.207031 31.566406 C 134.988281 31.722656 135.742188 31.949219 136.476562 32.253906 C 137.210938 32.558594 137.90625 32.933594 138.566406 33.375 C 139.226562 33.816406 139.839844 34.316406 140.398438 34.878906 C 140.960938 35.441406 141.460938 36.050781 141.902344 36.710938 C 142.34375 37.371094 142.71875 38.070312 143.023438 38.800781 C 143.328125 39.535156 143.558594 40.292969 143.714844 41.070312 C 143.867188 41.851562 143.945312 42.636719 143.949219 43.429688 Z M 199.101562 42.828125 C 199.097656 43.625 199.019531 44.410156 198.863281 45.191406 C 198.707031 45.96875 198.472656 46.726562 198.167969 47.457031 C 197.863281 48.191406 197.488281 48.890625 197.046875 49.550781 C 196.605469 50.210938 196.105469 50.820312 195.542969 51.382812 C 194.980469 51.941406 194.367188 52.445312 193.707031 52.886719 C 193.046875 53.328125 192.347656 53.699219 191.613281 54.003906 C 190.878906 54.308594 190.125 54.539062 189.34375 54.695312 C 188.566406 54.851562 187.777344 54.929688 186.984375 54.929688 C 186.675781 54.929688 186.382812 54.988281 186.097656 55.105469 C 185.816406 55.222656 185.566406 55.390625 185.347656 55.605469 C 185.132812 55.824219 184.964844 56.074219 184.847656 56.355469 C 184.730469 56.640625 184.671875 56.933594 184.671875 57.242188 L 184.671875 71.5 L 159.085938 55.300781 C 158.707031 55.050781 158.289062 54.925781 157.835938 54.929688 L 148.585938 54.929688 L 148.585938 43.429688 C 148.585938 42.882812 148.558594 42.335938 148.503906 41.792969 C 148.453125 41.246094 148.371094 40.707031 148.265625 40.167969 C 148.15625 39.632812 148.023438 39.101562 147.863281 38.578125 C 147.703125 38.054688 147.519531 37.539062 147.3125 37.03125 C 147.101562 36.527344 146.867188 36.03125 146.609375 35.550781 C 146.351562 35.066406 146.070312 34.597656 145.765625 34.140625 C 145.460938 33.6875 145.132812 33.246094 144.785156 32.824219 C 144.4375 32.402344 144.070312 31.996094 143.683594 31.609375 C 143.296875 31.222656 142.890625 30.855469 142.46875 30.507812 C 142.046875 30.160156 141.605469 29.832031 141.152344 29.53125 C 140.695312 29.226562 140.226562 28.945312 139.746094 28.683594 C 139.261719 28.425781 138.765625 28.191406 138.261719 27.984375 C 137.753906 27.773438 137.242188 27.589844 136.714844 27.429688 C 136.191406 27.269531 135.664062 27.136719 135.125 27.03125 C 134.589844 26.921875 134.046875 26.84375 133.503906 26.789062 C 132.957031 26.734375 132.410156 26.707031 131.863281 26.707031 L 130.152344 26.707031 L 130.152344 17.457031 C 130.152344 16.664062 130.230469 15.875 130.386719 15.097656 C 130.542969 14.320312 130.773438 13.5625 131.078125 12.828125 C 131.382812 12.097656 131.753906 11.398438 132.195312 10.738281 C 132.636719 10.078125 133.140625 9.46875 133.699219 8.90625 C 134.261719 8.34375 134.875 7.84375 135.535156 7.402344 C 136.195312 6.960938 136.890625 6.585938 137.625 6.28125 C 138.359375 5.976562 139.113281 5.75 139.894531 5.59375 C 140.671875 5.4375 141.457031 5.359375 142.253906 5.359375 L 186.953125 5.359375 C 187.75 5.359375 188.535156 5.4375 189.3125 5.59375 C 190.09375 5.75 190.851562 5.976562 191.582031 6.28125 C 192.316406 6.585938 193.015625 6.960938 193.675781 7.402344 C 194.335938 7.84375 194.949219 8.34375 195.511719 8.90625 C 196.074219 9.464844 196.574219 10.078125 197.015625 10.738281 C 197.460938 11.398438 197.832031 12.09375 198.136719 12.828125 C 198.445312 13.5625 198.675781 14.316406 198.832031 15.097656 C 198.988281 15.875 199.066406 16.664062 199.070312 17.457031 Z M 199.101562 42.828125 " fill-opacity="1" fill-rule="nonzero"/></g><path fill="#4d8d80" d="M 111.5625 40.777344 C 111.367188 40.390625 111.082031 40.078125 110.710938 39.851562 C 110.339844 39.621094 109.933594 39.507812 109.496094 39.507812 C 109.0625 39.507812 108.65625 39.621094 108.285156 39.851562 C 107.914062 40.078125 107.628906 40.390625 107.433594 40.777344 L 93.175781 68.863281 C 93.015625 69.136719 92.921875 69.433594 92.882812 69.746094 C 92.847656 70.0625 92.875 70.371094 92.964844 70.671875 C 93.054688 70.976562 93.203125 71.25 93.402344 71.492188 C 93.605469 71.734375 93.847656 71.929688 94.132812 72.074219 C 94.414062 72.214844 94.710938 72.296875 95.027344 72.320312 C 95.34375 72.339844 95.648438 72.296875 95.949219 72.191406 C 96.246094 72.089844 96.511719 71.929688 96.746094 71.714844 C 96.980469 71.5 97.160156 71.25 97.289062 70.960938 L 102.207031 61.28125 L 116.789062 61.28125 L 121.644531 70.960938 C 121.773438 71.25 121.953125 71.5 122.1875 71.714844 C 122.421875 71.929688 122.6875 72.089844 122.984375 72.191406 C 123.28125 72.296875 123.589844 72.339844 123.90625 72.320312 C 124.222656 72.296875 124.519531 72.214844 124.800781 72.074219 C 125.085938 71.929688 125.328125 71.734375 125.527344 71.492188 C 125.730469 71.25 125.878906 70.976562 125.96875 70.671875 C 126.058594 70.371094 126.085938 70.0625 126.050781 69.746094 C 126.011719 69.433594 125.917969 69.136719 125.757812 68.863281 Z M 104.550781 56.65625 L 109.496094 46.929688 L 114.429688 56.65625 Z M 104.550781 56.65625 " fill-opacity="1" fill-rule="nonzero"/><path fill="#4d8d80" d="M 178.136719 40.996094 L 169.121094 34.921875 C 170.992188 31.960938 172.53125 28.835938 173.742188 25.550781 L 176.828125 25.550781 C 177.132812 25.550781 177.429688 25.492188 177.710938 25.375 C 177.996094 25.257812 178.246094 25.089844 178.460938 24.871094 C 178.679688 24.65625 178.84375 24.40625 178.960938 24.121094 C 179.078125 23.839844 179.136719 23.542969 179.136719 23.238281 C 179.136719 22.929688 179.078125 22.636719 178.960938 22.351562 C 178.84375 22.070312 178.679688 21.820312 178.460938 21.601562 C 178.246094 21.386719 177.996094 21.21875 177.710938 21.101562 C 177.429688 20.984375 177.132812 20.925781 176.828125 20.925781 L 167.484375 20.925781 L 167.484375 16.117188 C 167.484375 15.808594 167.425781 15.515625 167.308594 15.230469 C 167.191406 14.949219 167.023438 14.699219 166.808594 14.480469 C 166.589844 14.265625 166.339844 14.097656 166.058594 13.980469 C 165.773438 13.863281 165.480469 13.804688 165.171875 13.804688 C 164.867188 13.804688 164.570312 13.863281 164.289062 13.980469 C 164.003906 14.097656 163.753906 14.265625 163.539062 14.480469 C 163.320312 14.699219 163.15625 14.949219 163.039062 15.230469 C 162.917969 15.515625 162.859375 15.808594 162.859375 16.117188 L 162.859375 20.925781 L 152.472656 20.925781 C 152.164062 20.925781 151.871094 20.984375 151.585938 21.101562 C 151.304688 21.21875 151.054688 21.386719 150.835938 21.601562 C 150.621094 21.820312 150.453125 22.070312 150.335938 22.351562 C 150.21875 22.636719 150.160156 22.929688 150.160156 23.238281 C 150.160156 23.542969 150.21875 23.839844 150.335938 24.121094 C 150.453125 24.40625 150.621094 24.65625 150.835938 24.871094 C 151.054688 25.089844 151.304688 25.257812 151.585938 25.375 C 151.871094 25.492188 152.164062 25.550781 152.472656 25.550781 L 168.828125 25.550781 C 167.839844 27.90625 166.65625 30.164062 165.28125 32.316406 L 159.46875 28.402344 C 159.210938 28.230469 158.929688 28.113281 158.621094 28.054688 C 158.316406 27.996094 158.011719 27.996094 157.707031 28.058594 C 157.402344 28.121094 157.117188 28.238281 156.859375 28.410156 C 156.601562 28.585938 156.386719 28.804688 156.214844 29.0625 C 156.042969 29.324219 155.929688 29.605469 155.867188 29.910156 C 155.808594 30.21875 155.8125 30.523438 155.875 30.828125 C 155.9375 31.132812 156.054688 31.414062 156.230469 31.671875 C 156.402344 31.929688 156.621094 32.144531 156.878906 32.316406 L 162.613281 36.171875 C 160.816406 38.441406 158.828125 40.535156 156.648438 42.445312 C 156.417969 42.648438 156.238281 42.890625 156.105469 43.164062 C 155.96875 43.441406 155.894531 43.734375 155.878906 44.042969 C 155.859375 44.347656 155.902344 44.648438 156 44.9375 C 156.101562 45.226562 156.253906 45.488281 156.460938 45.71875 C 156.664062 45.945312 156.902344 46.128906 157.179688 46.261719 C 157.457031 46.398438 157.75 46.472656 158.054688 46.492188 C 158.363281 46.511719 158.660156 46.46875 158.953125 46.367188 C 159.242188 46.269531 159.503906 46.117188 159.730469 45.910156 C 162.210938 43.738281 164.464844 41.355469 166.5 38.761719 L 175.59375 44.925781 C 175.980469 45.1875 176.40625 45.3125 176.871094 45.3125 C 177.378906 45.308594 177.835938 45.15625 178.242188 44.855469 C 178.652344 44.554688 178.929688 44.160156 179.078125 43.675781 C 179.226562 43.191406 179.214844 42.710938 179.046875 42.234375 C 178.878906 41.753906 178.585938 41.371094 178.167969 41.085938 Z M 178.136719 40.996094 " fill-opacity="1" fill-rule="nonzero"/><g fill="#4d8d80" fill-opacity="1"><g transform="translate(134.415318, 82.145994)"><g><path d="M 1.03125 -1.25 C 1.03125 -1.738281 1.160156 -2.109375 1.421875 -2.359375 C 1.679688 -2.617188 2.066406 -2.75 2.578125 -2.75 C 3.054688 -2.75 3.425781 -2.617188 3.6875 -2.359375 C 3.957031 -2.097656 4.09375 -1.726562 4.09375 -1.25 C 4.09375 -0.789062 3.957031 -0.425781 3.6875 -0.15625 C 3.425781 0.101562 3.054688 0.234375 2.578125 0.234375 C 2.078125 0.234375 1.691406 0.101562 1.421875 -0.15625 C 1.160156 -0.414062 1.03125 -0.78125 1.03125 -1.25 Z M 1.03125 -1.25 "/></g></g></g></svg>