<svg xmlns="http://www.w3.org/2000/svg" xmlns:xlink="http://www.w3.org/1999/xlink" width="420" zoomAndPan="magnify" viewBox="0 0 315 231" height="308" preserveAspectRatio="xMidYMid meet" version="1.0"><defs><g/><clipPath id="16b749933b"><path d="M 84.511719 0.601562 L 314.761719 0.601562 L 314.761719 230.851562 L 84.511719 230.851562 Z M 84.511719 0.601562 " clip-rule="nonzero"/></clipPath></defs><g clip-path="url(#16b749933b)"><path fill="#4d8d80" d="M 108.425781 146.101562 L 124.128906 146.101562 L 105.6875 165.632812 C 92.363281 148.289062 84.511719 126.75 84.511719 103.199219 C 84.511719 74.902344 96.011719 49.160156 114.632812 30.722656 C 133.074219 12.101562 158.8125 0.601562 187.109375 0.601562 C 215.40625 0.601562 240.964844 12.101562 259.585938 30.722656 C 262.144531 33.09375 264.332031 35.652344 266.523438 38.390625 L 245.347656 60.296875 L 240.234375 60.296875 C 240.601562 61.574219 240.964844 63.035156 241.148438 64.496094 L 230.195312 75.816406 C 229.28125 70.519531 228.1875 65.226562 226.726562 60.296875 L 193.683594 60.296875 L 193.683594 96.625 L 210.113281 96.625 L 197.515625 109.769531 L 193.683594 109.769531 L 193.683594 112.507812 L 179.992188 102.101562 C 175.246094 98.632812 168.671875 99.183594 164.472656 103.382812 L 158.632812 109.769531 L 141.835938 109.769531 C 142.019531 115.246094 142.566406 120.722656 143.296875 125.835938 L 132.160156 137.703125 C 130.335938 128.941406 129.238281 119.445312 128.875 109.769531 L 97.839844 109.769531 C 98.75 122.734375 102.402344 135.148438 108.425781 146.101562 Z M 105.140625 183.34375 L 169.765625 115.066406 L 173.054688 111.414062 L 176.886719 114.335938 L 195.507812 128.574219 L 287.882812 33.09375 L 274.191406 20.132812 L 314.902344 12.285156 L 309.242188 53.175781 L 295.734375 40.398438 L 199.890625 139.527344 L 196.605469 142.996094 L 192.769531 140.074219 L 174.148438 125.835938 L 112.992188 190.828125 Z M 175.0625 135.511719 L 175.0625 230.992188 L 138.183594 230.992188 L 138.183594 172.9375 L 174.148438 134.964844 Z M 274.007812 71.980469 L 274.007812 230.992188 L 237.132812 230.992188 L 237.132812 110.136719 Z M 224.535156 123.097656 L 224.535156 230.992188 L 187.660156 230.992188 L 187.660156 145.003906 L 192.769531 149.019531 L 196.605469 151.941406 L 199.890625 148.472656 Z M 97.839844 96.625 L 128.875 96.625 C 129.238281 83.664062 131.066406 71.433594 133.984375 60.296875 L 108.425781 60.296875 C 102.402344 71.25 98.75 83.480469 97.839844 96.625 Z M 117.191406 47.152344 L 138.003906 47.152344 C 140.011719 41.859375 142.199219 36.746094 144.757812 32.183594 C 146.949219 27.984375 149.320312 24.148438 152.058594 20.679688 C 141.472656 25.246094 131.796875 31.816406 123.761719 39.851562 C 121.390625 42.222656 119.199219 44.597656 117.191406 47.152344 Z M 222.164062 20.679688 C 224.71875 24.148438 227.273438 27.984375 229.464844 32.183594 C 232.019531 36.746094 234.210938 41.859375 236.21875 47.152344 L 257.03125 47.152344 C 254.839844 44.597656 252.648438 42.222656 250.460938 39.851562 C 242.425781 31.816406 232.75 25.246094 222.164062 20.679688 Z M 141.835938 96.625 L 180.539062 96.625 L 180.539062 60.296875 L 147.496094 60.296875 C 144.390625 71.25 142.382812 83.480469 141.835938 96.625 Z M 151.875 47.152344 L 180.539062 47.152344 L 180.539062 14.65625 C 171.410156 17.394531 162.832031 25.976562 156.074219 38.390625 C 154.613281 41.128906 153.335938 44.050781 151.875 47.152344 Z M 193.683594 14.65625 L 193.683594 47.152344 L 222.164062 47.152344 C 220.882812 44.050781 219.421875 41.128906 217.964844 38.390625 C 211.390625 25.976562 202.8125 17.394531 193.683594 14.65625 Z M 193.683594 14.65625 " fill-opacity="1" fill-rule="nonzero"/></g><g fill="#4d8d80" fill-opacity="1"><g transform="translate(134.753926, 187.950002)"><g><path d="M 1.03125 -1.25 C 1.03125 -1.75 1.160156 -2.125 1.421875 -2.375 C 1.679688 -2.625 2.066406 -2.75 2.578125 -2.75 C 3.066406 -2.75 3.441406 -2.617188 3.703125 -2.359375 C 3.972656 -2.109375 4.109375 -1.738281 4.109375 -1.25 C 4.109375 -0.789062 3.972656 -0.425781 3.703125 -0.15625 C 3.429688 0.101562 3.054688 0.234375 2.578125 0.234375 C 2.085938 0.234375 1.707031 0.101562 1.4375 -0.15625 C 1.164062 -0.414062 1.03125 -0.78125 1.03125 -1.25 Z M 1.03125 -1.25 "/></g></g></g></svg>