<svg xmlns="http://www.w3.org/2000/svg" xmlns:xlink="http://www.w3.org/1999/xlink" width="300" zoomAndPan="magnify" viewBox="0 0 224.87999 225.75" height="301" preserveAspectRatio="xMidYMid meet" version="1.0"><defs><g/><clipPath id="ac16636161"><path d="M 0.0625 2 L 220 2 L 220 224 L 0.0625 224 Z M 0.0625 2 " clip-rule="nonzero"/></clipPath></defs><g clip-path="url(#ac16636161)"><path fill="#4d8d80" d="M 149.152344 2.074219 C 143.335938 2.097656 137.613281 2.828125 131.976562 4.269531 C 125.945312 2.8125 119.824219 2.078125 113.617188 2.074219 L 94.757812 2.074219 C 93.503906 2.078125 92.25 2.109375 91 2.171875 C 89.746094 2.234375 88.496094 2.328125 87.25 2.453125 C 86.003906 2.574219 84.757812 2.730469 83.519531 2.914062 C 82.277344 3.101562 81.042969 3.316406 79.8125 3.5625 C 78.585938 3.808594 77.363281 4.082031 76.144531 4.390625 C 74.929688 4.695312 73.722656 5.03125 72.523438 5.394531 C 71.324219 5.757812 70.132812 6.152344 68.953125 6.578125 C 67.773438 7 66.605469 7.453125 65.445312 7.933594 C 64.289062 8.414062 63.140625 8.921875 62.007812 9.457031 C 60.875 9.992188 59.757812 10.558594 58.652344 11.148438 C 57.546875 11.742188 56.457031 12.359375 55.378906 13.003906 C 54.304688 13.648438 53.246094 14.320312 52.203125 15.015625 C 51.160156 15.714844 50.136719 16.4375 49.128906 17.183594 C 48.125 17.929688 47.136719 18.703125 46.167969 19.496094 C 45.199219 20.292969 44.25 21.109375 43.320312 21.953125 C 42.390625 22.796875 41.484375 23.660156 40.597656 24.546875 C 39.710938 25.433594 38.84375 26.339844 38.003906 27.269531 C 37.160156 28.199219 36.34375 29.148438 35.546875 30.117188 C 34.75 31.085938 33.980469 32.074219 33.234375 33.082031 C 32.484375 34.085938 31.765625 35.113281 31.066406 36.152344 C 30.371094 37.195312 29.699219 38.253906 29.054688 39.328125 C 28.410156 40.40625 27.792969 41.496094 27.199219 42.601562 C 26.609375 43.707031 26.042969 44.824219 25.507812 45.957031 C 24.972656 47.09375 24.460938 48.238281 23.980469 49.394531 C 23.5 50.554688 23.050781 51.722656 22.625 52.902344 C 22.203125 54.082031 21.808594 55.273438 21.445312 56.472656 C 21.078125 57.671875 20.746094 58.878906 20.4375 60.09375 C 20.132812 61.3125 19.859375 62.535156 19.613281 63.765625 C 19.367188 64.992188 19.152344 66.226562 18.964844 67.46875 C 18.78125 68.707031 18.625 69.953125 18.503906 71.199219 C 18.378906 72.445312 18.285156 73.695312 18.222656 74.949219 C 18.160156 76.203125 18.125 77.453125 18.125 78.707031 C 18.128906 82.476562 18.972656 86.046875 20.652344 89.417969 C 21.03125 90.171875 21.304688 90.96875 21.472656 91.796875 C 21.640625 92.625 21.699219 93.460938 21.648438 94.308594 C 21.59375 95.152344 21.433594 95.976562 21.160156 96.777344 C 20.890625 97.578125 20.519531 98.332031 20.050781 99.035156 L 2.304688 125.664062 C 2.085938 125.996094 1.882812 126.335938 1.699219 126.6875 C 1.511719 127.039062 1.347656 127.402344 1.203125 127.769531 C 1.054688 128.140625 0.929688 128.515625 0.824219 128.898438 C 0.714844 129.28125 0.628906 129.671875 0.566406 130.0625 C 0.5 130.453125 0.457031 130.847656 0.433594 131.246094 C 0.410156 131.640625 0.40625 132.039062 0.425781 132.4375 C 0.445312 132.832031 0.484375 133.226562 0.542969 133.621094 C 0.605469 134.011719 0.6875 134.402344 0.789062 134.785156 C 0.890625 135.171875 1.011719 135.546875 1.152344 135.917969 C 1.296875 136.289062 1.457031 136.652344 1.636719 137.007812 C 1.816406 137.359375 2.015625 137.703125 2.234375 138.039062 C 2.449219 138.371094 2.683594 138.691406 2.933594 139 C 3.1875 139.308594 3.453125 139.601562 3.734375 139.882812 C 4.015625 140.160156 4.3125 140.425781 4.625 140.671875 C 4.933594 140.921875 5.257812 141.152344 5.589844 141.367188 C 5.925781 141.582031 6.269531 141.777344 6.625 141.957031 L 14.582031 145.914062 L 14.582031 157.890625 C 14.578125 158.566406 14.753906 159.191406 15.109375 159.765625 C 15.460938 160.339844 15.9375 160.777344 16.542969 161.078125 L 17.652344 161.632812 C 17.375 161.886719 17.109375 162.152344 16.863281 162.4375 C 16.617188 162.722656 16.386719 163.019531 16.175781 163.332031 C 15.964844 163.640625 15.773438 163.964844 15.601562 164.300781 C 15.433594 164.636719 15.28125 164.980469 15.152344 165.332031 C 15.023438 165.6875 14.914062 166.046875 14.828125 166.414062 C 14.742188 166.777344 14.679688 167.148438 14.636719 167.523438 C 14.597656 167.898438 14.578125 168.273438 14.585938 168.648438 C 14.589844 169.023438 14.617188 169.398438 14.667969 169.773438 C 14.71875 170.144531 14.789062 170.515625 14.886719 170.878906 C 14.980469 171.242188 15.097656 171.597656 15.238281 171.949219 C 15.375 172.300781 15.535156 172.640625 15.714844 172.96875 C 15.894531 173.300781 16.09375 173.617188 16.3125 173.925781 C 16.53125 174.230469 16.769531 174.523438 17.023438 174.800781 C 17.277344 175.078125 17.546875 175.339844 17.832031 175.582031 C 18.121094 175.828125 18.417969 176.054688 18.734375 176.261719 C 19.046875 176.46875 19.371094 176.65625 19.707031 176.828125 C 20.304688 177.121094 20.78125 177.554688 21.136719 178.121094 C 21.488281 178.6875 21.664062 179.304688 21.667969 179.972656 L 21.667969 187.496094 C 21.667969 188.101562 21.699219 188.707031 21.765625 189.308594 C 21.832031 189.910156 21.933594 190.507812 22.066406 191.097656 C 22.199219 191.6875 22.363281 192.269531 22.5625 192.84375 C 22.757812 193.417969 22.988281 193.976562 23.246094 194.523438 C 23.507812 195.070312 23.792969 195.605469 24.113281 196.121094 C 24.429688 196.636719 24.777344 197.132812 25.148438 197.609375 C 25.523438 198.085938 25.921875 198.542969 26.34375 198.976562 C 26.765625 199.410156 27.214844 199.816406 27.679688 200.203125 C 28.148438 200.585938 28.636719 200.941406 29.144531 201.273438 C 29.65625 201.601562 30.179688 201.90625 30.71875 202.175781 C 31.261719 202.449219 31.816406 202.691406 32.382812 202.902344 C 32.953125 203.113281 33.53125 203.289062 34.117188 203.4375 C 34.707031 203.585938 35.300781 203.699219 35.902344 203.777344 C 36.5 203.859375 37.105469 203.90625 37.710938 203.921875 C 38.316406 203.9375 38.921875 203.917969 39.523438 203.867188 C 40.128906 203.8125 40.726562 203.726562 41.320312 203.609375 L 55.53125 200.777344 C 56.449219 200.597656 57.375 200.488281 58.308594 200.445312 C 59.242188 200.398438 60.175781 200.417969 61.105469 200.507812 C 62.035156 200.59375 62.953125 200.746094 63.863281 200.960938 C 64.773438 201.179688 65.664062 201.460938 66.53125 201.800781 C 67.402344 202.144531 68.242188 202.546875 69.054688 203.011719 C 69.867188 203.472656 70.640625 203.992188 71.382812 204.5625 C 72.121094 205.136719 72.816406 205.757812 73.464844 206.425781 C 74.117188 207.097656 74.71875 207.8125 75.265625 208.566406 L 86.066406 223.6875 L 91.832031 219.574219 L 81.027344 204.449219 C 80.28125 203.417969 79.464844 202.445312 78.578125 201.527344 C 77.691406 200.613281 76.746094 199.765625 75.738281 198.984375 C 74.734375 198.203125 73.675781 197.5 72.570312 196.867188 C 71.464844 196.238281 70.316406 195.6875 69.132812 195.21875 C 67.949219 194.753906 66.738281 194.371094 65.5 194.074219 C 64.257812 193.777344 63.007812 193.570312 61.738281 193.453125 C 60.46875 193.335938 59.199219 193.308594 57.925781 193.367188 C 56.65625 193.429688 55.394531 193.582031 54.144531 193.824219 L 39.925781 196.65625 C 39.320312 196.78125 38.714844 196.84375 38.097656 196.84375 C 37.484375 196.84375 36.875 196.785156 36.273438 196.664062 C 35.671875 196.542969 35.089844 196.367188 34.523438 196.128906 C 33.953125 195.894531 33.417969 195.605469 32.90625 195.265625 C 32.394531 194.925781 31.925781 194.539062 31.488281 194.105469 C 31.054688 193.667969 30.667969 193.199219 30.328125 192.6875 C 29.988281 192.175781 29.699219 191.640625 29.464844 191.070312 C 29.226562 190.503906 29.050781 189.921875 28.929688 189.320312 C 28.808594 188.71875 28.75 188.109375 28.75 187.496094 L 28.75 179.972656 C 28.753906 178.988281 28.621094 178.019531 28.351562 177.066406 C 28.082031 176.117188 27.691406 175.222656 27.171875 174.382812 C 26.652344 173.542969 26.027344 172.792969 25.296875 172.128906 C 24.566406 171.460938 23.757812 170.910156 22.875 170.472656 C 22.503906 170.289062 22.207031 170.019531 21.988281 169.667969 C 21.769531 169.3125 21.664062 168.929688 21.664062 168.515625 C 21.664062 168.101562 21.769531 167.714844 21.988281 167.363281 C 22.207031 167.011719 22.503906 166.742188 22.875 166.554688 L 26.769531 164.601562 C 27.371094 164.300781 27.847656 163.867188 28.199219 163.296875 C 28.554688 162.726562 28.730469 162.105469 28.730469 161.433594 C 28.730469 160.761719 28.554688 160.140625 28.199219 159.570312 C 27.847656 158.996094 27.371094 158.5625 26.769531 158.261719 L 21.667969 155.703125 L 21.667969 143.726562 C 21.667969 143.050781 21.496094 142.425781 21.140625 141.851562 C 20.789062 141.277344 20.3125 140.839844 19.707031 140.539062 L 9.792969 135.582031 C 9.527344 135.449219 9.28125 135.289062 9.054688 135.105469 C 8.824219 134.921875 8.617188 134.714844 8.429688 134.488281 C 8.246094 134.257812 8.085938 134.011719 7.949219 133.75 C 7.816406 133.488281 7.714844 133.214844 7.636719 132.929688 C 7.5625 132.644531 7.519531 132.355469 7.503906 132.0625 C 7.492188 131.769531 7.507812 131.476562 7.554688 131.183594 C 7.605469 130.894531 7.683594 130.613281 7.789062 130.339844 C 7.898438 130.066406 8.035156 129.804688 8.199219 129.5625 L 25.945312 102.964844 C 26.761719 101.742188 27.402344 100.433594 27.871094 99.039062 C 28.34375 97.644531 28.621094 96.214844 28.714844 94.746094 C 28.804688 93.277344 28.703125 91.824219 28.40625 90.382812 C 28.113281 88.941406 27.636719 87.5625 26.976562 86.246094 C 25.800781 83.871094 25.207031 81.359375 25.207031 78.707031 C 25.207031 77.570312 25.238281 76.433594 25.296875 75.296875 C 25.351562 74.160156 25.4375 73.027344 25.550781 71.894531 C 25.664062 70.761719 25.804688 69.632812 25.972656 68.507812 C 26.140625 67.382812 26.335938 66.261719 26.558594 65.144531 C 26.78125 64.027344 27.03125 62.917969 27.308594 61.816406 C 27.585938 60.710938 27.890625 59.617188 28.21875 58.527344 C 28.550781 57.4375 28.910156 56.359375 29.292969 55.289062 C 29.675781 54.21875 30.085938 53.15625 30.523438 52.105469 C 30.960938 51.054688 31.421875 50.015625 31.90625 48.984375 C 32.394531 47.957031 32.90625 46.941406 33.445312 45.9375 C 33.980469 44.933594 34.542969 43.945312 35.128906 42.96875 C 35.710938 41.992188 36.320312 41.03125 36.953125 40.085938 C 37.585938 39.140625 38.242188 38.210938 38.917969 37.296875 C 39.597656 36.382812 40.296875 35.488281 41.019531 34.609375 C 41.742188 33.726562 42.484375 32.867188 43.25 32.023438 C 44.011719 31.179688 44.796875 30.355469 45.601562 29.550781 C 46.40625 28.746094 47.230469 27.964844 48.074219 27.199219 C 48.917969 26.433594 49.777344 25.691406 50.65625 24.96875 C 51.535156 24.246094 52.433594 23.546875 53.347656 22.871094 C 54.261719 22.191406 55.191406 21.535156 56.136719 20.902344 C 57.082031 20.269531 58.042969 19.664062 59.019531 19.078125 C 59.996094 18.492188 60.984375 17.929688 61.988281 17.394531 C 62.992188 16.855469 64.007812 16.34375 65.035156 15.859375 C 66.0625 15.371094 67.105469 14.910156 68.15625 14.472656 C 69.207031 14.039062 70.265625 13.628906 71.339844 13.242188 C 72.410156 12.859375 73.488281 12.5 74.578125 12.171875 C 75.667969 11.839844 76.761719 11.535156 77.867188 11.257812 C 78.96875 10.980469 80.078125 10.730469 81.195312 10.507812 C 82.3125 10.285156 83.429688 10.089844 84.558594 9.921875 C 85.683594 9.753906 86.8125 9.613281 87.945312 9.5 C 89.074219 9.386719 90.210938 9.300781 91.347656 9.246094 C 92.484375 9.1875 93.621094 9.160156 94.757812 9.15625 L 113.617188 9.15625 C 115.136719 9.15625 116.660156 9.210938 118.175781 9.304688 C 116.265625 10.226562 114.402344 11.230469 112.582031 12.316406 C 110.761719 13.402344 108.992188 14.570312 107.277344 15.816406 C 105.5625 17.0625 103.90625 18.382812 102.3125 19.777344 C 100.714844 21.171875 99.183594 22.636719 97.71875 24.167969 C 96.253906 25.703125 94.863281 27.296875 93.539062 28.957031 C 92.21875 30.613281 90.976562 32.328125 89.808594 34.097656 C 88.640625 35.867188 87.554688 37.6875 86.550781 39.554688 C 85.550781 41.421875 84.632812 43.332031 83.800781 45.28125 C 82.96875 47.230469 82.226562 49.214844 81.574219 51.230469 C 80.917969 53.246094 80.359375 55.289062 79.886719 57.355469 C 79.417969 59.425781 79.042969 61.507812 78.761719 63.609375 C 78.476562 65.710938 78.292969 67.820312 78.199219 69.9375 C 78.105469 72.058594 78.109375 74.175781 78.207031 76.292969 C 78.304688 78.410156 78.5 80.519531 78.785156 82.621094 C 79.074219 84.71875 79.457031 86.804688 79.929688 88.871094 C 80.40625 90.9375 80.972656 92.976562 81.632812 94.992188 C 82.289062 97.007812 83.039062 98.988281 83.875 100.9375 C 84.710938 102.882812 85.636719 104.789062 86.644531 106.65625 C 87.652344 108.519531 88.742188 110.335938 89.914062 112.101562 C 91.085938 113.871094 92.335938 115.578125 93.660156 117.234375 C 94.984375 118.890625 96.382812 120.480469 97.851562 122.007812 C 99.320312 123.539062 100.855469 124.996094 102.457031 126.386719 C 104.054688 127.777344 105.714844 129.09375 107.433594 130.335938 C 109.152344 131.578125 110.921875 132.738281 112.746094 133.824219 C 114.570312 134.90625 116.4375 135.902344 118.351562 136.816406 C 120.261719 137.730469 122.210938 138.558594 124.199219 139.296875 C 126.1875 140.035156 128.203125 140.683594 130.25 141.242188 C 132.292969 141.796875 134.359375 142.261719 136.449219 142.632812 C 138.535156 143.003906 140.632812 143.28125 142.746094 143.464844 C 144.859375 143.648438 146.976562 143.734375 149.09375 143.726562 C 151.214844 143.71875 153.332031 143.617188 155.441406 143.417969 C 157.550781 143.222656 159.648438 142.929688 161.734375 142.542969 L 160.378906 145.257812 C 159.230469 147.554688 158.316406 149.941406 157.636719 152.417969 C 156.960938 154.894531 156.53125 157.410156 156.347656 159.972656 C 156.164062 162.535156 156.234375 165.085938 156.554688 167.632812 C 156.875 170.183594 157.441406 172.671875 158.253906 175.109375 L 174.136719 222.753906 L 180.863281 220.515625 L 164.960938 172.867188 C 164.296875 170.875 163.832031 168.832031 163.570312 166.75 C 163.308594 164.664062 163.25 162.574219 163.398438 160.476562 C 163.546875 158.378906 163.902344 156.320312 164.457031 154.292969 C 165.011719 152.265625 165.757812 150.3125 166.699219 148.433594 L 170.753906 140.332031 C 172.742188 139.695312 174.699219 138.96875 176.625 138.15625 C 178.550781 137.34375 180.4375 136.449219 182.28125 135.46875 C 184.128906 134.492188 185.925781 133.433594 187.679688 132.296875 C 189.429688 131.15625 191.128906 129.945312 192.773438 128.65625 C 194.417969 127.367188 196.003906 126.007812 197.527344 124.578125 C 199.050781 123.152344 200.511719 121.65625 201.902344 120.101562 C 203.292969 118.542969 204.617188 116.925781 205.863281 115.25 C 207.113281 113.578125 208.285156 111.851562 209.382812 110.070312 C 210.480469 108.292969 211.496094 106.46875 212.429688 104.601562 C 213.367188 102.734375 214.21875 100.828125 214.984375 98.882812 C 215.75 96.941406 216.429688 94.96875 217.019531 92.964844 C 217.613281 90.960938 218.113281 88.933594 218.527344 86.886719 C 218.941406 84.835938 219.261719 82.773438 219.492188 80.699219 C 219.722656 78.621094 219.859375 76.539062 219.90625 74.449219 C 219.949219 72.363281 219.902344 70.273438 219.765625 68.191406 C 219.625 66.105469 219.394531 64.03125 219.074219 61.96875 C 218.75 59.902344 218.335938 57.855469 217.835938 55.828125 C 217.332031 53.800781 216.738281 51.800781 216.058594 49.824219 C 215.375 47.847656 214.609375 45.90625 213.757812 44 C 212.90625 42.09375 211.96875 40.226562 210.953125 38.402344 C 209.933594 36.578125 208.839844 34.800781 207.664062 33.074219 C 206.488281 31.347656 205.238281 29.675781 203.917969 28.058594 C 202.59375 26.441406 201.203125 24.882812 199.742188 23.390625 C 198.28125 21.894531 196.757812 20.46875 195.171875 19.109375 C 193.585938 17.75 191.941406 16.464844 190.242188 15.25 C 188.539062 14.039062 186.789062 12.902344 184.988281 11.84375 C 183.1875 10.785156 181.34375 9.804688 179.453125 8.910156 C 177.566406 8.015625 175.644531 7.203125 173.683594 6.480469 C 171.726562 5.753906 169.738281 5.117188 167.722656 4.566406 C 165.707031 4.019531 163.671875 3.558594 161.613281 3.191406 C 159.558594 2.820312 157.488281 2.542969 155.40625 2.355469 C 153.328125 2.171875 151.242188 2.078125 149.152344 2.074219 Z M 149.152344 136.644531 C 148.109375 136.644531 147.066406 136.617188 146.023438 136.566406 C 144.984375 136.515625 143.941406 136.4375 142.90625 136.335938 C 141.867188 136.234375 140.832031 136.105469 139.800781 135.953125 C 138.765625 135.800781 137.738281 135.621094 136.714844 135.417969 C 135.695312 135.214844 134.675781 134.988281 133.664062 134.734375 C 132.652344 134.480469 131.648438 134.203125 130.648438 133.898438 C 129.648438 133.597656 128.660156 133.269531 127.679688 132.917969 C 126.695312 132.566406 125.722656 132.191406 124.757812 131.792969 C 123.796875 131.390625 122.839844 130.96875 121.898438 130.523438 C 120.957031 130.078125 120.023438 129.609375 119.105469 129.117188 C 118.183594 128.625 117.277344 128.109375 116.382812 127.574219 C 115.488281 127.039062 114.605469 126.480469 113.738281 125.902344 C 112.871094 125.320312 112.019531 124.71875 111.179688 124.097656 C 110.34375 123.476562 109.519531 122.835938 108.714844 122.175781 C 107.90625 121.511719 107.117188 120.832031 106.34375 120.128906 C 105.570312 119.429688 104.816406 118.710938 104.078125 117.972656 C 103.339844 117.234375 102.621094 116.480469 101.921875 115.707031 C 101.222656 114.933594 100.539062 114.144531 99.878906 113.339844 C 99.214844 112.53125 98.574219 111.710938 97.953125 110.871094 C 97.332031 110.035156 96.730469 109.179688 96.152344 108.3125 C 95.570312 107.445312 95.015625 106.566406 94.476562 105.671875 C 93.941406 104.777344 93.425781 103.867188 92.9375 102.949219 C 92.445312 102.027344 91.976562 101.097656 91.527344 100.152344 C 91.082031 99.210938 90.660156 98.257812 90.261719 97.292969 C 89.863281 96.328125 89.488281 95.355469 89.136719 94.375 C 88.785156 93.390625 88.457031 92.402344 88.152344 91.402344 C 87.851562 90.40625 87.574219 89.402344 87.320312 88.386719 C 87.066406 87.375 86.835938 86.359375 86.632812 85.335938 C 86.429688 84.3125 86.253906 83.285156 86.097656 82.253906 C 85.945312 81.222656 85.820312 80.1875 85.714844 79.148438 C 85.613281 78.109375 85.539062 77.070312 85.484375 76.027344 C 85.433594 74.984375 85.410156 73.945312 85.410156 72.898438 C 85.410156 71.855469 85.433594 70.816406 85.484375 69.773438 C 85.539062 68.730469 85.613281 67.691406 85.714844 66.652344 C 85.820312 65.613281 85.945312 64.578125 86.097656 63.546875 C 86.253906 62.515625 86.429688 61.488281 86.632812 60.464844 C 86.835938 59.441406 87.066406 58.425781 87.320312 57.410156 C 87.574219 56.398438 87.851562 55.394531 88.152344 54.398438 C 88.457031 53.398438 88.785156 52.410156 89.136719 51.425781 C 89.488281 50.445312 89.863281 49.472656 90.261719 48.507812 C 90.660156 47.542969 91.082031 46.589844 91.527344 45.648438 C 91.976562 44.703125 92.445312 43.773438 92.9375 42.851562 C 93.425781 41.933594 93.941406 41.023438 94.476562 40.128906 C 95.015625 39.234375 95.574219 38.355469 96.152344 37.488281 C 96.730469 36.621094 97.332031 35.765625 97.953125 34.929688 C 98.574219 34.089844 99.214844 33.269531 99.878906 32.460938 C 100.539062 31.65625 101.222656 30.867188 101.921875 30.09375 C 102.621094 29.320312 103.339844 28.566406 104.078125 27.828125 C 104.816406 27.089844 105.570312 26.371094 106.34375 25.667969 C 107.117188 24.96875 107.90625 24.289062 108.714844 23.625 C 109.519531 22.964844 110.34375 22.324219 111.179688 21.703125 C 112.019531 21.078125 112.871094 20.480469 113.738281 19.898438 C 114.605469 19.320312 115.488281 18.761719 116.382812 18.226562 C 117.277344 17.691406 118.183594 17.175781 119.105469 16.683594 C 120.023438 16.191406 120.957031 15.722656 121.898438 15.277344 C 122.839844 14.832031 123.796875 14.410156 124.757812 14.007812 C 125.722656 13.609375 126.695312 13.234375 127.679688 12.882812 C 128.660156 12.53125 129.648438 12.203125 130.648438 11.902344 C 131.648438 11.597656 132.652344 11.320312 133.664062 11.066406 C 134.675781 10.8125 135.695312 10.585938 136.714844 10.382812 C 137.738281 10.179688 138.765625 10 139.800781 9.847656 C 140.832031 9.695312 141.867188 9.566406 142.90625 9.464844 C 143.941406 9.363281 144.984375 9.285156 146.023438 9.234375 C 147.066406 9.183594 148.109375 9.15625 149.152344 9.15625 C 150.195312 9.15625 151.238281 9.183594 152.28125 9.234375 C 153.320312 9.285156 154.363281 9.363281 155.398438 9.464844 C 156.4375 9.566406 157.472656 9.695312 158.503906 9.847656 C 159.539062 10 160.566406 10.179688 161.585938 10.382812 C 162.609375 10.585938 163.628906 10.8125 164.640625 11.066406 C 165.652344 11.320312 166.65625 11.597656 167.65625 11.902344 C 168.652344 12.203125 169.644531 12.53125 170.625 12.882812 C 171.609375 13.234375 172.582031 13.609375 173.546875 14.007812 C 174.507812 14.410156 175.460938 14.832031 176.40625 15.277344 C 177.347656 15.722656 178.28125 16.191406 179.199219 16.683594 C 180.121094 17.175781 181.027344 17.691406 181.921875 18.226562 C 182.816406 18.761719 183.699219 19.320312 184.566406 19.898438 C 185.433594 20.480469 186.285156 21.078125 187.125 21.703125 C 187.960938 22.324219 188.785156 22.964844 189.589844 23.625 C 190.398438 24.289062 191.1875 24.96875 191.960938 25.667969 C 192.730469 26.371094 193.488281 27.089844 194.226562 27.828125 C 194.964844 28.566406 195.683594 29.320312 196.382812 30.09375 C 197.082031 30.867188 197.765625 31.65625 198.425781 32.460938 C 199.089844 33.269531 199.730469 34.089844 200.351562 34.929688 C 200.972656 35.765625 201.574219 36.621094 202.152344 37.488281 C 202.730469 38.355469 203.289062 39.234375 203.828125 40.128906 C 204.363281 41.023438 204.875 41.933594 205.367188 42.851562 C 205.859375 43.773438 206.328125 44.703125 206.773438 45.648438 C 207.222656 46.589844 207.644531 47.542969 208.042969 48.507812 C 208.441406 49.472656 208.816406 50.445312 209.167969 51.425781 C 209.519531 52.40625 209.847656 53.398438 210.152344 54.398438 C 210.453125 55.394531 210.730469 56.398438 210.984375 57.410156 C 211.238281 58.425781 211.46875 59.441406 211.671875 60.464844 C 211.875 61.488281 212.050781 62.515625 212.207031 63.546875 C 212.359375 64.578125 212.484375 65.613281 212.589844 66.652344 C 212.691406 67.691406 212.765625 68.730469 212.820312 69.773438 C 212.871094 70.816406 212.894531 71.855469 212.894531 72.898438 C 212.894531 73.941406 212.867188 74.984375 212.816406 76.027344 C 212.761719 77.070312 212.683594 78.109375 212.582031 79.144531 C 212.476562 80.183594 212.347656 81.21875 212.195312 82.25 C 212.042969 83.28125 211.863281 84.308594 211.65625 85.332031 C 211.453125 86.351562 211.222656 87.371094 210.96875 88.382812 C 210.714844 89.394531 210.4375 90.398438 210.132812 91.394531 C 209.832031 92.394531 209.503906 93.382812 209.152344 94.363281 C 208.796875 95.347656 208.421875 96.320312 208.023438 97.28125 C 207.625 98.246094 207.199219 99.199219 206.753906 100.140625 C 206.308594 101.082031 205.839844 102.015625 205.347656 102.933594 C 204.855469 103.851562 204.339844 104.761719 203.804688 105.65625 C 203.265625 106.550781 202.710938 107.429688 202.128906 108.296875 C 201.550781 109.164062 200.949219 110.015625 200.328125 110.851562 C 199.707031 111.691406 199.066406 112.511719 198.402344 113.320312 C 197.742188 114.125 197.0625 114.914062 196.359375 115.6875 C 195.660156 116.460938 194.941406 117.214844 194.203125 117.953125 C 193.464844 118.6875 192.710938 119.40625 191.9375 120.109375 C 191.164062 120.808594 190.375 121.488281 189.570312 122.152344 C 188.765625 122.8125 187.941406 123.453125 187.105469 124.078125 C 186.265625 124.699219 185.414062 125.296875 184.546875 125.878906 C 183.679688 126.457031 182.800781 127.015625 181.90625 127.550781 C 181.011719 128.089844 180.105469 128.601562 179.1875 129.09375 C 178.265625 129.585938 177.335938 130.054688 176.394531 130.503906 C 175.449219 130.949219 174.496094 131.371094 173.535156 131.769531 C 172.570312 132.171875 171.597656 132.546875 170.617188 132.898438 C 169.636719 133.25 168.644531 133.578125 167.648438 133.882812 C 166.648438 134.183594 165.644531 134.464844 164.632812 134.71875 C 163.621094 134.972656 162.605469 135.203125 161.582031 135.40625 C 160.558594 135.609375 159.53125 135.789062 158.5 135.945312 C 157.46875 136.097656 156.433594 136.226562 155.398438 136.328125 C 154.359375 136.433594 153.320312 136.511719 152.277344 136.5625 C 151.238281 136.617188 150.195312 136.640625 149.152344 136.644531 Z M 149.152344 136.644531 " fill-opacity="1" fill-rule="nonzero"/></g><path fill="#4d8d80" d="M 149.152344 16.238281 C 147.296875 16.238281 145.445312 16.332031 143.597656 16.511719 C 141.75 16.695312 139.917969 16.964844 138.097656 17.328125 C 136.277344 17.691406 134.480469 18.140625 132.703125 18.679688 C 130.929688 19.21875 129.183594 19.84375 127.46875 20.554688 C 125.753906 21.261719 124.078125 22.054688 122.441406 22.929688 C 120.804688 23.804688 119.214844 24.757812 117.671875 25.789062 C 116.128906 26.820312 114.640625 27.925781 113.207031 29.101562 C 111.773438 30.277344 110.398438 31.523438 109.085938 32.835938 C 107.773438 34.148438 106.53125 35.519531 105.351562 36.957031 C 104.175781 38.390625 103.070312 39.878906 102.039062 41.421875 C 101.011719 42.964844 100.058594 44.554688 99.183594 46.191406 C 98.308594 47.828125 97.515625 49.503906 96.804688 51.21875 C 96.09375 52.933594 95.46875 54.675781 94.929688 56.453125 C 94.394531 58.226562 93.941406 60.027344 93.582031 61.847656 C 93.21875 63.667969 92.945312 65.5 92.765625 67.347656 C 92.582031 69.195312 92.492188 71.042969 92.492188 72.898438 C 92.492188 74.757812 92.582031 76.605469 92.765625 78.453125 C 92.945312 80.300781 93.21875 82.132812 93.582031 83.953125 C 93.941406 85.773438 94.394531 87.570312 94.929688 89.347656 C 95.46875 91.125 96.09375 92.867188 96.804688 94.582031 C 97.515625 96.296875 98.308594 97.972656 99.183594 99.609375 C 100.058594 101.246094 101.011719 102.835938 102.039062 104.378906 C 103.070312 105.921875 104.175781 107.410156 105.351562 108.84375 C 106.53125 110.28125 107.773438 111.652344 109.085938 112.964844 C 110.398438 114.277344 111.773438 115.523438 113.207031 116.699219 C 114.640625 117.875 116.128906 118.980469 117.671875 120.011719 C 119.214844 121.042969 120.804688 121.996094 122.441406 122.871094 C 124.078125 123.746094 125.753906 124.539062 127.46875 125.246094 C 129.183594 125.957031 130.929688 126.582031 132.703125 127.121094 C 134.480469 127.660156 136.277344 128.109375 138.097656 128.472656 C 139.917969 128.835938 141.75 129.105469 143.597656 129.289062 C 145.445312 129.46875 147.296875 129.5625 149.152344 129.5625 C 151.007812 129.5625 152.859375 129.46875 154.707031 129.289062 C 156.550781 129.105469 158.386719 128.835938 160.207031 128.472656 C 162.027344 128.109375 163.824219 127.660156 165.601562 127.121094 C 167.375 126.582031 169.121094 125.957031 170.835938 125.246094 C 172.550781 124.539062 174.226562 123.746094 175.863281 122.871094 C 177.5 121.996094 179.089844 121.042969 180.632812 120.011719 C 182.175781 118.980469 183.664062 117.875 185.097656 116.699219 C 186.53125 115.523438 187.90625 114.277344 189.21875 112.964844 C 190.53125 111.652344 191.773438 110.28125 192.953125 108.84375 C 194.128906 107.410156 195.234375 105.921875 196.261719 104.378906 C 197.292969 102.835938 198.246094 101.246094 199.121094 99.609375 C 199.996094 97.972656 200.789062 96.296875 201.5 94.582031 C 202.210938 92.867188 202.835938 91.125 203.371094 89.347656 C 203.910156 87.570312 204.363281 85.773438 204.722656 83.953125 C 205.085938 82.132812 205.359375 80.300781 205.539062 78.453125 C 205.722656 76.605469 205.8125 74.757812 205.8125 72.898438 C 205.808594 71.046875 205.71875 69.195312 205.535156 67.347656 C 205.351562 65.503906 205.078125 63.671875 204.710938 61.851562 C 204.347656 60.03125 203.898438 58.234375 203.359375 56.460938 C 202.816406 54.683594 202.191406 52.941406 201.480469 51.226562 C 200.769531 49.515625 199.976562 47.839844 199.101562 46.203125 C 198.226562 44.570312 197.273438 42.980469 196.242188 41.4375 C 195.210938 39.894531 194.109375 38.40625 192.929688 36.972656 C 191.753906 35.539062 190.507812 34.167969 189.199219 32.855469 C 187.886719 31.542969 186.511719 30.300781 185.078125 29.121094 C 183.644531 27.945312 182.15625 26.839844 180.613281 25.808594 C 179.074219 24.777344 177.484375 23.824219 175.847656 22.949219 C 174.210938 22.074219 172.539062 21.28125 170.824219 20.570312 C 169.113281 19.859375 167.367188 19.234375 165.59375 18.695312 C 163.816406 18.15625 162.019531 17.703125 160.203125 17.339844 C 158.382812 16.976562 156.550781 16.703125 154.703125 16.519531 C 152.859375 16.335938 151.007812 16.242188 149.152344 16.238281 Z M 198.550781 76.441406 C 198.363281 79.089844 197.964844 81.710938 197.355469 84.292969 C 196.742188 86.878906 195.929688 89.398438 194.914062 91.855469 C 193.894531 94.308594 192.6875 96.664062 191.289062 98.921875 C 189.890625 101.179688 188.320312 103.3125 186.578125 105.316406 L 181.703125 100.445312 L 176.695312 105.453125 L 181.570312 110.324219 C 179.5625 112.066406 177.433594 113.636719 175.175781 115.035156 C 172.914062 116.433594 170.558594 117.644531 168.105469 118.660156 C 165.652344 119.679688 163.132812 120.492188 160.546875 121.101562 C 157.960938 121.710938 155.34375 122.109375 152.695312 122.296875 L 152.695312 115.394531 L 145.609375 115.394531 L 145.609375 122.296875 C 142.960938 122.109375 140.34375 121.710938 137.757812 121.101562 C 135.171875 120.492188 132.652344 119.679688 130.199219 118.660156 C 127.746094 117.644531 125.390625 116.433594 123.128906 115.035156 C 120.871094 113.636719 118.738281 112.066406 116.734375 110.324219 L 121.609375 105.453125 L 116.601562 100.445312 L 111.726562 105.316406 C 109.984375 103.3125 108.414062 101.179688 107.015625 98.921875 C 105.617188 96.664062 104.410156 94.308594 103.390625 91.855469 C 102.375 89.398438 101.558594 86.878906 100.949219 84.292969 C 100.339844 81.710938 99.941406 79.089844 99.753906 76.441406 L 106.65625 76.441406 L 106.65625 69.359375 L 99.753906 69.359375 C 99.941406 66.710938 100.339844 64.089844 100.949219 61.507812 C 101.558594 58.921875 102.375 56.402344 103.390625 53.945312 C 104.410156 51.492188 105.617188 49.136719 107.015625 46.878906 C 108.414062 44.621094 109.984375 42.488281 111.726562 40.484375 L 116.601562 45.355469 L 121.609375 40.347656 L 116.734375 35.476562 C 118.738281 33.734375 120.871094 32.164062 123.128906 30.765625 C 125.390625 29.367188 127.746094 28.15625 130.199219 27.140625 C 132.652344 26.121094 135.171875 25.308594 137.757812 24.699219 C 140.34375 24.089844 142.960938 23.691406 145.609375 23.503906 L 145.609375 30.40625 L 152.695312 30.40625 L 152.695312 23.503906 C 155.34375 23.691406 157.960938 24.089844 160.546875 24.699219 C 163.132812 25.308594 165.652344 26.121094 168.105469 27.140625 C 170.558594 28.15625 172.914062 29.367188 175.175781 30.765625 C 177.433594 32.164062 179.5625 33.734375 181.570312 35.476562 L 176.695312 40.347656 L 181.703125 45.355469 L 186.578125 40.484375 C 188.320312 42.488281 189.890625 44.621094 191.289062 46.878906 C 192.6875 49.136719 193.894531 51.492188 194.914062 53.945312 C 195.929688 56.402344 196.742188 58.921875 197.355469 61.507812 C 197.964844 64.089844 198.363281 66.710938 198.550781 69.359375 L 191.648438 69.359375 L 191.648438 76.441406 Z M 198.550781 76.441406 " fill-opacity="1" fill-rule="nonzero"/><path fill="#4d8d80" d="M 152.695312 37.488281 L 145.609375 37.488281 L 145.609375 72.898438 C 145.609375 73.878906 145.957031 74.710938 146.648438 75.402344 L 171.4375 100.191406 L 176.445312 95.1875 L 152.695312 71.433594 Z M 152.695312 37.488281 " fill-opacity="1" fill-rule="nonzero"/><g fill="#000000" fill-opacity="1"><g transform="translate(167.878594, 210.371251)"><g><path d="M 0.890625 -0.625 C 0.890625 -0.882812 0.945312 -1.082031 1.0625 -1.21875 C 1.1875 -1.351562 1.359375 -1.421875 1.578125 -1.421875 C 1.804688 -1.421875 1.984375 -1.351562 2.109375 -1.21875 C 2.234375 -1.082031 2.296875 -0.882812 2.296875 -0.625 C 2.296875 -0.363281 2.226562 -0.164062 2.09375 -0.03125 C 1.96875 0.101562 1.796875 0.171875 1.578125 0.171875 C 1.378906 0.171875 1.210938 0.109375 1.078125 -0.015625 C 0.953125 -0.140625 0.890625 -0.34375 0.890625 -0.625 Z M 0.890625 -0.625 "/></g></g></g></svg>