<svg xmlns="http://www.w3.org/2000/svg" xmlns:xlink="http://www.w3.org/1999/xlink" width="257" zoomAndPan="magnify" viewBox="0 0 192.75 234.749994" height="313" preserveAspectRatio="xMidYMid meet" version="1.0"><defs><g/><clipPath id="a465485a62"><path d="M 1 0.457031 L 191 0.457031 L 191 230.40625 L 1 230.40625 Z M 1 0.457031 " clip-rule="nonzero"/></clipPath></defs><g clip-path="url(#a465485a62)"><path fill="#4d8d80" d="M 186.144531 61.023438 C 181.867188 52.066406 172.671875 46.441406 169.1875 44.558594 L 169.195312 31.113281 C 169.199219 24.320312 165.1875 18.253906 158.972656 15.667969 C 153.308594 13.300781 144.726562 10.5 135.800781 13.625 C 135.40625 13.761719 135.078125 14.003906 134.722656 14.203125 C 133.460938 11.105469 130.988281 8.636719 127.765625 7.570312 C 120.289062 5.101562 112.730469 5.101562 105.277344 7.578125 C 103.796875 8.066406 102.488281 8.878906 101.359375 9.882812 C 100.164062 6.582031 97.597656 3.921875 94.203125 2.777344 C 86.753906 0.320312 79.203125 0.324219 71.738281 2.785156 C 67.015625 4.371094 63.84375 8.898438 63.84375 14.035156 L 63.839844 15.335938 C 58.628906 15.203125 46.664062 15.371094 39.105469 19.269531 C 31.527344 23.171875 30.042969 34.363281 30.207031 51.109375 C 27.652344 51.910156 25.144531 52.734375 22.800781 53.5625 C 18.4375 55.105469 14.988281 58.640625 12.550781 64.070312 C 3.3125 84.636719 1 103.96875 1.824219 114.269531 C 3.292969 132.648438 12.6875 147.816406 31.386719 161.996094 C 50.527344 176.519531 49.40625 227.679688 49.394531 228.191406 C 49.359375 229.515625 50.402344 230.613281 51.722656 230.648438 L 51.785156 230.648438 C 53.078125 230.648438 54.140625 229.621094 54.175781 228.324219 C 54.234375 226.117188 55.371094 174.191406 34.277344 158.1875 C 16.503906 144.703125 7.964844 131.039062 6.59375 113.886719 C 5.8125 104.148438 8.046875 85.773438 16.914062 66.03125 C 18.824219 61.78125 21.269531 59.175781 24.394531 58.074219 C 41.824219 51.917969 55.386719 49.414062 61.578125 51.171875 C 68.214844 53.066406 70.859375 57.304688 71.90625 60.527344 C 73.515625 65.464844 72.484375 71.679688 69.398438 75.636719 C 63.675781 82.972656 42.546875 95.03125 42.335938 95.152344 C 41.457031 95.652344 40.988281 96.648438 41.160156 97.644531 C 41.335938 98.636719 42.117188 99.417969 43.113281 99.589844 C 43.273438 99.617188 59.363281 102.429688 75.886719 110.164062 C 105.921875 124.214844 115.507812 143.914062 115.601562 144.109375 C 116.167969 145.304688 117.582031 145.816406 118.785156 145.253906 C 119.976562 144.695312 120.488281 143.273438 119.933594 142.078125 C 119.527344 141.214844 109.636719 120.667969 77.914062 105.828125 C 66.960938 100.703125 56.375 97.699219 50 96.167969 C 54.144531 93.632812 59.992188 89.882812 64.992188 86.066406 C 66.972656 91.167969 71.253906 95.042969 76.601562 96.171875 C 78.699219 96.609375 80.8125 96.832031 82.929688 96.832031 C 85.042969 96.832031 87.164062 96.609375 89.269531 96.171875 C 93.734375 95.210938 97.429688 92.324219 99.691406 88.480469 C 101.949219 92.339844 105.65625 95.21875 110.132812 96.152344 C 112.234375 96.59375 114.351562 96.8125 116.472656 96.8125 C 118.589844 96.8125 120.703125 96.59375 122.804688 96.152344 C 128.378906 94.992188 132.800781 90.835938 134.65625 85.492188 C 136.917969 88.300781 140.058594 90.34375 143.699219 91.101562 C 145.800781 91.542969 147.914062 91.761719 150.035156 91.761719 C 152.152344 91.761719 154.269531 91.542969 156.371094 91.101562 C 163.785156 89.5625 169.167969 82.710938 169.167969 74.824219 L 169.183594 50.121094 C 172.949219 52.472656 178.875 56.910156 181.828125 63.089844 C 185.417969 70.609375 186.671875 90.285156 185.265625 117.070312 C 184.359375 134.1875 178.46875 150.84375 167.246094 167.988281 C 167.007812 168.347656 166.871094 168.761719 166.855469 169.195312 L 164.410156 228.160156 C 164.359375 229.476562 165.382812 230.59375 166.703125 230.648438 L 166.800781 230.648438 C 168.078125 230.648438 169.136719 229.640625 169.195312 228.355469 L 171.609375 170.050781 C 183.070312 152.375 189.101562 135.117188 190.039062 117.324219 C 190.890625 101.128906 191.515625 72.28125 186.144531 61.023438 Z M 63.800781 46.941406 C 63.484375 46.835938 63.21875 46.667969 62.890625 46.574219 C 56.296875 44.679688 45.449219 46.691406 34.992188 49.671875 C 34.9375 33.347656 36.738281 25.871094 41.296875 23.519531 C 47.890625 20.117188 59.097656 20 63.835938 20.125 Z M 97.28125 79.863281 C 97.28125 85.476562 93.492188 90.371094 88.277344 91.492188 C 84.722656 92.238281 81.128906 92.238281 77.589844 91.492188 C 73.34375 90.597656 70.035156 87.207031 68.957031 82.847656 C 70.65625 81.363281 72.128906 79.914062 73.167969 78.578125 C 77.242188 73.359375 78.5625 65.507812 76.457031 59.042969 C 75.089844 54.851562 72.316406 51.535156 68.582031 49.191406 L 68.625 14.042969 C 68.625 11 70.535156 8.234375 73.25 7.320312 C 79.699219 5.199219 86.246094 5.203125 92.691406 7.316406 C 95.421875 8.234375 97.328125 11 97.328125 14.042969 Z M 130.816406 79.871094 C 130.816406 85.507812 127.039062 90.386719 121.835938 91.472656 C 118.269531 92.210938 114.65625 92.210938 111.105469 91.472656 C 105.898438 90.382812 102.121094 85.507812 102.121094 79.871094 L 102.0625 79.871094 L 102.066406 79.863281 L 102.109375 18.835938 L 102.167969 18.835938 C 102.171875 15.773438 104.070312 13.015625 106.78125 12.117188 C 113.238281 9.976562 119.800781 9.980469 126.261719 12.113281 C 128.976562 13.007812 130.875 15.78125 130.875 18.84375 Z M 164.382812 74.824219 C 164.382812 80.457031 160.601562 85.339844 155.398438 86.421875 C 151.84375 87.160156 148.234375 87.160156 144.667969 86.421875 C 139.460938 85.332031 135.679688 80.457031 135.679688 74.824219 L 135.605469 74.824219 L 135.65625 20.449219 L 135.714844 20.449219 C 135.714844 19.417969 136.382812 18.488281 137.382812 18.136719 C 143.0625 16.144531 149.160156 16.742188 157.132812 20.082031 C 161.554688 21.925781 164.414062 26.253906 164.410156 31.105469 Z M 164.382812 74.824219 " fill-opacity="1" fill-rule="nonzero"/></g><g fill="#000000" fill-opacity="1"><g transform="translate(161.04112, 228.009974)"><g><path d="M 0.890625 -0.625 C 0.890625 -0.882812 0.945312 -1.082031 1.0625 -1.21875 C 1.1875 -1.351562 1.359375 -1.421875 1.578125 -1.421875 C 1.804688 -1.421875 1.984375 -1.351562 2.109375 -1.21875 C 2.234375 -1.082031 2.296875 -0.882812 2.296875 -0.625 C 2.296875 -0.363281 2.226562 -0.164062 2.09375 -0.03125 C 1.96875 0.101562 1.796875 0.171875 1.578125 0.171875 C 1.378906 0.171875 1.210938 0.109375 1.078125 -0.015625 C 0.953125 -0.140625 0.890625 -0.34375 0.890625 -0.625 Z M 0.890625 -0.625 "/></g></g></g></svg>