<svg xmlns="http://www.w3.org/2000/svg" xmlns:xlink="http://www.w3.org/1999/xlink" width="345" zoomAndPan="magnify" viewBox="0 0 258.75 227.249992" height="303" preserveAspectRatio="xMidYMid meet" version="1.0"><defs><g/><clipPath id="5949b1c38c"><path d="M 0.300781 6 L 70 6 L 70 152 L 0.300781 152 Z M 0.300781 6 " clip-rule="nonzero"/></clipPath><clipPath id="c3446588d4"><path d="M 35 192 L 121 192 L 121 226.503906 L 35 226.503906 Z M 35 192 " clip-rule="nonzero"/></clipPath><clipPath id="e85356ffa7"><path d="M 205 42 L 229.792969 42 L 229.792969 133 L 205 133 Z M 205 42 " clip-rule="nonzero"/></clipPath></defs><g clip-path="url(#5949b1c38c)"><path fill="#05738c" d="M 8.285156 151.253906 C 7.796875 151.253906 7.339844 150.953125 7.164062 150.46875 C 5.667969 146.34375 4.394531 142.085938 3.386719 137.8125 C 3.234375 137.171875 3.628906 136.527344 4.273438 136.378906 C 4.914062 136.226562 5.554688 136.621094 5.707031 137.261719 C 6.695312 141.445312 7.941406 145.613281 9.40625 149.652344 C 9.632812 150.273438 9.3125 150.957031 8.691406 151.183594 C 8.558594 151.230469 8.421875 151.253906 8.285156 151.253906 Z M 2.277344 125.859375 C 1.679688 125.859375 1.164062 125.414062 1.09375 124.804688 C 0.582031 120.460938 0.316406 116.027344 0.304688 111.625 C 0.300781 110.964844 0.835938 110.429688 1.492188 110.429688 C 1.496094 110.429688 1.496094 110.429688 1.496094 110.429688 C 2.152344 110.429688 2.6875 110.960938 2.691406 111.617188 C 2.703125 115.929688 2.960938 120.273438 3.460938 124.527344 C 3.539062 125.183594 3.070312 125.773438 2.417969 125.851562 C 2.371094 125.859375 2.324219 125.859375 2.277344 125.859375 Z M 2.199219 99.765625 C 2.15625 99.765625 2.109375 99.761719 2.066406 99.757812 C 1.410156 99.683594 0.9375 99.09375 1.011719 98.441406 C 1.496094 94.074219 2.242188 89.691406 3.222656 85.421875 C 3.371094 84.78125 4.011719 84.378906 4.652344 84.527344 C 5.292969 84.675781 5.695312 85.3125 5.546875 85.957031 C 4.585938 90.136719 3.859375 94.425781 3.382812 98.703125 C 3.316406 99.3125 2.796875 99.765625 2.199219 99.765625 Z M 8.046875 74.328125 C 7.914062 74.328125 7.78125 74.308594 7.648438 74.261719 C 7.027344 74.039062 6.703125 73.355469 6.925781 72.738281 C 8.394531 68.601562 10.125 64.507812 12.066406 60.566406 C 12.359375 59.976562 13.074219 59.734375 13.664062 60.023438 C 14.257812 60.316406 14.5 61.03125 14.207031 61.621094 C 12.308594 65.480469 10.613281 69.488281 9.171875 73.535156 C 9 74.023438 8.539062 74.328125 8.046875 74.328125 Z M 19.578125 50.914062 C 19.359375 50.914062 19.132812 50.851562 18.933594 50.722656 C 18.378906 50.363281 18.222656 49.625 18.578125 49.074219 C 20.957031 45.386719 23.574219 41.796875 26.363281 38.402344 C 26.78125 37.894531 27.53125 37.820312 28.042969 38.238281 C 28.550781 38.65625 28.625 39.410156 28.207031 39.917969 C 25.476562 43.242188 22.910156 46.757812 20.582031 50.367188 C 20.355469 50.71875 19.972656 50.914062 19.578125 50.914062 Z M 36.140625 30.742188 C 35.832031 30.742188 35.519531 30.621094 35.285156 30.378906 C 34.828125 29.90625 34.839844 29.152344 35.3125 28.695312 C 38.46875 25.640625 41.832031 22.738281 45.3125 20.070312 C 45.832031 19.667969 46.582031 19.765625 46.984375 20.289062 C 47.382812 20.8125 47.285156 21.5625 46.761719 21.960938 C 43.355469 24.578125 40.0625 27.417969 36.972656 30.40625 C 36.738281 30.632812 36.441406 30.742188 36.140625 30.742188 Z M 56.84375 14.863281 C 56.4375 14.863281 56.042969 14.65625 55.816406 14.28125 C 55.480469 13.71875 55.664062 12.984375 56.226562 12.644531 C 59.992188 10.390625 63.929688 8.328125 67.921875 6.523438 C 68.523438 6.253906 69.230469 6.519531 69.5 7.121094 C 69.773438 7.722656 69.503906 8.425781 68.90625 8.699219 C 64.996094 10.464844 61.140625 12.484375 57.453125 14.691406 C 57.261719 14.808594 57.050781 14.863281 56.84375 14.863281 Z M 56.84375 14.863281 " fill-opacity="1" fill-rule="nonzero"/></g><g clip-path="url(#c3446588d4)"><path fill="#05738c" d="M 115.191406 226.15625 C 112.070312 226.15625 108.921875 226.027344 105.828125 225.777344 C 105.171875 225.726562 104.683594 225.152344 104.734375 224.492188 C 104.789062 223.835938 105.363281 223.347656 106.019531 223.402344 C 109.050781 223.644531 112.132812 223.769531 115.191406 223.769531 C 116.445312 223.769531 117.710938 223.75 118.957031 223.707031 C 119.617188 223.6875 120.167969 224.203125 120.1875 224.859375 C 120.210938 225.519531 119.695312 226.070312 119.035156 226.09375 C 117.765625 226.132812 116.46875 226.15625 115.191406 226.15625 Z M 92.976562 223.984375 C 92.898438 223.984375 92.820312 223.976562 92.742188 223.960938 C 88.433594 223.109375 84.128906 221.996094 79.953125 220.648438 C 79.328125 220.449219 78.980469 219.777344 79.183594 219.148438 C 79.386719 218.523438 80.058594 218.175781 80.683594 218.378906 C 84.773438 219.695312 88.988281 220.785156 93.207031 221.621094 C 93.851562 221.75 94.273438 222.378906 94.144531 223.023438 C 94.03125 223.59375 93.53125 223.984375 92.976562 223.984375 Z M 68.128906 215.988281 C 67.960938 215.988281 67.792969 215.953125 67.632812 215.878906 C 63.644531 214.0625 59.710938 211.992188 55.949219 209.722656 C 55.386719 209.382812 55.203125 208.648438 55.542969 208.085938 C 55.882812 207.519531 56.617188 207.339844 57.179688 207.679688 C 60.863281 209.902344 64.714844 211.929688 68.625 213.710938 C 69.222656 213.984375 69.488281 214.691406 69.214844 215.289062 C 69.015625 215.730469 68.582031 215.988281 68.128906 215.988281 Z M 45.777344 202.511719 C 45.523438 202.511719 45.265625 202.433594 45.050781 202.265625 C 41.929688 199.855469 38.898438 197.257812 36.039062 194.539062 C 35.5625 194.085938 35.542969 193.332031 35.996094 192.851562 C 36.449219 192.375 37.207031 192.355469 37.683594 192.808594 C 40.484375 195.472656 43.453125 198.019531 46.507812 200.375 C 47.027344 200.777344 47.125 201.527344 46.722656 202.050781 C 46.488281 202.355469 46.132812 202.511719 45.777344 202.511719 Z M 45.777344 202.511719 " fill-opacity="1" fill-rule="nonzero"/></g><g clip-path="url(#e85356ffa7)"><path fill="#05738c" d="M 227.195312 132.113281 C 227.125 132.113281 227.058594 132.105469 226.988281 132.09375 C 226.339844 131.980469 225.90625 131.363281 226.015625 130.714844 C 226.753906 126.488281 227.253906 122.167969 227.5 117.867188 C 227.539062 117.207031 228.101562 116.707031 228.761719 116.742188 C 229.417969 116.78125 229.921875 117.34375 229.882812 118.003906 C 229.628906 122.394531 229.121094 126.808594 228.367188 131.125 C 228.265625 131.703125 227.761719 132.113281 227.195312 132.113281 Z M 228.707031 106.058594 C 228.078125 106.058594 227.550781 105.566406 227.515625 104.929688 C 227.277344 100.628906 226.789062 96.308594 226.0625 92.082031 C 225.949219 91.433594 226.386719 90.816406 227.035156 90.703125 C 227.6875 90.59375 228.300781 91.027344 228.414062 91.679688 C 229.15625 95.992188 229.65625 100.40625 229.898438 104.796875 C 229.933594 105.457031 229.429688 106.019531 228.773438 106.054688 C 228.75 106.054688 228.726562 106.058594 228.707031 106.058594 Z M 224.285156 80.34375 C 223.769531 80.34375 223.292969 80.003906 223.140625 79.484375 C 221.929688 75.363281 220.460938 71.269531 218.78125 67.3125 C 218.523438 66.707031 218.804688 66.003906 219.414062 65.746094 C 220.019531 65.488281 220.71875 65.773438 220.976562 66.378906 C 222.695312 70.421875 224.191406 74.605469 225.429688 78.8125 C 225.613281 79.445312 225.253906 80.109375 224.621094 80.292969 C 224.507812 80.328125 224.394531 80.34375 224.285156 80.34375 Z M 214.082031 56.324219 C 213.667969 56.324219 213.265625 56.109375 213.046875 55.722656 C 210.921875 51.988281 208.554688 48.335938 206.015625 44.867188 C 205.625 44.335938 205.742188 43.589844 206.273438 43.199219 C 206.804688 42.808594 207.550781 42.925781 207.941406 43.457031 C 210.535156 47 212.949219 50.730469 215.117188 54.542969 C 215.445312 55.113281 215.246094 55.84375 214.671875 56.167969 C 214.484375 56.273438 214.28125 56.324219 214.082031 56.324219 Z M 214.082031 56.324219 " fill-opacity="1" fill-rule="nonzero"/></g><path fill="#e2eaff" d="M 198.667969 111.269531 C 198.667969 112.632812 198.632812 114 198.566406 115.363281 C 198.5 116.730469 198.398438 118.089844 198.265625 119.449219 C 198.128906 120.808594 197.964844 122.164062 197.761719 123.515625 C 197.5625 124.867188 197.328125 126.214844 197.0625 127.554688 C 196.796875 128.894531 196.496094 130.226562 196.164062 131.550781 C 195.832031 132.875 195.46875 134.191406 195.070312 135.5 C 194.675781 136.808594 194.246094 138.105469 193.785156 139.390625 C 193.328125 140.675781 192.835938 141.949219 192.3125 143.210938 C 191.789062 144.476562 191.234375 145.722656 190.652344 146.957031 C 190.066406 148.195312 189.453125 149.414062 188.808594 150.617188 C 188.164062 151.824219 187.492188 153.011719 186.789062 154.183594 C 186.085938 155.355469 185.355469 156.507812 184.597656 157.644531 C 183.839844 158.78125 183.054688 159.898438 182.238281 160.996094 C 181.425781 162.09375 180.585938 163.167969 179.71875 164.226562 C 178.851562 165.28125 177.960938 166.316406 177.042969 167.328125 C 176.125 168.339844 175.183594 169.328125 174.21875 170.292969 C 173.25 171.261719 172.261719 172.203125 171.25 173.121094 C 170.238281 174.035156 169.203125 174.929688 168.148438 175.796875 C 167.089844 176.664062 166.015625 177.503906 164.917969 178.316406 C 163.820312 179.128906 162.703125 179.917969 161.566406 180.675781 C 160.429688 181.433594 159.277344 182.164062 158.105469 182.867188 C 156.933594 183.570312 155.746094 184.242188 154.539062 184.886719 C 153.335938 185.53125 152.117188 186.144531 150.882812 186.730469 C 149.644531 187.3125 148.398438 187.867188 147.136719 188.390625 C 145.875 188.914062 144.597656 189.402344 143.3125 189.863281 C 142.027344 190.324219 140.730469 190.753906 139.421875 191.148438 C 138.113281 191.546875 136.796875 191.910156 135.472656 192.242188 C 134.148438 192.574219 132.816406 192.875 131.476562 193.140625 C 130.136719 193.40625 128.789062 193.640625 127.4375 193.839844 C 126.085938 194.039062 124.730469 194.207031 123.371094 194.34375 C 122.011719 194.476562 120.652344 194.578125 119.285156 194.644531 C 117.921875 194.710938 116.554688 194.742188 115.191406 194.742188 C 113.824219 194.742188 112.457031 194.710938 111.09375 194.644531 C 109.730469 194.578125 108.367188 194.476562 107.007812 194.34375 C 105.648438 194.207031 104.292969 194.039062 102.941406 193.839844 C 101.589844 193.640625 100.246094 193.40625 98.90625 193.140625 C 97.566406 192.875 96.234375 192.574219 94.90625 192.242188 C 93.582031 191.910156 92.265625 191.546875 90.957031 191.148438 C 89.652344 190.753906 88.355469 190.324219 87.066406 189.863281 C 85.78125 189.402344 84.507812 188.914062 83.246094 188.390625 C 81.984375 187.867188 80.734375 187.3125 79.5 186.730469 C 78.265625 186.144531 77.046875 185.53125 75.839844 184.886719 C 74.636719 184.242188 73.445312 183.570312 72.273438 182.867188 C 71.101562 182.164062 69.949219 181.433594 68.8125 180.675781 C 67.679688 179.917969 66.5625 179.128906 65.464844 178.316406 C 64.367188 177.503906 63.289062 176.664062 62.234375 175.796875 C 61.179688 174.929688 60.144531 174.035156 59.132812 173.121094 C 58.121094 172.203125 57.128906 171.261719 56.164062 170.292969 C 55.199219 169.328125 54.257812 168.339844 53.339844 167.328125 C 52.421875 166.316406 51.53125 165.28125 50.664062 164.226562 C 49.796875 163.167969 48.957031 162.09375 48.140625 160.996094 C 47.328125 159.898438 46.542969 158.78125 45.78125 157.644531 C 45.023438 156.507812 44.292969 155.355469 43.589844 154.183594 C 42.886719 153.011719 42.214844 151.824219 41.570312 150.617188 C 40.925781 149.414062 40.3125 148.195312 39.730469 146.957031 C 39.144531 145.722656 38.589844 144.476562 38.070312 143.210938 C 37.546875 141.949219 37.054688 140.675781 36.59375 139.390625 C 36.132812 138.105469 35.707031 136.808594 35.308594 135.5 C 34.914062 134.191406 34.546875 132.875 34.214844 131.550781 C 33.882812 130.226562 33.585938 128.894531 33.320312 127.554688 C 33.050781 126.214844 32.820312 124.867188 32.617188 123.515625 C 32.417969 122.164062 32.25 120.808594 32.117188 119.449219 C 31.984375 118.089844 31.882812 116.730469 31.816406 115.363281 C 31.746094 114 31.714844 112.632812 31.714844 111.269531 C 31.714844 109.902344 31.746094 108.535156 31.816406 107.171875 C 31.882812 105.808594 31.984375 104.445312 32.117188 103.085938 C 32.25 101.726562 32.417969 100.371094 32.617188 99.019531 C 32.820312 97.667969 33.050781 96.324219 33.320312 94.984375 C 33.585938 93.644531 33.882812 92.308594 34.214844 90.984375 C 34.546875 89.660156 34.914062 88.34375 35.308594 87.035156 C 35.707031 85.730469 36.132812 84.433594 36.59375 83.144531 C 37.054688 81.859375 37.546875 80.585938 38.070312 79.324219 C 38.589844 78.0625 39.144531 76.8125 39.730469 75.578125 C 40.3125 74.34375 40.925781 73.121094 41.570312 71.917969 C 42.214844 70.714844 42.886719 69.523438 43.589844 68.351562 C 44.292969 67.179688 45.023438 66.027344 45.78125 64.890625 C 46.542969 63.753906 47.328125 62.640625 48.140625 61.542969 C 48.957031 60.445312 49.796875 59.367188 50.664062 58.3125 C 51.53125 57.253906 52.421875 56.222656 53.339844 55.210938 C 54.257812 54.195312 55.199219 53.207031 56.164062 52.242188 C 57.128906 51.277344 58.121094 50.332031 59.132812 49.417969 C 60.144531 48.5 61.179688 47.605469 62.234375 46.742188 C 63.289062 45.875 64.367188 45.035156 65.464844 44.21875 C 66.5625 43.40625 67.679688 42.621094 68.8125 41.859375 C 69.949219 41.101562 71.101562 40.371094 72.273438 39.667969 C 73.445312 38.964844 74.636719 38.292969 75.839844 37.648438 C 77.046875 37.003906 78.265625 36.390625 79.5 35.808594 C 80.734375 35.222656 81.984375 34.667969 83.246094 34.144531 C 84.507812 33.625 85.78125 33.132812 87.066406 32.671875 C 88.355469 32.210938 89.652344 31.78125 90.957031 31.386719 C 92.265625 30.988281 93.582031 30.625 94.90625 30.292969 C 96.234375 29.960938 97.566406 29.664062 98.90625 29.394531 C 100.246094 29.128906 101.589844 28.894531 102.941406 28.695312 C 104.292969 28.496094 105.648438 28.328125 107.007812 28.195312 C 108.367188 28.058594 109.730469 27.960938 111.09375 27.894531 C 112.457031 27.824219 113.824219 27.792969 115.191406 27.792969 C 116.554688 27.792969 117.921875 27.824219 119.285156 27.894531 C 120.652344 27.960938 122.011719 28.058594 123.371094 28.195312 C 124.730469 28.328125 126.085938 28.496094 127.4375 28.695312 C 128.789062 28.894531 130.136719 29.128906 131.476562 29.394531 C 132.816406 29.664062 134.148438 29.960938 135.472656 30.292969 C 136.796875 30.625 138.113281 30.988281 139.421875 31.386719 C 140.730469 31.78125 142.027344 32.210938 143.3125 32.671875 C 144.597656 33.132812 145.875 33.625 147.136719 34.144531 C 148.398438 34.667969 149.644531 35.222656 150.882812 35.808594 C 152.117188 36.390625 153.335938 37.003906 154.539062 37.648438 C 155.746094 38.292969 156.933594 38.964844 158.105469 39.667969 C 159.277344 40.371094 160.429688 41.101562 161.566406 41.859375 C 162.703125 42.621094 163.820312 43.40625 164.917969 44.21875 C 166.015625 45.035156 167.089844 45.875 168.148438 46.742188 C 169.203125 47.605469 170.238281 48.5 171.25 49.417969 C 172.261719 50.332031 173.25 51.277344 174.21875 52.242188 C 175.183594 53.207031 176.125 54.195312 177.042969 55.210938 C 177.960938 56.222656 178.851562 57.253906 179.71875 58.3125 C 180.585938 59.367188 181.425781 60.445312 182.238281 61.542969 C 183.054688 62.640625 183.839844 63.753906 184.597656 64.890625 C 185.355469 66.027344 186.085938 67.179688 186.789062 68.351562 C 187.492188 69.523438 188.164062 70.714844 188.808594 71.917969 C 189.453125 73.121094 190.066406 74.34375 190.652344 75.578125 C 191.234375 76.8125 191.789062 78.0625 192.3125 79.324219 C 192.835938 80.585938 193.328125 81.859375 193.785156 83.144531 C 194.246094 84.433594 194.675781 85.730469 195.070312 87.035156 C 195.46875 88.34375 195.832031 89.660156 196.164062 90.984375 C 196.496094 92.308594 196.796875 93.644531 197.0625 94.984375 C 197.328125 96.324219 197.5625 97.667969 197.761719 99.019531 C 197.964844 100.371094 198.128906 101.726562 198.265625 103.085938 C 198.398438 104.445312 198.5 105.808594 198.566406 107.171875 C 198.632812 108.535156 198.667969 109.902344 198.667969 111.269531 Z M 198.667969 111.269531 " fill-opacity="1" fill-rule="nonzero"/><path fill="#ffffff" d="M 50.808594 81.910156 L 23.84375 168.519531 L 91.6875 168.519531 L 64.71875 81.910156 Z M 50.808594 81.910156 " fill-opacity="1" fill-rule="nonzero"/><path fill="#05738c" d="M 91.6875 169.714844 L 23.84375 169.714844 C 23.464844 169.714844 23.105469 169.535156 22.882812 169.226562 C 22.65625 168.921875 22.589844 168.527344 22.703125 168.167969 L 49.671875 81.554688 C 49.824219 81.058594 50.289062 80.71875 50.808594 80.71875 L 64.71875 80.71875 C 65.242188 80.71875 65.703125 81.058594 65.859375 81.554688 L 92.824219 168.167969 C 92.9375 168.527344 92.871094 168.921875 92.644531 169.226562 C 92.421875 169.535156 92.066406 169.714844 91.6875 169.714844 Z M 25.464844 167.328125 L 90.066406 167.328125 L 63.839844 83.101562 L 51.6875 83.101562 Z M 25.464844 167.328125 " fill-opacity="1" fill-rule="nonzero"/><path fill="#ff8300" d="M 70.519531 100.535156 L 45.011719 100.535156 L 40.15625 116.121094 L 75.371094 116.121094 Z M 70.519531 100.535156 " fill-opacity="1" fill-rule="nonzero"/><path fill="#05738c" d="M 75.371094 117.3125 L 40.15625 117.3125 C 39.777344 117.3125 39.421875 117.132812 39.199219 116.828125 C 38.972656 116.523438 38.90625 116.128906 39.019531 115.765625 L 43.871094 100.179688 C 44.027344 99.679688 44.488281 99.339844 45.011719 99.339844 L 70.519531 99.339844 C 71.039062 99.339844 71.5 99.679688 71.65625 100.179688 L 76.511719 115.765625 C 76.621094 116.128906 76.554688 116.523438 76.332031 116.828125 C 76.105469 117.132812 75.75 117.3125 75.371094 117.3125 Z M 41.777344 114.929688 L 73.75 114.929688 L 69.640625 101.726562 L 45.890625 101.726562 Z M 41.777344 114.929688 " fill-opacity="1" fill-rule="nonzero"/><path fill="#ff8300" d="M 86.390625 151.515625 L 29.136719 151.515625 L 33.992188 135.929688 L 81.539062 135.929688 Z M 86.390625 151.515625 " fill-opacity="1" fill-rule="nonzero"/><path fill="#05738c" d="M 86.390625 152.707031 L 29.136719 152.707031 C 28.757812 152.707031 28.402344 152.527344 28.175781 152.222656 C 27.953125 151.917969 27.886719 151.523438 28 151.160156 L 32.851562 135.574219 C 33.007812 135.074219 33.46875 134.734375 33.992188 134.734375 L 81.539062 134.734375 C 82.058594 134.734375 82.523438 135.074219 82.675781 135.574219 L 87.53125 151.160156 C 87.644531 151.523438 87.578125 151.917969 87.351562 152.222656 C 87.128906 152.527344 86.769531 152.707031 86.390625 152.707031 Z M 30.757812 150.324219 L 84.769531 150.324219 L 80.660156 137.121094 L 34.867188 137.121094 Z M 30.757812 150.324219 " fill-opacity="1" fill-rule="nonzero"/><path fill="#ff8300" d="M 103.878906 168.519531 L 11.648438 168.519531 C 10.148438 168.519531 8.933594 169.738281 8.933594 171.238281 L 8.933594 180.683594 C 8.933594 182.183594 10.148438 183.402344 11.648438 183.402344 L 103.878906 183.402344 C 105.378906 183.402344 106.59375 182.183594 106.59375 180.683594 L 106.59375 171.238281 C 106.59375 169.738281 105.378906 168.519531 103.878906 168.519531 Z M 103.878906 168.519531 " fill-opacity="1" fill-rule="nonzero"/><path fill="#05738c" d="M 103.878906 184.59375 L 11.648438 184.59375 C 9.496094 184.59375 7.742188 182.839844 7.742188 180.683594 L 7.742188 171.238281 C 7.742188 169.082031 9.496094 167.328125 11.648438 167.328125 L 103.878906 167.328125 C 106.035156 167.328125 107.789062 169.082031 107.789062 171.238281 L 107.789062 180.683594 C 107.789062 182.839844 106.035156 184.59375 103.878906 184.59375 Z M 11.648438 169.714844 C 10.808594 169.714844 10.125 170.398438 10.125 171.238281 L 10.125 180.683594 C 10.125 181.523438 10.808594 182.207031 11.648438 182.207031 L 103.878906 182.207031 C 104.71875 182.207031 105.402344 181.523438 105.402344 180.683594 L 105.402344 171.238281 C 105.402344 170.398438 104.71875 169.714844 103.878906 169.714844 Z M 11.648438 169.714844 " fill-opacity="1" fill-rule="nonzero"/><path fill="#ff8300" d="M 112.988281 35.824219 C 114.988281 20.496094 126.640625 8.089844 141.425781 4.542969 L 163.328125 4.746094 C 172.640625 7.109375 180.789062 13.207031 185.800781 21.109375 L 187.910156 24.910156 C 189.578125 28.382812 190.753906 31.859375 191.269531 35.824219 Z M 112.988281 35.824219 " fill-opacity="1" fill-rule="nonzero"/><path fill="#05738c" d="M 191.269531 37.019531 C 190.679688 37.019531 190.167969 36.582031 190.089844 35.980469 C 189.625 32.445312 188.597656 29.101562 186.847656 25.460938 L 184.773438 21.71875 C 179.839844 13.953125 171.972656 8.207031 163.171875 5.9375 L 141.5625 5.734375 C 127.070312 9.273438 116.070312 21.410156 114.171875 35.980469 C 114.085938 36.632812 113.488281 37.09375 112.835938 37.007812 C 112.183594 36.921875 111.722656 36.324219 111.804688 35.671875 C 113.839844 20.082031 125.632812 7.105469 141.148438 3.382812 C 141.242188 3.359375 141.34375 3.347656 141.4375 3.347656 L 163.335938 3.554688 C 163.433594 3.554688 163.527344 3.570312 163.621094 3.59375 C 173.070312 5.988281 181.523438 12.136719 186.808594 20.46875 C 186.820312 20.488281 186.832031 20.507812 186.84375 20.53125 L 188.953125 24.332031 C 188.964844 24.351562 188.976562 24.375 188.984375 24.394531 C 190.855469 28.285156 191.957031 31.871094 192.453125 35.671875 C 192.539062 36.324219 192.078125 36.921875 191.425781 37.007812 C 191.375 37.015625 191.320312 37.019531 191.269531 37.019531 Z M 191.269531 37.019531 " fill-opacity="1" fill-rule="nonzero"/><path fill="#ffffff" d="M 141.925781 35.917969 L 141.925781 1.214844 L 163.28125 1.214844 L 163.28125 35.917969 Z M 141.925781 35.917969 " fill-opacity="1" fill-rule="nonzero"/><path fill="#05738c" d="M 163.28125 37.113281 C 162.625 37.113281 162.089844 36.578125 162.089844 35.921875 L 162.089844 2.40625 L 143.117188 2.40625 L 143.117188 35.917969 C 143.117188 36.578125 142.585938 37.113281 141.925781 37.113281 C 141.265625 37.113281 140.734375 36.578125 140.734375 35.917969 L 140.734375 1.214844 C 140.734375 0.554688 141.265625 0.0234375 141.925781 0.0234375 L 163.28125 0.0234375 C 163.941406 0.0234375 164.476562 0.554688 164.476562 1.214844 L 164.476562 35.917969 C 164.476562 36.578125 163.941406 37.113281 163.28125 37.113281 Z M 163.28125 37.113281 " fill-opacity="1" fill-rule="nonzero"/><path fill="#ffffff" d="M 47.285156 58.261719 L 43.796875 61.667969 C 42.304688 63.160156 42.304688 65.578125 43.796875 67.070312 L 44.058594 67.332031 C 45.550781 68.824219 47.96875 68.824219 49.460938 67.332031 L 52.945312 63.964844 Z M 47.285156 58.261719 " fill-opacity="1" fill-rule="nonzero"/><path fill="#05738c" d="M 46.757812 69.640625 C 45.476562 69.640625 44.191406 69.152344 43.214844 68.175781 L 42.949219 67.910156 C 41 65.960938 41 62.78125 42.953125 60.824219 C 42.957031 60.820312 42.960938 60.820312 42.964844 60.816406 L 46.453125 57.410156 C 46.925781 56.949219 47.679688 56.957031 48.140625 57.429688 C 48.601562 57.902344 48.589844 58.65625 48.117188 59.117188 L 44.636719 62.515625 C 43.617188 63.542969 43.617188 65.203125 44.640625 66.226562 L 44.902344 66.492188 C 45.925781 67.515625 47.59375 67.515625 48.617188 66.488281 C 48.621094 66.484375 48.625 66.480469 48.632812 66.476562 L 52.113281 63.105469 C 52.589844 62.648438 53.34375 62.664062 53.800781 63.136719 C 54.257812 63.609375 54.246094 64.363281 53.773438 64.824219 L 50.296875 68.183594 C 49.320312 69.15625 48.039062 69.640625 46.757812 69.640625 Z M 46.757812 69.640625 " fill-opacity="1" fill-rule="nonzero"/><path fill="#ffffff" d="M 96.78125 8.683594 L 99.746094 5.722656 C 101.238281 4.230469 103.65625 4.230469 105.148438 5.722656 L 105.40625 5.980469 C 106.898438 7.472656 106.898438 9.890625 105.40625 11.382812 L 102.445312 14.34375 Z M 96.78125 8.683594 " fill-opacity="1" fill-rule="nonzero"/><path fill="#05738c" d="M 102.445312 15.539062 C 102.140625 15.539062 101.832031 15.421875 101.601562 15.1875 C 101.136719 14.722656 101.136719 13.96875 101.601562 13.5 L 104.5625 10.539062 C 105.058594 10.042969 105.332031 9.382812 105.332031 8.683594 C 105.332031 7.980469 105.058594 7.320312 104.5625 6.824219 L 104.304688 6.566406 C 103.808594 6.066406 103.148438 5.792969 102.445312 5.792969 C 101.746094 5.792969 101.085938 6.066406 100.589844 6.566406 L 97.625 9.527344 C 97.160156 9.992188 96.402344 9.992188 95.9375 9.527344 C 95.472656 9.058594 95.472656 8.304688 95.9375 7.839844 L 98.902344 4.878906 C 99.847656 3.929688 101.105469 3.410156 102.445312 3.410156 C 103.785156 3.410156 105.042969 3.929688 105.988281 4.878906 L 106.25 5.140625 C 108.207031 7.09375 108.207031 10.273438 106.25 12.226562 L 103.289062 15.1875 C 103.054688 15.421875 102.75 15.539062 102.445312 15.539062 Z M 102.445312 15.539062 " fill-opacity="1" fill-rule="nonzero"/><path fill="#ff8300" d="M 143.175781 98.875 L 99.242188 98.875 C 96.292969 98.871094 93.902344 96.484375 93.90625 93.535156 C 93.902344 90.585938 96.292969 88.195312 99.242188 88.195312 L 128.503906 88.195312 L 93.675781 88.070312 C 90.726562 88.070312 88.335938 85.679688 88.335938 82.730469 C 88.335938 79.785156 90.726562 77.394531 93.675781 77.394531 L 128.664062 77.464844 L 97.066406 77.128906 C 94.117188 77.128906 91.726562 74.738281 91.726562 71.789062 C 91.726562 68.84375 94.117188 66.449219 97.066406 66.449219 L 130.234375 67.148438 L 107.167969 66.898438 C 104.589844 66.898438 102.496094 64.808594 102.5 62.230469 C 102.496094 59.652344 104.589844 57.558594 107.167969 57.558594 L 137.777344 57.621094 L 189.902344 57.496094 L 189.800781 94.539062 L 172.363281 94.539062 L 161.367188 104.242188 C 159.21875 106.136719 156.679688 107.527344 153.929688 108.320312 L 130.230469 115.128906 C 127.378906 115.949219 124.378906 114.449219 123.324219 111.679688 C 122.167969 108.648438 123.769531 105.269531 126.84375 104.238281 L 142.519531 98.996094 Z M 143.175781 98.875 " fill-opacity="1" fill-rule="nonzero"/><path fill="#05738c" d="M 128.648438 116.546875 C 127.589844 116.546875 126.539062 116.300781 125.570312 115.816406 C 124.019531 115.042969 122.828125 113.722656 122.210938 112.105469 C 121.535156 110.332031 121.609375 108.414062 122.417969 106.699219 C 123.230469 104.988281 124.667969 103.710938 126.464844 103.109375 L 135.558594 100.066406 L 99.242188 100.066406 C 95.640625 100.066406 92.710938 97.136719 92.710938 93.535156 C 92.710938 91.949219 93.269531 90.453125 94.296875 89.265625 L 93.671875 89.265625 C 91.929688 89.261719 90.289062 88.582031 89.054688 87.351562 C 87.820312 86.117188 87.140625 84.476562 87.144531 82.730469 C 87.140625 80.988281 87.820312 79.347656 89.054688 78.113281 C 89.976562 77.191406 91.121094 76.582031 92.371094 76.328125 C 91.183594 75.105469 90.535156 73.496094 90.535156 71.789062 C 90.535156 70.046875 91.214844 68.40625 92.449219 67.171875 C 93.683594 65.9375 95.320312 65.257812 97.066406 65.257812 C 97.074219 65.257812 97.082031 65.257812 97.09375 65.257812 L 102.210938 65.367188 C 101.621094 64.4375 101.304688 63.355469 101.304688 62.230469 C 101.304688 60.664062 101.914062 59.191406 103.023438 58.085938 C 104.128906 56.976562 105.601562 56.367188 107.167969 56.367188 L 137.78125 56.429688 L 189.898438 56.304688 C 189.902344 56.304688 189.902344 56.304688 189.902344 56.304688 C 190.21875 56.304688 190.523438 56.429688 190.746094 56.652344 C 190.972656 56.875 191.097656 57.179688 191.097656 57.5 L 190.992188 94.542969 C 190.992188 95.199219 190.457031 95.730469 189.800781 95.730469 L 172.816406 95.730469 L 162.15625 105.136719 C 159.890625 107.132812 157.160156 108.632812 154.257812 109.46875 L 130.558594 116.273438 C 129.929688 116.457031 129.289062 116.546875 128.648438 116.546875 Z M 142.820312 100.152344 L 127.222656 105.371094 C 126.046875 105.765625 125.105469 106.597656 124.574219 107.722656 C 124.046875 108.839844 123.996094 110.097656 124.4375 111.253906 C 125.28125 113.460938 127.628906 114.636719 129.898438 113.984375 L 153.597656 107.175781 C 156.164062 106.4375 158.574219 105.113281 160.578125 103.347656 L 171.574219 93.644531 C 171.792969 93.453125 172.074219 93.34375 172.363281 93.34375 L 188.609375 93.347656 L 188.707031 58.691406 L 137.78125 58.816406 L 107.167969 58.753906 C 106.238281 58.753906 105.367188 59.113281 104.710938 59.769531 C 104.050781 60.425781 103.691406 61.300781 103.691406 62.230469 C 103.691406 63.160156 104.050781 64.03125 104.707031 64.6875 C 105.035156 65.015625 105.417969 65.269531 105.832031 65.441406 L 130.257812 65.957031 C 130.914062 65.96875 131.4375 66.511719 131.425781 67.167969 C 131.414062 67.820312 130.882812 68.339844 130.234375 68.339844 C 130.230469 68.339844 130.222656 68.339844 130.21875 68.339844 L 107.160156 68.09375 C 106.550781 68.09375 105.953125 68 105.386719 67.820312 L 97.054688 67.644531 C 95.953125 67.648438 94.914062 68.078125 94.132812 68.859375 C 93.351562 69.640625 92.921875 70.683594 92.921875 71.789062 C 92.921875 72.898438 93.351562 73.9375 94.132812 74.722656 C 94.917969 75.503906 95.960938 75.9375 97.066406 75.9375 C 97.070312 75.9375 97.074219 75.9375 97.078125 75.9375 L 128.679688 76.273438 C 129.335938 76.28125 129.863281 76.816406 129.859375 77.472656 C 129.855469 78.128906 129.320312 78.660156 128.664062 78.660156 L 93.671875 78.585938 C 92.566406 78.585938 91.527344 79.015625 90.742188 79.800781 C 89.960938 80.582031 89.527344 81.625 89.527344 82.730469 C 89.527344 83.839844 89.960938 84.878906 90.742188 85.664062 C 91.523438 86.445312 92.566406 86.878906 93.675781 86.878906 L 128.507812 87.003906 C 129.164062 87.003906 129.695312 87.539062 129.695312 88.199219 C 129.695312 88.855469 129.160156 89.386719 128.503906 89.386719 L 99.242188 89.386719 C 98.136719 89.386719 97.09375 89.820312 96.3125 90.601562 C 95.527344 91.386719 95.097656 92.425781 95.097656 93.535156 C 95.097656 95.820312 96.957031 97.679688 99.242188 97.679688 L 143.175781 97.679688 C 143.789062 97.679688 144.304688 98.148438 144.363281 98.761719 C 144.417969 99.375 144 99.933594 143.394531 100.046875 Z M 142.820312 100.152344 " fill-opacity="1" fill-rule="nonzero"/><path fill="#ff8300" d="M 192.523438 46.597656 L 111.351562 46.597656 C 109.808594 46.597656 108.554688 45.347656 108.554688 43.800781 L 108.554688 38.71875 C 108.554688 37.171875 109.808594 35.917969 111.351562 35.917969 L 192.523438 35.917969 C 194.066406 35.917969 195.316406 37.171875 195.316406 38.71875 L 195.316406 43.800781 C 195.316406 45.347656 194.066406 46.597656 192.523438 46.597656 Z M 192.523438 46.597656 " fill-opacity="1" fill-rule="nonzero"/><path fill="#05738c" d="M 192.523438 47.789062 L 111.351562 47.789062 C 109.152344 47.789062 107.363281 46 107.363281 43.800781 L 107.363281 38.71875 C 107.363281 36.515625 109.152344 34.726562 111.351562 34.726562 L 192.523438 34.726562 C 194.722656 34.726562 196.511719 36.515625 196.511719 38.71875 L 196.511719 43.800781 C 196.511719 46 194.722656 47.789062 192.523438 47.789062 Z M 111.351562 37.113281 C 110.46875 37.113281 109.75 37.832031 109.75 38.71875 L 109.75 43.800781 C 109.75 44.6875 110.46875 45.40625 111.351562 45.40625 L 192.523438 45.40625 C 193.40625 45.40625 194.125 44.6875 194.125 43.800781 L 194.125 38.71875 C 194.125 37.832031 193.40625 37.113281 192.523438 37.113281 Z M 111.351562 37.113281 " fill-opacity="1" fill-rule="nonzero"/><path fill="#05738c" d="M 151.9375 15.871094 C 151.277344 15.871094 150.742188 15.335938 150.742188 14.675781 L 150.742188 1.328125 C 150.742188 0.671875 151.277344 0.136719 151.9375 0.136719 C 152.59375 0.136719 153.128906 0.671875 153.128906 1.328125 L 153.128906 14.675781 C 153.128906 15.335938 152.59375 15.871094 151.9375 15.871094 Z M 151.9375 15.871094 " fill-opacity="1" fill-rule="nonzero"/><path fill="#000000" d="M 105.488281 29.738281 L 98.015625 37.210938 C 95.5 39.730469 91.707031 40.464844 88.429688 39.078125 L 82.742188 36.664062 C 80.644531 35.773438 78.214844 36.246094 76.605469 37.859375 C 74.957031 39.503906 74.503906 41.996094 75.464844 44.117188 L 77.847656 49.382812 C 79.347656 52.695312 78.636719 56.589844 76.066406 59.160156 L 68.296875 66.929688 C 64.886719 70.339844 59.355469 70.339844 55.945312 66.929688 L 47.597656 58.582031 C 43.960938 54.941406 43.960938 49.042969 47.597656 45.402344 L 83.960938 9.039062 C 87.597656 5.402344 93.5 5.402344 97.140625 9.039062 L 105.488281 17.386719 C 108.898438 20.796875 108.898438 26.328125 105.488281 29.738281 Z M 105.488281 29.738281 " fill-opacity="1" fill-rule="nonzero"/><path fill="#05738c" d="M 62.121094 70.675781 C 59.578125 70.675781 57.039062 69.707031 55.101562 67.773438 L 46.753906 59.425781 C 42.65625 55.328125 42.65625 48.65625 46.753906 44.558594 L 83.117188 8.195312 C 85.101562 6.210938 87.742188 5.117188 90.550781 5.117188 C 93.355469 5.117188 95.996094 6.210938 97.984375 8.195312 L 106.332031 16.542969 C 108.207031 18.417969 109.238281 20.910156 109.238281 23.5625 C 109.238281 26.214844 108.207031 28.707031 106.332031 30.582031 L 98.859375 38.054688 C 95.984375 40.929688 91.707031 41.761719 87.964844 40.175781 L 82.277344 37.761719 C 80.617188 37.058594 78.722656 37.425781 77.449219 38.699219 C 76.160156 39.988281 75.800781 41.96875 76.550781 43.625 L 78.933594 48.890625 C 79.769531 50.738281 80.019531 52.769531 79.65625 54.761719 C 79.292969 56.757812 78.34375 58.570312 76.910156 60.003906 L 69.140625 67.773438 C 67.207031 69.707031 64.664062 70.675781 62.121094 70.675781 Z M 90.550781 7.503906 C 88.378906 7.503906 86.335938 8.347656 84.800781 9.882812 L 48.441406 46.246094 C 45.273438 49.414062 45.273438 54.570312 48.441406 57.738281 L 56.789062 66.085938 C 59.730469 69.027344 64.511719 69.027344 67.453125 66.085938 L 75.222656 58.316406 C 77.429688 56.109375 78.046875 52.71875 76.761719 49.875 L 74.378906 44.609375 C 73.21875 42.050781 73.773438 39 75.761719 37.015625 C 77.726562 35.050781 80.648438 34.480469 83.207031 35.566406 L 88.894531 37.980469 C 91.738281 39.183594 94.988281 38.554688 97.171875 36.371094 L 104.644531 28.894531 C 106.070312 27.472656 106.851562 25.578125 106.851562 23.5625 C 106.851562 21.550781 106.070312 19.65625 104.644531 18.230469 L 96.296875 9.882812 C 94.761719 8.347656 92.71875 7.503906 90.550781 7.503906 Z M 90.550781 7.503906 " fill-opacity="1" fill-rule="nonzero"/><path fill="#05738c" d="M 172.363281 95.730469 C 171.707031 95.730469 171.171875 95.195312 171.171875 94.539062 L 171.171875 77.40625 C 171.171875 74.746094 172.207031 72.242188 174.089844 70.359375 C 175.96875 68.480469 178.472656 67.445312 181.132812 67.445312 C 186.628906 67.445312 191.097656 71.914062 191.097656 77.40625 L 191.097656 92.039062 C 191.097656 92.695312 190.5625 93.230469 189.90625 93.230469 C 189.246094 93.230469 188.710938 92.695312 188.710938 92.039062 L 188.710938 77.40625 C 188.710938 73.230469 185.3125 69.832031 181.132812 69.828125 C 179.109375 69.828125 177.207031 70.617188 175.773438 72.046875 C 174.34375 73.480469 173.554688 75.382812 173.554688 77.40625 L 173.554688 94.539062 C 173.554688 95.195312 173.023438 95.730469 172.363281 95.730469 Z M 172.363281 95.730469 " fill-opacity="1" fill-rule="nonzero"/><path fill="#05738c" d="M 172.363281 78.601562 C 171.703125 78.601562 171.167969 78.066406 171.167969 77.40625 L 171.171875 57.496094 C 171.171875 56.835938 171.707031 56.300781 172.363281 56.300781 C 173.023438 56.300781 173.558594 56.835938 173.558594 57.496094 L 173.554688 77.40625 C 173.554688 78.066406 173.019531 78.601562 172.363281 78.601562 Z M 172.363281 78.601562 " fill-opacity="1" fill-rule="nonzero"/><path fill="#05738c" d="M 105.945312 100.066406 C 105.503906 100.066406 105.078125 99.816406 104.871094 99.390625 C 104.765625 99.167969 102.285156 93.855469 104.847656 87.734375 C 105.101562 87.128906 105.800781 86.839844 106.40625 87.09375 C 107.015625 87.347656 107.300781 88.046875 107.046875 88.65625 C 104.910156 93.761719 107.003906 98.316406 107.027344 98.363281 C 107.304688 98.957031 107.050781 99.667969 106.460938 99.949219 C 106.292969 100.027344 106.117188 100.066406 105.945312 100.066406 Z M 105.945312 100.066406 " fill-opacity="1" fill-rule="nonzero"/><path fill="#05738c" d="M 136.171875 114.5625 C 135.855469 114.5625 135.539062 114.4375 135.304688 114.191406 C 135.140625 114.019531 131.300781 109.871094 131.21875 102.519531 C 131.210938 101.859375 131.738281 101.320312 132.398438 101.3125 C 132.402344 101.3125 132.40625 101.3125 132.410156 101.3125 C 133.0625 101.3125 133.597656 101.839844 133.605469 102.492188 C 133.675781 108.867188 137.007812 112.519531 137.042969 112.554688 C 137.488281 113.035156 137.464844 113.789062 136.988281 114.242188 C 136.757812 114.457031 136.460938 114.5625 136.171875 114.5625 Z M 136.171875 114.5625 " fill-opacity="1" fill-rule="nonzero"/><path fill="#05738c" d="M 100.378906 89.261719 C 99.933594 89.261719 99.507812 89.015625 99.304688 88.585938 C 99.195312 88.363281 96.714844 83.054688 99.277344 76.933594 C 99.53125 76.324219 100.230469 76.039062 100.839844 76.292969 C 101.445312 76.546875 101.734375 77.246094 101.480469 77.851562 C 99.34375 82.957031 101.433594 87.515625 101.457031 87.558594 C 101.738281 88.15625 101.484375 88.867188 100.890625 89.148438 C 100.726562 89.226562 100.550781 89.261719 100.378906 89.261719 Z M 100.378906 89.261719 " fill-opacity="1" fill-rule="nonzero"/><path fill="#05738c" d="M 103.769531 78.320312 C 103.328125 78.320312 102.902344 78.074219 102.695312 77.644531 C 102.589844 77.421875 100.109375 72.113281 102.671875 65.988281 C 102.925781 65.382812 103.625 65.097656 104.230469 65.351562 C 104.839844 65.605469 105.125 66.304688 104.871094 66.910156 C 102.734375 72.015625 104.828125 76.574219 104.847656 76.617188 C 105.128906 77.210938 104.875 77.921875 104.28125 78.207031 C 104.117188 78.285156 103.941406 78.320312 103.769531 78.320312 Z M 103.769531 78.320312 " fill-opacity="1" fill-rule="nonzero"/><path fill="#05738c" d="M 113.546875 68.09375 C 113.101562 68.09375 112.675781 67.84375 112.472656 67.417969 C 112.375 67.21875 110.179688 62.515625 112.445312 57.097656 C 112.699219 56.492188 113.398438 56.203125 114.007812 56.457031 C 114.613281 56.714844 114.902344 57.410156 114.648438 58.019531 C 112.804688 62.421875 114.605469 66.351562 114.625 66.390625 C 114.902344 66.984375 114.652344 67.695312 114.058594 67.976562 C 113.890625 68.054688 113.71875 68.09375 113.546875 68.09375 Z M 113.546875 68.09375 " fill-opacity="1" fill-rule="nonzero"/><path fill="#ffffff" d="M 215.164062 164.457031 L 215.164062 208.332031 C 215.164062 214.363281 210.273438 219.253906 204.242188 219.253906 L 134.632812 219.253906 C 128.601562 219.253906 123.714844 214.363281 123.714844 208.332031 L 123.714844 164.457031 Z M 215.164062 164.457031 " fill-opacity="1" fill-rule="nonzero"/><path fill="#05738c" d="M 204.242188 220.445312 L 134.632812 220.445312 C 127.957031 220.445312 122.523438 215.011719 122.523438 208.332031 L 122.523438 164.457031 C 122.523438 163.796875 123.054688 163.261719 123.714844 163.261719 C 124.371094 163.261719 124.90625 163.796875 124.90625 164.457031 L 124.90625 208.332031 C 124.90625 213.695312 129.269531 218.058594 134.632812 218.058594 L 204.242188 218.058594 C 209.605469 218.058594 213.96875 213.695312 213.96875 208.332031 L 213.96875 164.457031 C 213.96875 163.796875 214.503906 163.261719 215.164062 163.261719 C 215.820312 163.261719 216.355469 163.796875 216.355469 164.457031 L 216.355469 208.332031 C 216.355469 215.011719 210.921875 220.445312 204.242188 220.445312 Z M 204.242188 220.445312 " fill-opacity="1" fill-rule="nonzero"/><path fill="#ffffff" d="M 194.085938 141.570312 L 194.085938 126.683594 C 194.085938 122.566406 190.75 119.226562 186.632812 119.226562 L 154.3125 119.226562 C 150.195312 119.226562 146.855469 122.566406 146.855469 126.683594 L 146.855469 141.570312 L 155.855469 141.570312 L 155.855469 131.367188 C 155.855469 129.632812 157.261719 128.226562 158.996094 128.226562 L 181.949219 128.226562 C 183.683594 128.226562 185.085938 129.632812 185.085938 131.367188 L 185.085938 141.570312 Z M 194.085938 141.570312 " fill-opacity="1" fill-rule="nonzero"/><path fill="#05738c" d="M 194.085938 142.765625 L 185.085938 142.765625 C 184.429688 142.765625 183.894531 142.230469 183.894531 141.570312 L 183.894531 131.367188 C 183.894531 130.292969 183.023438 129.421875 181.949219 129.421875 L 158.996094 129.421875 C 157.921875 129.421875 157.050781 130.292969 157.050781 131.367188 L 157.050781 141.570312 C 157.050781 142.230469 156.515625 142.765625 155.855469 142.765625 L 146.855469 142.765625 C 146.199219 142.765625 145.664062 142.230469 145.664062 141.570312 L 145.664062 126.683594 C 145.664062 121.914062 149.542969 118.035156 154.3125 118.035156 L 186.632812 118.035156 C 191.398438 118.035156 195.28125 121.914062 195.28125 126.683594 L 195.28125 141.570312 C 195.28125 142.230469 194.746094 142.765625 194.085938 142.765625 Z M 186.28125 140.378906 L 192.894531 140.378906 L 192.894531 126.683594 C 192.894531 123.230469 190.085938 120.421875 186.632812 120.421875 L 154.3125 120.421875 C 150.859375 120.421875 148.050781 123.230469 148.050781 126.683594 L 148.050781 140.378906 L 154.664062 140.378906 L 154.664062 131.367188 C 154.664062 128.976562 156.605469 127.035156 158.996094 127.035156 L 181.949219 127.035156 C 184.335938 127.035156 186.28125 128.976562 186.28125 131.367188 Z M 186.28125 140.378906 " fill-opacity="1" fill-rule="nonzero"/><path fill="#ffffff" d="M 136.195312 164.457031 L 118.996094 164.457031 L 118.996094 153.230469 C 118.996094 146.820312 124.191406 141.625 130.601562 141.625 L 209.578125 141.625 C 215.988281 141.625 221.183594 146.820312 221.183594 153.230469 L 221.183594 164.457031 Z M 136.195312 164.457031 " fill-opacity="1" fill-rule="nonzero"/><path fill="#05738c" d="M 221.183594 165.648438 L 202.359375 165.648438 C 201.703125 165.648438 201.167969 165.113281 201.167969 164.457031 C 201.167969 163.796875 201.703125 163.261719 202.359375 163.261719 L 219.992188 163.261719 L 219.992188 153.230469 C 219.992188 147.488281 215.320312 142.820312 209.578125 142.820312 L 130.601562 142.820312 C 124.859375 142.820312 120.191406 147.488281 120.191406 153.230469 L 120.191406 163.261719 L 136.195312 163.261719 C 136.855469 163.261719 137.390625 163.796875 137.390625 164.457031 C 137.390625 165.113281 136.855469 165.648438 136.195312 165.648438 L 118.996094 165.648438 C 118.339844 165.648438 117.804688 165.113281 117.804688 164.457031 L 117.804688 153.230469 C 117.804688 146.175781 123.546875 140.433594 130.601562 140.433594 L 209.578125 140.433594 C 216.636719 140.433594 222.375 146.175781 222.375 153.230469 L 222.375 164.457031 C 222.375 165.113281 221.84375 165.648438 221.183594 165.648438 Z M 221.183594 165.648438 " fill-opacity="1" fill-rule="nonzero"/><path fill="#000000" d="M 136.195312 155.800781 L 146.941406 155.800781 L 146.941406 173.675781 L 136.195312 173.675781 Z M 136.195312 155.800781 " fill-opacity="1" fill-rule="nonzero"/><path fill="#05738c" d="M 146.941406 174.867188 L 136.195312 174.867188 C 135.539062 174.867188 135.003906 174.335938 135.003906 173.675781 L 135.003906 155.800781 C 135.003906 155.140625 135.539062 154.609375 136.195312 154.609375 L 146.941406 154.609375 C 147.597656 154.609375 148.132812 155.140625 148.132812 155.800781 L 148.132812 173.675781 C 148.132812 174.335938 147.597656 174.867188 146.941406 174.867188 Z M 137.390625 172.484375 L 145.746094 172.484375 L 145.746094 156.992188 L 137.390625 156.992188 Z M 137.390625 172.484375 " fill-opacity="1" fill-rule="nonzero"/><path fill="#000000" d="M 191.617188 155.800781 L 202.359375 155.800781 L 202.359375 173.675781 L 191.617188 173.675781 Z M 191.617188 155.800781 " fill-opacity="1" fill-rule="nonzero"/><path fill="#05738c" d="M 202.359375 174.867188 L 191.617188 174.867188 C 190.957031 174.867188 190.421875 174.335938 190.421875 173.675781 L 190.421875 155.800781 C 190.421875 155.140625 190.957031 154.609375 191.617188 154.609375 L 202.359375 154.609375 C 203.019531 154.609375 203.554688 155.140625 203.554688 155.800781 L 203.554688 173.675781 C 203.554688 174.335938 203.019531 174.867188 202.359375 174.867188 Z M 192.808594 172.484375 L 201.167969 172.484375 L 201.167969 156.992188 L 192.808594 156.992188 Z M 192.808594 172.484375 " fill-opacity="1" fill-rule="nonzero"/><path fill="#05738c" d="M 182.269531 165.648438 L 146.941406 165.648438 C 146.28125 165.648438 145.746094 165.113281 145.746094 164.457031 C 145.746094 163.796875 146.28125 163.261719 146.941406 163.261719 L 182.269531 163.261719 C 182.929688 163.261719 183.464844 163.796875 183.464844 164.457031 C 183.464844 165.113281 182.929688 165.648438 182.269531 165.648438 Z M 182.269531 165.648438 " fill-opacity="1" fill-rule="nonzero"/><path fill="#ff8300" d="M 169.777344 207.4375 L 181.449219 197.132812 C 186.609375 191.976562 187.394531 188.96875 186.515625 185.453125 C 185.847656 182.792969 184.027344 179.75 179.707031 178.535156 C 176.09375 177.523438 172.191406 179.394531 169.515625 182.03125 C 169.496094 182.050781 169.476562 182.070312 169.457031 182.089844 C 169.4375 182.070312 169.417969 182.050781 169.398438 182.03125 C 166.726562 179.394531 162.824219 177.523438 159.207031 178.535156 C 154.886719 179.75 153.066406 182.792969 152.402344 185.453125 C 151.523438 188.96875 151.996094 191.664062 157.589844 197.257812 L 169.136719 207.441406 C 169.320312 207.601562 169.59375 207.601562 169.777344 207.4375 Z M 169.777344 207.4375 " fill-opacity="1" fill-rule="nonzero"/><path fill="#05738c" d="M 169.457031 208.753906 C 169.058594 208.753906 168.664062 208.613281 168.347656 208.335938 L 156.804688 198.152344 C 156.785156 198.136719 156.765625 198.121094 156.75 198.101562 C 150.839844 192.191406 150.257812 189.109375 151.242188 185.164062 C 152.21875 181.257812 154.933594 178.496094 158.882812 177.390625 C 162.796875 176.289062 166.769531 178.148438 169.457031 180.464844 C 172.144531 178.148438 176.117188 176.289062 180.03125 177.390625 C 183.980469 178.496094 186.695312 181.257812 187.671875 185.164062 C 188.753906 189.5 187.296875 192.972656 182.292969 197.976562 C 182.273438 197.996094 182.257812 198.011719 182.238281 198.027344 L 170.566406 208.332031 C 170.25 208.613281 169.855469 208.753906 169.457031 208.753906 Z M 168.988281 206.546875 Z M 158.410156 196.390625 L 169.457031 206.132812 L 180.632812 196.265625 C 185.574219 191.3125 186.105469 188.746094 185.355469 185.742188 C 184.820312 183.59375 183.347656 180.796875 179.386719 179.683594 C 176.058594 178.753906 172.539062 180.722656 170.355469 182.878906 L 170.300781 182.933594 C 169.835938 183.402344 169.078125 183.402344 168.613281 182.933594 L 168.558594 182.878906 C 166.375 180.722656 162.855469 178.753906 159.527344 179.683594 C 155.566406 180.796875 154.09375 183.59375 153.558594 185.742188 C 152.859375 188.539062 152.820312 190.792969 158.410156 196.390625 Z M 158.410156 196.390625 " fill-opacity="1" fill-rule="nonzero"/><g fill="#000000" fill-opacity="1"><g transform="translate(137.438226, 165.429003)"><g><path d="M 0.890625 -0.625 C 0.890625 -0.882812 0.945312 -1.078125 1.0625 -1.203125 C 1.1875 -1.335938 1.359375 -1.40625 1.578125 -1.40625 C 1.804688 -1.40625 1.984375 -1.335938 2.109375 -1.203125 C 2.234375 -1.078125 2.296875 -0.882812 2.296875 -0.625 C 2.296875 -0.363281 2.226562 -0.164062 2.09375 -0.03125 C 1.96875 0.101562 1.796875 0.171875 1.578125 0.171875 C 1.378906 0.171875 1.210938 0.109375 1.078125 -0.015625 C 0.953125 -0.140625 0.890625 -0.34375 0.890625 -0.625 Z M 0.890625 -0.625 "/></g></g></g></svg>