<svg xmlns="http://www.w3.org/2000/svg" xmlns:xlink="http://www.w3.org/1999/xlink" width="309" zoomAndPan="magnify" viewBox="0 0 231.75 191.249993" height="255" preserveAspectRatio="xMidYMid meet" version="1.0"><defs><g/><clipPath id="aa711cb55d"><path d="M 1 0.0859375 L 230.324219 0.0859375 L 230.324219 190.503906 L 1 190.503906 Z M 1 0.0859375 " clip-rule="nonzero"/></clipPath></defs><path fill="#e2eaff" d="M 71.058594 36.050781 C 70.515625 36.050781 70.082031 36.484375 70.082031 37.027344 L 70.082031 79.457031 C 70.082031 79.988281 70.515625 80.433594 71.058594 80.433594 L 90.226562 80.433594 C 90.761719 80.433594 91.203125 79.996094 91.203125 79.457031 L 91.203125 37.027344 C 91.203125 36.492188 90.765625 36.050781 90.226562 36.050781 Z M 90.234375 85.691406 L 71.066406 85.691406 C 67.632812 85.691406 64.832031 82.894531 64.832031 79.460938 L 64.832031 37.035156 C 64.832031 33.601562 67.632812 30.804688 71.066406 30.804688 L 90.234375 30.804688 C 93.664062 30.804688 96.464844 33.601562 96.464844 37.035156 L 96.464844 79.460938 C 96.464844 82.902344 93.664062 85.691406 90.234375 85.691406 Z M 90.234375 85.691406 " fill-opacity="1" fill-rule="evenodd"/><path fill="#e2eaff" d="M 130.402344 96.542969 C 130.402344 96.542969 130.402344 96.550781 130.402344 96.542969 C 130.402344 96.542969 130.402344 96.550781 130.402344 96.542969 Z M 122.871094 131.988281 C 121.664062 131.988281 120.441406 131.691406 119.335938 131.097656 C 116.886719 129.785156 115.359375 127.242188 115.359375 124.464844 C 115.359375 123.9375 115.300781 123.410156 115.164062 122.90625 C 115.03125 122.378906 114.898438 121.792969 114.746094 121.132812 C 113.445312 115.363281 110.734375 103.363281 98.296875 90.070312 C 97.824219 89.566406 97.296875 89.152344 96.742188 88.839844 C 94.925781 87.859375 92.957031 86.03125 90.90625 83.410156 C 90.007812 82.265625 90.207031 80.617188 91.339844 79.71875 C 92.484375 78.820312 94.140625 79.019531 95.03125 80.160156 C 96.601562 82.15625 98.09375 83.59375 99.253906 84.222656 C 100.304688 84.796875 101.269531 85.554688 102.132812 86.464844 C 115.546875 100.800781 118.46875 113.738281 119.875 119.957031 C 120.007812 120.570312 120.132812 121.125 120.257812 121.585938 C 120.496094 122.503906 120.613281 123.472656 120.613281 124.445312 C 120.613281 125.289062 121.070312 126.042969 121.816406 126.445312 C 122.171875 126.636719 123.097656 127.003906 124.085938 126.351562 C 127.183594 124.292969 129.035156 120.859375 129.035156 117.175781 C 129.035156 116.195312 128.90625 115.21875 128.648438 114.261719 C 128.429688 113.460938 128.21875 112.695312 128.007812 111.941406 C 126.304688 105.785156 124.964844 100.921875 125.15625 96.320312 C 125.207031 94.964844 125.855469 93.707031 126.929688 92.855469 C 128.019531 92.007812 129.417969 91.6875 130.765625 91.957031 C 142.738281 94.476562 156.308594 95.050781 159.625 90.65625 C 161.015625 88.820312 160.59375 85.753906 158.382812 81.542969 C 157.789062 80.414062 158.09375 79.027344 159.097656 78.242188 C 159.617188 77.820312 164.183594 73.757812 158.621094 66.460938 C 158.019531 65.679688 157.914062 64.625 158.335938 63.734375 C 158.734375 62.886719 162.058594 55.289062 155.464844 52.117188 C 154.179688 51.496094 153.625 49.957031 154.21875 48.652344 C 154.277344 48.53125 155.730469 45.058594 153.195312 41.765625 C 149.777344 37.316406 137.460938 30.84375 93.492188 37.4375 C 92.0625 37.65625 90.722656 36.664062 90.511719 35.230469 C 90.296875 33.800781 91.28125 32.460938 92.722656 32.25 C 128.421875 26.890625 150.203125 29.058594 157.445312 38.683594 C 160.21875 42.367188 160.152344 46.15625 159.695312 48.511719 C 165.886719 52.769531 165.308594 60.054688 163.695312 64.539062 C 168.5625 71.8125 166.523438 77.707031 163.902344 80.867188 C 166.304688 86.226562 166.277344 90.582031 163.816406 93.832031 C 157.828125 101.738281 138.976562 99 130.390625 97.25 C 130.402344 100.886719 131.597656 105.183594 133.078125 110.539062 C 133.28125 111.289062 133.5 112.070312 133.71875 112.859375 C 134.101562 114.273438 134.292969 115.71875 134.292969 117.164062 C 134.292969 122.609375 131.566406 127.671875 126.992188 130.714844 C 125.75 131.566406 124.3125 131.988281 122.871094 131.988281 Z M 122.871094 131.988281 " fill-opacity="1" fill-rule="evenodd"/><g clip-path="url(#aa711cb55d)"><path fill="#e2eaff" d="M 115.730469 5.339844 C 55.367188 5.339844 6.261719 39.140625 6.261719 80.695312 C 6.261719 106.476562 25.15625 130.214844 56.828125 144.195312 C 57.488281 144.484375 57.996094 145.039062 58.238281 145.726562 C 58.484375 146.40625 58.425781 147.15625 58.09375 147.804688 C 52.003906 159.578125 42.835938 174.125 31.152344 183.59375 C 34.253906 182.992188 37.882812 182.132812 41.84375 180.917969 C 53.507812 177.347656 70.65625 169.851562 86.113281 154.417969 C 86.722656 153.808594 87.578125 153.546875 88.429688 153.691406 C 97.289062 155.269531 106.46875 156.0625 115.730469 156.0625 C 176.09375 156.0625 225.199219 122.253906 225.199219 80.695312 C 225.199219 39.140625 176.09375 5.339844 115.730469 5.339844 Z M 19.957031 190.273438 C 18.742188 190.273438 17.679688 189.425781 17.394531 188.238281 C 17.117188 187.03125 17.710938 185.796875 18.835938 185.261719 C 33.777344 178.234375 45.691406 159.746094 52.132812 147.835938 C 20.054688 132.839844 1 107.910156 1 80.695312 C 1 58.980469 13.058594 38.632812 34.960938 23.398438 C 56.570312 8.359375 85.25 0.0859375 115.71875 0.0859375 C 146.191406 0.0859375 174.878906 8.359375 196.480469 23.398438 C 218.375 38.636719 230.441406 58.980469 230.441406 80.703125 C 230.441406 102.425781 218.382812 122.773438 196.480469 138.007812 C 174.878906 153.039062 146.191406 161.320312 115.71875 161.320312 C 106.613281 161.320312 97.585938 160.574219 88.847656 159.105469 C 72.820312 174.714844 55.222656 182.34375 43.183594 186.007812 C 29.832031 190.066406 20.390625 190.265625 19.996094 190.273438 C 19.988281 190.273438 19.976562 190.273438 19.957031 190.273438 Z M 19.957031 190.273438 " fill-opacity="1" fill-rule="evenodd"/></g><g fill="#e2eaff" fill-opacity="1"><g transform="translate(44.405274, 142.242176)"><g><path d="M 1.03125 -1.25 C 1.03125 -1.738281 1.160156 -2.109375 1.421875 -2.359375 C 1.679688 -2.609375 2.0625 -2.734375 2.5625 -2.734375 C 3.050781 -2.734375 3.425781 -2.601562 3.6875 -2.34375 C 3.957031 -2.09375 4.09375 -1.726562 4.09375 -1.25 C 4.09375 -0.789062 3.957031 -0.425781 3.6875 -0.15625 C 3.414062 0.101562 3.039062 0.234375 2.5625 0.234375 C 2.070312 0.234375 1.691406 0.101562 1.421875 -0.15625 C 1.160156 -0.414062 1.03125 -0.78125 1.03125 -1.25 Z M 1.03125 -1.25 "/></g></g></g></svg>