<svg xmlns="http://www.w3.org/2000/svg" xmlns:xlink="http://www.w3.org/1999/xlink" width="315" zoomAndPan="magnify" viewBox="0 0 236.25 161.999997" height="216" preserveAspectRatio="xMidYMid meet" version="1.0"><defs><g/><clipPath id="7dbe8bad61"><path d="M 5.195312 0.972656 L 234.714844 0.972656 L 234.714844 161.714844 L 5.195312 161.714844 Z M 5.195312 0.972656 " clip-rule="nonzero"/></clipPath></defs><g clip-path="url(#7dbe8bad61)"><path fill="#05738c" d="M 219.707031 117.058594 C 216.8125 113.257812 215.078125 108.507812 215.078125 103.359375 C 215.078125 97.898438 216.785156 92.648438 220.269531 88.976562 C 228.910156 79.839844 234.214844 69.152344 234.214844 57.109375 C 234.214844 28.789062 205.390625 5.851562 169.867188 5.851562 C 159.824219 5.851562 150.339844 7.710938 141.871094 10.984375 C 128.480469 4.664062 112.960938 0.972656 96.363281 0.972656 C 46.453125 0.972656 5.847656 33.773438 5.847656 74.09375 C 5.847656 90.515625 12.539062 105.921875 25.742188 119.878906 C 29.355469 123.707031 31.347656 129.320312 31.347656 135.6875 C 31.347656 141.625 29.234375 147.378906 25.402344 151.898438 C 25.316406 152 25.121094 152.214844 24.96875 152.382812 L 24.976562 152.386719 L 24.753906 152.625 C 23.183594 154.300781 22.863281 156.78125 23.964844 158.796875 C 24.894531 160.503906 26.679688 161.5625 28.625 161.5625 L 29.152344 161.554688 L 29.609375 161.46875 C 29.609375 161.46875 30.953125 161.210938 31.105469 161.179688 C 42.984375 158.5625 53.414062 151.621094 60.480469 141.632812 L 60.691406 141.335938 L 61.03125 141.453125 C 72.195312 145.285156 84.082031 147.230469 96.363281 147.230469 C 131.109375 147.230469 161.304688 131.3125 176.472656 108.046875 C 184.203125 107.421875 191.527344 105.75 198.195312 103.136719 C 202.578125 110.734375 209.890625 116.441406 218.585938 118.664062 C 218.988281 118.773438 219.808594 118.941406 219.808594 118.941406 C 220.070312 118.988281 220.34375 118.875 220.480469 118.632812 C 220.613281 118.394531 220.566406 118.097656 220.398438 117.902344 C 220.398438 117.902344 219.960938 117.390625 219.707031 117.058594 Z M 96.355469 137.472656 C 83.753906 137.472656 71.671875 135.246094 60.457031 130.855469 L 56.550781 129.324219 L 54.457031 132.960938 C 50.988281 138.964844 45.980469 143.960938 39.964844 147.414062 L 38.855469 148.050781 L 39.265625 146.839844 C 40.484375 143.234375 41.101562 139.480469 41.101562 135.6875 C 41.101562 126.820312 38.167969 118.824219 32.835938 113.175781 C 21.402344 101.085938 15.609375 87.9375 15.609375 74.09375 C 15.609375 39.15625 51.839844 10.734375 96.367188 10.734375 C 140.90625 10.734375 177.136719 39.160156 177.125 74.09375 C 177.125 109.042969 140.894531 137.472656 96.355469 137.472656 Z M 96.355469 137.472656 " fill-opacity="1" fill-rule="nonzero"/></g><g fill="#05738c" fill-opacity="1"><g transform="translate(5.981012, 66.196985)"><g><path d="M 1.03125 -1.25 C 1.03125 -1.738281 1.160156 -2.109375 1.421875 -2.359375 C 1.679688 -2.609375 2.0625 -2.734375 2.5625 -2.734375 C 3.050781 -2.734375 3.425781 -2.601562 3.6875 -2.34375 C 3.957031 -2.09375 4.09375 -1.726562 4.09375 -1.25 C 4.09375 -0.789062 3.957031 -0.425781 3.6875 -0.15625 C 3.414062 0.101562 3.039062 0.234375 2.5625 0.234375 C 2.070312 0.234375 1.691406 0.101562 1.421875 -0.15625 C 1.160156 -0.414062 1.03125 -0.78125 1.03125 -1.25 Z M 1.03125 -1.25 "/></g></g></g></svg>