<svg xmlns="http://www.w3.org/2000/svg" xmlns:xlink="http://www.w3.org/1999/xlink" width="315" zoomAndPan="magnify" viewBox="0 0 236.25 221.249992" height="295" preserveAspectRatio="xMidYMid meet" version="1.0"><defs><g/><clipPath id="6a4e16278a"><path d="M 5.21875 0.328125 L 234.691406 0.328125 L 234.691406 220 L 5.21875 220 Z M 5.21875 0.328125 " clip-rule="nonzero"/></clipPath></defs><g clip-path="url(#6a4e16278a)"><path fill="#05738c" d="M 93.113281 0.535156 C 45.386719 0.535156 5.71875 35.207031 5.71875 78.808594 C 5.71875 99.742188 15.074219 118.75 29.921875 132.777344 L 29.453125 135.074219 C 26.109375 144.882812 17.878906 150.425781 12.992188 152.195312 C 10.152344 153.207031 7.800781 154.746094 6.496094 157.429688 C 5.210938 160.09375 5.988281 163.792969 7.9375 165.71875 C 12.488281 170.289062 18.402344 169.84375 22.722656 169.882812 C 38.96875 170.078125 58.113281 161.554688 69.707031 155.757812 L 69.84375 155.699219 L 73.8125 153.402344 L 72.296875 152.9375 L 72.472656 152.972656 C 78.929688 154.472656 85.703125 154.941406 92.355469 154.941406 C 134.320312 154.941406 170.433594 129.859375 178.410156 93.769531 L 178.410156 93.75 C 179.480469 88.945312 180.042969 83.945312 180.042969 78.808594 C 180.042969 35.246094 140.839844 0.535156 93.113281 0.535156 Z M 93.113281 10.5 C 136.035156 10.5 170.082031 41.238281 170.082031 78.808594 C 170.082031 83.226562 169.597656 87.503906 168.679688 91.609375 C 161.871094 122.429688 130.371094 144.976562 92.355469 144.976562 C 86.207031 144.976562 80.15625 144.511719 74.746094 143.265625 L 72.570312 142.625 L 65.195312 146.867188 C 54.183594 152.371094 35.195312 160.074219 22.839844 159.921875 C 21.144531 159.921875 20.992188 159.589844 19.804688 159.453125 C 26.886719 155.992188 35.058594 149.707031 38.949219 138.148438 L 39.027344 137.894531 L 40.816406 129.492188 L 38.617188 127.546875 C 24.355469 115.074219 15.679688 97.777344 15.679688 78.808594 C 15.679688 41.277344 50.195312 10.5 93.113281 10.5 Z M 50.542969 45.363281 L 50.542969 55.324219 L 135.21875 55.324219 L 135.21875 45.363281 Z M 50.542969 70.265625 L 50.542969 80.226562 L 135.21875 80.226562 L 135.21875 70.265625 Z M 188.933594 91.164062 C 188.683594 92.757812 188.507812 94.355469 188.15625 95.929688 C 187.769531 97.640625 187.261719 99.316406 186.757812 101.007812 C 209.695312 109.859375 224.792969 127.703125 224.792969 147.527344 C 224.792969 161.75 217.398438 175.039062 203.9375 184.980469 L 201.230469 186.984375 L 202.066406 190.253906 C 204.753906 200.542969 214.167969 205.855469 220.6875 209.398438 C 210.355469 210.796875 187.902344 208.464844 176.621094 195.117188 L 174.730469 192.859375 L 171.851562 193.441406 C 167.320312 194.339844 162.066406 194.785156 155.761719 194.785156 C 124.789062 194.785156 99.632812 182.78125 89.84375 164.824219 C 85.796875 164.746094 82.023438 164.472656 78.484375 164.046875 C 87.726562 188.519531 117.433594 204.746094 155.761719 204.746094 C 161.503906 204.746094 166.503906 204.398438 170.996094 203.714844 C 181.988281 214.84375 199.90625 219.667969 214.421875 219.667969 C 215.375 219.667969 216.328125 219.652344 217.242188 219.613281 C 225.667969 219.222656 231.15625 217.277344 233.585938 213.832031 C 234.65625 212.277344 235.027344 210.449219 234.597656 208.65625 C 233.761719 205.097656 230.492188 203.347656 225.960938 200.914062 C 221.503906 198.5 215.648438 195.332031 212.90625 190.601562 C 226.855469 179.085938 234.753906 163.597656 234.753906 147.527344 C 234.753906 123.089844 216.484375 101.28125 188.933594 91.164062 Z M 50.542969 95.171875 L 50.542969 105.132812 L 110.3125 105.132812 L 110.3125 95.171875 Z M 175.140625 125.054688 C 172.648438 128.558594 169.90625 131.902344 166.890625 135.015625 L 190.003906 135.015625 L 190.003906 125.054688 Z M 148.117188 149.957031 C 141.25 154.082031 133.71875 157.449219 125.722656 159.921875 L 190.003906 159.921875 L 190.003906 149.957031 Z M 148.117188 149.957031 " fill-opacity="1" fill-rule="nonzero"/></g><g fill="#05738c" fill-opacity="1"><g transform="translate(6.005071, 74.148638)"><g><path d="M 1.03125 -1.25 C 1.03125 -1.738281 1.160156 -2.109375 1.421875 -2.359375 C 1.679688 -2.609375 2.0625 -2.734375 2.5625 -2.734375 C 3.050781 -2.734375 3.425781 -2.601562 3.6875 -2.34375 C 3.957031 -2.09375 4.09375 -1.726562 4.09375 -1.25 C 4.09375 -0.789062 3.957031 -0.425781 3.6875 -0.15625 C 3.414062 0.101562 3.039062 0.234375 2.5625 0.234375 C 2.070312 0.234375 1.691406 0.101562 1.421875 -0.15625 C 1.160156 -0.414062 1.03125 -0.78125 1.03125 -1.25 Z M 1.03125 -1.25 "/></g></g></g></svg>