<svg xmlns="http://www.w3.org/2000/svg" xmlns:xlink="http://www.w3.org/1999/xlink" width="249" zoomAndPan="magnify" viewBox="0 0 186.75 219" height="292" preserveAspectRatio="xMidYMid meet" version="1.0"><defs><g/><clipPath id="dce432572a"><path d="M 0 0.144531 L 127 0.144531 L 127 110 L 0 110 Z M 0 0.144531 " clip-rule="nonzero"/></clipPath><clipPath id="53fad1e1c0"><path d="M 59 109 L 186.5 109 L 186.5 218.105469 L 59 218.105469 Z M 59 109 " clip-rule="nonzero"/></clipPath></defs><g clip-path="url(#dce432572a)"><path fill="#05738c" d="M 28.527344 109.410156 L 21.613281 109.410156 C 21.613281 69.949219 53.71875 37.84375 93.183594 37.84375 L 96.640625 37.84375 L 96.640625 50.878906 L 116.976562 30.542969 L 96.640625 10.210938 L 96.640625 23.25 L 93.183594 23.25 C 45.671875 23.25 7.019531 61.902344 7.019531 109.410156 L 0.105469 109.410156 C 0.105469 59.246094 39.996094 18.21875 89.726562 16.398438 L 89.726562 5.574219 C 89.726562 3.550781 90.933594 1.742188 92.804688 0.960938 C 94.691406 0.1875 96.824219 0.613281 98.25 2.042969 L 126.75 30.542969 L 98.25 59.046875 C 96.824219 60.472656 94.691406 60.902344 92.816406 60.132812 C 90.933594 59.347656 89.726562 57.539062 89.726562 55.515625 L 89.726562 44.847656 C 55.675781 46.652344 28.527344 74.921875 28.527344 109.410156 Z M 28.527344 109.410156 " fill-opacity="1" fill-rule="nonzero"/></g><g clip-path="url(#53fad1e1c0)"><path fill="#05738c" d="M 91.640625 218.246094 C 90.347656 218.246094 89.074219 217.738281 88.117188 216.78125 L 59.613281 188.28125 L 88.117188 159.78125 C 89.550781 158.34375 91.6875 157.921875 93.5625 158.699219 C 95.425781 159.464844 96.640625 161.277344 96.640625 163.308594 L 96.640625 173.976562 C 130.691406 172.175781 157.835938 143.902344 157.835938 109.410156 L 164.75 109.410156 C 164.75 148.875 132.648438 180.980469 93.183594 180.980469 L 89.726562 180.980469 L 89.726562 167.945312 L 69.390625 188.28125 L 89.726562 208.613281 L 89.726562 195.574219 L 93.183594 195.574219 C 140.695312 195.574219 179.351562 156.921875 179.351562 109.414062 L 186.265625 109.414062 C 186.265625 159.578125 146.375 200.605469 96.640625 202.425781 L 96.640625 213.25 C 96.640625 215.273438 95.433594 217.082031 93.5625 217.859375 C 92.941406 218.117188 92.289062 218.246094 91.640625 218.246094 Z M 91.640625 218.246094 " fill-opacity="1" fill-rule="nonzero"/></g><path fill="#05738c" d="M 93.183594 148.972656 C 71.367188 148.972656 53.621094 131.226562 53.621094 109.410156 C 53.621094 87.597656 71.367188 69.851562 93.183594 69.851562 C 115 69.851562 132.746094 87.597656 132.746094 109.410156 C 132.746094 131.226562 115 148.972656 93.183594 148.972656 Z M 93.183594 76.765625 C 75.183594 76.765625 60.535156 91.410156 60.535156 109.410156 C 60.535156 127.414062 75.183594 142.058594 93.183594 142.058594 C 111.1875 142.058594 125.832031 127.414062 125.832031 109.410156 C 125.832031 91.410156 111.1875 76.765625 93.183594 76.765625 Z M 93.183594 76.765625 " fill-opacity="1" fill-rule="nonzero"/><path fill="#05738c" d="M 89.46875 124.257812 L 74.542969 109.335938 L 79.433594 104.445312 L 89.46875 114.480469 L 106.9375 97.007812 L 111.824219 101.894531 Z M 89.46875 124.257812 " fill-opacity="1" fill-rule="nonzero"/><path fill="#1e3d58" d="M 50.671875 180.367188 C 48.363281 178.980469 46.089844 177.460938 43.925781 175.851562 L 48.503906 169.683594 C 50.46875 171.144531 52.53125 172.523438 54.625 173.78125 Z M 37.652344 170.699219 C 35.65625 168.890625 33.726562 166.960938 31.914062 164.964844 L 37.605469 159.800781 C 39.25 161.613281 41 163.367188 42.8125 165.011719 Z M 26.761719 158.699219 C 25.15625 156.53125 23.632812 154.261719 22.246094 151.957031 L 28.828125 147.996094 C 30.085938 150.089844 31.46875 152.148438 32.929688 154.113281 Z M 18.410156 144.804688 C 17.253906 142.367188 16.207031 139.839844 15.300781 137.308594 L 22.535156 134.71875 C 23.355469 137.015625 24.304688 139.300781 25.351562 141.511719 Z M 12.945312 129.539062 C 12.289062 126.921875 11.757812 124.242188 11.367188 121.574219 L 18.964844 120.457031 C 19.324219 122.871094 19.804688 125.304688 20.398438 127.675781 Z M 12.945312 129.539062 " fill-opacity="1" fill-rule="nonzero"/><path fill="#1e3d58" d="M 167.402344 98.367188 C 167.046875 95.945312 166.566406 93.515625 165.972656 91.148438 L 173.425781 89.28125 C 174.078125 91.898438 174.609375 94.578125 175.007812 97.246094 Z M 163.835938 84.101562 C 163.007812 81.796875 162.058594 79.515625 161.015625 77.308594 L 167.957031 74.019531 C 169.109375 76.449219 170.15625 78.96875 171.070312 81.511719 Z M 157.539062 70.824219 C 156.273438 68.726562 154.898438 66.667969 153.4375 64.707031 L 159.605469 60.125 C 161.210938 62.289062 162.730469 64.554688 164.121094 66.867188 Z M 148.761719 59.015625 C 147.121094 57.210938 145.371094 55.460938 143.554688 53.8125 L 148.710938 48.121094 C 150.714844 49.9375 152.644531 51.867188 154.453125 53.859375 Z M 137.859375 49.136719 C 135.894531 47.679688 133.835938 46.304688 131.738281 45.042969 L 135.691406 38.457031 C 138.007812 39.84375 140.277344 41.363281 142.4375 42.972656 Z M 137.859375 49.136719 " fill-opacity="1" fill-rule="nonzero"/><g fill="#05738c" fill-opacity="1"><g transform="translate(90.678198, 115.566891)"><g><path d="M 1.03125 -1.25 C 1.03125 -1.738281 1.160156 -2.109375 1.421875 -2.359375 C 1.679688 -2.617188 2.066406 -2.75 2.578125 -2.75 C 3.054688 -2.75 3.425781 -2.617188 3.6875 -2.359375 C 3.957031 -2.097656 4.09375 -1.726562 4.09375 -1.25 C 4.09375 -0.789062 3.957031 -0.425781 3.6875 -0.15625 C 3.425781 0.101562 3.054688 0.234375 2.578125 0.234375 C 2.078125 0.234375 1.691406 0.101562 1.421875 -0.15625 C 1.160156 -0.414062 1.03125 -0.78125 1.03125 -1.25 Z M 1.03125 -1.25 "/></g></g></g></svg>