<svg xmlns="http://www.w3.org/2000/svg" xmlns:xlink="http://www.w3.org/1999/xlink" width="254" zoomAndPan="magnify" viewBox="0 0 190.5 231" height="308" preserveAspectRatio="xMidYMid meet" version="1.0"><defs><g/></defs><path fill="#05738c" d="M 94.28125 2.1875 C 92.945312 2.210938 91.882812 3.308594 91.90625 4.636719 L 91.90625 22.800781 C 91.859375 24.164062 92.957031 25.296875 94.320312 25.296875 C 95.679688 25.296875 96.765625 24.164062 96.730469 22.800781 L 96.730469 4.636719 C 96.753906 3.273438 95.644531 2.164062 94.28125 2.1875 Z M 70.59375 5.3125 C 68.964844 5.277344 67.769531 6.832031 68.214844 8.386719 L 72.921875 25.9375 C 73.234375 27.265625 74.574219 28.074219 75.898438 27.722656 C 77.214844 27.375 77.972656 26 77.578125 24.695312 L 72.871094 7.144531 C 72.605469 6.082031 71.679688 5.347656 70.59375 5.3125 Z M 48.277344 14.503906 C 46.457031 14.5625 45.359375 16.578125 46.300781 18.144531 L 55.394531 33.886719 C 56.035156 35.082031 57.542969 35.503906 58.722656 34.828125 C 59.894531 34.140625 60.277344 32.632812 59.566406 31.460938 L 50.484375 15.734375 C 50.039062 14.9375 49.195312 14.46875 48.277344 14.503906 Z M 129.058594 21.582031 C 124.125 21.609375 118.996094 22.199219 113.714844 23.429688 L 119.394531 44.597656 C 120.46875 43.839844 121.699219 43.246094 123.039062 42.898438 C 124.558594 42.488281 126.089844 42.414062 127.5625 42.621094 C 131.964844 43.234375 135.8125 46.417969 137.03125 50.980469 C 138.660156 57.046875 135.027344 63.34375 128.949219 64.972656 C 127.609375 65.320312 126.257812 65.429688 124.945312 65.308594 L 130.6875 86.71875 L 151.410156 81.171875 C 153.53125 80.167969 155.691406 82.484375 154.542969 84.535156 C 154.53125 84.558594 154.519531 84.582031 154.496094 84.609375 C 153.652344 86.078125 153.363281 87.839844 153.84375 89.613281 C 154.796875 93.160156 158.378906 95.234375 161.925781 94.28125 C 165.472656 93.328125 167.535156 89.746094 166.59375 86.199219 C 166.113281 84.425781 164.976562 83.039062 163.519531 82.195312 C 163.496094 82.183594 163.46875 82.171875 163.457031 82.160156 C 163.433594 82.148438 163.410156 82.136719 163.398438 82.125 C 161.492188 80.90625 162.15625 77.972656 164.398438 77.695312 L 184.179688 72.402344 C 183.652344 67.09375 182.722656 62.222656 181.105469 57.566406 C 180.539062 57.78125 179.960938 57.960938 179.355469 58.132812 C 169.863281 60.675781 160.03125 54.996094 157.488281 45.503906 C 156.0625 40.183594 157.210938 34.753906 160.164062 30.570312 C 151.457031 24.792969 140.84375 21.546875 129.046875 21.59375 Z M 174.628906 27.832031 C 173.554688 27.855469 172.457031 27.988281 171.371094 28.289062 C 164.386719 30.160156 160.273438 37.265625 162.144531 44.25 C 164.027344 51.21875 171.128906 55.332031 178.113281 53.464844 C 185.097656 51.59375 189.199219 44.476562 187.328125 37.503906 C 185.929688 32.269531 181.574219 28.640625 176.546875 27.953125 C 175.917969 27.867188 175.28125 27.832031 174.628906 27.832031 Z M 29.339844 29.085938 C 27.167969 29.085938 26.105469 31.726562 27.664062 33.234375 L 40.507812 46.082031 C 41.460938 47.035156 42.980469 47.035156 43.933594 46.082031 C 44.875 45.140625 44.875 43.621094 43.933594 42.667969 L 31.078125 29.820312 C 30.617188 29.351562 29.992188 29.085938 29.339844 29.085938 Z M 179.71875 32.824219 C 181.574219 32.863281 182.699219 34.910156 181.734375 36.503906 L 175.703125 46.707031 C 175.039062 47.84375 173.589844 48.230469 172.445312 47.589844 L 167.65625 44.886719 C 166.472656 44.234375 166.039062 42.753906 166.703125 41.570312 C 167.367188 40.398438 168.863281 39.992188 170.03125 40.679688 L 172.746094 42.210938 L 177.570312 34.042969 C 178.003906 33.285156 178.824219 32.8125 179.71875 32.824219 Z M 91.882812 38.109375 C 53.28125 39.410156 30.738281 70.652344 36.492188 103.691406 L 52.957031 103.691406 C 52.5 102.449219 52.257812 101.121094 52.257812 99.734375 C 52.257812 93.449219 57.394531 88.3125 63.679688 88.3125 C 69.964844 88.3125 75.105469 93.449219 75.105469 99.734375 C 75.105469 101.121094 74.851562 102.449219 74.402344 103.691406 L 91.917969 103.691406 C 91.808594 94.222656 92.003906 80.941406 92.039062 77.152344 C 92.039062 77.117188 92.039062 77.082031 92.039062 77.058594 C 92.039062 77.046875 92.039062 77.03125 92.039062 77.019531 C 92.097656 75.742188 93.148438 74.730469 94.425781 74.71875 C 95.164062 74.703125 95.863281 75.03125 96.320312 75.609375 C 97.503906 76.707031 99.070312 77.382812 100.820312 77.382812 C 104.5 77.382812 107.417969 74.464844 107.417969 70.796875 C 107.417969 67.117188 104.5 64.199219 100.820312 64.199219 C 98.988281 64.199219 97.359375 64.933594 96.152344 66.128906 C 96.128906 66.164062 96.105469 66.1875 96.066406 66.214844 C 96.054688 66.226562 96.042969 66.238281 96.019531 66.25 C 95.972656 66.296875 95.921875 66.332031 95.875 66.371094 C 95.8125 66.417969 95.742188 66.464844 95.679688 66.503906 C 95.667969 66.503906 95.667969 66.503906 95.667969 66.503906 C 94.054688 67.445312 92.027344 66.273438 92.039062 64.402344 C 92.039062 59.046875 91.976562 45.070312 91.882812 38.097656 Z M 14.828125 48.121094 C 12.296875 48.023438 11.355469 51.402344 13.5625 52.644531 L 29.304688 61.726562 C 32.089844 63.304688 34.492188 59.15625 31.714844 57.539062 L 15.976562 48.457031 C 15.636719 48.253906 15.238281 48.132812 14.828125 48.121094 Z M 5.503906 70.265625 C 2.695312 70.339844 2.25 74.34375 4.972656 75.03125 L 22.535156 79.734375 C 25.613281 80.519531 26.84375 75.921875 23.777344 75.066406 L 6.21875 70.363281 C 5.988281 70.289062 5.746094 70.265625 5.503906 70.265625 Z M 63.679688 93.136719 C 60 93.136719 57.082031 96.066406 57.082031 99.734375 C 57.082031 101.566406 57.820312 103.195312 59.011719 104.402344 C 59.035156 104.425781 59.0625 104.449219 59.085938 104.472656 C 59.132812 104.523438 59.179688 104.582031 59.21875 104.644531 C 59.230469 104.644531 59.230469 104.65625 59.242188 104.667969 C 59.277344 104.714844 59.3125 104.765625 59.339844 104.824219 C 59.351562 104.835938 59.363281 104.859375 59.375 104.871094 C 59.410156 104.921875 59.433594 104.96875 59.457031 105.015625 C 59.472656 105.042969 59.484375 105.066406 59.496094 105.089844 C 59.519531 105.136719 59.542969 105.199219 59.554688 105.246094 C 59.566406 105.269531 59.578125 105.292969 59.589844 105.320312 C 59.617188 105.378906 59.628906 105.4375 59.652344 105.5 C 59.652344 105.511719 59.652344 105.523438 59.652344 105.535156 C 59.675781 105.597656 59.6875 105.65625 59.6875 105.714844 C 59.699219 105.742188 59.699219 105.753906 59.699219 105.777344 C 59.710938 105.835938 59.710938 105.886719 59.722656 105.945312 C 59.722656 105.96875 59.722656 105.992188 59.722656 106.019531 C 59.722656 106.054688 59.722656 106.101562 59.722656 106.140625 C 59.722656 106.1875 59.722656 106.234375 59.722656 106.273438 C 59.710938 106.285156 59.710938 106.308594 59.710938 106.320312 C 59.710938 106.378906 59.699219 106.453125 59.6875 106.523438 C 59.675781 106.597656 59.652344 106.667969 59.640625 106.753906 C 59.617188 106.828125 59.589844 106.910156 59.566406 106.984375 C 59.554688 106.996094 59.554688 107.007812 59.542969 107.007812 C 59.496094 107.152344 59.421875 107.285156 59.339844 107.40625 C 59.300781 107.476562 59.253906 107.539062 59.207031 107.609375 C 58.734375 108.1875 58.035156 108.527344 57.289062 108.515625 L 37.265625 108.515625 C 37.3125 108.695312 37.347656 108.863281 37.398438 109.035156 C 42.210938 127.007812 51.96875 138.164062 60.820312 147.65625 C 65.25 152.410156 69.457031 156.714844 72.65625 161.324219 C 75.367188 165.242188 77.046875 169.574219 77.578125 174.300781 L 91.90625 174.300781 C 91.90625 164.773438 91.882812 155.183594 91.882812 145.640625 C 90.640625 146.101562 89.300781 146.355469 87.914062 146.355469 C 81.628906 146.355469 76.492188 141.214844 76.492188 134.929688 C 76.492188 128.648438 81.628906 123.507812 87.914062 123.507812 C 89.300781 123.507812 90.640625 123.761719 91.882812 124.21875 L 91.90625 108.515625 L 70.0625 108.515625 C 70.039062 108.515625 70.011719 108.515625 69.988281 108.515625 C 69.90625 108.515625 69.820312 108.503906 69.734375 108.492188 C 69.722656 108.492188 69.722656 108.492188 69.722656 108.492188 C 69.652344 108.480469 69.578125 108.46875 69.507812 108.453125 C 69.507812 108.453125 69.496094 108.453125 69.484375 108.453125 C 69.421875 108.441406 69.363281 108.417969 69.3125 108.394531 C 69.289062 108.394531 69.265625 108.382812 69.242188 108.382812 C 69.191406 108.359375 69.132812 108.335938 69.085938 108.308594 C 69.058594 108.296875 69.046875 108.296875 69.023438 108.285156 C 68.964844 108.25 68.902344 108.226562 68.84375 108.1875 C 68.832031 108.175781 68.832031 108.175781 68.820312 108.175781 C 68.769531 108.140625 68.710938 108.105469 68.648438 108.070312 C 68.648438 108.058594 68.636719 108.042969 68.625 108.03125 C 68.578125 107.996094 68.53125 107.960938 68.480469 107.910156 C 68.46875 107.898438 68.457031 107.886719 68.433594 107.875 C 68.398438 107.839844 68.347656 107.792969 68.3125 107.753906 C 68.289062 107.742188 68.277344 107.730469 68.265625 107.71875 C 68.226562 107.671875 68.191406 107.632812 68.167969 107.597656 C 68.144531 107.574219 68.121094 107.550781 68.109375 107.527344 C 68.082031 107.488281 68.058594 107.453125 68.035156 107.417969 C 68.011719 107.382812 68 107.355469 67.976562 107.320312 C 67.949219 107.285156 67.925781 107.25 67.914062 107.210938 C 67.890625 107.175781 67.878906 107.140625 67.855469 107.105469 C 67.84375 107.066406 67.832031 107.019531 67.816406 106.984375 C 67.804688 106.945312 67.792969 106.921875 67.78125 106.886719 C 67.769531 106.839844 67.746094 106.789062 67.734375 106.742188 C 67.734375 106.71875 67.722656 106.683594 67.710938 106.644531 C 67.710938 106.609375 67.699219 106.574219 67.699219 106.535156 C 67.683594 106.488281 67.683594 106.453125 67.671875 106.402344 C 67.671875 106.378906 67.671875 106.34375 67.671875 106.320312 C 67.660156 106.273438 67.660156 106.210938 67.660156 106.164062 C 67.660156 106.140625 67.660156 106.113281 67.660156 106.078125 C 67.660156 106.03125 67.660156 105.980469 67.660156 105.921875 C 67.671875 105.898438 67.671875 105.863281 67.671875 105.835938 C 67.671875 105.789062 67.683594 105.730469 67.699219 105.679688 C 67.699219 105.65625 67.699219 105.644531 67.699219 105.621094 C 67.710938 105.558594 67.722656 105.5 67.746094 105.4375 C 67.746094 105.4375 67.746094 105.425781 67.757812 105.414062 C 67.769531 105.355469 67.792969 105.28125 67.816406 105.222656 C 67.832031 105.199219 67.84375 105.1875 67.855469 105.160156 C 67.878906 105.113281 67.902344 105.054688 67.925781 104.992188 C 67.9375 104.980469 67.9375 104.980469 67.949219 104.96875 C 68.058594 104.765625 68.191406 104.570312 68.359375 104.414062 C 69.554688 103.21875 70.289062 101.578125 70.289062 99.746094 C 70.289062 96.078125 67.359375 93.160156 63.691406 93.160156 Z M 20.667969 94.039062 C 20.667969 94.039062 20.65625 94.039062 20.644531 94.039062 L 2.464844 94.039062 C 1.101562 93.992188 -0.03125 95.089844 -0.03125 96.453125 C -0.03125 97.828125 1.101562 98.925781 2.464844 98.878906 L 20.644531 98.878906 C 22.007812 98.925781 23.140625 97.839844 23.152344 96.476562 C 23.152344 95.113281 22.03125 94.003906 20.667969 94.039062 Z M 96.730469 108.515625 L 96.695312 128.5625 C 96.695312 128.609375 96.695312 128.648438 96.695312 128.695312 C 96.632812 131.023438 93.644531 131.914062 92.304688 130.023438 C 91.144531 128.972656 89.613281 128.332031 87.914062 128.332031 C 84.234375 128.332031 81.316406 131.253906 81.316406 134.929688 C 81.316406 138.597656 84.234375 141.515625 87.914062 141.515625 C 89.613281 141.515625 91.132812 140.890625 92.304688 139.839844 C 93.65625 137.910156 96.695312 138.851562 96.695312 141.214844 C 96.695312 141.25 96.695312 141.289062 96.695312 141.3125 C 96.695312 152.277344 96.730469 163.324219 96.742188 174.300781 L 111 174.300781 C 111.53125 169.585938 113.195312 165.292969 115.898438 161.417969 C 119.082031 156.871094 123.265625 152.625 127.683594 147.921875 C 136.511719 138.527344 146.257812 127.378906 151.179688 109.035156 C 151.226562 108.878906 151.25 108.671875 151.289062 108.515625 L 135.679688 108.515625 C 136.136719 109.757812 136.390625 111.085938 136.390625 112.472656 C 136.390625 118.753906 131.242188 123.894531 124.96875 123.894531 C 118.683594 123.894531 113.535156 118.753906 113.535156 112.472656 C 113.535156 111.085938 113.785156 109.757812 114.246094 108.515625 Z M 23.175781 113.097656 C 22.960938 113.097656 22.742188 113.136719 22.523438 113.183594 L 4.972656 117.886719 C 3.671875 118.226562 2.886719 119.550781 3.238281 120.855469 C 3.585938 122.15625 4.925781 122.917969 6.21875 122.554688 L 23.777344 117.851562 C 26.542969 117.152344 26.023438 113.085938 23.175781 113.097656 Z M 30.617188 130.855469 C 30.160156 130.84375 29.703125 130.960938 29.304688 131.191406 L 13.5625 140.273438 C 12.367188 140.925781 11.933594 142.433594 12.621094 143.617188 C 13.296875 144.796875 14.816406 145.171875 15.976562 144.460938 L 31.714844 135.378906 C 33.851562 134.183594 33.066406 130.9375 30.617188 130.855469 Z M 42.175781 146.101562 C 41.546875 146.125 40.957031 146.378906 40.507812 146.835938 L 27.664062 159.683594 C 26.675781 160.613281 26.648438 162.179688 27.601562 163.144531 C 28.566406 164.109375 30.136719 164.085938 31.078125 163.097656 L 43.933594 150.25 C 45.515625 148.71875 44.382812 146.039062 42.175781 146.101562 Z M 74.972656 179.125 C 72.703125 179.125 70.941406 180.886719 70.941406 183.15625 C 70.941406 185.421875 72.703125 187.171875 74.972656 187.171875 L 113.59375 187.171875 C 115.863281 187.171875 117.609375 185.421875 117.609375 183.15625 C 117.609375 180.886719 115.863281 179.125 113.59375 179.125 Z M 75.730469 191.996094 L 75.960938 210.957031 C 76.070312 221.089844 84.078125 229.148438 94.269531 229.148438 C 104.460938 229.148438 112.460938 221.089844 112.582031 210.957031 L 112.820312 191.996094 Z M 85.199219 208.246094 L 103.363281 208.246094 C 104.703125 208.234375 105.800781 209.316406 105.800781 210.65625 C 105.800781 211.996094 104.703125 213.082031 103.363281 213.070312 L 85.199219 213.070312 C 83.847656 213.082031 82.761719 211.996094 82.761719 210.65625 C 82.761719 209.316406 83.847656 208.234375 85.199219 208.246094 Z M 85.199219 208.246094 " fill-opacity="1" fill-rule="nonzero"/><g fill="#05738c" fill-opacity="1"><g transform="translate(155.591617, 64.783118)"><g><path d="M 1.03125 -1.25 C 1.03125 -1.738281 1.160156 -2.109375 1.421875 -2.359375 C 1.679688 -2.617188 2.0625 -2.75 2.5625 -2.75 C 3.050781 -2.75 3.425781 -2.617188 3.6875 -2.359375 C 3.957031 -2.097656 4.09375 -1.726562 4.09375 -1.25 C 4.09375 -0.789062 3.957031 -0.425781 3.6875 -0.15625 C 3.414062 0.101562 3.039062 0.234375 2.5625 0.234375 C 2.070312 0.234375 1.691406 0.101562 1.421875 -0.15625 C 1.160156 -0.414062 1.03125 -0.78125 1.03125 -1.25 Z M 1.03125 -1.25 "/></g></g></g></svg>