<svg xmlns="http://www.w3.org/2000/svg" xmlns:xlink="http://www.w3.org/1999/xlink" width="1920" zoomAndPan="magnify" viewBox="0 0 1440 599.999999" height="800" preserveAspectRatio="xMidYMid meet" version="1.0"><defs><g/><clipPath id="00dac37a95"><path d="M 1307 271.585938 L 1319 271.585938 L 1319 278 L 1307 278 Z M 1307 271.585938 " clip-rule="nonzero"/></clipPath><clipPath id="e552186482"><path d="M 1382 271.585938 L 1392 271.585938 L 1392 274 L 1382 274 Z M 1382 271.585938 " clip-rule="nonzero"/></clipPath><clipPath id="d652665f11"><path d="M 1368 271.585938 L 1377 271.585938 L 1377 274 L 1368 274 Z M 1368 271.585938 " clip-rule="nonzero"/></clipPath><clipPath id="17affec640"><path d="M 1353 271.585938 L 1363 271.585938 L 1363 274 L 1353 274 Z M 1353 271.585938 " clip-rule="nonzero"/></clipPath><clipPath id="75f7811103"><path d="M 1339 271.585938 L 1348 271.585938 L 1348 273 L 1339 273 Z M 1339 271.585938 " clip-rule="nonzero"/></clipPath><clipPath id="82deb093f9"><path d="M 1325 271.585938 L 1334 271.585938 L 1334 273 L 1325 273 Z M 1325 271.585938 " clip-rule="nonzero"/></clipPath></defs><rect x="-144" width="1728" fill="#ffffff" y="-60" height="719.999999" fill-opacity="1"/><rect x="-144" width="1728" fill="#10283c" y="-60" height="719.999999" fill-opacity="1"/><path fill="#05738c" d="M 309.609375 23.179688 L 309.609375 29.664062 L 68 29.664062 L 64.636719 23.179688 Z M 309.609375 23.179688 " fill-opacity="1" fill-rule="nonzero"/><path fill="#05738c" d="M 308.941406 39.832031 C 316.339844 39.832031 322.347656 33.824219 322.347656 26.421875 C 322.347656 19.019531 316.339844 13.011719 308.941406 13.011719 C 301.539062 13.011719 295.53125 19.019531 295.53125 26.421875 C 295.53125 33.824219 301.539062 39.832031 308.941406 39.832031 Z M 308.941406 39.832031 " fill-opacity="1" fill-rule="nonzero"/><path fill="#05738c" d="M 313.566406 88.984375 L 313.566406 95.46875 L 70.34375 95.46875 L 74.492188 88.984375 Z M 313.566406 88.984375 " fill-opacity="1" fill-rule="nonzero"/><path fill="#05738c" d="M 312.894531 105.636719 C 320.296875 105.636719 326.304688 99.628906 326.304688 92.226562 C 326.304688 84.824219 320.296875 78.816406 312.894531 78.816406 C 305.492188 78.816406 299.484375 84.824219 299.484375 92.226562 C 299.484375 99.628906 305.492188 105.636719 312.894531 105.636719 Z M 312.894531 105.636719 " fill-opacity="1" fill-rule="nonzero"/><path fill="#05738c" d="M 331.664062 64.089844 L 331.664062 70.574219 L 86.261719 70.574219 L 87.890625 68.023438 L 85.847656 64.089844 Z M 331.664062 64.089844 " fill-opacity="1" fill-rule="nonzero"/><path fill="#05738c" d="M 330.992188 80.730469 C 338.394531 80.730469 344.402344 74.722656 344.402344 67.320312 C 344.402344 59.917969 338.394531 53.910156 330.992188 53.910156 C 323.59375 53.910156 317.585938 59.917969 317.585938 67.320312 C 317.585938 74.722656 323.59375 80.730469 330.992188 80.730469 Z M 330.992188 80.730469 " fill-opacity="1" fill-rule="nonzero"/><path fill="#05738c" d="M 53.128906 122.644531 L 387.375 122.644531 L 387.375 129.128906 L 53.128906 129.128906 Z M 53.128906 122.644531 " fill-opacity="1" fill-rule="nonzero"/><path fill="#05738c" d="M 386.707031 139.296875 C 394.109375 139.296875 400.117188 133.289062 400.117188 125.886719 C 400.117188 118.484375 394.109375 112.476562 386.707031 112.476562 C 379.304688 112.476562 373.296875 118.484375 373.296875 125.886719 C 373.296875 133.289062 379.304688 139.296875 386.707031 139.296875 Z M 386.707031 139.296875 " fill-opacity="1" fill-rule="nonzero"/><path fill="#05738c" d="M 613.027344 0.0664062 L 613.027344 6.550781 L 56.015625 6.550781 L 52.65625 0.0664062 Z M 613.027344 0.0664062 " fill-opacity="1" fill-rule="nonzero"/><path fill="#05738c" d="M 612.359375 16.707031 C 619.761719 16.707031 625.769531 10.699219 625.769531 3.296875 C 625.769531 -4.101562 619.761719 -10.109375 612.359375 -10.109375 C 604.957031 -10.109375 598.949219 -4.101562 598.949219 3.296875 C 598.949219 10.699219 604.957031 16.707031 612.359375 16.707031 Z M 612.359375 16.707031 " fill-opacity="1" fill-rule="nonzero"/><path fill="#05738c" d="M 618.023438 4.398438 L 705.675781 -83.253906 L 709.496094 -79.433594 L 621.84375 8.21875 Z M 618.023438 4.398438 " fill-opacity="1" fill-rule="nonzero"/><path fill="#05738c" d="M 393.863281 125.824219 L 487.628906 32.058594 L 491.449219 35.878906 L 397.683594 129.644531 Z M 393.863281 125.824219 " fill-opacity="1" fill-rule="nonzero"/><path fill="#05738c" d="M 497.054688 42.261719 C 501.417969 37.898438 501.417969 30.832031 497.054688 26.464844 C 492.6875 22.101562 485.621094 22.101562 481.253906 26.464844 C 476.890625 30.832031 476.890625 37.898438 481.253906 42.261719 C 485.621094 46.628906 492.6875 46.628906 497.054688 42.261719 Z M 497.054688 42.261719 " fill-opacity="1" fill-rule="nonzero"/><path fill="#05738c" d="M 320.742188 93.597656 L 324.5625 89.777344 L 434.921875 200.136719 L 431.101562 203.957031 Z M 320.742188 93.597656 " fill-opacity="1" fill-rule="nonzero"/><path fill="#05738c" d="M 424.730469 209.554688 C 429.097656 213.917969 436.164062 213.917969 440.527344 209.554688 C 444.894531 205.1875 444.894531 198.121094 440.527344 193.757812 C 436.164062 189.390625 429.097656 189.390625 424.730469 193.757812 C 420.367188 198.121094 420.367188 205.1875 424.730469 209.554688 Z M 424.730469 209.554688 " fill-opacity="1" fill-rule="nonzero"/><path fill="#05738c" d="M 317.195312 26.289062 L 410.296875 -66.8125 L 414.117188 -62.992188 L 321.015625 30.109375 Z M 317.195312 26.289062 " fill-opacity="1" fill-rule="nonzero"/><path fill="#05738c" d="M 338.390625 66.652344 L 442.992188 -37.949219 L 446.8125 -34.128906 L 342.210938 70.472656 Z M 338.390625 66.652344 " fill-opacity="1" fill-rule="nonzero"/><path fill="#05738c" d="M 495.441406 30 L 635.449219 30 L 635.449219 33.242188 L 495.441406 33.242188 Z M 495.441406 30 " fill-opacity="1" fill-rule="nonzero"/><path fill="#05738c" d="M 635.113281 38.328125 C 638.820312 38.328125 641.8125 35.324219 641.8125 31.628906 C 641.8125 27.933594 638.808594 24.929688 635.113281 24.929688 C 631.417969 24.929688 628.414062 27.933594 628.414062 31.628906 C 628.414062 35.324219 631.417969 38.328125 635.113281 38.328125 Z M 635.113281 38.328125 " fill-opacity="1" fill-rule="nonzero"/><path fill="#05738c" d="M 465.210938 54.90625 L 534.300781 54.90625 L 534.300781 58.148438 L 465.210938 58.148438 Z M 465.210938 54.90625 " fill-opacity="1" fill-rule="nonzero"/><path fill="#05738c" d="M 533.964844 63.226562 C 537.671875 63.226562 540.664062 60.222656 540.664062 56.527344 C 540.664062 52.832031 537.660156 49.828125 533.964844 49.828125 C 530.269531 49.828125 527.265625 52.832031 527.265625 56.527344 C 527.265625 60.222656 530.269531 63.226562 533.964844 63.226562 Z M 533.964844 63.226562 " fill-opacity="1" fill-rule="nonzero"/><path fill="#05738c" d="M 438.53125 83.355469 L 548.636719 83.355469 L 548.636719 86.597656 L 438.53125 86.597656 Z M 438.53125 83.355469 " fill-opacity="1" fill-rule="nonzero"/><path fill="#05738c" d="M 548.304688 91.6875 C 552.007812 91.6875 555.003906 88.683594 555.003906 84.988281 C 555.003906 81.292969 552 78.289062 548.304688 78.289062 C 544.609375 78.289062 541.605469 81.292969 541.605469 84.988281 C 541.605469 88.683594 544.609375 91.6875 548.304688 91.6875 Z M 548.304688 91.6875 " fill-opacity="1" fill-rule="nonzero"/><path fill="#05738c" d="M 396.496094 162.808594 L 493.304688 162.808594 L 493.304688 166.050781 L 396.496094 166.050781 Z M 396.496094 162.808594 " fill-opacity="1" fill-rule="nonzero"/><path fill="#05738c" d="M 492.96875 171.128906 C 496.675781 171.128906 499.667969 168.125 499.667969 164.429688 C 499.667969 160.734375 496.664062 157.730469 492.96875 157.730469 C 489.273438 157.730469 486.269531 160.734375 486.269531 164.429688 C 486.269531 168.125 489.273438 171.128906 492.96875 171.128906 Z M 492.96875 171.128906 " fill-opacity="1" fill-rule="nonzero"/><path fill="#05738c" d="M 98.027344 64.089844 L 80.175781 29.664062 L 76.816406 23.179688 L 68.191406 6.550781 L 64.832031 0.0664062 L 42.679688 -42.636719 L -82.480469 -48.308594 L -149.960938 57.25 L -92.289062 168.480469 L 32.871094 174.144531 L 61.65625 129.128906 L 65.792969 122.644531 L 83.167969 95.46875 L 87.320312 88.984375 L 99.085938 70.574219 L 100.359375 68.585938 Z M 74.492188 88.984375 L 70.34375 95.46875 L 27.121094 163.070312 L -85.570312 157.96875 L -137.5 57.8125 L -76.730469 -37.234375 L 35.960938 -32.121094 L 52.65625 0.0664062 L 56.015625 6.550781 L 64.636719 23.179688 L 68 29.664062 L 85.847656 64.089844 L 87.890625 68.023438 L 86.261719 70.574219 L 74.492188 88.988281 Z M 74.492188 88.984375 " fill-opacity="1" fill-rule="nonzero"/><g fill="#6bc3b2" fill-opacity="0.4"><g transform="translate(224.257594, 341.720382)"><g><path d="M 2.828125 0 L 2.828125 -81 L 18.484375 -81 L 18.484375 0 Z M 2.828125 0 "/></g></g></g><g fill="#6bc3b2" fill-opacity="0.4"><g transform="translate(245.662508, 341.720382)"><g><path d="M 3.578125 0 L 3.578125 -81 L 20.28125 -81 L 27.71875 -42.25 L 27.71875 -81 L 43.375 -81 L 43.375 0 L 27.53125 0 L 19.421875 -40.546875 L 19.421875 0 Z M 3.578125 0 "/></g></g></g><g fill="#6bc3b2" fill-opacity="0.4"><g transform="translate(292.621293, 341.720382)"><g><path d="M 3.578125 0 L 3.578125 -81 L 36.015625 -81 L 36.015625 -65.25 L 19.890625 -65.25 L 19.890625 -52.328125 L 35.171875 -52.328125 L 35.171875 -36.78125 L 19.890625 -36.78125 L 19.890625 0 Z M 3.578125 0 "/></g></g></g><g fill="#6bc3b2" fill-opacity="0.4"><g transform="translate(330.244905, 341.720382)"><g><path d="M 22.921875 0.75 C 16.378906 0.75 11.410156 -1.242188 8.015625 -5.234375 C 4.617188 -9.222656 2.921875 -14.832031 2.921875 -22.0625 L 2.921875 -60.640625 C 2.921875 -67.609375 4.617188 -72.867188 8.015625 -76.421875 C 11.410156 -79.972656 16.378906 -81.75 22.921875 -81.75 C 29.453125 -81.75 34.414062 -79.972656 37.8125 -76.421875 C 41.207031 -72.867188 42.90625 -67.609375 42.90625 -60.640625 L 42.90625 -22.0625 C 42.90625 -14.769531 41.207031 -9.144531 37.8125 -5.1875 C 34.414062 -1.226562 29.453125 0.75 22.921875 0.75 Z M 22.921875 -14.140625 C 24.359375 -14.140625 25.328125 -14.769531 25.828125 -16.03125 C 26.335938 -17.289062 26.59375 -19.050781 26.59375 -21.3125 L 26.59375 -60.921875 C 26.59375 -62.679688 26.351562 -64.109375 25.875 -65.203125 C 25.40625 -66.304688 24.453125 -66.859375 23.015625 -66.859375 C 20.304688 -66.859375 18.953125 -64.816406 18.953125 -60.734375 L 18.953125 -21.21875 C 18.953125 -18.894531 19.234375 -17.132812 19.796875 -15.9375 C 20.367188 -14.738281 21.410156 -14.140625 22.921875 -14.140625 Z M 22.921875 -14.140625 "/></g></g></g><g fill="#6bc3b2" fill-opacity="0.4"><g transform="translate(376.072159, 341.720382)"><g><path d="M 3.578125 -81 L 28.484375 -81 C 32.441406 -81 35.503906 -80.101562 37.671875 -78.3125 C 39.835938 -76.519531 41.296875 -74.003906 42.046875 -70.765625 C 42.804688 -67.523438 43.1875 -63.394531 43.1875 -58.375 C 43.1875 -53.78125 42.585938 -50.191406 41.390625 -47.609375 C 40.203125 -45.035156 38.128906 -43.25 35.171875 -42.25 C 37.617188 -41.738281 39.394531 -40.507812 40.5 -38.5625 C 41.601562 -36.613281 42.15625 -33.972656 42.15625 -30.640625 L 41.96875 0 L 26.125 0 L 26.125 -31.6875 C 26.125 -33.945312 25.679688 -35.390625 24.796875 -36.015625 C 23.921875 -36.648438 22.316406 -36.96875 19.984375 -36.96875 L 19.984375 0 L 3.578125 0 Z M 23.953125 -51.015625 C 26.210938 -51.015625 27.34375 -53.46875 27.34375 -58.375 C 27.34375 -60.507812 27.25 -62.109375 27.0625 -63.171875 C 26.875 -64.242188 26.523438 -64.984375 26.015625 -65.390625 C 25.515625 -65.804688 24.796875 -66.015625 23.859375 -66.015625 L 20.078125 -66.015625 L 20.078125 -51.015625 Z M 23.953125 -51.015625 "/></g></g></g><g fill="#6bc3b2" fill-opacity="0.4"><g transform="translate(421.050751, 341.720382)"><g><path d="M 3.578125 0 L 3.578125 -81 L 28.296875 -81 L 35.078125 -31.59375 L 41.875 -81 L 66.765625 -81 L 66.765625 0 L 51.953125 0 L 51.953125 -58.375 L 42.625 0 L 28.09375 0 L 18.203125 -58.375 L 18.203125 0 Z M 3.578125 0 "/></g></g></g><g fill="#6bc3b2" fill-opacity="0.4"><g transform="translate(491.39463, 341.720382)"><g><path d="M 1.421875 0 L 9.234375 -81 L 36.6875 -81 L 44.40625 0 L 29.046875 0 L 27.90625 -13.109375 L 18.109375 -13.109375 L 17.15625 0 Z M 19.328125 -26.03125 L 26.6875 -26.03125 L 23.109375 -67.234375 L 22.34375 -67.234375 Z M 11.890625 -83.453125 L 11.890625 -93.71875 L 33.765625 -103.8125 L 33.765625 -87.78125 Z M 11.890625 -83.453125 "/></g></g></g><g fill="#6bc3b2" fill-opacity="0.4"><g transform="translate(537.127572, 341.720382)"><g><path d="M 10.5625 0 L 10.5625 -65.4375 L 0.9375 -65.4375 L 0.9375 -81 L 36.40625 -81 L 36.40625 -65.4375 L 26.78125 -65.4375 L 26.78125 0 Z M 10.5625 0 "/></g></g></g><g fill="#6bc3b2" fill-opacity="0.4"><g transform="translate(574.468289, 341.720382)"><g><path d="M 2.828125 0 L 2.828125 -81 L 18.484375 -81 L 18.484375 0 Z M 2.828125 0 "/></g></g></g><g fill="#6bc3b2" fill-opacity="0.4"><g transform="translate(595.873202, 341.720382)"><g><path d="M 22.4375 0.75 C 16.53125 0.75 11.800781 -1.101562 8.25 -4.8125 C 4.695312 -8.519531 2.921875 -13.609375 2.921875 -20.078125 L 2.921875 -57.421875 C 2.921875 -65.472656 4.523438 -71.539062 7.734375 -75.625 C 10.941406 -79.707031 15.96875 -81.75 22.8125 -81.75 C 28.789062 -81.75 33.601562 -80.113281 37.25 -76.84375 C 40.894531 -73.582031 42.71875 -68.867188 42.71875 -62.703125 L 42.71875 -48.75 L 26.59375 -48.75 L 26.59375 -60.734375 C 26.59375 -63.054688 26.304688 -64.65625 25.734375 -65.53125 C 25.171875 -66.414062 24.195312 -66.859375 22.8125 -66.859375 C 21.375 -66.859375 20.382812 -66.351562 19.84375 -65.34375 C 19.3125 -64.34375 19.046875 -62.867188 19.046875 -60.921875 L 19.046875 -20.28125 C 19.046875 -18.132812 19.359375 -16.570312 19.984375 -15.59375 C 20.617188 -14.625 21.5625 -14.140625 22.8125 -14.140625 C 25.332031 -14.140625 26.59375 -16.1875 26.59375 -20.28125 L 26.59375 -34.890625 L 42.90625 -34.890625 L 42.90625 -19.609375 C 42.90625 -6.035156 36.082031 0.75 22.4375 0.75 Z M 22.4375 0.75 "/></g></g></g><g fill="#6bc3b2" fill-opacity="0.4"><g transform="translate(640.568924, 341.720382)"><g><path d="M 1.421875 0 L 9.234375 -81 L 36.6875 -81 L 44.40625 0 L 29.046875 0 L 27.90625 -13.109375 L 18.109375 -13.109375 L 17.15625 0 Z M 19.328125 -26.03125 L 26.6875 -26.03125 L 23.109375 -67.234375 L 22.34375 -67.234375 Z M 19.328125 -26.03125 "/></g></g></g><g fill="#6bc3b2" fill-opacity="0.4"><g transform="translate(686.301866, 341.720382)"><g/></g></g><g fill="#6bc3b2" fill-opacity="0.4"><g transform="translate(708.366832, 341.720382)"><g><path d="M 3.578125 -81 L 24.984375 -81 C 31.460938 -81 36.082031 -78.90625 38.84375 -74.71875 C 41.613281 -70.539062 43 -64.429688 43 -56.390625 C 43 -48.335938 41.769531 -42.269531 39.3125 -38.1875 C 36.863281 -34.101562 32.46875 -32.0625 26.125 -32.0625 L 19.515625 -32.0625 L 19.515625 0 L 3.578125 0 Z M 20.46875 -46.671875 C 22.414062 -46.671875 23.84375 -47.03125 24.75 -47.75 C 25.664062 -48.476562 26.265625 -49.519531 26.546875 -50.875 C 26.828125 -52.226562 26.96875 -54.160156 26.96875 -56.671875 C 26.96875 -60.066406 26.585938 -62.519531 25.828125 -64.03125 C 25.078125 -65.539062 23.570312 -66.296875 21.3125 -66.296875 L 19.515625 -66.296875 L 19.515625 -46.671875 Z M 20.46875 -46.671875 "/></g></g></g><g fill="#6bc3b2" fill-opacity="0.4"><g transform="translate(752.873957, 341.720382)"><g><path d="M 1.421875 0 L 9.234375 -81 L 36.6875 -81 L 44.40625 0 L 29.046875 0 L 27.90625 -13.109375 L 18.109375 -13.109375 L 17.15625 0 Z M 19.328125 -26.03125 L 26.6875 -26.03125 L 23.109375 -67.234375 L 22.34375 -67.234375 Z M 19.328125 -26.03125 "/></g></g></g><g fill="#6bc3b2" fill-opacity="0.4"><g transform="translate(798.606899, 341.720382)"><g><path d="M 3.578125 -81 L 28.484375 -81 C 32.441406 -81 35.503906 -80.101562 37.671875 -78.3125 C 39.835938 -76.519531 41.296875 -74.003906 42.046875 -70.765625 C 42.804688 -67.523438 43.1875 -63.394531 43.1875 -58.375 C 43.1875 -53.78125 42.585938 -50.191406 41.390625 -47.609375 C 40.203125 -45.035156 38.128906 -43.25 35.171875 -42.25 C 37.617188 -41.738281 39.394531 -40.507812 40.5 -38.5625 C 41.601562 -36.613281 42.15625 -33.972656 42.15625 -30.640625 L 41.96875 0 L 26.125 0 L 26.125 -31.6875 C 26.125 -33.945312 25.679688 -35.390625 24.796875 -36.015625 C 23.921875 -36.648438 22.316406 -36.96875 19.984375 -36.96875 L 19.984375 0 L 3.578125 0 Z M 23.953125 -51.015625 C 26.210938 -51.015625 27.34375 -53.46875 27.34375 -58.375 C 27.34375 -60.507812 27.25 -62.109375 27.0625 -63.171875 C 26.875 -64.242188 26.523438 -64.984375 26.015625 -65.390625 C 25.515625 -65.804688 24.796875 -66.015625 23.859375 -66.015625 L 20.078125 -66.015625 L 20.078125 -51.015625 Z M 23.953125 -51.015625 "/></g></g></g><g fill="#6bc3b2" fill-opacity="0.4"><g transform="translate(843.585504, 341.720382)"><g><path d="M 1.421875 0 L 9.234375 -81 L 36.6875 -81 L 44.40625 0 L 29.046875 0 L 27.90625 -13.109375 L 18.109375 -13.109375 L 17.15625 0 Z M 19.328125 -26.03125 L 26.6875 -26.03125 L 23.109375 -67.234375 L 22.34375 -67.234375 Z M 19.328125 -26.03125 "/></g></g></g><g fill="#6bc3b2" fill-opacity="0.4"><g transform="translate(889.318446, 341.720382)"><g/></g></g><g fill="#6bc3b2" fill-opacity="0.4"><g transform="translate(911.383411, 341.720382)"><g><path d="M 2.828125 0 L 2.828125 -81 L 18.484375 -81 L 18.484375 0 Z M 2.828125 0 "/></g></g></g><g fill="#6bc3b2" fill-opacity="0.4"><g transform="translate(932.788325, 341.720382)"><g><path d="M 3.578125 0 L 3.578125 -81 L 20.28125 -81 L 27.71875 -42.25 L 27.71875 -81 L 43.375 -81 L 43.375 0 L 27.53125 0 L 19.421875 -40.546875 L 19.421875 0 Z M 3.578125 0 "/></g></g></g><g fill="#6bc3b2" fill-opacity="0.4"><g transform="translate(979.747136, 341.720382)"><g><path d="M 10.5625 0 L 10.5625 -65.4375 L 0.9375 -65.4375 L 0.9375 -81 L 36.40625 -81 L 36.40625 -65.4375 L 26.78125 -65.4375 L 26.78125 0 Z M 10.5625 0 "/></g></g></g><g fill="#6bc3b2" fill-opacity="0.4"><g transform="translate(1017.087878, 341.720382)"><g><path d="M 3.578125 0 L 3.578125 -81 L 36.015625 -81 L 36.015625 -65.34375 L 20.078125 -65.34375 L 20.078125 -49.59375 L 35.359375 -49.59375 L 35.359375 -34.328125 L 20.078125 -34.328125 L 20.078125 -15.75 L 37.0625 -15.75 L 37.0625 0 Z M 3.578125 0 "/></g></g></g><g fill="#6bc3b2" fill-opacity="0.4"><g transform="translate(1055.937294, 341.720382)"><g><path d="M 3.578125 -81 L 28.484375 -81 C 32.441406 -81 35.503906 -80.101562 37.671875 -78.3125 C 39.835938 -76.519531 41.296875 -74.003906 42.046875 -70.765625 C 42.804688 -67.523438 43.1875 -63.394531 43.1875 -58.375 C 43.1875 -53.78125 42.585938 -50.191406 41.390625 -47.609375 C 40.203125 -45.035156 38.128906 -43.25 35.171875 -42.25 C 37.617188 -41.738281 39.394531 -40.507812 40.5 -38.5625 C 41.601562 -36.613281 42.15625 -33.972656 42.15625 -30.640625 L 41.96875 0 L 26.125 0 L 26.125 -31.6875 C 26.125 -33.945312 25.679688 -35.390625 24.796875 -36.015625 C 23.921875 -36.648438 22.316406 -36.96875 19.984375 -36.96875 L 19.984375 0 L 3.578125 0 Z M 23.953125 -51.015625 C 26.210938 -51.015625 27.34375 -53.46875 27.34375 -58.375 C 27.34375 -60.507812 27.25 -62.109375 27.0625 -63.171875 C 26.875 -64.242188 26.523438 -64.984375 26.015625 -65.390625 C 25.515625 -65.804688 24.796875 -66.015625 23.859375 -66.015625 L 20.078125 -66.015625 L 20.078125 -51.015625 Z M 23.953125 -51.015625 "/></g></g></g><g fill="#6bc3b2" fill-opacity="0.4"><g transform="translate(1100.915899, 341.720382)"><g><path d="M 3.578125 0 L 3.578125 -81 L 20.28125 -81 L 27.71875 -42.25 L 27.71875 -81 L 43.375 -81 L 43.375 0 L 27.53125 0 L 19.421875 -40.546875 L 19.421875 0 Z M 3.578125 0 "/></g></g></g><g fill="#6bc3b2" fill-opacity="0.4"><g transform="translate(1147.87471, 341.720382)"><g><path d="M 3.578125 0 L 3.578125 -81 L 36.015625 -81 L 36.015625 -65.34375 L 20.078125 -65.34375 L 20.078125 -49.59375 L 35.359375 -49.59375 L 35.359375 -34.328125 L 20.078125 -34.328125 L 20.078125 -15.75 L 37.0625 -15.75 L 37.0625 0 Z M 3.578125 0 "/></g></g></g><g fill="#6bc3b2" fill-opacity="0.4"><g transform="translate(1186.724126, 341.720382)"><g><path d="M 10.5625 0 L 10.5625 -65.4375 L 0.9375 -65.4375 L 0.9375 -81 L 36.40625 -81 L 36.40625 -65.4375 L 26.78125 -65.4375 L 26.78125 0 Z M 10.5625 0 "/></g></g></g><g fill="#ffffff" fill-opacity="1"><g transform="translate(220.089762, 337.552549)"><g><path d="M 2.828125 0 L 2.828125 -81 L 18.484375 -81 L 18.484375 0 Z M 2.828125 0 "/></g></g></g><g fill="#ffffff" fill-opacity="1"><g transform="translate(241.494676, 337.552549)"><g><path d="M 3.578125 0 L 3.578125 -81 L 20.28125 -81 L 27.71875 -42.25 L 27.71875 -81 L 43.375 -81 L 43.375 0 L 27.53125 0 L 19.421875 -40.546875 L 19.421875 0 Z M 3.578125 0 "/></g></g></g><g fill="#ffffff" fill-opacity="1"><g transform="translate(288.453461, 337.552549)"><g><path d="M 3.578125 0 L 3.578125 -81 L 36.015625 -81 L 36.015625 -65.25 L 19.890625 -65.25 L 19.890625 -52.328125 L 35.171875 -52.328125 L 35.171875 -36.78125 L 19.890625 -36.78125 L 19.890625 0 Z M 3.578125 0 "/></g></g></g><g fill="#ffffff" fill-opacity="1"><g transform="translate(326.077073, 337.552549)"><g><path d="M 22.921875 0.75 C 16.378906 0.75 11.410156 -1.242188 8.015625 -5.234375 C 4.617188 -9.222656 2.921875 -14.832031 2.921875 -22.0625 L 2.921875 -60.640625 C 2.921875 -67.609375 4.617188 -72.867188 8.015625 -76.421875 C 11.410156 -79.972656 16.378906 -81.75 22.921875 -81.75 C 29.453125 -81.75 34.414062 -79.972656 37.8125 -76.421875 C 41.207031 -72.867188 42.90625 -67.609375 42.90625 -60.640625 L 42.90625 -22.0625 C 42.90625 -14.769531 41.207031 -9.144531 37.8125 -5.1875 C 34.414062 -1.226562 29.453125 0.75 22.921875 0.75 Z M 22.921875 -14.140625 C 24.359375 -14.140625 25.328125 -14.769531 25.828125 -16.03125 C 26.335938 -17.289062 26.59375 -19.050781 26.59375 -21.3125 L 26.59375 -60.921875 C 26.59375 -62.679688 26.351562 -64.109375 25.875 -65.203125 C 25.40625 -66.304688 24.453125 -66.859375 23.015625 -66.859375 C 20.304688 -66.859375 18.953125 -64.816406 18.953125 -60.734375 L 18.953125 -21.21875 C 18.953125 -18.894531 19.234375 -17.132812 19.796875 -15.9375 C 20.367188 -14.738281 21.410156 -14.140625 22.921875 -14.140625 Z M 22.921875 -14.140625 "/></g></g></g><g fill="#ffffff" fill-opacity="1"><g transform="translate(371.904327, 337.552549)"><g><path d="M 3.578125 -81 L 28.484375 -81 C 32.441406 -81 35.503906 -80.101562 37.671875 -78.3125 C 39.835938 -76.519531 41.296875 -74.003906 42.046875 -70.765625 C 42.804688 -67.523438 43.1875 -63.394531 43.1875 -58.375 C 43.1875 -53.78125 42.585938 -50.191406 41.390625 -47.609375 C 40.203125 -45.035156 38.128906 -43.25 35.171875 -42.25 C 37.617188 -41.738281 39.394531 -40.507812 40.5 -38.5625 C 41.601562 -36.613281 42.15625 -33.972656 42.15625 -30.640625 L 41.96875 0 L 26.125 0 L 26.125 -31.6875 C 26.125 -33.945312 25.679688 -35.390625 24.796875 -36.015625 C 23.921875 -36.648438 22.316406 -36.96875 19.984375 -36.96875 L 19.984375 0 L 3.578125 0 Z M 23.953125 -51.015625 C 26.210938 -51.015625 27.34375 -53.46875 27.34375 -58.375 C 27.34375 -60.507812 27.25 -62.109375 27.0625 -63.171875 C 26.875 -64.242188 26.523438 -64.984375 26.015625 -65.390625 C 25.515625 -65.804688 24.796875 -66.015625 23.859375 -66.015625 L 20.078125 -66.015625 L 20.078125 -51.015625 Z M 23.953125 -51.015625 "/></g></g></g><g fill="#ffffff" fill-opacity="1"><g transform="translate(416.882919, 337.552549)"><g><path d="M 3.578125 0 L 3.578125 -81 L 28.296875 -81 L 35.078125 -31.59375 L 41.875 -81 L 66.765625 -81 L 66.765625 0 L 51.953125 0 L 51.953125 -58.375 L 42.625 0 L 28.09375 0 L 18.203125 -58.375 L 18.203125 0 Z M 3.578125 0 "/></g></g></g><g fill="#ffffff" fill-opacity="1"><g transform="translate(487.226798, 337.552549)"><g><path d="M 1.421875 0 L 9.234375 -81 L 36.6875 -81 L 44.40625 0 L 29.046875 0 L 27.90625 -13.109375 L 18.109375 -13.109375 L 17.15625 0 Z M 19.328125 -26.03125 L 26.6875 -26.03125 L 23.109375 -67.234375 L 22.34375 -67.234375 Z M 11.890625 -83.453125 L 11.890625 -93.71875 L 33.765625 -103.8125 L 33.765625 -87.78125 Z M 11.890625 -83.453125 "/></g></g></g><g fill="#ffffff" fill-opacity="1"><g transform="translate(532.95974, 337.552549)"><g><path d="M 10.5625 0 L 10.5625 -65.4375 L 0.9375 -65.4375 L 0.9375 -81 L 36.40625 -81 L 36.40625 -65.4375 L 26.78125 -65.4375 L 26.78125 0 Z M 10.5625 0 "/></g></g></g><g fill="#ffffff" fill-opacity="1"><g transform="translate(570.300457, 337.552549)"><g><path d="M 2.828125 0 L 2.828125 -81 L 18.484375 -81 L 18.484375 0 Z M 2.828125 0 "/></g></g></g><g fill="#ffffff" fill-opacity="1"><g transform="translate(591.705371, 337.552549)"><g><path d="M 22.4375 0.75 C 16.53125 0.75 11.800781 -1.101562 8.25 -4.8125 C 4.695312 -8.519531 2.921875 -13.609375 2.921875 -20.078125 L 2.921875 -57.421875 C 2.921875 -65.472656 4.523438 -71.539062 7.734375 -75.625 C 10.941406 -79.707031 15.96875 -81.75 22.8125 -81.75 C 28.789062 -81.75 33.601562 -80.113281 37.25 -76.84375 C 40.894531 -73.582031 42.71875 -68.867188 42.71875 -62.703125 L 42.71875 -48.75 L 26.59375 -48.75 L 26.59375 -60.734375 C 26.59375 -63.054688 26.304688 -64.65625 25.734375 -65.53125 C 25.171875 -66.414062 24.195312 -66.859375 22.8125 -66.859375 C 21.375 -66.859375 20.382812 -66.351562 19.84375 -65.34375 C 19.3125 -64.34375 19.046875 -62.867188 19.046875 -60.921875 L 19.046875 -20.28125 C 19.046875 -18.132812 19.359375 -16.570312 19.984375 -15.59375 C 20.617188 -14.625 21.5625 -14.140625 22.8125 -14.140625 C 25.332031 -14.140625 26.59375 -16.1875 26.59375 -20.28125 L 26.59375 -34.890625 L 42.90625 -34.890625 L 42.90625 -19.609375 C 42.90625 -6.035156 36.082031 0.75 22.4375 0.75 Z M 22.4375 0.75 "/></g></g></g><g fill="#ffffff" fill-opacity="1"><g transform="translate(636.401092, 337.552549)"><g><path d="M 1.421875 0 L 9.234375 -81 L 36.6875 -81 L 44.40625 0 L 29.046875 0 L 27.90625 -13.109375 L 18.109375 -13.109375 L 17.15625 0 Z M 19.328125 -26.03125 L 26.6875 -26.03125 L 23.109375 -67.234375 L 22.34375 -67.234375 Z M 19.328125 -26.03125 "/></g></g></g><g fill="#ffffff" fill-opacity="1"><g transform="translate(682.134034, 337.552549)"><g/></g></g><g fill="#ffffff" fill-opacity="1"><g transform="translate(704.199, 337.552549)"><g><path d="M 3.578125 -81 L 24.984375 -81 C 31.460938 -81 36.082031 -78.90625 38.84375 -74.71875 C 41.613281 -70.539062 43 -64.429688 43 -56.390625 C 43 -48.335938 41.769531 -42.269531 39.3125 -38.1875 C 36.863281 -34.101562 32.46875 -32.0625 26.125 -32.0625 L 19.515625 -32.0625 L 19.515625 0 L 3.578125 0 Z M 20.46875 -46.671875 C 22.414062 -46.671875 23.84375 -47.03125 24.75 -47.75 C 25.664062 -48.476562 26.265625 -49.519531 26.546875 -50.875 C 26.828125 -52.226562 26.96875 -54.160156 26.96875 -56.671875 C 26.96875 -60.066406 26.585938 -62.519531 25.828125 -64.03125 C 25.078125 -65.539062 23.570312 -66.296875 21.3125 -66.296875 L 19.515625 -66.296875 L 19.515625 -46.671875 Z M 20.46875 -46.671875 "/></g></g></g><g fill="#ffffff" fill-opacity="1"><g transform="translate(748.706125, 337.552549)"><g><path d="M 1.421875 0 L 9.234375 -81 L 36.6875 -81 L 44.40625 0 L 29.046875 0 L 27.90625 -13.109375 L 18.109375 -13.109375 L 17.15625 0 Z M 19.328125 -26.03125 L 26.6875 -26.03125 L 23.109375 -67.234375 L 22.34375 -67.234375 Z M 19.328125 -26.03125 "/></g></g></g><g fill="#ffffff" fill-opacity="1"><g transform="translate(794.439067, 337.552549)"><g><path d="M 3.578125 -81 L 28.484375 -81 C 32.441406 -81 35.503906 -80.101562 37.671875 -78.3125 C 39.835938 -76.519531 41.296875 -74.003906 42.046875 -70.765625 C 42.804688 -67.523438 43.1875 -63.394531 43.1875 -58.375 C 43.1875 -53.78125 42.585938 -50.191406 41.390625 -47.609375 C 40.203125 -45.035156 38.128906 -43.25 35.171875 -42.25 C 37.617188 -41.738281 39.394531 -40.507812 40.5 -38.5625 C 41.601562 -36.613281 42.15625 -33.972656 42.15625 -30.640625 L 41.96875 0 L 26.125 0 L 26.125 -31.6875 C 26.125 -33.945312 25.679688 -35.390625 24.796875 -36.015625 C 23.921875 -36.648438 22.316406 -36.96875 19.984375 -36.96875 L 19.984375 0 L 3.578125 0 Z M 23.953125 -51.015625 C 26.210938 -51.015625 27.34375 -53.46875 27.34375 -58.375 C 27.34375 -60.507812 27.25 -62.109375 27.0625 -63.171875 C 26.875 -64.242188 26.523438 -64.984375 26.015625 -65.390625 C 25.515625 -65.804688 24.796875 -66.015625 23.859375 -66.015625 L 20.078125 -66.015625 L 20.078125 -51.015625 Z M 23.953125 -51.015625 "/></g></g></g><g fill="#ffffff" fill-opacity="1"><g transform="translate(839.417672, 337.552549)"><g><path d="M 1.421875 0 L 9.234375 -81 L 36.6875 -81 L 44.40625 0 L 29.046875 0 L 27.90625 -13.109375 L 18.109375 -13.109375 L 17.15625 0 Z M 19.328125 -26.03125 L 26.6875 -26.03125 L 23.109375 -67.234375 L 22.34375 -67.234375 Z M 19.328125 -26.03125 "/></g></g></g><g fill="#ffffff" fill-opacity="1"><g transform="translate(885.150614, 337.552549)"><g/></g></g><g fill="#ffffff" fill-opacity="1"><g transform="translate(907.21558, 337.552549)"><g><path d="M 2.828125 0 L 2.828125 -81 L 18.484375 -81 L 18.484375 0 Z M 2.828125 0 "/></g></g></g><g fill="#ffffff" fill-opacity="1"><g transform="translate(928.620493, 337.552549)"><g><path d="M 3.578125 0 L 3.578125 -81 L 20.28125 -81 L 27.71875 -42.25 L 27.71875 -81 L 43.375 -81 L 43.375 0 L 27.53125 0 L 19.421875 -40.546875 L 19.421875 0 Z M 3.578125 0 "/></g></g></g><g fill="#ffffff" fill-opacity="1"><g transform="translate(975.579304, 337.552549)"><g><path d="M 10.5625 0 L 10.5625 -65.4375 L 0.9375 -65.4375 L 0.9375 -81 L 36.40625 -81 L 36.40625 -65.4375 L 26.78125 -65.4375 L 26.78125 0 Z M 10.5625 0 "/></g></g></g><g fill="#ffffff" fill-opacity="1"><g transform="translate(1012.920046, 337.552549)"><g><path d="M 3.578125 0 L 3.578125 -81 L 36.015625 -81 L 36.015625 -65.34375 L 20.078125 -65.34375 L 20.078125 -49.59375 L 35.359375 -49.59375 L 35.359375 -34.328125 L 20.078125 -34.328125 L 20.078125 -15.75 L 37.0625 -15.75 L 37.0625 0 Z M 3.578125 0 "/></g></g></g><g fill="#ffffff" fill-opacity="1"><g transform="translate(1051.769462, 337.552549)"><g><path d="M 3.578125 -81 L 28.484375 -81 C 32.441406 -81 35.503906 -80.101562 37.671875 -78.3125 C 39.835938 -76.519531 41.296875 -74.003906 42.046875 -70.765625 C 42.804688 -67.523438 43.1875 -63.394531 43.1875 -58.375 C 43.1875 -53.78125 42.585938 -50.191406 41.390625 -47.609375 C 40.203125 -45.035156 38.128906 -43.25 35.171875 -42.25 C 37.617188 -41.738281 39.394531 -40.507812 40.5 -38.5625 C 41.601562 -36.613281 42.15625 -33.972656 42.15625 -30.640625 L 41.96875 0 L 26.125 0 L 26.125 -31.6875 C 26.125 -33.945312 25.679688 -35.390625 24.796875 -36.015625 C 23.921875 -36.648438 22.316406 -36.96875 19.984375 -36.96875 L 19.984375 0 L 3.578125 0 Z M 23.953125 -51.015625 C 26.210938 -51.015625 27.34375 -53.46875 27.34375 -58.375 C 27.34375 -60.507812 27.25 -62.109375 27.0625 -63.171875 C 26.875 -64.242188 26.523438 -64.984375 26.015625 -65.390625 C 25.515625 -65.804688 24.796875 -66.015625 23.859375 -66.015625 L 20.078125 -66.015625 L 20.078125 -51.015625 Z M 23.953125 -51.015625 "/></g></g></g><g fill="#ffffff" fill-opacity="1"><g transform="translate(1096.748067, 337.552549)"><g><path d="M 3.578125 0 L 3.578125 -81 L 20.28125 -81 L 27.71875 -42.25 L 27.71875 -81 L 43.375 -81 L 43.375 0 L 27.53125 0 L 19.421875 -40.546875 L 19.421875 0 Z M 3.578125 0 "/></g></g></g><g fill="#ffffff" fill-opacity="1"><g transform="translate(1143.706878, 337.552549)"><g><path d="M 3.578125 0 L 3.578125 -81 L 36.015625 -81 L 36.015625 -65.34375 L 20.078125 -65.34375 L 20.078125 -49.59375 L 35.359375 -49.59375 L 35.359375 -34.328125 L 20.078125 -34.328125 L 20.078125 -15.75 L 37.0625 -15.75 L 37.0625 0 Z M 3.578125 0 "/></g></g></g><g fill="#ffffff" fill-opacity="1"><g transform="translate(1182.556294, 337.552549)"><g><path d="M 10.5625 0 L 10.5625 -65.4375 L 0.9375 -65.4375 L 0.9375 -81 L 36.40625 -81 L 36.40625 -65.4375 L 26.78125 -65.4375 L 26.78125 0 Z M 10.5625 0 "/></g></g></g><path fill="#c1f4ea" d="M 1281.792969 417.382812 L 1276.0625 414.511719 L 1269.660156 417.714844 L 1269.566406 417.519531 L 1276.0625 414.511719 L 1281.878906 417.203125 Z M 1281.792969 417.382812 " fill-opacity="1" fill-rule="nonzero"/><path fill="#c1f4ea" d="M 1263.257812 420.917969 L 1256.84375 424.117188 L 1256.578125 423.550781 L 1263.066406 420.53125 Z M 1263.257812 420.917969 " fill-opacity="1" fill-rule="nonzero"/><path fill="#c1f4ea" d="M 1250.433594 427.296875 L 1244.019531 430.476562 L 1243.605469 429.613281 L 1250.089844 426.582031 Z M 1250.433594 427.296875 " fill-opacity="1" fill-rule="nonzero"/><path fill="#c1f4ea" d="M 1237.605469 433.652344 L 1231.1875 436.832031 L 1230.628906 435.679688 L 1237.117188 432.648438 Z M 1237.605469 433.652344 " fill-opacity="1" fill-rule="nonzero"/><path fill="#c1f4ea" d="M 1224.773438 440.011719 L 1218.359375 443.191406 L 1217.660156 441.746094 L 1224.144531 438.714844 Z M 1224.773438 440.011719 " fill-opacity="1" fill-rule="nonzero"/><path fill="#c1f4ea" d="M 1211.945312 446.371094 L 1205.519531 449.53125 L 1204.703125 447.832031 L 1211.175781 444.777344 Z M 1211.945312 446.371094 " fill-opacity="1" fill-rule="nonzero"/><path fill="#c1f4ea" d="M 1203.179688 454.835938 L 1201.640625 461.828125 L 1199.570312 461.355469 L 1201.222656 454.390625 Z M 1203.179688 454.835938 " fill-opacity="1" fill-rule="nonzero"/><path fill="#c1f4ea" d="M 1200.109375 468.820312 L 1198.574219 475.8125 L 1196.273438 475.289062 L 1197.925781 468.324219 Z M 1200.109375 468.820312 " fill-opacity="1" fill-rule="nonzero"/><path fill="#c1f4ea" d="M 1197.03125 482.804688 L 1195.480469 489.796875 L 1192.992188 489.222656 L 1194.625 482.257812 Z M 1197.03125 482.804688 " fill-opacity="1" fill-rule="nonzero"/><path fill="#c1f4ea" d="M 1193.929688 496.78125 L 1192.378906 503.773438 L 1189.722656 503.167969 L 1191.355469 496.199219 Z M 1193.929688 496.78125 " fill-opacity="1" fill-rule="nonzero"/><path fill="#c1f4ea" d="M 1190.824219 510.761719 L 1189.273438 517.753906 L 1186.453125 517.109375 L 1188.085938 510.136719 Z M 1190.824219 510.761719 " fill-opacity="1" fill-rule="nonzero"/><path fill="#c1f4ea" d="M 1187.722656 524.738281 L 1186.882812 528.523438 L 1186.589844 527.246094 L 1188.640625 529.804688 L 1186.269531 531.703125 L 1184.226562 529.128906 L 1183.773438 528.550781 L 1183.933594 527.855469 L 1184.824219 524.078125 Z M 1187.722656 524.738281 " fill-opacity="1" fill-rule="nonzero"/><path fill="#c1f4ea" d="M 1193.128906 535.386719 L 1197.613281 540.96875 L 1195.152344 542.929688 L 1190.707031 537.316406 Z M 1193.128906 535.386719 " fill-opacity="1" fill-rule="nonzero"/><path fill="#c1f4ea" d="M 1202.09375 546.550781 L 1206.582031 552.128906 L 1204.039062 554.15625 L 1199.597656 548.542969 Z M 1202.09375 546.550781 " fill-opacity="1" fill-rule="nonzero"/><path fill="#c1f4ea" d="M 1211.0625 557.714844 L 1215.546875 563.292969 L 1212.929688 565.386719 L 1208.484375 559.773438 Z M 1211.0625 557.714844 " fill-opacity="1" fill-rule="nonzero"/><path fill="#c1f4ea" d="M 1220.027344 568.875 L 1224.507812 574.460938 L 1221.820312 576.601562 L 1217.367188 570.992188 Z M 1220.027344 568.875 " fill-opacity="1" fill-rule="nonzero"/><path fill="#c1f4ea" d="M 1228.976562 580.054688 L 1233.445312 585.644531 L 1230.738281 587.8125 L 1226.28125 582.203125 Z M 1228.976562 580.054688 " fill-opacity="1" fill-rule="nonzero"/><path fill="#c1f4ea" d="M 1237.0625 589.53125 L 1244.222656 589.523438 L 1244.222656 593.027344 L 1237.0625 593.015625 Z M 1237.0625 589.53125 " fill-opacity="1" fill-rule="nonzero"/><path fill="#c1f4ea" d="M 1251.378906 589.511719 L 1258.539062 589.503906 L 1258.539062 593.042969 L 1251.378906 593.03125 Z M 1251.378906 589.511719 " fill-opacity="1" fill-rule="nonzero"/><path fill="#c1f4ea" d="M 1265.699219 589.5 L 1272.859375 589.488281 L 1272.859375 593.0625 L 1265.699219 593.050781 Z M 1265.699219 589.5 " fill-opacity="1" fill-rule="nonzero"/><path fill="#c1f4ea" d="M 1280.015625 589.488281 L 1287.175781 589.492188 L 1287.175781 593.050781 L 1280.015625 593.0625 Z M 1280.015625 589.488281 " fill-opacity="1" fill-rule="nonzero"/><path fill="#c1f4ea" d="M 1294.335938 589.503906 L 1301.496094 589.511719 L 1301.496094 593.03125 L 1294.335938 593.042969 Z M 1294.335938 589.503906 " fill-opacity="1" fill-rule="nonzero"/><path fill="#c1f4ea" d="M 1308.652344 589.523438 L 1315.8125 589.53125 L 1315.8125 593.019531 L 1308.652344 593.027344 Z M 1308.652344 589.523438 " fill-opacity="1" fill-rule="nonzero"/><path fill="#c1f4ea" d="M 1319.140625 585.0625 L 1323.617188 579.464844 L 1326.3125 581.617188 L 1321.855469 587.222656 Z M 1319.140625 585.0625 " fill-opacity="1" fill-rule="nonzero"/><path fill="#c1f4ea" d="M 1328.085938 573.875 L 1332.558594 568.289062 L 1335.21875 570.410156 L 1330.769531 576.015625 Z M 1328.085938 573.875 " fill-opacity="1" fill-rule="nonzero"/><path fill="#c1f4ea" d="M 1337.046875 562.707031 L 1341.527344 557.128906 L 1344.109375 559.1875 L 1339.664062 564.800781 Z M 1337.046875 562.707031 " fill-opacity="1" fill-rule="nonzero"/><path fill="#c1f4ea" d="M 1346.011719 551.542969 L 1350.492188 545.960938 L 1353 547.957031 L 1348.554688 553.574219 Z M 1346.011719 551.542969 " fill-opacity="1" fill-rule="nonzero"/><path fill="#c1f4ea" d="M 1354.980469 540.382812 L 1359.460938 534.796875 L 1361.882812 536.730469 L 1357.4375 542.34375 Z M 1354.980469 540.382812 " fill-opacity="1" fill-rule="nonzero"/><path fill="#c1f4ea" d="M 1363.945312 529.21875 L 1365.53125 527.246094 L 1365.242188 528.527344 L 1364.230469 524.011719 L 1367.136719 523.347656 L 1368.195312 527.855469 L 1368.355469 528.558594 L 1367.902344 529.128906 L 1366.328125 531.117188 Z M 1363.945312 529.21875 " fill-opacity="1" fill-rule="nonzero"/><path fill="#c1f4ea" d="M 1362.679688 517.019531 L 1361.128906 510.035156 L 1363.867188 509.40625 L 1365.503906 516.375 Z M 1362.679688 517.019531 " fill-opacity="1" fill-rule="nonzero"/><path fill="#c1f4ea" d="M 1359.578125 503.042969 L 1358.027344 496.054688 L 1360.597656 495.464844 L 1362.234375 502.4375 Z M 1359.578125 503.042969 " fill-opacity="1" fill-rule="nonzero"/><path fill="#c1f4ea" d="M 1356.476562 489.0625 L 1354.925781 482.078125 L 1357.328125 481.527344 L 1358.964844 488.496094 Z M 1356.476562 489.0625 " fill-opacity="1" fill-rule="nonzero"/><path fill="#c1f4ea" d="M 1353.386719 475.085938 L 1351.847656 468.09375 L 1354.03125 467.589844 L 1355.683594 474.558594 Z M 1353.386719 475.085938 " fill-opacity="1" fill-rule="nonzero"/><path fill="#c1f4ea" d="M 1350.3125 461.101562 L 1348.78125 454.101562 L 1350.730469 453.660156 L 1352.382812 460.625 Z M 1350.3125 461.101562 " fill-opacity="1" fill-rule="nonzero"/><path fill="#c1f4ea" d="M 1345.929688 449.203125 L 1339.503906 446.042969 L 1340.273438 444.457031 L 1346.746094 447.503906 Z M 1345.929688 449.203125 " fill-opacity="1" fill-rule="nonzero"/><path fill="#c1f4ea" d="M 1333.089844 442.863281 L 1326.675781 439.683594 L 1327.296875 438.394531 L 1333.78125 441.425781 Z M 1333.089844 442.863281 " fill-opacity="1" fill-rule="nonzero"/><path fill="#c1f4ea" d="M 1320.261719 436.503906 L 1313.851562 433.324219 L 1314.328125 432.328125 L 1320.8125 435.359375 Z M 1320.261719 436.503906 " fill-opacity="1" fill-rule="nonzero"/><path fill="#c1f4ea" d="M 1307.429688 430.144531 L 1301.015625 426.964844 L 1301.355469 426.257812 L 1307.84375 429.296875 Z M 1307.429688 430.144531 " fill-opacity="1" fill-rule="nonzero"/><path fill="#c1f4ea" d="M 1294.605469 423.785156 L 1288.195312 420.585938 L 1288.375 420.214844 L 1294.871094 423.230469 Z M 1294.605469 423.785156 " fill-opacity="1" fill-rule="nonzero"/><path fill="#c1f4ea" d="M 1078.628906 386.164062 L 1072.214844 386.101562 L 1067.875 391.792969 L 1067.699219 391.65625 L 1072.214844 386.101562 L 1078.628906 385.964844 Z M 1078.628906 386.164062 " fill-opacity="1" fill-rule="nonzero"/><path fill="#c1f4ea" d="M 1063.53125 397.484375 L 1059.175781 403.164062 L 1058.679688 402.777344 L 1063.183594 397.210938 Z M 1063.53125 397.484375 " fill-opacity="1" fill-rule="nonzero"/><path fill="#c1f4ea" d="M 1054.808594 408.839844 L 1050.441406 414.511719 L 1049.695312 413.921875 L 1054.1875 408.351562 Z M 1054.808594 408.839844 " fill-opacity="1" fill-rule="nonzero"/><path fill="#c1f4ea" d="M 1046.078125 420.191406 L 1041.710938 425.867188 L 1040.703125 425.070312 L 1045.195312 419.5 Z M 1046.078125 420.191406 " fill-opacity="1" fill-rule="nonzero"/><path fill="#c1f4ea" d="M 1037.347656 431.539062 L 1032.980469 437.214844 L 1031.71875 436.214844 L 1036.210938 430.644531 Z M 1037.347656 431.539062 " fill-opacity="1" fill-rule="nonzero"/><path fill="#c1f4ea" d="M 1028.613281 442.886719 L 1024.234375 448.546875 L 1022.746094 447.378906 L 1027.222656 441.792969 Z M 1028.613281 442.886719 " fill-opacity="1" fill-rule="nonzero"/><path fill="#c1f4ea" d="M 1024.460938 454.339844 L 1026.148438 461.296875 L 1024.082031 461.78125 L 1022.503906 454.800781 Z M 1024.460938 454.339844 " fill-opacity="1" fill-rule="nonzero"/><path fill="#c1f4ea" d="M 1027.84375 468.253906 L 1029.535156 475.210938 L 1027.238281 475.746094 L 1025.660156 468.765625 Z M 1027.84375 468.253906 " fill-opacity="1" fill-rule="nonzero"/><path fill="#c1f4ea" d="M 1031.226562 482.167969 L 1032.894531 489.128906 L 1030.414062 489.707031 L 1028.820312 482.734375 Z M 1031.226562 482.167969 " fill-opacity="1" fill-rule="nonzero"/><path fill="#c1f4ea" d="M 1034.570312 496.085938 L 1036.246094 503.046875 L 1033.597656 503.667969 L 1032.007812 496.6875 Z M 1034.570312 496.085938 " fill-opacity="1" fill-rule="nonzero"/><path fill="#c1f4ea" d="M 1037.925781 510.007812 L 1039.601562 516.964844 L 1036.785156 517.628906 L 1035.191406 510.648438 Z M 1037.925781 510.007812 " fill-opacity="1" fill-rule="nonzero"/><path fill="#c1f4ea" d="M 1041.277344 523.929688 L 1042.183594 527.699219 L 1041.359375 526.679688 L 1044.332031 528.074219 L 1043.03125 530.824219 L 1040.066406 529.40625 L 1039.402344 529.089844 L 1039.242188 528.382812 L 1038.382812 524.609375 Z M 1041.277344 523.929688 " fill-opacity="1" fill-rule="nonzero"/><path fill="#c1f4ea" d="M 1050.8125 531.117188 L 1057.289062 534.164062 L 1055.941406 537.003906 L 1049.488281 533.914062 Z M 1050.8125 531.117188 " fill-opacity="1" fill-rule="nonzero"/><path fill="#c1f4ea" d="M 1063.769531 537.207031 L 1070.253906 540.25 L 1068.859375 543.1875 L 1062.402344 540.097656 Z M 1063.769531 537.207031 " fill-opacity="1" fill-rule="nonzero"/><path fill="#c1f4ea" d="M 1076.734375 543.292969 L 1083.210938 546.34375 L 1081.773438 549.367188 L 1075.320312 546.277344 Z M 1076.734375 543.292969 " fill-opacity="1" fill-rule="nonzero"/><path fill="#c1f4ea" d="M 1089.691406 549.386719 L 1096.164062 552.4375 L 1094.695312 555.542969 L 1088.234375 552.457031 Z M 1089.691406 549.386719 " fill-opacity="1" fill-rule="nonzero"/><path fill="#c1f4ea" d="M 1102.636719 555.5 L 1109.109375 558.554688 L 1107.625 561.691406 L 1101.15625 558.613281 Z M 1102.636719 555.5 " fill-opacity="1" fill-rule="nonzero"/><path fill="#c1f4ea" d="M 1114.0625 560.457031 L 1120.492188 557.308594 L 1122.03125 560.453125 L 1115.59375 563.589844 Z M 1114.0625 560.457031 " fill-opacity="1" fill-rule="nonzero"/><path fill="#c1f4ea" d="M 1126.917969 554.15625 L 1133.34375 551 L 1134.902344 554.179688 L 1128.464844 557.3125 Z M 1126.917969 554.15625 " fill-opacity="1" fill-rule="nonzero"/><path fill="#c1f4ea" d="M 1139.773438 547.851562 L 1146.199219 544.695312 L 1147.769531 547.90625 L 1141.332031 551.042969 Z M 1139.773438 547.851562 " fill-opacity="1" fill-rule="nonzero"/><path fill="#c1f4ea" d="M 1152.632812 541.550781 L 1159.070312 538.414062 L 1160.632812 541.609375 L 1154.199219 544.761719 Z M 1152.632812 541.550781 " fill-opacity="1" fill-rule="nonzero"/><path fill="#c1f4ea" d="M 1165.5 535.273438 L 1171.9375 532.144531 L 1173.484375 535.304688 L 1167.058594 538.457031 Z M 1165.5 535.273438 " fill-opacity="1" fill-rule="nonzero"/><path fill="#c1f4ea" d="M 1178.375 529.003906 L 1184.804688 525.867188 L 1186.339844 529 L 1179.914062 532.148438 Z M 1178.375 529.003906 " fill-opacity="1" fill-rule="nonzero"/><path fill="#c1f4ea" d="M 1185.839844 520.382812 L 1187.394531 513.398438 L 1190.765625 514.148438 L 1189.226562 521.136719 Z M 1185.839844 520.382812 " fill-opacity="1" fill-rule="nonzero"/><path fill="#c1f4ea" d="M 1188.957031 506.410156 L 1190.523438 499.425781 L 1193.84375 500.164062 L 1192.3125 507.15625 Z M 1188.957031 506.410156 " fill-opacity="1" fill-rule="nonzero"/><path fill="#c1f4ea" d="M 1192.097656 492.445312 L 1193.675781 485.460938 L 1196.898438 486.175781 L 1195.371094 493.167969 Z M 1192.097656 492.445312 " fill-opacity="1" fill-rule="nonzero"/><path fill="#c1f4ea" d="M 1195.253906 478.472656 L 1196.828125 471.492188 L 1199.953125 472.183594 L 1198.425781 479.175781 Z M 1195.253906 478.472656 " fill-opacity="1" fill-rule="nonzero"/><path fill="#c1f4ea" d="M 1198.402344 464.507812 L 1199.976562 457.527344 L 1203.003906 458.195312 L 1201.476562 465.191406 Z M 1198.402344 464.507812 " fill-opacity="1" fill-rule="nonzero"/><path fill="#c1f4ea" d="M 1201.558594 450.539062 L 1202.113281 448.070312 L 1202.410156 449.347656 L 1199.53125 445.730469 L 1201.84375 443.863281 L 1204.769531 447.449219 L 1205.226562 448.003906 L 1205.074219 448.726562 L 1204.53125 451.203125 Z M 1201.558594 450.539062 " fill-opacity="1" fill-rule="nonzero"/><path fill="#c1f4ea" d="M 1195.0625 440.136719 L 1190.597656 434.539062 L 1192.78125 432.773438 L 1197.316406 438.324219 Z M 1195.0625 440.136719 " fill-opacity="1" fill-rule="nonzero"/><path fill="#c1f4ea" d="M 1186.136719 428.945312 L 1181.675781 423.347656 L 1183.726562 421.691406 L 1188.253906 427.230469 Z M 1186.136719 428.945312 " fill-opacity="1" fill-rule="nonzero"/><path fill="#c1f4ea" d="M 1177.207031 417.753906 L 1172.742188 412.148438 L 1174.664062 410.605469 L 1179.191406 416.148438 Z M 1177.207031 417.753906 " fill-opacity="1" fill-rule="nonzero"/><path fill="#c1f4ea" d="M 1168.285156 406.546875 L 1163.835938 400.941406 L 1165.578125 399.53125 L 1170.125 405.070312 Z M 1168.285156 406.546875 " fill-opacity="1" fill-rule="nonzero"/><path fill="#c1f4ea" d="M 1159.386719 395.332031 L 1154.933594 389.722656 L 1156.492188 388.464844 L 1161.039062 394 Z M 1159.386719 395.332031 " fill-opacity="1" fill-rule="nonzero"/><path fill="#c1f4ea" d="M 1150.222656 386.574219 L 1143.0625 386.554688 L 1143.054688 384.796875 L 1150.210938 384.6875 Z M 1150.222656 386.574219 " fill-opacity="1" fill-rule="nonzero"/><path fill="#c1f4ea" d="M 1135.902344 386.515625 L 1128.746094 386.476562 L 1128.738281 385.046875 L 1135.898438 384.921875 Z M 1135.902344 386.515625 " fill-opacity="1" fill-rule="nonzero"/><path fill="#c1f4ea" d="M 1121.585938 386.4375 L 1114.425781 386.402344 L 1114.421875 385.292969 L 1121.578125 385.171875 Z M 1121.585938 386.4375 " fill-opacity="1" fill-rule="nonzero"/><path fill="#c1f4ea" d="M 1107.265625 386.359375 L 1100.109375 386.324219 L 1100.101562 385.542969 L 1107.261719 385.417969 Z M 1107.265625 386.359375 " fill-opacity="1" fill-rule="nonzero"/><path fill="#c1f4ea" d="M 1092.949219 386.28125 L 1085.789062 386.226562 L 1085.785156 385.808594 L 1092.941406 385.667969 Z M 1092.949219 386.28125 " fill-opacity="1" fill-rule="nonzero"/><path fill="#05738c" d="M 1036.300781 452.074219 L 1052.296875 517.742188 L 1051.886719 517.226562 L 1113.148438 545.761719 L 1112.085938 545.761719 C 1112.085938 545.761719 1172.589844 515.640625 1172.589844 515.640625 L 1171.667969 516.8125 C 1174.890625 501.574219 1179.125 482.496094 1182.597656 467.316406 C 1182.597656 467.316406 1186.417969 450.855469 1186.417969 450.855469 L 1186.734375 452.210938 C 1177.46875 440.476562 1166.164062 425.90625 1157.140625 414.082031 C 1153.898438 409.8125 1150.632812 405.558594 1147.429688 401.257812 C 1147.371094 401.179688 1147.386719 401.066406 1147.464844 401.003906 C 1147.542969 400.953125 1147.644531 400.964844 1147.710938 401.03125 C 1151.242188 405.070312 1154.714844 409.160156 1158.203125 413.230469 C 1161.699219 417.296875 1165.15625 421.402344 1168.613281 425.496094 C 1174.007812 431.949219 1184.371094 444.28125 1189.714844 450.773438 C 1187.898438 459.414062 1184.363281 475.96875 1182.460938 484.589844 C 1180.527344 493.835938 1177.109375 508.230469 1175.023438 517.550781 C 1175.023438 517.550781 1174.835938 518.367188 1174.835938 518.367188 L 1174.101562 518.71875 L 1113.171875 547.972656 L 1112.636719 548.226562 L 1112.109375 547.976562 C 1111.640625 547.828125 1051.382812 518.605469 1050.914062 518.433594 C 1050.757812 518.175781 1036.097656 452.457031 1035.960938 452.152344 C 1035.9375 452.054688 1036.003906 451.960938 1036.097656 451.9375 C 1036.195312 451.914062 1036.289062 451.972656 1036.3125 452.066406 Z M 1036.300781 452.074219 " fill-opacity="1" fill-rule="nonzero"/><path fill="#c1f4ea" d="M 965.742188 554.269531 L 959.871094 556.855469 L 958.261719 563.828125 L 958.046875 563.773438 L 959.871094 556.855469 L 965.660156 554.09375 Z M 965.742188 554.269531 " fill-opacity="1" fill-rule="nonzero"/><path fill="#c1f4ea" d="M 956.644531 570.800781 L 955.015625 577.777344 L 954.40625 577.628906 L 956.222656 570.699219 Z M 956.644531 570.800781 " fill-opacity="1" fill-rule="nonzero"/><path fill="#c1f4ea" d="M 953.375 584.746094 L 951.734375 591.714844 L 950.808594 591.488281 L 952.605469 584.554688 Z M 953.375 584.746094 " fill-opacity="1" fill-rule="nonzero"/><path fill="#c1f4ea" d="M 950.09375 598.679688 L 948.453125 605.648438 L 947.207031 605.34375 L 949.007812 598.414062 Z M 950.09375 598.679688 " fill-opacity="1" fill-rule="nonzero"/><path fill="#c1f4ea" d="M 1112.910156 604.386719 L 1111.472656 597.375 L 1114.707031 596.695312 L 1116.199219 603.699219 Z M 1112.910156 604.386719 " fill-opacity="1" fill-rule="nonzero"/><path fill="#c1f4ea" d="M 1110.035156 590.359375 L 1108.589844 583.347656 L 1111.722656 582.691406 L 1113.214844 589.695312 Z M 1110.035156 590.359375 " fill-opacity="1" fill-rule="nonzero"/><path fill="#c1f4ea" d="M 1107.152344 576.332031 L 1105.714844 569.324219 L 1108.746094 568.683594 L 1110.238281 575.6875 Z M 1107.152344 576.332031 " fill-opacity="1" fill-rule="nonzero"/><path fill="#c1f4ea" d="M 1104.273438 562.308594 L 1103.765625 559.824219 L 1104.5625 560.871094 L 1100.449219 558.761719 L 1101.785156 556.101562 L 1105.929688 558.167969 L 1106.574219 558.488281 L 1106.730469 559.203125 L 1107.253906 561.6875 Z M 1104.273438 562.308594 " fill-opacity="1" fill-rule="nonzero"/><path fill="#c1f4ea" d="M 1094.070312 555.5 L 1087.699219 552.242188 L 1088.964844 549.730469 L 1095.375 552.917969 Z M 1094.070312 555.5 " fill-opacity="1" fill-rule="nonzero"/><path fill="#c1f4ea" d="M 1081.328125 548.980469 L 1074.957031 545.714844 L 1076.140625 543.359375 L 1082.550781 546.546875 Z M 1081.328125 548.980469 " fill-opacity="1" fill-rule="nonzero"/><path fill="#c1f4ea" d="M 1068.578125 542.453125 L 1062.207031 539.195312 L 1063.316406 536.988281 L 1069.730469 540.171875 Z M 1068.578125 542.453125 " fill-opacity="1" fill-rule="nonzero"/><path fill="#c1f4ea" d="M 1055.839844 535.917969 L 1049.472656 532.644531 L 1050.484375 530.644531 L 1056.902344 533.8125 Z M 1055.839844 535.917969 " fill-opacity="1" fill-rule="nonzero"/><path fill="#c1f4ea" d="M 1043.109375 529.367188 L 1036.742188 526.085938 L 1037.644531 524.296875 L 1044.0625 527.472656 Z M 1043.109375 529.367188 " fill-opacity="1" fill-rule="nonzero"/><path fill="#c1f4ea" d="M 1031.152344 525.164062 L 1024.621094 528.09375 L 1023.886719 526.492188 L 1030.367188 523.445312 Z M 1031.152344 525.164062 " fill-opacity="1" fill-rule="nonzero"/><path fill="#c1f4ea" d="M 1018.082031 531.003906 L 1011.535156 533.914062 L 1010.941406 532.613281 L 1017.414062 529.554688 Z M 1018.082031 531.003906 " fill-opacity="1" fill-rule="nonzero"/><path fill="#c1f4ea" d="M 1005 536.832031 L 998.460938 539.742188 L 998 538.734375 L 1004.46875 535.675781 Z M 1005 536.832031 " fill-opacity="1" fill-rule="nonzero"/><path fill="#c1f4ea" d="M 991.921875 542.65625 L 985.382812 545.574219 L 985.054688 544.863281 L 991.527344 541.800781 Z M 991.921875 542.65625 " fill-opacity="1" fill-rule="nonzero"/><path fill="#c1f4ea" d="M 978.835938 548.484375 L 972.292969 551.378906 L 972.121094 551 L 978.582031 547.921875 Z M 978.835938 548.484375 " fill-opacity="1" fill-rule="nonzero"/><path fill="#05738c" d="M 954.316406 631.761719 L 995.9375 685.015625 L 995.351562 684.714844 L 1062.933594 685.484375 L 1061.96875 685.925781 L 1104.691406 633.558594 L 1104.332031 635.003906 C 1100.992188 619.796875 1096.992188 600.65625 1093.910156 585.394531 C 1093.910156 585.394531 1090.609375 568.820312 1090.609375 568.820312 L 1091.457031 569.925781 C 1078.175781 563.046875 1061.878906 554.433594 1048.789062 547.367188 C 1044.070312 544.816406 1039.34375 542.277344 1034.648438 539.679688 C 1034.558594 539.628906 1034.53125 539.523438 1034.578125 539.433594 C 1034.625 539.351562 1034.726562 539.320312 1034.808594 539.355469 C 1039.691406 541.582031 1044.539062 543.878906 1049.398438 546.152344 C 1054.257812 548.417969 1059.089844 550.738281 1063.9375 553.042969 C 1071.507812 556.699219 1086.035156 563.671875 1093.574219 567.390625 C 1095.476562 576.011719 1099.074219 592.554688 1100.890625 601.191406 C 1102.933594 610.417969 1105.75 624.945312 1107.683594 634.292969 C 1107.683594 634.292969 1107.851562 635.117188 1107.851562 635.117188 L 1107.328125 635.734375 L 1063.851562 687.484375 L 1063.464844 687.945312 L 1062.886719 687.933594 C 1062.390625 687.992188 995.453125 686.179688 994.953125 686.214844 C 994.707031 686.039062 954.28125 632.191406 954.03125 631.972656 C 953.972656 631.894531 953.988281 631.78125 954.066406 631.722656 C 954.144531 631.660156 954.257812 631.679688 954.316406 631.75 Z M 954.316406 631.761719 " fill-opacity="1" fill-rule="nonzero"/><path fill="#c1f4ea" d="M 1443.769531 530.957031 L 1436.609375 531.0625 L 1436.558594 527.5625 L 1443.714844 527.472656 Z M 1443.769531 530.957031 " fill-opacity="1" fill-rule="nonzero"/><path fill="#c1f4ea" d="M 1429.453125 531.171875 L 1422.292969 531.285156 L 1422.246094 527.746094 L 1429.40625 527.65625 Z M 1429.453125 531.171875 " fill-opacity="1" fill-rule="nonzero"/><path fill="#c1f4ea" d="M 1415.132812 531.390625 L 1407.976562 531.5 L 1407.925781 527.929688 L 1415.085938 527.835938 Z M 1415.132812 531.390625 " fill-opacity="1" fill-rule="nonzero"/><path fill="#c1f4ea" d="M 1400.816406 531.601562 L 1393.65625 531.695312 L 1393.609375 528.140625 L 1400.769531 528.03125 Z M 1400.816406 531.601562 " fill-opacity="1" fill-rule="nonzero"/><path fill="#c1f4ea" d="M 1386.503906 531.785156 L 1379.34375 531.878906 L 1379.289062 528.359375 L 1386.449219 528.246094 Z M 1386.503906 531.785156 " fill-opacity="1" fill-rule="nonzero"/><path fill="#c1f4ea" d="M 1372.183594 531.96875 L 1365.027344 532.066406 L 1364.976562 528.574219 L 1372.136719 528.46875 Z M 1372.183594 531.96875 " fill-opacity="1" fill-rule="nonzero"/><path fill="#c1f4ea" d="M 1361.757812 536.582031 L 1357.367188 542.238281 L 1354.640625 540.121094 L 1359.011719 534.457031 Z M 1361.757812 536.582031 " fill-opacity="1" fill-rule="nonzero"/><path fill="#c1f4ea" d="M 1352.972656 547.886719 L 1348.578125 553.535156 L 1345.886719 551.453125 L 1350.261719 545.789062 Z M 1352.972656 547.886719 " fill-opacity="1" fill-rule="nonzero"/><path fill="#c1f4ea" d="M 1344.175781 559.179688 L 1339.765625 564.824219 L 1337.160156 562.800781 L 1341.519531 557.128906 Z M 1344.175781 559.179688 " fill-opacity="1" fill-rule="nonzero"/><path fill="#c1f4ea" d="M 1335.363281 570.46875 L 1330.960938 576.113281 L 1328.429688 574.15625 L 1332.792969 568.480469 Z M 1335.363281 570.46875 " fill-opacity="1" fill-rule="nonzero"/><path fill="#c1f4ea" d="M 1326.558594 581.757812 L 1322.148438 587.398438 L 1319.703125 585.503906 L 1324.0625 579.828125 Z M 1326.558594 581.757812 " fill-opacity="1" fill-rule="nonzero"/><path fill="#c1f4ea" d="M 1317.746094 593.042969 L 1316.1875 595.042969 L 1316.460938 593.757812 L 1317.53125 598.257812 L 1314.636719 598.960938 L 1313.523438 594.46875 L 1313.34375 593.769531 L 1313.789062 593.1875 L 1315.335938 591.183594 Z M 1317.746094 593.042969 " fill-opacity="1" fill-rule="nonzero"/><path fill="#05738c" d="M 1467.859375 662.152344 L 1481.402344 595.9375 L 1481.558594 596.574219 L 1438.316406 544.628906 L 1439.285156 545.078125 L 1371.714844 546.515625 L 1373.042969 545.851562 C 1363.628906 558.257812 1351.660156 573.714844 1342.042969 585.957031 C 1342.042969 585.957031 1331.570312 599.210938 1331.570312 599.210938 L 1331.859375 597.851562 C 1335.238281 612.421875 1339.246094 630.414062 1342.359375 644.960938 C 1343.476562 650.210938 1344.609375 655.449219 1345.671875 660.710938 C 1345.691406 660.804688 1345.628906 660.898438 1345.535156 660.917969 C 1345.445312 660.9375 1345.351562 660.882812 1345.324219 660.792969 C 1343.859375 655.632812 1342.460938 650.453125 1341.042969 645.28125 C 1339.609375 640.109375 1338.246094 634.925781 1336.855469 629.746094 C 1334.730469 621.609375 1330.621094 606.03125 1328.554688 597.882812 C 1333.882812 590.84375 1344.144531 577.378906 1349.542969 570.398438 C 1355.242188 562.855469 1364.472656 551.292969 1370.335938 543.757812 C 1370.335938 543.757812 1370.855469 543.101562 1370.855469 543.101562 L 1371.664062 543.101562 C 1371.664062 543.101562 1439.25 542.636719 1439.25 542.636719 L 1439.84375 542.636719 C 1439.84375 542.636719 1440.207031 543.085938 1440.207031 543.085938 C 1440.574219 543.425781 1482.601562 595.554688 1482.953125 595.914062 C 1482.984375 596.210938 1468.207031 661.902344 1468.199219 662.238281 C 1468.175781 662.332031 1468.082031 662.390625 1467.984375 662.375 C 1467.890625 662.351562 1467.832031 662.261719 1467.847656 662.164062 Z M 1467.859375 662.152344 " fill-opacity="1" fill-rule="nonzero"/><path fill="#05738c" d="M 1352.480469 526.027344 L 1337.445312 460.132812 L 1337.84375 460.648438 L 1277 431.222656 L 1278.054688 431.234375 L 1217.117188 460.472656 L 1218.046875 459.328125 C 1214.445312 475.191406 1210.3125 492.773438 1206.4375 508.667969 C 1206.4375 508.667969 1202.382812 525.066406 1202.382812 525.066406 L 1202.078125 523.6875 C 1211.640625 536.152344 1223.308594 551.605469 1232.613281 564.164062 C 1235.953125 568.695312 1239.324219 573.210938 1242.621094 577.78125 C 1242.683594 577.859375 1242.664062 577.972656 1242.582031 578.035156 C 1242.503906 578.085938 1242.402344 578.074219 1242.34375 578.003906 C 1238.695312 573.703125 1235.117188 569.351562 1231.515625 565.023438 C 1227.90625 560.695312 1224.347656 556.324219 1220.769531 551.972656 C 1215.214844 545.117188 1204.535156 531.992188 1199.035156 525.101562 C 1200.980469 516.488281 1204.761719 499.980469 1206.800781 491.390625 C 1209.367188 480.425781 1212.054688 469.484375 1214.75 458.546875 C 1214.75 458.546875 1214.953125 457.742188 1214.953125 457.742188 L 1215.679688 457.40625 L 1277.023438 429.039062 L 1277.558594 428.789062 L 1278.078125 429.046875 C 1278.425781 429.457031 1338.464844 459.109375 1338.839844 459.464844 C 1338.839844 459.464844 1338.914062 459.8125 1338.914062 459.8125 L 1352.832031 525.949219 C 1352.847656 526.046875 1352.789062 526.140625 1352.695312 526.164062 C 1352.597656 526.183594 1352.503906 526.125 1352.484375 526.027344 Z M 1352.480469 526.027344 " fill-opacity="1" fill-rule="nonzero"/><g clip-path="url(#00dac37a95)"><path fill="#c1f4ea" d="M 1318.71875 271.78125 L 1312.3125 271.574219 C 1312.3125 271.574219 1307.835938 277.164062 1307.835938 277.164062 C 1307.800781 277.210938 1307.730469 277.21875 1307.679688 277.183594 C 1307.632812 277.144531 1307.628906 277.074219 1307.664062 277.027344 L 1312.304688 271.574219 C 1312.304688 271.574219 1318.710938 271.585938 1318.710938 271.585938 C 1318.765625 271.585938 1318.808594 271.628906 1318.808594 271.679688 C 1318.808594 271.734375 1318.765625 271.777344 1318.710938 271.777344 Z M 1318.71875 271.78125 " fill-opacity="1" fill-rule="nonzero"/></g><path fill="#c1f4ea" d="M 1303.367188 282.761719 L 1298.886719 288.34375 C 1298.78125 288.480469 1298.582031 288.5 1298.445312 288.390625 C 1298.308594 288.285156 1298.289062 288.089844 1298.398438 287.949219 C 1298.398438 287.949219 1298.398438 287.949219 1298.398438 287.945312 L 1303.035156 282.484375 C 1303.109375 282.394531 1303.25 282.382812 1303.34375 282.460938 C 1303.433594 282.539062 1303.445312 282.671875 1303.375 282.765625 Z M 1303.367188 282.761719 " fill-opacity="1" fill-rule="nonzero"/><path fill="#c1f4ea" d="M 1294.390625 293.917969 L 1289.894531 299.488281 C 1289.730469 299.691406 1289.429688 299.726562 1289.222656 299.558594 C 1289.019531 299.394531 1288.984375 299.09375 1289.152344 298.886719 C 1289.152344 298.886719 1289.152344 298.878906 1289.15625 298.878906 L 1293.773438 293.410156 C 1293.917969 293.242188 1294.167969 293.21875 1294.335938 293.363281 C 1294.503906 293.5 1294.519531 293.742188 1294.390625 293.910156 Z M 1294.390625 293.917969 " fill-opacity="1" fill-rule="nonzero"/><path fill="#c1f4ea" d="M 1285.398438 305.0625 L 1280.90625 310.632812 C 1280.683594 310.90625 1280.28125 310.949219 1280.003906 310.730469 C 1279.730469 310.507812 1279.6875 310.101562 1279.910156 309.828125 C 1279.910156 309.828125 1279.914062 309.820312 1279.921875 309.816406 L 1284.539062 304.34375 C 1284.734375 304.105469 1285.089844 304.082031 1285.328125 304.28125 C 1285.558594 304.476562 1285.589844 304.824219 1285.398438 305.054688 Z M 1285.398438 305.0625 " fill-opacity="1" fill-rule="nonzero"/><path fill="#c1f4ea" d="M 1276.40625 316.207031 L 1271.914062 321.777344 C 1271.632812 322.125 1271.132812 322.175781 1270.789062 321.898438 C 1270.441406 321.617188 1270.386719 321.117188 1270.667969 320.769531 C 1270.667969 320.769531 1270.675781 320.757812 1270.679688 320.757812 L 1275.296875 315.285156 C 1275.554688 314.984375 1276.007812 314.945312 1276.3125 315.203125 C 1276.609375 315.453125 1276.652344 315.902344 1276.40625 316.207031 Z M 1276.40625 316.207031 " fill-opacity="1" fill-rule="nonzero"/><path fill="#c1f4ea" d="M 1267.417969 327.351562 L 1262.90625 332.910156 C 1262.578125 333.316406 1261.980469 333.375 1261.574219 333.046875 C 1261.171875 332.71875 1261.109375 332.121094 1261.4375 331.71875 C 1261.4375 331.71875 1261.445312 331.703125 1261.449219 331.703125 L 1266.054688 326.222656 C 1266.371094 325.847656 1266.925781 325.796875 1267.304688 326.113281 C 1267.671875 326.425781 1267.722656 326.972656 1267.421875 327.351562 Z M 1267.417969 327.351562 " fill-opacity="1" fill-rule="nonzero"/><path fill="#c1f4ea" d="M 1263.003906 338.703125 L 1264.535156 345.695312 C 1264.660156 346.269531 1264.296875 346.835938 1263.722656 346.960938 C 1263.152344 347.085938 1262.585938 346.722656 1262.460938 346.148438 C 1262.460938 346.148438 1262.460938 346.136719 1262.460938 346.128906 L 1261.039062 339.113281 C 1260.933594 338.570312 1261.285156 338.039062 1261.828125 337.933594 C 1262.363281 337.824219 1262.886719 338.167969 1263.007812 338.703125 Z M 1263.003906 338.703125 " fill-opacity="1" fill-rule="nonzero"/><path fill="#c1f4ea" d="M 1266.0625 352.691406 L 1267.597656 359.683594 C 1267.734375 360.324219 1267.332031 360.949219 1266.695312 361.085938 C 1266.054688 361.222656 1265.429688 360.824219 1265.292969 360.1875 C 1265.292969 360.1875 1265.292969 360.175781 1265.292969 360.167969 L 1263.871094 353.152344 C 1263.746094 352.542969 1264.140625 351.953125 1264.75 351.835938 C 1265.351562 351.714844 1265.9375 352.097656 1266.070312 352.691406 Z M 1266.0625 352.691406 " fill-opacity="1" fill-rule="nonzero"/><path fill="#c1f4ea" d="M 1269.125 366.675781 L 1270.636719 373.675781 C 1270.789062 374.363281 1270.351562 375.042969 1269.660156 375.191406 C 1268.972656 375.339844 1268.292969 374.90625 1268.144531 374.210938 C 1268.144531 374.210938 1268.144531 374.199219 1268.144531 374.199219 L 1266.710938 367.183594 C 1266.574219 366.515625 1267.003906 365.867188 1267.671875 365.730469 C 1268.335938 365.589844 1268.984375 366.015625 1269.128906 366.675781 Z M 1269.125 366.675781 " fill-opacity="1" fill-rule="nonzero"/><path fill="#c1f4ea" d="M 1272.152344 380.671875 L 1273.667969 387.671875 C 1273.832031 388.40625 1273.359375 389.132812 1272.625 389.289062 C 1271.890625 389.449219 1271.164062 388.976562 1271.007812 388.246094 C 1271.007812 388.246094 1271.007812 388.234375 1271.007812 388.226562 L 1269.578125 381.210938 C 1269.433594 380.496094 1269.894531 379.800781 1270.601562 379.652344 C 1271.3125 379.511719 1272.003906 379.964844 1272.152344 380.667969 Z M 1272.152344 380.671875 " fill-opacity="1" fill-rule="nonzero"/><path fill="#c1f4ea" d="M 1275.191406 394.667969 L 1276.707031 401.667969 C 1276.871094 402.449219 1276.378906 403.21875 1275.601562 403.386719 C 1274.820312 403.554688 1274.050781 403.058594 1273.882812 402.28125 C 1273.882812 402.28125 1273.882812 402.269531 1273.882812 402.265625 L 1272.453125 395.25 C 1272.296875 394.492188 1272.785156 393.75 1273.542969 393.597656 C 1274.296875 393.441406 1275.035156 393.925781 1275.195312 394.675781 Z M 1275.191406 394.667969 " fill-opacity="1" fill-rule="nonzero"/><path fill="#c1f4ea" d="M 1278.222656 408.660156 L 1279.042969 412.449219 L 1278.246094 411.410156 L 1281.179688 412.871094 C 1281.933594 413.246094 1282.234375 414.160156 1281.867188 414.914062 C 1281.492188 415.664062 1280.578125 415.96875 1279.824219 415.597656 L 1279.8125 415.597656 C 1279.8125 415.597656 1276.882812 414.105469 1276.882812 414.105469 L 1276.230469 413.773438 L 1276.085938 413.070312 L 1275.308594 409.269531 C 1275.144531 408.464844 1275.660156 407.675781 1276.46875 407.515625 C 1277.265625 407.351562 1278.046875 407.859375 1278.222656 408.652344 Z M 1278.222656 408.660156 " fill-opacity="1" fill-rule="nonzero"/><path fill="#c1f4ea" d="M 1287.585938 416.070312 L 1293.996094 419.261719 C 1294.769531 419.648438 1295.085938 420.589844 1294.699219 421.375 C 1294.3125 422.148438 1293.367188 422.464844 1292.585938 422.078125 L 1292.574219 422.078125 C 1292.574219 422.078125 1286.191406 418.832031 1286.191406 418.832031 C 1285.429688 418.445312 1285.125 417.511719 1285.511719 416.75 C 1285.894531 415.992188 1286.824219 415.6875 1287.582031 416.0625 Z M 1287.585938 416.070312 " fill-opacity="1" fill-rule="nonzero"/><path fill="#c1f4ea" d="M 1300.402344 422.453125 L 1306.808594 425.644531 C 1307.617188 426.042969 1307.9375 427.015625 1307.539062 427.824219 C 1307.136719 428.628906 1306.164062 428.949219 1305.359375 428.550781 L 1305.347656 428.550781 C 1305.347656 428.550781 1298.964844 425.304688 1298.964844 425.304688 C 1298.175781 424.90625 1297.859375 423.945312 1298.261719 423.15625 C 1298.660156 422.375 1299.613281 422.058594 1300.398438 422.445312 Z M 1300.402344 422.453125 " fill-opacity="1" fill-rule="nonzero"/><path fill="#c1f4ea" d="M 1313.21875 428.835938 L 1319.625 432.027344 C 1320.453125 432.441406 1320.789062 433.449219 1320.375 434.273438 C 1319.964844 435.101562 1318.957031 435.433594 1318.132812 435.023438 L 1318.121094 435.023438 C 1318.121094 435.023438 1311.738281 431.777344 1311.738281 431.777344 C 1310.925781 431.367188 1310.597656 430.375 1311.011719 429.558594 C 1311.421875 428.746094 1312.40625 428.425781 1313.21875 428.832031 Z M 1313.21875 428.835938 " fill-opacity="1" fill-rule="nonzero"/><path fill="#c1f4ea" d="M 1326.039062 435.21875 L 1332.441406 438.417969 C 1333.285156 438.839844 1333.632812 439.875 1333.210938 440.722656 C 1332.785156 441.566406 1331.753906 441.914062 1330.90625 441.492188 L 1330.902344 441.492188 C 1330.902344 441.492188 1324.511719 438.257812 1324.511719 438.257812 C 1323.675781 437.832031 1323.335938 436.8125 1323.757812 435.972656 C 1324.183594 435.128906 1325.195312 434.796875 1326.039062 435.21875 Z M 1326.039062 435.21875 " fill-opacity="1" fill-rule="nonzero"/><path fill="#c1f4ea" d="M 1338.839844 441.628906 L 1345.242188 444.835938 C 1346.101562 445.265625 1346.449219 446.3125 1346.019531 447.164062 C 1345.589844 448.015625 1344.542969 448.371094 1343.691406 447.941406 C 1343.691406 447.941406 1337.296875 444.71875 1337.296875 444.71875 C 1336.441406 444.289062 1336.101562 443.25 1336.53125 442.402344 C 1336.960938 441.550781 1337.992188 441.210938 1338.847656 441.640625 Z M 1338.839844 441.628906 " fill-opacity="1" fill-rule="nonzero"/><path fill="#c1f4ea" d="M 1350.148438 446.855469 L 1356.644531 443.847656 C 1357.519531 443.441406 1358.566406 443.824219 1358.96875 444.699219 C 1359.375 445.578125 1358.996094 446.621094 1358.117188 447.027344 C 1358.117188 447.027344 1351.613281 450.015625 1351.613281 450.015625 C 1350.738281 450.414062 1349.707031 450.035156 1349.304688 449.164062 C 1348.90625 448.285156 1349.28125 447.253906 1350.160156 446.855469 Z M 1350.148438 446.855469 " fill-opacity="1" fill-rule="nonzero"/><path fill="#c1f4ea" d="M 1363.144531 440.847656 L 1369.644531 437.839844 C 1370.53125 437.425781 1371.582031 437.816406 1371.988281 438.703125 C 1372.398438 439.59375 1372.011719 440.644531 1371.121094 441.050781 C 1371.121094 441.050781 1364.621094 444.039062 1364.621094 444.039062 C 1363.738281 444.445312 1362.691406 444.054688 1362.289062 443.171875 C 1361.882812 442.289062 1362.261719 441.246094 1363.144531 440.839844 Z M 1363.144531 440.847656 " fill-opacity="1" fill-rule="nonzero"/><path fill="#c1f4ea" d="M 1376.140625 434.832031 L 1382.636719 431.824219 C 1383.53125 431.414062 1384.59375 431.800781 1385.003906 432.695312 C 1385.417969 433.589844 1385.03125 434.652344 1384.132812 435.066406 C 1384.132812 435.066406 1377.632812 438.054688 1377.632812 438.054688 C 1376.742188 438.464844 1375.6875 438.070312 1375.273438 437.183594 C 1374.863281 436.292969 1375.25 435.238281 1376.144531 434.828125 Z M 1376.140625 434.832031 " fill-opacity="1" fill-rule="nonzero"/><path fill="#c1f4ea" d="M 1389.140625 428.832031 L 1395.644531 425.84375 C 1396.539062 425.429688 1397.589844 425.824219 1398 426.710938 C 1398.410156 427.601562 1398.023438 428.65625 1397.128906 429.070312 L 1390.632812 432.078125 C 1389.738281 432.488281 1388.675781 432.101562 1388.261719 431.207031 C 1387.851562 430.308594 1388.238281 429.25 1389.132812 428.835938 Z M 1389.140625 428.832031 " fill-opacity="1" fill-rule="nonzero"/><path fill="#c1f4ea" d="M 1402.152344 422.851562 L 1408.65625 419.863281 C 1409.539062 419.457031 1410.582031 419.847656 1410.988281 420.730469 C 1411.394531 421.613281 1411.011719 422.65625 1410.128906 423.0625 L 1403.632812 426.070312 C 1402.742188 426.480469 1401.691406 426.09375 1401.28125 425.203125 C 1400.871094 424.316406 1401.257812 423.265625 1402.144531 422.851562 Z M 1402.152344 422.851562 " fill-opacity="1" fill-rule="nonzero"/><path fill="#c1f4ea" d="M 1415.164062 416.882812 L 1421.667969 413.890625 C 1422.542969 413.492188 1423.574219 413.875 1423.980469 414.75 C 1424.386719 415.628906 1424.003906 416.660156 1423.128906 417.058594 L 1416.632812 420.066406 C 1415.753906 420.472656 1414.710938 420.089844 1414.304688 419.214844 C 1413.898438 418.335938 1414.28125 417.292969 1415.15625 416.886719 Z M 1415.164062 416.882812 " fill-opacity="1" fill-rule="nonzero"/><path fill="#c1f4ea" d="M 1422.824219 408.433594 L 1424.542969 401.484375 C 1424.769531 400.558594 1425.707031 399.992188 1426.628906 400.222656 C 1427.554688 400.449219 1428.121094 401.386719 1427.894531 402.3125 L 1426.195312 409.269531 C 1425.96875 410.199219 1425.023438 410.773438 1424.09375 410.539062 C 1423.164062 410.3125 1422.589844 409.371094 1422.824219 408.4375 Z M 1422.824219 408.433594 " fill-opacity="1" fill-rule="nonzero"/><path fill="#c1f4ea" d="M 1426.261719 394.539062 L 1427.984375 387.589844 C 1428.210938 386.675781 1429.136719 386.121094 1430.046875 386.347656 C 1430.960938 386.574219 1431.515625 387.492188 1431.289062 388.40625 L 1429.59375 395.363281 C 1429.367188 396.285156 1428.445312 396.847656 1427.519531 396.625 C 1426.59375 396.398438 1426.035156 395.476562 1426.253906 394.550781 Z M 1426.261719 394.539062 " fill-opacity="1" fill-rule="nonzero"/><path fill="#c1f4ea" d="M 1429.71875 380.644531 L 1431.457031 373.699219 C 1431.675781 372.816406 1432.570312 372.28125 1433.460938 372.5 C 1434.34375 372.722656 1434.882812 373.609375 1434.667969 374.492188 L 1432.976562 381.449219 C 1432.757812 382.351562 1431.851562 382.90625 1430.957031 382.683594 C 1430.0625 382.464844 1429.5 381.554688 1429.71875 380.660156 Z M 1429.71875 380.644531 " fill-opacity="1" fill-rule="nonzero"/><path fill="#c1f4ea" d="M 1433.191406 366.75 L 1434.929688 359.804688 C 1435.144531 358.945312 1436.015625 358.425781 1436.867188 358.640625 C 1437.722656 358.855469 1438.238281 359.714844 1438.035156 360.566406 L 1436.347656 367.523438 C 1436.140625 368.394531 1435.257812 368.933594 1434.386719 368.722656 C 1433.515625 368.515625 1432.976562 367.632812 1433.1875 366.761719 L 1433.1875 366.75 Z M 1433.191406 366.75 " fill-opacity="1" fill-rule="nonzero"/><path fill="#c1f4ea" d="M 1436.664062 352.859375 L 1438.402344 345.914062 C 1438.609375 345.085938 1439.449219 344.578125 1440.28125 344.789062 C 1441.105469 344.996094 1441.609375 345.832031 1441.40625 346.65625 L 1439.71875 353.613281 C 1439.515625 354.460938 1438.664062 354.976562 1437.816406 354.769531 C 1436.96875 354.566406 1436.449219 353.714844 1436.660156 352.867188 L 1436.660156 352.855469 Z M 1436.664062 352.859375 " fill-opacity="1" fill-rule="nonzero"/><path fill="#c1f4ea" d="M 1440.136719 338.972656 L 1440.75 336.511719 L 1441.019531 337.796875 L 1438.214844 334.117188 C 1437.714844 333.460938 1437.847656 332.527344 1438.496094 332.027344 C 1439.148438 331.53125 1440.070312 331.65625 1440.574219 332.296875 L 1443.414062 335.945312 L 1443.855469 336.519531 L 1443.679688 337.234375 L 1443.085938 339.699219 C 1442.886719 340.515625 1442.0625 341.019531 1441.246094 340.820312 C 1440.429688 340.625 1439.929688 339.800781 1440.125 338.984375 L 1440.125 338.972656 Z M 1440.136719 338.972656 " fill-opacity="1" fill-rule="nonzero"/><path fill="#c1f4ea" d="M 1433.886719 328.417969 L 1429.546875 322.71875 C 1429.078125 322.105469 1429.195312 321.222656 1429.816406 320.75 C 1430.429688 320.285156 1431.300781 320.398438 1431.773438 321.007812 L 1436.175781 326.652344 C 1436.664062 327.285156 1436.550781 328.191406 1435.925781 328.679688 C 1435.292969 329.167969 1434.386719 329.054688 1433.898438 328.429688 C 1433.898438 328.429688 1433.890625 328.417969 1433.886719 328.417969 Z M 1433.886719 328.417969 " fill-opacity="1" fill-rule="nonzero"/><path fill="#c1f4ea" d="M 1425.214844 317.023438 L 1420.878906 311.324219 C 1420.4375 310.746094 1420.550781 309.917969 1421.128906 309.476562 C 1421.703125 309.039062 1422.527344 309.148438 1422.96875 309.714844 L 1427.371094 315.359375 C 1427.828125 315.949219 1427.726562 316.808594 1427.132812 317.265625 C 1426.539062 317.726562 1425.679688 317.625 1425.222656 317.027344 C 1425.222656 317.027344 1425.214844 317.015625 1425.210938 317.015625 Z M 1425.214844 317.023438 " fill-opacity="1" fill-rule="nonzero"/><path fill="#c1f4ea" d="M 1416.546875 305.628906 L 1412.210938 299.929688 C 1411.796875 299.386719 1411.898438 298.613281 1412.441406 298.199219 C 1412.980469 297.789062 1413.75 297.890625 1414.160156 298.421875 L 1418.5625 304.066406 C 1419 304.621094 1418.898438 305.425781 1418.34375 305.855469 C 1417.789062 306.285156 1416.984375 306.1875 1416.554688 305.632812 C 1416.554688 305.632812 1416.546875 305.621094 1416.542969 305.621094 Z M 1416.546875 305.628906 " fill-opacity="1" fill-rule="nonzero"/><path fill="#c1f4ea" d="M 1407.890625 294.222656 L 1403.570312 288.511719 C 1403.195312 288.015625 1403.296875 287.316406 1403.785156 286.941406 C 1404.277344 286.574219 1404.96875 286.660156 1405.34375 287.144531 L 1409.757812 292.78125 C 1410.15625 293.296875 1410.070312 294.035156 1409.554688 294.4375 C 1409.042969 294.835938 1408.304688 294.746094 1407.902344 294.234375 C 1407.902344 294.234375 1407.890625 294.222656 1407.890625 294.214844 Z M 1407.890625 294.222656 " fill-opacity="1" fill-rule="nonzero"/><path fill="#c1f4ea" d="M 1399.246094 282.808594 L 1394.925781 277.097656 C 1394.59375 276.65625 1394.683594 276.03125 1395.125 275.695312 C 1395.558594 275.367188 1396.179688 275.445312 1396.519531 275.875 L 1400.933594 281.511719 C 1401.296875 281.972656 1401.214844 282.640625 1400.757812 283.003906 C 1400.296875 283.367188 1399.628906 283.285156 1399.265625 282.824219 C 1399.265625 282.824219 1399.257812 282.8125 1399.253906 282.8125 Z M 1399.246094 282.808594 " fill-opacity="1" fill-rule="nonzero"/><g clip-path="url(#e552186482)"><path fill="#c1f4ea" d="M 1390.285156 273.839844 L 1383.125 273.65625 C 1382.644531 273.644531 1382.253906 273.238281 1382.265625 272.753906 C 1382.28125 272.273438 1382.671875 271.894531 1383.15625 271.894531 L 1390.316406 271.957031 C 1390.835938 271.957031 1391.257812 272.386719 1391.253906 272.90625 C 1391.253906 273.421875 1390.824219 273.847656 1390.304688 273.839844 C 1390.304688 273.839844 1390.292969 273.839844 1390.285156 273.839844 Z M 1390.285156 273.839844 " fill-opacity="1" fill-rule="nonzero"/></g><g clip-path="url(#d652665f11)"><path fill="#c1f4ea" d="M 1375.972656 273.453125 L 1368.8125 273.25 C 1368.421875 273.238281 1368.105469 272.910156 1368.117188 272.515625 C 1368.128906 272.128906 1368.449219 271.820312 1368.839844 271.820312 L 1375.996094 271.859375 C 1376.4375 271.859375 1376.789062 272.222656 1376.789062 272.664062 C 1376.789062 273.109375 1376.425781 273.460938 1375.984375 273.460938 C 1375.984375 273.460938 1375.972656 273.460938 1375.96875 273.460938 Z M 1375.972656 273.453125 " fill-opacity="1" fill-rule="nonzero"/></g><g clip-path="url(#17affec640)"><path fill="#c1f4ea" d="M 1361.660156 273.046875 L 1354.5 272.84375 C 1354.199219 272.839844 1353.953125 272.582031 1353.964844 272.277344 C 1353.972656 271.980469 1354.222656 271.742188 1354.519531 271.742188 L 1361.679688 271.78125 C 1362.03125 271.78125 1362.3125 272.070312 1362.3125 272.421875 C 1362.3125 272.773438 1362.023438 273.054688 1361.671875 273.054688 C 1361.671875 273.054688 1361.660156 273.054688 1361.660156 273.054688 Z M 1361.660156 273.046875 " fill-opacity="1" fill-rule="nonzero"/></g><g clip-path="url(#75f7811103)"><path fill="#c1f4ea" d="M 1347.347656 272.640625 L 1340.191406 272.4375 C 1339.976562 272.433594 1339.808594 272.253906 1339.8125 272.039062 C 1339.820312 271.824219 1339.992188 271.65625 1340.207031 271.664062 L 1347.367188 271.707031 C 1347.628906 271.707031 1347.835938 271.921875 1347.835938 272.175781 C 1347.835938 272.4375 1347.621094 272.648438 1347.367188 272.648438 C 1347.367188 272.648438 1347.359375 272.648438 1347.355469 272.648438 Z M 1347.347656 272.640625 " fill-opacity="1" fill-rule="nonzero"/></g><g clip-path="url(#82deb093f9)"><path fill="#c1f4ea" d="M 1333.03125 272.238281 L 1325.871094 272.015625 C 1325.757812 272.015625 1325.667969 271.914062 1325.667969 271.800781 C 1325.667969 271.6875 1325.765625 271.597656 1325.878906 271.597656 L 1333.035156 271.621094 C 1333.210938 271.621094 1333.347656 271.757812 1333.339844 271.933594 C 1333.339844 272.105469 1333.203125 272.242188 1333.03125 272.238281 C 1333.03125 272.238281 1333.023438 272.238281 1333.023438 272.238281 Z M 1333.03125 272.238281 " fill-opacity="1" fill-rule="nonzero"/></g><path fill="#05738c" d="M 1428.390625 340.867188 L 1387.152344 287.316406 L 1387.730469 287.617188 L 1320.160156 286.363281 L 1321.121094 285.929688 L 1278.019531 337.988281 L 1278.382812 336.5625 C 1281.746094 352.476562 1285.355469 370.171875 1288.488281 386.226562 C 1288.488281 386.226562 1291.667969 402.824219 1291.667969 402.824219 L 1290.816406 401.699219 C 1304.714844 409.011719 1321.785156 418.164062 1335.480469 425.675781 C 1340.417969 428.394531 1345.367188 431.085938 1350.277344 433.855469 C 1350.363281 433.902344 1350.398438 434.007812 1350.34375 434.097656 C 1350.296875 434.183594 1350.195312 434.210938 1350.109375 434.171875 C 1344.996094 431.789062 1339.925781 429.335938 1334.84375 426.914062 C 1329.753906 424.5 1324.695312 422.019531 1319.625 419.558594 C 1311.714844 415.65625 1296.519531 408.207031 1288.636719 404.25 C 1286.792969 395.613281 1283.320312 379.039062 1281.578125 370.382812 C 1279.320312 359.34375 1277.175781 348.289062 1275.046875 337.230469 C 1275.046875 337.230469 1274.890625 336.414062 1274.890625 336.414062 L 1275.410156 335.804688 L 1319.25 284.363281 L 1319.636719 283.910156 L 1320.214844 283.929688 C 1320.699219 284.15625 1387.644531 285.957031 1388.132812 286.125 C 1388.132812 286.125 1388.347656 286.410156 1388.347656 286.410156 L 1428.671875 340.652344 C 1428.730469 340.730469 1428.710938 340.84375 1428.632812 340.90625 C 1428.558594 340.964844 1428.445312 340.945312 1428.382812 340.867188 Z M 1428.390625 340.867188 " fill-opacity="1" fill-rule="nonzero"/><path fill="#05738c" d="M 1211.8125 446.992188 C 1211.8125 447.5625 1211.757812 448.128906 1211.648438 448.691406 C 1211.535156 449.253906 1211.371094 449.796875 1211.152344 450.328125 C 1210.929688 450.855469 1210.664062 451.359375 1210.34375 451.832031 C 1210.027344 452.308594 1209.664062 452.75 1209.261719 453.15625 C 1208.855469 453.558594 1208.417969 453.921875 1207.941406 454.238281 C 1207.464844 454.554688 1206.960938 454.824219 1206.433594 455.042969 C 1205.90625 455.261719 1205.359375 455.429688 1204.796875 455.539062 C 1204.238281 455.652344 1203.671875 455.707031 1203.097656 455.707031 C 1202.527344 455.707031 1201.957031 455.652344 1201.398438 455.539062 C 1200.835938 455.429688 1200.292969 455.261719 1199.761719 455.042969 C 1199.234375 454.824219 1198.730469 454.554688 1198.253906 454.238281 C 1197.78125 453.921875 1197.339844 453.558594 1196.933594 453.15625 C 1196.53125 452.75 1196.167969 452.308594 1195.851562 451.832031 C 1195.53125 451.359375 1195.265625 450.855469 1195.046875 450.328125 C 1194.824219 449.796875 1194.660156 449.253906 1194.550781 448.691406 C 1194.4375 448.128906 1194.382812 447.5625 1194.382812 446.992188 C 1194.382812 446.417969 1194.4375 445.851562 1194.550781 445.289062 C 1194.660156 444.730469 1194.824219 444.183594 1195.046875 443.65625 C 1195.265625 443.125 1195.53125 442.625 1195.851562 442.148438 C 1196.167969 441.671875 1196.53125 441.234375 1196.933594 440.828125 C 1197.339844 440.421875 1197.78125 440.0625 1198.253906 439.742188 C 1198.730469 439.425781 1199.234375 439.15625 1199.761719 438.9375 C 1200.292969 438.71875 1200.835938 438.554688 1201.398438 438.441406 C 1201.957031 438.332031 1202.527344 438.273438 1203.097656 438.273438 C 1203.671875 438.273438 1204.238281 438.332031 1204.796875 438.441406 C 1205.359375 438.554688 1205.90625 438.71875 1206.433594 438.9375 C 1206.960938 439.15625 1207.464844 439.425781 1207.941406 439.742188 C 1208.417969 440.0625 1208.855469 440.421875 1209.261719 440.828125 C 1209.664062 441.234375 1210.027344 441.671875 1210.34375 442.148438 C 1210.664062 442.625 1210.929688 443.125 1211.152344 443.65625 C 1211.371094 444.183594 1211.535156 444.730469 1211.648438 445.289062 C 1211.757812 445.851562 1211.8125 446.417969 1211.8125 446.992188 Z M 1211.8125 446.992188 " fill-opacity="1" fill-rule="nonzero"/><path fill="#05738c" d="M 1194.824219 527.171875 C 1194.824219 527.746094 1194.765625 528.3125 1194.65625 528.875 C 1194.542969 529.433594 1194.378906 529.980469 1194.160156 530.507812 C 1193.941406 531.039062 1193.671875 531.539062 1193.355469 532.015625 C 1193.035156 532.492188 1192.675781 532.933594 1192.269531 533.335938 C 1191.867188 533.742188 1191.425781 534.101562 1190.949219 534.421875 C 1190.472656 534.738281 1189.972656 535.007812 1189.441406 535.226562 C 1188.914062 535.445312 1188.367188 535.609375 1187.808594 535.722656 C 1187.246094 535.832031 1186.679688 535.890625 1186.105469 535.890625 C 1185.535156 535.890625 1184.96875 535.832031 1184.40625 535.722656 C 1183.84375 535.609375 1183.300781 535.445312 1182.769531 535.226562 C 1182.242188 535.007812 1181.738281 534.738281 1181.265625 534.421875 C 1180.789062 534.101562 1180.347656 533.742188 1179.945312 533.335938 C 1179.539062 532.933594 1179.175781 532.492188 1178.859375 532.015625 C 1178.542969 531.539062 1178.273438 531.039062 1178.054688 530.507812 C 1177.835938 529.980469 1177.667969 529.433594 1177.558594 528.875 C 1177.445312 528.3125 1177.390625 527.746094 1177.390625 527.171875 C 1177.390625 526.601562 1177.445312 526.035156 1177.558594 525.472656 C 1177.667969 524.910156 1177.835938 524.367188 1178.054688 523.839844 C 1178.273438 523.308594 1178.542969 522.808594 1178.859375 522.332031 C 1179.175781 521.855469 1179.539062 521.414062 1179.945312 521.011719 C 1180.347656 520.605469 1180.789062 520.246094 1181.265625 519.925781 C 1181.738281 519.609375 1182.242188 519.339844 1182.769531 519.121094 C 1183.300781 518.902344 1183.84375 518.738281 1184.40625 518.625 C 1184.96875 518.511719 1185.535156 518.457031 1186.105469 518.457031 C 1186.679688 518.457031 1187.246094 518.511719 1187.808594 518.625 C 1188.367188 518.738281 1188.914062 518.902344 1189.441406 519.121094 C 1189.972656 519.339844 1190.472656 519.609375 1190.949219 519.925781 C 1191.425781 520.246094 1191.867188 520.605469 1192.269531 521.011719 C 1192.675781 521.414062 1193.035156 521.855469 1193.355469 522.332031 C 1193.671875 522.808594 1193.941406 523.308594 1194.160156 523.839844 C 1194.378906 524.367188 1194.542969 524.910156 1194.65625 525.472656 C 1194.765625 526.035156 1194.824219 526.601562 1194.824219 527.171875 Z M 1194.824219 527.171875 " fill-opacity="1" fill-rule="nonzero"/><path fill="#05738c" d="M 1114.019531 560.808594 C 1114.019531 561.382812 1113.964844 561.949219 1113.851562 562.511719 C 1113.742188 563.070312 1113.574219 563.617188 1113.355469 564.144531 C 1113.136719 564.675781 1112.871094 565.175781 1112.550781 565.652344 C 1112.234375 566.128906 1111.871094 566.566406 1111.46875 566.972656 C 1111.0625 567.378906 1110.621094 567.738281 1110.144531 568.058594 C 1109.671875 568.375 1109.167969 568.644531 1108.640625 568.863281 C 1108.109375 569.082031 1107.566406 569.246094 1107.003906 569.359375 C 1106.441406 569.46875 1105.875 569.527344 1105.304688 569.527344 C 1104.730469 569.527344 1104.164062 569.46875 1103.601562 569.359375 C 1103.042969 569.246094 1102.496094 569.082031 1101.96875 568.863281 C 1101.441406 568.644531 1100.9375 568.375 1100.460938 568.058594 C 1099.984375 567.738281 1099.546875 567.378906 1099.140625 566.972656 C 1098.734375 566.566406 1098.375 566.128906 1098.054688 565.652344 C 1097.738281 565.175781 1097.46875 564.675781 1097.25 564.144531 C 1097.03125 563.617188 1096.867188 563.070312 1096.753906 562.511719 C 1096.644531 561.949219 1096.585938 561.382812 1096.585938 560.808594 C 1096.585938 560.238281 1096.644531 559.671875 1096.753906 559.109375 C 1096.867188 558.546875 1097.03125 558.003906 1097.25 557.472656 C 1097.46875 556.945312 1097.738281 556.441406 1098.054688 555.96875 C 1098.375 555.492188 1098.734375 555.050781 1099.140625 554.644531 C 1099.546875 554.242188 1099.984375 553.878906 1100.460938 553.5625 C 1100.9375 553.246094 1101.441406 552.976562 1101.96875 552.757812 C 1102.496094 552.539062 1103.042969 552.371094 1103.601562 552.261719 C 1104.164062 552.148438 1104.730469 552.09375 1105.304688 552.09375 C 1105.875 552.09375 1106.441406 552.148438 1107.003906 552.261719 C 1107.566406 552.371094 1108.109375 552.539062 1108.640625 552.757812 C 1109.167969 552.976562 1109.671875 553.246094 1110.144531 553.5625 C 1110.621094 553.878906 1111.0625 554.242188 1111.46875 554.644531 C 1111.871094 555.050781 1112.234375 555.492188 1112.550781 555.96875 C 1112.871094 556.441406 1113.136719 556.945312 1113.355469 557.472656 C 1113.574219 558.003906 1113.742188 558.546875 1113.851562 559.109375 C 1113.964844 559.671875 1114.019531 560.238281 1114.019531 560.808594 Z M 1114.019531 560.808594 " fill-opacity="1" fill-rule="nonzero"/><path fill="#05738c" d="M 1047.605469 526.082031 C 1047.605469 526.652344 1047.550781 527.222656 1047.441406 527.78125 C 1047.328125 528.34375 1047.164062 528.886719 1046.945312 529.417969 C 1046.726562 529.945312 1046.457031 530.449219 1046.136719 530.925781 C 1045.820312 531.398438 1045.457031 531.839844 1045.054688 532.246094 C 1044.648438 532.648438 1044.210938 533.011719 1043.734375 533.328125 C 1043.257812 533.648438 1042.753906 533.914062 1042.226562 534.132812 C 1041.699219 534.355469 1041.152344 534.519531 1040.589844 534.628906 C 1040.03125 534.742188 1039.464844 534.796875 1038.890625 534.796875 C 1038.320312 534.796875 1037.75 534.742188 1037.191406 534.628906 C 1036.628906 534.519531 1036.085938 534.351562 1035.554688 534.132812 C 1035.027344 533.914062 1034.523438 533.648438 1034.046875 533.328125 C 1033.574219 533.011719 1033.132812 532.648438 1032.726562 532.246094 C 1032.324219 531.839844 1031.960938 531.398438 1031.644531 530.925781 C 1031.324219 530.449219 1031.058594 529.945312 1030.839844 529.417969 C 1030.621094 528.886719 1030.453125 528.34375 1030.34375 527.78125 C 1030.230469 527.222656 1030.175781 526.652344 1030.175781 526.082031 C 1030.175781 525.507812 1030.230469 524.941406 1030.34375 524.382812 C 1030.453125 523.820312 1030.621094 523.273438 1030.839844 522.746094 C 1031.058594 522.21875 1031.324219 521.714844 1031.644531 521.238281 C 1031.960938 520.761719 1032.324219 520.324219 1032.726562 519.917969 C 1033.132812 519.515625 1033.574219 519.152344 1034.046875 518.835938 C 1034.523438 518.515625 1035.027344 518.246094 1035.554688 518.027344 C 1036.085938 517.808594 1036.628906 517.644531 1037.191406 517.53125 C 1037.75 517.421875 1038.320312 517.367188 1038.890625 517.367188 C 1039.464844 517.367188 1040.03125 517.421875 1040.589844 517.53125 C 1041.152344 517.644531 1041.699219 517.808594 1042.226562 518.027344 C 1042.753906 518.246094 1043.257812 518.515625 1043.734375 518.835938 C 1044.210938 519.152344 1044.648438 519.515625 1045.054688 519.917969 C 1045.457031 520.324219 1045.820312 520.761719 1046.136719 521.238281 C 1046.457031 521.714844 1046.726562 522.21875 1046.945312 522.746094 C 1047.164062 523.273438 1047.328125 523.820312 1047.441406 524.382812 C 1047.550781 524.941406 1047.605469 525.507812 1047.605469 526.082031 Z M 1047.605469 526.082031 " fill-opacity="1" fill-rule="nonzero"/><path fill="#05738c" d="M 1321.558594 591.144531 C 1321.558594 591.71875 1321.503906 592.285156 1321.390625 592.847656 C 1321.277344 593.40625 1321.113281 593.953125 1320.894531 594.480469 C 1320.675781 595.011719 1320.40625 595.511719 1320.089844 595.988281 C 1319.769531 596.464844 1319.410156 596.90625 1319.003906 597.308594 C 1318.601562 597.714844 1318.160156 598.074219 1317.683594 598.394531 C 1317.207031 598.710938 1316.707031 598.980469 1316.175781 599.199219 C 1315.648438 599.417969 1315.101562 599.582031 1314.542969 599.695312 C 1313.980469 599.808594 1313.414062 599.863281 1312.839844 599.863281 C 1312.269531 599.863281 1311.703125 599.808594 1311.140625 599.695312 C 1310.578125 599.582031 1310.035156 599.417969 1309.507812 599.199219 C 1308.976562 598.980469 1308.476562 598.710938 1308 598.394531 C 1307.523438 598.074219 1307.082031 597.714844 1306.679688 597.308594 C 1306.273438 596.90625 1305.914062 596.464844 1305.59375 595.988281 C 1305.277344 595.511719 1305.007812 595.011719 1304.789062 594.480469 C 1304.570312 593.953125 1304.40625 593.40625 1304.292969 592.847656 C 1304.179688 592.285156 1304.125 591.71875 1304.125 591.144531 C 1304.125 590.574219 1304.179688 590.007812 1304.292969 589.445312 C 1304.40625 588.882812 1304.570312 588.339844 1304.789062 587.8125 C 1305.007812 587.28125 1305.277344 586.78125 1305.59375 586.304688 C 1305.914062 585.828125 1306.273438 585.386719 1306.679688 584.984375 C 1307.082031 584.578125 1307.523438 584.21875 1308 583.898438 C 1308.476562 583.582031 1308.976562 583.3125 1309.507812 583.09375 C 1310.035156 582.875 1310.578125 582.710938 1311.140625 582.597656 C 1311.703125 582.484375 1312.269531 582.429688 1312.839844 582.429688 C 1313.414062 582.429688 1313.980469 582.484375 1314.542969 582.597656 C 1315.101562 582.710938 1315.648438 582.875 1316.175781 583.09375 C 1316.707031 583.3125 1317.207031 583.582031 1317.683594 583.898438 C 1318.160156 584.21875 1318.601562 584.578125 1319.003906 584.984375 C 1319.410156 585.386719 1319.769531 585.828125 1320.089844 586.304688 C 1320.40625 586.78125 1320.675781 587.28125 1320.894531 587.8125 C 1321.113281 588.339844 1321.277344 588.882812 1321.390625 589.445312 C 1321.503906 590.007812 1321.558594 590.574219 1321.558594 591.144531 Z M 1321.558594 591.144531 " fill-opacity="1" fill-rule="nonzero"/><path fill="#05738c" d="M 1375.78125 529 C 1375.78125 529.570312 1375.726562 530.136719 1375.613281 530.699219 C 1375.503906 531.261719 1375.335938 531.804688 1375.117188 532.335938 C 1374.898438 532.863281 1374.632812 533.367188 1374.3125 533.839844 C 1373.996094 534.316406 1373.632812 534.757812 1373.230469 535.164062 C 1372.824219 535.566406 1372.382812 535.929688 1371.910156 536.246094 C 1371.433594 536.5625 1370.929688 536.832031 1370.402344 537.050781 C 1369.871094 537.269531 1369.328125 537.4375 1368.765625 537.546875 C 1368.207031 537.660156 1367.636719 537.714844 1367.066406 537.714844 C 1366.492188 537.714844 1365.925781 537.660156 1365.367188 537.546875 C 1364.804688 537.4375 1364.257812 537.269531 1363.730469 537.050781 C 1363.203125 536.832031 1362.699219 536.5625 1362.222656 536.246094 C 1361.746094 535.929688 1361.308594 535.566406 1360.902344 535.164062 C 1360.5 534.757812 1360.136719 534.316406 1359.820312 533.839844 C 1359.5 533.367188 1359.230469 532.863281 1359.011719 532.335938 C 1358.792969 531.804688 1358.628906 531.261719 1358.515625 530.699219 C 1358.40625 530.136719 1358.351562 529.570312 1358.351562 529 C 1358.351562 528.425781 1358.40625 527.859375 1358.515625 527.296875 C 1358.628906 526.738281 1358.792969 526.191406 1359.011719 525.664062 C 1359.230469 525.132812 1359.5 524.632812 1359.820312 524.15625 C 1360.136719 523.679688 1360.5 523.242188 1360.902344 522.835938 C 1361.308594 522.429688 1361.746094 522.070312 1362.222656 521.75 C 1362.699219 521.433594 1363.203125 521.164062 1363.730469 520.945312 C 1364.257812 520.726562 1364.804688 520.5625 1365.367188 520.449219 C 1365.925781 520.339844 1366.492188 520.28125 1367.066406 520.28125 C 1367.636719 520.28125 1368.207031 520.339844 1368.765625 520.449219 C 1369.328125 520.5625 1369.871094 520.726562 1370.402344 520.945312 C 1370.929688 521.164062 1371.433594 521.433594 1371.910156 521.75 C 1372.382812 522.070312 1372.824219 522.429688 1373.230469 522.835938 C 1373.632812 523.242188 1373.996094 523.679688 1374.3125 524.15625 C 1374.632812 524.632812 1374.898438 525.132812 1375.117188 525.664062 C 1375.335938 526.191406 1375.503906 526.738281 1375.613281 527.296875 C 1375.726562 527.859375 1375.78125 528.425781 1375.78125 529 Z M 1375.78125 529 " fill-opacity="1" fill-rule="nonzero"/><path fill="#05738c" d="M 1285.300781 411.101562 C 1285.300781 411.671875 1285.246094 412.238281 1285.136719 412.800781 C 1285.023438 413.363281 1284.859375 413.90625 1284.640625 414.433594 C 1284.421875 414.964844 1284.152344 415.464844 1283.832031 415.941406 C 1283.515625 416.417969 1283.15625 416.859375 1282.75 417.261719 C 1282.34375 417.667969 1281.90625 418.027344 1281.429688 418.347656 C 1280.953125 418.664062 1280.449219 418.933594 1279.921875 419.152344 C 1279.394531 419.371094 1278.847656 419.535156 1278.285156 419.648438 C 1277.726562 419.761719 1277.160156 419.816406 1276.585938 419.816406 C 1276.015625 419.816406 1275.449219 419.761719 1274.886719 419.648438 C 1274.324219 419.535156 1273.78125 419.371094 1273.25 419.152344 C 1272.722656 418.933594 1272.21875 418.664062 1271.742188 418.347656 C 1271.269531 418.027344 1270.828125 417.667969 1270.421875 417.261719 C 1270.019531 416.859375 1269.65625 416.417969 1269.339844 415.941406 C 1269.019531 415.464844 1268.753906 414.964844 1268.535156 414.433594 C 1268.316406 413.90625 1268.148438 413.363281 1268.039062 412.800781 C 1267.925781 412.238281 1267.871094 411.671875 1267.871094 411.101562 C 1267.871094 410.527344 1267.925781 409.960938 1268.039062 409.398438 C 1268.148438 408.839844 1268.316406 408.292969 1268.535156 407.765625 C 1268.753906 407.234375 1269.019531 406.734375 1269.339844 406.257812 C 1269.65625 405.78125 1270.019531 405.339844 1270.421875 404.9375 C 1270.828125 404.53125 1271.269531 404.171875 1271.742188 403.851562 C 1272.21875 403.535156 1272.722656 403.265625 1273.25 403.046875 C 1273.78125 402.828125 1274.324219 402.664062 1274.886719 402.550781 C 1275.449219 402.441406 1276.015625 402.382812 1276.585938 402.382812 C 1277.160156 402.382812 1277.726562 402.441406 1278.285156 402.550781 C 1278.847656 402.664062 1279.394531 402.828125 1279.921875 403.046875 C 1280.449219 403.265625 1280.953125 403.535156 1281.429688 403.851562 C 1281.90625 404.171875 1282.34375 404.53125 1282.75 404.9375 C 1283.15625 405.339844 1283.515625 405.78125 1283.832031 406.257812 C 1284.152344 406.734375 1284.421875 407.234375 1284.640625 407.765625 C 1284.859375 408.292969 1285.023438 408.839844 1285.136719 409.398438 C 1285.246094 409.960938 1285.300781 410.527344 1285.300781 411.101562 Z M 1285.300781 411.101562 " fill-opacity="1" fill-rule="nonzero"/><path fill="#05738c" d="M 1359.335938 448.570312 C 1359.335938 449.144531 1359.277344 449.710938 1359.167969 450.273438 C 1359.054688 450.832031 1358.890625 451.378906 1358.671875 451.90625 C 1358.453125 452.4375 1358.183594 452.9375 1357.863281 453.414062 C 1357.546875 453.890625 1357.1875 454.332031 1356.78125 454.734375 C 1356.375 455.140625 1355.9375 455.5 1355.460938 455.820312 C 1354.984375 456.136719 1354.480469 456.40625 1353.953125 456.625 C 1353.425781 456.84375 1352.878906 457.007812 1352.320312 457.121094 C 1351.757812 457.234375 1351.191406 457.289062 1350.617188 457.289062 C 1350.046875 457.289062 1349.480469 457.234375 1348.917969 457.121094 C 1348.355469 457.007812 1347.8125 456.84375 1347.28125 456.625 C 1346.753906 456.40625 1346.25 456.136719 1345.777344 455.820312 C 1345.300781 455.5 1344.859375 455.140625 1344.453125 454.734375 C 1344.050781 454.332031 1343.6875 453.890625 1343.371094 453.414062 C 1343.050781 452.9375 1342.785156 452.4375 1342.566406 451.90625 C 1342.347656 451.378906 1342.179688 450.832031 1342.070312 450.273438 C 1341.957031 449.710938 1341.902344 449.144531 1341.902344 448.570312 C 1341.902344 448 1341.957031 447.433594 1342.070312 446.871094 C 1342.179688 446.308594 1342.347656 445.765625 1342.566406 445.238281 C 1342.785156 444.707031 1343.050781 444.207031 1343.371094 443.730469 C 1343.6875 443.253906 1344.050781 442.8125 1344.453125 442.410156 C 1344.859375 442.003906 1345.300781 441.644531 1345.777344 441.324219 C 1346.25 441.007812 1346.753906 440.738281 1347.28125 440.519531 C 1347.8125 440.300781 1348.355469 440.136719 1348.917969 440.023438 C 1349.480469 439.910156 1350.046875 439.855469 1350.617188 439.855469 C 1351.191406 439.855469 1351.757812 439.910156 1352.320312 440.023438 C 1352.878906 440.136719 1353.425781 440.300781 1353.953125 440.519531 C 1354.480469 440.738281 1354.984375 441.007812 1355.460938 441.324219 C 1355.9375 441.644531 1356.375 442.003906 1356.78125 442.410156 C 1357.1875 442.8125 1357.546875 443.253906 1357.863281 443.730469 C 1358.183594 444.207031 1358.453125 444.707031 1358.671875 445.238281 C 1358.890625 445.765625 1359.054688 446.308594 1359.167969 446.871094 C 1359.277344 447.433594 1359.335938 448 1359.335938 448.570312 Z M 1359.335938 448.570312 " fill-opacity="1" fill-rule="nonzero"/></svg>