<svg xmlns="http://www.w3.org/2000/svg" xmlns:xlink="http://www.w3.org/1999/xlink" width="198" zoomAndPan="magnify" viewBox="0 0 148.5 147.000002" height="196" preserveAspectRatio="xMidYMid meet" version="1.0"><defs><g/><clipPath id="92217a1ec3"><path d="M 65 0.308594 L 147.0625 0.308594 L 147.0625 79 L 65 79 Z M 65 0.308594 " clip-rule="nonzero"/></clipPath></defs><path fill="#362c5d" d="M 123.289062 59.78125 C 123.140625 59.828125 123.007812 59.902344 122.886719 60.003906 C 122.765625 60.101562 122.671875 60.222656 122.597656 60.359375 C 122.527344 60.5 122.484375 60.644531 122.46875 60.800781 C 122.453125 60.957031 122.472656 61.109375 122.519531 61.257812 C 122.84375 62.292969 123.136719 63.335938 123.40625 64.386719 C 123.671875 65.4375 123.910156 66.496094 124.117188 67.558594 C 124.328125 68.625 124.503906 69.695312 124.652344 70.769531 C 124.800781 71.84375 124.921875 72.921875 125.007812 74.003906 C 125.097656 75.082031 125.15625 76.164062 125.183594 77.25 C 125.214844 78.335938 125.210938 79.417969 125.179688 80.503906 C 125.148438 81.585938 125.085938 82.667969 124.996094 83.75 C 124.902344 84.832031 124.78125 85.90625 124.628906 86.980469 C 124.476562 88.054688 124.296875 89.125 124.082031 90.1875 C 123.871094 91.253906 123.632812 92.308594 123.363281 93.359375 C 123.089844 94.410156 122.792969 95.453125 122.464844 96.488281 C 122.136719 97.519531 121.78125 98.542969 121.394531 99.558594 C 121.011719 100.574219 120.597656 101.574219 120.15625 102.566406 C 119.714844 103.558594 119.246094 104.535156 118.753906 105.5 C 118.257812 106.464844 117.734375 107.414062 117.1875 108.351562 C 116.640625 109.289062 116.066406 110.207031 115.464844 111.113281 C 114.867188 112.015625 114.242188 112.902344 113.59375 113.773438 C 112.945312 114.640625 112.273438 115.492188 111.578125 116.324219 C 110.882812 117.15625 110.164062 117.96875 109.421875 118.761719 C 108.683594 119.550781 107.921875 120.324219 107.136719 121.074219 C 106.351562 121.824219 105.546875 122.550781 104.722656 123.253906 C 103.898438 123.960938 103.058594 124.640625 102.195312 125.300781 C 101.332031 125.957031 100.453125 126.589844 99.554688 127.199219 C 98.65625 127.808594 97.742188 128.394531 96.8125 128.953125 C 95.882812 129.511719 94.941406 130.042969 93.980469 130.546875 C 93.019531 131.054688 92.046875 131.53125 91.0625 131.984375 C 90.074219 132.4375 89.078125 132.859375 88.066406 133.257812 C 87.058594 133.652344 86.039062 134.019531 85.007812 134.359375 C 83.976562 134.699219 82.9375 135.011719 81.890625 135.292969 C 80.84375 135.574219 79.789062 135.828125 78.730469 136.050781 C 77.667969 136.273438 76.601562 136.464844 75.527344 136.628906 C 74.457031 136.792969 73.378906 136.925781 72.300781 137.03125 C 71.222656 137.136719 70.140625 137.210938 69.054688 137.253906 C 67.972656 137.296875 66.886719 137.308594 65.804688 137.292969 C 64.71875 137.277344 63.636719 137.230469 62.554688 137.152344 C 61.472656 137.078125 60.390625 136.96875 59.316406 136.832031 C 58.242188 136.695312 57.167969 136.53125 56.101562 136.335938 C 55.035156 136.136719 53.976562 135.914062 52.921875 135.65625 C 51.867188 135.402344 50.820312 135.117188 49.78125 134.804688 C 48.742188 134.492188 47.714844 134.148438 46.695312 133.777344 C 45.675781 133.40625 44.667969 133.007812 43.671875 132.582031 C 42.671875 132.15625 41.6875 131.699219 40.71875 131.21875 C 39.746094 130.738281 38.789062 130.230469 37.84375 129.695312 C 36.898438 129.160156 35.972656 128.597656 35.058594 128.011719 C 34.148438 127.425781 33.25 126.816406 32.375 126.179688 C 31.496094 125.542969 30.632812 124.882812 29.792969 124.199219 C 28.949219 123.515625 28.128906 122.808594 27.328125 122.078125 C 26.523438 121.347656 25.742188 120.597656 24.980469 119.824219 C 24.222656 119.050781 23.484375 118.257812 22.765625 117.441406 C 22.050781 116.628906 21.355469 115.796875 20.6875 114.941406 C 20.015625 114.089844 19.371094 113.21875 18.746094 112.328125 C 18.125 111.441406 17.53125 110.535156 16.957031 109.613281 C 16.386719 108.691406 15.839844 107.753906 15.320312 106.800781 C 14.804688 105.851562 14.308594 104.882812 13.84375 103.90625 C 13.378906 102.925781 12.941406 101.933594 12.53125 100.929688 C 12.121094 99.925781 11.738281 98.910156 11.382812 97.886719 C 11.03125 96.859375 10.703125 95.824219 10.410156 94.78125 C 10.113281 93.738281 9.84375 92.6875 9.605469 91.628906 C 9.367188 90.570312 9.160156 89.507812 8.980469 88.4375 C 8.800781 87.367188 8.652344 86.292969 8.535156 85.214844 C 8.414062 84.136719 8.324219 83.058594 8.265625 81.976562 C 8.207031 80.890625 8.179688 79.808594 8.179688 78.722656 C 8.179688 77.640625 8.210938 76.554688 8.273438 75.472656 C 8.335938 74.390625 8.425781 73.308594 8.546875 72.230469 C 8.667969 71.152344 8.820312 70.078125 9.003906 69.011719 C 9.183594 67.941406 9.394531 66.878906 9.636719 65.820312 C 9.875 64.761719 10.144531 63.710938 10.445312 62.667969 C 10.742188 61.625 11.070312 60.59375 11.425781 59.570312 C 11.78125 58.542969 12.167969 57.53125 12.578125 56.527344 C 12.992188 55.523438 13.433594 54.535156 13.898438 53.554688 C 14.367188 52.574219 14.863281 51.609375 15.382812 50.660156 C 15.90625 49.710938 16.453125 48.773438 17.027344 47.851562 C 17.601562 46.933594 18.199219 46.027344 18.820312 45.140625 C 19.445312 44.253906 20.09375 43.382812 20.765625 42.53125 C 21.4375 41.679688 22.132812 40.847656 22.851562 40.035156 C 23.570312 39.222656 24.308594 38.429688 25.070312 37.660156 C 25.835938 36.886719 26.617188 36.140625 27.421875 35.410156 C 28.226562 34.683594 29.050781 33.976562 29.894531 33.296875 C 30.734375 32.613281 31.597656 31.957031 32.476562 31.320312 C 33.359375 30.6875 34.253906 30.078125 35.167969 29.492188 C 36.082031 28.910156 37.011719 28.351562 37.957031 27.816406 C 38.902344 27.285156 39.859375 26.777344 40.832031 26.300781 C 41.804688 25.820312 42.792969 25.367188 43.789062 24.945312 C 44.789062 24.519531 45.796875 24.121094 46.816406 23.753906 C 47.835938 23.386719 48.867188 23.046875 49.90625 22.734375 C 50.945312 22.421875 51.992188 22.140625 53.046875 21.886719 C 54.101562 21.636719 55.160156 21.414062 56.230469 21.21875 C 57.296875 21.023438 58.367188 20.859375 59.445312 20.726562 C 60.519531 20.589844 61.601562 20.488281 62.683594 20.414062 C 63.765625 20.339844 64.847656 20.292969 65.933594 20.28125 C 67.015625 20.265625 68.101562 20.28125 69.183594 20.328125 C 70.269531 20.375 71.347656 20.449219 72.429688 20.558594 C 73.507812 20.664062 74.582031 20.800781 75.65625 20.964844 C 76.726562 21.132812 77.792969 21.328125 78.855469 21.554688 C 79.914062 21.777344 80.96875 22.035156 82.015625 22.316406 C 83.0625 22.601562 84.101562 22.914062 85.128906 23.257812 C 85.28125 23.304688 85.433594 23.328125 85.589844 23.316406 C 85.746094 23.304688 85.894531 23.265625 86.039062 23.199219 C 86.179688 23.128906 86.300781 23.035156 86.40625 22.917969 C 86.511719 22.800781 86.589844 22.667969 86.640625 22.519531 C 86.6875 22.367188 86.707031 22.214844 86.695312 22.058594 C 86.679688 21.898438 86.640625 21.75 86.570312 21.609375 C 86.5 21.46875 86.40625 21.347656 86.285156 21.242188 C 86.167969 21.136719 86.035156 21.058594 85.886719 21.007812 C 84.816406 20.652344 83.738281 20.328125 82.648438 20.035156 C 81.5625 19.742188 80.46875 19.476562 79.367188 19.242188 C 78.261719 19.007812 77.15625 18.808594 76.042969 18.636719 C 74.929688 18.464844 73.8125 18.320312 72.691406 18.210938 C 71.570312 18.101562 70.445312 18.023438 69.320312 17.976562 C 68.195312 17.929688 67.066406 17.914062 65.941406 17.929688 C 64.816406 17.945312 63.691406 17.988281 62.566406 18.066406 C 61.441406 18.144531 60.320312 18.253906 59.203125 18.394531 C 58.085938 18.535156 56.972656 18.707031 55.863281 18.90625 C 54.753906 19.109375 53.652344 19.34375 52.558594 19.605469 C 51.460938 19.867188 50.375 20.164062 49.296875 20.484375 C 48.21875 20.808594 47.148438 21.164062 46.089844 21.546875 C 45.027344 21.929688 43.980469 22.34375 42.945312 22.785156 C 41.90625 23.226562 40.882812 23.695312 39.875 24.191406 C 38.863281 24.691406 37.867188 25.21875 36.886719 25.769531 C 35.90625 26.324219 34.941406 26.90625 33.992188 27.511719 C 33.042969 28.121094 32.109375 28.753906 31.195312 29.414062 C 30.28125 30.070312 29.386719 30.753906 28.511719 31.464844 C 27.636719 32.171875 26.78125 32.90625 25.945312 33.664062 C 25.113281 34.417969 24.296875 35.199219 23.507812 36 C 22.714844 36.800781 21.945312 37.625 21.199219 38.46875 C 20.453125 39.3125 19.734375 40.175781 19.035156 41.0625 C 18.335938 41.945312 17.664062 42.847656 17.015625 43.769531 C 16.367188 44.691406 15.746094 45.632812 15.152344 46.589844 C 14.554688 47.546875 13.988281 48.515625 13.445312 49.503906 C 12.90625 50.492188 12.390625 51.496094 11.90625 52.511719 C 11.421875 53.527344 10.964844 54.558594 10.535156 55.601562 C 10.105469 56.640625 9.707031 57.695312 9.335938 58.757812 C 8.96875 59.824219 8.628906 60.898438 8.316406 61.980469 C 8.007812 63.0625 7.726562 64.15625 7.476562 65.253906 C 7.230469 66.351562 7.007812 67.457031 6.820312 68.566406 C 6.632812 69.679688 6.476562 70.792969 6.351562 71.914062 C 6.222656 73.03125 6.128906 74.15625 6.066406 75.28125 C 6 76.40625 5.96875 77.53125 5.96875 78.65625 C 5.96875 79.785156 5.996094 80.910156 6.058594 82.035156 C 6.121094 83.160156 6.210938 84.28125 6.335938 85.402344 C 6.460938 86.519531 6.617188 87.636719 6.800781 88.75 C 6.988281 89.859375 7.203125 90.964844 7.449219 92.0625 C 7.699219 93.164062 7.976562 94.253906 8.285156 95.339844 C 8.59375 96.421875 8.929688 97.496094 9.296875 98.5625 C 9.664062 99.625 10.0625 100.679688 10.488281 101.722656 C 10.914062 102.765625 11.371094 103.796875 11.851562 104.8125 C 12.335938 105.832031 12.847656 106.835938 13.386719 107.824219 C 13.925781 108.8125 14.492188 109.785156 15.085938 110.742188 C 15.679688 111.703125 16.300781 112.640625 16.945312 113.566406 C 17.589844 114.488281 18.261719 115.394531 18.957031 116.277344 C 19.65625 117.164062 20.375 118.03125 21.117188 118.875 C 21.863281 119.722656 22.628906 120.546875 23.421875 121.351562 C 24.210938 122.152344 25.023438 122.933594 25.855469 123.691406 C 26.6875 124.449219 27.542969 125.183594 28.417969 125.894531 C 29.292969 126.605469 30.183594 127.292969 31.097656 127.953125 C 32.007812 128.613281 32.9375 129.25 33.886719 129.859375 C 34.835938 130.46875 35.796875 131.050781 36.777344 131.605469 C 37.757812 132.160156 38.753906 132.6875 39.761719 133.1875 C 40.773438 133.691406 41.796875 134.160156 42.832031 134.605469 C 43.867188 135.046875 44.914062 135.464844 45.972656 135.847656 C 47.03125 136.234375 48.097656 136.589844 49.179688 136.914062 C 50.257812 137.242188 51.34375 137.535156 52.4375 137.800781 C 53.53125 138.066406 54.632812 138.300781 55.742188 138.507812 C 56.851562 138.710938 57.964844 138.882812 59.082031 139.027344 C 60.199219 139.167969 61.320312 139.28125 62.441406 139.359375 C 63.566406 139.441406 64.691406 139.488281 65.820312 139.507812 C 66.945312 139.523438 68.070312 139.511719 69.195312 139.464844 C 70.324219 139.421875 71.445312 139.34375 72.566406 139.238281 C 73.6875 139.128906 74.808594 138.992188 75.921875 138.820312 C 77.035156 138.652344 78.144531 138.449219 79.246094 138.21875 C 80.347656 137.988281 81.441406 137.726562 82.53125 137.433594 C 83.621094 137.140625 84.699219 136.820312 85.769531 136.46875 C 86.839844 136.117188 87.898438 135.734375 88.949219 135.324219 C 89.996094 134.910156 91.03125 134.472656 92.058594 134.003906 C 93.082031 133.535156 94.09375 133.039062 95.089844 132.511719 C 96.085938 131.988281 97.066406 131.433594 98.035156 130.855469 C 99 130.277344 99.949219 129.671875 100.882812 129.039062 C 101.816406 128.40625 102.730469 127.746094 103.625 127.066406 C 104.519531 126.382812 105.398438 125.675781 106.253906 124.941406 C 107.109375 124.210938 107.945312 123.457031 108.761719 122.675781 C 109.574219 121.898438 110.367188 121.097656 111.136719 120.277344 C 111.90625 119.453125 112.65625 118.609375 113.378906 117.746094 C 114.101562 116.882812 114.800781 116 115.472656 115.097656 C 116.148438 114.195312 116.796875 113.273438 117.417969 112.335938 C 118.042969 111.398438 118.640625 110.441406 119.210938 109.46875 C 119.777344 108.496094 120.320312 107.511719 120.835938 106.507812 C 121.351562 105.507812 121.839844 104.492188 122.296875 103.460938 C 122.753906 102.433594 123.183594 101.390625 123.585938 100.339844 C 123.984375 99.285156 124.355469 98.222656 124.699219 97.148438 C 125.039062 96.074219 125.351562 94.992188 125.632812 93.902344 C 125.914062 92.8125 126.164062 91.714844 126.386719 90.609375 C 126.605469 89.503906 126.796875 88.394531 126.953125 87.277344 C 127.113281 86.164062 127.242188 85.042969 127.335938 83.921875 C 127.433594 82.796875 127.5 81.675781 127.53125 80.546875 C 127.566406 79.421875 127.570312 78.296875 127.539062 77.167969 C 127.511719 76.042969 127.453125 74.917969 127.359375 73.796875 C 127.269531 72.671875 127.144531 71.554688 126.992188 70.4375 C 126.839844 69.320312 126.65625 68.210938 126.441406 67.105469 C 126.222656 65.996094 125.980469 64.898438 125.703125 63.804688 C 125.425781 62.714844 125.121094 61.628906 124.78125 60.554688 C 124.734375 60.40625 124.660156 60.269531 124.558594 60.152344 C 124.457031 60.03125 124.335938 59.933594 124.195312 59.863281 C 124.054688 59.789062 123.90625 59.746094 123.75 59.734375 C 123.59375 59.71875 123.441406 59.734375 123.289062 59.78125 Z M 123.289062 59.78125 " fill-opacity="1" fill-rule="nonzero"/><path fill="#362c5d" d="M 66.640625 60.011719 C 68.101562 60.015625 69.539062 60.191406 70.957031 60.539062 C 71.265625 60.585938 71.550781 60.523438 71.808594 60.347656 C 72.066406 60.171875 72.230469 59.933594 72.304688 59.628906 C 72.375 59.328125 72.332031 59.039062 72.179688 58.769531 C 72.027344 58.496094 71.800781 58.3125 71.503906 58.21875 C 69.902344 57.839844 68.28125 57.644531 66.640625 57.640625 C 65.949219 57.640625 65.261719 57.675781 64.574219 57.742188 C 63.886719 57.808594 63.203125 57.910156 62.527344 58.046875 C 61.851562 58.179688 61.183594 58.347656 60.523438 58.546875 C 59.863281 58.746094 59.210938 58.980469 58.574219 59.246094 C 57.9375 59.507812 57.3125 59.804688 56.707031 60.128906 C 56.097656 60.453125 55.503906 60.808594 54.929688 61.191406 C 54.359375 61.574219 53.804688 61.984375 53.269531 62.421875 C 52.738281 62.863281 52.226562 63.324219 51.738281 63.8125 C 51.25 64.300781 50.789062 64.8125 50.347656 65.34375 C 49.910156 65.878906 49.5 66.433594 49.117188 67.003906 C 48.734375 67.578125 48.378906 68.171875 48.054688 68.78125 C 47.730469 69.386719 47.433594 70.011719 47.171875 70.648438 C 46.90625 71.285156 46.671875 71.9375 46.472656 72.597656 C 46.273438 73.257812 46.105469 73.925781 45.972656 74.601562 C 45.835938 75.277344 45.734375 75.960938 45.667969 76.648438 C 45.601562 77.335938 45.566406 78.023438 45.566406 78.714844 C 45.566406 79.402344 45.601562 80.09375 45.667969 80.777344 C 45.734375 81.464844 45.835938 82.148438 45.972656 82.824219 C 46.105469 83.5 46.273438 84.171875 46.472656 84.832031 C 46.671875 85.492188 46.90625 86.140625 47.171875 86.777344 C 47.433594 87.414062 47.730469 88.039062 48.054688 88.648438 C 48.378906 89.253906 48.734375 89.847656 49.117188 90.421875 C 49.5 90.996094 49.910156 91.546875 50.347656 92.082031 C 50.789062 92.617188 51.25 93.125 51.738281 93.613281 C 52.226562 94.101562 52.738281 94.566406 53.269531 95.003906 C 53.804688 95.441406 54.359375 95.851562 54.929688 96.234375 C 55.503906 96.617188 56.097656 96.972656 56.707031 97.296875 C 57.3125 97.625 57.9375 97.917969 58.574219 98.183594 C 59.210938 98.445312 59.863281 98.679688 60.523438 98.878906 C 61.183594 99.078125 61.851562 99.246094 62.527344 99.382812 C 63.203125 99.515625 63.886719 99.617188 64.574219 99.683594 C 65.261719 99.753906 65.949219 99.785156 66.640625 99.785156 C 67.328125 99.785156 68.019531 99.753906 68.703125 99.683594 C 69.390625 99.617188 70.074219 99.515625 70.75 99.382812 C 71.425781 99.246094 72.097656 99.078125 72.757812 98.878906 C 73.417969 98.679688 74.066406 98.445312 74.703125 98.183594 C 75.339844 97.917969 75.964844 97.625 76.574219 97.296875 C 77.179688 96.972656 77.773438 96.617188 78.347656 96.234375 C 78.921875 95.851562 79.472656 95.441406 80.007812 95.003906 C 80.542969 94.566406 81.050781 94.101562 81.539062 93.613281 C 82.027344 93.125 82.492188 92.617188 82.929688 92.082031 C 83.367188 91.546875 83.777344 90.996094 84.160156 90.421875 C 84.542969 89.847656 84.898438 89.253906 85.222656 88.648438 C 85.550781 88.039062 85.84375 87.414062 86.109375 86.777344 C 86.371094 86.140625 86.605469 85.492188 86.804688 84.832031 C 87.003906 84.171875 87.171875 83.5 87.308594 82.824219 C 87.441406 82.148438 87.542969 81.464844 87.609375 80.777344 C 87.679688 80.09375 87.710938 79.402344 87.710938 78.714844 C 87.714844 77.339844 87.582031 75.984375 87.308594 74.640625 C 87.277344 74.484375 87.21875 74.34375 87.132812 74.210938 C 87.046875 74.082031 86.9375 73.972656 86.808594 73.886719 C 86.679688 73.796875 86.535156 73.738281 86.382812 73.707031 C 86.226562 73.675781 86.074219 73.675781 85.921875 73.707031 C 85.765625 73.738281 85.625 73.796875 85.492188 73.882812 C 85.363281 73.96875 85.253906 74.078125 85.167969 74.207031 C 85.078125 74.339844 85.019531 74.480469 84.988281 74.632812 C 84.960938 74.789062 84.960938 74.941406 84.988281 75.097656 C 85.21875 76.289062 85.335938 77.496094 85.339844 78.714844 C 85.34375 79.328125 85.3125 79.9375 85.253906 80.550781 C 85.191406 81.160156 85.105469 81.765625 84.984375 82.367188 C 84.867188 82.96875 84.71875 83.5625 84.539062 84.148438 C 84.363281 84.738281 84.15625 85.3125 83.921875 85.882812 C 83.6875 86.449219 83.425781 87 83.136719 87.542969 C 82.847656 88.085938 82.535156 88.609375 82.195312 89.121094 C 81.851562 89.628906 81.488281 90.121094 81.101562 90.597656 C 80.710938 91.070312 80.300781 91.527344 79.867188 91.960938 C 79.433594 92.394531 78.980469 92.804688 78.503906 93.195312 C 78.03125 93.582031 77.539062 93.949219 77.03125 94.289062 C 76.519531 94.632812 75.996094 94.945312 75.453125 95.234375 C 74.914062 95.523438 74.359375 95.789062 73.792969 96.023438 C 73.226562 96.257812 72.648438 96.464844 72.0625 96.640625 C 71.476562 96.820312 70.882812 96.96875 70.28125 97.089844 C 69.679688 97.210938 69.074219 97.300781 68.460938 97.359375 C 67.851562 97.421875 67.242188 97.449219 66.628906 97.449219 C 66.015625 97.449219 65.402344 97.421875 64.792969 97.359375 C 64.179688 97.300781 63.574219 97.210938 62.972656 97.09375 C 62.371094 96.972656 61.777344 96.824219 61.191406 96.644531 C 60.605469 96.46875 60.027344 96.261719 59.460938 96.027344 C 58.894531 95.792969 58.339844 95.53125 57.800781 95.242188 C 57.257812 94.953125 56.734375 94.636719 56.222656 94.296875 C 55.710938 93.957031 55.21875 93.589844 54.746094 93.203125 C 54.273438 92.8125 53.816406 92.402344 53.382812 91.96875 C 52.949219 91.535156 52.539062 91.082031 52.148438 90.605469 C 51.761719 90.132812 51.394531 89.640625 51.054688 89.128906 C 50.714844 88.621094 50.398438 88.09375 50.109375 87.554688 C 49.820312 87.011719 49.558594 86.457031 49.324219 85.890625 C 49.089844 85.324219 48.882812 84.75 48.707031 84.160156 C 48.527344 83.574219 48.378906 82.980469 48.261719 82.378906 C 48.140625 81.777344 48.050781 81.171875 47.992188 80.5625 C 47.929688 79.949219 47.902344 79.339844 47.902344 78.726562 C 47.902344 78.113281 47.933594 77.5 47.992188 76.890625 C 48.050781 76.277344 48.144531 75.671875 48.261719 75.070312 C 48.382812 74.46875 48.53125 73.875 48.710938 73.289062 C 48.886719 72.703125 49.09375 72.125 49.328125 71.558594 C 49.566406 70.992188 49.828125 70.4375 50.117188 69.898438 C 50.40625 69.355469 50.722656 68.832031 51.0625 68.320312 C 51.402344 67.8125 51.769531 67.320312 52.15625 66.847656 C 52.546875 66.371094 52.957031 65.917969 53.394531 65.484375 C 53.828125 65.050781 54.28125 64.640625 54.753906 64.253906 C 55.230469 63.863281 55.722656 63.5 56.230469 63.160156 C 56.742188 62.816406 57.269531 62.503906 57.808594 62.214844 C 58.351562 61.925781 58.90625 61.664062 59.472656 61.429688 C 60.039062 61.195312 60.613281 60.988281 61.203125 60.8125 C 61.789062 60.636719 62.382812 60.488281 62.984375 60.367188 C 63.585938 60.25 64.191406 60.160156 64.804688 60.097656 C 65.414062 60.039062 66.027344 60.011719 66.640625 60.011719 Z M 66.640625 60.011719 " fill-opacity="1" fill-rule="nonzero"/><path fill="#362c5d" d="M 80.355469 41.34375 C 80.402344 41.195312 80.417969 41.042969 80.40625 40.886719 C 80.394531 40.730469 80.351562 40.582031 80.28125 40.441406 C 80.210938 40.304688 80.117188 40.183594 80 40.078125 C 79.878906 39.976562 79.746094 39.902344 79.597656 39.851562 C 75.394531 38.441406 71.074219 37.738281 66.640625 37.742188 C 65.210938 37.746094 63.789062 37.828125 62.371094 37.980469 C 60.953125 38.132812 59.546875 38.359375 58.152344 38.660156 C 56.757812 38.957031 55.382812 39.332031 54.027344 39.773438 C 52.667969 40.21875 51.339844 40.730469 50.039062 41.3125 C 48.734375 41.894531 47.46875 42.546875 46.234375 43.261719 C 45 43.976562 43.804688 44.753906 42.652344 45.59375 C 41.5 46.433594 40.390625 47.332031 39.332031 48.285156 C 38.273438 49.242188 37.265625 50.25 36.3125 51.3125 C 35.359375 52.371094 34.460938 53.480469 33.625 54.632812 C 32.785156 55.789062 32.011719 56.984375 31.296875 58.21875 C 30.582031 59.453125 29.9375 60.722656 29.355469 62.027344 C 28.773438 63.328125 28.261719 64.660156 27.820312 66.015625 C 27.378906 67.371094 27.011719 68.746094 26.710938 70.144531 C 26.414062 71.539062 26.191406 72.945312 26.039062 74.363281 C 25.886719 75.78125 25.8125 77.207031 25.808594 78.632812 C 25.808594 80.058594 25.878906 81.480469 26.027344 82.902344 C 26.171875 84.320312 26.390625 85.726562 26.6875 87.125 C 26.980469 88.519531 27.34375 89.898438 27.78125 91.253906 C 28.21875 92.613281 28.726562 93.945312 29.304688 95.25 C 29.878906 96.554688 30.523438 97.824219 31.234375 99.0625 C 31.941406 100.300781 32.714844 101.496094 33.550781 102.65625 C 34.382812 103.8125 35.277344 104.921875 36.226562 105.984375 C 37.179688 107.050781 38.183594 108.0625 39.238281 109.019531 C 40.296875 109.976562 41.398438 110.878906 42.550781 111.722656 C 43.699219 112.566406 44.890625 113.347656 46.125 114.066406 C 47.355469 114.785156 48.621094 115.4375 49.921875 116.023438 C 51.222656 116.613281 52.550781 117.128906 53.90625 117.578125 C 55.257812 118.023438 56.632812 118.402344 58.027344 118.707031 C 59.421875 119.007812 60.828125 119.242188 62.246094 119.398438 C 63.664062 119.554688 65.085938 119.636719 66.511719 119.648438 C 67.9375 119.65625 69.363281 119.589844 70.78125 119.449219 C 72.203125 119.308594 73.609375 119.097656 75.007812 118.808594 C 76.40625 118.519531 77.785156 118.160156 79.144531 117.730469 C 80.503906 117.300781 81.835938 116.796875 83.144531 116.226562 C 84.453125 115.65625 85.726562 115.019531 86.96875 114.316406 C 88.207031 113.613281 89.410156 112.84375 90.570312 112.015625 C 91.730469 111.1875 92.84375 110.296875 93.914062 109.351562 C 94.980469 108.40625 95.996094 107.40625 96.960938 106.355469 C 97.925781 105.304688 98.828125 104.203125 99.679688 103.058594 C 100.527344 101.910156 101.3125 100.722656 102.039062 99.492188 C 102.761719 98.265625 103.421875 97 104.015625 95.703125 C 104.605469 94.40625 105.128906 93.082031 105.585938 91.726562 C 106.039062 90.375 106.421875 89.003906 106.730469 87.609375 C 107.042969 86.21875 107.277344 84.8125 107.441406 83.398438 C 107.605469 81.980469 107.695312 80.558594 107.710938 79.128906 C 107.726562 77.703125 107.667969 76.28125 107.535156 74.859375 C 107.398438 73.441406 107.191406 72.03125 106.910156 70.632812 C 106.628906 69.234375 106.277344 67.851562 105.851562 66.492188 C 105.730469 66.207031 105.53125 66.003906 105.25 65.875 C 104.972656 65.746094 104.6875 65.730469 104.394531 65.824219 C 104.101562 65.917969 103.875 66.097656 103.722656 66.363281 C 103.566406 66.628906 103.523438 66.910156 103.585938 67.210938 C 103.800781 67.894531 103.996094 68.582031 104.171875 69.277344 C 104.347656 69.972656 104.503906 70.671875 104.640625 71.371094 C 104.777344 72.074219 104.894531 72.78125 104.992188 73.492188 C 105.089844 74.199219 105.167969 74.914062 105.226562 75.625 C 105.285156 76.339844 105.320312 77.054688 105.339844 77.769531 C 105.359375 78.488281 105.355469 79.203125 105.335938 79.917969 C 105.3125 80.632812 105.273438 81.347656 105.210938 82.0625 C 105.148438 82.777344 105.070312 83.488281 104.96875 84.195312 C 104.867188 84.90625 104.746094 85.609375 104.605469 86.3125 C 104.46875 87.015625 104.308594 87.714844 104.128906 88.40625 C 103.949219 89.101562 103.75 89.789062 103.535156 90.46875 C 103.316406 91.152344 103.082031 91.828125 102.828125 92.496094 C 102.570312 93.167969 102.300781 93.828125 102.007812 94.484375 C 101.714844 95.136719 101.40625 95.78125 101.078125 96.417969 C 100.75 97.054688 100.40625 97.683594 100.042969 98.300781 C 99.683594 98.917969 99.304688 99.527344 98.90625 100.125 C 98.511719 100.71875 98.097656 101.304688 97.671875 101.878906 C 97.242188 102.453125 96.796875 103.015625 96.335938 103.5625 C 95.878906 104.113281 95.402344 104.648438 94.914062 105.171875 C 94.425781 105.691406 93.921875 106.203125 93.402344 106.695312 C 92.882812 107.191406 92.351562 107.671875 91.808594 108.136719 C 91.265625 108.601562 90.707031 109.050781 90.136719 109.484375 C 89.566406 109.917969 88.988281 110.335938 88.394531 110.738281 C 87.800781 111.140625 87.199219 111.523438 86.582031 111.894531 C 85.96875 112.261719 85.34375 112.613281 84.710938 112.945312 C 84.078125 113.28125 83.433594 113.59375 82.785156 113.894531 C 82.132812 114.191406 81.472656 114.46875 80.808594 114.730469 C 80.140625 114.992188 79.464844 115.234375 78.785156 115.457031 C 78.105469 115.683594 77.421875 115.886719 76.726562 116.074219 C 76.035156 116.257812 75.339844 116.425781 74.640625 116.570312 C 73.9375 116.71875 73.234375 116.84375 72.527344 116.953125 C 71.816406 117.058594 71.109375 117.148438 70.394531 117.214844 C 69.683594 117.285156 68.96875 117.332031 68.253906 117.359375 C 67.535156 117.390625 66.820312 117.398438 66.105469 117.386719 C 65.390625 117.375 64.671875 117.34375 63.960938 117.292969 C 63.246094 117.242188 62.53125 117.171875 61.824219 117.078125 C 61.113281 116.988281 60.40625 116.878906 59.699219 116.75 C 58.996094 116.617188 58.296875 116.46875 57.601562 116.300781 C 56.90625 116.132812 56.214844 115.941406 55.527344 115.734375 C 54.84375 115.527344 54.164062 115.300781 53.492188 115.054688 C 52.816406 114.8125 52.152344 114.546875 51.496094 114.265625 C 50.835938 113.984375 50.1875 113.683594 49.546875 113.363281 C 48.902344 113.046875 48.269531 112.710938 47.648438 112.355469 C 47.027344 112.003906 46.414062 111.632812 45.8125 111.246094 C 45.207031 110.859375 44.617188 110.453125 44.039062 110.03125 C 43.457031 109.613281 42.890625 109.175781 42.335938 108.722656 C 41.78125 108.273438 41.238281 107.804688 40.707031 107.324219 C 40.179688 106.839844 39.664062 106.34375 39.160156 105.832031 C 38.660156 105.324219 38.171875 104.796875 37.699219 104.261719 C 37.226562 103.722656 36.769531 103.171875 36.328125 102.609375 C 35.882812 102.046875 35.457031 101.46875 35.046875 100.882812 C 34.636719 100.296875 34.246094 99.699219 33.867188 99.089844 C 33.492188 98.480469 33.132812 97.863281 32.789062 97.234375 C 32.445312 96.601562 32.121094 95.964844 31.816406 95.320312 C 31.507812 94.671875 31.21875 94.015625 30.949219 93.351562 C 30.679688 92.691406 30.425781 92.019531 30.191406 91.34375 C 29.960938 90.667969 29.746094 89.984375 29.550781 89.292969 C 29.355469 88.605469 29.179688 87.910156 29.023438 87.210938 C 28.863281 86.515625 28.726562 85.8125 28.609375 85.105469 C 28.492188 84.398438 28.394531 83.6875 28.316406 82.976562 C 28.238281 82.265625 28.179688 81.550781 28.140625 80.835938 C 28.101562 80.121094 28.082031 79.40625 28.085938 78.691406 C 28.085938 77.972656 28.109375 77.257812 28.148438 76.542969 C 28.191406 75.828125 28.25 75.117188 28.332031 74.402344 C 28.410156 73.691406 28.511719 72.984375 28.632812 72.277344 C 28.753906 71.570312 28.890625 70.871094 29.050781 70.171875 C 29.210938 69.472656 29.390625 68.78125 29.585938 68.089844 C 29.785156 67.402344 30 66.722656 30.238281 66.042969 C 30.472656 65.367188 30.726562 64.699219 31 64.039062 C 31.273438 63.375 31.5625 62.722656 31.871094 62.074219 C 32.183594 61.429688 32.507812 60.792969 32.851562 60.164062 C 33.199219 59.535156 33.558594 58.917969 33.9375 58.3125 C 34.316406 57.703125 34.714844 57.105469 35.125 56.523438 C 35.539062 55.9375 35.964844 55.363281 36.410156 54.800781 C 36.855469 54.238281 37.3125 53.691406 37.789062 53.152344 C 38.261719 52.617188 38.75 52.09375 39.253906 51.585938 C 39.757812 51.078125 40.277344 50.582031 40.808594 50.101562 C 41.339844 49.621094 41.882812 49.15625 42.441406 48.707031 C 42.996094 48.253906 43.566406 47.820312 44.148438 47.402344 C 44.726562 46.984375 45.320312 46.582031 45.925781 46.199219 C 46.527344 45.8125 47.140625 45.445312 47.765625 45.09375 C 48.390625 44.742188 49.023438 44.40625 49.664062 44.089844 C 50.308594 43.773438 50.960938 43.476562 51.617188 43.195312 C 52.277344 42.917969 52.945312 42.65625 53.617188 42.414062 C 54.292969 42.171875 54.972656 41.945312 55.65625 41.742188 C 56.34375 41.535156 57.035156 41.351562 57.730469 41.183594 C 58.425781 41.015625 59.128906 40.871094 59.832031 40.742188 C 60.539062 40.613281 61.246094 40.507812 61.957031 40.417969 C 62.667969 40.332031 63.378906 40.261719 64.09375 40.214844 C 64.808594 40.164062 65.523438 40.136719 66.238281 40.125 C 66.957031 40.117188 67.671875 40.128906 68.386719 40.160156 C 69.101562 40.191406 69.816406 40.242188 70.527344 40.3125 C 71.242188 40.382812 71.953125 40.472656 72.660156 40.582031 C 73.367188 40.691406 74.070312 40.824219 74.769531 40.972656 C 75.472656 41.121094 76.167969 41.289062 76.859375 41.476562 C 77.550781 41.664062 78.234375 41.871094 78.914062 42.097656 C 79.214844 42.175781 79.503906 42.144531 79.78125 42 C 80.054688 41.855469 80.246094 41.636719 80.355469 41.34375 Z M 80.355469 41.34375 " fill-opacity="1" fill-rule="nonzero"/><g clip-path="url(#92217a1ec3)"><path fill="#362c5d" d="M 65.832031 76.640625 C 65.652344 76.804688 65.539062 77.007812 65.484375 77.242188 C 65.433594 77.480469 65.449219 77.710938 65.539062 77.933594 C 65.628906 78.160156 65.773438 78.339844 65.976562 78.476562 C 66.175781 78.613281 66.398438 78.679688 66.640625 78.679688 C 66.960938 78.679688 67.234375 78.570312 67.464844 78.34375 L 96.265625 50.738281 C 96.722656 51.390625 97.304688 51.894531 98.019531 52.25 C 98.109375 52.25 104.554688 52.546875 110.945312 52.546875 C 116.757812 52.546875 122.535156 52.320312 123.414062 51.511719 C 123.660156 51.28125 147.347656 27.875 147.367188 24.785156 C 147.367188 21.273438 145.433594 20.535156 140.726562 20.023438 C 138.324219 19.777344 135.160156 19.65625 132.386719 19.550781 C 130.628906 19.550781 128.382812 19.410156 127.328125 19.304688 C 127.328125 18.585938 127.453125 17.320312 127.539062 16.265625 C 127.90625 13.214844 127.988281 10.152344 127.785156 7.082031 C 127.363281 2.394531 126.59375 0.425781 123.148438 0.425781 C 120.023438 0.425781 96.632812 24.167969 96.40625 24.414062 C 94.910156 26.046875 95.386719 42.363281 95.648438 48.050781 Z M 140.550781 22.394531 C 145.082031 22.871094 145.082031 23.398438 145.082031 24.609375 C 144.277344 27.101562 124.765625 47.050781 121.992188 49.597656 C 119.726562 50.351562 101.25 50.125 98.808594 49.894531 C 98.492188 49.652344 98.214844 49.363281 97.984375 49.035156 L 126.679688 21.585938 C 128.570312 21.792969 130.46875 21.90625 132.371094 21.921875 C 135.109375 22.027344 138.21875 22.148438 140.550781 22.394531 Z M 98.25 25.90625 C 100.863281 23.132812 120.796875 3.605469 123.113281 2.796875 C 124.484375 2.796875 125.027344 2.796875 125.503906 7.328125 C 125.679688 10.261719 125.597656 13.1875 125.257812 16.109375 C 125.101562 17.375 125.03125 18.644531 125.046875 19.917969 L 97.773438 46.085938 C 97.617188 40.0625 97.617188 27.75 98.25 25.90625 Z M 98.25 25.90625 " fill-opacity="1" fill-rule="nonzero"/></g><g fill="#362c5d" fill-opacity="1"><g transform="translate(91.880064, 107.357647)"><g><path d="M 0.59375 -0.71875 C 0.59375 -1.007812 0.664062 -1.222656 0.8125 -1.359375 C 0.96875 -1.503906 1.191406 -1.578125 1.484375 -1.578125 C 1.765625 -1.578125 1.976562 -1.503906 2.125 -1.359375 C 2.28125 -1.210938 2.359375 -1 2.359375 -0.71875 C 2.359375 -0.457031 2.28125 -0.25 2.125 -0.09375 C 1.976562 0.0625 1.765625 0.140625 1.484375 0.140625 C 1.203125 0.140625 0.984375 0.0664062 0.828125 -0.078125 C 0.671875 -0.234375 0.59375 -0.445312 0.59375 -0.71875 Z M 0.59375 -0.71875 "/></g></g></g></svg>