<svg xmlns="http://www.w3.org/2000/svg" xmlns:xlink="http://www.w3.org/1999/xlink" width="172" zoomAndPan="magnify" viewBox="0 0 129 147.000002" height="196" preserveAspectRatio="xMidYMid meet" version="1.0"><defs><g/><clipPath id="6b988260b5"><path d="M 1 19 L 60 19 L 60 145.261719 L 1 145.261719 Z M 1 19 " clip-rule="nonzero"/></clipPath><clipPath id="027507101b"><path d="M 59 0 L 128.5625 0 L 128.5625 79 L 59 79 Z M 59 0 " clip-rule="nonzero"/></clipPath></defs><path fill="#e2eaff" d="M 98.503906 144.359375 C 97.902344 144.359375 97.359375 143.953125 97.210938 143.339844 L 93.136719 126.609375 C 90.96875 115.324219 95.351562 104.652344 99.589844 94.332031 C 101.195312 90.429688 102.707031 86.742188 103.847656 83.082031 C 105.234375 78.664062 106.125 74.226562 106.492188 69.898438 C 106.5625 69.167969 107.195312 68.621094 107.941406 68.683594 C 108.671875 68.753906 109.214844 69.394531 109.152344 70.128906 C 108.761719 74.648438 107.835938 79.277344 106.394531 83.878906 C 105.214844 87.648438 103.683594 91.386719 102.054688 95.34375 C 97.964844 105.304688 93.738281 115.601562 95.742188 126.042969 L 99.804688 142.710938 C 99.972656 143.425781 99.539062 144.144531 98.824219 144.320312 C 98.714844 144.347656 98.605469 144.359375 98.503906 144.359375 " fill-opacity="1" fill-rule="nonzero"/><g clip-path="url(#6b988260b5)"><path fill="#e2eaff" d="M 38.78125 145.320312 C 38.644531 145.320312 38.507812 145.296875 38.375 145.257812 C 37.667969 145.03125 37.289062 144.273438 37.511719 143.578125 C 38.664062 140.015625 38.757812 135.214844 37.789062 130.402344 C 37.347656 128.230469 35.667969 126.476562 33.5 125.9375 C 31.132812 125.355469 28.699219 125.070312 26.285156 125.117188 C 25.382812 125.128906 24.445312 125.191406 23.539062 125.246094 C 21.828125 125.355469 20.054688 125.46875 18.273438 125.304688 C 14.5625 124.964844 11.691406 123.421875 10.195312 120.964844 C 9.210938 119.347656 8.378906 116.582031 9.996094 112.574219 C 10.960938 110.378906 10.195312 109.03125 9.304688 107.476562 L 9.035156 107.011719 C 6.871094 103.125 8.1875 100.925781 9.246094 99.15625 C 9.785156 98.253906 10.246094 97.480469 10.269531 96.511719 C 10.277344 95.660156 9.574219 94.945312 8.617188 94.84375 C 6.148438 94.582031 3.851562 93.539062 2.324219 91.980469 C 0.828125 90.457031 0.578125 88.113281 1.699219 86.277344 L 3.300781 83.683594 C 10.402344 72.160156 10.402344 72.160156 12.167969 59.527344 C 12.527344 56.964844 12.953125 53.894531 13.523438 50.121094 C 15.828125 34.871094 30.964844 18.714844 58.667969 19.292969 C 59.40625 19.308594 59.988281 19.917969 59.972656 20.652344 C 59.960938 21.386719 59.375 21.992188 58.617188 21.957031 C 32.488281 21.425781 18.296875 36.378906 16.164062 50.519531 C 15.589844 54.28125 15.164062 57.335938 14.804688 59.894531 C 12.984375 72.960938 12.898438 73.195312 5.570312 85.085938 L 3.976562 87.671875 C 3.488281 88.460938 3.589844 89.464844 4.226562 90.113281 C 5.316406 91.21875 7.0625 91.996094 8.902344 92.195312 C 11.238281 92.445312 12.972656 94.320312 12.933594 96.5625 C 12.898438 98.242188 12.175781 99.449219 11.53125 100.523438 C 10.578125 102.121094 9.949219 103.171875 11.363281 105.714844 L 11.613281 106.152344 C 12.597656 107.871094 13.945312 110.21875 12.457031 113.605469 C 11.515625 115.929688 11.515625 118.007812 12.46875 119.574219 C 13.519531 121.292969 15.667969 122.386719 18.515625 122.648438 C 20.09375 122.796875 21.683594 122.695312 23.367188 122.585938 C 24.304688 122.523438 25.273438 122.460938 26.242188 122.445312 C 28.90625 122.40625 31.554688 122.707031 34.140625 123.351562 C 37.300781 124.136719 39.757812 126.699219 40.40625 129.875 C 41.476562 135.199219 41.359375 140.355469 40.050781 144.394531 C 39.871094 144.960938 39.34375 145.320312 38.78125 145.320312 " fill-opacity="1" fill-rule="nonzero"/></g><path fill="#e2eaff" d="M 94.253906 11.992188 C 92.722656 11.992188 91.3125 12.609375 90.265625 13.726562 C 89.230469 14.84375 88.710938 16.296875 88.824219 17.824219 L 90.730469 35.460938 C 90.925781 37.265625 92.441406 38.621094 94.253906 38.621094 C 96.066406 38.621094 97.582031 37.265625 97.777344 35.460938 L 99.691406 17.777344 C 99.792969 16.296875 99.277344 14.84375 98.238281 13.726562 C 97.195312 12.609375 95.78125 11.992188 94.253906 11.992188 Z M 94.253906 41.289062 C 91.074219 41.289062 88.417969 38.90625 88.078125 35.746094 L 86.164062 18.0625 C 86 15.773438 86.789062 13.550781 88.316406 11.90625 C 89.847656 10.265625 92.007812 9.324219 94.253906 9.324219 C 96.496094 9.324219 98.65625 10.265625 100.191406 11.90625 C 101.714844 13.550781 102.503906 15.773438 102.34375 18.015625 L 100.429688 35.746094 C 100.085938 38.90625 97.433594 41.289062 94.253906 41.289062 " fill-opacity="1" fill-rule="nonzero"/><path fill="#e2eaff" d="M 94.214844 46.445312 C 92.246094 46.445312 90.648438 48.042969 90.648438 50.011719 C 90.648438 51.976562 92.246094 53.582031 94.214844 53.582031 C 96.183594 53.582031 97.785156 51.976562 97.785156 50.011719 C 97.785156 48.042969 96.183594 46.445312 94.214844 46.445312 Z M 94.214844 56.25 C 90.777344 56.25 87.980469 53.453125 87.980469 50.011719 C 87.980469 46.574219 90.777344 43.777344 94.214844 43.777344 C 97.652344 43.777344 100.449219 46.574219 100.449219 50.011719 C 100.449219 53.453125 97.652344 56.25 94.214844 56.25 " fill-opacity="1" fill-rule="nonzero"/><g clip-path="url(#027507101b)"><path fill="#e2eaff" d="M 67.953125 74.992188 C 81.671875 78.292969 90.074219 69.382812 92.410156 66.425781 C 92.671875 66.101562 93.046875 65.898438 93.488281 65.921875 C 102.097656 66.125 110.199219 62.941406 116.324219 56.957031 C 122.46875 50.960938 125.851562 42.925781 125.851562 34.34375 C 125.851562 16.921875 111.679688 2.75 94.253906 2.75 C 76.832031 2.75 62.65625 16.921875 62.65625 34.34375 C 62.65625 44.914062 67.910156 54.738281 76.714844 60.628906 C 77.253906 60.992188 77.457031 61.6875 77.183594 62.285156 C 74.300781 68.65625 70.34375 72.855469 67.953125 74.992188 Z M 73.910156 78.398438 C 71.101562 78.398438 68.035156 77.9375 64.707031 76.832031 C 64.226562 76.671875 63.875 76.257812 63.808594 75.753906 C 63.734375 75.253906 63.953125 74.753906 64.375 74.464844 C 64.429688 74.425781 70.285156 70.324219 74.285156 62.1875 C 65.308594 55.75 59.988281 45.421875 59.988281 34.34375 C 59.988281 15.453125 75.359375 0.0820312 94.253906 0.0820312 C 113.148438 0.0820312 128.515625 15.453125 128.515625 34.34375 C 128.515625 43.652344 124.847656 52.363281 118.1875 58.871094 C 111.742188 65.160156 103.277344 68.597656 94.265625 68.597656 C 94.210938 68.597656 94.148438 68.597656 94.085938 68.597656 C 91.492188 71.691406 84.628906 78.398438 73.910156 78.398438 " fill-opacity="1" fill-rule="nonzero"/></g><g fill="#e2eaff" fill-opacity="1"><g transform="translate(106.961145, 69.366094)"><g><path d="M 0.59375 -0.71875 C 0.59375 -1.007812 0.664062 -1.222656 0.8125 -1.359375 C 0.96875 -1.503906 1.191406 -1.578125 1.484375 -1.578125 C 1.765625 -1.578125 1.976562 -1.503906 2.125 -1.359375 C 2.28125 -1.210938 2.359375 -1 2.359375 -0.71875 C 2.359375 -0.457031 2.28125 -0.25 2.125 -0.09375 C 1.976562 0.0625 1.765625 0.140625 1.484375 0.140625 C 1.203125 0.140625 0.984375 0.0664062 0.828125 -0.078125 C 0.671875 -0.234375 0.59375 -0.445312 0.59375 -0.71875 Z M 0.59375 -0.71875 "/></g></g></g></svg>