<svg xmlns="http://www.w3.org/2000/svg" xmlns:xlink="http://www.w3.org/1999/xlink" width="161" zoomAndPan="magnify" viewBox="0 0 120.75 119.999999" height="160" preserveAspectRatio="xMidYMid meet" version="1.0"><defs><g/><clipPath id="99762411d2"><path d="M 1 1 L 119 1 L 119 119.496094 L 1 119.496094 Z M 1 1 " clip-rule="nonzero"/></clipPath></defs><g clip-path="url(#99762411d2)"><path fill="#362c5d" d="M 12.359375 88.207031 C 12.871094 89.085938 12.574219 90.207031 11.695312 90.71875 C 11.40625 90.886719 11.089844 90.96875 10.773438 90.96875 C 10.144531 90.96875 9.527344 90.640625 9.1875 90.054688 C 2.878906 79.222656 0.242188 66.890625 1.558594 54.394531 C 3.199219 38.792969 10.820312 24.761719 23.015625 14.890625 C 35.210938 5.019531 50.519531 0.488281 66.121094 2.128906 C 76.585938 3.230469 86.425781 7.054688 94.804688 13.246094 L 93.535156 8.785156 C 93.253906 7.808594 93.820312 6.792969 94.796875 6.515625 C 95.769531 6.238281 96.785156 6.800781 97.0625 7.777344 L 99.945312 17.871094 C 100.097656 18.414062 99.996094 19 99.664062 19.453125 C 99.332031 19.910156 98.808594 20.191406 98.246094 20.210938 L 87.753906 20.585938 C 87.730469 20.589844 87.707031 20.589844 87.6875 20.589844 C 86.703125 20.589844 85.890625 19.808594 85.851562 18.820312 C 85.816406 17.804688 86.609375 16.953125 87.621094 16.917969 L 93.3125 16.714844 C 85.308594 10.609375 75.835938 6.84375 65.738281 5.78125 C 51.113281 4.242188 36.757812 8.488281 25.324219 17.746094 C 13.894531 27 6.75 40.152344 5.210938 54.78125 C 3.976562 66.496094 6.449219 78.054688 12.359375 88.207031 Z M 110.757812 31.035156 C 110.25 30.15625 109.125 29.859375 108.25 30.371094 C 107.375 30.882812 107.078125 32.003906 107.585938 32.882812 C 113.5 43.035156 115.972656 54.59375 114.738281 66.308594 C 111.558594 96.507812 84.40625 118.488281 54.207031 115.308594 C 44.117188 114.246094 34.636719 110.476562 26.632812 104.375 L 32.324219 104.171875 C 33.339844 104.136719 34.128906 103.285156 34.09375 102.269531 C 34.058594 101.257812 33.214844 100.464844 32.191406 100.503906 L 21.703125 100.878906 C 21.136719 100.898438 20.613281 101.179688 20.28125 101.632812 C 19.953125 102.089844 19.847656 102.675781 20.003906 103.21875 L 22.882812 113.3125 C 23.113281 114.117188 23.847656 114.644531 24.648438 114.644531 C 24.8125 114.644531 24.984375 114.621094 25.152344 114.574219 C 26.125 114.296875 26.691406 113.28125 26.414062 112.304688 L 25.140625 107.84375 C 33.523438 114.035156 43.367188 117.859375 53.824219 118.960938 C 55.917969 119.179688 58.007812 119.289062 60.085938 119.289062 C 73.480469 119.289062 86.375 114.746094 96.929688 106.199219 C 109.125 96.328125 116.746094 82.296875 118.386719 66.695312 C 119.703125 54.195312 117.066406 41.863281 110.757812 31.035156 Z M 27.027344 63.738281 C 26.074219 63.371094 16.152344 58.90625 16 58.839844 C 15.066406 58.433594 14.574219 57.324219 15.027344 56.355469 L 26.308594 32.355469 C 26.738281 31.441406 27.824219 31.046875 28.738281 31.46875 L 39.539062 36.449219 C 39.585938 36.472656 39.628906 36.492188 39.671875 36.519531 C 41.777344 37.703125 43.996094 37.179688 46.796875 36.519531 C 50.507812 35.640625 55.070312 34.566406 60.421875 37.6875 C 67.78125 33.171875 73.433594 35.476562 77.609375 37.183594 C 80.683594 38.4375 82.507812 39.101562 84.332031 38.15625 C 84.332031 38.15625 92.582031 33.738281 92.597656 33.730469 C 93.542969 33.222656 94.785156 33.6875 95.171875 34.6875 L 104.96875 59.953125 C 105.328125 60.875 104.886719 61.917969 103.976562 62.304688 L 93.792969 66.648438 C 93.988281 68 93.765625 69.417969 93.066406 70.6875 C 92.21875 72.234375 90.8125 73.351562 89.109375 73.835938 C 88.628906 73.972656 88.140625 74.046875 87.65625 74.074219 C 87.824219 75.394531 87.597656 76.773438 86.910156 78.019531 C 85.722656 80.183594 83.480469 81.40625 81.171875 81.40625 C 80.945312 81.40625 80.71875 81.390625 80.492188 81.367188 C 80.550781 82.53125 80.300781 83.71875 79.703125 84.804688 C 78.617188 86.78125 76.644531 87.972656 74.550781 88.160156 C 74.765625 89.539062 74.546875 90.996094 73.824219 92.304688 C 72.636719 94.46875 70.394531 95.691406 68.085938 95.691406 C 67.019531 95.691406 65.941406 95.429688 64.945312 94.882812 L 62.863281 93.738281 C 61.605469 95.414062 59.644531 96.351562 57.625 96.351562 C 56.582031 96.351562 55.53125 96.105469 54.550781 95.582031 C 53.105469 94.808594 52.070312 93.5625 51.527344 92.136719 C 51.300781 92.234375 51.066406 92.324219 50.828125 92.394531 C 48.957031 92.960938 46.867188 92.644531 45.246094 91.542969 C 44.273438 90.882812 43.496094 89.957031 43.003906 88.886719 C 43.09375 89.085938 40.753906 89.628906 40.59375 89.648438 C 39.28125 89.796875 37.945312 89.542969 36.78125 88.921875 C 35.246094 88.097656 34.121094 86.726562 33.613281 85.050781 C 33.324219 84.089844 33.257812 83.09375 33.40625 82.132812 C 33.347656 82.136719 33.289062 82.140625 33.230469 82.140625 C 32.191406 82.140625 31.136719 81.890625 30.15625 81.367188 C 26.976562 79.667969 25.773438 75.699219 27.476562 72.519531 L 29.050781 69.574219 C 28.644531 68.632812 28.453125 67.609375 28.285156 66.675781 C 27.957031 64.886719 27.726562 64.011719 27.027344 63.738281 Z M 35.765625 76.964844 C 35.765625 76.964844 38.753906 71.375 38.753906 71.371094 C 39.488281 70.003906 38.949219 68.222656 37.582031 67.496094 C 36.203125 66.757812 34.433594 67.292969 33.699219 68.667969 L 30.714844 74.25 C 29.96875 75.644531 30.496094 77.386719 31.890625 78.128906 C 33.28125 78.875 35.015625 78.351562 35.765625 76.964844 Z M 42.394531 84.507812 C 42.394531 84.507812 46.4375 76.949219 46.441406 76.941406 C 47.171875 75.574219 46.636719 73.792969 45.265625 73.066406 C 43.902344 72.339844 42.125 72.867188 41.390625 74.230469 L 37.339844 81.804688 C 36.59375 83.199219 37.121094 84.9375 38.515625 85.683594 C 39.183594 86.042969 39.960938 86.117188 40.695312 85.894531 C 41.433594 85.671875 42.035156 85.179688 42.394531 84.507812 Z M 51.460938 87.496094 C 51.460938 87.496094 54.730469 81.382812 54.734375 81.378906 C 55.464844 80.011719 54.925781 78.230469 53.558594 77.5 C 52.1875 76.769531 50.410156 77.300781 49.675781 78.675781 L 46.40625 84.792969 C 45.660156 86.1875 46.1875 87.925781 47.582031 88.671875 C 48.953125 89.40625 50.730469 88.863281 51.460938 87.496094 Z M 60.164062 91.167969 C 60.164062 91.167969 63.023438 85.820312 63.027344 85.8125 C 63.753906 84.457031 63.214844 82.660156 61.851562 81.9375 C 60.480469 81.203125 58.703125 81.742188 57.96875 83.109375 L 55.109375 88.464844 C 54.363281 89.859375 54.890625 91.597656 56.28125 92.34375 C 57.675781 93.089844 59.417969 92.5625 60.164062 91.167969 Z M 69.472656 86.640625 L 69.441406 86.625 L 66.984375 85.269531 C 66.886719 86.058594 66.648438 86.828125 66.261719 87.546875 L 64.664062 90.539062 L 66.714844 91.667969 C 68.101562 92.429688 69.847656 91.921875 70.609375 90.535156 C 71.367188 89.15625 70.859375 87.40625 69.472656 86.640625 Z M 61.40625 41.421875 C 60.085938 42.332031 58.75 43.46875 57.433594 44.800781 C 54.460938 47.804688 50.785156 50.648438 46.492188 53.273438 C 50.871094 57.867188 55.578125 55.960938 60.949219 53.785156 C 63.871094 52.605469 66.863281 51.394531 69.777344 51.394531 C 71.292969 51.394531 72.792969 51.722656 74.25 52.554688 L 90.515625 61.824219 C 91.207031 62.21875 91.800781 62.71875 92.289062 63.296875 L 100.902344 59.625 L 92.5 37.945312 L 86.042969 41.402344 C 82.605469 43.191406 79.359375 41.863281 76.21875 40.582031 C 72.019531 38.863281 67.675781 37.089844 61.40625 41.421875 Z M 19.511719 56.390625 C 22.273438 57.636719 27.414062 59.953125 28.355469 60.316406 C 30.714844 61.234375 31.382812 63.410156 31.753906 65.253906 C 33.742188 63.390625 36.777344 62.898438 39.3125 64.253906 C 40.839844 65.070312 41.964844 66.441406 42.476562 68.117188 C 42.582031 68.464844 42.65625 68.816406 42.703125 69.171875 C 44.167969 68.890625 45.667969 69.117188 46.996094 69.824219 C 48.527344 70.640625 49.652344 72.011719 50.160156 73.6875 C 50.171875 73.730469 50.183594 73.769531 50.195312 73.8125 C 50.234375 73.800781 50.273438 73.785156 50.3125 73.773438 C 51.984375 73.265625 53.753906 73.441406 55.289062 74.261719 C 56.820312 75.078125 57.945312 76.449219 58.453125 78.125 C 58.464844 78.164062 58.476562 78.207031 58.488281 78.25 C 58.527344 78.234375 58.5625 78.222656 58.601562 78.210938 C 60.277344 77.703125 62.046875 77.875 63.582031 78.695312 C 64.320312 79.089844 64.960938 79.613281 65.488281 80.238281 L 72.59375 84.164062 C 73.976562 84.925781 75.722656 84.421875 76.484375 83.035156 C 77.242188 81.664062 76.726562 79.914062 75.339844 79.132812 L 65.300781 73.484375 C 64.417969 72.988281 64.105469 71.867188 64.601562 70.984375 C 65.101562 70.101562 66.21875 69.785156 67.101562 70.285156 L 79.800781 77.378906 C 81.1875 78.140625 82.933594 77.632812 83.695312 76.25 C 84.449219 74.878906 83.933594 73.128906 82.546875 72.347656 C 82.507812 72.324219 72.511719 66.671875 72.511719 66.671875 C 71.628906 66.171875 71.316406 65.050781 71.816406 64.167969 C 72.316406 63.289062 73.433594 62.976562 74.316406 63.472656 L 85.976562 70.058594 C 86.621094 70.421875 87.375 70.507812 88.105469 70.300781 C 88.859375 70.089844 89.476562 69.597656 89.851562 68.917969 C 90.601562 67.554688 90.082031 65.804688 88.695312 65.011719 L 72.433594 55.742188 C 69.71875 54.195312 66.296875 55.585938 62.328125 57.191406 C 59.320312 58.410156 55.945312 59.773438 52.523438 59.773438 C 49.027344 59.773438 45.480469 58.34375 42.226562 53.863281 C 41.921875 53.441406 41.808594 52.910156 41.917969 52.398438 C 42.027344 51.890625 42.347656 51.449219 42.800781 51.191406 C 47.617188 48.433594 51.660156 45.414062 54.824219 42.21875 C 55.574219 41.460938 56.328125 40.757812 57.09375 40.113281 C 53.664062 38.671875 50.722656 39.363281 47.640625 40.089844 C 44.511719 40.832031 41.273438 41.597656 37.941406 39.753906 L 28.855469 35.566406 L 19.144531 56.226562 C 19.261719 56.277344 19.382812 56.332031 19.511719 56.390625 Z M 19.511719 56.390625 " fill-opacity="1" fill-rule="nonzero"/></g><g fill="#362c5d" fill-opacity="1"><g transform="translate(38.237943, 69.71294)"><g><path d="M 0.59375 -0.734375 C 0.59375 -1.015625 0.664062 -1.226562 0.8125 -1.375 C 0.96875 -1.519531 1.191406 -1.59375 1.484375 -1.59375 C 1.765625 -1.59375 1.984375 -1.515625 2.140625 -1.359375 C 2.296875 -1.210938 2.375 -1.003906 2.375 -0.734375 C 2.375 -0.460938 2.296875 -0.25 2.140625 -0.09375 C 1.984375 0.0625 1.765625 0.140625 1.484375 0.140625 C 1.203125 0.140625 0.984375 0.0664062 0.828125 -0.078125 C 0.671875 -0.234375 0.59375 -0.453125 0.59375 -0.734375 Z M 0.59375 -0.734375 "/></g></g></g></svg>