<svg xmlns="http://www.w3.org/2000/svg" xmlns:xlink="http://www.w3.org/1999/xlink" width="257" zoomAndPan="magnify" viewBox="0 0 192.75 191.999996" height="256" preserveAspectRatio="xMidYMid meet" version="1.0"><defs><g/><clipPath id="079af009a5"><path d="M 0.398438 1 L 189 1 L 189 191 L 0.398438 191 Z M 0.398438 1 " clip-rule="nonzero"/></clipPath></defs><g clip-path="url(#079af009a5)"><path fill="#e2eaff" d="M 127.730469 1.335938 C 122.761719 1.355469 117.871094 1.980469 113.0625 3.210938 C 107.90625 1.960938 102.679688 1.335938 97.378906 1.335938 L 81.273438 1.335938 C 80.203125 1.335938 79.132812 1.363281 78.0625 1.417969 C 76.992188 1.46875 75.925781 1.550781 74.859375 1.65625 C 73.796875 1.761719 72.734375 1.894531 71.675781 2.050781 C 70.613281 2.210938 69.558594 2.394531 68.511719 2.605469 C 67.460938 2.8125 66.414062 3.050781 65.378906 3.308594 C 64.339844 3.570312 63.308594 3.859375 62.28125 4.167969 C 61.257812 4.480469 60.242188 4.816406 59.234375 5.179688 C 58.226562 5.539062 57.226562 5.925781 56.238281 6.335938 C 55.25 6.746094 54.269531 7.179688 53.304688 7.640625 C 52.335938 8.097656 51.378906 8.578125 50.4375 9.085938 C 49.492188 9.589844 48.558594 10.117188 47.640625 10.667969 C 46.722656 11.21875 45.820312 11.792969 44.929688 12.386719 C 44.039062 12.984375 43.164062 13.597656 42.304688 14.238281 C 41.445312 14.875 40.601562 15.535156 39.773438 16.214844 C 38.945312 16.894531 38.136719 17.59375 37.339844 18.3125 C 36.546875 19.03125 35.773438 19.769531 35.015625 20.527344 C 34.257812 21.28125 33.519531 22.058594 32.800781 22.851562 C 32.082031 23.644531 31.382812 24.457031 30.703125 25.285156 C 30.023438 26.109375 29.367188 26.953125 28.726562 27.816406 C 28.089844 28.675781 27.472656 29.550781 26.878906 30.441406 C 26.28125 31.328125 25.710938 32.234375 25.160156 33.152344 C 24.609375 34.070312 24.078125 35 23.574219 35.945312 C 23.070312 36.890625 22.585938 37.847656 22.128906 38.8125 C 21.671875 39.78125 21.238281 40.761719 20.828125 41.75 C 20.414062 42.738281 20.03125 43.738281 19.667969 44.746094 C 19.308594 45.753906 18.972656 46.769531 18.660156 47.792969 C 18.347656 48.816406 18.0625 49.847656 17.800781 50.886719 C 17.539062 51.925781 17.304688 52.96875 17.09375 54.019531 C 16.882812 55.070312 16.699219 56.125 16.542969 57.183594 C 16.382812 58.242188 16.253906 59.304688 16.144531 60.371094 C 16.039062 61.4375 15.960938 62.503906 15.90625 63.574219 C 15.851562 64.644531 15.824219 65.710938 15.824219 66.785156 C 15.828125 70 16.546875 73.050781 17.984375 75.929688 C 18.308594 76.574219 18.539062 77.253906 18.683594 77.960938 C 18.828125 78.671875 18.878906 79.382812 18.832031 80.105469 C 18.789062 80.828125 18.648438 81.53125 18.417969 82.214844 C 18.1875 82.898438 17.871094 83.542969 17.46875 84.144531 L 2.3125 106.886719 C 1.9375 107.453125 1.621094 108.054688 1.371094 108.6875 C 1.121094 109.320312 0.9375 109.972656 0.828125 110.644531 C 0.714844 111.316406 0.675781 111.992188 0.707031 112.671875 C 0.738281 113.351562 0.84375 114.019531 1.015625 114.675781 C 1.191406 115.335938 1.433594 115.96875 1.742188 116.574219 C 2.050781 117.179688 2.421875 117.746094 2.851562 118.277344 C 3.28125 118.804688 3.761719 119.28125 4.292969 119.707031 C 4.824219 120.132812 5.394531 120.496094 6.003906 120.800781 L 12.800781 124.183594 L 12.800781 134.410156 C 12.796875 134.988281 12.945312 135.519531 13.246094 136.011719 C 13.546875 136.5 13.957031 136.875 14.472656 137.132812 L 15.421875 137.609375 C 15.183594 137.824219 14.957031 138.050781 14.746094 138.292969 C 14.535156 138.535156 14.339844 138.789062 14.160156 139.058594 C 13.980469 139.324219 13.816406 139.597656 13.671875 139.886719 C 13.523438 140.171875 13.394531 140.464844 13.285156 140.765625 C 13.171875 141.070312 13.082031 141.375 13.007812 141.6875 C 12.933594 142 12.882812 142.316406 12.847656 142.636719 C 12.8125 142.957031 12.796875 143.277344 12.800781 143.597656 C 12.804688 143.921875 12.828125 144.238281 12.871094 144.558594 C 12.914062 144.878906 12.976562 145.191406 13.058594 145.503906 C 13.140625 145.8125 13.238281 146.117188 13.355469 146.417969 C 13.476562 146.714844 13.613281 147.007812 13.765625 147.289062 C 13.917969 147.570312 14.089844 147.84375 14.277344 148.105469 C 14.464844 148.367188 14.664062 148.613281 14.882812 148.851562 C 15.101562 149.089844 15.332031 149.3125 15.574219 149.519531 C 15.820312 149.730469 16.074219 149.921875 16.34375 150.101562 C 16.609375 150.277344 16.886719 150.4375 17.175781 150.582031 C 17.6875 150.835938 18.09375 151.203125 18.394531 151.6875 C 18.695312 152.171875 18.847656 152.699219 18.847656 153.269531 L 18.847656 159.695312 C 18.847656 160.210938 18.878906 160.730469 18.933594 161.242188 C 18.992188 161.757812 19.078125 162.265625 19.191406 162.773438 C 19.304688 163.277344 19.445312 163.773438 19.613281 164.261719 C 19.78125 164.75 19.976562 165.230469 20.199219 165.699219 C 20.417969 166.164062 20.667969 166.621094 20.9375 167.058594 C 21.210938 167.5 21.503906 167.925781 21.824219 168.332031 C 22.140625 168.742188 22.480469 169.128906 22.84375 169.5 C 23.203125 169.871094 23.585938 170.21875 23.984375 170.546875 C 24.386719 170.875 24.804688 171.179688 25.238281 171.460938 C 25.671875 171.742188 26.117188 172 26.582031 172.234375 C 27.042969 172.464844 27.515625 172.671875 28.003906 172.851562 C 28.488281 173.03125 28.980469 173.183594 29.484375 173.308594 C 29.984375 173.433594 30.492188 173.53125 31.003906 173.601562 C 31.519531 173.671875 32.035156 173.710938 32.550781 173.722656 C 33.066406 173.738281 33.585938 173.71875 34.101562 173.675781 C 34.617188 173.632812 35.125 173.558594 35.632812 173.457031 L 47.773438 171.035156 C 48.554688 170.886719 49.347656 170.792969 50.144531 170.753906 C 50.941406 170.714844 51.738281 170.730469 52.53125 170.804688 C 53.324219 170.878906 54.113281 171.011719 54.886719 171.195312 C 55.664062 171.382812 56.425781 171.621094 57.167969 171.914062 C 57.910156 172.207031 58.625 172.550781 59.320312 172.945312 C 60.015625 173.339844 60.675781 173.78125 61.308594 174.269531 C 61.9375 174.761719 62.53125 175.289062 63.089844 175.863281 C 63.644531 176.4375 64.15625 177.046875 64.625 177.691406 L 73.851562 190.605469 L 78.773438 187.089844 L 69.546875 174.171875 C 68.910156 173.292969 68.210938 172.460938 67.453125 171.679688 C 66.699219 170.898438 65.890625 170.175781 65.03125 169.507812 C 64.171875 168.839844 63.269531 168.238281 62.324219 167.699219 C 61.378906 167.160156 60.398438 166.691406 59.386719 166.292969 C 58.375 165.890625 57.34375 165.566406 56.285156 165.3125 C 55.226562 165.058594 54.15625 164.882812 53.070312 164.78125 C 51.988281 164.683594 50.90625 164.65625 49.816406 164.710938 C 48.730469 164.765625 47.652344 164.894531 46.585938 165.101562 L 34.441406 167.519531 C 33.929688 167.625 33.40625 167.679688 32.882812 167.679688 C 32.359375 167.679688 31.839844 167.628906 31.324219 167.523438 C 30.8125 167.421875 30.3125 167.269531 29.828125 167.070312 C 29.34375 166.867188 28.882812 166.621094 28.449219 166.332031 C 28.011719 166.039062 27.609375 165.710938 27.238281 165.339844 C 26.867188 164.96875 26.539062 164.566406 26.246094 164.128906 C 25.953125 163.695312 25.707031 163.234375 25.507812 162.75 C 25.308594 162.265625 25.15625 161.765625 25.050781 161.253906 C 24.949219 160.738281 24.898438 160.21875 24.898438 159.695312 L 24.898438 153.269531 C 24.902344 152.429688 24.789062 151.601562 24.558594 150.789062 C 24.328125 149.976562 23.992188 149.214844 23.550781 148.496094 C 23.105469 147.777344 22.574219 147.136719 21.949219 146.570312 C 21.324219 146 20.636719 145.53125 19.878906 145.15625 C 19.5625 145 19.3125 144.769531 19.125 144.46875 C 18.9375 144.167969 18.84375 143.839844 18.84375 143.484375 C 18.84375 143.128906 18.9375 142.800781 19.125 142.5 C 19.3125 142.199219 19.5625 141.96875 19.878906 141.8125 L 23.207031 140.140625 C 23.71875 139.886719 24.128906 139.515625 24.429688 139.027344 C 24.730469 138.539062 24.882812 138.007812 24.882812 137.433594 C 24.882812 136.863281 24.730469 136.332031 24.429688 135.84375 C 24.128906 135.355469 23.71875 134.984375 23.207031 134.726562 L 18.847656 132.542969 L 18.847656 122.3125 C 18.851562 121.738281 18.703125 121.203125 18.402344 120.714844 C 18.097656 120.222656 17.691406 119.847656 17.175781 119.589844 L 8.707031 115.355469 C 8.484375 115.242188 8.273438 115.109375 8.074219 114.953125 C 7.878906 114.792969 7.703125 114.617188 7.542969 114.421875 C 7.386719 114.226562 7.25 114.019531 7.136719 113.792969 C 7.019531 113.570312 6.933594 113.335938 6.867188 113.09375 C 6.804688 112.851562 6.765625 112.601562 6.753906 112.351562 C 6.742188 112.101562 6.757812 111.851562 6.796875 111.601562 C 6.839844 111.355469 6.90625 111.113281 7 110.878906 C 7.089844 110.644531 7.207031 110.425781 7.347656 110.214844 L 22.503906 87.5 C 23.199219 86.457031 23.746094 85.339844 24.148438 84.148438 C 24.550781 82.957031 24.789062 81.734375 24.867188 80.480469 C 24.945312 79.226562 24.859375 77.984375 24.605469 76.753906 C 24.355469 75.523438 23.949219 74.347656 23.386719 73.222656 C 22.378906 71.195312 21.875 69.046875 21.871094 66.785156 C 21.875 64.839844 21.972656 62.898438 22.164062 60.964844 C 22.359375 59.027344 22.644531 57.105469 23.027344 55.199219 C 23.40625 53.292969 23.878906 51.410156 24.445312 49.546875 C 25.011719 47.6875 25.667969 45.859375 26.414062 44.0625 C 27.160156 42.265625 27.988281 40.511719 28.90625 38.796875 C 29.824219 37.082031 30.824219 35.414062 31.90625 33.800781 C 32.984375 32.183594 34.144531 30.621094 35.378906 29.117188 C 36.613281 27.617188 37.917969 26.175781 39.292969 24.800781 C 40.667969 23.425781 42.105469 22.121094 43.609375 20.886719 C 45.113281 19.652344 46.671875 18.496094 48.289062 17.414062 C 49.90625 16.335938 51.570312 15.335938 53.285156 14.417969 C 55 13.5 56.757812 12.667969 58.554688 11.921875 C 60.347656 11.179688 62.175781 10.523438 64.039062 9.957031 C 65.898438 9.390625 67.78125 8.917969 69.691406 8.535156 C 71.597656 8.15625 73.519531 7.867188 75.453125 7.675781 C 77.390625 7.484375 79.328125 7.386719 81.273438 7.382812 L 97.378906 7.382812 C 98.679688 7.382812 99.980469 7.429688 101.273438 7.511719 C 99.644531 8.296875 98.050781 9.152344 96.496094 10.082031 C 94.941406 11.007812 93.429688 12.003906 91.964844 13.070312 C 90.5 14.132812 89.085938 15.261719 87.722656 16.453125 C 86.359375 17.644531 85.054688 18.894531 83.800781 20.203125 C 82.550781 21.511719 81.363281 22.875 80.234375 24.292969 C 79.105469 25.707031 78.042969 27.171875 77.046875 28.683594 C 76.050781 30.195312 75.121094 31.75 74.265625 33.34375 C 73.410156 34.9375 72.625 36.570312 71.914062 38.234375 C 71.203125 39.898438 70.570312 41.59375 70.011719 43.316406 C 69.453125 45.039062 68.976562 46.78125 68.574219 48.546875 C 68.171875 50.316406 67.851562 52.09375 67.609375 53.890625 C 67.371094 55.683594 67.210938 57.484375 67.128906 59.292969 C 67.050781 61.101562 67.054688 62.914062 67.136719 64.722656 C 67.222656 66.53125 67.386719 68.332031 67.632812 70.125 C 67.878906 71.917969 68.203125 73.699219 68.609375 75.460938 C 69.015625 77.226562 69.5 78.96875 70.0625 80.691406 C 70.625 82.410156 71.265625 84.105469 71.980469 85.769531 C 72.695312 87.429688 73.480469 89.058594 74.34375 90.652344 C 75.203125 92.246094 76.136719 93.796875 77.136719 95.304688 C 78.136719 96.8125 79.203125 98.273438 80.335938 99.6875 C 81.46875 101.101562 82.660156 102.460938 83.914062 103.765625 C 85.171875 105.070312 86.480469 106.316406 87.847656 107.503906 C 89.214844 108.695312 90.632812 109.816406 92.097656 110.878906 C 93.566406 111.9375 95.078125 112.929688 96.636719 113.855469 C 98.191406 114.777344 99.789062 115.632812 101.421875 116.414062 C 103.054688 117.191406 104.722656 117.898438 106.417969 118.53125 C 108.117188 119.160156 109.835938 119.714844 111.585938 120.191406 C 113.332031 120.667969 115.097656 121.0625 116.878906 121.378906 C 118.660156 121.699219 120.453125 121.933594 122.257812 122.089844 C 124.0625 122.246094 125.871094 122.320312 127.679688 122.316406 C 129.492188 122.308594 131.296875 122.21875 133.101562 122.050781 C 134.902344 121.882812 136.695312 121.632812 138.476562 121.300781 L 137.316406 123.621094 C 136.335938 125.582031 135.554688 127.621094 134.976562 129.734375 C 134.398438 131.851562 134.03125 134 133.875 136.1875 C 133.71875 138.375 133.777344 140.558594 134.050781 142.730469 C 134.324219 144.90625 134.808594 147.035156 135.503906 149.117188 L 149.066406 189.808594 L 154.8125 187.894531 L 141.230469 147.203125 C 140.664062 145.5 140.265625 143.757812 140.042969 141.976562 C 139.820312 140.195312 139.769531 138.410156 139.898438 136.617188 C 140.023438 134.828125 140.324219 133.066406 140.800781 131.335938 C 141.273438 129.605469 141.914062 127.9375 142.714844 126.332031 L 146.179688 119.414062 C 147.878906 118.871094 149.550781 118.25 151.191406 117.558594 C 152.835938 116.863281 154.449219 116.097656 156.023438 115.261719 C 157.601562 114.425781 159.136719 113.523438 160.632812 112.550781 C 162.128906 111.578125 163.578125 110.542969 164.984375 109.441406 C 166.390625 108.339844 167.742188 107.179688 169.042969 105.960938 C 170.347656 104.742188 171.59375 103.464844 172.78125 102.136719 C 173.96875 100.804688 175.097656 99.425781 176.164062 97.992188 C 177.230469 96.5625 178.234375 95.089844 179.171875 93.570312 C 180.105469 92.050781 180.976562 90.496094 181.773438 88.898438 C 182.570312 87.304688 183.296875 85.675781 183.953125 84.015625 C 184.609375 82.355469 185.1875 80.667969 185.695312 78.957031 C 186.199219 77.246094 186.628906 75.515625 186.980469 73.769531 C 187.332031 72.019531 187.605469 70.257812 187.804688 68.484375 C 188 66.710938 188.117188 64.929688 188.15625 63.148438 C 188.195312 61.363281 188.15625 59.582031 188.039062 57.800781 C 187.917969 56.019531 187.722656 54.25 187.445312 52.484375 C 187.171875 50.722656 186.816406 48.976562 186.386719 47.242188 C 185.957031 45.511719 185.453125 43.800781 184.871094 42.117188 C 184.289062 40.429688 183.632812 38.769531 182.90625 37.140625 C 182.179688 35.511719 181.378906 33.917969 180.511719 32.359375 C 179.640625 30.800781 178.707031 29.285156 177.703125 27.808594 C 176.699219 26.332031 175.632812 24.90625 174.503906 23.523438 C 173.371094 22.144531 172.183594 20.816406 170.9375 19.539062 C 169.6875 18.261719 168.386719 17.042969 167.03125 15.882812 C 165.675781 14.722656 164.273438 13.625 162.820312 12.585938 C 161.367188 11.550781 159.875 10.582031 158.335938 9.675781 C 156.796875 8.773438 155.222656 7.9375 153.609375 7.171875 C 151.996094 6.40625 150.355469 5.714844 148.679688 5.097656 C 147.007812 4.476562 145.308594 3.933594 143.589844 3.464844 C 141.867188 2.992188 140.128906 2.601562 138.371094 2.285156 C 136.617188 1.972656 134.847656 1.734375 133.070312 1.574219 C 131.292969 1.414062 129.515625 1.335938 127.730469 1.335938 Z M 127.730469 116.265625 C 125.945312 116.265625 124.167969 116.175781 122.394531 116 C 120.617188 115.828125 118.855469 115.566406 117.109375 115.21875 C 115.359375 114.871094 113.632812 114.4375 111.925781 113.917969 C 110.21875 113.402344 108.542969 112.800781 106.894531 112.121094 C 105.25 111.4375 103.640625 110.675781 102.066406 109.835938 C 100.492188 108.996094 98.964844 108.078125 97.484375 107.089844 C 96 106.097656 94.570312 105.039062 93.191406 103.90625 C 91.816406 102.777344 90.496094 101.578125 89.234375 100.320312 C 87.972656 99.058594 86.777344 97.738281 85.644531 96.359375 C 84.515625 94.980469 83.453125 93.550781 82.464844 92.070312 C 81.472656 90.585938 80.558594 89.058594 79.71875 87.488281 C 78.875 85.914062 78.117188 84.304688 77.433594 82.65625 C 76.75 81.007812 76.152344 79.332031 75.632812 77.625 C 75.117188 75.921875 74.683594 74.191406 74.335938 72.445312 C 73.988281 70.695312 73.726562 68.933594 73.550781 67.160156 C 73.375 65.386719 73.289062 63.605469 73.289062 61.824219 C 73.289062 60.039062 73.375 58.261719 73.550781 56.488281 C 73.726562 54.714844 73.988281 52.953125 74.335938 51.203125 C 74.683594 49.453125 75.117188 47.726562 75.632812 46.019531 C 76.152344 44.3125 76.75 42.636719 77.433594 40.988281 C 78.117188 39.34375 78.875 37.734375 79.71875 36.160156 C 80.558594 34.589844 81.472656 33.058594 82.464844 31.578125 C 83.453125 30.09375 84.515625 28.664062 85.644531 27.285156 C 86.777344 25.910156 87.972656 24.589844 89.234375 23.328125 C 90.496094 22.066406 91.816406 20.871094 93.191406 19.742188 C 94.570312 18.609375 96 17.546875 97.484375 16.558594 C 98.964844 15.566406 100.492188 14.652344 102.066406 13.8125 C 103.640625 12.972656 105.25 12.210938 106.894531 11.527344 C 108.542969 10.84375 110.21875 10.246094 111.925781 9.726562 C 113.632812 9.210938 115.359375 8.777344 117.109375 8.429688 C 118.855469 8.082031 120.617188 7.820312 122.394531 7.644531 C 124.167969 7.46875 125.945312 7.382812 127.730469 7.382812 C 129.511719 7.382812 131.292969 7.46875 133.066406 7.644531 C 134.839844 7.820312 136.601562 8.082031 138.351562 8.429688 C 140.097656 8.777344 141.828125 9.210938 143.53125 9.726562 C 145.238281 10.246094 146.914062 10.84375 148.5625 11.527344 C 150.210938 12.210938 151.820312 12.972656 153.390625 13.8125 C 154.964844 14.652344 156.492188 15.566406 157.976562 16.558594 C 159.457031 17.546875 160.886719 18.609375 162.265625 19.742188 C 163.644531 20.871094 164.964844 22.066406 166.222656 23.328125 C 167.484375 24.589844 168.679688 25.910156 169.8125 27.285156 C 170.945312 28.664062 172.003906 30.09375 172.996094 31.578125 C 173.984375 33.058594 174.902344 34.589844 175.742188 36.160156 C 176.582031 37.734375 177.34375 39.34375 178.027344 40.988281 C 178.707031 42.636719 179.308594 44.3125 179.824219 46.019531 C 180.34375 47.726562 180.777344 49.453125 181.125 51.203125 C 181.472656 52.953125 181.734375 54.714844 181.90625 56.488281 C 182.082031 58.261719 182.167969 60.039062 182.167969 61.824219 C 182.167969 63.605469 182.078125 65.382812 181.902344 67.15625 C 181.726562 68.929688 181.460938 70.691406 181.113281 72.441406 C 180.765625 74.1875 180.328125 75.914062 179.8125 77.621094 C 179.292969 79.324219 178.691406 81 178.007812 82.648438 C 177.324219 84.292969 176.5625 85.902344 175.722656 87.472656 C 174.882812 89.046875 173.964844 90.570312 172.976562 92.054688 C 171.984375 93.535156 170.925781 94.964844 169.792969 96.34375 C 168.660156 97.722656 167.464844 99.039062 166.207031 100.300781 C 164.945312 101.558594 163.625 102.757812 162.25 103.886719 C 160.871094 105.019531 159.441406 106.078125 157.960938 107.070312 C 156.476562 108.058594 154.953125 108.976562 153.378906 109.816406 C 151.808594 110.65625 150.199219 111.417969 148.554688 112.101562 C 146.90625 112.785156 145.230469 113.386719 143.527344 113.90625 C 141.820312 114.425781 140.09375 114.859375 138.347656 115.207031 C 136.597656 115.554688 134.835938 115.820312 133.0625 115.996094 C 131.289062 116.171875 129.511719 116.261719 127.730469 116.265625 Z M 127.730469 116.265625 " fill-opacity="1" fill-rule="nonzero"/></g><path fill="#e2eaff" d="M 127.730469 13.433594 C 126.144531 13.433594 124.5625 13.507812 122.984375 13.664062 C 121.410156 13.820312 119.84375 14.050781 118.289062 14.363281 C 116.734375 14.671875 115.199219 15.054688 113.683594 15.515625 C 112.164062 15.976562 110.675781 16.507812 109.210938 17.117188 C 107.746094 17.722656 106.316406 18.398438 104.917969 19.144531 C 103.519531 19.894531 102.164062 20.707031 100.84375 21.585938 C 99.527344 22.46875 98.253906 23.410156 97.03125 24.417969 C 95.804688 25.421875 94.632812 26.484375 93.511719 27.605469 C 92.390625 28.726562 91.328125 29.898438 90.320312 31.125 C 89.316406 32.347656 88.375 33.621094 87.492188 34.9375 C 86.613281 36.257812 85.800781 37.613281 85.050781 39.011719 C 84.304688 40.410156 83.628906 41.839844 83.019531 43.304688 C 82.414062 44.769531 81.882812 46.257812 81.421875 47.777344 C 80.960938 49.292969 80.578125 50.828125 80.269531 52.382812 C 79.957031 53.9375 79.726562 55.503906 79.570312 57.082031 C 79.414062 58.65625 79.339844 60.238281 79.339844 61.824219 C 79.339844 63.410156 79.414062 64.988281 79.570312 66.566406 C 79.726562 68.144531 79.957031 69.710938 80.269531 71.265625 C 80.578125 72.820312 80.960938 74.355469 81.421875 75.871094 C 81.882812 77.386719 82.414062 78.878906 83.019531 80.34375 C 83.628906 81.804688 84.304688 83.238281 85.050781 84.636719 C 85.800781 86.03125 86.613281 87.390625 87.492188 88.707031 C 88.375 90.027344 89.316406 91.296875 90.320312 92.523438 C 91.328125 93.746094 92.390625 94.921875 93.511719 96.042969 C 94.632812 97.164062 95.804688 98.226562 97.03125 99.230469 C 98.253906 100.234375 99.527344 101.179688 100.84375 102.058594 C 102.164062 102.941406 103.519531 103.753906 104.917969 104.5 C 106.316406 105.25 107.746094 105.925781 109.210938 106.53125 C 110.675781 107.136719 112.164062 107.671875 113.683594 108.132812 C 115.199219 108.589844 116.734375 108.976562 118.289062 109.285156 C 119.84375 109.59375 121.410156 109.828125 122.984375 109.980469 C 124.5625 110.136719 126.144531 110.214844 127.730469 110.214844 C 129.3125 110.214844 130.894531 110.136719 132.472656 109.980469 C 134.050781 109.828125 135.617188 109.59375 137.171875 109.285156 C 138.722656 108.976562 140.261719 108.589844 141.777344 108.132812 C 143.292969 107.671875 144.785156 107.136719 146.246094 106.53125 C 147.710938 105.925781 149.144531 105.25 150.539062 104.5 C 151.9375 103.753906 153.296875 102.941406 154.613281 102.058594 C 155.933594 101.179688 157.203125 100.234375 158.429688 99.230469 C 159.652344 98.226562 160.828125 97.164062 161.949219 96.042969 C 163.066406 94.921875 164.132812 93.746094 165.136719 92.523438 C 166.140625 91.296875 167.085938 90.027344 167.964844 88.707031 C 168.847656 87.390625 169.660156 86.03125 170.40625 84.636719 C 171.152344 83.238281 171.832031 81.804688 172.4375 80.34375 C 173.042969 78.878906 173.578125 77.386719 174.039062 75.871094 C 174.496094 74.355469 174.882812 72.820312 175.191406 71.265625 C 175.5 69.710938 175.734375 68.144531 175.886719 66.566406 C 176.042969 64.988281 176.121094 63.410156 176.121094 61.824219 C 176.117188 60.238281 176.039062 58.660156 175.882812 57.082031 C 175.726562 55.503906 175.492188 53.941406 175.179688 52.386719 C 174.871094 50.832031 174.484375 49.296875 174.023438 47.78125 C 173.5625 46.265625 173.027344 44.777344 172.421875 43.3125 C 171.816406 41.851562 171.136719 40.421875 170.390625 39.023438 C 169.640625 37.625 168.828125 36.269531 167.949219 34.953125 C 167.066406 33.636719 166.125 32.363281 165.117188 31.140625 C 164.113281 29.914062 163.050781 28.742188 161.929688 27.621094 C 160.808594 26.503906 159.636719 25.4375 158.414062 24.433594 C 157.1875 23.429688 155.917969 22.484375 154.601562 21.605469 C 153.285156 20.722656 151.925781 19.910156 150.53125 19.164062 C 149.132812 18.414062 147.703125 17.738281 146.238281 17.132812 C 144.777344 16.523438 143.285156 15.988281 141.769531 15.527344 C 140.253906 15.066406 138.71875 14.683594 137.167969 14.371094 C 135.613281 14.0625 134.046875 13.828125 132.472656 13.671875 C 130.894531 13.511719 129.3125 13.433594 127.730469 13.433594 Z M 169.917969 64.847656 C 169.597656 69.402344 168.5625 73.792969 166.8125 78.011719 C 165.0625 82.230469 162.6875 86.0625 159.691406 89.507812 L 155.53125 85.347656 L 151.253906 89.625 L 155.414062 93.785156 C 151.96875 96.78125 148.136719 99.15625 143.917969 100.90625 C 139.699219 102.65625 135.308594 103.691406 130.753906 104.011719 L 130.753906 98.117188 L 124.703125 98.117188 L 124.703125 104.011719 C 120.148438 103.691406 115.761719 102.65625 111.542969 100.90625 C 107.324219 99.15625 103.488281 96.78125 100.042969 93.785156 L 104.203125 89.625 L 99.929688 85.347656 L 95.765625 89.507812 C 92.769531 86.0625 90.398438 82.230469 88.648438 78.011719 C 86.898438 73.792969 85.863281 69.402344 85.542969 64.847656 L 91.4375 64.847656 L 91.4375 58.800781 L 85.542969 58.800781 C 85.863281 54.242188 86.898438 49.855469 88.648438 45.636719 C 90.398438 41.417969 92.769531 37.585938 95.765625 34.136719 L 99.929688 38.300781 L 104.203125 34.023438 L 100.042969 29.859375 C 103.488281 26.863281 107.324219 24.492188 111.542969 22.742188 C 115.761719 20.992188 120.148438 19.957031 124.703125 19.636719 L 124.703125 25.53125 L 130.753906 25.53125 L 130.753906 19.636719 C 135.308594 19.957031 139.699219 20.992188 143.917969 22.742188 C 148.136719 24.492188 151.96875 26.863281 155.414062 29.859375 L 151.253906 34.023438 L 155.53125 38.300781 L 159.691406 34.136719 C 162.6875 37.585938 165.0625 41.417969 166.8125 45.636719 C 168.5625 49.855469 169.597656 54.242188 169.917969 58.800781 L 164.023438 58.800781 L 164.023438 64.847656 Z M 169.917969 64.847656 " fill-opacity="1" fill-rule="nonzero"/><path fill="#e2eaff" d="M 130.753906 31.578125 L 124.703125 31.578125 L 124.703125 61.824219 C 124.707031 62.660156 125 63.371094 125.589844 63.960938 L 146.761719 85.132812 L 151.039062 80.855469 L 130.753906 60.570312 Z M 130.753906 31.578125 " fill-opacity="1" fill-rule="nonzero"/><g fill="#e2eaff" fill-opacity="1"><g transform="translate(18.026213, 161.237653)"><g><path d="M 1.03125 -1.25 C 1.03125 -1.75 1.160156 -2.125 1.421875 -2.375 C 1.679688 -2.625 2.066406 -2.75 2.578125 -2.75 C 3.054688 -2.75 3.425781 -2.617188 3.6875 -2.359375 C 3.957031 -2.097656 4.09375 -1.726562 4.09375 -1.25 C 4.09375 -0.789062 3.957031 -0.425781 3.6875 -0.15625 C 3.425781 0.101562 3.054688 0.234375 2.578125 0.234375 C 2.078125 0.234375 1.691406 0.101562 1.421875 -0.15625 C 1.160156 -0.414062 1.03125 -0.78125 1.03125 -1.25 Z M 1.03125 -1.25 "/></g></g></g></svg>