<svg xmlns="http://www.w3.org/2000/svg" xmlns:xlink="http://www.w3.org/1999/xlink" width="162" zoomAndPan="magnify" viewBox="0 0 121.5 122.249994" height="163" preserveAspectRatio="xMidYMid meet" version="1.0"><defs><g/><clipPath id="0b93d31402"><path d="M 8 0.0703125 L 120 0.0703125 L 120 111 L 8 111 Z M 8 0.0703125 " clip-rule="nonzero"/></clipPath><clipPath id="b04a1a5946"><path d="M 0.417969 0.0703125 L 120 0.0703125 L 120 118.59375 L 0.417969 118.59375 Z M 0.417969 0.0703125 " clip-rule="nonzero"/></clipPath></defs><g clip-path="url(#0b93d31402)"><path fill="#362c5d" d="M 113.273438 11.988281 C 113.664062 11.988281 114.046875 11.949219 114.429688 11.871094 C 114.8125 11.796875 115.183594 11.683594 115.542969 11.535156 C 115.902344 11.386719 116.246094 11.203125 116.570312 10.988281 C 116.894531 10.769531 117.191406 10.523438 117.46875 10.25 C 117.742188 9.972656 117.988281 9.671875 118.207031 9.351562 C 118.421875 9.027344 118.605469 8.683594 118.753906 8.324219 C 118.902344 7.964844 119.015625 7.59375 119.09375 7.210938 C 119.167969 6.828125 119.207031 6.441406 119.207031 6.054688 C 119.207031 5.664062 119.167969 5.277344 119.09375 4.894531 C 119.015625 4.515625 118.902344 4.144531 118.753906 3.78125 C 118.605469 3.421875 118.421875 3.082031 118.207031 2.757812 C 117.988281 2.433594 117.742188 2.132812 117.46875 1.859375 C 117.191406 1.582031 116.894531 1.335938 116.570312 1.121094 C 116.246094 0.902344 115.902344 0.722656 115.542969 0.570312 C 115.183594 0.421875 114.8125 0.308594 114.429688 0.234375 C 114.046875 0.160156 113.664062 0.121094 113.273438 0.121094 C 109.636719 0.0820312 106.738281 3.523438 107.445312 7.097656 L 89.441406 17.398438 C 88.335938 16.433594 87.050781 15.945312 85.585938 15.941406 C 84.964844 15.941406 84.363281 16.03125 83.769531 16.21875 C 83.179688 16.40625 82.632812 16.679688 82.128906 17.042969 C 81.625 17.402344 81.1875 17.828125 80.820312 18.328125 C 80.449219 18.824219 80.164062 19.367188 79.964844 19.953125 C 79.765625 20.539062 79.664062 21.140625 79.652344 21.761719 C 79.644531 22.378906 79.730469 22.984375 79.910156 23.578125 C 80.089844 24.171875 80.359375 24.71875 80.710938 25.230469 C 81.066406 25.738281 81.488281 26.179688 81.980469 26.554688 L 73.359375 53.152344 L 66.054688 37.929688 C 66.316406 37.671875 66.546875 37.398438 66.757812 37.097656 C 66.964844 36.800781 67.144531 36.488281 67.292969 36.15625 C 67.445312 35.824219 67.5625 35.484375 67.652344 35.132812 C 67.738281 34.777344 67.792969 34.421875 67.816406 34.058594 C 67.839844 33.695312 67.828125 33.335938 67.785156 32.972656 C 67.738281 32.613281 67.664062 32.257812 67.554688 31.914062 C 67.445312 31.566406 67.304688 31.230469 67.136719 30.910156 C 66.964844 30.589844 66.769531 30.285156 66.542969 30 C 66.316406 29.71875 66.070312 29.453125 65.796875 29.214844 C 65.523438 28.976562 65.230469 28.765625 64.917969 28.578125 C 64.605469 28.394531 64.277344 28.238281 63.9375 28.109375 C 63.597656 27.984375 63.246094 27.890625 62.890625 27.828125 C 62.53125 27.769531 62.171875 27.738281 61.808594 27.742188 C 61.445312 27.746094 61.082031 27.785156 60.726562 27.855469 C 60.371094 27.925781 60.023438 28.027344 59.6875 28.160156 C 59.347656 28.292969 59.027344 28.457031 58.71875 28.652344 C 58.410156 28.84375 58.121094 29.0625 57.855469 29.308594 C 57.585938 29.554688 57.34375 29.820312 57.125 30.113281 C 56.90625 30.402344 56.714844 30.710938 56.554688 31.035156 C 56.390625 31.359375 56.257812 31.695312 56.160156 32.046875 C 56.058594 32.394531 55.992188 32.75 55.953125 33.113281 C 55.917969 33.472656 55.917969 33.835938 55.949219 34.199219 C 55.980469 34.558594 56.042969 34.914062 56.136719 35.265625 C 56.234375 35.617188 56.359375 35.953125 56.519531 36.28125 L 40.664062 52.132812 C 39.726562 51.679688 38.738281 51.488281 37.699219 51.558594 C 36.65625 51.628906 35.703125 51.953125 34.835938 52.527344 L 20.027344 41.429688 C 20.214844 40.859375 20.316406 40.273438 20.324219 39.671875 C 20.324219 39.234375 20.273438 38.800781 20.179688 38.371094 C 20.082031 37.941406 19.941406 37.527344 19.753906 37.132812 C 19.566406 36.734375 19.335938 36.363281 19.066406 36.015625 C 18.796875 35.667969 18.492188 35.355469 18.152344 35.078125 C 17.8125 34.796875 17.445312 34.558594 17.054688 34.363281 C 16.660156 34.164062 16.25 34.011719 15.824219 33.90625 C 15.398438 33.796875 14.964844 33.738281 14.527344 33.726562 C 14.085938 33.714844 13.652344 33.753906 13.222656 33.839844 C 12.789062 33.925781 12.375 34.054688 11.972656 34.234375 C 11.570312 34.410156 11.191406 34.632812 10.839844 34.894531 C 10.484375 35.15625 10.164062 35.453125 9.878906 35.785156 C 9.589844 36.117188 9.34375 36.476562 9.136719 36.863281 C 8.929688 37.25 8.765625 37.65625 8.648438 38.082031 C 8.53125 38.503906 8.460938 38.933594 8.441406 39.375 C 8.417969 39.8125 8.445312 40.25 8.519531 40.683594 C 8.59375 41.117188 8.714844 41.535156 8.882812 41.941406 C 9.050781 42.347656 9.261719 42.730469 9.511719 43.089844 C 9.765625 43.449219 10.054688 43.777344 10.378906 44.074219 C 10.707031 44.367188 11.058594 44.625 11.441406 44.839844 C 11.824219 45.058594 12.226562 45.230469 12.644531 45.359375 C 13.066406 45.488281 13.496094 45.566406 13.933594 45.601562 C 14.371094 45.632812 14.808594 45.617188 15.242188 45.554688 C 15.679688 45.488281 16.101562 45.378906 16.511719 45.21875 C 16.921875 45.0625 17.308594 44.863281 17.675781 44.617188 L 32.484375 55.726562 C 31.199219 59.433594 34.214844 63.484375 38.121094 63.414062 C 42.378906 63.519531 45.40625 58.71875 43.460938 54.941406 L 59.3125 39.089844 C 60.3125 39.59375 61.363281 39.769531 62.472656 39.621094 L 71.59375 58.613281 L 61.707031 89.140625 C 60.660156 89.167969 59.691406 89.457031 58.796875 90 C 57.902344 90.542969 57.203125 91.273438 56.695312 92.191406 L 43.957031 90.070312 C 43.835938 89.386719 43.601562 88.738281 43.253906 88.136719 C 42.90625 87.53125 42.464844 87.003906 41.933594 86.554688 C 41.398438 86.105469 40.804688 85.761719 40.148438 85.519531 C 39.496094 85.28125 38.820312 85.160156 38.121094 85.160156 C 34.457031 85.121094 31.5625 88.609375 32.300781 92.199219 L 18.210938 100.425781 C 17.113281 99.480469 15.839844 99.007812 14.390625 99.003906 C 14 99.003906 13.613281 99.042969 13.230469 99.117188 C 12.851562 99.195312 12.480469 99.304688 12.121094 99.457031 C 11.757812 99.605469 11.417969 99.789062 11.09375 100.003906 C 10.769531 100.21875 10.46875 100.464844 10.195312 100.742188 C 9.917969 101.015625 9.671875 101.316406 9.457031 101.640625 C 9.242188 101.964844 9.058594 102.304688 8.910156 102.667969 C 8.757812 103.027344 8.648438 103.398438 8.570312 103.777344 C 8.496094 104.160156 8.457031 104.546875 8.457031 104.9375 C 8.457031 105.328125 8.496094 105.710938 8.570312 106.09375 C 8.648438 106.476562 8.757812 106.847656 8.910156 107.207031 C 9.058594 107.566406 9.242188 107.910156 9.457031 108.234375 C 9.671875 108.558594 9.917969 108.855469 10.195312 109.132812 C 10.46875 109.40625 10.769531 109.652344 11.09375 109.871094 C 11.417969 110.085938 11.757812 110.269531 12.121094 110.417969 C 12.480469 110.566406 12.851562 110.679688 13.230469 110.753906 C 13.613281 110.832031 14 110.871094 14.390625 110.871094 C 18.054688 110.910156 20.949219 107.421875 20.210938 103.832031 L 34.316406 95.605469 C 34.644531 95.890625 35.003906 96.136719 35.390625 96.339844 C 35.777344 96.546875 36.179688 96.707031 36.601562 96.820312 C 37.027344 96.9375 37.453125 97.003906 37.890625 97.019531 C 38.328125 97.039062 38.761719 97.007812 39.191406 96.929688 C 39.625 96.851562 40.039062 96.726562 40.441406 96.554688 C 40.84375 96.382812 41.222656 96.167969 41.574219 95.910156 C 41.929688 95.652344 42.25 95.359375 42.539062 95.03125 C 42.828125 94.703125 43.074219 94.34375 43.285156 93.960938 L 56.023438 96.078125 C 56.066406 96.316406 56.117188 96.550781 56.1875 96.78125 C 56.253906 97.015625 56.339844 97.242188 56.433594 97.460938 C 56.53125 97.683594 56.640625 97.898438 56.761719 98.105469 C 56.882812 98.3125 57.019531 98.511719 57.164062 98.703125 C 57.3125 98.894531 57.46875 99.078125 57.636719 99.25 C 57.808594 99.421875 57.984375 99.585938 58.175781 99.734375 C 58.363281 99.886719 58.558594 100.023438 58.765625 100.148438 C 58.96875 100.277344 59.183594 100.390625 59.402344 100.492188 C 59.621094 100.589844 59.84375 100.679688 60.074219 100.75 C 60.304688 100.824219 60.539062 100.882812 60.777344 100.929688 C 61.011719 100.972656 61.25 101.003906 61.492188 101.019531 C 61.734375 101.035156 61.972656 101.035156 62.214844 101.023438 C 62.457031 101.007812 62.695312 100.980469 62.933594 100.9375 C 63.167969 100.894531 63.402344 100.835938 63.632812 100.765625 C 63.863281 100.695312 64.089844 100.609375 64.308594 100.507812 C 64.527344 100.410156 64.742188 100.296875 64.949219 100.171875 C 65.15625 100.050781 65.351562 99.910156 65.542969 99.761719 C 65.730469 99.613281 65.910156 99.453125 66.082031 99.28125 C 66.253906 99.113281 66.410156 98.929688 66.558594 98.742188 C 66.707031 98.550781 66.84375 98.351562 66.96875 98.144531 C 67.089844 97.9375 67.203125 97.722656 67.300781 97.503906 C 67.398438 97.28125 67.480469 97.058594 67.550781 96.828125 C 67.621094 96.59375 67.679688 96.363281 67.71875 96.125 C 67.761719 95.886719 67.789062 95.648438 67.800781 95.40625 C 67.8125 95.164062 67.8125 94.925781 67.792969 94.683594 C 67.777344 94.445312 67.746094 94.203125 67.699219 93.96875 C 67.65625 93.730469 67.59375 93.496094 67.519531 93.269531 C 67.445312 93.039062 67.355469 92.816406 67.253906 92.597656 C 67.152344 92.378906 67.039062 92.164062 66.910156 91.960938 C 66.785156 91.757812 66.644531 91.558594 66.492188 91.371094 C 66.339844 91.183594 66.179688 91.007812 66.007812 90.839844 C 65.832031 90.671875 65.648438 90.515625 65.457031 90.367188 L 74.078125 63.773438 L 81.382812 78.996094 C 81.210938 79.167969 81.050781 79.347656 80.902344 79.539062 C 80.753906 79.730469 80.617188 79.933594 80.492188 80.140625 C 80.367188 80.347656 80.257812 80.566406 80.15625 80.785156 C 80.058594 81.007812 79.976562 81.238281 79.90625 81.46875 C 79.835938 81.703125 79.78125 81.9375 79.738281 82.175781 C 79.699219 82.417969 79.671875 82.65625 79.660156 82.898438 C 79.648438 83.140625 79.652344 83.386719 79.667969 83.628906 C 79.6875 83.871094 79.71875 84.109375 79.769531 84.347656 C 79.816406 84.585938 79.878906 84.820312 79.953125 85.050781 C 80.03125 85.28125 80.121094 85.507812 80.226562 85.726562 C 80.328125 85.945312 80.445312 86.15625 80.578125 86.363281 C 80.707031 86.566406 80.847656 86.765625 81.003906 86.953125 C 81.15625 87.140625 81.324219 87.316406 81.5 87.484375 C 81.675781 87.652344 81.859375 87.808594 82.054688 87.953125 C 82.25 88.097656 82.453125 88.226562 82.667969 88.347656 C 82.878906 88.46875 83.09375 88.574219 83.320312 88.667969 C 83.542969 88.757812 83.773438 88.835938 84.007812 88.902344 C 84.242188 88.964844 84.480469 89.015625 84.71875 89.050781 C 84.960938 89.085938 85.203125 89.109375 85.445312 89.113281 C 85.6875 89.121094 85.929688 89.109375 86.171875 89.085938 C 86.414062 89.0625 86.652344 89.023438 86.890625 88.96875 C 87.125 88.917969 87.359375 88.847656 87.585938 88.769531 C 87.816406 88.6875 88.039062 88.589844 88.257812 88.480469 C 88.472656 88.371094 88.683594 88.25 88.882812 88.113281 C 89.085938 87.980469 89.277344 87.832031 89.460938 87.671875 C 89.648438 87.515625 89.820312 87.34375 89.984375 87.164062 C 90.144531 86.984375 90.296875 86.796875 90.4375 86.597656 C 90.578125 86.398438 90.703125 86.191406 90.820312 85.976562 C 90.933594 85.765625 91.035156 85.542969 91.121094 85.316406 C 91.207031 85.089844 91.28125 84.859375 91.339844 84.625 C 91.398438 84.386719 91.445312 84.148438 91.472656 83.910156 C 91.503906 83.667969 91.519531 83.425781 91.519531 83.183594 C 91.511719 82.21875 91.28125 81.3125 90.828125 80.464844 L 110.910156 58.957031 C 111.34375 59.152344 111.792969 59.296875 112.261719 59.386719 C 112.726562 59.476562 113.199219 59.511719 113.675781 59.488281 C 114.148438 59.46875 114.617188 59.394531 115.074219 59.261719 C 115.53125 59.132812 115.96875 58.953125 116.382812 58.71875 C 116.796875 58.484375 117.179688 58.207031 117.527344 57.886719 C 117.878906 57.5625 118.1875 57.203125 118.449219 56.808594 C 118.714844 56.414062 118.933594 55.992188 119.097656 55.546875 C 119.265625 55.101562 119.375 54.640625 119.433594 54.171875 C 119.492188 53.699219 119.496094 53.226562 119.441406 52.753906 C 119.390625 52.28125 119.28125 51.820312 119.121094 51.371094 C 118.960938 50.925781 118.75 50.5 118.488281 50.101562 C 118.230469 49.703125 117.925781 49.34375 117.578125 49.015625 C 117.234375 48.6875 116.855469 48.40625 116.441406 48.167969 C 116.03125 47.929688 115.597656 47.746094 115.140625 47.609375 C 114.683594 47.472656 114.21875 47.394531 113.742188 47.367188 C 113.269531 47.339844 112.796875 47.371094 112.328125 47.453125 C 111.859375 47.539062 111.410156 47.679688 110.972656 47.867188 C 110.539062 48.058594 110.128906 48.300781 109.75 48.585938 C 109.371094 48.875 109.03125 49.199219 108.726562 49.566406 C 108.425781 49.933594 108.167969 50.332031 107.960938 50.757812 C 107.75 51.1875 107.59375 51.632812 107.488281 52.097656 C 107.386719 52.5625 107.335938 53.03125 107.34375 53.507812 C 107.347656 53.980469 107.410156 54.449219 107.527344 54.914062 C 107.644531 55.375 107.8125 55.816406 108.03125 56.238281 L 87.949219 77.742188 C 86.996094 77.3125 86.003906 77.167969 84.96875 77.308594 L 75.847656 58.316406 L 85.734375 27.789062 C 89.292969 27.738281 92.113281 24.347656 91.414062 20.832031 L 109.417969 10.527344 C 110.523438 11.496094 111.804688 11.980469 113.273438 11.988281 Z M 113.273438 4.074219 C 113.535156 4.074219 113.789062 4.125 114.03125 4.226562 C 114.273438 4.328125 114.484375 4.46875 114.671875 4.65625 C 114.855469 4.839844 115 5.054688 115.101562 5.296875 C 115.199219 5.539062 115.25 5.792969 115.25 6.054688 C 115.25 6.316406 115.199219 6.566406 115.101562 6.808594 C 115 7.050781 114.855469 7.265625 114.671875 7.453125 C 114.484375 7.636719 114.273438 7.78125 114.03125 7.878906 C 113.789062 7.980469 113.535156 8.03125 113.273438 8.03125 C 113.011719 8.03125 112.757812 7.980469 112.515625 7.878906 C 112.273438 7.78125 112.058594 7.636719 111.875 7.453125 C 111.6875 7.265625 111.546875 7.050781 111.445312 6.808594 C 111.34375 6.566406 111.296875 6.316406 111.296875 6.054688 C 111.296875 5.792969 111.34375 5.539062 111.445312 5.296875 C 111.546875 5.054688 111.6875 4.839844 111.875 4.65625 C 112.058594 4.46875 112.273438 4.328125 112.515625 4.226562 C 112.757812 4.125 113.011719 4.074219 113.273438 4.074219 Z M 14.390625 41.652344 C 14.128906 41.652344 13.875 41.601562 13.632812 41.5 C 13.390625 41.402344 13.175781 41.257812 12.992188 41.070312 C 12.804688 40.886719 12.664062 40.671875 12.5625 40.429688 C 12.460938 40.1875 12.414062 39.9375 12.414062 39.671875 C 12.414062 39.410156 12.460938 39.160156 12.5625 38.917969 C 12.664062 38.675781 12.804688 38.460938 12.992188 38.273438 C 13.175781 38.089844 13.390625 37.945312 13.632812 37.847656 C 13.875 37.746094 14.128906 37.695312 14.390625 37.695312 C 14.652344 37.695312 14.90625 37.746094 15.148438 37.847656 C 15.390625 37.945312 15.601562 38.089844 15.789062 38.273438 C 15.972656 38.460938 16.117188 38.675781 16.21875 38.917969 C 16.316406 39.160156 16.367188 39.410156 16.367188 39.671875 C 16.367188 39.9375 16.316406 40.1875 16.21875 40.429688 C 16.117188 40.671875 15.972656 40.886719 15.789062 41.070312 C 15.601562 41.257812 15.390625 41.402344 15.148438 41.5 C 14.90625 41.601562 14.652344 41.652344 14.390625 41.652344 Z M 38.121094 59.449219 C 37.859375 59.449219 37.605469 59.398438 37.363281 59.300781 C 37.121094 59.199219 36.910156 59.054688 36.722656 58.871094 C 36.539062 58.6875 36.394531 58.472656 36.292969 58.230469 C 36.195312 57.988281 36.144531 57.734375 36.144531 57.472656 C 36.144531 57.210938 36.195312 56.957031 36.292969 56.714844 C 36.394531 56.472656 36.539062 56.261719 36.722656 56.074219 C 36.910156 55.890625 37.121094 55.746094 37.363281 55.644531 C 37.605469 55.546875 37.859375 55.496094 38.121094 55.496094 C 38.382812 55.496094 38.636719 55.546875 38.878906 55.644531 C 39.121094 55.746094 39.335938 55.890625 39.519531 56.074219 C 39.707031 56.261719 39.847656 56.472656 39.949219 56.714844 C 40.050781 56.957031 40.097656 57.210938 40.097656 57.472656 C 40.097656 57.734375 40.050781 57.988281 39.949219 58.230469 C 39.847656 58.472656 39.707031 58.6875 39.519531 58.871094 C 39.335938 59.054688 39.121094 59.199219 38.878906 59.300781 C 38.636719 59.398438 38.382812 59.449219 38.121094 59.449219 Z M 61.855469 35.71875 C 61.589844 35.71875 61.339844 35.667969 61.097656 35.566406 C 60.855469 35.46875 60.640625 35.324219 60.457031 35.140625 C 60.269531 34.953125 60.128906 34.738281 60.027344 34.496094 C 59.925781 34.253906 59.875 34.003906 59.875 33.742188 C 59.875 33.480469 59.925781 33.226562 60.027344 32.984375 C 60.128906 32.742188 60.269531 32.527344 60.457031 32.34375 C 60.640625 32.15625 60.855469 32.015625 61.097656 31.914062 C 61.339844 31.8125 61.589844 31.761719 61.855469 31.761719 C 62.117188 31.761719 62.367188 31.8125 62.609375 31.914062 C 62.851562 32.015625 63.066406 32.15625 63.253906 32.34375 C 63.4375 32.527344 63.582031 32.742188 63.679688 32.984375 C 63.78125 33.226562 63.832031 33.480469 63.832031 33.742188 C 63.832031 34.003906 63.78125 34.253906 63.679688 34.496094 C 63.582031 34.738281 63.4375 34.953125 63.253906 35.140625 C 63.066406 35.324219 62.851562 35.46875 62.609375 35.566406 C 62.367188 35.667969 62.117188 35.71875 61.855469 35.71875 Z M 14.390625 106.914062 C 14.128906 106.914062 13.875 106.863281 13.632812 106.765625 C 13.390625 106.664062 13.175781 106.519531 12.992188 106.335938 C 12.804688 106.148438 12.664062 105.9375 12.5625 105.695312 C 12.460938 105.453125 12.414062 105.199219 12.414062 104.9375 C 12.414062 104.675781 12.460938 104.421875 12.5625 104.179688 C 12.664062 103.9375 12.804688 103.722656 12.992188 103.539062 C 13.175781 103.351562 13.390625 103.210938 13.632812 103.109375 C 13.875 103.007812 14.128906 102.960938 14.390625 102.960938 C 14.652344 102.960938 14.90625 103.007812 15.148438 103.109375 C 15.390625 103.210938 15.601562 103.351562 15.789062 103.539062 C 15.972656 103.722656 16.117188 103.9375 16.21875 104.179688 C 16.316406 104.421875 16.367188 104.675781 16.367188 104.9375 C 16.367188 105.199219 16.316406 105.453125 16.21875 105.695312 C 16.117188 105.9375 15.972656 106.148438 15.789062 106.335938 C 15.601562 106.519531 15.390625 106.664062 15.148438 106.765625 C 14.90625 106.863281 14.652344 106.914062 14.390625 106.914062 Z M 38.121094 93.070312 C 37.859375 93.070312 37.605469 93.019531 37.363281 92.921875 C 37.121094 92.820312 36.910156 92.675781 36.722656 92.492188 C 36.539062 92.304688 36.394531 92.09375 36.292969 91.851562 C 36.195312 91.609375 36.144531 91.355469 36.144531 91.09375 C 36.144531 90.832031 36.195312 90.578125 36.292969 90.335938 C 36.394531 90.09375 36.539062 89.878906 36.722656 89.695312 C 36.910156 89.507812 37.121094 89.367188 37.363281 89.265625 C 37.605469 89.164062 37.859375 89.117188 38.121094 89.117188 C 38.382812 89.117188 38.636719 89.164062 38.878906 89.265625 C 39.121094 89.367188 39.335938 89.507812 39.519531 89.695312 C 39.707031 89.878906 39.847656 90.09375 39.949219 90.335938 C 40.050781 90.578125 40.097656 90.832031 40.097656 91.09375 C 40.097656 91.355469 40.050781 91.609375 39.949219 91.851562 C 39.847656 92.09375 39.707031 92.304688 39.519531 92.492188 C 39.335938 92.675781 39.121094 92.820312 38.878906 92.921875 C 38.636719 93.019531 38.382812 93.070312 38.121094 93.070312 Z M 61.855469 97.027344 C 61.589844 97.027344 61.339844 96.976562 61.097656 96.875 C 60.855469 96.773438 60.640625 96.632812 60.457031 96.445312 C 60.269531 96.261719 60.128906 96.046875 60.027344 95.804688 C 59.925781 95.5625 59.875 95.3125 59.875 95.046875 C 59.875 94.785156 59.925781 94.535156 60.027344 94.292969 C 60.128906 94.050781 60.269531 93.835938 60.457031 93.648438 C 60.640625 93.464844 60.855469 93.320312 61.097656 93.222656 C 61.339844 93.121094 61.589844 93.070312 61.855469 93.070312 C 62.117188 93.070312 62.367188 93.121094 62.609375 93.222656 C 62.851562 93.320312 63.066406 93.464844 63.253906 93.648438 C 63.4375 93.835938 63.582031 94.050781 63.679688 94.292969 C 63.78125 94.535156 63.832031 94.785156 63.832031 95.046875 C 63.832031 95.3125 63.78125 95.5625 63.679688 95.804688 C 63.582031 96.046875 63.4375 96.261719 63.253906 96.445312 C 63.066406 96.632812 62.851562 96.773438 62.609375 96.875 C 62.367188 96.976562 62.117188 97.027344 61.855469 97.027344 Z M 113.273438 51.539062 C 113.535156 51.539062 113.789062 51.589844 114.03125 51.691406 C 114.273438 51.789062 114.484375 51.933594 114.671875 52.117188 C 114.855469 52.304688 115 52.519531 115.101562 52.761719 C 115.199219 53.003906 115.25 53.253906 115.25 53.515625 C 115.25 53.78125 115.199219 54.03125 115.101562 54.273438 C 115 54.515625 114.855469 54.730469 114.671875 54.914062 C 114.484375 55.101562 114.273438 55.246094 114.03125 55.34375 C 113.789062 55.445312 113.535156 55.496094 113.273438 55.496094 C 113.011719 55.496094 112.757812 55.445312 112.515625 55.34375 C 112.273438 55.246094 112.058594 55.101562 111.875 54.914062 C 111.6875 54.730469 111.546875 54.515625 111.445312 54.273438 C 111.34375 54.03125 111.296875 53.78125 111.296875 53.515625 C 111.296875 53.253906 111.34375 53.003906 111.445312 52.761719 C 111.546875 52.519531 111.6875 52.304688 111.875 52.117188 C 112.058594 51.933594 112.273438 51.789062 112.515625 51.691406 C 112.757812 51.589844 113.011719 51.539062 113.273438 51.539062 Z M 85.585938 81.203125 C 85.847656 81.203125 86.101562 81.253906 86.34375 81.355469 C 86.585938 81.457031 86.796875 81.597656 86.984375 81.785156 C 87.167969 81.96875 87.3125 82.183594 87.414062 82.425781 C 87.511719 82.667969 87.5625 82.921875 87.5625 83.183594 C 87.5625 83.445312 87.511719 83.695312 87.414062 83.9375 C 87.3125 84.179688 87.167969 84.394531 86.984375 84.582031 C 86.796875 84.765625 86.585938 84.910156 86.34375 85.007812 C 86.101562 85.109375 85.847656 85.160156 85.585938 85.160156 C 85.324219 85.160156 85.070312 85.109375 84.828125 85.007812 C 84.585938 84.910156 84.371094 84.765625 84.1875 84.582031 C 84 84.394531 83.859375 84.179688 83.757812 83.9375 C 83.660156 83.695312 83.609375 83.445312 83.609375 83.183594 C 83.609375 82.921875 83.660156 82.667969 83.757812 82.425781 C 83.859375 82.183594 84 81.96875 84.1875 81.785156 C 84.371094 81.597656 84.585938 81.457031 84.828125 81.355469 C 85.070312 81.253906 85.324219 81.203125 85.585938 81.203125 Z M 85.585938 23.851562 C 85.324219 23.851562 85.070312 23.800781 84.828125 23.703125 C 84.585938 23.601562 84.371094 23.457031 84.1875 23.273438 C 84 23.085938 83.859375 22.875 83.757812 22.632812 C 83.660156 22.390625 83.609375 22.136719 83.609375 21.875 C 83.609375 21.613281 83.660156 21.359375 83.757812 21.117188 C 83.859375 20.875 84 20.660156 84.1875 20.476562 C 84.371094 20.289062 84.585938 20.148438 84.828125 20.046875 C 85.070312 19.949219 85.324219 19.898438 85.585938 19.898438 C 85.847656 19.898438 86.101562 19.949219 86.34375 20.046875 C 86.585938 20.148438 86.796875 20.289062 86.984375 20.476562 C 87.167969 20.660156 87.3125 20.875 87.414062 21.117188 C 87.511719 21.359375 87.5625 21.613281 87.5625 21.875 C 87.5625 22.136719 87.511719 22.390625 87.414062 22.632812 C 87.3125 22.875 87.167969 23.085938 86.984375 23.273438 C 86.796875 23.457031 86.585938 23.601562 86.34375 23.703125 C 86.101562 23.800781 85.847656 23.851562 85.585938 23.851562 Z M 85.585938 23.851562 " fill-opacity="1" fill-rule="nonzero"/></g><g clip-path="url(#b04a1a5946)"><path fill="#362c5d" d="M 117.226562 114.824219 L 4.5 114.824219 L 4.5 2.097656 C 4.5 1.835938 4.453125 1.582031 4.351562 1.339844 C 4.25 1.097656 4.109375 0.886719 3.921875 0.699219 C 3.738281 0.515625 3.523438 0.371094 3.28125 0.269531 C 3.039062 0.171875 2.785156 0.121094 2.523438 0.121094 C 2.261719 0.121094 2.007812 0.171875 1.765625 0.269531 C 1.523438 0.371094 1.3125 0.515625 1.125 0.699219 C 0.941406 0.886719 0.796875 1.097656 0.695312 1.339844 C 0.597656 1.582031 0.546875 1.835938 0.546875 2.097656 L 0.546875 116.800781 C 0.546875 117.066406 0.597656 117.316406 0.695312 117.558594 C 0.796875 117.800781 0.941406 118.015625 1.125 118.199219 C 1.3125 118.386719 1.523438 118.53125 1.765625 118.628906 C 2.007812 118.730469 2.261719 118.78125 2.523438 118.78125 L 117.226562 118.78125 C 117.492188 118.78125 117.742188 118.730469 117.984375 118.628906 C 118.226562 118.53125 118.441406 118.386719 118.625 118.199219 C 118.8125 118.015625 118.957031 117.800781 119.054688 117.558594 C 119.15625 117.316406 119.207031 117.066406 119.207031 116.800781 C 119.207031 116.539062 119.15625 116.289062 119.054688 116.046875 C 118.957031 115.804688 118.8125 115.589844 118.625 115.402344 C 118.441406 115.21875 118.226562 115.074219 117.984375 114.976562 C 117.742188 114.875 117.492188 114.824219 117.226562 114.824219 Z M 117.226562 114.824219 " fill-opacity="1" fill-rule="nonzero"/></g><g fill="#362c5d" fill-opacity="1"><g transform="translate(111.229306, 115.522681)"><g><path d="M 0.59375 -0.71875 C 0.59375 -1.007812 0.664062 -1.226562 0.8125 -1.375 C 0.96875 -1.519531 1.191406 -1.59375 1.484375 -1.59375 C 1.765625 -1.59375 1.984375 -1.515625 2.140625 -1.359375 C 2.296875 -1.210938 2.375 -1 2.375 -0.71875 C 2.375 -0.457031 2.296875 -0.25 2.140625 -0.09375 C 1.984375 0.0625 1.765625 0.140625 1.484375 0.140625 C 1.203125 0.140625 0.984375 0.0664062 0.828125 -0.078125 C 0.671875 -0.234375 0.59375 -0.445312 0.59375 -0.71875 Z M 0.59375 -0.71875 "/></g></g></g></svg>