<svg xmlns="http://www.w3.org/2000/svg" xmlns:xlink="http://www.w3.org/1999/xlink" width="318" zoomAndPan="magnify" viewBox="0 0 238.5 234.749994" height="313" preserveAspectRatio="xMidYMid meet" version="1.0"><defs><g/><clipPath id="c9f2a7a334"><path d="M 3.878906 0.121094 L 233.648438 0.121094 L 233.648438 229.890625 L 3.878906 229.890625 Z M 3.878906 0.121094 " clip-rule="nonzero"/></clipPath></defs><g clip-path="url(#c9f2a7a334)"><path fill="#ffffff" d="M 118.835938 0.121094 C 55.445312 0.121094 3.878906 51.6875 3.878906 115.074219 C 3.878906 178.460938 55.445312 230.03125 118.835938 230.03125 C 182.222656 230.03125 233.789062 178.460938 233.789062 115.074219 C 233.789062 51.6875 182.222656 0.121094 118.835938 0.121094 Z M 118.835938 6.507812 C 178.699219 6.507812 227.402344 55.210938 227.402344 115.074219 C 227.402344 174.941406 178.699219 223.644531 118.835938 223.644531 C 58.96875 223.644531 10.265625 174.941406 10.265625 115.074219 C 10.265625 55.210938 58.96875 6.507812 118.835938 6.507812 Z M 118.835938 16.085938 C 64.253906 16.085938 19.847656 60.492188 19.847656 115.074219 C 19.847656 169.660156 64.253906 214.0625 118.835938 214.0625 C 173.414062 214.0625 217.824219 169.660156 217.824219 115.074219 C 217.824219 88.519531 207.449219 63.585938 188.617188 44.867188 C 187.992188 44.25 186.980469 44.25 186.359375 44.875 C 185.734375 45.5 185.738281 46.511719 186.363281 47.132812 C 204.589844 65.25 214.628906 89.375 214.628906 115.074219 C 214.628906 167.898438 171.65625 210.871094 118.835938 210.871094 C 66.011719 210.871094 23.039062 167.898438 23.039062 115.074219 C 23.039062 62.253906 66.011719 19.28125 118.835938 19.28125 C 130.171875 19.28125 141.265625 21.238281 151.8125 25.105469 C 152.648438 25.40625 153.5625 24.992188 153.867188 24.15625 C 154.167969 23.328125 153.746094 22.410156 152.917969 22.105469 C 142.015625 18.113281 130.546875 16.085938 118.835938 16.085938 Z M 162.042969 26.121094 C 161.417969 26.085938 160.808594 26.414062 160.515625 27.007812 C 160.128906 27.789062 160.4375 28.757812 161.230469 29.152344 C 163.367188 30.210938 165.480469 31.351562 167.519531 32.550781 C 168.273438 33 169.257812 32.753906 169.707031 31.988281 C 169.855469 31.734375 169.925781 31.453125 169.925781 31.179688 C 169.925781 30.632812 169.644531 30.105469 169.140625 29.808594 C 167.039062 28.570312 164.851562 27.378906 162.652344 26.285156 C 162.453125 26.1875 162.25 26.132812 162.042969 26.121094 Z M 174.441406 33.730469 C 174.039062 33.800781 173.664062 34.023438 173.410156 34.386719 C 172.90625 35.105469 173.078125 36.097656 173.796875 36.605469 C 174.859375 37.347656 175.902344 38.117188 176.933594 38.90625 C 177.636719 39.441406 178.636719 39.308594 179.175781 38.605469 C 179.398438 38.320312 179.503906 37.972656 179.503906 37.632812 C 179.503906 37.15625 179.292969 36.679688 178.878906 36.367188 C 177.816406 35.554688 176.730469 34.761719 175.632812 33.992188 C 175.269531 33.738281 174.84375 33.660156 174.441406 33.730469 Z M 118.835938 44.824219 C 110.03125 44.824219 102.867188 51.988281 102.867188 60.792969 C 102.867188 69.59375 110.03125 76.757812 118.835938 76.757812 C 127.636719 76.757812 134.800781 69.59375 134.800781 60.792969 C 134.800781 51.988281 127.636719 44.824219 118.835938 44.824219 Z M 118.835938 48.019531 C 125.878906 48.019531 131.605469 53.746094 131.605469 60.792969 C 131.605469 67.835938 125.878906 73.5625 118.835938 73.5625 C 111.789062 73.5625 106.0625 67.835938 106.0625 60.792969 C 106.0625 53.746094 111.789062 48.019531 118.835938 48.019531 Z M 74.253906 73.71875 C 70.539062 73.71875 67.257812 75.601562 65.699219 78.609375 C 64.429688 80.945312 64.195312 83.632812 65.042969 86.167969 C 65.886719 88.699219 67.679688 90.703125 70.070312 91.804688 L 75.046875 94.132812 C 75.847656 94.515625 76.800781 94.15625 77.171875 93.359375 C 77.542969 92.558594 77.199219 91.613281 76.398438 91.238281 L 71.410156 88.914062 C 69.800781 88.167969 68.648438 86.871094 68.082031 85.164062 C 67.519531 83.476562 67.667969 81.6875 68.523438 80.113281 C 69.542969 78.140625 71.738281 76.917969 74.253906 76.917969 C 75.335938 76.917969 76.410156 77.152344 77.355469 77.597656 L 100.191406 88.238281 C 101.847656 89.082031 103.769531 89.53125 105.742188 89.53125 L 133.203125 89.53125 C 135.160156 89.53125 137.039062 89.105469 138.597656 88.324219 L 160.421875 78.167969 C 163.625 76.652344 167.65625 77.820312 169.21875 80.742188 C 170.0625 82.292969 170.214844 84.082031 169.65625 85.761719 C 169.089844 87.445312 167.902344 88.777344 166.3125 89.515625 L 137.570312 102.902344 C 135.886719 103.683594 134.800781 105.386719 134.800781 107.242188 L 134.800781 122.199219 C 134.800781 123.703125 135.054688 125.167969 135.5625 126.539062 L 141.375 142.757812 C 141.609375 143.410156 142.222656 143.8125 142.875 143.8125 C 143.054688 143.8125 143.234375 143.78125 143.414062 143.71875 C 144.242188 143.421875 144.675781 142.507812 144.378906 141.675781 L 138.566406 125.445312 C 138.1875 124.414062 137.992188 123.324219 137.992188 122.199219 L 137.992188 107.25 C 137.992188 106.628906 138.355469 106.058594 138.917969 105.796875 L 167.667969 92.410156 C 170.015625 91.308594 171.84375 89.261719 172.6875 86.78125 C 173.53125 84.242188 173.292969 81.5625 172.03125 79.226562 C 169.691406 74.851562 163.746094 73.039062 159.066406 75.277344 L 137.214844 85.449219 C 136.054688 86.027344 134.664062 86.335938 133.203125 86.335938 L 105.742188 86.335938 C 104.269531 86.335938 102.855469 86.011719 101.597656 85.371094 L 78.707031 74.707031 C 77.347656 74.058594 75.804688 73.71875 74.253906 73.71875 Z M 82.167969 94.070312 C 81.546875 94.046875 80.945312 94.390625 80.664062 94.992188 C 80.296875 95.792969 80.632812 96.734375 81.433594 97.105469 L 98.753906 105.183594 C 99.3125 105.445312 99.675781 106.015625 99.675781 106.628906 L 99.675781 122.199219 C 99.675781 123.324219 99.480469 124.417969 99.09375 125.460938 L 81.246094 175.210938 C 79.496094 180.121094 81.851562 185.878906 86.390625 187.789062 C 87.554688 188.273438 88.820312 188.511719 90.078125 188.511719 C 91.398438 188.511719 92.71875 188.242188 93.894531 187.714844 C 96.402344 186.609375 98.214844 184.671875 99.125 182.125 L 113.914062 140.863281 C 114.613281 138.882812 116.589844 137.550781 118.871094 137.550781 C 121.144531 137.574219 123.050781 138.90625 123.734375 140.96875 L 138.359375 181.644531 C 140.128906 186.578125 145.589844 189.535156 150.304688 188.125 C 152.871094 187.320312 154.933594 185.582031 156.109375 183.230469 C 157.316406 180.824219 157.476562 178.15625 156.570312 175.746094 L 151.234375 160.832031 C 150.933594 160 150.015625 159.570312 149.195312 159.867188 C 148.363281 160.164062 147.929688 161.078125 148.226562 161.914062 L 153.578125 176.847656 C 154.175781 178.441406 154.0625 180.199219 153.261719 181.800781 C 152.476562 183.371094 151.085938 184.535156 149.367188 185.074219 C 146.25 186.015625 142.585938 183.949219 141.375 180.566406 L 126.761719 139.921875 C 125.648438 136.582031 122.566406 134.398438 118.828125 134.359375 C 115.238281 134.359375 112.058594 136.542969 110.914062 139.792969 L 96.125 181.046875 C 95.507812 182.773438 94.328125 184.03125 92.601562 184.789062 C 91.074219 185.476562 89.207031 185.492188 87.621094 184.839844 C 84.597656 183.566406 83.058594 179.652344 84.257812 176.28125 L 102.101562 126.542969 C 102.613281 125.164062 102.867188 123.703125 102.867188 122.199219 L 102.867188 106.628906 C 102.867188 104.78125 101.789062 103.078125 100.105469 102.289062 L 82.785156 94.21875 C 82.585938 94.125 82.375 94.078125 82.167969 94.070312 Z M 145.246094 147.007812 C 145.039062 146.996094 144.828125 147.027344 144.621094 147.101562 C 143.792969 147.398438 143.367188 148.316406 143.664062 149.144531 L 144.804688 152.339844 C 145.039062 152.992188 145.652344 153.394531 146.308594 153.394531 C 146.484375 153.394531 146.664062 153.359375 146.84375 153.300781 C 147.671875 153.003906 148.105469 152.085938 147.808594 151.253906 L 146.667969 148.0625 C 146.445312 147.4375 145.867188 147.039062 145.246094 147.007812 Z M 145.246094 147.007812 " fill-opacity="1" fill-rule="nonzero"/></g><g fill="#000000" fill-opacity="1"><g transform="translate(211.022, 132.742822)"><g><path d="M 0.078125 -0.046875 C 0.078125 -0.0664062 0.0820312 -0.0820312 0.09375 -0.09375 C 0.101562 -0.113281 0.113281 -0.125 0.125 -0.125 C 0.144531 -0.125 0.160156 -0.113281 0.171875 -0.09375 C 0.179688 -0.0820312 0.1875 -0.0664062 0.1875 -0.046875 C 0.1875 -0.0234375 0.179688 -0.0078125 0.171875 0 C 0.160156 0.0078125 0.144531 0.015625 0.125 0.015625 C 0.113281 0.015625 0.101562 0.0078125 0.09375 0 C 0.0820312 -0.0078125 0.078125 -0.0234375 0.078125 -0.046875 Z M 0.078125 -0.046875 "/></g></g></g><g fill="#ffffff" fill-opacity="1"><g transform="translate(117.23207, 227.494115)"><g><path d="M 0.890625 -0.625 C 0.890625 -0.882812 0.945312 -1.082031 1.0625 -1.21875 C 1.1875 -1.351562 1.359375 -1.421875 1.578125 -1.421875 C 1.804688 -1.421875 1.984375 -1.351562 2.109375 -1.21875 C 2.234375 -1.082031 2.296875 -0.882812 2.296875 -0.625 C 2.296875 -0.363281 2.226562 -0.164062 2.09375 -0.03125 C 1.96875 0.101562 1.796875 0.171875 1.578125 0.171875 C 1.378906 0.171875 1.210938 0.109375 1.078125 -0.015625 C 0.953125 -0.140625 0.890625 -0.34375 0.890625 -0.625 Z M 0.890625 -0.625 "/></g></g></g></svg>