<svg xmlns="http://www.w3.org/2000/svg" xmlns:xlink="http://www.w3.org/1999/xlink" width="180" zoomAndPan="magnify" viewBox="0 0 135 187.499995" height="250" preserveAspectRatio="xMidYMid meet" version="1.0"><defs><g/><clipPath id="bd3327c72c"><path d="M 0.585938 115 L 65 115 L 65 186.253906 L 0.585938 186.253906 Z M 0.585938 115 " clip-rule="nonzero"/></clipPath><clipPath id="19d51a884e"><path d="M 70 115 L 134.480469 115 L 134.480469 186.253906 L 70 186.253906 Z M 70 115 " clip-rule="nonzero"/></clipPath></defs><g clip-path="url(#bd3327c72c)"><path fill="#ffffff" d="M 22.40625 115.183594 C 21.214844 114.746094 19.894531 115.367188 19.457031 116.558594 L 0.882812 167.730469 C 0.585938 168.550781 0.78125 169.472656 1.386719 170.105469 C 1.992188 170.738281 2.898438 170.96875 3.738281 170.714844 L 29.601562 162.621094 L 44.253906 185.417969 C 44.679688 186.082031 45.414062 186.476562 46.191406 186.476562 C 46.273438 186.476562 46.359375 186.472656 46.445312 186.460938 C 47.316406 186.363281 48.054688 185.785156 48.355469 184.960938 L 64.308594 141.003906 C 64.742188 139.804688 64.125 138.484375 62.929688 138.054688 C 61.738281 137.621094 60.417969 138.238281 59.980469 139.429688 L 45.613281 179.019531 L 32.523438 158.65625 C 31.960938 157.785156 30.886719 157.410156 29.898438 157.703125 L 6.796875 164.933594 L 23.789062 118.132812 C 24.222656 116.9375 23.601562 115.613281 22.40625 115.183594 Z M 22.40625 115.183594 " fill-opacity="1" fill-rule="nonzero"/></g><g clip-path="url(#19d51a884e)"><path fill="#ffffff" d="M 86.609375 184.960938 C 86.90625 185.785156 87.648438 186.363281 88.515625 186.460938 C 88.601562 186.472656 88.6875 186.476562 88.773438 186.476562 C 89.550781 186.476562 90.285156 186.082031 90.707031 185.417969 L 105.363281 162.621094 L 131.222656 170.714844 C 132.066406 170.964844 132.972656 170.738281 133.574219 170.105469 C 134.179688 169.472656 134.375 168.550781 134.078125 167.730469 L 115.503906 116.558594 C 115.070312 115.367188 113.75 114.75 112.554688 115.183594 C 111.359375 115.613281 110.742188 116.9375 111.175781 118.132812 L 128.164062 164.933594 L 105.0625 157.703125 C 104.078125 157.421875 103.003906 157.789062 102.441406 158.65625 L 89.351562 179.019531 L 74.980469 139.429688 C 74.542969 138.238281 73.226562 137.621094 72.03125 138.054688 C 70.835938 138.484375 70.21875 139.804688 70.652344 141.003906 Z M 86.609375 184.960938 " fill-opacity="1" fill-rule="nonzero"/></g><path fill="#ffffff" d="M 113.050781 63.972656 C 113.050781 38.847656 92.609375 18.402344 67.480469 18.402344 C 42.351562 18.402344 21.910156 38.847656 21.910156 63.972656 C 21.910156 89.097656 42.351562 109.542969 67.480469 109.542969 C 92.609375 109.542969 113.050781 89.097656 113.050781 63.972656 Z M 26.515625 63.972656 C 26.515625 41.386719 44.894531 23.007812 67.480469 23.007812 C 90.070312 23.007812 108.445312 41.386719 108.445312 63.972656 C 108.445312 86.558594 90.070312 104.9375 67.480469 104.9375 C 44.894531 104.9375 26.515625 86.558594 26.515625 63.972656 Z M 26.515625 63.972656 " fill-opacity="1" fill-rule="nonzero"/><path fill="#ffffff" d="M 92.554688 45.699219 C 91.566406 44.898438 90.117188 45.050781 89.316406 46.03125 L 61.796875 79.875 L 42.425781 63.367188 C 41.457031 62.542969 40.003906 62.65625 39.179688 63.625 C 38.355469 64.59375 38.472656 66.046875 39.441406 66.871094 L 60.601562 84.90625 C 61.019531 85.261719 61.550781 85.453125 62.097656 85.453125 C 62.164062 85.453125 62.234375 85.449219 62.304688 85.445312 C 62.921875 85.386719 63.492188 85.085938 63.878906 84.601562 L 92.886719 48.933594 C 93.6875 47.949219 93.539062 46.496094 92.554688 45.699219 Z M 92.554688 45.699219 " fill-opacity="1" fill-rule="nonzero"/><path fill="#ffffff" d="M 72.273438 123.46875 L 76.351562 125.667969 C 79.914062 127.597656 84.003906 127.972656 87.863281 126.714844 C 91.722656 125.464844 94.8125 122.757812 96.566406 119.097656 L 98.570312 114.921875 C 100.046875 111.851562 102.941406 109.746094 106.320312 109.289062 L 110.929688 108.667969 C 114.945312 108.132812 118.46875 106.03125 120.851562 102.753906 C 123.234375 99.480469 124.144531 95.480469 123.417969 91.492188 L 122.585938 86.90625 C 121.976562 83.558594 123.078125 80.160156 125.542969 77.816406 L 128.914062 74.585938 C 131.84375 71.796875 133.457031 68.023438 133.457031 63.972656 C 133.457031 59.921875 131.84375 56.148438 128.914062 53.359375 L 125.542969 50.136719 C 123.082031 47.785156 121.976562 44.386719 122.585938 41.039062 L 123.421875 36.453125 C 124.148438 32.46875 123.234375 28.464844 120.851562 25.1875 C 118.46875 21.914062 114.945312 19.8125 110.933594 19.277344 L 106.320312 18.65625 C 102.941406 18.199219 100.046875 16.09375 98.574219 13.027344 L 96.570312 8.84375 C 94.816406 5.1875 91.722656 2.484375 87.867188 1.230469 C 84.015625 -0.0195312 79.921875 0.355469 76.355469 2.273438 L 72.269531 4.480469 C 69.273438 6.097656 65.695312 6.105469 62.691406 4.476562 L 58.609375 2.273438 C 55.039062 0.355469 50.949219 -0.0195312 47.097656 1.230469 C 43.238281 2.484375 40.148438 5.1875 38.394531 8.847656 L 36.390625 13.027344 C 34.917969 16.09375 32.023438 18.199219 28.644531 18.65625 L 24.03125 19.277344 C 20.015625 19.8125 16.492188 21.914062 14.109375 25.1875 C 11.726562 28.464844 10.816406 32.46875 11.542969 36.453125 L 12.375 41.039062 C 12.984375 44.386719 11.878906 47.785156 9.425781 50.128906 L 6.046875 53.359375 C 3.117188 56.15625 1.503906 59.921875 1.507812 63.972656 C 1.507812 68.023438 3.117188 71.796875 6.046875 74.585938 L 9.421875 77.808594 C 11.878906 80.160156 12.984375 83.558594 12.378906 86.90625 L 11.542969 91.492188 C 10.816406 95.480469 11.726562 99.480469 14.109375 102.757812 C 16.492188 106.03125 20.015625 108.132812 24.03125 108.667969 L 28.644531 109.289062 C 32.019531 109.746094 34.914062 111.851562 36.390625 114.917969 L 38.394531 119.101562 C 40.148438 122.757812 43.242188 125.464844 47.101562 126.71875 C 48.601562 127.203125 50.132812 127.441406 51.65625 127.441406 C 54.054688 127.441406 56.429688 126.847656 58.605469 125.671875 L 62.691406 123.464844 C 65.6875 121.851562 69.265625 121.835938 72.273438 123.46875 Z M 60.503906 119.414062 L 56.417969 121.621094 C 53.972656 122.941406 51.167969 123.195312 48.523438 122.339844 C 45.871094 121.476562 43.75 119.621094 42.542969 117.113281 L 40.539062 112.925781 C 38.390625 108.457031 34.175781 105.390625 29.257812 104.730469 L 24.640625 104.109375 C 21.886719 103.738281 19.46875 102.296875 17.835938 100.050781 C 16.199219 97.796875 15.570312 95.050781 16.070312 92.316406 L 16.90625 87.734375 C 17.789062 82.855469 16.179688 77.90625 12.601562 74.484375 L 9.226562 71.261719 C 7.214844 69.339844 6.109375 66.75 6.109375 63.972656 C 6.109375 61.195312 7.214844 58.605469 9.222656 56.683594 L 12.601562 53.457031 C 16.183594 50.039062 17.792969 45.089844 16.90625 40.214844 L 16.070312 35.628906 C 15.570312 32.894531 16.199219 30.148438 17.835938 27.894531 C 19.46875 25.648438 21.886719 24.207031 24.640625 23.835938 L 29.257812 23.214844 C 34.175781 22.554688 38.394531 19.488281 40.539062 15.015625 L 42.542969 10.839844 C 43.75 8.324219 45.871094 6.46875 48.519531 5.609375 C 49.546875 5.277344 50.601562 5.109375 51.648438 5.109375 C 53.296875 5.109375 54.925781 5.519531 56.421875 6.328125 L 60.503906 8.527344 C 64.875 10.890625 70.089844 10.886719 74.457031 8.53125 L 78.542969 6.328125 C 80.988281 5.007812 83.796875 4.753906 86.445312 5.609375 C 89.09375 6.46875 91.214844 8.324219 92.417969 10.832031 L 94.425781 15.015625 C 96.570312 19.488281 100.785156 22.554688 105.707031 23.214844 L 110.320312 23.835938 C 113.074219 24.207031 115.492188 25.648438 117.128906 27.894531 C 118.765625 30.148438 119.390625 32.894531 118.894531 35.628906 L 118.054688 40.214844 C 117.171875 45.085938 118.78125 50.039062 122.359375 53.460938 L 125.738281 56.683594 C 127.746094 58.605469 128.851562 61.195312 128.851562 63.972656 C 128.851562 66.75 127.746094 69.339844 125.738281 71.261719 L 125.734375 71.261719 L 122.359375 74.488281 C 118.777344 77.90625 117.167969 82.859375 118.058594 87.734375 L 118.890625 92.316406 C 119.390625 95.050781 118.765625 97.796875 117.128906 100.046875 C 115.492188 102.292969 113.074219 103.738281 110.316406 104.109375 L 105.703125 104.730469 C 100.785156 105.390625 96.570312 108.457031 94.421875 112.929688 L 92.417969 117.113281 C 91.210938 119.621094 89.089844 121.476562 86.441406 122.335938 C 83.792969 123.203125 80.992188 122.9375 78.539062 121.617188 L 74.457031 119.417969 C 70.089844 117.054688 64.871094 117.058594 60.503906 119.414062 Z M 60.503906 119.414062 " fill-opacity="1" fill-rule="nonzero"/><g fill="#ffffff" fill-opacity="1"><g transform="translate(77.387691, 107.263955)"><g><path d="M 0.890625 -0.625 C 0.890625 -0.882812 0.945312 -1.082031 1.0625 -1.21875 C 1.1875 -1.351562 1.359375 -1.421875 1.578125 -1.421875 C 1.804688 -1.421875 1.984375 -1.351562 2.109375 -1.21875 C 2.234375 -1.082031 2.296875 -0.882812 2.296875 -0.625 C 2.296875 -0.363281 2.226562 -0.164062 2.09375 -0.03125 C 1.96875 0.101562 1.796875 0.171875 1.578125 0.171875 C 1.378906 0.171875 1.210938 0.109375 1.078125 -0.015625 C 0.953125 -0.140625 0.890625 -0.34375 0.890625 -0.625 Z M 0.890625 -0.625 "/></g></g></g></svg>