<svg xmlns="http://www.w3.org/2000/svg" xmlns:xlink="http://www.w3.org/1999/xlink" width="114" zoomAndPan="magnify" viewBox="0 0 85.5 75.749998" height="101" preserveAspectRatio="xMidYMid meet" version="1.0"><defs><g/><clipPath id="58a16fe72a"><path d="M 0.0429688 1 L 85.003906 1 L 85.003906 75 L 0.0429688 75 Z M 0.0429688 1 " clip-rule="nonzero"/></clipPath></defs><g clip-path="url(#58a16fe72a)"><path fill="#ffffff" d="M 29.738281 44.8125 L 22.203125 52.347656 L 22.171875 52.382812 C 21.871094 52.660156 21.527344 52.867188 21.144531 53.011719 C 20.761719 53.15625 20.367188 53.222656 19.957031 53.214844 C 19.546875 53.203125 19.15625 53.117188 18.78125 52.953125 C 18.40625 52.792969 18.074219 52.5625 17.785156 52.273438 C 17.5 51.980469 17.277344 51.648438 17.121094 51.269531 C 16.964844 50.890625 16.882812 50.496094 16.878906 50.089844 C 16.875 49.679688 16.949219 49.285156 17.097656 48.902344 C 17.246094 48.523438 17.460938 48.183594 17.742188 47.886719 L 25.277344 40.355469 C 25.574219 40.058594 25.914062 39.832031 26.300781 39.671875 C 26.6875 39.511719 27.089844 39.429688 27.507812 39.429688 C 27.925781 39.429688 28.328125 39.511719 28.714844 39.671875 C 29.101562 39.828125 29.441406 40.058594 29.738281 40.351562 C 30.03125 40.648438 30.261719 40.988281 30.421875 41.375 C 30.582031 41.761719 30.660156 42.164062 30.664062 42.582031 C 30.664062 43 30.582031 43.402344 30.421875 43.789062 C 30.265625 44.175781 30.035156 44.515625 29.742188 44.8125 Z M 51.175781 63.484375 C 51.175781 62.847656 50.996094 62.265625 50.640625 61.734375 C 50.289062 61.207031 49.816406 60.820312 49.230469 60.574219 C 48.640625 60.332031 48.035156 60.273438 47.410156 60.394531 C 46.785156 60.519531 46.246094 60.804688 45.796875 61.253906 L 38.449219 68.601562 C 38.164062 68.890625 37.9375 69.226562 37.78125 69.605469 C 37.621094 69.980469 37.539062 70.375 37.53125 70.785156 C 37.527344 71.195312 37.597656 71.589844 37.742188 71.972656 C 37.890625 72.355469 38.105469 72.695312 38.382812 72.996094 L 38.449219 73.058594 C 38.746094 73.351562 39.085938 73.578125 39.472656 73.738281 C 39.859375 73.898438 40.261719 73.976562 40.679688 73.976562 C 41.097656 73.976562 41.5 73.898438 41.886719 73.738281 C 42.273438 73.578125 42.617188 73.351562 42.914062 73.058594 L 50.257812 65.714844 C 50.875 65.097656 51.179688 64.355469 51.175781 63.484375 Z M 44.273438 56.578125 C 44.28125 55.714844 43.976562 54.976562 43.371094 54.363281 L 43.328125 54.320312 C 43.03125 54.03125 42.6875 53.8125 42.304688 53.65625 C 41.917969 53.503906 41.519531 53.425781 41.105469 53.429688 C 40.691406 53.433594 40.292969 53.511719 39.910156 53.671875 C 39.527344 53.828125 39.1875 54.054688 38.894531 54.34375 L 31.550781 61.6875 C 31.257812 61.984375 31.03125 62.324219 30.871094 62.710938 C 30.714844 63.09375 30.632812 63.496094 30.632812 63.910156 C 30.628906 64.328125 30.707031 64.726562 30.863281 65.113281 C 31.019531 65.5 31.246094 65.839844 31.535156 66.136719 L 31.449219 66.253906 L 31.550781 66.152344 C 31.847656 66.445312 32.1875 66.671875 32.574219 66.832031 C 32.960938 66.992188 33.363281 67.070312 33.78125 67.070312 C 34.199219 67.070312 34.601562 66.992188 34.988281 66.832031 C 35.375 66.671875 35.714844 66.445312 36.011719 66.152344 L 43.355469 58.804688 C 43.972656 58.191406 44.277344 57.449219 44.277344 56.582031 Z M 37.53125 49.609375 L 37.53125 49.5 C 37.535156 48.664062 37.253906 47.941406 36.679688 47.332031 L 36.621094 47.277344 C 36.03125 46.683594 35.320312 46.375 34.484375 46.351562 L 34.382812 46.351562 C 33.546875 46.347656 32.824219 46.628906 32.214844 47.199219 L 32.15625 47.265625 L 24.648438 54.785156 C 24.355469 55.082031 24.128906 55.421875 23.972656 55.804688 C 23.8125 56.191406 23.734375 56.589844 23.730469 57.007812 C 23.730469 57.421875 23.808594 57.824219 23.964844 58.210938 C 24.121094 58.59375 24.34375 58.9375 24.636719 59.234375 L 24.675781 59.273438 C 25.257812 59.847656 25.957031 60.144531 26.773438 60.171875 L 26.878906 60.164062 C 27.75 60.167969 28.496094 59.863281 29.113281 59.246094 L 36.613281 51.730469 C 37.203125 51.144531 37.507812 50.4375 37.535156 49.613281 Z M 68.007812 8.421875 C 67.207031 8.984375 66.332031 9.386719 65.378906 9.628906 C 64.398438 9.871094 63.40625 10.015625 62.398438 10.070312 C 61.355469 10.125 60.316406 10.125 59.273438 10.074219 C 57.792969 10.011719 56.25 9.859375 54.613281 9.695312 L 54.511719 9.6875 C 48.886719 9.125 42.511719 8.492188 38.761719 11.769531 L 31.265625 19.265625 C 30.980469 19.558594 30.761719 19.898438 30.609375 20.277344 C 30.457031 20.65625 30.378906 21.050781 30.382812 21.460938 C 30.382812 21.871094 30.460938 22.265625 30.613281 22.644531 C 30.765625 23.023438 30.988281 23.359375 31.273438 23.65625 C 31.558594 23.949219 31.886719 24.179688 32.261719 24.34375 C 32.636719 24.511719 33.027344 24.601562 33.4375 24.613281 C 33.847656 24.625 34.242188 24.5625 34.628906 24.421875 C 35.011719 24.28125 35.355469 24.074219 35.660156 23.796875 L 43.257812 16.195312 C 43.417969 16.035156 43.605469 15.910156 43.816406 15.820312 C 44.027344 15.734375 44.25 15.691406 44.476562 15.691406 C 44.707031 15.691406 44.925781 15.734375 45.136719 15.820312 C 45.347656 15.910156 45.535156 16.035156 45.699219 16.195312 L 45.71875 16.21875 L 73.9375 44.429688 C 75.589844 41.667969 77.355469 38.707031 79.25 35.523438 C 81.464844 31.800781 83.390625 28.546875 85.003906 25.808594 L 68.875 7.726562 C 68.601562 7.972656 68.3125 8.207031 68.007812 8.421875 Z M 44.484375 19.851562 L 38.066406 26.261719 C 37.757812 26.558594 37.421875 26.820312 37.0625 27.050781 C 36.703125 27.28125 36.324219 27.476562 35.925781 27.632812 C 35.527344 27.789062 35.117188 27.90625 34.699219 27.984375 C 34.277344 28.0625 33.855469 28.097656 33.425781 28.09375 C 33 28.089844 32.574219 28.042969 32.15625 27.957031 C 31.738281 27.871094 31.332031 27.746094 30.9375 27.582031 C 30.542969 27.414062 30.167969 27.214844 29.8125 26.976562 C 29.457031 26.738281 29.128906 26.46875 28.828125 26.164062 L 28.796875 26.132812 C 28.492188 25.824219 28.222656 25.492188 27.984375 25.132812 C 27.746094 24.769531 27.546875 24.390625 27.382812 23.992188 C 27.21875 23.589844 27.097656 23.179688 27.015625 22.757812 C 26.933594 22.332031 26.890625 21.90625 26.894531 21.472656 C 26.894531 21.042969 26.9375 20.613281 27.023438 20.191406 C 27.109375 19.769531 27.234375 19.355469 27.398438 18.957031 C 27.566406 18.558594 27.765625 18.179688 28.007812 17.824219 C 28.246094 17.464844 28.519531 17.132812 28.824219 16.824219 L 35.621094 10.03125 L 35.601562 10.03125 C 35.328125 10.042969 35.058594 10.0625 34.800781 10.070312 C 33.671875 10.121094 32.894531 10.148438 32.199219 10.136719 C 31.476562 10.136719 30.753906 10.097656 30.035156 10.007812 C 28.511719 9.863281 27.164062 9.296875 25.996094 8.308594 C 24.761719 7.160156 23.691406 5.871094 22.792969 4.441406 L 21.105469 1.976562 L 20.535156 1.132812 L 0.0429688 15.417969 C 2.648438 19.871094 5.398438 24.566406 8.257812 29.40625 C 10.894531 33.863281 13.710938 38.597656 16.867188 43.875 L 22.835938 37.910156 C 23.144531 37.601562 23.480469 37.332031 23.839844 37.089844 C 24.199219 36.847656 24.582031 36.644531 24.984375 36.480469 C 25.382812 36.316406 25.796875 36.191406 26.222656 36.105469 C 26.648438 36.019531 27.078125 35.980469 27.511719 35.980469 C 27.945312 35.980469 28.375 36.019531 28.800781 36.105469 C 29.226562 36.191406 29.636719 36.316406 30.039062 36.480469 C 30.441406 36.644531 30.820312 36.847656 31.183594 37.089844 C 31.542969 37.332031 31.878906 37.601562 32.183594 37.910156 C 32.652344 38.382812 33.046875 38.910156 33.359375 39.496094 C 33.859375 40.429688 34.136719 41.421875 34.195312 42.476562 C 35.179688 42.472656 36.125 42.664062 37.035156 43.046875 C 37.941406 43.433594 38.738281 43.980469 39.421875 44.691406 C 40.597656 45.984375 41.210938 47.503906 41.257812 49.25 C 43.050781 49.59375 44.570312 50.429688 45.816406 51.761719 C 46.359375 52.367188 46.796875 53.042969 47.125 53.789062 C 47.480469 54.6875 47.6875 55.617188 47.742188 56.582031 C 47.738281 56.6875 47.730469 56.792969 47.714844 56.898438 L 47.714844 56.910156 L 47.726562 56.910156 C 47.832031 56.894531 47.9375 56.886719 48.042969 56.886719 C 48.921875 56.882812 49.765625 57.046875 50.574219 57.382812 C 51.382812 57.71875 52.097656 58.195312 52.71875 58.816406 L 52.75 58.851562 C 53.21875 59.324219 53.605469 59.851562 53.910156 60.441406 C 54.214844 61.027344 54.425781 61.648438 54.542969 62.300781 C 54.660156 62.953125 54.679688 63.609375 54.597656 64.265625 C 54.515625 64.921875 54.335938 65.554688 54.0625 66.15625 C 54.261719 66.238281 54.4375 66.351562 54.59375 66.503906 C 54.890625 66.792969 55.230469 67.015625 55.617188 67.167969 C 56 67.324219 56.402344 67.398438 56.816406 67.394531 C 57.230469 67.394531 57.628906 67.3125 58.011719 67.152344 C 58.394531 66.992188 58.730469 66.765625 59.027344 66.472656 C 59.320312 66.175781 59.546875 65.839844 59.707031 65.457031 C 59.867188 65.074219 59.945312 64.675781 59.949219 64.261719 C 59.953125 63.847656 59.875 63.445312 59.722656 63.0625 C 59.566406 62.675781 59.34375 62.335938 59.054688 62.039062 L 45.992188 48.984375 C 45.832031 48.820312 45.707031 48.632812 45.617188 48.421875 C 45.53125 48.210938 45.488281 47.988281 45.488281 47.761719 C 45.484375 47.53125 45.53125 47.3125 45.617188 47.097656 C 45.707031 46.886719 45.832031 46.699219 45.992188 46.539062 C 46.15625 46.375 46.339844 46.25 46.554688 46.164062 C 46.765625 46.074219 46.984375 46.03125 47.214844 46.03125 C 47.445312 46.03125 47.664062 46.078125 47.875 46.164062 C 48.085938 46.253906 48.273438 46.378906 48.4375 46.539062 L 61.492188 59.59375 C 61.789062 59.886719 62.128906 60.113281 62.515625 60.273438 C 62.902344 60.433594 63.304688 60.511719 63.722656 60.511719 C 64.140625 60.511719 64.542969 60.433594 64.929688 60.273438 C 65.316406 60.113281 65.65625 59.886719 65.953125 59.59375 L 66 59.550781 C 66.285156 59.25 66.5 58.910156 66.652344 58.527344 C 66.800781 58.140625 66.875 57.742188 66.871094 57.332031 C 66.867188 56.917969 66.785156 56.523438 66.625 56.140625 C 66.464844 55.761719 66.242188 55.425781 65.953125 55.132812 L 52.898438 42.082031 C 52.734375 41.921875 52.609375 41.734375 52.523438 41.523438 C 52.4375 41.3125 52.390625 41.089844 52.390625 40.863281 C 52.390625 40.632812 52.433594 40.410156 52.523438 40.199219 C 52.609375 39.988281 52.734375 39.800781 52.894531 39.640625 C 53.058594 39.476562 53.246094 39.351562 53.457031 39.265625 C 53.667969 39.175781 53.886719 39.132812 54.117188 39.132812 C 54.347656 39.128906 54.566406 39.175781 54.777344 39.261719 C 54.992188 39.347656 55.179688 39.472656 55.339844 39.632812 L 68.394531 52.6875 C 69.011719 53.304688 69.753906 53.609375 70.625 53.605469 L 70.769531 53.605469 C 71.394531 53.574219 71.957031 53.375 72.464844 53.011719 C 72.96875 52.644531 73.332031 52.171875 73.558594 51.589844 C 73.785156 51.007812 73.832031 50.410156 73.703125 49.800781 C 73.578125 49.191406 73.292969 48.664062 72.851562 48.222656 Z M 52.136719 68.945312 C 52.101562 68.90625 52.066406 68.867188 52.042969 68.820312 L 47.550781 73.308594 C 47.597656 73.335938 47.636719 73.367188 47.675781 73.40625 C 47.964844 73.695312 48.300781 73.917969 48.679688 74.074219 C 49.054688 74.234375 49.449219 74.316406 49.859375 74.324219 C 50.269531 74.332031 50.664062 74.261719 51.046875 74.113281 C 51.429688 73.964844 51.769531 73.753906 52.070312 73.472656 L 52.132812 73.40625 C 52.753906 72.792969 53.0625 72.046875 53.058594 71.175781 L 53.058594 71.03125 C 53.027344 70.25 52.742188 69.574219 52.207031 69.007812 Z M 52.136719 68.945312 " fill-opacity="1" fill-rule="nonzero"/></g><g fill="#ffffff" fill-opacity="1"><g transform="translate(42.501452, 34.133939)"><g><path d="M 0.890625 -0.625 C 0.890625 -0.882812 0.945312 -1.078125 1.0625 -1.203125 C 1.175781 -1.335938 1.347656 -1.40625 1.578125 -1.40625 C 1.796875 -1.40625 1.96875 -1.335938 2.09375 -1.203125 C 2.226562 -1.078125 2.296875 -0.882812 2.296875 -0.625 C 2.296875 -0.363281 2.226562 -0.164062 2.09375 -0.03125 C 1.96875 0.101562 1.796875 0.171875 1.578125 0.171875 C 1.378906 0.171875 1.210938 0.109375 1.078125 -0.015625 C 0.953125 -0.140625 0.890625 -0.34375 0.890625 -0.625 Z M 0.890625 -0.625 "/></g></g></g></svg>