<svg xmlns="http://www.w3.org/2000/svg" xmlns:xlink="http://www.w3.org/1999/xlink" width="308" zoomAndPan="magnify" viewBox="0 0 230.87999 198.749996" height="265" preserveAspectRatio="xMidYMid meet" version="1.0"><defs><g/><clipPath id="3c5bcb356d"><path d="M 0.683594 1 L 230.644531 1 L 230.644531 79 L 0.683594 79 Z M 0.683594 1 " clip-rule="nonzero"/></clipPath><clipPath id="5e27869275"><path d="M 0.683594 166 L 30 166 L 30 197.832031 L 0.683594 197.832031 Z M 0.683594 166 " clip-rule="nonzero"/></clipPath></defs><g clip-path="url(#3c5bcb356d)"><path fill="#ffffff" d="M 104.660156 8.113281 L 6.832031 38.890625 C 6.167969 39.097656 6.066406 39.628906 6.066406 39.925781 C 6.066406 40.21875 6.167969 40.75 6.832031 40.957031 L 104.660156 71.734375 C 111.933594 74.027344 119.617188 74.027344 126.890625 71.734375 L 224.71875 40.957031 C 225.382812 40.75 225.480469 40.21875 225.480469 39.925781 C 225.480469 39.628906 225.382812 39.097656 224.71875 38.890625 L 126.890625 8.113281 C 119.617188 5.824219 111.933594 5.824219 104.660156 8.113281 Z M 115.769531 78.761719 C 111.5 78.761719 107.222656 78.105469 103.070312 76.792969 L 5.242188 46.019531 C 2.519531 45.164062 0.765625 42.773438 0.765625 39.925781 C 0.765625 37.074219 2.519531 34.683594 5.242188 33.828125 L 103.070312 3.042969 L 103.863281 5.578125 L 103.070312 3.042969 C 111.375 0.429688 120.167969 0.429688 128.480469 3.042969 L 226.308594 33.828125 C 229.03125 34.683594 230.785156 37.074219 230.785156 39.925781 C 230.785156 42.773438 229.03125 45.164062 226.308594 46.019531 L 128.480469 76.792969 C 124.328125 78.105469 120.050781 78.761719 115.769531 78.761719 " fill-opacity="1" fill-rule="nonzero"/></g><path fill="#dc3545" d="M 101.039062 21.894531 C 98.171875 20.996094 95.214844 20.519531 92.222656 20.417969 L 107.0625 15.753906 C 109.890625 14.863281 112.8125 14.414062 115.769531 14.414062 C 118.726562 14.414062 121.667969 14.863281 124.480469 15.753906 L 201.320312 39.925781 L 179.832031 46.683594 L 101.039062 21.894531 " fill-opacity="1" fill-rule="nonzero"/><path fill="#ffffff" d="M 115.769531 150.652344 C 92.824219 150.652344 69.886719 145.796875 48.511719 136.109375 C 43.578125 133.871094 40.386719 128.910156 40.386719 123.46875 L 40.386719 55.824219 C 40.386719 54.359375 41.570312 53.171875 43.039062 53.171875 C 44.503906 53.171875 45.6875 54.359375 45.6875 55.824219 L 45.6875 123.46875 C 45.6875 126.832031 47.65625 129.898438 50.703125 131.273438 C 92.050781 150.03125 139.480469 150.03125 180.835938 131.273438 C 183.882812 129.898438 185.84375 126.832031 185.84375 123.46875 L 185.863281 55.824219 C 185.863281 54.359375 187.046875 53.171875 188.511719 53.171875 C 189.976562 53.171875 191.164062 54.359375 191.164062 55.824219 L 191.15625 123.46875 C 191.15625 128.910156 187.964844 133.871094 183.03125 136.109375 C 161.65625 145.796875 138.710938 150.652344 115.769531 150.652344 " fill-opacity="1" fill-rule="nonzero"/><path fill="#ffffff" d="M 14.902344 142.652344 C 13.4375 142.652344 12.253906 141.464844 12.253906 140 L 12.253906 47.691406 C 12.253906 46.226562 13.4375 45.039062 14.902344 45.039062 C 16.367188 45.039062 17.554688 46.226562 17.554688 47.691406 L 17.554688 140 C 17.554688 141.464844 16.367188 142.652344 14.902344 142.652344 " fill-opacity="1" fill-rule="nonzero"/><path fill="#ffffff" d="M 14.902344 142.652344 C 10.921875 142.652344 7.6875 145.886719 7.6875 149.871094 C 7.6875 153.851562 10.921875 157.085938 14.902344 157.085938 C 18.886719 157.085938 22.121094 153.851562 22.121094 149.871094 C 22.121094 145.886719 18.886719 142.652344 14.902344 142.652344 Z M 14.902344 162.390625 C 8 162.390625 2.382812 156.773438 2.382812 149.871094 C 2.382812 142.964844 8 137.347656 14.902344 137.347656 C 21.808594 137.347656 27.425781 142.964844 27.425781 149.871094 C 27.425781 156.773438 21.808594 162.390625 14.902344 162.390625 " fill-opacity="1" fill-rule="nonzero"/><g clip-path="url(#5e27869275)"><path fill="#ffffff" d="M 29.125 197.425781 L 0.683594 197.425781 L 0.683594 194.773438 C 0.683594 183.808594 4.164062 174.804688 7.183594 168.179688 C 7.792969 166.839844 9.367188 166.253906 10.699219 166.867188 C 12.035156 167.476562 12.621094 169.050781 12.007812 170.378906 C 9.457031 175.960938 6.570312 183.351562 6.066406 192.113281 L 23.738281 192.113281 C 23.234375 183.351562 20.351562 175.960938 17.796875 170.378906 C 17.1875 169.050781 17.769531 167.476562 19.109375 166.867188 C 20.441406 166.253906 22.011719 166.839844 22.625 168.179688 C 25.652344 174.804688 29.125 183.808594 29.125 194.773438 L 29.125 197.425781 " fill-opacity="1" fill-rule="nonzero"/></g><g fill="#dc3545" fill-opacity="1"><g transform="translate(138.258952, 28.164571)"><g><path d="M 1.03125 -1.25 C 1.03125 -1.75 1.160156 -2.125 1.421875 -2.375 C 1.679688 -2.625 2.066406 -2.75 2.578125 -2.75 C 3.054688 -2.75 3.425781 -2.617188 3.6875 -2.359375 C 3.957031 -2.097656 4.09375 -1.726562 4.09375 -1.25 C 4.09375 -0.789062 3.957031 -0.425781 3.6875 -0.15625 C 3.425781 0.101562 3.054688 0.234375 2.578125 0.234375 C 2.078125 0.234375 1.691406 0.101562 1.421875 -0.15625 C 1.160156 -0.414062 1.03125 -0.78125 1.03125 -1.25 Z M 1.03125 -1.25 "/></g></g></g></svg>