<svg xmlns="http://www.w3.org/2000/svg" xmlns:xlink="http://www.w3.org/1999/xlink" width="308" zoomAndPan="magnify" viewBox="0 0 230.87999 159.750002" height="213" preserveAspectRatio="xMidYMid meet" version="1.0"><defs><g/><clipPath id="17882e3dbc"><path d="M 0.121094 0 L 230.011719 0 L 230.011719 159 L 0.121094 159 Z M 0.121094 0 " clip-rule="nonzero"/></clipPath></defs><path fill="#dc3545" d="M 117.390625 93.871094 C 115.949219 93.871094 114.523438 93.648438 113.105469 93.1875 L 47.433594 71.285156 C 46.242188 74.378906 45.648438 78.367188 45.648438 84.183594 C 49.933594 86.664062 54.109375 91.652344 54.109375 100.25 C 54.109375 105.519531 51.476562 109.308594 49.210938 111.824219 C 58.953125 123.128906 85.765625 131.253906 117.398438 131.253906 C 157.261719 131.253906 189.566406 118.355469 189.566406 102.46875 C 189.566406 98.960938 189.566406 84.625 189.566406 70.554688 L 121.65625 93.1875 C 120.257812 93.648438 118.835938 93.871094 117.390625 93.871094 Z M 117.390625 93.871094 " fill-opacity="1" fill-rule="nonzero"/><g clip-path="url(#17882e3dbc)"><path fill="#dc3545" d="M 227.066406 37.058594 L 118.816406 0.976562 C 117.878906 0.667969 116.894531 0.667969 115.964844 0.976562 L 7.714844 37.058594 C 5.875 37.671875 4.632812 39.394531 4.632812 41.335938 C 4.632812 43.273438 5.875 45 7.714844 45.613281 L 32.53125 53.882812 C 26.820312 60.503906 23.503906 69.839844 22.285156 85.03125 C 18.359375 86.882812 15.589844 90.824219 15.589844 95.460938 C 15.589844 100.179688 18.421875 104.191406 22.464844 106.007812 C 18.9375 136.722656 0.542969 146.960938 0.542969 149.585938 C 0.542969 150.921875 14.789062 158.605469 18.171875 158.605469 C 23.402344 158.605469 35.960938 149.730469 35.960938 130.558594 C 35.960938 119.265625 34.941406 110.734375 33.867188 104.679688 C 36.761719 102.578125 38.773438 99.320312 38.773438 95.460938 C 38.773438 91.246094 36.421875 87.730469 33.054688 85.699219 C 34.957031 60.632812 42.707031 56.4375 61.453125 48.660156 C 63.328125 47.921875 66.875 46.488281 68.921875 45.636719 C 72.601562 44.125 75.929688 42.769531 79.125 41.488281 C 89.433594 37.394531 98.148438 34.101562 104.796875 31.65625 C 112.078125 29.058594 115.34375 28.109375 115.460938 28.074219 C 118.246094 27.136719 121.351562 28.644531 122.308594 31.484375 C 123.253906 34.316406 121.738281 37.382812 118.898438 38.339844 C 118.679688 38.414062 106.015625 42.03125 73.0625 55.652344 C 70.941406 56.527344 68.921875 57.320312 67 58.078125 C 63.09375 59.621094 59.855469 60.855469 57.140625 62.101562 L 115.964844 81.703125 C 116.433594 81.847656 116.902344 81.929688 117.390625 81.929688 C 117.878906 81.929688 118.347656 81.847656 118.816406 81.695312 L 227.066406 45.613281 C 228.90625 45 230.152344 43.273438 230.152344 41.335938 C 230.152344 39.394531 228.90625 37.671875 227.066406 37.058594 Z M 227.066406 37.058594 " fill-opacity="1" fill-rule="nonzero"/></g><g fill="#dc3545" fill-opacity="1"><g transform="translate(115.140466, 107.981019)"><g><path d="M 1.03125 -1.25 C 1.03125 -1.738281 1.160156 -2.109375 1.421875 -2.359375 C 1.679688 -2.617188 2.066406 -2.75 2.578125 -2.75 C 3.054688 -2.75 3.425781 -2.617188 3.6875 -2.359375 C 3.957031 -2.097656 4.09375 -1.726562 4.09375 -1.25 C 4.09375 -0.789062 3.957031 -0.425781 3.6875 -0.15625 C 3.425781 0.101562 3.054688 0.234375 2.578125 0.234375 C 2.078125 0.234375 1.691406 0.101562 1.421875 -0.15625 C 1.160156 -0.414062 1.03125 -0.78125 1.03125 -1.25 Z M 1.03125 -1.25 "/></g></g></g></svg>