<svg xmlns="http://www.w3.org/2000/svg" xmlns:xlink="http://www.w3.org/1999/xlink" width="1424" zoomAndPan="magnify" viewBox="0 0 1068 693.000001" height="924" preserveAspectRatio="xMidYMid meet" version="1.0"><defs><g/><clipPath id="35c4ec6539"><path d="M 121 481 L 239.769531 481 L 239.769531 591.515625 L 121 591.515625 Z M 121 481 " clip-rule="nonzero"/></clipPath><clipPath id="f90275d486"><path d="M 82.496094 450 L 172 450 L 172 520 L 82.496094 520 Z M 82.496094 450 " clip-rule="nonzero"/></clipPath><clipPath id="c2a4f0f970"><path d="M 82.496094 435.738281 L 172 435.738281 L 172 447 L 82.496094 447 Z M 82.496094 435.738281 " clip-rule="nonzero"/></clipPath><clipPath id="a0a501eb5f"><path d="M 332 685 L 369 685 L 369 691.085938 L 332 691.085938 Z M 332 685 " clip-rule="nonzero"/></clipPath><clipPath id="3bdfb46cc1"><path d="M 465 685 L 502 685 L 502 691.085938 L 465 691.085938 Z M 465 685 " clip-rule="nonzero"/></clipPath><clipPath id="1d14c49c81"><path d="M 377 685 L 413 685 L 413 691.085938 L 377 691.085938 Z M 377 685 " clip-rule="nonzero"/></clipPath><clipPath id="388e24e820"><path d="M 421 685 L 458 685 L 458 691.085938 L 421 691.085938 Z M 421 685 " clip-rule="nonzero"/></clipPath><clipPath id="d026b118ee"><path d="M 328 547.292969 L 503 547.292969 L 503 659 L 328 659 Z M 328 547.292969 " clip-rule="nonzero"/></clipPath><clipPath id="19f8f45817"><path d="M 467 547.292969 L 506 547.292969 L 506 584 L 467 584 Z M 467 547.292969 " clip-rule="nonzero"/></clipPath><clipPath id="32defc6c8f"><path d="M 669 435.738281 L 718 435.738281 L 718 485 L 669 485 Z M 669 435.738281 " clip-rule="nonzero"/></clipPath><clipPath id="d10af129f8"><path d="M 612.140625 490 L 669 490 L 669 547 L 612.140625 547 Z M 612.140625 490 " clip-rule="nonzero"/></clipPath><clipPath id="f939155583"><path d="M 724 489 L 775.402344 489 L 775.402344 548 L 724 548 Z M 724 489 " clip-rule="nonzero"/></clipPath><clipPath id="d4f9798972"><path d="M 615.535156 207.230469 L 746 207.230469 L 746 363 L 615.535156 363 Z M 615.535156 207.230469 " clip-rule="nonzero"/></clipPath><clipPath id="835ea76902"><path d="M 726 318 L 778.800781 318 L 778.800781 370.492188 L 726 370.492188 Z M 726 318 " clip-rule="nonzero"/></clipPath><clipPath id="aa7192ceaf"><path d="M 477.292969 0.464844 L 615 0.464844 L 615 156.988281 L 477.292969 156.988281 Z M 477.292969 0.464844 " clip-rule="nonzero"/></clipPath><clipPath id="9d84972b05"><path d="M 569 10 L 630.070312 10 L 630.070312 72 L 569 72 Z M 569 10 " clip-rule="nonzero"/></clipPath><clipPath id="be91ce1bef"><path d="M 175 138 L 304 138 L 304 143.507812 L 175 143.507812 Z M 175 138 " clip-rule="nonzero"/></clipPath><clipPath id="dbdbbd337c"><path d="M 220 0.464844 L 259 0.464844 L 259 40 L 220 40 Z M 220 0.464844 " clip-rule="nonzero"/></clipPath><clipPath id="05a68bbe40"><path d="M 145.722656 39 L 214 39 L 214 114 L 145.722656 114 Z M 145.722656 39 " clip-rule="nonzero"/></clipPath><clipPath id="7010a46c24"><path d="M 265 39 L 332.953125 39 L 332.953125 114 L 265 114 Z M 265 39 " clip-rule="nonzero"/></clipPath><clipPath id="a6466a40f1"><path d="M 32 298 L 160.621094 298 L 160.621094 363 L 32 363 Z M 32 298 " clip-rule="nonzero"/></clipPath><clipPath id="6bf79d73e1"><path d="M 1.101562 296 L 37 296 L 37 366.75 L 1.101562 366.75 Z M 1.101562 296 " clip-rule="nonzero"/></clipPath><clipPath id="3129fa6617"><path d="M 83 207.230469 L 110 207.230469 L 110 237 L 83 237 Z M 83 207.230469 " clip-rule="nonzero"/></clipPath></defs><g clip-path="url(#35c4ec6539)"><path fill="#4377c3" d="M 231.894531 481.066406 L 177.753906 481.066406 L 177.753906 489.832031 L 230.988281 489.832031 L 230.988281 556.425781 L 129.957031 556.425781 L 129.957031 525.824219 L 121.171875 525.824219 L 121.171875 557.324219 C 121.171875 558.949219 121.667969 560.464844 122.519531 561.71875 C 123.230469 562.765625 124.183594 563.636719 125.296875 564.242188 C 126.414062 564.847656 127.695312 565.191406 129.050781 565.191406 L 176.511719 565.191406 L 176.511719 575.847656 C 170.578125 576.21875 165.449219 577.402344 162.097656 579.054688 C 159.484375 580.34375 157.953125 581.917969 157.953125 583.621094 C 157.953125 587.980469 168.03125 591.515625 180.472656 591.515625 C 192.910156 591.515625 202.992188 587.980469 202.992188 583.621094 C 202.992188 581.433594 200.457031 579.457031 196.363281 578.027344 C 193.179688 576.914062 189.046875 576.136719 184.433594 575.847656 L 184.433594 565.191406 L 231.894531 565.191406 C 234.605469 565.191406 237.007812 563.8125 238.421875 561.71875 C 239.277344 560.464844 239.769531 558.949219 239.769531 557.324219 L 239.769531 488.925781 C 239.769531 484.597656 236.234375 481.066406 231.894531 481.066406 " fill-opacity="1" fill-rule="nonzero"/></g><path fill="#4377c3" d="M 116.742188 473.855469 L 97.183594 485.121094 C 97.023438 485.214844 97.023438 485.445312 97.183594 485.539062 L 116.742188 496.808594 C 116.902344 496.902344 117.105469 496.78125 117.105469 496.597656 L 117.105469 491.269531 C 117.105469 491.179688 117.0625 491.105469 116.984375 491.058594 L 107.402344 485.539062 C 107.238281 485.445312 107.238281 485.214844 107.402344 485.121094 L 116.984375 479.601562 C 117.0625 479.554688 117.105469 479.476562 117.105469 479.390625 L 117.105469 474.0625 C 117.105469 473.878906 116.902344 473.761719 116.742188 473.855469 " fill-opacity="1" fill-rule="nonzero"/><path fill="#4377c3" d="M 137.476562 496.808594 L 157.039062 485.539062 C 157.199219 485.445312 157.199219 485.214844 157.039062 485.121094 L 137.476562 473.855469 C 137.316406 473.761719 137.117188 473.878906 137.117188 474.0625 L 137.117188 479.390625 C 137.117188 479.476562 137.164062 479.554688 137.234375 479.601562 L 146.824219 485.121094 C 146.984375 485.214844 146.984375 485.445312 146.824219 485.539062 L 137.234375 491.058594 C 137.164062 491.105469 137.117188 491.179688 137.117188 491.269531 L 137.117188 496.597656 C 137.117188 496.78125 137.316406 496.902344 137.476562 496.808594 " fill-opacity="1" fill-rule="nonzero"/><path fill="#4377c3" d="M 135.464844 469.613281 L 130.464844 469.484375 L 118.753906 501.050781 L 123.722656 501.265625 L 135.464844 469.613281 " fill-opacity="1" fill-rule="nonzero"/><g clip-path="url(#f90275d486)"><path fill="#4377c3" d="M 89.292969 457.722656 L 164.929688 457.722656 L 164.929688 513.027344 L 89.292969 513.027344 Z M 129.957031 519.816406 L 171.730469 519.816406 L 171.730469 450.941406 L 82.492188 450.941406 L 82.492188 519.816406 L 129.957031 519.816406 " fill-opacity="1" fill-rule="nonzero"/></g><g clip-path="url(#c2a4f0f970)"><path fill="#4377c3" d="M 158.332031 443.566406 C 157.082031 443.566406 156.070312 442.554688 156.070312 441.304688 C 156.070312 440.0625 157.082031 439.050781 158.332031 439.050781 C 159.578125 439.050781 160.589844 440.0625 160.589844 441.304688 C 160.589844 442.554688 159.578125 443.566406 158.332031 443.566406 Z M 149.324219 443.566406 C 148.078125 443.566406 147.0625 442.554688 147.0625 441.304688 C 147.0625 440.0625 148.078125 439.050781 149.324219 439.050781 C 150.570312 439.050781 151.582031 440.0625 151.582031 441.304688 C 151.582031 442.554688 150.570312 443.566406 149.324219 443.566406 Z M 140.320312 443.566406 C 139.070312 443.566406 138.058594 442.554688 138.058594 441.304688 C 138.058594 440.0625 139.070312 439.050781 140.320312 439.050781 C 141.570312 439.050781 142.578125 440.0625 142.578125 441.304688 C 142.578125 442.554688 141.570312 443.566406 140.320312 443.566406 Z M 131.867188 443.421875 L 95.75 443.421875 C 94.582031 443.421875 93.632812 442.476562 93.632812 441.304688 C 93.632812 440.140625 94.582031 439.195312 95.75 439.195312 L 131.867188 439.195312 C 133.035156 439.195312 133.980469 440.140625 133.980469 441.304688 C 133.980469 442.476562 133.035156 443.421875 131.867188 443.421875 Z M 160.570312 435.738281 L 93.65625 435.738281 C 87.488281 435.738281 82.492188 440.726562 82.492188 446.875 L 171.730469 446.875 C 171.730469 440.726562 166.730469 435.738281 160.570312 435.738281 " fill-opacity="1" fill-rule="nonzero"/></g><g clip-path="url(#a0a501eb5f)"><path fill="#ffffff" d="M 332.527344 685.542969 L 368.226562 685.542969 L 368.226562 691.433594 L 332.527344 691.433594 Z M 332.527344 685.542969 " fill-opacity="1" fill-rule="nonzero"/></g><path fill="#ffb733" d="M 332.527344 685.121094 L 368.226562 685.121094 L 368.226562 690.398438 L 332.527344 690.398438 Z M 332.527344 685.121094 " fill-opacity="1" fill-rule="nonzero"/><path fill="#ffffff" d="M 332.527344 679.230469 L 368.226562 679.230469 L 368.226562 685.121094 L 332.527344 685.121094 Z M 332.527344 679.230469 " fill-opacity="1" fill-rule="nonzero"/><path fill="#ffb733" d="M 332.527344 678.804688 L 368.226562 678.804688 L 368.226562 684.082031 L 332.527344 684.082031 Z M 332.527344 678.804688 " fill-opacity="1" fill-rule="nonzero"/><g clip-path="url(#3bdfb46cc1)"><path fill="#ffffff" d="M 465.976562 685.542969 L 501.671875 685.542969 L 501.671875 691.433594 L 465.976562 691.433594 Z M 465.976562 685.542969 " fill-opacity="1" fill-rule="nonzero"/></g><path fill="#ffb733" d="M 465.976562 685.121094 L 501.671875 685.121094 L 501.671875 690.398438 L 465.976562 690.398438 Z M 465.976562 685.121094 " fill-opacity="1" fill-rule="nonzero"/><path fill="#ffffff" d="M 465.976562 679.230469 L 501.671875 679.230469 L 501.671875 685.121094 L 465.976562 685.121094 Z M 465.976562 679.230469 " fill-opacity="1" fill-rule="nonzero"/><path fill="#ffb733" d="M 465.976562 678.804688 L 501.671875 678.804688 L 501.671875 684.082031 L 465.976562 684.082031 Z M 465.976562 678.804688 " fill-opacity="1" fill-rule="nonzero"/><path fill="#ffffff" d="M 465.976562 672.914062 L 501.671875 672.914062 L 501.671875 678.804688 L 465.976562 678.804688 Z M 465.976562 672.914062 " fill-opacity="1" fill-rule="nonzero"/><path fill="#ffb733" d="M 465.976562 672.492188 L 501.671875 672.492188 L 501.671875 677.769531 L 465.976562 677.769531 Z M 465.976562 672.492188 " fill-opacity="1" fill-rule="nonzero"/><path fill="#ffffff" d="M 465.976562 666.605469 L 501.671875 666.605469 L 501.671875 672.492188 L 465.976562 672.492188 Z M 465.976562 666.605469 " fill-opacity="1" fill-rule="nonzero"/><path fill="#ffb733" d="M 465.976562 666.179688 L 501.671875 666.179688 L 501.671875 671.457031 L 465.976562 671.457031 Z M 465.976562 666.179688 " fill-opacity="1" fill-rule="nonzero"/><path fill="#ffffff" d="M 465.976562 660.289062 L 501.671875 660.289062 L 501.671875 666.179688 L 465.976562 666.179688 Z M 465.976562 660.289062 " fill-opacity="1" fill-rule="nonzero"/><path fill="#ffb733" d="M 465.976562 659.867188 L 501.671875 659.867188 L 501.671875 665.144531 L 465.976562 665.144531 Z M 465.976562 659.867188 " fill-opacity="1" fill-rule="nonzero"/><path fill="#ffffff" d="M 465.976562 653.976562 L 501.671875 653.976562 L 501.671875 659.863281 L 465.976562 659.863281 Z M 465.976562 653.976562 " fill-opacity="1" fill-rule="nonzero"/><path fill="#ffb733" d="M 465.976562 653.550781 L 501.671875 653.550781 L 501.671875 658.828125 L 465.976562 658.828125 Z M 465.976562 653.550781 " fill-opacity="1" fill-rule="nonzero"/><path fill="#ffffff" d="M 465.976562 647.660156 L 501.671875 647.660156 L 501.671875 653.550781 L 465.976562 653.550781 Z M 465.976562 647.660156 " fill-opacity="1" fill-rule="nonzero"/><path fill="#ffb733" d="M 465.976562 647.238281 L 501.671875 647.238281 L 501.671875 652.515625 L 465.976562 652.515625 Z M 465.976562 647.238281 " fill-opacity="1" fill-rule="nonzero"/><path fill="#ffffff" d="M 465.976562 641.347656 L 501.671875 641.347656 L 501.671875 647.238281 L 465.976562 647.238281 Z M 465.976562 641.347656 " fill-opacity="1" fill-rule="nonzero"/><path fill="#ffb733" d="M 465.976562 640.925781 L 501.671875 640.925781 L 501.671875 646.203125 L 465.976562 646.203125 Z M 465.976562 640.925781 " fill-opacity="1" fill-rule="nonzero"/><path fill="#ffffff" d="M 465.976562 635.03125 L 501.671875 635.03125 L 501.671875 640.925781 L 465.976562 640.925781 Z M 465.976562 635.03125 " fill-opacity="1" fill-rule="nonzero"/><path fill="#ffb733" d="M 465.976562 634.609375 L 501.671875 634.609375 L 501.671875 639.886719 L 465.976562 639.886719 Z M 465.976562 634.609375 " fill-opacity="1" fill-rule="nonzero"/><path fill="#ffffff" d="M 465.976562 628.71875 L 501.671875 628.71875 L 501.671875 634.609375 L 465.976562 634.609375 Z M 465.976562 628.71875 " fill-opacity="1" fill-rule="nonzero"/><path fill="#ffb733" d="M 465.976562 628.296875 L 501.671875 628.296875 L 501.671875 633.574219 L 465.976562 633.574219 Z M 465.976562 628.296875 " fill-opacity="1" fill-rule="nonzero"/><path fill="#ffffff" d="M 465.976562 622.402344 L 501.671875 622.402344 L 501.671875 628.296875 L 465.976562 628.296875 Z M 465.976562 622.402344 " fill-opacity="1" fill-rule="nonzero"/><path fill="#ffb733" d="M 465.976562 621.984375 L 501.671875 621.984375 L 501.671875 627.257812 L 465.976562 627.257812 Z M 465.976562 621.984375 " fill-opacity="1" fill-rule="nonzero"/><path fill="#ffffff" d="M 465.976562 616.09375 L 501.671875 616.09375 L 501.671875 621.984375 L 465.976562 621.984375 Z M 465.976562 616.09375 " fill-opacity="1" fill-rule="nonzero"/><path fill="#ffb733" d="M 465.976562 615.667969 L 501.671875 615.667969 L 501.671875 620.949219 L 465.976562 620.949219 Z M 465.976562 615.667969 " fill-opacity="1" fill-rule="nonzero"/><path fill="#ffffff" d="M 465.976562 609.777344 L 501.671875 609.777344 L 501.671875 615.667969 L 465.976562 615.667969 Z M 465.976562 609.777344 " fill-opacity="1" fill-rule="nonzero"/><path fill="#ffb733" d="M 465.976562 609.355469 L 501.671875 609.355469 L 501.671875 614.628906 L 465.976562 614.628906 Z M 465.976562 609.355469 " fill-opacity="1" fill-rule="nonzero"/><path fill="#ffffff" d="M 465.976562 603.46875 L 501.671875 603.46875 L 501.671875 609.355469 L 465.976562 609.355469 Z M 465.976562 603.46875 " fill-opacity="1" fill-rule="nonzero"/><path fill="#ffb733" d="M 465.976562 603.042969 L 501.671875 603.042969 L 501.671875 608.320312 L 465.976562 608.320312 Z M 465.976562 603.042969 " fill-opacity="1" fill-rule="nonzero"/><g clip-path="url(#1d14c49c81)"><path fill="#ffffff" d="M 377.011719 685.542969 L 412.710938 685.542969 L 412.710938 691.433594 L 377.011719 691.433594 Z M 377.011719 685.542969 " fill-opacity="1" fill-rule="nonzero"/></g><path fill="#ffb733" d="M 377.011719 685.121094 L 412.710938 685.121094 L 412.710938 690.398438 L 377.011719 690.398438 Z M 377.011719 685.121094 " fill-opacity="1" fill-rule="nonzero"/><path fill="#ffffff" d="M 377.011719 679.230469 L 412.710938 679.230469 L 412.710938 685.121094 L 377.011719 685.121094 Z M 377.011719 679.230469 " fill-opacity="1" fill-rule="nonzero"/><path fill="#ffb733" d="M 377.011719 678.804688 L 412.710938 678.804688 L 412.710938 684.082031 L 377.011719 684.082031 Z M 377.011719 678.804688 " fill-opacity="1" fill-rule="nonzero"/><path fill="#ffffff" d="M 377.011719 672.917969 L 412.710938 672.917969 L 412.710938 678.808594 L 377.011719 678.808594 Z M 377.011719 672.917969 " fill-opacity="1" fill-rule="nonzero"/><path fill="#ffb733" d="M 377.011719 672.492188 L 412.710938 672.492188 L 412.710938 677.773438 L 377.011719 677.773438 Z M 377.011719 672.492188 " fill-opacity="1" fill-rule="nonzero"/><path fill="#ffffff" d="M 377.011719 666.605469 L 412.710938 666.605469 L 412.710938 672.492188 L 377.011719 672.492188 Z M 377.011719 666.605469 " fill-opacity="1" fill-rule="nonzero"/><path fill="#ffb733" d="M 377.011719 666.183594 L 412.710938 666.183594 L 412.710938 671.460938 L 377.011719 671.460938 Z M 377.011719 666.183594 " fill-opacity="1" fill-rule="nonzero"/><path fill="#ffffff" d="M 377.011719 660.292969 L 412.710938 660.292969 L 412.710938 666.183594 L 377.011719 666.183594 Z M 377.011719 660.292969 " fill-opacity="1" fill-rule="nonzero"/><path fill="#ffb733" d="M 377.011719 659.867188 L 412.710938 659.867188 L 412.710938 665.148438 L 377.011719 665.148438 Z M 377.011719 659.867188 " fill-opacity="1" fill-rule="nonzero"/><path fill="#ffffff" d="M 377.011719 653.980469 L 412.710938 653.980469 L 412.710938 659.871094 L 377.011719 659.871094 Z M 377.011719 653.980469 " fill-opacity="1" fill-rule="nonzero"/><path fill="#ffb733" d="M 377.011719 653.554688 L 412.710938 653.554688 L 412.710938 658.832031 L 377.011719 658.832031 Z M 377.011719 653.554688 " fill-opacity="1" fill-rule="nonzero"/><g clip-path="url(#388e24e820)"><path fill="#ffffff" d="M 421.496094 685.542969 L 457.191406 685.542969 L 457.191406 691.433594 L 421.496094 691.433594 Z M 421.496094 685.542969 " fill-opacity="1" fill-rule="nonzero"/></g><path fill="#ffb733" d="M 421.496094 685.121094 L 457.191406 685.121094 L 457.191406 690.398438 L 421.496094 690.398438 Z M 421.496094 685.121094 " fill-opacity="1" fill-rule="nonzero"/><path fill="#ffffff" d="M 421.496094 679.230469 L 457.191406 679.230469 L 457.191406 685.121094 L 421.496094 685.121094 Z M 421.496094 679.230469 " fill-opacity="1" fill-rule="nonzero"/><path fill="#ffb733" d="M 421.496094 678.804688 L 457.191406 678.804688 L 457.191406 684.082031 L 421.496094 684.082031 Z M 421.496094 678.804688 " fill-opacity="1" fill-rule="nonzero"/><path fill="#ffffff" d="M 421.496094 672.917969 L 457.191406 672.917969 L 457.191406 678.808594 L 421.496094 678.808594 Z M 421.496094 672.917969 " fill-opacity="1" fill-rule="nonzero"/><path fill="#ffb733" d="M 421.496094 672.492188 L 457.191406 672.492188 L 457.191406 677.773438 L 421.496094 677.773438 Z M 421.496094 672.492188 " fill-opacity="1" fill-rule="nonzero"/><path fill="#ffffff" d="M 421.496094 666.605469 L 457.191406 666.605469 L 457.191406 672.492188 L 421.496094 672.492188 Z M 421.496094 666.605469 " fill-opacity="1" fill-rule="nonzero"/><path fill="#ffb733" d="M 421.496094 666.183594 L 457.191406 666.183594 L 457.191406 671.460938 L 421.496094 671.460938 Z M 421.496094 666.183594 " fill-opacity="1" fill-rule="nonzero"/><path fill="#ffffff" d="M 421.496094 660.292969 L 457.191406 660.292969 L 457.191406 666.183594 L 421.496094 666.183594 Z M 421.496094 660.292969 " fill-opacity="1" fill-rule="nonzero"/><path fill="#ffb733" d="M 421.496094 659.867188 L 457.191406 659.867188 L 457.191406 665.148438 L 421.496094 665.148438 Z M 421.496094 659.867188 " fill-opacity="1" fill-rule="nonzero"/><path fill="#ffffff" d="M 421.496094 653.980469 L 457.191406 653.980469 L 457.191406 659.871094 L 421.496094 659.871094 Z M 421.496094 653.980469 " fill-opacity="1" fill-rule="nonzero"/><path fill="#ffb733" d="M 421.496094 653.554688 L 457.191406 653.554688 L 457.191406 658.832031 L 421.496094 658.832031 Z M 421.496094 653.554688 " fill-opacity="1" fill-rule="nonzero"/><path fill="#ffffff" d="M 421.496094 647.664062 L 457.191406 647.664062 L 457.191406 653.554688 L 421.496094 653.554688 Z M 421.496094 647.664062 " fill-opacity="1" fill-rule="nonzero"/><path fill="#ffb733" d="M 421.496094 647.246094 L 457.191406 647.246094 L 457.191406 652.523438 L 421.496094 652.523438 Z M 421.496094 647.246094 " fill-opacity="1" fill-rule="nonzero"/><path fill="#ffffff" d="M 421.496094 641.351562 L 457.191406 641.351562 L 457.191406 647.242188 L 421.496094 647.242188 Z M 421.496094 641.351562 " fill-opacity="1" fill-rule="nonzero"/><path fill="#ffb733" d="M 421.496094 640.933594 L 457.191406 640.933594 L 457.191406 646.207031 L 421.496094 646.207031 Z M 421.496094 640.933594 " fill-opacity="1" fill-rule="nonzero"/><path fill="#ffffff" d="M 421.496094 635.042969 L 457.191406 635.042969 L 457.191406 640.933594 L 421.496094 640.933594 Z M 421.496094 635.042969 " fill-opacity="1" fill-rule="nonzero"/><path fill="#ffb733" d="M 421.496094 634.621094 L 457.191406 634.621094 L 457.191406 639.894531 L 421.496094 639.894531 Z M 421.496094 634.621094 " fill-opacity="1" fill-rule="nonzero"/><path fill="#ffffff" d="M 421.496094 628.726562 L 457.191406 628.726562 L 457.191406 634.621094 L 421.496094 634.621094 Z M 421.496094 628.726562 " fill-opacity="1" fill-rule="nonzero"/><path fill="#ffb733" d="M 421.496094 628.308594 L 457.191406 628.308594 L 457.191406 633.582031 L 421.496094 633.582031 Z M 421.496094 628.308594 " fill-opacity="1" fill-rule="nonzero"/><g clip-path="url(#d026b118ee)"><path fill="#ffb733" d="M 332.523438 658.800781 C 330.53125 658.800781 328.816406 657.375 328.449219 655.410156 C 328.035156 653.160156 329.527344 650.992188 331.769531 650.574219 C 366.980469 644.035156 405.125 626.851562 439.183594 602.179688 C 460.886719 586.460938 479.871094 568.65625 495.601562 549.253906 C 496.394531 548.277344 497.570312 547.71875 498.824219 547.71875 C 499.769531 547.71875 500.699219 548.050781 501.4375 548.648438 C 502.296875 549.34375 502.835938 550.335938 502.945312 551.4375 C 503.0625 552.539062 502.742188 553.621094 502.042969 554.480469 C 485.855469 574.441406 466.34375 592.753906 444.050781 608.898438 C 409.015625 634.273438 369.679688 651.972656 333.285156 658.734375 C 333.03125 658.777344 332.777344 658.800781 332.523438 658.800781 Z M 332.523438 658.800781 " fill-opacity="1" fill-rule="nonzero"/></g><g clip-path="url(#19f8f45817)"><path fill="#ffb733" d="M 501.648438 583.109375 C 499.519531 583.109375 497.75 581.507812 497.527344 579.390625 L 495.128906 556.421875 L 472.160156 558.820312 C 472.015625 558.835938 471.871094 558.84375 471.726562 558.84375 C 469.597656 558.84375 467.824219 557.246094 467.605469 555.128906 C 467.488281 554.023438 467.808594 552.945312 468.507812 552.082031 C 469.203125 551.222656 470.199219 550.683594 471.300781 550.570312 L 502.515625 547.308594 L 505.78125 578.53125 C 506.015625 580.804688 504.359375 582.847656 502.085938 583.085938 C 501.9375 583.101562 501.789062 583.109375 501.648438 583.109375 Z M 501.648438 583.109375 " fill-opacity="1" fill-rule="nonzero"/></g><g clip-path="url(#32defc6c8f)"><path fill="#185c99" d="M 676.613281 477.089844 C 676.613281 477.089844 676.742188 477.214844 676.742188 477.214844 C 681.074219 481.546875 687.0625 484.222656 693.6875 484.222656 C 700.316406 484.222656 706.304688 481.546875 710.636719 477.214844 C 710.636719 477.214844 710.765625 477.089844 710.765625 477.089844 C 710.765625 477.089844 710.890625 476.960938 710.890625 476.960938 C 715.222656 472.628906 717.898438 466.640625 717.898438 460.015625 C 717.898438 453.386719 715.222656 447.398438 710.890625 443.066406 C 710.890625 443.066406 710.765625 442.941406 710.765625 442.941406 C 710.765625 442.941406 710.636719 442.8125 710.636719 442.8125 C 706.304688 438.480469 700.316406 435.804688 693.6875 435.804688 C 687.0625 435.804688 681.074219 438.480469 676.742188 442.8125 C 676.742188 442.8125 676.613281 442.941406 676.613281 442.941406 C 676.613281 442.941406 676.488281 443.066406 676.488281 443.066406 C 672.15625 447.398438 669.480469 453.386719 669.480469 460.015625 C 669.480469 466.640625 672.15625 472.628906 676.488281 476.960938 C 676.488281 476.960938 676.488281 477.089844 676.613281 477.089844 Z M 677.125 457.464844 L 674.703125 457.464844 C 675.214844 454.152344 676.488281 450.96875 678.398438 448.417969 L 680.054688 450.074219 C 680.566406 450.585938 681.203125 450.839844 681.839844 450.839844 C 682.476562 450.839844 683.113281 450.585938 683.625 450.074219 C 684.640625 449.054688 684.640625 447.527344 683.625 446.507812 L 681.964844 444.851562 C 684.515625 442.941406 687.574219 441.539062 691.011719 441.15625 L 691.011719 443.449219 C 691.011719 444.851562 692.160156 445.996094 693.5625 445.996094 C 694.964844 445.996094 696.109375 444.851562 696.109375 443.449219 L 696.109375 441.027344 C 699.421875 441.539062 702.609375 442.8125 705.15625 444.722656 L 703.5 446.378906 C 702.480469 447.398438 702.480469 448.929688 703.5 449.949219 C 704.011719 450.457031 704.648438 450.710938 705.285156 450.710938 C 705.921875 450.710938 706.558594 450.457031 707.070312 449.949219 L 708.726562 448.292969 C 710.636719 450.839844 712.039062 453.898438 712.421875 457.339844 L 710.253906 457.339844 C 708.851562 457.339844 707.707031 458.484375 707.707031 459.886719 C 707.707031 461.289062 708.851562 462.433594 710.253906 462.433594 L 712.675781 462.433594 C 712.164062 465.75 710.890625 468.933594 708.980469 471.480469 L 707.324219 469.824219 C 706.304688 468.804688 704.773438 468.804688 703.753906 469.824219 C 702.738281 470.84375 702.738281 472.375 703.753906 473.394531 L 705.414062 475.050781 C 702.863281 476.960938 699.804688 478.363281 696.367188 478.746094 L 696.367188 476.578125 C 696.367188 475.175781 695.21875 474.03125 693.816406 474.03125 C 692.414062 474.03125 691.269531 475.175781 691.269531 476.578125 L 691.269531 479 C 687.957031 478.492188 684.769531 477.214844 682.222656 475.304688 L 683.878906 473.648438 C 684.898438 472.628906 684.898438 471.101562 683.878906 470.082031 C 682.859375 469.0625 681.328125 469.0625 680.308594 470.082031 L 678.652344 471.738281 C 676.742188 469.1875 675.339844 466.128906 674.957031 462.691406 L 677.125 462.691406 C 678.527344 462.691406 679.671875 461.542969 679.671875 460.140625 C 679.671875 458.738281 678.527344 457.464844 677.125 457.464844 Z M 677.125 457.464844 " fill-opacity="1" fill-rule="nonzero"/></g><path fill="#185c99" d="M 687.316406 462.5625 L 693.6875 462.5625 C 695.089844 462.5625 696.238281 461.414062 696.238281 460.015625 L 696.238281 452.367188 C 696.238281 450.96875 695.089844 449.820312 693.6875 449.820312 C 692.289062 449.820312 691.140625 450.96875 691.140625 452.367188 L 691.140625 457.464844 L 687.316406 457.464844 C 685.917969 457.464844 684.769531 458.613281 684.769531 460.015625 C 684.769531 461.414062 685.917969 462.5625 687.316406 462.5625 Z M 687.316406 462.5625 " fill-opacity="1" fill-rule="nonzero"/><g clip-path="url(#d10af129f8)"><path fill="#185c99" d="M 615.707031 526.144531 C 616.214844 527.675781 616.855469 529.203125 617.617188 530.734375 C 616.855469 532.898438 617.234375 535.449219 619.019531 537.105469 L 621.824219 539.90625 C 622.96875 541.054688 624.5 541.691406 626.15625 541.691406 C 626.921875 541.691406 627.558594 541.5625 628.320312 541.308594 C 629.722656 542.074219 631.253906 542.710938 632.910156 543.222656 C 633.929688 545.257812 635.96875 546.789062 638.386719 546.789062 L 642.339844 546.789062 C 644.757812 546.789062 646.925781 545.386719 647.816406 543.222656 C 649.347656 542.710938 650.875 542.074219 652.40625 541.308594 C 653.042969 541.5625 653.804688 541.691406 654.570312 541.691406 C 656.226562 541.691406 657.757812 541.054688 658.902344 539.90625 L 661.707031 537.105469 C 663.492188 535.320312 663.871094 532.898438 663.109375 530.734375 C 663.871094 529.332031 664.507812 527.804688 665.019531 526.144531 C 667.058594 525.125 668.585938 523.089844 668.585938 520.667969 L 668.585938 516.71875 C 668.585938 514.296875 667.1875 512.128906 665.019531 511.238281 C 664.507812 509.707031 663.871094 508.179688 663.109375 506.652344 C 663.363281 506.011719 663.492188 505.25 663.492188 504.484375 C 663.492188 502.828125 662.851562 501.300781 661.707031 500.152344 L 658.902344 497.347656 C 657.757812 496.203125 656.226562 495.566406 654.570312 495.566406 C 653.804688 495.566406 653.167969 495.691406 652.40625 495.945312 C 651.003906 495.183594 649.472656 494.546875 647.816406 494.035156 C 646.796875 491.996094 644.757812 490.46875 642.339844 490.46875 L 638.386719 490.46875 C 635.96875 490.46875 633.800781 491.871094 632.910156 494.035156 C 631.378906 494.546875 629.851562 495.183594 628.320312 495.945312 C 627.429688 495.820312 626.792969 495.691406 626.027344 495.691406 C 624.371094 495.691406 622.84375 496.328125 621.695312 497.476562 L 618.890625 500.28125 C 617.875 501.300781 617.234375 502.828125 617.234375 504.484375 C 617.234375 505.25 617.363281 505.886719 617.617188 506.652344 C 616.855469 508.050781 616.214844 509.582031 615.707031 511.238281 C 613.539062 512.128906 612.140625 514.167969 612.140625 516.71875 L 612.140625 520.667969 C 612.140625 523.089844 613.539062 525.125 615.707031 526.144531 Z M 617.234375 516.71875 C 617.234375 516.207031 617.617188 515.699219 618.253906 515.699219 L 619.910156 515.699219 C 620.421875 512.257812 621.824219 509.070312 623.734375 506.394531 L 622.585938 505.25 C 622.207031 504.867188 622.207031 504.230469 622.585938 503.847656 L 625.390625 501.042969 C 625.519531 500.917969 625.773438 500.789062 626.027344 500.789062 C 626.28125 500.789062 626.539062 500.917969 626.664062 501.042969 L 627.8125 502.191406 C 630.488281 500.152344 633.671875 498.878906 637.113281 498.367188 L 637.113281 496.710938 C 637.113281 496.203125 637.496094 495.691406 638.132812 495.691406 L 642.082031 495.691406 C 642.59375 495.691406 643.101562 496.074219 643.101562 496.710938 L 643.101562 498.367188 C 646.542969 498.878906 649.730469 500.28125 652.40625 502.191406 L 653.550781 501.042969 C 653.679688 500.917969 653.933594 500.789062 654.1875 500.789062 C 654.441406 500.789062 654.699219 500.917969 654.824219 501.042969 L 657.628906 503.847656 C 658.011719 504.230469 658.011719 504.867188 657.628906 505.25 L 656.480469 506.394531 C 658.519531 509.070312 659.796875 512.257812 660.304688 515.699219 L 661.960938 515.699219 C 662.472656 515.699219 662.980469 516.078125 662.980469 516.71875 L 662.980469 520.667969 C 662.980469 521.175781 662.597656 521.6875 661.960938 521.6875 L 660.304688 521.6875 C 659.796875 525.125 658.394531 528.3125 656.480469 530.988281 L 657.628906 532.136719 C 658.011719 532.515625 658.011719 533.15625 657.628906 533.535156 L 654.824219 536.339844 C 654.824219 536.46875 654.570312 536.46875 654.316406 536.46875 C 654.0625 536.46875 653.804688 536.339844 653.679688 536.210938 L 652.53125 535.066406 C 649.855469 537.105469 646.671875 538.378906 643.230469 538.886719 L 643.230469 540.546875 C 643.230469 541.054688 642.847656 541.5625 642.210938 541.5625 L 638.261719 541.5625 C 637.75 541.5625 637.242188 541.183594 637.242188 540.546875 L 637.242188 538.886719 C 633.800781 538.378906 630.617188 536.976562 627.941406 535.066406 L 626.792969 536.210938 C 626.539062 536.46875 626.28125 536.46875 626.027344 536.46875 C 625.773438 536.46875 625.519531 536.339844 625.390625 536.210938 L 622.585938 533.410156 C 622.207031 533.027344 622.207031 532.390625 622.585938 532.007812 L 623.734375 530.859375 C 621.695312 528.183594 620.421875 525 619.910156 521.558594 L 618.253906 521.558594 C 617.617188 521.558594 617.234375 521.175781 617.234375 520.539062 Z M 617.234375 516.71875 " fill-opacity="1" fill-rule="nonzero"/></g><path fill="#185c99" d="M 640.171875 533.917969 C 648.582031 533.917969 655.460938 527.039062 655.460938 518.628906 C 655.460938 510.21875 648.582031 503.335938 640.171875 503.335938 C 631.761719 503.335938 624.882812 510.21875 624.882812 518.628906 C 624.882812 527.039062 631.761719 533.917969 640.171875 533.917969 Z M 640.171875 508.433594 C 645.777344 508.433594 650.367188 513.023438 650.367188 518.628906 C 650.367188 524.234375 645.777344 528.820312 640.171875 528.820312 C 634.566406 528.820312 629.976562 524.234375 629.976562 518.628906 C 629.976562 513.023438 634.566406 508.433594 640.171875 508.433594 Z M 640.171875 508.433594 " fill-opacity="1" fill-rule="nonzero"/><path fill="#185c99" d="M 743.511719 484.222656 L 749.5 484.222656 C 743.128906 473.648438 733.953125 464.984375 722.867188 459.378906 C 722.867188 459.632812 722.867188 459.757812 722.867188 460.015625 C 722.867188 461.671875 722.742188 463.328125 722.488281 464.855469 C 731.023438 469.570312 738.289062 476.195312 743.511719 484.222656 Z M 743.511719 484.222656 " fill-opacity="1" fill-rule="nonzero"/><g clip-path="url(#f939155583)"><path fill="#185c99" d="M 767.59375 494.417969 L 762.371094 494.417969 C 761.734375 491.488281 759.183594 489.320312 756.125 489.320312 L 743.382812 489.320312 C 740.324219 489.320312 737.777344 491.488281 737.140625 494.417969 L 731.917969 494.417969 C 727.710938 494.417969 724.269531 497.859375 724.269531 502.0625 L 724.269531 540.289062 C 724.269531 544.496094 727.710938 547.933594 731.917969 547.933594 L 767.59375 547.933594 C 771.800781 547.933594 775.238281 544.496094 775.238281 540.289062 L 775.238281 502.0625 C 775.238281 497.859375 771.800781 494.417969 767.59375 494.417969 Z M 742.109375 495.691406 C 742.109375 494.929688 742.621094 494.417969 743.382812 494.417969 L 756.125 494.417969 C 756.890625 494.417969 757.402344 494.929688 757.402344 495.691406 L 757.402344 498.242188 C 757.402344 499.003906 756.890625 499.515625 756.125 499.515625 L 743.382812 499.515625 C 742.621094 499.515625 742.109375 499.003906 742.109375 498.242188 Z M 770.144531 540.289062 C 770.144531 541.691406 768.996094 542.839844 767.59375 542.839844 L 731.917969 542.839844 C 730.515625 542.839844 729.367188 541.691406 729.367188 540.289062 L 729.367188 502.0625 C 729.367188 500.660156 730.515625 499.515625 731.917969 499.515625 L 737.140625 499.515625 C 737.777344 502.445312 740.324219 504.613281 743.382812 504.613281 L 756.125 504.613281 C 759.183594 504.613281 761.734375 502.445312 762.371094 499.515625 L 767.59375 499.515625 C 768.996094 499.515625 770.144531 500.660156 770.144531 502.0625 Z M 770.144531 540.289062 " fill-opacity="1" fill-rule="nonzero"/></g><path fill="#185c99" d="M 759.949219 509.707031 L 739.5625 509.707031 C 738.160156 509.707031 737.011719 510.855469 737.011719 512.257812 C 737.011719 513.660156 738.160156 514.804688 739.5625 514.804688 L 759.949219 514.804688 C 761.351562 514.804688 762.496094 513.660156 762.496094 512.257812 C 762.496094 510.855469 761.351562 509.707031 759.949219 509.707031 Z M 759.949219 509.707031 " fill-opacity="1" fill-rule="nonzero"/><path fill="#185c99" d="M 759.949219 519.902344 L 739.5625 519.902344 C 738.160156 519.902344 737.011719 521.050781 737.011719 522.449219 C 737.011719 523.851562 738.160156 525 739.5625 525 L 759.949219 525 C 761.351562 525 762.496094 523.851562 762.496094 522.449219 C 762.496094 521.050781 761.351562 519.902344 759.949219 519.902344 Z M 759.949219 519.902344 " fill-opacity="1" fill-rule="nonzero"/><path fill="#185c99" d="M 759.949219 530.097656 L 739.5625 530.097656 C 738.160156 530.097656 737.011719 531.242188 737.011719 532.644531 C 737.011719 534.046875 738.160156 535.191406 739.5625 535.191406 L 759.949219 535.191406 C 761.351562 535.191406 762.496094 534.046875 762.496094 532.644531 C 762.496094 531.242188 761.351562 530.097656 759.949219 530.097656 Z M 759.949219 530.097656 " fill-opacity="1" fill-rule="nonzero"/><path fill="#185c99" d="M 642.082031 485.5 C 642.339844 485.5 642.59375 485.5 642.847656 485.5 C 648.199219 476.960938 655.71875 469.824219 664.636719 464.855469 C 664.507812 463.328125 664.382812 461.671875 664.382812 460.015625 C 664.382812 459.757812 664.382812 459.632812 664.382812 459.378906 C 652.914062 465.238281 643.359375 474.414062 636.988281 485.625 C 637.367188 485.625 637.75 485.5 638.132812 485.5 Z M 642.082031 485.5 " fill-opacity="1" fill-rule="nonzero"/><path fill="#185c99" d="M 747.972656 553.03125 L 741.855469 553.03125 C 737.777344 558.640625 732.679688 563.355469 726.820312 567.304688 C 723.25 565.773438 719.554688 564.117188 716.753906 562.972656 C 715.097656 562.207031 713.820312 561.695312 712.929688 561.316406 L 710.765625 554.304688 C 715.988281 547.679688 719.175781 538.378906 719.175781 529.839844 C 719.175781 514.550781 708.34375 502.0625 694.964844 502.0625 C 681.585938 502.0625 670.753906 514.550781 670.753906 529.839844 C 670.753906 538.378906 673.9375 547.679688 679.164062 554.304688 L 676.996094 561.1875 C 676.234375 561.570312 674.832031 562.078125 673.175781 562.84375 C 669.988281 564.246094 665.65625 566.15625 661.578125 567.8125 C 654.824219 563.480469 648.964844 558 644.503906 551.375 C 643.738281 551.503906 642.976562 551.628906 642.082031 551.628906 L 638.515625 551.628906 C 643.101562 558.894531 648.964844 565.136719 655.972656 570.105469 C 652.914062 571.382812 650.621094 572.402344 650.238281 572.527344 C 649.472656 572.78125 648.835938 573.421875 648.710938 574.183594 L 642.71875 595.464844 C 642.464844 596.230469 642.71875 597.121094 643.101562 597.757812 C 643.484375 598.394531 644.378906 598.777344 645.140625 598.777344 L 744.53125 598.777344 C 745.296875 598.777344 746.058594 598.394531 746.570312 597.757812 C 747.078125 597.121094 747.207031 596.355469 746.953125 595.464844 L 740.964844 574.183594 C 740.707031 573.421875 740.199219 572.78125 739.433594 572.527344 C 739.050781 572.402344 735.992188 571.125 732.171875 569.34375 C 738.414062 565.011719 743.765625 559.402344 747.972656 553.03125 Z M 675.851562 529.839844 C 675.851562 517.355469 684.386719 507.160156 694.964844 507.160156 C 705.539062 507.160156 714.078125 517.355469 714.078125 529.839844 C 714.078125 542.328125 705.539062 558.128906 694.964844 558.128906 C 684.386719 558.128906 675.851562 542.457031 675.851562 529.839844 Z M 736.503906 576.988281 L 741.21875 593.808594 L 648.582031 593.808594 L 653.296875 576.988281 C 655.589844 575.96875 661.195312 573.675781 675.085938 567.558594 C 680.183594 565.390625 680.183594 565.265625 680.566406 565.136719 C 680.945312 564.753906 681.328125 564.371094 681.457031 563.863281 L 683.113281 558.511719 C 686.554688 561.441406 690.632812 563.226562 694.835938 563.226562 C 699.042969 563.226562 703.117188 561.441406 706.558594 558.511719 L 708.214844 563.863281 C 708.34375 564.371094 708.726562 564.882812 709.109375 565.136719 C 709.363281 565.390625 709.488281 565.390625 714.460938 567.558594 C 728.601562 573.546875 734.210938 575.96875 736.503906 576.988281 Z M 736.503906 576.988281 " fill-opacity="1" fill-rule="nonzero"/><g clip-path="url(#d4f9798972)"><path fill="#5a3ecb" d="M 745.808594 283.03125 L 745.808594 252.785156 C 745.808594 250.28125 743.792969 248.253906 741.28125 248.253906 L 718.050781 248.253906 L 718.050781 245.613281 C 718.050781 241.859375 715.007812 238.816406 711.253906 238.816406 L 673.488281 238.816406 C 673.5625 237.960938 673.617188 237.097656 673.617188 236.226562 C 673.617188 220.234375 660.65625 207.277344 644.667969 207.277344 C 628.679688 207.277344 615.722656 220.234375 615.722656 236.226562 C 615.722656 252.214844 628.683594 265.171875 644.667969 265.171875 C 645.597656 265.171875 646.515625 265.121094 647.425781 265.035156 L 647.425781 309.757812 C 644.601562 315.160156 641.167969 320.210938 636.578125 326.015625 C 634.882812 325.691406 633.0625 326.011719 631.515625 327.054688 L 624.550781 331.75 C 621.4375 333.851562 620.613281 338.074219 622.714844 341.1875 L 628.394531 349.609375 C 630.128906 352.1875 633.3125 353.164062 636.125 352.246094 L 642.550781 361.777344 C 643.25 362.8125 644.65625 363.085938 645.695312 362.386719 L 654 356.789062 C 654.589844 356.390625 654.957031 355.738281 654.996094 355.027344 C 655.03125 354.316406 654.730469 353.628906 654.1875 353.175781 L 645.652344 346.035156 C 646.808594 344.945312 647.503906 343.519531 647.707031 342.011719 C 647.941406 341.914062 648.183594 341.816406 648.417969 341.722656 C 649.0625 342.398438 649.96875 342.820312 650.976562 342.820312 L 711.253906 342.820312 C 715.007812 342.820312 718.046875 339.777344 718.046875 336.023438 L 718.046875 287.5625 L 741.277344 287.5625 C 743.792969 287.5625 745.808594 285.535156 745.808594 283.03125 Z M 644.667969 260.640625 C 631.183594 260.640625 620.25 249.710938 620.25 236.226562 C 620.25 222.738281 631.183594 211.808594 644.667969 211.808594 C 658.15625 211.808594 669.085938 222.738281 669.085938 236.226562 C 669.085938 249.710938 658.15625 260.640625 644.667969 260.640625 Z M 635.296875 347.691406 C 634.257812 348.390625 632.847656 348.117188 632.152344 347.078125 L 626.46875 338.652344 C 625.769531 337.617188 626.042969 336.207031 627.082031 335.511719 L 634.050781 330.8125 C 635.085938 330.113281 636.492188 330.386719 637.195312 331.421875 L 642.875 339.847656 C 643.574219 340.886719 643.300781 342.292969 642.265625 342.992188 Z M 648.972656 354.71875 L 645.039062 357.367188 L 640.042969 349.953125 L 641.835938 348.746094 Z M 646.738281 337.515625 C 646.699219 337.449219 646.675781 337.378906 646.632812 337.316406 L 640.949219 328.890625 C 640.816406 328.691406 640.652344 328.53125 640.503906 328.351562 C 645.089844 322.515625 648.582031 317.339844 651.472656 311.789062 L 651.953125 311.789062 L 651.953125 310.890625 C 653.109375 308.605469 654.171875 306.210938 655.183594 303.6875 C 656.996094 309.421875 659.15625 314.238281 662.070312 318.597656 C 665.125 323.160156 668.96875 327.144531 673.9375 331.148438 C 664.1875 331.847656 656.175781 333.730469 646.738281 337.515625 Z M 658.886719 294.175781 C 659.789062 293.566406 660.957031 293.644531 661.734375 294.324219 C 668.03125 299.828125 672.429688 304.617188 675.882812 309.800781 C 679.335938 314.984375 681.898438 320.652344 684.433594 327.980469 C 684.777344 328.972656 684.40625 330.09375 683.496094 330.710938 C 682.65625 331.277344 681.578125 331.253906 680.808594 330.695312 C 673.964844 325.75 669.308594 321.265625 665.835938 316.078125 C 662.363281 310.886719 659.988281 304.855469 657.902344 296.679688 C 657.667969 295.75 658.046875 294.738281 658.886719 294.175781 Z M 713.519531 336.023438 C 713.519531 337.277344 712.503906 338.289062 711.253906 338.289062 L 658.394531 338.289062 C 665.199219 336.417969 671.851562 335.578125 680.125 335.375 L 680.121094 335.347656 C 682.09375 335.957031 684.277344 335.648438 686.027344 334.46875 C 688.597656 332.734375 689.746094 329.480469 688.714844 326.503906 C 686.109375 318.960938 683.390625 312.90625 679.652344 307.292969 C 675.914062 301.675781 671.210938 296.589844 664.714844 290.914062 C 662.347656 288.84375 658.914062 288.691406 656.355469 290.417969 C 654.5625 291.625 653.449219 293.589844 653.316406 295.695312 C 652.871094 297.023438 652.414062 298.28125 651.953125 299.519531 L 651.953125 264.210938 C 662.132812 261.566406 670.113281 253.546875 672.699219 243.347656 L 711.253906 243.347656 C 712.503906 243.347656 713.519531 244.359375 713.519531 245.613281 L 713.519531 248.253906 L 696.652344 248.253906 C 694.148438 248.253906 692.121094 250.285156 692.121094 252.785156 L 692.121094 283.03125 C 692.121094 285.53125 694.148438 287.5625 696.652344 287.5625 L 699.375 287.5625 L 700.933594 291.183594 C 702.390625 294.582031 707.082031 294.894531 708.980469 291.722656 L 711.46875 287.5625 L 713.519531 287.5625 Z M 711.46875 283.03125 C 709.878906 283.03125 708.402344 283.867188 707.582031 285.238281 L 705.09375 289.394531 L 703.535156 285.769531 C 702.820312 284.109375 701.183594 283.03125 699.375 283.03125 L 696.652344 283.03125 L 696.652344 252.785156 L 741.28125 252.785156 L 741.28125 283.03125 Z M 711.46875 283.03125 " fill-opacity="1" fill-rule="nonzero"/></g><path fill="#5a3ecb" d="M 705.429688 262.519531 C 702.324219 262.519531 699.8125 265.035156 699.8125 268.136719 C 699.8125 271.242188 702.324219 273.757812 705.429688 273.757812 C 708.53125 273.757812 711.046875 271.242188 711.046875 268.136719 C 711.046875 265.035156 708.53125 262.519531 705.429688 262.519531 Z M 705.429688 269.226562 C 704.828125 269.226562 704.339844 268.738281 704.339844 268.136719 C 704.339844 267.539062 704.828125 267.050781 705.429688 267.050781 C 706.027344 267.050781 706.515625 267.539062 706.515625 268.136719 C 706.515625 268.738281 706.027344 269.226562 705.429688 269.226562 Z M 705.429688 269.226562 " fill-opacity="1" fill-rule="nonzero"/><path fill="#5a3ecb" d="M 719.019531 262.519531 C 715.917969 262.519531 713.402344 265.035156 713.402344 268.136719 C 713.402344 271.242188 715.917969 273.757812 719.019531 273.757812 C 722.121094 273.757812 724.636719 271.242188 724.636719 268.136719 C 724.636719 265.035156 722.121094 262.519531 719.019531 262.519531 Z M 719.019531 269.226562 C 718.421875 269.226562 717.933594 268.738281 717.933594 268.136719 C 717.933594 267.539062 718.421875 267.050781 719.019531 267.050781 C 719.621094 267.050781 720.109375 267.539062 720.109375 268.136719 C 720.109375 268.738281 719.621094 269.226562 719.019531 269.226562 Z M 719.019531 269.226562 " fill-opacity="1" fill-rule="nonzero"/><path fill="#5a3ecb" d="M 732.613281 262.519531 C 729.507812 262.519531 726.996094 265.035156 726.996094 268.136719 C 726.996094 271.242188 729.507812 273.757812 732.613281 273.757812 C 735.714844 273.757812 738.222656 271.242188 738.222656 268.136719 C 738.222656 265.035156 735.714844 262.519531 732.613281 262.519531 Z M 732.613281 269.226562 C 732.011719 269.226562 731.523438 268.738281 731.523438 268.136719 C 731.523438 267.539062 732.011719 267.050781 732.613281 267.050781 C 733.210938 267.050781 733.699219 267.539062 733.699219 268.136719 C 733.699219 268.738281 733.210938 269.226562 732.613281 269.226562 Z M 732.613281 269.226562 " fill-opacity="1" fill-rule="nonzero"/><g clip-path="url(#835ea76902)"><path fill="#5a3ecb" d="M 752.832031 318.597656 C 738.5625 318.597656 726.996094 330.167969 726.996094 344.441406 C 726.996094 358.710938 738.5625 370.28125 752.832031 370.28125 C 767.105469 370.28125 778.679688 358.710938 778.679688 344.441406 C 778.679688 330.167969 767.105469 318.597656 752.832031 318.597656 Z M 752.832031 365.75 C 741.074219 365.75 731.523438 356.210938 731.523438 344.441406 C 731.523438 332.667969 741.074219 323.128906 752.832031 323.128906 C 764.613281 323.128906 774.148438 332.667969 774.148438 344.441406 C 774.148438 356.210938 764.613281 365.75 752.832031 365.75 Z M 752.832031 365.75 " fill-opacity="1" fill-rule="nonzero"/></g><path fill="#5a3ecb" d="M 762.890625 340.71875 L 751.472656 333.8125 C 748.484375 332.007812 744.65625 334.109375 744.585938 337.597656 L 744.316406 350.941406 C 744.246094 354.429688 747.984375 356.6875 751.042969 355.003906 L 762.730469 348.566406 C 765.789062 346.882812 765.878906 342.523438 762.890625 340.71875 Z M 748.84375 351.035156 L 749.117188 337.6875 L 760.535156 344.597656 Z M 748.84375 351.035156 " fill-opacity="1" fill-rule="nonzero"/><path fill="#5a3ecb" d="M 644.667969 236.230469 C 649.792969 236.230469 653.945312 232.074219 653.945312 226.953125 C 653.945312 221.832031 649.792969 217.675781 644.667969 217.675781 C 639.546875 217.675781 635.394531 221.828125 635.394531 226.953125 C 635.394531 232.078125 639.546875 236.230469 644.667969 236.230469 Z M 644.667969 222.207031 C 647.289062 222.207031 649.414062 224.332031 649.414062 226.953125 C 649.414062 229.574219 647.289062 231.699219 644.667969 231.699219 C 642.046875 231.699219 639.921875 229.574219 639.921875 226.953125 C 639.921875 224.332031 642.046875 222.207031 644.667969 222.207031 Z M 644.667969 222.207031 " fill-opacity="1" fill-rule="nonzero"/><path fill="#5a3ecb" d="M 644.667969 237.804688 C 637.648438 237.804688 631.953125 243.496094 631.953125 250.519531 C 631.953125 251.769531 632.96875 252.785156 634.21875 252.785156 L 655.121094 252.785156 C 656.371094 252.785156 657.382812 251.769531 657.382812 250.519531 C 657.382812 243.496094 651.691406 237.804688 644.667969 237.804688 Z M 636.800781 248.253906 C 637.785156 244.835938 640.9375 242.335938 644.667969 242.335938 C 648.40625 242.335938 651.554688 244.835938 652.535156 248.253906 Z M 636.800781 248.253906 " fill-opacity="1" fill-rule="nonzero"/><g clip-path="url(#aa7192ceaf)"><path fill="#ff8300" d="M 571.882812 13.148438 L 566.351562 22.257812 C 561.175781 19.292969 556.054688 16.234375 550.792969 13.445312 C 549.757812 12.898438 547.769531 12.839844 546.894531 13.480469 C 529.964844 25.871094 511.203125 32.34375 490.097656 31.492188 C 489.753906 31.480469 489.402344 31.5625 488.910156 31.617188 C 488.769531 31.992188 488.480469 32.402344 488.476562 32.820312 C 488.082031 57.308594 490.609375 81.269531 501.847656 103.53125 C 511.371094 122.398438 526.035156 135.777344 545.570312 143.863281 C 547.910156 144.832031 549.90625 144.828125 552.246094 143.820312 C 578.628906 132.472656 595.238281 112.585938 603.550781 85.390625 C 603.855469 84.390625 604.160156 83.386719 604.511719 82.234375 C 606.210938 82.097656 607.953125 81.988281 609.691406 81.808594 C 611.300781 81.640625 612.902344 81.394531 614.921875 81.125 C 612.675781 90.589844 609.4375 99.269531 605.195312 107.589844 C 593.515625 130.523438 575.390625 146.382812 551.671875 155.964844 C 550.046875 156.621094 547.710938 156.589844 546.0625 155.953125 C 514.523438 143.710938 495.140625 120.386719 485.34375 88.570312 C 478.824219 67.40625 477.292969 45.59375 477.636719 23.589844 C 477.640625 23.257812 477.769531 22.925781 477.867188 22.472656 C 483.46875 22.179688 489.046875 21.984375 494.613281 21.578125 C 513.460938 20.214844 530.351562 13.511719 545.46875 2.355469 C 547.992188 0.492188 549.617188 0.496094 552.191406 2.054688 C 558.578125 5.917969 565.191406 9.414062 571.882812 13.148438 Z M 571.882812 13.148438 " fill-opacity="1" fill-rule="nonzero"/></g><path fill="#ff8300" d="M 560.941406 73.804688 C 560.59375 73.78125 560.246094 73.769531 559.820312 73.746094 C 559.796875 73.34375 559.769531 73 559.761719 72.652344 C 559.664062 69.222656 559.699219 65.78125 559.4375 62.367188 C 559.128906 58.34375 555.175781 54.546875 551.160156 54.347656 C 548.125 54.195312 545.078125 54.308594 542.039062 54.269531 C 537.636719 54.214844 532.847656 58.359375 532.855469 63.753906 C 532.859375 65.628906 532.800781 67.507812 532.785156 69.386719 C 532.769531 70.832031 532.78125 72.273438 532.78125 73.710938 C 531.867188 73.804688 531.1875 73.835938 530.523438 73.941406 C 528.792969 74.222656 526.8125 76.195312 526.800781 77.824219 C 526.757812 84.914062 526.753906 92 526.789062 99.089844 C 526.800781 101.070312 528.972656 103.078125 530.964844 103.082031 C 541.097656 103.101562 551.230469 103.097656 561.363281 103.078125 C 563.632812 103.074219 565.664062 101.132812 565.6875 98.84375 C 565.75 92.109375 565.761719 85.378906 565.710938 78.644531 C 565.691406 75.839844 563.761719 74 560.941406 73.804688 Z M 549.175781 87.179688 C 548.46875 87.902344 548.257812 88.628906 548.273438 89.585938 C 548.304688 91.492188 548.277344 93.402344 548.191406 95.3125 C 548.140625 96.484375 547.859375 96.675781 546.675781 96.703125 C 544.371094 96.75 544.253906 96.644531 544.214844 94.359375 C 544.199219 93.519531 544.210938 92.675781 544.210938 91.835938 L 544.1875 91.835938 C 544.1875 91.285156 544.171875 90.734375 544.191406 90.183594 C 544.230469 88.992188 544.152344 87.988281 543.148438 86.984375 C 541.542969 85.378906 541.882812 82.863281 543.585938 81.359375 C 545.171875 79.960938 547.609375 80.054688 549.148438 81.566406 C 550.652344 83.042969 550.730469 85.59375 549.175781 87.179688 Z M 553.125 73.730469 L 539.15625 73.730469 C 539.277344 70.175781 539.320312 66.6875 539.554688 63.214844 C 539.65625 61.710938 540.710938 60.828125 542.253906 60.800781 C 545.035156 60.753906 547.820312 60.8125 550.597656 60.914062 C 551.816406 60.957031 552.667969 61.753906 552.867188 62.949219 C 553.039062 63.996094 553.097656 65.070312 553.117188 66.132812 C 553.148438 68.625 553.125 71.113281 553.125 73.730469 Z M 553.125 73.730469 " fill-opacity="1" fill-rule="nonzero"/><g clip-path="url(#9d84972b05)"><path fill="#ff8300" d="M 599.710938 10.386719 C 582.785156 10.386719 569.066406 24.109375 569.066406 41.03125 C 569.066406 57.957031 582.785156 71.675781 599.710938 71.675781 C 616.632812 71.675781 630.351562 57.957031 630.351562 41.03125 C 630.351562 24.109375 616.632812 10.386719 599.710938 10.386719 Z M 617.320312 33.300781 C 617.082031 33.617188 616.796875 33.898438 616.515625 34.179688 C 610.300781 40.398438 604.082031 46.617188 597.859375 52.835938 C 595.675781 55.019531 593.867188 55.027344 591.695312 52.859375 C 588.617188 49.785156 585.542969 46.710938 582.472656 43.636719 C 581.449219 42.613281 581.085938 41.386719 581.488281 39.992188 C 581.878906 38.628906 582.835938 37.800781 584.207031 37.511719 C 585.5625 37.226562 586.671875 37.746094 587.621094 38.695312 C 589.726562 40.808594 591.839844 42.921875 593.960938 45.027344 C 594.214844 45.28125 594.480469 45.523438 594.914062 45.9375 C 595.160156 45.601562 595.339844 45.269531 595.59375 45.015625 C 600.9375 39.660156 606.285156 34.308594 611.636719 28.957031 C 612.386719 28.207031 613.199219 27.625 614.304688 27.585938 C 615.804688 27.535156 616.964844 28.132812 617.65625 29.46875 C 618.34375 30.796875 618.21875 32.097656 617.320312 33.300781 Z M 617.320312 33.300781 " fill-opacity="1" fill-rule="nonzero"/></g><g clip-path="url(#be91ce1bef)"><path fill="#545454" d="M 175.277344 138.144531 L 303.539062 138.144531 L 303.539062 143.453125 L 175.277344 143.453125 Z M 175.277344 138.144531 " fill-opacity="1" fill-rule="nonzero"/></g><g clip-path="url(#dbdbbd337c)"><path fill="#545454" d="M 239.449219 39.277344 C 250.144531 39.277344 258.796875 30.621094 258.796875 19.925781 C 258.796875 9.230469 250.144531 0.578125 239.449219 0.578125 C 228.753906 0.578125 220.097656 9.230469 220.097656 19.925781 C 220.097656 30.539062 228.753906 39.277344 239.449219 39.277344 Z M 239.449219 5.882812 C 247.203125 5.882812 253.492188 12.171875 253.492188 19.925781 C 253.492188 27.683594 247.203125 33.96875 239.449219 33.96875 C 231.691406 33.96875 225.40625 27.683594 225.40625 19.925781 C 225.40625 12.171875 231.691406 5.882812 239.449219 5.882812 Z M 239.449219 5.882812 " fill-opacity="1" fill-rule="nonzero"/></g><path fill="#545454" d="M 227.039062 47.683594 L 221.570312 117.324219 L 220.179688 117.324219 C 213.976562 117.324219 208.914062 122.144531 208.503906 128.265625 L 197.566406 128.265625 L 197.566406 133.574219 L 281.496094 133.816406 L 281.496094 128.511719 L 270.554688 128.511719 C 270.226562 122.304688 265.085938 117.40625 258.878906 117.40625 L 257.492188 117.40625 L 251.941406 47.601562 C 259.859375 44.746094 263.941406 39.519531 265.574219 36.90625 L 321.90625 36.90625 L 321.90625 31.601562 L 262.226562 31.601562 L 261.492188 33.234375 C 261.410156 33.316406 256.511719 44.417969 239.613281 44.417969 C 239.53125 44.417969 239.449219 44.417969 239.367188 44.417969 C 222.140625 44.417969 217.730469 33.804688 217.566406 33.398438 L 216.914062 31.683594 L 157.152344 31.683594 L 157.152344 36.988281 L 213.402344 36.988281 C 214.957031 39.683594 218.957031 44.910156 227.039062 47.683594 Z M 258.714844 122.714844 C 261.980469 122.714844 264.675781 125.246094 265.003906 128.429688 L 213.894531 128.265625 C 214.300781 125.082031 216.914062 122.632812 220.179688 122.632812 L 258.714844 122.632812 Z M 239.285156 49.726562 C 239.367188 49.726562 239.449219 49.726562 239.53125 49.726562 C 242.140625 49.726562 244.429688 49.480469 246.550781 49.074219 L 251.941406 117.40625 L 226.875 117.40625 L 232.265625 49.074219 C 234.46875 49.398438 236.753906 49.726562 239.285156 49.726562 Z M 239.285156 49.726562 " fill-opacity="1" fill-rule="nonzero"/><g clip-path="url(#05a68bbe40)"><path fill="#545454" d="M 187.6875 92.097656 L 187.6875 89.402344 L 178.871094 89.402344 L 169.96875 44.746094 L 213.648438 44.746094 L 213.648438 39.4375 L 157.070312 39.4375 L 157.070312 44.746094 L 163.4375 44.746094 L 154.539062 89.402344 L 145.722656 89.402344 L 145.722656 92.097656 C 145.722656 103.691406 155.109375 113.082031 166.703125 113.082031 C 178.296875 113.082031 187.6875 103.609375 187.6875 92.097656 Z M 166.785156 55.6875 L 173.480469 89.402344 L 160.089844 89.402344 Z M 166.785156 107.691406 C 159.03125 107.691406 152.660156 102.058594 151.355469 94.710938 L 182.214844 94.710938 C 180.910156 102.140625 174.460938 107.691406 166.785156 107.691406 Z M 166.785156 107.691406 " fill-opacity="1" fill-rule="nonzero"/></g><g clip-path="url(#7010a46c24)"><path fill="#545454" d="M 324.273438 89.402344 L 315.375 44.746094 L 321.746094 44.746094 L 321.746094 39.4375 L 265.164062 39.4375 L 265.164062 44.746094 L 308.84375 44.746094 L 299.945312 89.402344 L 291.128906 89.402344 L 291.128906 92.097656 C 291.128906 103.691406 300.515625 113.082031 312.109375 113.082031 C 323.703125 113.082031 333.09375 103.691406 333.09375 92.097656 L 333.09375 89.402344 Z M 312.109375 55.6875 L 318.804688 89.402344 L 305.414062 89.402344 Z M 312.109375 107.691406 C 304.355469 107.691406 297.984375 102.058594 296.679688 94.710938 L 327.539062 94.710938 C 326.316406 102.140625 319.867188 107.691406 312.109375 107.691406 Z M 312.109375 107.691406 " fill-opacity="1" fill-rule="nonzero"/></g><path fill="#0e7658" d="M 99.503906 338.945312 C 96.25 338.945312 92.21875 338.242188 87.257812 336.808594 C 80.851562 334.957031 71.496094 335.035156 67.769531 335.152344 C 66.808594 335.179688 65.996094 334.425781 65.964844 333.460938 C 65.933594 332.496094 66.691406 331.691406 67.65625 331.660156 C 72.488281 331.503906 81.589844 331.535156 88.230469 333.453125 C 95.433594 335.53125 104.347656 337.039062 105.925781 332.40625 C 107.691406 327.207031 97.765625 321.269531 94.148438 319.808594 C 91.3125 318.660156 88.394531 318.648438 85.304688 318.632812 C 79.804688 318.605469 73.566406 318.574219 66.863281 311.984375 C 62.054688 307.257812 55.867188 305.316406 49.886719 306.660156 C 47.898438 307.109375 46.269531 307.664062 44.691406 308.199219 C 41.929688 309.144531 39.066406 310.121094 34.550781 310.367188 C 33.578125 310.414062 32.761719 309.679688 32.710938 308.714844 C 32.660156 307.75 33.398438 306.929688 34.359375 306.875 C 38.398438 306.660156 40.792969 305.839844 43.566406 304.894531 C 45.230469 304.328125 46.945312 303.742188 49.121094 303.253906 C 56.277344 301.644531 63.636719 303.917969 69.3125 309.492188 C 75.003906 315.085938 80.019531 315.113281 85.324219 315.136719 C 88.605469 315.15625 92 315.171875 95.457031 316.566406 C 99.914062 318.367188 112.007812 325.347656 109.234375 333.53125 C 108.511719 335.652344 106.601562 338.292969 101.585938 338.839844 C 100.929688 338.910156 100.238281 338.945312 99.503906 338.945312 Z M 99.503906 338.945312 " fill-opacity="1" fill-rule="evenodd"/><g clip-path="url(#a6466a40f1)"><path fill="#0e7658" d="M 81.847656 362.570312 C 80.050781 362.570312 78.445312 362.359375 77.105469 361.882812 C 66.015625 357.960938 37.492188 354.90625 34.277344 354.570312 C 33.316406 354.46875 32.621094 353.613281 32.71875 352.652344 C 32.820312 351.691406 33.679688 350.996094 34.636719 351.09375 C 37.894531 351.433594 66.804688 354.53125 78.269531 358.589844 C 82.019531 359.914062 89.921875 358.550781 99.410156 354.941406 C 107.558594 351.835938 115.550781 347.5625 118.410156 344.78125 L 154.5 309.664062 C 156.652344 307.570312 157.191406 305.203125 155.875 303.628906 C 154.191406 301.613281 149.863281 301.445312 144.851562 305.027344 L 108.667969 330.890625 C 107.886719 331.453125 106.792969 331.269531 106.234375 330.484375 C 105.671875 329.699219 105.851562 328.609375 106.636719 328.046875 L 142.816406 302.183594 C 149.875 297.140625 155.925781 298.238281 158.558594 301.390625 C 160.671875 303.914062 160.988281 308.226562 156.9375 312.167969 L 120.851562 347.28125 C 115.605469 352.382812 94.234375 362.574219 81.847656 362.570312 Z M 81.847656 362.570312 " fill-opacity="1" fill-rule="evenodd"/></g><g clip-path="url(#6bf79d73e1)"><path fill="#0e7658" d="M 3.542969 362.714844 L 32.707031 362.714844 L 32.707031 300.339844 L 3.542969 300.339844 Z M 34.457031 366.207031 L 1.792969 366.207031 C 0.828125 366.207031 0.046875 365.425781 0.046875 364.460938 L 0.046875 298.59375 C 0.046875 297.628906 0.828125 296.847656 1.792969 296.847656 L 34.457031 296.847656 C 35.421875 296.847656 36.203125 297.628906 36.203125 298.59375 L 36.203125 364.460938 C 36.203125 365.425781 35.421875 366.207031 34.457031 366.207031 Z M 34.457031 366.207031 " fill-opacity="1" fill-rule="evenodd"/></g><g clip-path="url(#3129fa6617)"><path fill="#0e7658" d="M 96.394531 209.671875 C 91.769531 209.671875 86.796875 213.0625 86.796875 220.507812 C 86.800781 226.378906 91.078125 233.472656 96.390625 233.472656 C 101.710938 233.472656 105.988281 226.378906 105.988281 220.507812 C 105.992188 213.0625 101.015625 209.671875 96.394531 209.671875 Z M 96.394531 236.964844 C 88.902344 236.964844 83.304688 228.277344 83.304688 220.507812 C 83.304688 211.097656 89.886719 206.175781 96.390625 206.175781 C 102.902344 206.175781 109.484375 211.097656 109.484375 220.507812 C 109.484375 228.277344 103.886719 236.964844 96.394531 236.964844 Z M 96.394531 236.964844 " fill-opacity="1" fill-rule="evenodd"/></g><path fill="#0e7658" d="M 75.347656 268.691406 L 117.441406 268.691406 L 117.441406 251.960938 C 117.441406 247.625 113.910156 244.097656 109.574219 244.097656 L 83.214844 244.097656 C 78.875 244.097656 75.347656 247.625 75.347656 251.960938 Z M 119.1875 272.183594 L 73.601562 272.183594 C 72.636719 272.183594 71.855469 271.402344 71.855469 270.4375 L 71.855469 251.960938 C 71.855469 245.699219 76.949219 240.601562 83.214844 240.601562 L 109.574219 240.601562 C 115.839844 240.601562 120.933594 245.699219 120.933594 251.960938 L 120.933594 270.4375 C 120.933594 271.402344 120.152344 272.183594 119.1875 272.183594 Z M 119.1875 272.183594 " fill-opacity="1" fill-rule="evenodd"/><path fill="#0e7658" d="M 85.660156 272.183594 C 84.695312 272.183594 83.914062 271.402344 83.914062 270.4375 L 83.914062 259.695312 C 83.914062 258.726562 84.695312 257.945312 85.660156 257.945312 C 86.625 257.945312 87.40625 258.730469 87.40625 259.695312 L 87.40625 270.4375 C 87.40625 271.402344 86.625 272.183594 85.660156 272.183594 Z M 85.660156 272.183594 " fill-opacity="1" fill-rule="evenodd"/><path fill="#0e7658" d="M 107.128906 272.183594 C 106.164062 272.183594 105.382812 271.402344 105.382812 270.4375 L 105.382812 259.695312 C 105.382812 258.726562 106.164062 257.945312 107.128906 257.945312 C 108.09375 257.945312 108.875 258.730469 108.875 259.695312 L 108.875 270.4375 C 108.875 271.402344 108.09375 272.183594 107.128906 272.183594 Z M 107.128906 272.183594 " fill-opacity="1" fill-rule="evenodd"/><path fill="#0e7658" d="M 57.742188 236.113281 C 53.859375 236.113281 49.679688 238.972656 49.679688 245.25 C 49.679688 250.21875 53.273438 256.226562 57.742188 256.226562 C 62.207031 256.226562 65.800781 250.21875 65.800781 245.25 C 65.800781 238.972656 61.625 236.113281 57.742188 236.113281 Z M 57.742188 259.71875 C 51.128906 259.71875 46.183594 252.078125 46.183594 245.25 C 46.1875 236.957031 51.996094 232.621094 57.742188 232.621094 C 63.484375 232.617188 69.296875 236.957031 69.296875 245.25 C 69.296875 252.078125 64.359375 259.71875 57.742188 259.71875 Z M 57.742188 259.71875 " fill-opacity="1" fill-rule="evenodd"/><path fill="#0e7658" d="M 77.453125 290.175781 L 38.03125 290.175781 C 37.066406 290.175781 36.285156 289.394531 36.285156 288.429688 L 36.285156 272.449219 C 36.285156 266.902344 40.796875 262.390625 46.339844 262.390625 L 69.140625 262.390625 C 71.058594 262.390625 72.929688 262.9375 74.542969 263.976562 C 75.355469 264.496094 75.59375 265.578125 75.070312 266.390625 C 74.550781 267.199219 73.46875 267.4375 72.660156 266.917969 C 71.605469 266.242188 70.386719 265.886719 69.140625 265.886719 L 46.34375 265.882812 C 42.722656 265.882812 39.777344 268.828125 39.777344 272.449219 L 39.777344 286.679688 L 75.707031 286.679688 L 75.707031 272.449219 C 75.707031 271.914062 75.640625 271.378906 75.507812 270.863281 C 75.277344 269.925781 75.84375 268.976562 76.777344 268.742188 C 77.714844 268.507812 78.664062 269.078125 78.898438 270.011719 C 79.097656 270.804688 79.199219 271.625 79.199219 272.449219 L 79.199219 288.429688 C 79.199219 289.394531 78.417969 290.175781 77.453125 290.175781 Z M 77.453125 290.175781 " fill-opacity="1" fill-rule="evenodd"/><path fill="#0e7658" d="M 47.949219 290.175781 C 46.984375 290.175781 46.203125 289.394531 46.203125 288.429688 L 46.203125 278.625 C 46.203125 277.664062 46.984375 276.878906 47.949219 276.878906 C 48.914062 276.878906 49.699219 277.664062 49.699219 278.628906 L 49.699219 288.429688 C 49.699219 289.394531 48.914062 290.175781 47.949219 290.175781 Z M 47.949219 290.175781 " fill-opacity="1" fill-rule="evenodd"/><path fill="#0e7658" d="M 67.53125 290.175781 C 66.566406 290.175781 65.785156 289.394531 65.785156 288.429688 L 65.785156 278.625 C 65.785156 277.664062 66.566406 276.878906 67.53125 276.878906 C 68.5 276.878906 69.277344 277.664062 69.277344 278.628906 L 69.277344 288.429688 C 69.277344 289.394531 68.5 290.175781 67.53125 290.175781 Z M 67.53125 290.175781 " fill-opacity="1" fill-rule="evenodd"/><path fill="#0e7658" d="M 135.046875 236.113281 C 131.164062 236.113281 126.984375 238.972656 126.984375 245.25 C 126.984375 250.21875 130.578125 256.226562 135.046875 256.226562 C 139.515625 256.226562 143.109375 250.21875 143.109375 245.25 C 143.109375 238.972656 138.929688 236.113281 135.046875 236.113281 Z M 135.046875 259.71875 C 128.429688 259.71875 123.488281 252.078125 123.488281 245.25 C 123.488281 236.957031 129.304688 232.621094 135.046875 232.621094 C 140.789062 232.621094 146.601562 236.957031 146.601562 245.25 C 146.601562 252.078125 141.660156 259.71875 135.046875 259.71875 Z M 135.046875 259.71875 " fill-opacity="1" fill-rule="evenodd"/><path fill="#0e7658" d="M 154.757812 290.175781 L 115.335938 290.175781 C 114.371094 290.175781 113.589844 289.394531 113.589844 288.429688 L 113.589844 272.449219 C 113.589844 271.625 113.691406 270.804688 113.890625 270.011719 C 114.125 269.078125 115.074219 268.507812 116.007812 268.742188 C 116.945312 268.980469 117.511719 269.929688 117.28125 270.863281 C 117.148438 271.378906 117.082031 271.914062 117.082031 272.449219 L 117.082031 286.679688 L 153.007812 286.679688 L 153.007812 272.449219 C 153.007812 268.828125 150.0625 265.886719 146.441406 265.886719 L 123.648438 265.882812 C 122.402344 265.882812 121.179688 266.242188 120.128906 266.917969 C 119.3125 267.4375 118.234375 267.199219 117.710938 266.390625 C 117.191406 265.578125 117.429688 264.496094 118.242188 263.976562 C 119.859375 262.9375 121.730469 262.390625 123.648438 262.390625 L 146.445312 262.390625 C 151.988281 262.390625 156.503906 266.902344 156.503906 272.449219 L 156.503906 288.429688 C 156.503906 288.890625 156.320312 289.335938 155.992188 289.664062 C 155.664062 289.992188 155.222656 290.175781 154.757812 290.175781 Z M 154.757812 290.175781 " fill-opacity="1" fill-rule="evenodd"/><path fill="#0e7658" d="M 144.839844 290.175781 C 143.875 290.175781 143.089844 289.394531 143.089844 288.429688 L 143.089844 278.625 C 143.089844 277.664062 143.875 276.878906 144.839844 276.878906 C 145.804688 276.878906 146.585938 277.664062 146.585938 278.628906 L 146.585938 288.429688 C 146.585938 289.394531 145.800781 290.175781 144.839844 290.175781 Z M 144.839844 290.175781 " fill-opacity="1" fill-rule="evenodd"/><path fill="#0e7658" d="M 125.253906 290.175781 C 124.289062 290.175781 123.507812 289.394531 123.507812 288.429688 L 123.507812 278.625 C 123.507812 277.664062 124.289062 276.878906 125.253906 276.878906 C 126.21875 276.878906 127 277.664062 127 278.628906 L 127 288.429688 C 127 289.394531 126.21875 290.175781 125.253906 290.175781 Z M 125.253906 290.175781 " fill-opacity="1" fill-rule="evenodd"/><path fill="#c45b52" d="M 486.046875 423.46875 L 396.640625 438.078125 C 396.640625 438.078125 313.855469 467.921875 284.761719 422.71875 C 248.300781 366.03125 288.007812 324.449219 307.738281 306.09375 C 324.46875 290.488281 324.46875 262.390625 324.59375 259.144531 C 324.59375 215.816406 331.960938 189.84375 356.183594 175.609375 C 382.65625 160 404.382812 163.246094 404.382812 163.246094 C 404.382812 163.246094 434.476562 162 451.957031 189.34375 C 463.820312 207.949219 466.941406 233.046875 469.3125 259.144531 C 473.308594 303.847656 515.140625 311.089844 516.011719 356.289062 C 517.011719 402.367188 486.046875 423.46875 486.046875 423.46875 Z M 486.046875 423.46875 L 396.640625 438.078125 C 396.640625 438.078125 313.855469 467.921875 284.761719 422.71875 C 248.300781 366.03125 288.007812 324.449219 307.738281 306.09375 C 324.46875 290.488281 324.46875 262.390625 324.59375 259.144531 C 324.59375 215.816406 331.960938 189.84375 356.183594 175.609375 C 382.65625 160 404.382812 163.246094 404.382812 163.246094 C 404.382812 163.246094 434.476562 162 451.957031 189.34375 C 463.820312 207.949219 466.941406 233.046875 469.3125 259.144531 C 473.308594 303.847656 515.140625 311.089844 516.011719 356.289062 C 517.011719 402.367188 486.046875 423.46875 486.046875 423.46875 Z M 486.046875 423.46875 " fill-opacity="1" fill-rule="nonzero"/><path fill="#0e7658" d="M 392.769531 352.421875 C 424.484375 361.160156 451.957031 340.933594 451.957031 340.933594 C 451.957031 340.933594 487.667969 354.292969 495.535156 366.28125 C 508.519531 386.257812 528 505.007812 491.914062 524.109375 C 459.074219 541.46875 401.011719 517.867188 374.164062 506.253906 C 354.0625 530.980469 328.589844 548.835938 293.5 528.605469 C 253.917969 505.628906 281.765625 380.015625 290.128906 366.90625 C 303.867188 345.425781 340.699219 341.058594 340.699219 341.058594 C 340.699219 341.058594 360.929688 343.679688 392.769531 352.421875 Z M 392.769531 352.421875 C 424.484375 361.160156 451.957031 340.933594 451.957031 340.933594 C 451.957031 340.933594 487.667969 354.292969 495.535156 366.28125 C 508.519531 386.257812 528 505.007812 491.914062 524.109375 C 459.074219 541.46875 401.011719 517.867188 374.164062 506.253906 C 354.0625 530.980469 328.589844 548.835938 293.5 528.605469 C 253.917969 505.628906 281.765625 380.015625 290.128906 366.90625 C 303.867188 345.425781 340.699219 341.058594 340.699219 341.058594 C 340.699219 341.058594 360.929688 343.679688 392.769531 352.421875 Z M 392.769531 352.421875 " fill-opacity="1" fill-rule="nonzero"/><path fill="#feac7c" d="M 441.59375 337.6875 C 447.210938 339.558594 451.957031 340.933594 451.957031 340.933594 C 451.957031 340.933594 445.089844 366.90625 415.121094 375.019531 C 393.144531 363.160156 373.664062 358.789062 373.664062 358.789062 L 366.546875 370.652344 C 345.320312 360.285156 340.824219 340.933594 340.824219 340.933594 C 340.824219 340.933594 364.550781 334.066406 370.167969 329.320312 C 375.164062 325.074219 374.039062 301.972656 373.789062 297.105469 C 359.554688 290.984375 352.8125 279.125 349.691406 268.386719 C 341.824219 269.007812 335.332031 255.023438 338.953125 248.65625 C 342.824219 241.789062 347.070312 246.410156 347.070312 246.410156 C 368.046875 251.652344 400.886719 220.6875 411.125 194.714844 C 411.375 194.214844 412 194.339844 412.125 194.839844 C 415.621094 212.070312 431.851562 237.042969 445.089844 246.410156 C 445.089844 246.410156 449.335938 241.789062 453.207031 248.65625 C 457.078125 255.523438 449.335938 271.507812 440.46875 267.886719 C 440.46875 267.511719 440.46875 267.136719 440.59375 266.761719 C 436.347656 279.996094 429.605469 290.363281 418.867188 296.230469 L 419.117188 296.230469 C 419.117188 296.230469 418.992188 298.851562 418.867188 302.472656 C 420.863281 302.597656 425.984375 303.347656 427.109375 308.09375 C 433.226562 308.34375 435.847656 312.460938 435.472656 314.960938 C 439.59375 314.710938 441.84375 324.199219 439.34375 326.324219 C 443.089844 325.949219 442.839844 333.691406 441.59375 337.6875 Z M 441.59375 337.6875 C 447.210938 339.558594 451.957031 340.933594 451.957031 340.933594 C 451.957031 340.933594 445.089844 366.90625 415.121094 375.019531 C 393.144531 363.160156 373.664062 358.789062 373.664062 358.789062 L 366.546875 370.652344 C 345.320312 360.285156 340.824219 340.933594 340.824219 340.933594 C 340.824219 340.933594 364.550781 334.066406 370.167969 329.320312 C 375.164062 325.074219 374.039062 301.972656 373.789062 297.105469 C 359.554688 290.984375 352.8125 279.125 349.691406 268.386719 C 341.824219 269.007812 335.332031 255.023438 338.953125 248.65625 C 342.824219 241.789062 347.070312 246.410156 347.070312 246.410156 C 368.046875 251.652344 400.886719 220.6875 411.125 194.714844 C 411.375 194.214844 412 194.339844 412.125 194.839844 C 415.621094 212.070312 431.851562 237.042969 445.089844 246.410156 C 445.089844 246.410156 449.335938 241.789062 453.207031 248.65625 C 457.078125 255.523438 449.335938 271.507812 440.46875 267.886719 C 440.46875 267.511719 440.46875 267.136719 440.59375 266.761719 C 436.347656 279.996094 429.605469 290.363281 418.867188 296.230469 L 419.117188 296.230469 C 419.117188 296.230469 418.992188 298.851562 418.867188 302.472656 C 420.863281 302.597656 425.984375 303.347656 427.109375 308.09375 C 433.226562 308.34375 435.847656 312.460938 435.472656 314.960938 C 439.59375 314.710938 441.84375 324.199219 439.34375 326.324219 C 443.089844 325.949219 442.839844 333.691406 441.59375 337.6875 Z M 441.59375 337.6875 " fill-opacity="1" fill-rule="nonzero"/><path fill="#000000" d="M 377.035156 246.785156 C 377.035156 244.035156 378.535156 241.664062 380.285156 241.664062 C 382.03125 241.664062 383.53125 243.910156 383.53125 246.785156 C 383.53125 249.53125 382.03125 251.902344 380.285156 251.902344 C 378.535156 251.902344 377.035156 249.65625 377.035156 246.785156 Z M 413.375 251.902344 C 415.246094 251.902344 416.621094 249.65625 416.621094 246.785156 C 416.621094 244.035156 415.121094 241.664062 413.375 241.664062 C 411.625 241.664062 410.125 243.910156 410.125 246.785156 C 410 249.65625 411.5 251.902344 413.375 251.902344 Z M 396.515625 263.140625 C 396.890625 253.402344 397.015625 243.535156 396.765625 233.796875 C 396.765625 232.546875 394.894531 232.546875 394.894531 233.796875 C 395.144531 243.535156 395.144531 253.402344 394.644531 263.140625 C 394.519531 264.265625 396.390625 264.265625 396.515625 263.140625 Z M 386.277344 273.378906 C 388.398438 273.628906 390.398438 274.128906 392.144531 275.378906 C 393.894531 276.625 395.144531 278.375 396.515625 279.996094 C 396.890625 280.371094 397.515625 280.371094 397.890625 279.996094 C 398.265625 279.621094 398.265625 279.125 397.890625 278.625 C 396.390625 276.75 395.019531 274.878906 393.019531 273.628906 C 391.023438 272.257812 388.773438 271.632812 386.402344 271.382812 C 385.902344 271.382812 385.402344 271.882812 385.402344 272.378906 C 385.277344 273.003906 385.777344 273.378906 386.277344 273.378906 Z M 391.523438 304.847656 C 398.140625 305.71875 404.757812 304.472656 411 302.222656 C 413.996094 301.101562 416.996094 299.851562 419.617188 297.851562 C 420.617188 297.105469 419.617188 295.480469 418.617188 296.230469 C 416.496094 297.851562 413.996094 298.976562 411.5 299.976562 C 408.503906 301.101562 405.382812 302.097656 402.261719 302.597656 C 395.890625 303.722656 389.523438 302.972656 383.40625 301.101562 C 380.410156 300.226562 377.285156 299.101562 374.664062 297.230469 C 373.664062 296.605469 372.667969 298.226562 373.664062 298.851562 C 376.039062 300.476562 378.785156 301.597656 381.40625 302.472656 C 384.777344 303.722656 388.148438 304.472656 391.523438 304.847656 Z M 375.664062 357.414062 C 378.910156 347.300781 382.03125 337.1875 385.277344 327.070312 C 386.027344 324.574219 386.777344 322.078125 387.652344 319.582031 C 388.273438 317.457031 389.023438 315.460938 390.273438 313.585938 C 392.769531 309.964844 397.140625 308.839844 401.136719 308.09375 C 407.003906 306.84375 412.875 305.59375 418.742188 304.472656 C 419.867188 304.222656 419.367188 302.472656 418.242188 302.722656 C 412.875 303.847656 407.503906 304.972656 402.136719 306.09375 C 397.890625 306.96875 393.269531 307.71875 390.148438 310.964844 C 386.902344 314.335938 385.902344 319.332031 384.527344 323.699219 C 382.90625 328.945312 381.28125 334.191406 379.535156 339.433594 C 377.660156 345.300781 375.789062 351.171875 374.039062 357.039062 C 373.414062 358.164062 375.289062 358.664062 375.664062 357.414062 Z M 409.003906 314.085938 C 414.746094 311.339844 420.988281 309.714844 427.359375 309.214844 C 428.605469 309.089844 428.605469 307.21875 427.359375 307.34375 C 420.617188 307.84375 414.121094 309.589844 408.003906 312.460938 C 407.003906 312.960938 408.003906 314.585938 409.003906 314.085938 Z M 434.976562 314.335938 C 427.984375 314.585938 420.988281 315.585938 414.121094 317.207031 C 413 317.457031 413.496094 319.332031 414.621094 318.957031 C 421.238281 317.332031 428.105469 316.332031 434.976562 316.207031 C 436.097656 316.207031 436.097656 314.335938 434.976562 314.335938 Z M 419.617188 324.449219 C 418.367188 324.574219 418.367188 326.449219 419.617188 326.324219 C 426.484375 325.824219 433.351562 325.074219 440.09375 325.949219 C 441.34375 326.074219 441.21875 324.199219 440.09375 324.074219 C 433.351562 323.203125 426.359375 323.949219 419.617188 324.449219 Z M 432.601562 349.546875 C 435.101562 349.421875 436.972656 346.925781 438.222656 345.054688 C 439.71875 342.929688 440.71875 340.558594 441.21875 337.933594 C 441.46875 336.8125 439.59375 336.3125 439.46875 337.4375 C 439.09375 339.433594 438.347656 341.433594 437.222656 343.179688 C 436.222656 344.679688 434.851562 346.800781 433.101562 347.550781 C 432.226562 347.925781 431.355469 347.425781 430.980469 346.675781 C 430.480469 345.675781 430.605469 344.429688 430.730469 343.429688 C 431.105469 341.058594 431.480469 338.683594 432.101562 336.3125 C 432.226562 335.8125 431.851562 335.0625 431.230469 335.1875 C 427.109375 335.5625 423.113281 335.9375 418.992188 336.3125 C 418.742188 336.3125 418.617188 336.4375 418.492188 336.5625 C 418.492188 336.5625 418.367188 336.6875 418.367188 336.6875 C 418.242188 336.8125 418.117188 337.0625 418.117188 337.3125 C 417.867188 341.804688 417.742188 346.300781 416.996094 350.796875 C 416.621094 353.667969 415.871094 356.664062 413.871094 358.789062 C 412.75 359.910156 411.375 360.660156 409.875 361.035156 C 409.628906 361.160156 409.378906 361.285156 409.253906 361.535156 C 409.128906 361.660156 408.878906 361.785156 408.878906 362.035156 C 407.753906 364.78125 406.628906 367.527344 405.382812 370.277344 C 405.132812 370.773438 405.632812 371.273438 406.007812 371.398438 C 406.503906 371.523438 407.003906 371.273438 407.128906 370.773438 C 408.253906 368.152344 409.378906 365.40625 410.5 362.785156 C 413.375 361.785156 415.746094 359.910156 417.117188 357.164062 C 418.742188 353.792969 418.992188 349.796875 419.242188 346.050781 C 419.492188 343.429688 419.617188 340.808594 419.742188 338.183594 C 423.113281 337.9375 426.484375 337.5625 429.855469 337.3125 C 429.230469 339.808594 428.730469 342.304688 428.605469 344.804688 C 428.605469 346.800781 429.855469 349.671875 432.601562 349.546875 Z M 299.621094 358.664062 C 305.613281 361.660156 310.109375 367.152344 312.105469 373.523438 C 312.480469 374.644531 314.230469 374.148438 313.855469 373.023438 C 311.730469 366.15625 306.863281 360.285156 300.492188 357.039062 C 299.496094 356.414062 298.496094 358.039062 299.621094 358.664062 Z M 365.300781 370.527344 C 356.683594 383.136719 348.316406 396 340.203125 408.984375 C 336.332031 415.226562 332.460938 421.347656 328.714844 427.589844 C 326.964844 417.101562 325.09375 406.488281 322.84375 396.125 C 322.222656 393 321.472656 389.753906 320.722656 386.632812 C 320.472656 385.507812 318.601562 386.007812 318.972656 387.132812 C 321.472656 398.246094 323.71875 409.359375 325.59375 420.472656 C 326.089844 423.59375 326.714844 426.839844 327.214844 430.085938 C 323.21875 436.578125 319.222656 443.199219 315.226562 449.691406 C 310.859375 456.808594 306.613281 463.925781 302.242188 471.042969 C 301.617188 472.042969 303.242188 473.039062 303.867188 472.042969 C 311.855469 458.929688 319.722656 445.820312 327.714844 432.832031 C 336.082031 419.222656 344.445312 405.738281 353.0625 392.378906 C 357.558594 385.382812 362.179688 378.390625 366.921875 371.523438 C 367.671875 370.402344 366.050781 369.527344 365.300781 370.527344 Z M 311.109375 447.816406 C 303.867188 448.191406 296.871094 450.691406 291.003906 454.808594 C 290.003906 455.433594 291.003906 457.183594 292.003906 456.433594 C 297.621094 452.4375 304.363281 450.191406 311.234375 449.691406 C 312.355469 449.566406 312.355469 447.691406 311.109375 447.816406 Z M 481.800781 475.289062 C 472.683594 472.417969 463.320312 469.917969 454.078125 467.796875 C 457.949219 466.046875 462.070312 465.050781 466.441406 465.175781 C 471.0625 465.421875 475.554688 466.796875 479.925781 467.921875 C 481.050781 468.171875 481.550781 466.421875 480.425781 466.171875 C 475.804688 464.925781 471.0625 463.550781 466.191406 463.300781 C 464.566406 463.175781 462.820312 463.300781 461.320312 463.550781 C 461.445312 463.425781 461.570312 463.175781 461.570312 463.050781 C 462.445312 449.566406 465.941406 436.453125 468.6875 423.21875 C 469.3125 420.222656 469.9375 417.226562 470.4375 414.105469 C 470.6875 412.980469 468.8125 412.355469 468.6875 413.605469 C 467.691406 419.472656 466.316406 425.34375 465.066406 431.085938 C 463.570312 437.953125 462.070312 444.820312 461.070312 451.6875 C 460.449219 455.433594 459.949219 459.179688 459.699219 462.925781 C 459.699219 463.300781 459.824219 463.550781 460.074219 463.675781 C 456.953125 464.300781 454.078125 465.425781 451.207031 466.921875 C 450.457031 466.796875 449.835938 466.546875 449.085938 466.421875 C 438.097656 463.925781 427.109375 461.804688 415.996094 460.179688 C 410.125 459.304688 404.132812 458.554688 398.265625 457.933594 C 398.515625 457.308594 398.765625 456.683594 399.136719 455.933594 C 402.882812 446.945312 406.503906 437.953125 410 428.839844 C 413.25 420.597656 416.246094 412.355469 419.242188 403.988281 C 421.613281 397.371094 423.863281 390.753906 425.984375 384.136719 C 426.234375 383.511719 426.359375 382.761719 426.609375 382.136719 C 426.734375 381.886719 426.609375 381.390625 426.359375 381.265625 C 425.109375 380.140625 423.738281 379.140625 422.488281 378.140625 C 420.492188 376.644531 418.367188 374.894531 416.121094 373.898438 C 414.996094 373.398438 414.121094 375.019531 415.121094 375.519531 C 417.367188 376.519531 419.367188 378.140625 421.238281 379.640625 C 422.363281 380.515625 423.488281 381.390625 424.609375 382.386719 C 422.613281 388.507812 420.617188 394.625 418.367188 400.742188 C 415.496094 408.859375 412.5 416.976562 409.378906 425.09375 C 405.882812 434.082031 402.386719 443.074219 398.640625 451.9375 C 394.894531 460.929688 391.023438 469.792969 387.027344 478.660156 C 383.28125 486.777344 379.410156 494.765625 375.164062 502.632812 C 374.664062 503.507812 374.289062 504.382812 373.789062 505.257812 C 373.167969 506.253906 374.789062 507.253906 375.414062 506.253906 C 379.660156 498.636719 383.53125 490.773438 387.152344 482.78125 C 390.648438 475.164062 394.019531 467.546875 397.265625 459.929688 C 408.253906 461.179688 419.242188 462.675781 430.105469 464.800781 C 441.09375 466.796875 451.957031 469.292969 462.820312 472.042969 C 468.9375 473.664062 475.058594 475.414062 481.050781 477.160156 C 482.425781 477.410156 482.921875 475.539062 481.800781 475.289062 Z M 492.289062 373.523438 C 487.042969 378.515625 482.175781 383.886719 477.929688 389.753906 C 477.179688 390.753906 478.804688 391.628906 479.550781 390.753906 C 483.671875 385.011719 488.417969 379.640625 493.660156 374.894531 C 494.410156 374.023438 493.164062 372.648438 492.289062 373.523438 Z M 413.746094 224.433594 C 417.617188 223.933594 421.488281 225.554688 423.863281 228.675781 C 424.238281 229.050781 424.859375 229.050781 425.234375 228.675781 C 425.609375 228.304688 425.609375 227.804688 425.234375 227.304688 C 422.613281 223.933594 418.117188 222.058594 413.746094 222.558594 C 413.25 222.558594 412.75 222.933594 412.75 223.558594 C 412.875 223.933594 413.25 224.558594 413.746094 224.433594 Z M 343.199219 252.277344 C 344.945312 254.027344 346.320312 256.273438 346.945312 258.644531 C 346.445312 258.269531 345.820312 258.019531 345.195312 257.894531 C 344.074219 257.648438 343.574219 259.394531 344.695312 259.644531 C 345.820312 259.894531 346.820312 260.644531 347.445312 261.640625 C 347.941406 262.390625 349.191406 262.140625 349.191406 261.144531 C 348.941406 257.273438 347.320312 253.652344 344.570312 250.902344 C 343.574219 250.03125 342.324219 251.402344 343.199219 252.277344 Z M 447.585938 253.277344 C 447.960938 253.027344 448.210938 252.402344 447.960938 252.027344 C 447.710938 251.652344 447.085938 251.402344 446.710938 251.652344 C 443.964844 253.652344 441.96875 256.648438 441.46875 259.894531 C 441.34375 260.394531 441.59375 260.769531 441.96875 261.019531 C 442.34375 261.144531 442.964844 261.019531 443.089844 260.644531 C 443.339844 260.269531 443.464844 260.144531 443.839844 259.894531 C 444.089844 259.769531 444.464844 259.644531 444.714844 259.769531 C 445.214844 259.894531 445.714844 259.644531 445.839844 259.144531 C 445.964844 258.644531 445.714844 258.019531 445.214844 258.019531 C 444.714844 257.894531 444.339844 258.019531 443.839844 258.019531 C 444.714844 256.148438 445.964844 254.398438 447.585938 253.277344 Z M 365.800781 189.34375 C 354.1875 196.710938 346.070312 208.949219 343.324219 222.308594 C 342.574219 226.054688 342.199219 229.925781 342.324219 233.796875 C 342.324219 235.046875 344.199219 235.046875 344.199219 233.796875 C 343.699219 220.6875 348.941406 207.574219 358.058594 198.085938 C 360.679688 195.464844 363.550781 193.089844 366.671875 191.09375 C 367.671875 190.34375 366.796875 188.71875 365.800781 189.34375 Z M 350.566406 240.289062 C 354.4375 235.046875 358.683594 230.050781 363.175781 225.304688 C 364.050781 224.433594 362.675781 223.058594 361.804688 223.933594 C 357.183594 228.800781 352.9375 233.921875 348.941406 239.292969 C 348.191406 240.289062 349.816406 241.289062 350.566406 240.289062 Z M 451.332031 226.179688 C 451.582031 229.925781 451.332031 233.796875 450.707031 237.542969 C 450.457031 238.667969 452.332031 239.167969 452.457031 238.042969 C 454.953125 224.183594 451.332031 209.574219 442.964844 198.335938 C 440.59375 195.214844 437.972656 192.214844 434.851562 189.71875 C 433.976562 188.96875 432.601562 190.21875 433.476562 191.09375 C 444.089844 199.707031 450.582031 212.695312 451.332031 226.179688 Z M 403.757812 169.742188 C 403.882812 169.742188 404.007812 169.867188 404.132812 169.867188 C 404.132812 169.867188 404.257812 169.867188 404.257812 169.867188 C 404.257812 169.867188 404.382812 169.867188 404.382812 169.867188 C 404.382812 169.867188 404.507812 169.867188 404.507812 169.867188 C 404.507812 169.867188 404.632812 169.867188 404.632812 169.992188 C 404.757812 169.992188 404.882812 170.117188 405.007812 170.117188 C 405.382812 170.363281 405.882812 170.613281 406.253906 170.863281 C 406.253906 170.863281 406.378906 170.863281 406.378906 170.988281 C 406.503906 171.113281 406.503906 171.113281 406.628906 171.238281 C 406.753906 171.363281 407.003906 171.613281 407.128906 171.738281 C 407.253906 171.863281 407.503906 172.113281 407.628906 172.238281 C 407.753906 172.363281 407.753906 172.488281 407.878906 172.488281 C 407.878906 172.488281 408.003906 172.613281 408.003906 172.613281 C 407.878906 172.488281 408.003906 172.613281 408.003906 172.613281 C 408.253906 172.988281 408.878906 173.238281 409.253906 172.988281 C 409.628906 172.738281 409.875 172.113281 409.628906 171.738281 C 408.253906 169.867188 406.378906 168.492188 404.257812 167.742188 C 403.757812 167.617188 403.257812 167.867188 403.132812 168.367188 C 403.007812 169.117188 403.257812 169.617188 403.757812 169.742188 Z M 416.371094 175.984375 C 416.496094 175.859375 416.496094 175.859375 416.621094 175.734375 C 416.621094 175.734375 416.746094 175.609375 416.871094 175.609375 C 417.117188 175.484375 417.242188 175.359375 417.492188 175.234375 C 417.617188 175.109375 417.867188 174.984375 417.992188 174.984375 C 417.992188 174.984375 418.367188 174.859375 418.117188 174.859375 C 418.242188 174.859375 418.367188 174.734375 418.492188 174.734375 C 419.492188 174.359375 420.117188 174.234375 421.113281 174.234375 C 421.613281 174.234375 422.113281 173.863281 422.113281 173.238281 C 422.113281 172.738281 421.738281 172.363281 421.113281 172.238281 C 418.867188 172.238281 416.746094 172.988281 415.121094 174.484375 C 414.746094 174.859375 414.746094 175.484375 415.121094 175.859375 C 415.496094 176.359375 415.996094 176.359375 416.371094 175.984375 Z M 406.878906 178.230469 C 406.253906 178.230469 405.632812 178.230469 404.882812 178.230469 C 404.632812 178.230469 404.382812 178.355469 404.257812 178.480469 C 404.132812 178.605469 404.007812 178.855469 404.007812 179.105469 C 404.007812 179.605469 404.382812 180.105469 405.007812 180.105469 C 405.632812 180.105469 406.253906 180.105469 407.003906 180.105469 C 407.253906 180.105469 407.503906 179.980469 407.628906 179.855469 C 407.753906 179.730469 407.878906 179.480469 407.878906 179.230469 C 407.878906 178.730469 407.503906 178.230469 406.878906 178.230469 Z M 406.878906 178.230469 " fill-opacity="1" fill-rule="nonzero"/><path fill="#ffab11" d="M 509.394531 286.988281 C 509.519531 287.988281 509.019531 289.113281 508.148438 289.738281 C 507.773438 289.988281 507.273438 290.238281 506.898438 290.238281 C 506.398438 290.238281 505.898438 290.238281 505.398438 289.988281 C 504.402344 289.613281 503.902344 288.738281 503.777344 287.738281 C 503.652344 286.742188 504.152344 285.617188 505.023438 284.992188 C 505.898438 284.367188 506.898438 284.367188 507.773438 284.742188 C 508.644531 285.117188 509.269531 285.992188 509.394531 286.988281 Z M 493.039062 277.125 C 492.039062 276.75 491.039062 276.75 490.289062 277.375 C 489.417969 278 488.917969 279 489.042969 280.121094 C 489.167969 281.121094 489.792969 281.996094 490.664062 282.371094 C 491.164062 282.621094 491.664062 282.621094 492.164062 282.621094 C 492.664062 282.621094 493.039062 282.371094 493.414062 282.121094 C 494.285156 281.496094 494.785156 280.496094 494.660156 279.375 C 494.660156 278.375 494.035156 277.5 493.039062 277.125 Z M 541.984375 250.28125 C 540.984375 247.03125 538.738281 244.660156 535.492188 243.535156 C 531.121094 242.039062 526.128906 243.785156 521.882812 248.15625 C 521.757812 248.40625 521.507812 248.53125 521.382812 248.78125 L 525.128906 252.652344 C 525.503906 252.527344 525.753906 252.277344 526.003906 252.027344 C 528 250.03125 530.496094 248.78125 532.496094 248.78125 C 533.621094 248.78125 534.617188 249.28125 535.367188 250.15625 C 537.613281 252.777344 536.617188 257.148438 534.742188 260.019531 C 533.992188 261.269531 532.621094 262.765625 530.746094 263.515625 C 529.625 263.890625 528.5 264.015625 527.125 264.140625 C 526.253906 264.265625 525.378906 264.390625 524.378906 264.515625 C 519.507812 265.511719 515.390625 269.257812 513.515625 274.503906 C 513.390625 274.753906 513.390625 275.003906 513.390625 275.253906 L 518.761719 276.875 C 518.761719 276.75 518.886719 276.75 518.886719 276.625 C 519.632812 274.628906 520.757812 272.878906 522.257812 271.632812 C 523.503906 270.632812 525.003906 270.007812 527.375 269.757812 L 527.75 269.757812 C 529.75 269.507812 531.746094 269.257812 533.742188 268.386719 C 535.492188 267.511719 537.117188 266.261719 538.488281 264.515625 C 541.859375 260.769531 543.234375 254.773438 541.984375 250.28125 Z M 511.269531 236.917969 C 509.269531 233.296875 505.023438 231.550781 500.65625 232.421875 C 495.910156 233.421875 491.664062 237.167969 489.042969 242.914062 C 488.917969 243.285156 488.792969 243.535156 488.792969 243.910156 L 493.785156 246.035156 C 493.910156 245.785156 494.160156 245.535156 494.285156 245.285156 C 496.035156 241.539062 499.53125 237.292969 503.652344 238.042969 C 504.773438 238.167969 505.523438 238.667969 506.023438 239.542969 C 506.898438 241.039062 507.148438 243.410156 506.523438 245.785156 C 506.023438 247.78125 504.898438 249.53125 503.402344 250.902344 C 502.527344 251.652344 501.402344 252.402344 500.28125 253.152344 C 499.40625 253.777344 498.40625 254.398438 497.53125 255.023438 C 493.289062 258.394531 490.914062 263.265625 490.914062 268.636719 C 490.914062 268.882812 490.914062 269.132812 491.039062 269.382812 L 496.535156 269.257812 C 496.660156 269.007812 496.660156 268.636719 496.660156 268.386719 C 496.660156 263.515625 499.90625 260.269531 502.777344 258.394531 C 506.648438 255.773438 509.894531 253.277344 511.644531 248.90625 C 513.265625 244.535156 513.140625 240.164062 511.269531 236.917969 Z M 511.269531 236.917969 " fill-opacity="1" fill-rule="nonzero"/><g fill="#ffffff" fill-opacity="1"><g transform="translate(602.902457, 623.870772)"><g><path d="M 0.890625 -0.625 C 0.890625 -0.882812 0.945312 -1.082031 1.0625 -1.21875 C 1.1875 -1.351562 1.359375 -1.421875 1.578125 -1.421875 C 1.804688 -1.421875 1.984375 -1.351562 2.109375 -1.21875 C 2.234375 -1.082031 2.296875 -0.882812 2.296875 -0.625 C 2.296875 -0.363281 2.226562 -0.164062 2.09375 -0.03125 C 1.96875 0.101562 1.796875 0.171875 1.578125 0.171875 C 1.378906 0.171875 1.210938 0.109375 1.078125 -0.015625 C 0.953125 -0.140625 0.890625 -0.34375 0.890625 -0.625 Z M 0.890625 -0.625 "/></g></g></g></svg>