<svg xmlns="http://www.w3.org/2000/svg" xmlns:xlink="http://www.w3.org/1999/xlink" width="335" zoomAndPan="magnify" viewBox="0 0 251.25 260.249984" height="347" preserveAspectRatio="xMidYMid meet" version="1.0"><defs><g/><clipPath id="faea6e0b9f"><path d="M 10.46875 0.0117188 L 240.035156 0.0117188 L 240.035156 229.578125 L 10.46875 229.578125 Z M 10.46875 0.0117188 " clip-rule="nonzero"/></clipPath></defs><g clip-path="url(#faea6e0b9f)"><path fill="#dc3545" d="M 125.320312 0.0117188 C 62.152344 0.0117188 10.46875 51.695312 10.46875 114.867188 C 10.46875 178.035156 62.152344 229.71875 125.320312 229.71875 C 188.488281 229.71875 240.171875 178.035156 240.171875 114.867188 C 240.171875 51.695312 188.488281 0.0117188 125.320312 0.0117188 Z M 140.253906 167.699219 L 119.578125 167.699219 L 119.578125 86.152344 L 94.3125 94.191406 L 94.3125 76.964844 L 137.953125 60.886719 L 140.253906 60.886719 Z M 140.253906 167.699219 " fill-opacity="1" fill-rule="nonzero"/></g><g fill="#dc3545" fill-opacity="1"><g transform="translate(120.764504, 197.97245)"><g><path d="M 1.828125 -2.234375 C 1.828125 -3.097656 2.054688 -3.753906 2.515625 -4.203125 C 2.984375 -4.648438 3.664062 -4.875 4.5625 -4.875 C 5.425781 -4.875 6.09375 -4.644531 6.5625 -4.1875 C 7.039062 -3.726562 7.28125 -3.078125 7.28125 -2.234375 C 7.28125 -1.410156 7.039062 -0.757812 6.5625 -0.28125 C 6.082031 0.1875 5.414062 0.421875 4.5625 0.421875 C 3.6875 0.421875 3.007812 0.191406 2.53125 -0.265625 C 2.0625 -0.734375 1.828125 -1.390625 1.828125 -2.234375 Z M 1.828125 -2.234375 "/></g></g></g></svg>