<svg xmlns="http://www.w3.org/2000/svg" xmlns:xlink="http://www.w3.org/1999/xlink" width="335" zoomAndPan="magnify" viewBox="0 0 251.25 241.499991" height="322" preserveAspectRatio="xMidYMid meet" version="1.0"><defs><g/><clipPath id="09d3a35a2c"><path d="M 16.449219 10.578125 L 246.015625 10.578125 L 246.015625 240.144531 L 16.449219 240.144531 Z M 16.449219 10.578125 " clip-rule="nonzero"/></clipPath></defs><g clip-path="url(#09d3a35a2c)"><path fill="#dc3545" d="M 131.304688 10.578125 C 67.875 10.578125 16.449219 62.003906 16.449219 125.429688 C 16.449219 188.859375 67.875 240.285156 131.304688 240.285156 C 194.730469 240.285156 246.15625 188.859375 246.15625 125.429688 C 246.15625 62.003906 194.730469 10.578125 131.304688 10.578125 Z M 165.914062 173.285156 L 97.804688 173.285156 L 97.804688 159.484375 L 128.625 129.328125 C 141.90625 116.367188 145.238281 111.46875 145.238281 105.3125 C 145.238281 97.722656 139.085938 92.355469 130.453125 92.355469 C 121.292969 92.355469 115.011719 98.375 115.011719 107.074219 L 115.011719 107.464844 L 96.695312 107.464844 L 96.695312 107.140625 C 96.695312 88.890625 110.695312 76.457031 131.113281 76.457031 C 150.808594 76.457031 164.542969 87.777344 164.542969 104 C 164.542969 114.273438 158.984375 123.105469 142.625 138.484375 L 124.566406 155.695312 L 124.566406 156.871094 L 165.914062 156.871094 Z M 165.914062 173.285156 " fill-opacity="1" fill-rule="nonzero"/></g><g fill="#dc3545" fill-opacity="1"><g transform="translate(120.764504, 41.037938)"><g><path d="M 1.828125 -2.234375 C 1.828125 -3.097656 2.054688 -3.753906 2.515625 -4.203125 C 2.984375 -4.648438 3.664062 -4.875 4.5625 -4.875 C 5.425781 -4.875 6.09375 -4.644531 6.5625 -4.1875 C 7.039062 -3.726562 7.28125 -3.078125 7.28125 -2.234375 C 7.28125 -1.410156 7.039062 -0.757812 6.5625 -0.28125 C 6.082031 0.1875 5.414062 0.421875 4.5625 0.421875 C 3.6875 0.421875 3.007812 0.191406 2.53125 -0.265625 C 2.0625 -0.734375 1.828125 -1.390625 1.828125 -2.234375 Z M 1.828125 -2.234375 "/></g></g></g></svg>