<svg xmlns="http://www.w3.org/2000/svg" xmlns:xlink="http://www.w3.org/1999/xlink" width="335" zoomAndPan="magnify" viewBox="0 0 251.25 248.250006" height="331" preserveAspectRatio="xMidYMid meet" version="1.0"><defs><g/><clipPath id="2c863ddc9f"><path d="M 10.472656 0 L 240.03125 0 L 240.03125 229.554688 L 10.472656 229.554688 Z M 10.472656 0 " clip-rule="nonzero"/></clipPath></defs><g clip-path="url(#2c863ddc9f)"><path fill="#dc3545" d="M 125.320312 0 C 61.894531 0 10.472656 51.421875 10.472656 114.847656 C 10.472656 178.273438 61.894531 229.695312 125.320312 229.695312 C 188.746094 229.695312 240.167969 178.273438 240.167969 114.847656 C 240.167969 51.421875 188.746094 0 125.320312 0 Z M 124.863281 164.472656 C 103.796875 164.472656 89.535156 152.824219 88.683594 135.03125 L 107.597656 135.03125 C 108.191406 143.015625 114.925781 148.050781 125.0625 148.050781 C 134.941406 148.050781 141.8125 142.488281 141.8125 134.441406 C 141.8125 126.199219 135.332031 121.089844 124.738281 121.089844 L 113.023438 121.089844 L 113.023438 106.367188 L 124.535156 106.367188 C 133.503906 106.367188 139.582031 101.132812 139.582031 93.410156 C 139.582031 85.820312 133.695312 80.976562 124.46875 80.976562 C 115.308594 80.976562 109.222656 86.144531 108.707031 94.328125 L 90.457031 94.328125 C 91.105469 76.46875 104.390625 65.214844 124.996094 65.214844 C 144.355469 65.214844 158.292969 75.808594 158.292969 90.664062 C 158.292969 101.59375 151.421875 110.089844 140.894531 112.253906 L 140.894531 113.433594 C 153.851562 114.867188 161.957031 123.511719 161.957031 135.941406 C 161.957031 152.5 146.386719 164.472656 124.863281 164.472656 Z M 124.863281 164.472656 " fill-opacity="1" fill-rule="nonzero"/></g><g fill="#dc3545" fill-opacity="1"><g transform="translate(120.764679, 185.988115)"><g><path d="M 1.828125 -2.234375 C 1.828125 -3.097656 2.054688 -3.753906 2.515625 -4.203125 C 2.984375 -4.648438 3.664062 -4.875 4.5625 -4.875 C 5.425781 -4.875 6.09375 -4.644531 6.5625 -4.1875 C 7.039062 -3.726562 7.28125 -3.078125 7.28125 -2.234375 C 7.28125 -1.410156 7.039062 -0.757812 6.5625 -0.28125 C 6.082031 0.1875 5.414062 0.421875 4.5625 0.421875 C 3.6875 0.421875 3.007812 0.191406 2.53125 -0.265625 C 2.0625 -0.734375 1.828125 -1.390625 1.828125 -2.234375 Z M 1.828125 -2.234375 "/></g></g></g></svg>