<svg xmlns="http://www.w3.org/2000/svg" xmlns:xlink="http://www.w3.org/1999/xlink" width="297" zoomAndPan="magnify" viewBox="0 0 222.75 231" height="308" preserveAspectRatio="xMidYMid meet" version="1.0"><defs><g/><clipPath id="8696002a2d"><path d="M 2 0.722656 L 222 0.722656 L 222 230.714844 L 2 230.714844 Z M 2 0.722656 " clip-rule="nonzero"/></clipPath></defs><g clip-path="url(#8696002a2d)"><path fill="#e2eaff" d="M 120.734375 136.816406 C 122.585938 138.476562 124.367188 140.074219 126.03125 141.59375 C 128.394531 143.75 131.351562 144.828125 134.308594 144.828125 C 137.285156 144.828125 140.261719 143.734375 142.628906 141.554688 C 144.515625 139.816406 146.519531 138.003906 148.601562 136.121094 C 167.273438 119.230469 190.511719 98.207031 191.054688 76.507812 C 191.269531 67.910156 187.828125 60 180.824219 52.996094 C 169.335938 41.511719 150.960938 39.378906 137.125 47.933594 C 135.351562 49.03125 133.320312 49.03125 131.542969 47.933594 C 117.707031 39.382812 99.328125 41.511719 87.84375 52.996094 C 80.871094 59.96875 77.457031 67.886719 77.691406 76.527344 C 78.285156 98.722656 102.820312 120.738281 120.734375 136.816406 Z M 92.769531 57.921875 C 98.203125 52.488281 105.558594 49.664062 112.957031 49.664062 C 118.121094 49.664062 123.304688 51.039062 127.875 53.859375 C 131.917969 56.355469 136.742188 56.355469 140.789062 53.859375 C 151.902344 46.984375 166.664062 48.695312 175.890625 57.921875 C 181.570312 63.601562 184.25 69.625 184.085938 76.332031 C 183.617188 95.039062 160.671875 115.796875 143.921875 130.949219 C 141.824219 132.847656 139.804688 134.675781 137.90625 136.425781 C 135.863281 138.308594 132.777344 138.3125 130.726562 136.445312 C 129.046875 134.910156 127.253906 133.304688 125.386719 131.625 C 108.417969 116.394531 85.171875 95.539062 84.652344 76.339844 C 84.46875 69.589844 87.125 63.566406 92.769531 57.921875 Z M 178.828125 145.421875 L 151.109375 163.601562 C 149.769531 158.25 145.738281 153.707031 140.074219 152.023438 C 125.28125 147.617188 115.453125 143.554688 108.277344 140.589844 C 86.074219 131.414062 83.484375 131.816406 43.945312 152.738281 L 42.242188 150.285156 C 39.527344 146.367188 34.128906 145.386719 30.210938 148.101562 L 6.46875 164.550781 C 2.554688 167.265625 1.574219 172.660156 4.289062 176.582031 L 39.183594 226.9375 C 40.496094 228.832031 42.472656 230.101562 44.746094 230.515625 C 45.269531 230.609375 45.792969 230.660156 46.3125 230.660156 C 48.058594 230.660156 49.757812 230.128906 51.214844 229.121094 L 74.953125 212.667969 C 78.871094 209.953125 79.851562 204.554688 77.136719 200.636719 L 76.339844 199.488281 L 77.972656 197.039062 C 78.398438 196.398438 79.125 196.140625 79.863281 196.367188 L 125.78125 210.589844 C 127.285156 211.058594 128.921875 211.273438 130.667969 211.273438 C 146.96875 211.273438 172.785156 192.175781 192.140625 177.859375 C 197.582031 173.835938 202.285156 170.355469 205.753906 168.082031 C 214.433594 162.390625 213.886719 154.847656 210.78125 150.113281 C 205.234375 141.648438 190.386719 137.84375 178.828125 145.421875 Z M 70.988281 206.941406 L 47.246094 223.390625 C 46.757812 223.734375 46.253906 223.707031 45.996094 223.660156 C 45.738281 223.613281 45.257812 223.460938 44.917969 222.96875 L 10.019531 172.609375 C 9.492188 171.851562 9.683594 170.804688 10.441406 170.28125 L 34.179688 153.828125 C 34.941406 153.300781 35.988281 153.492188 36.515625 154.25 L 69.21875 201.441406 C 69.21875 201.441406 69.21875 201.445312 69.222656 201.445312 L 69.261719 201.503906 C 69.265625 201.507812 69.363281 201.648438 69.363281 201.652344 L 71.410156 204.605469 C 71.9375 205.367188 71.746094 206.414062 70.988281 206.941406 Z M 201.933594 162.25 C 198.296875 164.636719 193.523438 168.167969 187.996094 172.257812 C 170.066406 185.519531 140.0625 207.71875 127.84375 203.933594 L 81.929688 189.710938 C 78.238281 188.570312 74.320312 189.960938 72.175781 193.175781 L 72.074219 193.328125 L 47.945312 158.511719 C 85.386719 138.699219 86.0625 138.949219 105.617188 147.03125 C 112.929688 150.054688 122.949219 154.195312 138.085938 158.699219 C 142.929688 160.144531 145.699219 165.261719 144.257812 170.109375 C 142.832031 174.890625 137.691406 177.652344 132.804688 176.265625 L 94.164062 165.316406 C 92.308594 164.789062 90.382812 165.867188 89.859375 167.722656 C 89.335938 169.574219 90.414062 171.5 92.261719 172.027344 L 130.90625 182.972656 C 132.386719 183.394531 133.882812 183.597656 135.355469 183.597656 C 142.367188 183.597656 148.867188 179.058594 150.9375 172.101562 C 150.941406 172.082031 150.945312 172.0625 150.949219 172.046875 L 182.648438 151.253906 C 191.417969 145.503906 201.71875 149 204.957031 153.9375 C 206.882812 156.871094 205.867188 159.671875 201.933594 162.25 Z M 54.730469 206.609375 C 55.835938 208.183594 55.453125 210.359375 53.878906 211.464844 C 53.269531 211.886719 52.570312 212.09375 51.882812 212.09375 C 50.785156 212.09375 49.699219 211.578125 49.023438 210.605469 L 48.84375 210.347656 C 47.738281 208.773438 48.121094 206.597656 49.695312 205.492188 C 51.269531 204.390625 53.445312 204.773438 54.550781 206.347656 Z M 89.621094 17.050781 C 88.660156 15.382812 89.230469 13.25 90.898438 12.289062 C 92.5625 11.324219 94.695312 11.898438 95.660156 13.566406 L 99.679688 20.53125 C 100.640625 22.195312 100.074219 24.328125 98.40625 25.289062 C 97.855469 25.609375 97.257812 25.757812 96.667969 25.757812 C 95.460938 25.757812 94.289062 25.132812 93.644531 24.015625 Z M 59.074219 44.109375 C 60.035156 42.445312 62.167969 41.871094 63.835938 42.832031 L 70.800781 46.855469 C 72.464844 47.816406 73.039062 49.949219 72.078125 51.617188 C 71.429688 52.734375 70.257812 53.359375 69.054688 53.359375 C 68.460938 53.359375 67.863281 53.207031 67.316406 52.894531 L 60.351562 48.871094 C 58.683594 47.910156 58.113281 45.777344 59.074219 44.109375 Z M 47.429688 87.578125 C 47.429688 85.652344 48.992188 84.09375 50.914062 84.09375 L 58.957031 84.09375 C 60.882812 84.09375 62.441406 85.65625 62.441406 87.578125 C 62.441406 89.5 60.878906 91.0625 58.957031 91.0625 L 50.914062 91.0625 C 48.988281 91.066406 47.429688 89.503906 47.429688 87.578125 Z M 72.078125 123.542969 C 73.039062 125.210938 72.46875 127.34375 70.800781 128.304688 L 63.835938 132.324219 C 63.289062 132.640625 62.691406 132.789062 62.101562 132.789062 C 60.894531 132.789062 59.722656 132.164062 59.078125 131.046875 C 58.117188 129.378906 58.6875 127.246094 60.355469 126.285156 L 67.320312 122.265625 C 68.980469 121.304688 71.113281 121.878906 72.078125 123.542969 Z M 196.65625 123.542969 C 197.617188 121.875 199.75 121.304688 201.417969 122.265625 L 208.382812 126.285156 C 210.046875 127.246094 210.621094 129.378906 209.660156 131.046875 C 209.011719 132.164062 207.839844 132.789062 206.636719 132.789062 C 206.042969 132.789062 205.445312 132.636719 204.898438 132.324219 L 197.933594 128.304688 C 196.265625 127.34375 195.695312 125.210938 196.65625 123.542969 Z M 221.304688 87.578125 C 221.304688 89.503906 219.746094 91.0625 217.820312 91.0625 L 209.78125 91.0625 C 207.855469 91.0625 206.296875 89.5 206.296875 87.578125 C 206.296875 85.65625 207.855469 84.09375 209.78125 84.09375 L 217.820312 84.09375 C 219.746094 84.09375 221.304688 85.65625 221.304688 87.578125 Z M 196.65625 51.617188 C 195.695312 49.949219 196.265625 47.816406 197.933594 46.855469 L 204.898438 42.832031 C 206.5625 41.871094 208.695312 42.441406 209.660156 44.109375 C 210.621094 45.777344 210.050781 47.910156 208.382812 48.871094 L 201.417969 52.894531 C 200.867188 53.210938 200.269531 53.359375 199.679688 53.359375 C 198.476562 53.359375 197.304688 52.734375 196.65625 51.617188 Z M 169.054688 20.527344 L 173.078125 13.5625 C 174.039062 11.894531 176.171875 11.324219 177.835938 12.285156 C 179.503906 13.25 180.074219 15.382812 179.113281 17.046875 L 175.089844 24.011719 C 174.445312 25.128906 173.273438 25.753906 172.070312 25.753906 C 171.476562 25.753906 170.878906 25.601562 170.332031 25.289062 C 168.664062 24.328125 168.09375 22.195312 169.054688 20.527344 Z M 130.882812 12.167969 L 130.882812 4.125 C 130.882812 2.199219 132.445312 0.640625 134.367188 0.640625 C 136.292969 0.640625 137.851562 2.203125 137.851562 4.125 L 137.851562 12.167969 C 137.851562 14.09375 136.289062 15.652344 134.367188 15.652344 C 132.445312 15.652344 130.882812 14.09375 130.882812 12.167969 Z M 130.882812 12.167969 " fill-opacity="1" fill-rule="nonzero"/></g><g fill="#e2eaff" fill-opacity="1"><g transform="translate(84.143531, 136.492413)"><g><path d="M 0.59375 -0.734375 C 0.59375 -1.015625 0.671875 -1.226562 0.828125 -1.375 C 0.984375 -1.519531 1.207031 -1.59375 1.5 -1.59375 C 1.78125 -1.59375 1.992188 -1.515625 2.140625 -1.359375 C 2.296875 -1.210938 2.375 -1.003906 2.375 -0.734375 C 2.375 -0.460938 2.296875 -0.25 2.140625 -0.09375 C 1.984375 0.0625 1.769531 0.140625 1.5 0.140625 C 1.207031 0.140625 0.984375 0.0664062 0.828125 -0.078125 C 0.671875 -0.234375 0.59375 -0.453125 0.59375 -0.734375 Z M 0.59375 -0.734375 "/></g></g></g></svg>