<svg xmlns="http://www.w3.org/2000/svg" xmlns:xlink="http://www.w3.org/1999/xlink" width="188" zoomAndPan="magnify" viewBox="0 0 141 113.249998" height="151" preserveAspectRatio="xMidYMid meet" version="1.0"><defs><g/><clipPath id="cfde218356"><path d="M 79 0.523438 L 100 0.523438 L 100 21 L 79 21 Z M 79 0.523438 " clip-rule="nonzero"/></clipPath><clipPath id="87b6214eed"><path d="M 8 20 L 140.007812 20 L 140.007812 112.285156 L 8 112.285156 Z M 8 20 " clip-rule="nonzero"/></clipPath></defs><g clip-path="url(#cfde218356)"><path fill="#4b6044" d="M 79.503906 10.382812 C 79.503906 15.820312 83.925781 20.242188 89.363281 20.242188 C 94.796875 20.242188 99.222656 15.820312 99.222656 10.382812 C 99.222656 4.949219 94.796875 0.523438 89.363281 0.523438 C 83.925781 0.523438 79.503906 4.949219 79.503906 10.382812 Z M 96.292969 10.382812 C 96.292969 14.207031 93.183594 17.3125 89.363281 17.3125 C 85.539062 17.3125 82.429688 14.207031 82.429688 10.382812 C 82.429688 6.5625 85.539062 3.453125 89.363281 3.453125 C 93.183594 3.453125 96.292969 6.5625 96.292969 10.382812 Z M 96.292969 10.382812 " fill-opacity="1" fill-rule="nonzero"/></g><path fill="#4b6044" d="M 103.300781 17.53125 C 103.300781 22.96875 107.722656 27.390625 113.160156 27.390625 C 118.597656 27.390625 123.019531 22.96875 123.019531 17.53125 C 123.019531 12.09375 118.597656 7.671875 113.160156 7.671875 C 107.722656 7.671875 103.300781 12.09375 103.300781 17.53125 Z M 113.160156 10.601562 C 116.980469 10.601562 120.089844 13.710938 120.089844 17.53125 C 120.089844 21.351562 116.980469 24.460938 113.160156 24.460938 C 109.339844 24.460938 106.230469 21.351562 106.230469 17.53125 C 106.230469 13.710938 109.339844 10.601562 113.160156 10.601562 Z M 113.160156 10.601562 " fill-opacity="1" fill-rule="nonzero"/><path fill="#4b6044" d="M 55.703125 18.777344 C 55.703125 24.214844 60.128906 28.636719 65.5625 28.636719 C 71 28.636719 75.421875 24.214844 75.421875 18.777344 C 75.421875 13.34375 71 8.917969 65.5625 8.917969 C 60.128906 8.921875 55.703125 13.34375 55.703125 18.777344 Z M 72.492188 18.777344 C 72.492188 22.601562 69.386719 25.710938 65.5625 25.710938 C 61.742188 25.710938 58.632812 22.601562 58.632812 18.777344 C 58.632812 14.957031 61.742188 11.847656 65.5625 11.847656 C 69.386719 11.847656 72.492188 14.957031 72.492188 18.777344 Z M 72.492188 18.777344 " fill-opacity="1" fill-rule="nonzero"/><g clip-path="url(#87b6214eed)"><path fill="#4b6044" d="M 128.328125 35.4375 C 127.800781 35.539062 127.289062 35.6875 126.785156 35.855469 C 125.421875 31.15625 121.101562 27.804688 116.042969 27.804688 L 110.273438 27.804688 C 107.714844 27.804688 105.265625 28.710938 103.308594 30.269531 C 102.539062 24.84375 97.875 20.652344 92.238281 20.652344 L 86.484375 20.652344 C 80.453125 20.652344 75.53125 25.453125 75.308594 31.429688 C 73.371094 29.925781 70.960938 29.054688 68.449219 29.054688 L 62.679688 29.054688 C 56.515625 29.054688 51.5 34.066406 51.5 40.234375 L 51.5 45.089844 C 50.132812 45.695312 48.863281 46.523438 47.757812 47.582031 L 36.445312 58.398438 C 34.984375 57.492188 33.296875 57 31.523438 57 C 29.0625 57 26.742188 57.941406 24.992188 59.652344 L 11.171875 73.179688 C 7.492188 76.78125 7.429688 82.707031 11.03125 86.386719 L 33.472656 109.3125 C 35.238281 111.117188 37.609375 112.109375 40.144531 112.109375 C 42.609375 112.109375 44.929688 111.167969 46.679688 109.453125 L 60.496094 95.929688 C 62.273438 94.1875 63.269531 91.855469 63.292969 89.351562 C 63.3125 87.609375 62.851562 85.941406 61.984375 84.488281 L 63.175781 83.597656 C 66.023438 81.496094 69.519531 80.339844 73.019531 80.339844 L 94.320312 80.339844 C 98.167969 80.339844 101.980469 79.347656 105.351562 77.464844 C 106.519531 76.808594 107.550781 76.109375 108.496094 75.332031 L 120.246094 65.824219 C 120.726562 65.519531 121.199219 65.132812 121.695312 64.652344 L 121.722656 64.632812 C 121.722656 64.628906 121.726562 64.625 121.730469 64.621094 C 121.773438 64.578125 121.816406 64.546875 121.863281 64.5 L 138.570312 46.683594 C 139.613281 45.570312 140.164062 44.167969 140.164062 42.628906 C 140.164062 41.035156 139.5 39.46875 138.320312 38.308594 C 135.671875 35.839844 131.945312 34.765625 128.328125 35.4375 Z M 110.273438 30.730469 L 116.042969 30.730469 C 119.964844 30.730469 123.257812 33.46875 124.078125 37.210938 C 123.375 37.683594 122.707031 38.207031 122.121094 38.835938 L 114.0625 47.445312 L 106.019531 52.300781 C 105.820312 52.046875 105.632812 51.785156 105.402344 51.550781 C 104.816406 50.96875 104.144531 50.519531 103.433594 50.144531 L 103.433594 34.40625 C 104.949219 32.136719 107.527344 30.730469 110.273438 30.730469 Z M 86.484375 23.582031 L 92.238281 23.582031 C 96.796875 23.582031 100.507812 27.289062 100.507812 31.847656 L 100.507812 49.273438 C 100.25 49.246094 99.996094 49.195312 99.734375 49.195312 C 99.730469 49.195312 99.730469 49.195312 99.730469 49.195312 L 81.824219 49.203125 C 81.824219 49.203125 81.824219 49.203125 81.820312 49.203125 C 81.316406 49.203125 80.832031 49.046875 80.414062 48.753906 L 78.214844 47.203125 L 78.214844 31.847656 C 78.214844 27.289062 81.925781 23.582031 86.484375 23.582031 Z M 54.429688 40.234375 C 54.429688 35.683594 58.128906 31.980469 62.679688 31.980469 L 68.449219 31.980469 C 71.195312 31.980469 73.773438 33.386719 75.289062 35.65625 L 75.289062 45.324219 C 73.480469 44.429688 71.460938 43.945312 69.441406 43.945312 L 56.84375 43.945312 C 56.023438 43.945312 55.21875 44.027344 54.429688 44.171875 Z M 58.449219 93.835938 L 44.628906 107.359375 C 43.429688 108.535156 41.839844 109.179688 40.144531 109.179688 C 38.402344 109.179688 36.773438 108.5 35.5625 107.265625 L 13.125 84.339844 C 10.652344 81.8125 10.695312 77.746094 13.21875 75.273438 L 27.039062 61.746094 C 28.238281 60.574219 29.828125 59.925781 31.523438 59.925781 C 33.265625 59.925781 34.894531 60.609375 36.105469 61.84375 L 58.546875 84.769531 C 59.738281 85.988281 60.382812 87.605469 60.367188 89.324219 C 60.347656 91.039062 59.664062 92.644531 58.449219 93.835938 Z M 136.433594 44.679688 L 119.800781 62.414062 L 106.644531 73.0625 C 105.824219 73.738281 104.933594 74.34375 103.917969 74.910156 C 100.988281 76.546875 97.667969 77.414062 94.320312 77.414062 L 73.019531 77.414062 C 68.898438 77.414062 64.785156 78.769531 61.425781 81.246094 L 60.140625 82.210938 L 38.695312 60.300781 L 49.78125 49.699219 C 50.855469 48.671875 52.128906 47.914062 53.507812 47.441406 C 53.519531 47.4375 53.53125 47.433594 53.546875 47.425781 C 54.59375 47.070312 55.703125 46.875 56.839844 46.875 L 69.441406 46.875 C 71.535156 46.875 73.625 47.542969 75.332031 48.753906 L 78.726562 51.148438 C 79.640625 51.789062 80.707031 52.128906 81.820312 52.128906 C 81.824219 52.128906 81.824219 52.128906 81.828125 52.128906 L 99.730469 52.125 C 99.730469 52.125 99.730469 52.125 99.734375 52.125 C 101.085938 52.125 102.367188 52.65625 103.332031 53.621094 C 104.296875 54.589844 104.832031 55.867188 104.832031 57.222656 C 104.832031 60.035156 102.542969 62.320312 99.730469 62.320312 L 77.746094 62.320312 C 76.9375 62.320312 76.28125 62.976562 76.28125 63.785156 C 76.28125 64.59375 76.9375 65.25 77.746094 65.25 L 99.730469 65.25 C 104.160156 65.25 107.757812 61.648438 107.757812 57.222656 C 107.757812 56.421875 107.605469 55.648438 107.378906 54.902344 L 115.738281 49.855469 C 115.789062 49.824219 115.816406 49.777344 115.863281 49.742188 C 115.925781 49.695312 115.996094 49.664062 116.054688 49.605469 L 124.261719 40.832031 C 125.480469 39.527344 127.078125 38.65625 128.871094 38.316406 C 131.570312 37.8125 134.347656 38.613281 136.296875 40.425781 C 136.894531 41.011719 137.234375 41.816406 137.234375 42.628906 C 137.234375 43.421875 136.964844 44.113281 136.433594 44.679688 Z M 136.433594 44.679688 " fill-opacity="1" fill-rule="nonzero"/></g><g fill="#e2eaff" fill-opacity="1"><g transform="translate(4.425549, 90.913879)"><g><path d="M 0.59375 -0.71875 C 0.59375 -1.007812 0.664062 -1.222656 0.8125 -1.359375 C 0.96875 -1.503906 1.191406 -1.578125 1.484375 -1.578125 C 1.765625 -1.578125 1.976562 -1.503906 2.125 -1.359375 C 2.28125 -1.210938 2.359375 -1 2.359375 -0.71875 C 2.359375 -0.457031 2.28125 -0.25 2.125 -0.09375 C 1.976562 0.0625 1.765625 0.140625 1.484375 0.140625 C 1.203125 0.140625 0.984375 0.0664062 0.828125 -0.078125 C 0.671875 -0.234375 0.59375 -0.445312 0.59375 -0.71875 Z M 0.59375 -0.71875 "/></g></g></g></svg>