<svg xmlns="http://www.w3.org/2000/svg" xmlns:xlink="http://www.w3.org/1999/xlink" width="192" zoomAndPan="magnify" viewBox="0 0 144 131.249995" height="175" preserveAspectRatio="xMidYMid meet" version="1.0"><defs><g/><clipPath id="390ea4cba7"><path d="M 8 0.652344 L 143.589844 0.652344 L 143.589844 130.410156 L 8 130.410156 Z M 8 0.652344 " clip-rule="nonzero"/></clipPath></defs><g clip-path="url(#390ea4cba7)"><path fill="#4b6044" d="M 59.835938 0.773438 C 31.660156 0.773438 8.238281 21.242188 8.238281 46.984375 C 8.238281 59.34375 13.765625 70.566406 22.527344 78.847656 L 22.253906 80.203125 C 20.277344 85.992188 15.417969 89.265625 12.535156 90.3125 C 10.859375 90.910156 9.46875 91.816406 8.699219 93.402344 C 7.941406 94.976562 8.398438 97.15625 9.546875 98.292969 C 12.234375 100.992188 15.726562 100.730469 18.277344 100.753906 C 27.871094 100.867188 39.171875 95.835938 46.019531 92.414062 L 46.097656 92.378906 L 48.441406 91.023438 L 47.546875 90.746094 L 47.648438 90.769531 C 51.464844 91.65625 55.460938 91.929688 59.390625 91.929688 C 84.164062 91.929688 105.484375 77.125 110.195312 55.816406 L 110.195312 55.804688 C 110.828125 52.96875 111.160156 50.015625 111.160156 46.984375 C 111.160156 21.265625 88.011719 0.773438 59.835938 0.773438 Z M 59.835938 6.652344 C 85.175781 6.652344 105.277344 24.804688 105.277344 46.984375 C 105.277344 49.589844 104.992188 52.117188 104.449219 54.542969 C 100.429688 72.738281 81.832031 86.050781 59.390625 86.050781 C 55.757812 86.050781 52.1875 85.773438 48.992188 85.039062 L 47.707031 84.660156 L 43.351562 87.164062 C 36.851562 90.414062 25.640625 94.964844 18.347656 94.871094 C 17.347656 94.871094 17.253906 94.675781 16.554688 94.597656 C 20.734375 92.550781 25.558594 88.839844 27.859375 82.019531 L 27.902344 81.867188 L 28.960938 76.90625 L 27.664062 75.757812 C 19.242188 68.394531 14.121094 58.183594 14.121094 46.984375 C 14.121094 24.824219 34.496094 6.652344 59.835938 6.652344 Z M 34.703125 27.238281 L 34.703125 33.121094 L 84.695312 33.121094 L 84.695312 27.238281 Z M 34.703125 41.941406 L 34.703125 47.820312 L 84.695312 47.820312 L 84.695312 41.941406 Z M 116.410156 54.277344 C 116.257812 55.21875 116.15625 56.160156 115.949219 57.09375 C 115.71875 58.101562 115.421875 59.089844 115.121094 60.089844 C 128.664062 65.316406 137.578125 75.851562 137.578125 87.554688 C 137.578125 95.953125 133.214844 103.796875 125.265625 109.667969 L 123.667969 110.847656 L 124.164062 112.78125 C 125.746094 118.855469 131.308594 121.992188 135.15625 124.082031 C 129.054688 124.910156 115.800781 123.53125 109.136719 115.652344 L 108.023438 114.320312 L 106.324219 114.664062 C 103.648438 115.191406 100.546875 115.457031 96.824219 115.457031 C 78.539062 115.457031 63.683594 108.367188 57.90625 97.765625 C 55.519531 97.71875 53.289062 97.558594 51.199219 97.308594 C 56.65625 111.757812 74.195312 121.335938 96.824219 121.335938 C 100.210938 121.335938 103.164062 121.128906 105.816406 120.726562 C 112.308594 127.296875 122.886719 130.148438 131.457031 130.148438 C 132.019531 130.148438 132.582031 130.136719 133.121094 130.113281 C 138.09375 129.882812 141.335938 128.734375 142.769531 126.703125 C 143.402344 125.78125 143.621094 124.703125 143.367188 123.644531 C 142.875 121.542969 140.945312 120.511719 138.269531 119.074219 C 135.636719 117.648438 132.179688 115.777344 130.558594 112.984375 C 138.796875 106.1875 143.460938 97.042969 143.460938 87.554688 C 143.460938 73.128906 132.675781 60.25 116.410156 54.277344 Z M 34.703125 56.644531 L 34.703125 62.523438 L 69.992188 62.523438 L 69.992188 56.644531 Z M 108.265625 74.289062 C 106.792969 76.355469 105.175781 78.332031 103.394531 80.167969 L 117.039062 80.167969 L 117.039062 74.289062 Z M 92.308594 88.992188 C 88.253906 91.425781 83.808594 93.414062 79.089844 94.871094 L 117.039062 94.871094 L 117.039062 88.992188 Z M 92.308594 88.992188 " fill-opacity="1" fill-rule="nonzero"/></g><g fill="#e2eaff" fill-opacity="1"><g transform="translate(4.374403, 79.06416)"><g><path d="M 0.59375 -0.71875 C 0.59375 -1.007812 0.664062 -1.226562 0.8125 -1.375 C 0.96875 -1.519531 1.191406 -1.59375 1.484375 -1.59375 C 1.765625 -1.59375 1.984375 -1.515625 2.140625 -1.359375 C 2.296875 -1.210938 2.375 -1 2.375 -0.71875 C 2.375 -0.457031 2.296875 -0.25 2.140625 -0.09375 C 1.984375 0.0625 1.765625 0.140625 1.484375 0.140625 C 1.203125 0.140625 0.984375 0.0664062 0.828125 -0.078125 C 0.671875 -0.234375 0.59375 -0.445312 0.59375 -0.71875 Z M 0.59375 -0.71875 "/></g></g></g></svg>