<svg xmlns="http://www.w3.org/2000/svg" xmlns:xlink="http://www.w3.org/1999/xlink" width="317" zoomAndPan="magnify" viewBox="0 0 237.75 144.749998" height="193" preserveAspectRatio="xMidYMid meet" version="1.0"><defs><g/><clipPath id="c70fd3e516"><path d="M 7.035156 0.289062 L 236.886719 0.289062 L 236.886719 144.042969 L 7.035156 144.042969 Z M 7.035156 0.289062 " clip-rule="nonzero"/></clipPath></defs><g clip-path="url(#c70fd3e516)"><path fill="#4b6044" d="M 122.03125 144.039062 C 124.960938 144.003906 127.882812 143.867188 130.800781 143.636719 C 133.71875 143.40625 136.625 143.074219 139.523438 142.648438 C 142.417969 142.222656 145.296875 141.703125 148.160156 141.082031 C 151.019531 140.464844 153.859375 139.753906 156.671875 138.945312 C 159.484375 138.136719 162.269531 137.238281 165.023438 136.246094 C 167.777344 135.25 170.496094 134.167969 173.175781 132.992188 C 175.859375 131.816406 178.496094 130.554688 181.09375 129.203125 C 183.691406 127.851562 186.242188 126.417969 188.742188 124.894531 C 191.242188 123.375 193.691406 121.773438 196.085938 120.089844 C 198.480469 118.402344 200.816406 116.640625 203.09375 114.800781 C 205.371094 112.960938 207.582031 111.046875 209.730469 109.058594 C 211.878906 107.070312 213.960938 105.015625 215.972656 102.886719 C 217.984375 100.761719 219.921875 98.570312 221.789062 96.3125 C 223.652344 94.058594 225.441406 91.742188 227.152344 89.367188 C 228.863281 86.988281 230.492188 84.558594 232.042969 82.074219 C 233.589844 79.589844 235.054688 77.058594 236.433594 74.476562 C 236.832031 73.757812 237.027344 72.988281 237.027344 72.167969 C 237.027344 71.347656 236.832031 70.574219 236.433594 69.855469 C 235.054688 67.273438 233.589844 64.742188 232.042969 62.257812 C 230.492188 59.773438 228.863281 57.34375 227.152344 54.96875 C 225.441406 52.59375 223.652344 50.277344 221.789062 48.019531 C 219.921875 45.765625 217.984375 43.574219 215.972656 41.445312 C 213.960938 39.320312 211.878906 37.261719 209.730469 35.273438 C 207.582031 33.285156 205.371094 31.371094 203.09375 29.53125 C 200.816406 27.691406 198.480469 25.929688 196.085938 24.246094 C 193.691406 22.558594 191.242188 20.957031 188.742188 19.4375 C 186.242188 17.914062 183.691406 16.480469 181.09375 15.128906 C 178.496094 13.777344 175.859375 12.515625 173.175781 11.339844 C 170.496094 10.167969 167.777344 9.082031 165.023438 8.089844 C 162.269531 7.09375 159.484375 6.195312 156.671875 5.386719 C 153.859375 4.582031 151.019531 3.867188 148.160156 3.25 C 145.296875 2.632812 142.417969 2.109375 139.523438 1.683594 C 136.625 1.257812 133.71875 0.929688 130.800781 0.695312 C 127.882812 0.464844 124.960938 0.332031 122.03125 0.292969 C 119.105469 0.332031 116.183594 0.464844 113.261719 0.695312 C 110.34375 0.929688 107.4375 1.257812 104.542969 1.683594 C 101.644531 2.109375 98.765625 2.632812 95.90625 3.25 C 93.042969 3.867188 90.207031 4.582031 87.390625 5.386719 C 84.578125 6.195312 81.792969 7.09375 79.039062 8.089844 C 76.285156 9.082031 73.570312 10.167969 70.886719 11.339844 C 68.207031 12.515625 65.566406 13.777344 62.96875 15.128906 C 60.371094 16.480469 57.824219 17.914062 55.320312 19.4375 C 52.820312 20.957031 50.371094 22.558594 47.976562 24.246094 C 45.582031 25.929688 43.246094 27.691406 40.972656 29.53125 C 38.695312 31.371094 36.480469 33.285156 34.332031 35.273438 C 32.183594 37.261719 30.101562 39.320312 28.089844 41.445312 C 26.078125 43.574219 24.140625 45.765625 22.277344 48.019531 C 20.410156 50.277344 18.621094 52.59375 16.910156 54.96875 C 15.199219 57.34375 13.570312 59.773438 12.023438 62.257812 C 10.472656 64.742188 9.007812 67.273438 7.628906 69.855469 C 7.234375 70.574219 7.035156 71.347656 7.035156 72.167969 C 7.035156 72.988281 7.234375 73.757812 7.628906 74.476562 C 9.007812 77.058594 10.472656 79.589844 12.023438 82.074219 C 13.570312 84.558594 15.199219 86.988281 16.910156 89.367188 C 18.621094 91.742188 20.410156 94.058594 22.277344 96.3125 C 24.140625 98.570312 26.078125 100.761719 28.089844 102.886719 C 30.101562 105.015625 32.183594 107.070312 34.332031 109.058594 C 36.480469 111.046875 38.695312 112.960938 40.972656 114.800781 C 43.246094 116.640625 45.582031 118.402344 47.976562 120.089844 C 50.371094 121.773438 52.820312 123.375 55.320312 124.894531 C 57.824219 126.417969 60.371094 127.851562 62.96875 129.203125 C 65.566406 130.554688 68.207031 131.816406 70.886719 132.992188 C 73.570312 134.167969 76.285156 135.25 79.039062 136.246094 C 81.792969 137.238281 84.578125 138.136719 87.390625 138.945312 C 90.207031 139.753906 93.042969 140.464844 95.90625 141.082031 C 98.765625 141.703125 101.644531 142.222656 104.542969 142.648438 C 107.4375 143.074219 110.34375 143.40625 113.261719 143.636719 C 116.183594 143.867188 119.105469 144.003906 122.03125 144.039062 Z M 122.03125 9.875 C 124.691406 9.910156 127.34375 10.03125 129.996094 10.242188 C 132.648438 10.449219 135.289062 10.742188 137.917969 11.125 C 140.550781 11.507812 143.167969 11.972656 145.769531 12.527344 C 148.371094 13.078125 150.949219 13.714844 153.507812 14.4375 C 156.066406 15.160156 158.601562 15.964844 161.105469 16.851562 C 163.613281 17.738281 166.089844 18.707031 168.53125 19.757812 C 170.972656 20.804688 173.378906 21.933594 175.75 23.140625 C 178.117188 24.347656 180.445312 25.632812 182.730469 26.992188 C 185.015625 28.351562 187.253906 29.785156 189.445312 31.289062 C 191.636719 32.796875 193.777344 34.371094 195.863281 36.015625 C 197.953125 37.664062 199.984375 39.375 201.960938 41.15625 C 203.9375 42.933594 205.851562 44.777344 207.707031 46.679688 C 209.5625 48.585938 211.355469 50.550781 213.082031 52.570312 C 214.808594 54.59375 216.46875 56.667969 218.058594 58.800781 C 219.648438 60.929688 221.167969 63.109375 222.617188 65.339844 C 224.0625 67.570312 225.4375 69.847656 226.738281 72.167969 C 225.4375 74.488281 224.0625 76.761719 222.617188 78.992188 C 221.167969 81.222656 219.648438 83.402344 218.058594 85.53125 C 216.46875 87.664062 214.808594 89.738281 213.082031 91.761719 C 211.355469 93.785156 209.5625 95.746094 207.707031 97.652344 C 205.851562 99.554688 203.9375 101.398438 201.960938 103.175781 C 199.984375 104.957031 197.953125 106.667969 195.863281 108.316406 C 193.777344 109.960938 191.636719 111.539062 189.445312 113.042969 C 187.253906 114.550781 185.015625 115.984375 182.730469 117.34375 C 180.445312 118.703125 178.117188 119.984375 175.75 121.191406 C 173.378906 122.398438 170.972656 123.527344 168.53125 124.578125 C 166.089844 125.625 163.613281 126.59375 161.105469 127.480469 C 158.601562 128.371094 156.066406 129.175781 153.507812 129.894531 C 150.949219 130.617188 148.371094 131.253906 145.769531 131.808594 C 143.167969 132.359375 140.550781 132.828125 137.917969 133.207031 C 135.289062 133.589844 132.648438 133.882812 129.996094 134.09375 C 127.34375 134.300781 124.691406 134.421875 122.03125 134.457031 C 119.375 134.421875 116.71875 134.300781 114.066406 134.09375 C 111.417969 133.882812 108.777344 133.589844 106.144531 133.207031 C 103.511719 132.828125 100.898438 132.359375 98.296875 131.808594 C 95.695312 131.253906 93.113281 130.617188 90.554688 129.894531 C 87.996094 129.175781 85.464844 128.371094 82.957031 127.480469 C 80.449219 126.59375 77.976562 125.625 75.53125 124.578125 C 73.089844 123.527344 70.683594 122.398438 68.3125 121.191406 C 65.945312 119.984375 63.617188 118.703125 61.332031 117.34375 C 59.046875 115.984375 56.808594 114.550781 54.617188 113.042969 C 52.425781 111.539062 50.285156 109.960938 48.199219 108.316406 C 46.109375 106.667969 44.078125 104.957031 42.101562 103.175781 C 40.125 101.398438 38.210938 99.554688 36.355469 97.652344 C 34.5 95.746094 32.710938 93.785156 30.984375 91.761719 C 29.253906 89.738281 27.597656 87.664062 26.007812 85.53125 C 24.414062 83.402344 22.894531 81.222656 21.449219 78.992188 C 20 76.761719 18.625 74.488281 17.328125 72.167969 C 18.625 69.847656 20 67.570312 21.449219 65.339844 C 22.894531 63.109375 24.414062 60.929688 26.007812 58.800781 C 27.597656 56.667969 29.253906 54.59375 30.984375 52.570312 C 32.710938 50.550781 34.5 48.585938 36.355469 46.679688 C 38.210938 44.777344 40.125 42.933594 42.101562 41.15625 C 44.078125 39.375 46.109375 37.664062 48.199219 36.015625 C 50.285156 34.371094 52.425781 32.796875 54.617188 31.289062 C 56.808594 29.785156 59.046875 28.351562 61.332031 26.992188 C 63.617188 25.632812 65.945312 24.347656 68.3125 23.140625 C 70.683594 21.933594 73.089844 20.804688 75.53125 19.757812 C 77.976562 18.707031 80.449219 17.738281 82.957031 16.851562 C 85.464844 15.964844 87.996094 15.160156 90.554688 14.4375 C 93.113281 13.714844 95.695312 13.078125 98.296875 12.527344 C 100.898438 11.972656 103.511719 11.507812 106.144531 11.125 C 108.777344 10.742188 111.417969 10.449219 114.066406 10.242188 C 116.71875 10.03125 119.375 9.910156 122.03125 9.875 Z M 122.03125 9.875 " fill-opacity="1" fill-rule="nonzero"/></g><path fill="#4b6044" d="M 122.03125 110.5 C 123.289062 110.5 124.539062 110.4375 125.789062 110.3125 C 127.039062 110.191406 128.277344 110.007812 129.511719 109.761719 C 130.742188 109.515625 131.957031 109.210938 133.160156 108.847656 C 134.359375 108.484375 135.542969 108.0625 136.699219 107.582031 C 137.859375 107.101562 138.996094 106.5625 140.101562 105.972656 C 141.207031 105.378906 142.285156 104.734375 143.328125 104.039062 C 144.371094 103.339844 145.378906 102.59375 146.351562 101.796875 C 147.320312 101 148.25 100.160156 149.136719 99.273438 C 150.023438 98.382812 150.867188 97.453125 151.664062 96.484375 C 152.460938 95.515625 153.207031 94.507812 153.902344 93.460938 C 154.601562 92.417969 155.246094 91.34375 155.839844 90.234375 C 156.429688 89.128906 156.964844 87.996094 157.445312 86.835938 C 157.925781 85.675781 158.347656 84.496094 158.714844 83.292969 C 159.078125 82.09375 159.382812 80.875 159.628906 79.644531 C 159.871094 78.414062 160.054688 77.171875 160.179688 75.921875 C 160.300781 74.675781 160.363281 73.421875 160.363281 72.167969 C 160.363281 70.910156 160.300781 69.660156 160.179688 68.410156 C 160.054688 67.160156 159.871094 65.917969 159.628906 64.6875 C 159.382812 63.457031 159.078125 62.242188 158.714844 61.039062 C 158.347656 59.839844 157.925781 58.65625 157.445312 57.496094 C 156.964844 56.335938 156.429688 55.203125 155.839844 54.097656 C 155.246094 52.988281 154.601562 51.914062 153.902344 50.871094 C 153.207031 49.828125 152.460938 48.820312 151.664062 47.847656 C 150.867188 46.878906 150.023438 45.949219 149.136719 45.0625 C 148.25 44.175781 147.320312 43.332031 146.351562 42.535156 C 145.378906 41.738281 144.371094 40.992188 143.328125 40.292969 C 142.285156 39.597656 141.207031 38.953125 140.101562 38.359375 C 138.996094 37.769531 137.859375 37.234375 136.699219 36.753906 C 135.542969 36.273438 134.359375 35.847656 133.160156 35.484375 C 131.957031 35.121094 130.742188 34.816406 129.511719 34.570312 C 128.277344 34.324219 127.039062 34.140625 125.789062 34.019531 C 124.539062 33.894531 123.289062 33.835938 122.03125 33.835938 C 120.777344 33.835938 119.523438 33.894531 118.273438 34.019531 C 117.023438 34.140625 115.785156 34.324219 114.554688 34.570312 C 113.324219 34.816406 112.105469 35.121094 110.90625 35.484375 C 109.703125 35.847656 108.523438 36.273438 107.363281 36.753906 C 106.203125 37.234375 105.070312 37.769531 103.960938 38.359375 C 102.855469 38.953125 101.78125 39.597656 100.734375 40.292969 C 99.691406 40.992188 98.683594 41.738281 97.714844 42.535156 C 96.742188 43.332031 95.816406 44.175781 94.925781 45.0625 C 94.039062 45.949219 93.195312 46.878906 92.402344 47.847656 C 91.605469 48.820312 90.855469 49.828125 90.160156 50.871094 C 89.460938 51.914062 88.816406 52.988281 88.226562 54.097656 C 87.632812 55.203125 87.097656 56.335938 86.617188 57.496094 C 86.136719 58.65625 85.714844 59.839844 85.351562 61.039062 C 84.984375 62.242188 84.679688 63.457031 84.4375 64.6875 C 84.191406 65.917969 84.007812 67.160156 83.882812 68.410156 C 83.761719 69.660156 83.699219 70.910156 83.699219 72.167969 C 83.699219 73.421875 83.761719 74.675781 83.882812 75.921875 C 84.007812 77.171875 84.191406 78.414062 84.4375 79.644531 C 84.679688 80.875 84.984375 82.09375 85.351562 83.292969 C 85.714844 84.496094 86.136719 85.675781 86.617188 86.835938 C 87.097656 87.996094 87.632812 89.128906 88.226562 90.234375 C 88.816406 91.34375 89.460938 92.417969 90.160156 93.460938 C 90.855469 94.507812 91.605469 95.515625 92.402344 96.484375 C 93.195312 97.453125 94.039062 98.382812 94.925781 99.273438 C 95.816406 100.160156 96.742188 101 97.714844 101.796875 C 98.683594 102.59375 99.691406 103.339844 100.734375 104.039062 C 101.78125 104.734375 102.855469 105.378906 103.960938 105.972656 C 105.070312 106.5625 106.203125 107.101562 107.363281 107.582031 C 108.523438 108.0625 109.703125 108.484375 110.90625 108.847656 C 112.105469 109.210938 113.324219 109.515625 114.554688 109.761719 C 115.785156 110.007812 117.023438 110.191406 118.273438 110.3125 C 119.523438 110.4375 120.777344 110.5 122.03125 110.5 Z M 122.03125 43.417969 C 122.972656 43.417969 123.914062 43.464844 124.851562 43.554688 C 125.785156 43.648438 126.71875 43.785156 127.640625 43.96875 C 128.5625 44.152344 129.476562 44.382812 130.378906 44.65625 C 131.277344 44.929688 132.164062 45.246094 133.035156 45.605469 C 133.902344 45.964844 134.753906 46.367188 135.585938 46.8125 C 136.414062 47.257812 137.222656 47.738281 138.003906 48.261719 C 138.785156 48.785156 139.542969 49.347656 140.269531 49.941406 C 141 50.539062 141.695312 51.171875 142.359375 51.835938 C 143.027344 52.503906 143.65625 53.199219 144.253906 53.929688 C 144.851562 54.65625 145.414062 55.410156 145.9375 56.195312 C 146.460938 56.976562 146.941406 57.785156 147.386719 58.613281 C 147.832031 59.445312 148.230469 60.292969 148.59375 61.164062 C 148.953125 62.035156 149.269531 62.921875 149.542969 63.820312 C 149.816406 64.722656 150.046875 65.632812 150.230469 66.558594 C 150.414062 67.480469 150.550781 68.410156 150.644531 69.347656 C 150.734375 70.285156 150.78125 71.226562 150.78125 72.167969 C 150.78125 73.109375 150.734375 74.046875 150.644531 74.984375 C 150.550781 75.921875 150.414062 76.851562 150.230469 77.773438 C 150.046875 78.699219 149.816406 79.609375 149.542969 80.511719 C 149.269531 81.414062 148.953125 82.296875 148.59375 83.167969 C 148.230469 84.039062 147.832031 84.886719 147.386719 85.71875 C 146.941406 86.550781 146.460938 87.355469 145.9375 88.140625 C 145.414062 88.921875 144.851562 89.675781 144.253906 90.40625 C 143.65625 91.132812 143.027344 91.828125 142.359375 92.496094 C 141.695312 93.160156 141 93.792969 140.269531 94.390625 C 139.542969 94.988281 138.785156 95.546875 138.003906 96.070312 C 137.222656 96.59375 136.414062 97.078125 135.585938 97.519531 C 134.753906 97.964844 133.902344 98.367188 133.035156 98.726562 C 132.164062 99.085938 131.277344 99.40625 130.378906 99.679688 C 129.476562 99.949219 128.5625 100.179688 127.640625 100.363281 C 126.71875 100.546875 125.785156 100.683594 124.851562 100.777344 C 123.914062 100.871094 122.972656 100.914062 122.03125 100.914062 C 121.089844 100.914062 120.152344 100.871094 119.214844 100.777344 C 118.277344 100.683594 117.347656 100.546875 116.421875 100.363281 C 115.5 100.179688 114.585938 99.949219 113.6875 99.679688 C 112.785156 99.40625 111.898438 99.085938 111.03125 98.726562 C 110.160156 98.367188 109.308594 97.964844 108.480469 97.519531 C 107.648438 97.078125 106.84375 96.59375 106.058594 96.070312 C 105.277344 95.546875 104.523438 94.988281 103.792969 94.390625 C 103.066406 93.792969 102.367188 93.160156 101.703125 92.496094 C 101.039062 91.828125 100.40625 91.132812 99.808594 90.40625 C 99.210938 89.675781 98.652344 88.921875 98.128906 88.140625 C 97.605469 87.355469 97.121094 86.550781 96.675781 85.71875 C 96.234375 84.886719 95.832031 84.039062 95.472656 83.167969 C 95.109375 82.296875 94.792969 81.414062 94.519531 80.511719 C 94.246094 79.609375 94.019531 78.699219 93.835938 77.773438 C 93.652344 76.851562 93.511719 75.921875 93.421875 74.984375 C 93.328125 74.046875 93.28125 73.109375 93.28125 72.167969 C 93.28125 71.226562 93.328125 70.285156 93.421875 69.347656 C 93.511719 68.410156 93.652344 67.480469 93.835938 66.558594 C 94.019531 65.632812 94.246094 64.722656 94.519531 63.820312 C 94.792969 62.921875 95.109375 62.035156 95.472656 61.164062 C 95.832031 60.292969 96.234375 59.445312 96.675781 58.613281 C 97.121094 57.785156 97.605469 56.976562 98.128906 56.195312 C 98.652344 55.410156 99.210938 54.65625 99.808594 53.929688 C 100.40625 53.199219 101.039062 52.503906 101.703125 51.835938 C 102.367188 51.171875 103.066406 50.539062 103.792969 49.941406 C 104.523438 49.347656 105.277344 48.785156 106.058594 48.261719 C 106.84375 47.738281 107.648438 47.257812 108.480469 46.8125 C 109.308594 46.367188 110.160156 45.964844 111.03125 45.605469 C 111.898438 45.246094 112.785156 44.929688 113.6875 44.65625 C 114.585938 44.382812 115.5 44.152344 116.421875 43.96875 C 117.347656 43.785156 118.277344 43.648438 119.214844 43.554688 C 120.152344 43.464844 121.089844 43.417969 122.03125 43.417969 Z M 122.03125 43.417969 " fill-opacity="1" fill-rule="nonzero"/><g fill="#e2eaff" fill-opacity="1"><g transform="translate(4.061267, 86.865932)"><g><path d="M 0.59375 -0.734375 C 0.59375 -1.015625 0.664062 -1.226562 0.8125 -1.375 C 0.96875 -1.519531 1.191406 -1.59375 1.484375 -1.59375 C 1.765625 -1.59375 1.984375 -1.515625 2.140625 -1.359375 C 2.296875 -1.210938 2.375 -1.003906 2.375 -0.734375 C 2.375 -0.460938 2.296875 -0.25 2.140625 -0.09375 C 1.984375 0.0625 1.765625 0.140625 1.484375 0.140625 C 1.203125 0.140625 0.984375 0.0664062 0.828125 -0.078125 C 0.671875 -0.234375 0.59375 -0.453125 0.59375 -0.734375 Z M 0.59375 -0.734375 "/></g></g></g></svg>